<?xml version="1.0" encoding="UTF-8"?>
<!DOCTYPE svg PUBLIC "-//W3C//DTD SVG 1.1//EN" "http://www.w3.org/Graphics/SVG/1.1/DTD/svg11.dtd">
<!-- Creator: CorelDRAW X6 -->
<svg xmlns="http://www.w3.org/2000/svg" xml:space="preserve" width="100%" height="100%" version="1.1" style="shape-rendering:geometricPrecision; text-rendering:geometricPrecision; image-rendering:optimizeQuality; fill-rule:evenodd; clip-rule:evenodd"
viewBox="0 0 495 500"
 xmlns:xlink="http://www.w3.org/1999/xlink">
 <defs>
  <style type="text/css">
   <![CDATA[
    .str0 {stroke:#434242;stroke-width:5}
    .str1 {stroke:#434242;stroke-width:5;stroke-linejoin:round}
    .fil4 {fill:none}
    .fil2 {fill:#434242}
    .fil3 {fill:#EDEDED}
    .fil0 {fill:url(#id0)}
    .fil6 {fill:url(#id1)}
    .fil5 {fill:url(#id2)}
    .fil7 {fill:url(#id3)}
    .fil1 {fill:url(#id4)}
   ]]>
  </style>
  <linearGradient id="id0" gradientUnits="userSpaceOnUse" x1="305.197" y1="58.485" x2="45.063" y2="318.619">
   <stop offset="0" style="stop-color:#008BFF"/>
   <stop offset="1" style="stop-color:#00AAFF"/>
  </linearGradient>
  <linearGradient id="id1" gradientUnits="userSpaceOnUse" x1="207.378" y1="290.653" x2="174.116" y2="323.915">
   <stop offset="0" style="stop-color:#FCFCFD"/>
   <stop offset="1" style="stop-color:#EDEDED"/>
  </linearGradient>
  <linearGradient id="id2" gradientUnits="userSpaceOnUse" x1="382.139" y1="333.857" x2="163.959" y2="115.663">
   <stop offset="0" style="stop-color:#008BFF"/>
   <stop offset="0.501961" style="stop-color:#4EAFFF"/>
   <stop offset="1" style="stop-color:#008BFF"/>
  </linearGradient>
  <linearGradient id="id3" gradientUnits="userSpaceOnUse" x1="85.314" y1="378.809" x2="119.222" y2="412.717">
   <stop offset="0" style="stop-color:#E5E5E6"/>
   <stop offset="0.490196" style="stop-color:white"/>
   <stop offset="1" style="stop-color:#E5E5E6"/>
  </linearGradient>
  <linearGradient id="id4" gradientUnits="userSpaceOnUse" xlink:href="#id3" x1="303.463" y1="347.025" x2="333.715" y2="316.775">
  </linearGradient>
 </defs>
 <g id="Layer_x0020_1">
  <metadata id="CorelCorpID_0Corel-Layer"/>
  <path class="fil0 str0" d="M63 98c-10,-17 4,-32 22,-21 72,55 156,127 220,205l-37 37c-77,-65 -149,-148 -205,-221z"/>
  <path class="fil1 str0" d="M305 282c17,20 33,41 46,62 3,3 5,7 3,9 -5,5 -10,9 -15,14 -2,2 -5,0 -9,-2 -21,-14 -41,-29 -62,-46l37 -37z"/>
  <path class="fil2" d="M339 367c-2,19 8,41 16,50 29,30 73,11 73,10 -35,-28 11,-74 -74,-74l-15 14z"/>
  <path class="fil3" d="M387 416c-15,-13 -5,-23 -33,-32 3,22 18,29 33,32z"/>
  <line class="fil4 str0" x1="279" y1="327" x2="313" y2= "292" />
  <path class="fil5 str1" d="M392 77l28 29c-61,82 -136,158 -215,222l-36 -35c65,-79 142,-153 223,-216zm-187 251c-17,10 -32,26 -43,41 -2,3 -5,3 -8,1l-26 -27c-2,-2 -2,-5 1,-7 15,-11 31,-26 41,-43 11,12 23,24 35,35z"/>
  <path class="fil6 str1" d="M213 322c-3,2 -6,4 -8,7l-35 -36c2,-2 4,-5 6,-8l37 37z"/>
  <path class="fil2 str1" d="M127 343l28 28 -3 3c-2,2 -5,2 -7,0l-21 -21c-2,-2 -2,-5 0,-7l3 -3z"/>
  <path class="fil7 str0" d="M64 432l22 -53c1,-2 2,-4 5,-6l33 -20 21 21 -20 33c-2,3 -4,4 -6,5l-53 22c0,1 0,2 -1,2 -1,1 -2,1 -3,0 -1,-1 -1,-2 0,-3 0,-1 1,-1 2,-1z"/>
  <path class="fil2" d="M109 389c2,2 2,5 0,7 -1,1 -3,1 -5,1l-37 34 34 -37c0,-2 0,-4 1,-5 2,-2 5,-2 7,0z"/>
  <path class="fil3 str1" d="M410 64c11,6 18,14 24,24 1,1 2,3 0,4l-13 14 -29 -29 14 -13c1,-1 3,-1 4,0z"/>
 </g>
</svg>
