<?xml version="1.0" encoding="UTF-8"?>
<!DOCTYPE svg PUBLIC "-//W3C//DTD SVG 1.1//EN" "http://www.w3.org/Graphics/SVG/1.1/DTD/svg11.dtd">
<!-- Creator: CorelDRAW X6 -->
<svg xmlns="http://www.w3.org/2000/svg" xml:space="preserve" width="100%" height="100%" version="1.1" style="shape-rendering:geometricPrecision; text-rendering:geometricPrecision; image-rendering:optimizeQuality; fill-rule:evenodd; clip-rule:evenodd"
viewBox="0 0 500 500"
 xmlns:xlink="http://www.w3.org/1999/xlink">
 <defs>
  <style type="text/css">
   <![CDATA[
    .str0 {stroke:#5B5B5B;stroke-width:5}
    .fil3 {fill:none}
    .fil2 {fill:#5B5B5B}
    .fil1 {fill:whitesmoke}
    .fil0 {fill:white}
   ]]>
  </style>
 </defs>
 <g id="Layer_x0020_1">
  <metadata id="CorelCorpID_0Corel-Layer"/>
  <path class="fil0" d="M50 20l30 400 170 60 170 -60 30 -400 -400 0zm310 285l-110 40 -110 -40c0,-50 0,-100 0,-150l27 -10 138 50 -55 20 -70 -25 0 90 70 25 70 -25 0 -100 -125 -45 55 -20 110 40c0,50 0,100 0,150z"/>
  <path class="fil1" d="M250 434l136 -48 24 -320 -160 0 0 49 110 40c0,50 0,100 0,150l-110 40 0 89zm0 -279l0 20 55 20 -55 20 0 90 70 -25 0 -100 -70 -25z"/>
  <path class="fil2" d="M360 305l-110 40 -110 -40c0,-50 0,-100 0,-150l27 -10 138 50 -55 20 -70 -25 0 90 70 25 70 -25 0 -100 -125 -45 55 -20 110 40c0,50 0,100 0,150z"/>
  <polygon class="fil3 str0" points="50,20 80,420 250,480 420,420 450,20 "/>
 </g>
</svg>
