<?xml version="1.0" encoding="UTF-8"?>
<!DOCTYPE svg PUBLIC "-//W3C//DTD SVG 1.1//EN" "http://www.w3.org/Graphics/SVG/1.1/DTD/svg11.dtd">
<!-- Creator: CorelDRAW X6 -->
<svg xmlns="http://www.w3.org/2000/svg" xml:space="preserve" width="100%" height="100%" version="1.1" shape-rendering="geometricPrecision" text-rendering="geometricPrecision" image-rendering="optimizeQuality" fill-rule="evenodd" clip-rule="evenodd"
viewBox="0 0 500 500"
 xmlns:xlink="http://www.w3.org/1999/xlink">
 <g id="Layer_x0020_1">
  <metadata id="CorelCorpID_0Corel-Layer"/>
  <path fill="none" stroke="#434242" stroke-width="20" d="M104 460l288 0c18,0 33,-15 33,-33l0 -354c0,-18 -15,-33 -33,-33l-288 0c-18,0 -33,15 -33,33l0 354c0,18 15,33 33,33z"/>
  <path fill="#434242" stroke="#434242" stroke-width="10" d="M458 90l0 30c0,8 -7,15 -15,15l-10 0 0 -60 10 0c8,0 15,7 15,15z"/>
  <path fill="none" stroke="#434242" stroke-width="10" d="M458 165l0 30c0,8 -7,15 -15,15l-14 0 0 -60 14 0c8,0 15,7 15,15zm0 75l0 30c0,8 -7,15 -15,15l-14 0 0 -60 14 0c8,0 15,7 15,15zm0 75l0 30c0,8 -7,15 -15,15l-14 0 0 -60 14 0c8,0 15,7 15,15z"/>
  <line fill="none" stroke="#434242" stroke-width="30" stroke-linecap="round" x1="50" y1="120" x2="120" y2= "120" />
  <line fill="none" stroke="#434242" stroke-width="30" stroke-linecap="round" x1="50" y1="185" x2="120" y2= "185" />
  <line fill="none" stroke="#434242" stroke-width="30" stroke-linecap="round" x1="50" y1="250" x2="120" y2= "250" />
  <line fill="none" stroke="#434242" stroke-width="30" stroke-linecap="round" x1="50" y1="315" x2="120" y2= "315" />
  <line fill="none" stroke="#434242" stroke-width="30" stroke-linecap="round" x1="50" y1="380" x2="120" y2= "380" />
 </g>
</svg>
