<?xml version="1.0" encoding="UTF-8"?>
<!DOCTYPE svg PUBLIC "-//W3C//DTD SVG 1.1//EN" "http://www.w3.org/Graphics/SVG/1.1/DTD/svg11.dtd">
<!-- Creator: CorelDRAW X6 -->
<svg xmlns="http://www.w3.org/2000/svg" xml:space="preserve" width="100%" height="100%" version="1.1" shape-rendering="geometricPrecision" text-rendering="geometricPrecision" image-rendering="optimizeQuality" fill-rule="evenodd" clip-rule="evenodd"
viewBox="0 0 500 500"
 xmlns:xlink="http://www.w3.org/1999/xlink">
 <g id="Layer_x0020_1">
  <metadata id="CorelCorpID_0Corel-Layer"/>
  <path fill="#434242" d="M104 460l288 0c18,0 33,-15 33,-33l0 -292 22 0c8,0 15,-7 15,-15l0 -30c0,-8 -7,-15 -15,-15l-22 0 0 -2c0,-18 -15,-33 -33,-33l-288 0c-18,0 -33,15 -33,33l0 22c0,3 2,5 5,5l44 0c11,0 20,9 20,20 0,11 -9,20 -20,20l-44 0c-3,0 -5,2 -5,5l0 15c0,3 2,5 5,5l44 0c11,0 20,9 20,20 0,11 -9,20 -20,20l-44 0c-3,0 -5,2 -5,5l0 15c0,3 2,5 5,5l44 0c11,0 20,9 20,20 0,11 -9,20 -20,20l-44 0c-3,0 -5,2 -5,5l0 15c0,3 2,5 5,5l44 0c11,0 20,9 20,20 0,11 -9,20 -20,20l-44 0c-3,0 -5,2 -5,5l0 15c0,3 2,5 5,5l44 0c11,0 20,9 20,20 0,11 -9,20 -20,20l-44 0c-3,0 -5,2 -5,5l0 22c0,18 15,33 33,33zm356 -295l0 30c0,8 -7,15 -15,15l-10 0 0 -60 10 0c8,0 15,7 15,15zm0 75l0 30c0,8 -7,15 -15,15l-10 0 0 -60 10 0c8,0 15,7 15,15zm0 75l0 30c0,8 -7,15 -15,15l-10 0 0 -60 10 0c8,0 15,7 15,15z"/>
  <path fill="none" stroke="#434242" stroke-width="20" stroke-linecap="round" d="M50 120l70 0m-70 65l70 0m-70 65l70 0m-70 65l70 0m-70 65l70 0"/>
 </g>
</svg>
