<?xml version="1.0" encoding="UTF-8"?>
<!DOCTYPE svg PUBLIC "-//W3C//DTD SVG 1.1//EN" "http://www.w3.org/Graphics/SVG/1.1/DTD/svg11.dtd">

<svg xmlns="http://www.w3.org/2000/svg" xml:space="preserve" width="100%" height="100%" version="1.1" style="shape-rendering:geometricPrecision; text-rendering:geometricPrecision; image-rendering:optimizeQuality; fill-rule:evenodd; clip-rule:evenodd"
viewBox="0 0 500 500"
 xmlns:xlink="http://www.w3.org/1999/xlink">
 <defs>
  <style type="text/css">
   <![CDATA[
    .str0 {stroke:#434242;stroke-width:20}
    .fil2 {fill:#434242}
    .fil1 {fill:#0092FF}
    .fil0 {fill:#FFFFFF}
    .fil3 {fill:whitesmoke}
   ]]>
  </style>
 </defs>
 <g id="Layer_x0020_1">
  <metadata id="CorelCorpID_0Corel-Layer"/>
  <path class="fil0 str0" d="M250 250l0 210c-116,0 -210,-94 -210,-210 0,-116 94,-210 210,-210l0 210z"/>
  <path class="fil1 str0" d="M250 250l0 -210c116,0 210,94 210,210 0,116 -94,210 -210,210l0 -210z"/>
  <rect class="fil2" x="110" y="235" width="90.001" height="29.998" rx="5" ry="5"/>
  <rect class="fil3" x="300" y="235" width="90.001" height="29.998" rx="5" ry="5"/>
  <rect class="fil3" transform="matrix(2.64845E-014 1 -1 2.64845E-014 359.997 205)" width="90.001" height="29.998" rx="5" ry="5"/>
 </g>
</svg>
