<?xml version="1.0" encoding="UTF-8"?>
<!DOCTYPE svg PUBLIC "-//W3C//DTD SVG 1.1//EN" "http://www.w3.org/Graphics/SVG/1.1/DTD/svg11.dtd">
<!-- Creator: CorelDRAW X6 -->
<svg xmlns="http://www.w3.org/2000/svg" xml:space="preserve" width="100%" height="100%" version="1.1" shape-rendering="geometricPrecision" text-rendering="geometricPrecision" image-rendering="optimizeQuality" fill-rule="evenodd" clip-rule="evenodd"
viewBox="0 0 500 500"
 xmlns:xlink="http://www.w3.org/1999/xlink">
 <defs>
   <radialGradient id="id0" gradientUnits="userSpaceOnUse" cx="250.06" cy="262.992" r="206.799" fx="250.06" fy="262.992">
    <stop offset="0" stop-color="white"/>
    <stop offset="0.588235" stop-color="whitesmoke"/>
    <stop offset="1" stop-color="#979798"/>
   </radialGradient>
 </defs>
 <g id="Layer_x0020_1">
  <metadata id="CorelCorpID_0Corel-Layer"/>
  <path fill="#434242" d="M367 423l21 -18c3,-3 6,-3 9,-2 4,1 6,3 7,6l18 58c1,3 1,6 -1,9 -2,3 -5,4 -8,4l-9 0c-3,0 -5,-1 -7,-4l-32 -39c-3,-5 -3,-11 2,-14zm-232 0l-21 -18c-3,-3 -6,-3 -9,-2 -4,1 -6,3 -7,6l-18 58c-1,3 -1,6 1,9 2,3 5,4 8,4l9 0c3,0 5,-1 7,-4l32 -39c3,-5 2,-11 -2,-14z"/>
  <circle fill="#CDCDCE" stroke="#434242" stroke-width="10" cx="250" cy="263" r="207"/>
  <circle fill="url(#id0)" stroke="#434242" stroke-width="10" cx="250" cy="263" r="169"/>
  <line fill="none" stroke="#434242" stroke-width="10.931" stroke-linecap="round" x1="334" y1="179" x2="227" y2= "286" />
  <line fill="none" stroke="#E31E24" stroke-width="10.931" stroke-linecap="round" x1="334" y1="347" x2="227" y2= "240" />
  <circle fill="#434242" cx="250" cy="263" r="18"/>
  <path fill="none" stroke="#434242" stroke-width="15" stroke-linecap="round" d="M250 98l0 27m0 303l0 -27m-165 -138l27 0m303 0l-27 0m-55 -143l-14 24m-151 262l13 -24m-74 -201l24 13m262 151l-24 -13m24 -151l-24 13m-262 151l24 -13m37 -212l13 24m152 262l-14 -24"/>
  <line fill="none" stroke="#434242" stroke-width="15" stroke-linecap="round" x1="250" y1="159" x2="250" y2= "306" />
  <path fill="#008BFF" stroke="#434242" stroke-width="10" d="M43 109c28,-41 60,-66 95,-78 14,-5 29,-8 38,4l19 22c-28,8 -55,22 -79,42 -24,19 -43,43 -56,69l-20 -25c-9,-10 -5,-23 3,-34zm317 -80c46,20 77,46 95,78 8,13 13,27 4,39l-19 22c-13,-26 -31,-50 -55,-69 -24,-20 -51,-34 -79,-42l20 -24c8,-11 22,-9 34,-4z"/>
 </g>
</svg>
