<?xml version="1.0" encoding="UTF-8"?>
<!DOCTYPE svg PUBLIC "-//W3C//DTD SVG 1.1//EN" "http://www.w3.org/Graphics/SVG/1.1/DTD/svg11.dtd">
<!-- Creator: CorelDRAW X6 -->
<svg xmlns="http://www.w3.org/2000/svg" xml:space="preserve" width="100%" height="100%" version="1.1" shape-rendering="geometricPrecision" text-rendering="geometricPrecision" image-rendering="optimizeQuality" fill-rule="evenodd" clip-rule="evenodd"
viewBox="0 0 500 500"
 xmlns:xlink="http://www.w3.org/1999/xlink">
 <g id="Layer_x0020_1">
  <metadata id="CorelCorpID_0Corel-Layer"/>
  <path fill="none" stroke="#434242" stroke-width="10" stroke-linecap="round" d="M334 179l-107 107m107 61l-107 -107"/>
  <circle fill="#434242" cx="250" cy="263" r="18"/>
  <path fill="none" stroke="#434242" stroke-width="15.453" stroke-linecap="round" d="M250 86l0 29m0 325l0 -29m-177 -148l29 0m325 0l-29 0m-59 -153l-15 25m-162 281l14 -25m-79 -217l25 15m281 162l-25 -14m25 -163l-25 15m-281 162l25 -14m40 -227l14 25m163 281l-15 -25m-74 -239l0 157"/>
  <path fill="none" stroke="#434242" stroke-width="10" stroke-linecap="round" d="M193 52l-9 -12c-27,-37 -156,58 -128,95l9 12"/>
  <path fill="none" stroke="#434242" stroke-width="10" stroke-linecap="round" d="M436 148l9 -12c28,-37 -100,-133 -128,-96l-9 12"/>
  <circle fill="none" stroke="#434242" stroke-width="30" cx="250" cy="263" r="188"/>
  <line fill="none" stroke="#434242" stroke-width="25" stroke-linecap="round" x1="90" y1="465" x2="110" y2= "435" />
  <line fill="none" stroke="#434242" stroke-width="25" stroke-linecap="round" x1="410" y1="465" x2="390" y2= "435" />
 </g>
</svg>
