<?xml version="1.0" encoding="UTF-8"?>
<!DOCTYPE svg PUBLIC "-//W3C//DTD SVG 1.1//EN" "http://www.w3.org/Graphics/SVG/1.1/DTD/svg11.dtd">
<!-- Creator: CorelDRAW X6 -->
<svg xmlns="http://www.w3.org/2000/svg" xml:space="preserve" width="100%" height="100%" version="1.1" shape-rendering="geometricPrecision" text-rendering="geometricPrecision" image-rendering="optimizeQuality" fill-rule="evenodd" clip-rule="evenodd"
viewBox="0 0 500 500"
 xmlns:xlink="http://www.w3.org/1999/xlink">
 <g id="Layer_x0020_1">
  <metadata id="CorelCorpID_0Corel-Layer"/>
  <path fill="#FFFFFF" d="M250 94c-93,0 -169,76 -169,169 0,93 76,169 169,169 94,0 169,-76 169,-169 0,-93 -75,-169 -169,-169zm0 -38c115,0 207,92 207,207 0,115 -92,207 -207,207 -114,0 -207,-92 -207,-207 0,-115 93,-207 207,-207z"/>
  <path fill="none" stroke="#FFFFFF" stroke-width="10" stroke-linecap="round" d="M334 179l-107 107m107 61l-107 -107"/>
  <circle fill="#FFFFFF" cx="250" cy="263" r="18"/>
  <path fill="none" stroke="#FFFFFF" stroke-width="15.453" stroke-linecap="round" d="M250 98l0 27m0 303l0 -27m-165 -138l27 0m303 0l-27 0m-55 -143l-14 24m-151 262l13 -24m-74 -201l24 13m262 151l-24 -13m24 -151l-24 13m-262 151l24 -13m37 -212l13 24m152 262l-14 -24m-69 -223l0 147"/>
  <path fill="#FFFFFF" d="M367 423l21 -18c3,-3 6,-3 9,-2 4,1 6,3 7,6l18 58c1,3 1,6 -1,9 -2,3 -5,4 -8,4l-9 0c-3,0 -5,-1 -7,-4l-32 -39c-3,-5 -3,-11 2,-14zm-232 0l-21 -18c-3,-3 -6,-3 -9,-2 -4,1 -6,3 -7,6l-18 58c-1,3 -1,6 1,9 2,3 5,4 8,4l9 0c3,0 5,-1 7,-4l32 -39c3,-5 2,-11 -2,-14z"/>
  <path fill="#FFFFFF" d="M37 105c28,-41 60,-66 95,-78 14,-5 29,-8 38,4l19 22c-28,8 -55,22 -79,42 -24,19 -43,43 -56,69l-20 -25c-9,-10 -5,-23 3,-34z"/>
  <path fill="#FFFFFF" d="M366 25c46,20 77,46 95,78 8,13 13,27 4,39l-19 22c-13,-26 -31,-50 -55,-69 -24,-20 -51,-34 -79,-42l20 -24c8,-11 22,-9 34,-4z"/>
 </g>
</svg>
