<?xml version="1.0" encoding="UTF-8"?>
<!DOCTYPE svg PUBLIC "-//W3C//DTD SVG 1.1//EN" "http://www.w3.org/Graphics/SVG/1.1/DTD/svg11.dtd">
<!-- Creator: CorelDRAW X6 -->
<svg xmlns="http://www.w3.org/2000/svg" xml:space="preserve" width="100%" height="100%" version="1.1" shape-rendering="geometricPrecision" text-rendering="geometricPrecision" image-rendering="optimizeQuality" fill-rule="evenodd" clip-rule="evenodd"
viewBox="0 0 500 500"
 xmlns:xlink="http://www.w3.org/1999/xlink">
 <g id="Layer_x0020_1">
  <metadata id="CorelCorpID_0Corel-Layer"/>
  <path fill="#FFFFFF" d="M83 266l63 42c2,1 2,3 2,5 0,2 -2,4 -4,4l-23 7c13,46 52,82 99,93l0 -254c-24,-11 -40,-35 -40,-63 0,-39 31,-70 70,-70 39,0 70,31 70,70 0,28 -16,52 -40,63l0 254c47,-11 86,-47 99,-93l-23 -7c-2,0 -4,-2 -4,-4 0,-2 0,-4 2,-5l63 -42c1,-1 3,-1 4,-1 1,0 3,1 3,3l33 68c1,2 1,4 0,5 -2,2 -4,2 -5,2l-24 -7c-23,79 -96,134 -178,134 -82,0 -155,-55 -178,-134l-24 7c-1,0 -3,0 -5,-2 -1,-1 -1,-3 0,-5l33 -68c0,-2 2,-3 3,-3 1,0 3,0 4,1zm167 -196c17,0 30,13 30,30 0,17 -13,30 -30,30 -17,0 -30,-13 -30,-30 0,-17 13,-30 30,-30z"/>
 </g>
</svg>
