<?xml version="1.0" encoding="UTF-8"?>
<!DOCTYPE svg PUBLIC "-//W3C//DTD SVG 1.1//EN" "http://www.w3.org/Graphics/SVG/1.1/DTD/svg11.dtd">
<!-- Creator: CorelDRAW X6 -->
<svg xmlns="http://www.w3.org/2000/svg" xml:space="preserve" width="100%" height="100%" version="1.1" style="shape-rendering:geometricPrecision; text-rendering:geometricPrecision; image-rendering:optimizeQuality; fill-rule:evenodd; clip-rule:evenodd"
viewBox="0 0 500 500"
 xmlns:xlink="http://www.w3.org/1999/xlink">
 <defs>
  <style type="text/css">
   <![CDATA[
    .str0 {stroke:red;stroke-width:0.1}
    .str4 {stroke:#434242;stroke-width:10}
    .str2 {stroke:#434242;stroke-width:10;stroke-linecap:round;stroke-linejoin:round}
    .str1 {stroke:#434242;stroke-width:15;stroke-linejoin:round}
    .str3 {stroke:#434242;stroke-width:15;stroke-linecap:round}
    .fil0 {fill:none}
    .fil1 {fill:#434242}
   ]]>
  </style>
 </defs>
 <g id="Layer_x0020_1">
  <metadata id="CorelCorpID_0Corel-Layer"/>
  <rect class="fil0 str0" width="500" height="500"/>
  <path class="fil0 str1" d="M70 430l30 0 18 -97c-16,-25 -25,-55 -25,-87 0,-39 14,-76 39,-105 2,-3 5,-4 8,-4 3,0 6,1 8,3l106 106 106 106c2,3 3,5 3,8 0,3 -1,6 -4,8 -29,25 -66,39 -105,39 -21,0 -42,-4 -60,-11l6 34 30 0c6,0 10,5 10,10l0 30 -180 0 0 -30c0,-5 5,-10 10,-10z"/>
  <g id="_793058816">
   <polyline class="fil0 str2" points="301,298 326,174 201,198 "/>
   <line class="fil0 str2" x1="326" y1="174" x2="252" y2= "248" />
  </g>
  <path class="fil0 str3" d="M271 89c77,0 140,63 140,140"/>
  <path class="fil0 str3" d="M271 59c94,0 170,76 170,170"/>
  <path class="fil0 str3" d="M271 29c110,0 200,89 200,200"/>
  <circle class="fil1" cx="325" cy="175" r="15"/>
  <path class="fil0 str4" d="M143 350c0,-26 25,-109 65,-143l-24 -23c-29,34 -46,94 -46,125 0,5 0,37 5,41z"/>
  <path class="fil0 str4" d="M250 250l99 99c2,2 3,4 3,7 0,3 -2,6 -4,7 -27,24 -62,37 -98,37 -83,0 -150,-67 -150,-150 0,-36 13,-71 37,-98 2,-2 4,-4 7,-4 3,0 5,1 7,3l99 99z"/>
 </g>
</svg>
