<?xml version="1.0" encoding="UTF-8"?>
<!DOCTYPE svg PUBLIC "-//W3C//DTD SVG 1.1//EN" "http://www.w3.org/Graphics/SVG/1.1/DTD/svg11.dtd">
<!-- Creator: CorelDRAW X6 -->
<svg xmlns="http://www.w3.org/2000/svg" xml:space="preserve" width="100%" height="100%" version="1.1" style="shape-rendering:geometricPrecision; text-rendering:geometricPrecision; image-rendering:optimizeQuality; fill-rule:evenodd; clip-rule:evenodd"
viewBox="0 0 500 500"
 xmlns:xlink="http://www.w3.org/1999/xlink">
 <defs>
  <style type="text/css">
   <![CDATA[
    .str0 {stroke:red;stroke-width:0.1}
    .str3 {stroke:#333333;stroke-width:10}
    .str1 {stroke:#333333;stroke-width:10;stroke-linecap:round;stroke-linejoin:round}
    .str2 {stroke:#333333;stroke-width:15;stroke-linecap:round}
    .fil0 {fill:none}
    .fil2 {fill:#333333}
    .fil3 {fill:#76C1FF}
    .fil1 {fill:url(#id0)}
   ]]>
  </style>
  <linearGradient id="id0" gradientUnits="userSpaceOnUse" x1="258.246" y1="241.031" x2="193.618" y2="307.301">
   <stop offset="0" style="stop-color:#008BFF"/>
   <stop offset="1" style="stop-color:#00AAFF"/>
  </linearGradient>
 </defs>
 <g id="Layer_x0020_1">
  <metadata id="CorelCorpID_0Corel-Layer"/>
  <rect class="fil0 str0" width="500" height="500"/>
  <path class="fil1" d="M250 250l99 99c2,2 3,4 3,7 0,3 -2,6 -4,7 -27,24 -62,37 -98,37 -83,0 -150,-67 -150,-150 0,-36 13,-71 37,-98 2,-2 4,-4 7,-4 3,0 5,1 7,3l99 99z"/>
  <path class="fil2" d="M70 430l30 0 19 -106c17,29 43,52 74,65l7 41 30 0c6,0 10,5 10,10l0 30 -180 0 0 -30c0,-5 5,-10 10,-10zm255 -270c8,0 15,7 15,15 0,8 -7,15 -15,15 -8,0 -15,-7 -15,-15 0,-8 7,-15 15,-15z"/>
  <g id="_793056352">
   <polyline class="fil0 str1" points="299,300 324,176 199,200 "/>
   <line class="fil0 str1" x1="324" y1="176" x2="250" y2= "250" />
  </g>
  <path class="fil0 str2" d="M271 29c110,0 200,89 200,200m-200 -170c94,0 170,76 170,170m-170 -140c77,0 140,63 140,140"/>
  <path class="fil3" d="M143 355c0,-28 25,-113 65,-147l-24 -24c-29,35 -46,96 -46,128 0,5 0,38 5,43z"/>
  <path class="fil0 str3" d="M250 250l99 99c2,2 3,4 3,7 0,3 -2,6 -4,7 -27,24 -62,37 -98,37 -83,0 -150,-67 -150,-150 0,-36 13,-71 37,-98 2,-2 4,-4 7,-4 3,0 5,1 7,3l99 99z"/>
 </g>
</svg>
