<?xml version="1.0" encoding="UTF-8"?>
<!DOCTYPE svg PUBLIC "-//W3C//DTD SVG 1.1//EN" "http://www.w3.org/Graphics/SVG/1.1/DTD/svg11.dtd">
<!-- Creator: CorelDRAW X6 -->
<svg xmlns="http://www.w3.org/2000/svg" xml:space="preserve" width="100%" height="100%" version="1.1" style="shape-rendering:geometricPrecision; text-rendering:geometricPrecision; image-rendering:optimizeQuality; fill-rule:evenodd; clip-rule:evenodd"
viewBox="0 0 500 500"
 xmlns:xlink="http://www.w3.org/1999/xlink">
 <defs>
  <style type="text/css">
   <![CDATA[
    .str0 {stroke:red;stroke-width:0.1}
    .str1 {stroke:#434242;stroke-width:10;stroke-linecap:round;stroke-linejoin:round}
    .str2 {stroke:#434242;stroke-width:15;stroke-linecap:round}
    .fil0 {fill:none}
    .fil1 {fill:#434242}
   ]]>
  </style>
 </defs>
 <g id="Layer_x0020_1">
  <metadata id="CorelCorpID_0Corel-Layer"/>
  <rect class="fil0 str0" width="500" height="500"/>
  <path class="fil0 str1" d="M301 298l25 -124 -125 24m125 -24l-74 74m-2 2l99 99c2,2 3,4 3,7 0,3 -2,6 -4,7 -27,24 -62,37 -98,37 -83,0 -150,-67 -150,-150 0,-36 13,-71 37,-98 2,-2 4,-4 7,-4 3,0 5,1 7,3l99 99z"/>
  <path class="fil0 str2" d="M271 29c110,0 200,89 200,200m-200 -170c94,0 170,76 170,170m-170 -140c77,0 140,63 140,140"/>
  <path class="fil1" d="M325 160c8,0 15,7 15,15 0,8 -7,15 -15,15 -8,0 -15,-7 -15,-15 0,-8 7,-15 15,-15zm-255 270l30 0 20 -106c-13,-22 -20,-47 -20,-74 0,-36 13,-71 37,-98 2,-2 4,-4 7,-4 3,0 5,1 7,3l33 33c-29,35 -46,96 -46,128 0,4 0,32 3,40 1,1 1,1 2,2 0,-29 25,-112 65,-146l42 42 99 99c2,2 3,4 3,7 0,3 -2,6 -4,7 -27,24 -62,37 -98,37 -20,0 -40,-4 -57,-11l7 41 30 0c6,0 10,5 10,10l0 30 -180 0 0 -30c0,-5 5,-10 10,-10z"/>
 </g>
</svg>
