<?xml version="1.0" encoding="UTF-8"?>
<!DOCTYPE svg PUBLIC "-//W3C//DTD SVG 1.1//EN" "http://www.w3.org/Graphics/SVG/1.1/DTD/svg11.dtd">
<!-- Creator: CorelDRAW X6 -->
<svg xmlns="http://www.w3.org/2000/svg" xml:space="preserve" width="100%" height="100%" version="1.1" style="shape-rendering:geometricPrecision; text-rendering:geometricPrecision; image-rendering:optimizeQuality; fill-rule:evenodd; clip-rule:evenodd"
viewBox="0 0 500 500"
 xmlns:xlink="http://www.w3.org/1999/xlink">
 <defs>
  <style type="text/css">
   <![CDATA[
    .str0 {stroke:red;stroke-width:0.1}
    .str2 {stroke:#4D4D4D;stroke-width:5}
    .str3 {stroke:white;stroke-width:10;stroke-linecap:round;stroke-linejoin:round}
    .str1 {stroke:white;stroke-width:15;stroke-linecap:round}
    .fil0 {fill:none}
    .fil3 {fill:#4D4D4D}
    .fil2 {fill:#F3F3F4}
    .fil1 {fill:white}
   ]]>
  </style>
 </defs>
 <g id="Layer_x0020_1">
  <metadata id="CorelCorpID_0Corel-Layer"/>
  <rect class="fil0 str0" width="500" height="500"/>
  <path class="fil0 str1" d="M271 29c110,0 200,89 200,200m-200 -170c94,0 170,76 170,170m-170 -140c77,0 140,63 140,140"/>
  <path class="fil1" d="M325 160c8,0 15,7 15,15 0,8 -7,15 -15,15 -8,0 -15,-7 -15,-15 0,-8 7,-15 15,-15z"/>
  <path class="fil2 str2" d="M70 430l30 0 19 -106c17,29 43,52 74,65l7 41 30 0c6,0 10,5 10,10l0 30 -180 0 0 -30c0,-5 5,-10 10,-10z"/>
  <path class="fil0 str3" d="M326 174l-74 74m49 50l25 -124 -125 24"/>
  <path class="fil1 str2" d="M250 250l99 99c2,2 3,4 3,7 0,3 -2,6 -4,7 -27,24 -62,37 -98,37 -42,0 -80,-17 -107,-45 0,-28 25,-113 65,-147l42 42zm-108 105c-26,-27 -42,-64 -42,-105 0,-36 13,-71 37,-98 2,-2 4,-4 7,-4 3,0 5,1 7,3l33 33c-29,35 -46,96 -46,128 0,5 0,38 4,43z"/>
  <path class="fil3 str2" d="M143 355c0,-28 25,-113 65,-147l-24 -24c-29,35 -46,96 -46,128 0,5 0,38 5,43z"/>
 </g>
</svg>
