<?xml version="1.0" encoding="UTF-8"?>
<!DOCTYPE svg PUBLIC "-//W3C//DTD SVG 1.1//EN" "http://www.w3.org/Graphics/SVG/1.1/DTD/svg11.dtd">
<!-- Creator: CorelDRAW X6 -->
<svg xmlns="http://www.w3.org/2000/svg" xml:space="preserve" width="100%" height="100%" version="1.1" style="shape-rendering:geometricPrecision; text-rendering:geometricPrecision; image-rendering:optimizeQuality; fill-rule:evenodd; clip-rule:evenodd"
viewBox="0 0 500 500"
 xmlns:xlink="http://www.w3.org/1999/xlink">
 <defs>
  <style type="text/css">
   <![CDATA[
    .str1 {stroke:#2B2A29;stroke-width:0.1}
    .str3 {stroke:#434242;stroke-width:5}
    .str0 {stroke:#434242;stroke-width:10}
    .str2 {stroke:#434242;stroke-width:15;stroke-linejoin:round}
    .fil3 {fill:none}
    .fil0 {fill:#434242}
    .fil5 {fill:#0075D8}
    .fil6 {fill:#008BFF}
    .fil1 {fill:#279DFF}
    .fil7 {fill:#289CFF}
    .fil4 {fill:#EBEBEB}
    .fil2 {fill:url(#id0)}
   ]]>
  </style>
  <linearGradient id="id0" gradientUnits="userSpaceOnUse" x1="250.048" y1="144.852" x2="250.048" y2="365.25">
   <stop offset="0" style="stop-color:#FCFCFD"/>
   <stop offset="1" style="stop-color:#EDEDED"/>
  </linearGradient>
 </defs>
 <g id="Layer_x0020_1">
  <metadata id="CorelCorpID_0Corel-Layer"/>
  <path class="fil0 str0" d="M25 90l450 0 0 310c0,6 -4,10 -10,10l-430 0c-5,0 -10,-4 -10,-10l0 -310z"/>
  <path class="fil1 str0" d="M50 60l400 0c14,0 25,11 25,25l0 15 -450 0 0 -15c0,-14 11,-25 25,-25z"/>
  <path class="fil2" d="M30 110l440 0 0 285c0,3 -2,5 -5,5l-430 0c-3,0 -5,-2 -5,-5l0 -285z"/>
  <rect class="fil3 str1" width="500" height="500"/>
  <g id="_1023549504">
   <path class="fil0 str2" d="M345 169l58 34c5,3 7,10 4,15l-107 185 -84 56 6 -101 107 -185c3,-5 10,-7 16,-4z"/>
   <polygon class="fil4" points="222,358 300,403 216,459 "/>
   <rect class="fil5" transform="matrix(0.649519 0.375 -0.375 0.649519 360.616 238.909)" width="39.997" height="229.998"/>
   <rect class="fil6" transform="matrix(0.649519 0.375 -0.375 0.649519 334.635 223.907)" width="39.999" height="230.001"/>
   <polygon class="fil7" points="222,358 248,373 335,224 387,254 394,241 316,196 309,209 309,209 "/>
   <path class="fil0 str3" d="M216 459l44 -29c-4,-7 -10,-13 -17,-17 -7,-4 -15,-6 -23,-7l-4 53z"/>
  </g>
 </g>
</svg>
