<?xml version="1.0" encoding="UTF-8"?>
<!DOCTYPE svg PUBLIC "-//W3C//DTD SVG 1.1//EN" "http://www.w3.org/Graphics/SVG/1.1/DTD/svg11.dtd">
<!-- Creator: CorelDRAW X6 -->
<svg xmlns="http://www.w3.org/2000/svg" xml:space="preserve" width="100%" height="100%" version="1.1" style="shape-rendering:geometricPrecision; text-rendering:geometricPrecision; image-rendering:optimizeQuality; fill-rule:evenodd; clip-rule:evenodd"
viewBox="0 0 500 500"
 xmlns:xlink="http://www.w3.org/1999/xlink">
 <defs>
  <style type="text/css">
   <![CDATA[
    .str0 {stroke:#2B2A29;stroke-width:0.1}
    .fil0 {fill:none}
    .fil1 {fill:#333333}
   ]]>
  </style>
 </defs>
 <g id="Layer_x0020_1">
  <metadata id="CorelCorpID_0Corel-Layer"/>
  <rect class="fil0 str0" width="500" height="500"/>
  <path class="fil1" d="M475 401c0,6 -4,10 -10,10l-158 0 -3 6 0 0 -35 23c-6,-8 -13,-15 -21,-20 -9,-5 -18,-7 -28,-8l0 -1 -185 0c-5,0 -10,-4 -10,-10 0,-105 0,-210 0,-315 0,-13 11,-25 25,-25l400 0c14,0 25,12 25,25 0,105 0,210 0,315zm-163 -186l81 47 -78 134 140 0c3,0 5,-2 5,-5l0 -280 -420 0 0 280c0,3 2,5 5,5l176 0 2 -26 0 0 0 0 89 -155zm48 42l7 4c2,1 2,3 1,5l-73 128c-1,2 -4,2 -6,1l-6 -4c-2,-1 -3,-3 -2,-5l74 -128c1,-2 3,-2 5,-1zm-33 -20l6 4c2,1 3,4 2,5l-74 128c-1,2 -4,3 -5,2l-7 -4c-2,-1 -3,-4 -2,-5l74 -128c1,-2 4,-3 6,-2zm-68 209l-37 25c-3,2 -5,0 -5,-3l3 -44c7,0 15,3 22,7 7,4 13,9 17,15zm151 -237l-60 -35c-6,-3 -13,-1 -16,4l-14 24 81 47 13 -24c4,-5 2,-13 -4,-16z"/>
 </g>
</svg>
