<?xml version="1.0" encoding="UTF-8"?>
<!DOCTYPE svg PUBLIC "-//W3C//DTD SVG 1.1//EN" "http://www.w3.org/Graphics/SVG/1.1/DTD/svg11.dtd">
<!-- Creator: CorelDRAW X6 -->
<svg xmlns="http://www.w3.org/2000/svg" xml:space="preserve" width="100%" height="100%" version="1.1" style="shape-rendering:geometricPrecision; text-rendering:geometricPrecision; image-rendering:optimizeQuality; fill-rule:evenodd; clip-rule:evenodd"
viewBox="0 0 500 500"
 xmlns:xlink="http://www.w3.org/1999/xlink">
 <defs>
  <style type="text/css">
   <![CDATA[
    .str3 {stroke:#2B2A29;stroke-width:0.1}
    .str2 {stroke:#434242;stroke-width:10;stroke-linecap:round;stroke-linejoin:round}
    .str0 {stroke:#333333;stroke-width:15;stroke-linejoin:round}
    .str1 {stroke:#434242;stroke-width:20}
    .fil0 {fill:none}
   ]]>
  </style>
 </defs>
 <g id="Layer_x0020_1">
  <metadata id="CorelCorpID_0Corel-Layer"/>
  <path class="fil0 str0" d="M351 170l59 34c5,3 7,10 4,15l-107 185 -84 56 6 -101 107 -185c3,-5 10,-7 15,-4z"/>
  <path class="fil0 str1" d="M225 425l-175 0c-5,0 -10,-4 -10,-10 0,-105 0,-210 0,-315 0,-14 11,-25 25,-25l370 0c14,0 25,11 25,25 0,105 0,210 0,315 0,6 -4,10 -10,10l-175 0"/>
  <path class="fil0 str2" d="M225 393l-145 0c-5,0 -10,-5 -10,-10l0 -250 360 0 0 250c0,5 -4,10 -10,10l-105 0m-29 28c-9,-9 -18,-16 -28,-22 -10,-5 -21,-10 -33,-13m121 -184l-86 149m106 -138l-87 149m106 -138l-86 149"/>
  <rect class="fil0 str3" width="500" height="500"/>
 </g>
</svg>
