<?xml version="1.0" encoding="UTF-8"?>
<!DOCTYPE svg PUBLIC "-//W3C//DTD SVG 1.1//EN" "http://www.w3.org/Graphics/SVG/1.1/DTD/svg11.dtd">
<!-- Creator: CorelDRAW X6 -->
<svg xmlns="http://www.w3.org/2000/svg" xml:space="preserve" width="100%" height="100%" version="1.1" style="shape-rendering:geometricPrecision; text-rendering:geometricPrecision; image-rendering:optimizeQuality; fill-rule:evenodd; clip-rule:evenodd"
viewBox="0 0 500 500"
 xmlns:xlink="http://www.w3.org/1999/xlink">
 <defs>
  <style type="text/css">
   <![CDATA[
    .str0 {stroke:#2B2A29;stroke-width:0.1}
    .str1 {stroke:#4D4D4D;stroke-width:5}
    .fil0 {fill:none}
    .fil1 {fill:#4D4D4D}
    .fil2 {fill:white}
   ]]>
  </style>
 </defs>
 <g id="Layer_x0020_1">
  <metadata id="CorelCorpID_0Corel-Layer"/>
  <rect class="fil0 str0" width="500" height="500"/>
  <path class="fil1" d="M55 126l390 0 0 280c0,2 -2,5 -5,5l-127 0 101 -176c4,-5 2,-12 -4,-15l-58 -34c-6,-3 -12,-1 -16,4l-13 23 78 45 -7 13 -78 -45 -86 149 -2 21 -1 15 -167 0c-3,0 -5,-3 -5,-5l0 -280zm172 301c7,0 14,3 21,7 7,3 12,9 16,15l10 -6c-5,-8 -12,-14 -20,-19 -9,-5 -18,-8 -27,-8l0 11zm103 -180l6 4c2,1 3,3 2,5l-72 123c-1,2 -3,3 -5,2l-6 -4c-2,-1 -3,-4 -2,-5l72 -124c1,-2 3,-2 5,-1zm32 19l7 3c1,1 2,4 1,6l-71 123c-1,2 -4,2 -5,1l-7 -3c-2,-1 -2,-4 -1,-6l71 -123c1,-2 3,-2 5,-1z"/>
  <path class="fil2" d="M460 416c0,5 -4,10 -10,10l-151 0 -25 17c-5,-8 -12,-14 -20,-19 -9,-5 -18,-8 -27,-8l0 10 -177 0c-5,0 -10,-5 -10,-10 0,-105 0,-210 0,-315 0,-14 11,-25 25,-25l370 0c14,0 25,11 25,25 0,105 0,210 0,315zm-147 -5l127 0c3,0 5,-3 5,-5l0 -280 -390 0 0 280c0,2 2,5 5,5l167 0 3 -36 0 0 0 0 86 -149 78 45 -81 140zm49 -145l7 3c1,1 2,4 1,6l-71 123c-1,2 -4,2 -5,1l-7 -3c-2,-1 -2,-4 -1,-6l71 -123c1,-2 3,-2 5,-1zm-32 -19l6 4c2,1 3,3 2,5l-72 123c-1,2 -3,3 -5,2l-6 -4c-2,-1 -3,-4 -2,-5l72 -124c1,-2 3,-2 5,-1zm-66 202l-35 23c-3,2 -5,1 -5,-3l3 -42c7,0 14,3 21,7 7,3 12,9 16,15zm146 -229l-58 -34c-6,-3 -12,-1 -16,4l-13 23 78 45 13 -23c4,-5 2,-12 -4,-15z"/>
  <path class="fil0 str1" d="M225 426l-175 0c-5,0 -10,-5 -10,-10 0,-105 0,-210 0,-315 0,-14 11,-25 25,-25l370 0c14,0 25,11 25,25 0,105 0,210 0,315 0,5 -4,10 -10,10l-151 0m-70 46c-3,2 -5,1 -5,-3 1,-24 3,-49 4,-73l2 -21c35,-61 71,-123 106,-185 4,-5 10,-7 16,-4l58 34c6,3 8,10 4,15 -35,62 -71,124 -106,185 -27,18 -53,35 -79,52z"/>
 </g>
</svg>
