<?xml version="1.0" encoding="UTF-8"?>
<!DOCTYPE svg PUBLIC "-//W3C//DTD SVG 1.1//EN" "http://www.w3.org/Graphics/SVG/1.1/DTD/svg11.dtd">
<!-- Creator: CorelDRAW X6 -->
<svg xmlns="http://www.w3.org/2000/svg" xml:space="preserve" width="100%" height="100%" version="1.1" style="shape-rendering:geometricPrecision; text-rendering:geometricPrecision; image-rendering:optimizeQuality; fill-rule:evenodd; clip-rule:evenodd"
viewBox="0 0 500 500"
 xmlns:xlink="http://www.w3.org/1999/xlink">
 <defs>
  <style type="text/css">
   <![CDATA[
    .str1 {stroke:red;stroke-width:0.1}
    .str0 {stroke:#434242;stroke-width:10}
    .fil3 {fill:none}
    .fil0 {fill:#434242}
    .fil1 {fill:#279DFF}
    .fil2 {fill:url(#id0)}
   ]]>
  </style>
  <linearGradient id="id0" gradientUnits="userSpaceOnUse" x1="250.048" y1="144.852" x2="250.048" y2="365.25">
   <stop offset="0" style="stop-color:#FCFCFD"/>
   <stop offset="1" style="stop-color:#EDEDED"/>
  </linearGradient>
 </defs>
 <g id="Layer_x0020_1">
  <metadata id="CorelCorpID_0Corel-Layer"/>
  <g id="_1555967344">
   <path class="fil0 str0" d="M40 90l420 0 0 310c0,6 -4,10 -10,10l-400 0c-5,0 -10,-4 -10,-10l0 -310z"/>
   <path class="fil1 str0" d="M65 60l370 0c14,0 25,11 25,25l0 15 -420 0 0 -15c0,-14 11,-25 25,-25z"/>
   <path class="fil2" d="M50 110l400 0 0 285c0,3 -2,5 -5,5l-390 0c-3,0 -5,-2 -5,-5l0 -285z"/>
  </g>
  
 </g>
</svg>
