<?xml version="1.0" encoding="UTF-8"?>
<!DOCTYPE svg PUBLIC "-//W3C//DTD SVG 1.1//EN" "http://www.w3.org/Graphics/SVG/1.1/DTD/svg11.dtd">
<!-- Creator: CorelDRAW X6 -->
<svg xmlns="http://www.w3.org/2000/svg" xml:space="preserve" width="100%" height="100%" version="1.1" shape-rendering="geometricPrecision" text-rendering="geometricPrecision" image-rendering="optimizeQuality" fill-rule="evenodd" clip-rule="evenodd"
viewBox="0 0 500 500"
 xmlns:xlink="http://www.w3.org/1999/xlink">
 <g id="Layer_x0020_1">
  <metadata id="CorelCorpID_0Corel-Layer"/>
  <path fill="none" stroke="#434242" stroke-width="20" d="M460 400c0,6 -5,10 -10,10l-400 0c-5,0 -10,-4 -10,-10 0,-105 0,-210 0,-315 0,-14 11,-25 25,-25l370 0c14,0 25,11 25,25 0,105 0,210 0,315z"/>
  <path fill="none" stroke="#434242" stroke-width="10" stroke-linejoin="round" d="M70 118l360 0 0 250c0,5 -5,10 -10,10l-340 0c-6,0 -10,-5 -10,-10l0 -250z"/>
  <g id="_889173440">
   <rect fill="none" stroke="#434242" stroke-width="5" x="100" y="140" width="74.9995" height="59.997"/>
   <rect fill="none" stroke="#434242" stroke-width="5" x="175" y="140" width="74.9995" height="59.997"/>
   <rect fill="none" stroke="#434242" stroke-width="5" x="325" y="140" width="74.9995" height="59.997"/>
   <rect fill="none" stroke="#434242" stroke-width="5" x="250" y="140" width="74.9995" height="59.997"/>
   <rect fill="none" stroke="#434242" stroke-width="5" x="100" y="200" width="74.9995" height="59.998"/>
   <rect fill="none" stroke="#434242" stroke-width="5" x="175" y="200" width="74.9995" height="59.998"/>
  </g>
 </g>
</svg>
