<svg xmlns="http://www.w3.org/2000/svg" width="100%" height="100%" shape-rendering="geometricPrecision" text-rendering="geometricPrecision" image-rendering="optimizeQuality" fill-rule="evenodd" clip-rule="evenodd" viewBox="0 0 500 500"><g stroke="#434242" fill="none"><path stroke-width="20" d="M87 129v-67c0-14 11-25 25-25h333c14 0 25 11 25 25v295c0 5-4 10-10 10h-46"/><path stroke-width="10" stroke-linejoin="round" d="M414 340h26c3 0 5-2 5-5v-248h-335v42"/><path stroke-width="10" stroke-linejoin="round" d="M55 179h335v246c0 3-2 5-5 5h-325c-3 0-5-2-5-5v-246z"/><path stroke-width="20" d="M414 449c0 5-5 10-10 10h-364c-5 0-10-5-10-10v-295c0-14 11-25 25-25h334c13 0 25 11 25 25v295z"/></g></svg>