<?xml version="1.0" encoding="UTF-8"?>
<!DOCTYPE svg PUBLIC "-//W3C//DTD SVG 1.1//EN" "http://www.w3.org/Graphics/SVG/1.1/DTD/svg11.dtd">
<!-- Creator: CorelDRAW X6 -->
<svg xmlns="http://www.w3.org/2000/svg" xml:space="preserve" width="100%" height="100%" version="1.1" shape-rendering="geometricPrecision" text-rendering="geometricPrecision" image-rendering="optimizeQuality" fill-rule="evenodd" clip-rule="evenodd"
viewBox="0 0 500 500"
 xmlns:xlink="http://www.w3.org/1999/xlink">
 <g id="Layer_x0020_1">
  <metadata id="CorelCorpID_0Corel-Layer"/>
  <path fill="#434242" d="M460 400c0,6 -5,10 -10,10l-400 0c-5,0 -10,-4 -10,-10 0,-105 0,-210 0,-315 0,-14 11,-25 25,-25l370 0c14,0 25,11 25,25 0,105 0,210 0,315zm-405 -290l390 0 0 280c0,3 -2,5 -5,5l-380 0c-3,0 -5,-2 -5,-5l0 -280z"/>
  <g id="_889190880">
   <rect fill="none" stroke="#434242" stroke-width="2.5" x="70" y="315" width="89.9983" height="59.997"/>
   <rect fill="none" stroke="#434242" stroke-width="2.5" x="160" y="315" width="89.9983" height="59.997"/>
   <rect fill="none" stroke="#434242" stroke-width="2.5" x="250" y="315" width="89.9983" height="59.997"/>
   <rect fill="none" stroke="#434242" stroke-width="2.5" x="340" y="315" width="89.9983" height="59.997"/>
   <rect fill="none" stroke="#434242" stroke-width="2.5" x="70" y="255" width="89.9983" height="59.998"/>
   <rect fill="none" stroke="#434242" stroke-width="2.5" x="160" y="255" width="89.9983" height="59.998"/>
   <rect fill="none" stroke="#434242" stroke-width="2.5" x="250" y="255" width="89.9983" height="59.998"/>
   <rect fill="none" stroke="#434242" stroke-width="2.5" x="340" y="255" width="89.9983" height="59.998"/>
   <rect fill="none" stroke="#434242" stroke-width="2.5" x="250" y="195" width="89.9983" height="59.998"/>
   <rect fill="none" stroke="#434242" stroke-width="2.5" x="340" y="195" width="89.9983" height="59.998"/>
  </g>
  <g id="_889177568">
   <rect fill="none" stroke="#434242" stroke-width="7.5" x="70" y="135" width="89.9983" height="59.997"/>
   <rect fill="none" stroke="#434242" stroke-width="7.5" x="160" y="135" width="89.9983" height="59.997"/>
   <rect fill="none" stroke="#434242" stroke-width="7.5" x="340" y="135" width="89.9983" height="59.997"/>
   <rect fill="none" stroke="#434242" stroke-width="7.5" x="250" y="135" width="89.9983" height="59.997"/>
   <rect fill="none" stroke="#434242" stroke-width="7.5" x="70" y="195" width="89.9983" height="59.998"/>
   <rect fill="none" stroke="#434242" stroke-width="7.5" x="160" y="195" width="89.9983" height="59.998"/>
  </g>
 </g>
</svg>
