<?xml version="1.0" encoding="UTF-8"?>
<!DOCTYPE svg PUBLIC "-//W3C//DTD SVG 1.1//EN" "http://www.w3.org/Graphics/SVG/1.1/DTD/svg11.dtd">
<!-- Creator: CorelDRAW X6 -->
<svg xmlns="http://www.w3.org/2000/svg" xml:space="preserve" width="100%" height="100%" version="1.1" style="shape-rendering:geometricPrecision; text-rendering:geometricPrecision; image-rendering:optimizeQuality; fill-rule:evenodd; clip-rule:evenodd"
viewBox="0 0 500 500"
 xmlns:xlink="http://www.w3.org/1999/xlink">
 <defs>
  <style type="text/css">
   <![CDATA[
    .str1 {stroke:red;stroke-width:0.1}
    .str0 {stroke:#434242;stroke-width:5}
    .fil2 {fill:none}
    .fil0 {fill:#4D4D4D}
    .fil1 {fill:white}
   ]]>
  </style>
 </defs>
 <g id="Layer_x0020_1">
  <metadata id="CorelCorpID_0Corel-Layer"/>
  <path class="fil0" d="M55 110l390 0 0 280c0,3 -2,5 -5,5l-380 0c-3,0 -5,-2 -5,-5l0 -280z"/>
  <path class="fil1" d="M460 400c0,6 -4,10 -10,10l-400 0c-5,0 -10,-4 -10,-10 0,-105 0,-210 0,-315 0,-14 11,-25 25,-25l370 0c14,0 25,11 25,25 0,105 0,210 0,315zm-405 -290l390 0 0 280c0,3 -2,5 -5,5l-380 0c-3,0 -5,-2 -5,-5l0 -280z"/>
  <path class="fil2 str0" d="M460 400c0,6 -4,10 -10,10l-400 0c-5,0 -10,-4 -10,-10 0,-105 0,-210 0,-315 0,-14 11,-25 25,-25l370 0c14,0 25,11 25,25 0,105 0,210 0,315z"/>
  
 </g>
</svg>
