<?xml version="1.0" encoding="UTF-8"?>
<!DOCTYPE svg PUBLIC "-//W3C//DTD SVG 1.1//EN" "http://www.w3.org/Graphics/SVG/1.1/DTD/svg11.dtd">
<!-- Creator: CorelDRAW X6 -->
<svg xmlns="http://www.w3.org/2000/svg" xml:space="preserve" width="100%" height="100%" version="1.1" shape-rendering="geometricPrecision" text-rendering="geometricPrecision" image-rendering="optimizeQuality" fill-rule="evenodd" clip-rule="evenodd"
viewBox="0 0 500 500"
 xmlns:xlink="http://www.w3.org/1999/xlink">
 <g id="Layer_x0020_1">
  <metadata id="CorelCorpID_0Corel-Layer"/>
  <path fill="#434242" d="M470 357c0,5 -4,10 -10,10l-48 0 0 -7 43 0c3,0 5,-2 5,-5l0 -268 -363 0 0 46 -10 0c0,-23 0,-49 0,-71 0,-14 11,-25 25,-25l333 0c14,0 25,11 25,25 0,98 0,197 0,295z"/>
  <path fill="#434242" d="M414 449c0,5 -5,10 -10,10l-364 0c-5,0 -10,-5 -10,-10 0,-99 0,-197 0,-295 0,-14 11,-25 25,-25l334 0c13,0 25,11 25,25 0,98 0,196 0,295zm-374 -270l364 0 1 266c0,3 -2,5 -5,5l-353 0c-3,0 -5,-2 -5,-5l-2 -266z"/>
 </g>
</svg>
