<?xml version="1.0" encoding="UTF-8"?>
<!DOCTYPE svg PUBLIC "-//W3C//DTD SVG 1.1//EN" "http://www.w3.org/Graphics/SVG/1.1/DTD/svg11.dtd">
<!-- Creator: CorelDRAW X6 -->
<svg xmlns="http://www.w3.org/2000/svg" xml:space="preserve" width="100%" height="100%" version="1.1" shape-rendering="geometricPrecision" text-rendering="geometricPrecision" image-rendering="optimizeQuality" fill-rule="evenodd" clip-rule="evenodd"
viewBox="0 0 500 500"
 xmlns:xlink="http://www.w3.org/1999/xlink">
 <defs>
   <linearGradient id="id0" gradientUnits="userSpaceOnUse" x1="249.999" y1="144.802" x2="249.999" y2="365.2">
    <stop offset="0" stop-color="#FCFCFD"/>
    <stop offset="1" stop-color="#FFFFFF"/>
   </linearGradient>
 </defs>
 <g id="Layer_x0020_1">
  <metadata id="CorelCorpID_0Corel-Layer"/>
  <path fill="#434242" stroke="#434242" stroke-width="10" d="M40 90l420 0 0 310c0,6 -5,10 -10,10l-400 0c-5,0 -10,-4 -10,-10l0 -310z"/>
  <path fill="#279DFF" stroke="#434242" stroke-width="10" d="M65 60l370 0c14,0 25,11 25,25l0 15 -420 0 0 -15c0,-14 11,-25 25,-25z"/>
  <path fill="url(#id0)" d="M50 110l400 0 0 285c0,3 -2,5 -5,5l-390 0c-3,0 -5,-2 -5,-5l0 -285z"/>
  <path fill="#434242" fill-rule="nonzero" d="M180 353l-94 -40 0 -23 94 -41 0 27 -65 25 65 26 0 26zm20 19l34 -142 19 0 -34 142 -19 0zm73 -18l0 -27 65 -26 -65 -25 0 -27 94 41 0 23 -94 41z"/>
 </g>
</svg>
