<?xml version="1.0" encoding="UTF-8"?>
<!DOCTYPE svg PUBLIC "-//W3C//DTD SVG 1.1//EN" "http://www.w3.org/Graphics/SVG/1.1/DTD/svg11.dtd">
<!-- Creator: CorelDRAW X6 -->
<svg xmlns="http://www.w3.org/2000/svg" xml:space="preserve" width="100%" height="100%" version="1.1" style="shape-rendering:geometricPrecision; text-rendering:geometricPrecision; image-rendering:optimizeQuality; fill-rule:evenodd; clip-rule:evenodd"
viewBox="0 0 500 500"
 xmlns:xlink="http://www.w3.org/1999/xlink">
 <defs>
  <style type="text/css">
   <![CDATA[
    .str1 {stroke:#333333;stroke-width:7.5}
    .str3 {stroke:#333333;stroke-width:10;stroke-linecap:round}
    .str0 {stroke:#333333;stroke-width:15;stroke-linejoin:round}
    .str2 {stroke:#333333;stroke-width:20;stroke-linecap:round}
    .fil0 {fill:none}
   ]]>
  </style>
 </defs>
 <g id="Layer_x0020_1">
  <metadata id="CorelCorpID_0Corel-Layer"/>
  <path class="fil0 str0" d="M86 385l80 0c3,0 5,2 5,5l0 40c0,3 -2,5 -5,5l-80 0c-3,0 -5,-2 -5,-5l0 -40c0,-3 2,-5 5,-5zm115 -280l185 0c3,0 5,-2 5,-4l0 -7c0,-13 -20,-29 -55,-29l-133 0c-1,0 -2,0 -3,1l-29 29 -85 0c-3,0 -5,2 -5,5l0 40c0,3 2,5 5,5l85 0 30 -40zm0 220l185 0c3,0 5,2 5,4l0 7c0,13 -20,29 -55,29l-133 0c-1,0 -2,0 -3,-1l-29 -29 -85 0c-3,0 -5,-2 -5,-5l0 -40c0,-3 2,-5 5,-5l85 0 30 40z"/>
  <path class="fil0 str1" d="M244 171l0 -44c0,-3 3,-6 6,-6l81 0c12,0 12,18 23,18l116 0c3,0 6,2 6,6l0 8m-226 154l220 0c3,0 6,-3 6,-6l6 -142c0,-3 -3,-6 -6,-6l-87 0c-12,0 -12,18 -23,18l-122 0c-3,0 -6,2 -6,5l6 125c0,3 3,6 6,6zm-144 -25l0 -137 40 0 0 137 -40 0zm0 103l0 -40 -10 -7 60 0 -10 7 0 40 -40 0z"/>
  <line class="fil0 str2" x1="46" y1="410" x2="76" y2= "410" />
  <line class="fil0 str2" x1="297" y1="410" x2="177" y2= "410" />
  <path class="fil0 str3" d="M96 270l60 -10m-60 -10l60 -10m-60 -10l60 -10m-60 -10l60 -10m-60 -10l60 -10m-60 -10l60 -10"/>
 </g>
</svg>
