<?xml version="1.0" encoding="UTF-8"?>
<!DOCTYPE svg PUBLIC "-//W3C//DTD SVG 1.1//EN" "http://www.w3.org/Graphics/SVG/1.1/DTD/svg11.dtd">
<!-- Creator: CorelDRAW X6 -->
<svg xmlns="http://www.w3.org/2000/svg" xml:space="preserve" width="100%" height="100%" version="1.1" style="shape-rendering:geometricPrecision; text-rendering:geometricPrecision; image-rendering:optimizeQuality; fill-rule:evenodd; clip-rule:evenodd"
viewBox="0 0 500 500"
 xmlns:xlink="http://www.w3.org/1999/xlink">
 <defs>
  <style type="text/css">
   <![CDATA[
    .str2 {stroke:#333333;stroke-width:7.5}
    .str0 {stroke:#434242;stroke-width:10}
    .str1 {stroke:#434242;stroke-width:10;stroke-linejoin:round}
    .str3 {stroke:#333333;stroke-width:10;stroke-linecap:round}
    .fil4 {fill:none}
    .fil2 {fill:#434242}
    .fil6 {fill:#008BFF}
    .fil5 {fill:#333333}
    .fil3 {fill:#E2E3E3}
    .fil0 {fill:url(#id0)}
    .fil1 {fill:url(#id1)}
   ]]>
  </style>
  <linearGradient id="id0" gradientUnits="userSpaceOnUse" x1="360.024" y1="121.355" x2="360.024" y2="182.193">
   <stop offset="0" style="stop-color:#FCFCFD"/>
   <stop offset="1" style="stop-color:#EDEDED"/>
  </linearGradient>
  <linearGradient id="id1" gradientUnits="userSpaceOnUse" x1="360.016" y1="291.413" x2="360.016" y2="168.576">
   <stop offset="0" style="stop-color:#008BFF"/>
   <stop offset="1" style="stop-color:#00AAFF"/>
  </linearGradient>
 </defs>
 <g id="Layer_x0020_1">
  <metadata id="CorelCorpID_0Corel-Layer"/>
  <path class="fil0 str0" d="M244 182l0 -55c0,-3 3,-6 6,-6l81 0c12,0 12,18 23,18l116 0c3,0 6,2 6,6l0 37 -232 0z"/>
  <path class="fil1 str1" d="M250 307l220 0c3,0 6,-3 6,-6l6 -142c0,-3 -3,-6 -6,-6l-87 0c-12,0 -12,18 -23,18l-122 0c-3,0 -6,2 -6,5l6 125c0,3 3,6 6,6z"/>
  <path class="fil2" d="M262 133l63 0c3,0 6,3 6,6 0,3 -3,6 -6,6l-63 0c-4,0 -6,-3 -6,-6 0,-3 2,-6 6,-6z"/>
  <rect class="fil3 str2" x="106" y="145" width="39.994" height="240.001"/>
  <path class="fil4 str3" d="M96 270l60 -10m-60 -10l60 -10m-60 -10l60 -10m-60 -10l60 -10m-60 -10l60 -10m-60 -10l60 -10"/>
  <path class="fil5" d="M96 335l60 0 0 10 -60 0 0 -10zm-37 68l214 0c3,-5 7,-8 13,-8 8,0 15,7 15,15 0,8 -7,15 -15,15 -6,0 -10,-3 -13,-7l-214 0c-3,4 -8,7 -13,7 -8,0 -15,-7 -15,-15 0,-8 7,-15 15,-15 5,0 10,3 13,8zm37 -318l60 0 0 10 -60 0 0 -10z"/>
  <path class="fil6 str1" d="M86 385l80 0c3,0 5,2 5,5l0 40c0,3 -2,5 -5,5l-80 0c-3,0 -5,-2 -5,-5l0 -40c0,-3 2,-5 5,-5zm115 -280l185 0c3,0 5,-2 5,-4l0 -7c0,-13 -20,-29 -55,-29l-133 0c-1,0 -2,0 -3,1l-29 29 -85 0c-3,0 -5,2 -5,5l0 40c0,3 2,5 5,5l85 0 30 -40zm0 220l185 0c3,0 5,2 5,4l0 7c0,13 -20,29 -55,29l-133 0c-1,0 -2,0 -3,-1l-29 -29 -85 0c-3,0 -5,-2 -5,-5l0 -40c0,-3 2,-5 5,-5l85 0 30 40z"/>
 </g>
</svg>
