<?xml version="1.0" encoding="UTF-8"?>
<!DOCTYPE svg PUBLIC "-//W3C//DTD SVG 1.1//EN" "http://www.w3.org/Graphics/SVG/1.1/DTD/svg11.dtd">
<!-- Creator: CorelDRAW X6 -->
<svg xmlns="http://www.w3.org/2000/svg" xml:space="preserve" width="100%" height="100%" version="1.1" style="shape-rendering:geometricPrecision; text-rendering:geometricPrecision; image-rendering:optimizeQuality; fill-rule:evenodd; clip-rule:evenodd"
viewBox="0 0 500 500"
 xmlns:xlink="http://www.w3.org/1999/xlink">
 <defs>
  <style type="text/css">
   <![CDATA[
    .str0 {stroke:#4D4D4D;stroke-width:5;stroke-linejoin:round}
    .fil1 {fill:#F3F3F4}
    .fil0 {fill:white}
   ]]>
  </style>
 </defs>
 <g id="Layer_x0020_1">
  <metadata id="CorelCorpID_0Corel-Layer"/>
  <path class="fil0 str0" d="M286 395c8,0 15,7 15,15 0,8 -7,15 -15,15 -6,0 -10,-3 -13,-7l-102 0 0 12c0,3 -2,5 -5,5l-80 0c-3,0 -5,-2 -5,-5l0 -12 -22 0c-3,4 -8,7 -13,7 -8,0 -15,-7 -15,-15 0,-8 7,-15 15,-15 5,0 10,3 13,8l22 0 0 -13c0,-3 2,-5 5,-5l20 0 0 -40 -10 0 0 -10 -10 0c-3,0 -5,-2 -5,-5l0 -40c0,-3 2,-5 5,-5l20 0 0 -18 -8 1c-2,1 -5,-1 -5,-4 0,-2 1,-4 4,-5l9 -1 0 -10 -8 2c-2,0 -5,-2 -5,-4 0,-3 1,-5 4,-5l9 -2 0 -9 -8 1c-2,1 -5,-1 -5,-4 0,-2 1,-5 4,-5l9 -2 0 -9 -8 1c-2,1 -5,-1 -5,-3 0,-3 1,-5 4,-6l9 -1 0 -9 -8 1c-2,0 -5,-1 -5,-4 0,-2 1,-5 4,-5l9 -2 0 -9 -8 1c-2,1 -5,-1 -5,-4 0,-2 1,-4 4,-5l9 -1 0 -20 -20 0c-3,0 -5,-2 -5,-5l0 -40c0,-3 2,-5 5,-5l10 0 0 -10 60 0 0 10 15 0 29 -29c1,-1 2,-1 3,-1l133 0c35,0 55,16 55,29l0 7c0,2 -2,4 -5,4l-185 0 -30 40 -25 0 0 13 7 -1c3,-1 5,1 6,4 0,2 -2,5 -4,5l-9 1 0 10 7 -2c3,0 5,2 6,4 0,3 -2,5 -4,6l-9 1 0 9 7 -1c3,0 5,1 6,4 0,2 -2,5 -4,5l-9 2 0 9 7 -1c3,-1 5,1 6,3 0,3 -2,5 -4,6l-9 1 0 9 7 -1c3,0 5,2 6,4 0,3 -2,5 -4,5l-9 2 0 9 7 -1c3,-1 5,1 6,4 0,2 -2,5 -4,5l-9 1 0 25 25 0 30 40 185 0c3,0 5,2 5,4l0 7c0,13 -20,29 -55,29l-133 0c-1,0 -2,0 -3,-1l-29 -29 -15 0 0 10 -10 0 0 40 20 0c3,0 5,2 5,5l0 13 102 0c3,-5 7,-8 13,-8z"/>
  <path class="fil1 str0" d="M245 133l65 0c3,0 6,3 6,6 0,3 -3,6 -6,6l-65 0c-3,0 -6,-3 -6,-6 0,-3 3,-6 6,-6zm-10 181l224 0c4,0 6,-3 6,-6l6 -144c0,-4 -3,-6 -6,-6l-88 0c-12,0 -12,17 -24,17l-123 0c-4,0 -6,3 -6,6l6 127c0,3 2,6 5,6zm-7 -149l0 -40c0,-3 2,-6 5,-6l83 0c12,0 12,18 24,18l117 0c4,0 6,3 6,6l0 3 -91 0c-13,0 -13,19 -25,19l-119 0z"/>
 </g>
</svg>
