<?xml version="1.0" encoding="UTF-8"?>
<!DOCTYPE svg PUBLIC "-//W3C//DTD SVG 1.1//EN" "http://www.w3.org/Graphics/SVG/1.1/DTD/svg11.dtd">

<svg xmlns="http://www.w3.org/2000/svg" xml:space="preserve" width="100%" height="100%" version="1.1" style="shape-rendering:geometricPrecision; text-rendering:geometricPrecision; image-rendering:optimizeQuality; fill-rule:evenodd; clip-rule:evenodd"
viewBox="0 0 5000 5000"
 xmlns:xlink="http://www.w3.org/1999/xlink">
 <defs>
  <style type="text/css">
   <![CDATA[
    .fil0 {fill:#FFFFFF}
   ]]>
  </style>
 </defs>
 <g id="Layer_x0020_1">
  <metadata id="CorelCorpID_0Corel-Layer"/>
  <path class="fil0" d="M2400 2271c-8,-482 -202,-765 -300,-1271 -50,-300 100,-600 400,-600 300,0 450,300 400,600 -98,506 -292,789 -300,1271 17,7 33,17 48,28 414,-248 562,-558 951,-895 235,-194 570,-214 720,46 150,260 -35,540 -320,646 -487,168 -829,142 -1251,376 1,9 2,19 2,28 0,9 -1,19 -2,28 422,234 764,208 1251,376 285,106 470,386 320,646 -150,260 -485,240 -720,46 -389,-337 -537,-647 -951,-895 -15,11 -31,21 -48,28 8,482 202,765 300,1271 50,300 -100,600 -400,600 -300,0 -450,-300 -400,-600 98,-506 292,-789 300,-1271 -17,-7 -33,-17 -48,-28 -414,248 -562,558 -951,895 -235,194 -570,214 -720,-46 -150,-260 35,-540 320,-646 487,-168 829,-142 1251,-376 -1,-9 -2,-19 -2,-28 0,-9 1,-19 2,-28 -422,-234 -764,-208 -1251,-376 -285,-106 -470,-386 -320,-646 150,-260 485,-240 720,-46 389,337 537,647 951,895 15,-11 31,-21 48,-28z"/>
 </g>
</svg>
