<?xml version="1.0" encoding="UTF-8"?>
<!DOCTYPE svg PUBLIC "-//W3C//DTD SVG 1.1//EN" "http://www.w3.org/Graphics/SVG/1.1/DTD/svg11.dtd">

<svg xmlns="http://www.w3.org/2000/svg" xml:space="preserve" width="100%" height="100%" version="1.1" style="shape-rendering:geometricPrecision; text-rendering:geometricPrecision; image-rendering:optimizeQuality; fill-rule:evenodd; clip-rule:evenodd"
viewBox="0 0 500 500"
 xmlns:xlink="http://www.w3.org/1999/xlink">
 <defs>
  <style type="text/css">
   <![CDATA[
    .str0 {stroke:#434242;stroke-width:10;stroke-linejoin:round}
    .str1 {stroke:#434242;stroke-width:20;stroke-linejoin:round}
    .fil1 {fill:none}
    .fil0 {fill:url(#id0)}
   ]]>
  </style>
  <radialGradient id="id0" gradientUnits="objectBoundingBox" cx="50%" cy="48%" r="50%" fx="50%" fy="48%">
   <stop offset="0" style="stop-color:#00AAFF"/>
   <stop offset="1" style="stop-color:#008BFF"/>
  </radialGradient>
 </defs>
 <g id="Layer_x0020_1">
  <metadata id="CorelCorpID_0Corel-Layer"/>
  <path class="fil0 str0" d="M160 382l222 -222c18,26 28,57 28,90 0,88 -72,160 -160,160 -33,0 -64,-10 -90,-28zm180 -264l-222 222c-18,-26 -28,-57 -28,-90 0,-88 72,-160 160,-160 33,0 64,10 90,28zm-90 -88c122,0 220,98 220,220 0,122 -98,220 -220,220 -122,0 -220,-98 -220,-220 0,-122 98,-220 220,-220z"/>
  <path class="fil1 str1" d="M250 30c122,0 220,98 220,220 0,122 -98,220 -220,220 -122,0 -220,-98 -220,-220 0,-122 98,-220 220,-220z"/>
 </g>
</svg>
