<?xml version="1.0" encoding="UTF-8"?>
<!DOCTYPE svg PUBLIC "-//W3C//DTD SVG 1.1//EN" "http://www.w3.org/Graphics/SVG/1.1/DTD/svg11.dtd">

<svg xmlns="http://www.w3.org/2000/svg" xml:space="preserve" width="100%" height="100%" version="1.1" style="shape-rendering:geometricPrecision; text-rendering:geometricPrecision; image-rendering:optimizeQuality; fill-rule:evenodd; clip-rule:evenodd"
viewBox="0 0 5000 5000"
 xmlns:xlink="http://www.w3.org/1999/xlink">
 <defs>
  <style type="text/css">
   <![CDATA[
    .fil0 {fill:#434242}
   ]]>
  </style>
 </defs>
 <g id="Layer_x0020_1">
  <metadata id="CorelCorpID_0Corel-Layer"/>
  <path class="fil0" d="M1598 3822l2224 -2224c175,257 278,568 278,902 0,884 -716,1600 -1600,1600 -334,0 -645,-103 -902,-278zm1804 -2644l-2224 2224c-175,-257 -278,-568 -278,-902 0,-884 716,-1600 1600,-1600 334,0 645,103 902,278zm-902 -878c1215,0 2200,985 2200,2200 0,1215 -985,2200 -2200,2200 -1215,0 -2200,-985 -2200,-2200 0,-1215 985,-2200 2200,-2200z"/>
 </g>
</svg>
