<?xml version="1.0" encoding="UTF-8"?>
<!DOCTYPE svg PUBLIC "-//W3C//DTD SVG 1.1//EN" "http://www.w3.org/Graphics/SVG/1.1/DTD/svg11.dtd">

<svg xmlns="http://www.w3.org/2000/svg" xml:space="preserve" width="100%" height="100%" version="1.1" style="shape-rendering:geometricPrecision; text-rendering:geometricPrecision; image-rendering:optimizeQuality; fill-rule:evenodd; clip-rule:evenodd"
viewBox="0 0 5000 5000"
 xmlns:xlink="http://www.w3.org/1999/xlink">
 <defs>
  <style type="text/css">
   <![CDATA[
    .fil0 {fill:#008BFF}
   ]]>
  </style>
 </defs>
 <g id="Layer_x0020_1">
  <metadata id="CorelCorpID_0Corel-Layer"/>
  <rect class="fil0" x="200" y="1000" width="250" height="3100"/>
  <rect class="fil0" x="650" y="1000" width="250" height="2500"/>
  <rect class="fil0" x="1050" y="1000" width="550" height="2500"/>
  <rect class="fil0" x="1950" y="1000" width="200" height="2500"/>
  <rect class="fil0" x="2376" y="1000" width="400" height="2500"/>
  <rect class="fil0" x="3693" y="1000" width="300" height="2500"/>
  <rect class="fil0" x="2952" y="1000" width="200" height="2500"/>
  <rect class="fil0" x="4150" y="1000" width="200" height="2500"/>
  <rect class="fil0" x="4500" y="1000" width="300" height="3100"/>
  <rect class="fil0" x="650" y="3900" width="200" height="200"/>
  <rect class="fil0" x="1050" y="3900" width="200" height="200"/>
  <rect class="fil0" x="1450" y="3900" width="200" height="200"/>
  <rect class="fil0" x="1850" y="3900" width="200" height="200"/>
  <rect class="fil0" x="2250" y="3900" width="200" height="200"/>
  <rect class="fil0" x="2650" y="3900" width="200" height="200"/>
  <rect class="fil0" x="3050" y="3900" width="200" height="200"/>
  <rect class="fil0" x="3450" y="3900" width="200" height="200"/>
  <rect class="fil0" x="3850" y="3900" width="200" height="200"/>
 </g>
</svg>
