<?xml version="1.0" encoding="UTF-8"?>
<!DOCTYPE svg PUBLIC "-//W3C//DTD SVG 1.1//EN" "http://www.w3.org/Graphics/SVG/1.1/DTD/svg11.dtd">
<!-- Creator: CorelDRAW X6 -->
<svg xmlns="http://www.w3.org/2000/svg" xml:space="preserve" width="100%" height="100%" version="1.1" shape-rendering="geometricPrecision" text-rendering="geometricPrecision" image-rendering="optimizeQuality" fill-rule="evenodd" clip-rule="evenodd"
viewBox="0 0 50 50"
 xmlns:xlink="http://www.w3.org/1999/xlink">
 <g id="Layer_x0020_1">
  <metadata id="CorelCorpID_0Corel-Layer"/>
  <path fill="none" stroke="#434242" stroke-width="0.0762" d="M4 20l42 0c1,0 2,1 2,2 0,1 -1,2 -2,2l-42 0c-1,0 -2,-1 -2,-2 0,-1 1,-2 2,-2z"/>
  <path fill="none" stroke="#434242" stroke-width="1.5" d="M24 8c1,1 1,3 0,4 -1,1 -3,1 -4,0 -1,-1 -1,-3 0,-4 1,-1 3,-1 4,0zm2 0c-1,1 -1,3 0,4 1,1 3,1 4,0 1,-1 1,-3 0,-4 -1,-1 -3,-1 -4,0z"/>
  <path fill="none" stroke="#434242" stroke-width="3" d="M20 12l-11 10m21 -10l11 10"/>
  <line fill="none" stroke="#434242" stroke-width="5" stroke-linecap="round" x1="4" y1="22" x2="46" y2= "22" />
  <path fill="none" stroke="#434242" stroke-width="2" stroke-linecap="round" d="M12 27l2 13m5 -13l1 13m5 -13l0 13m13 -13l-2 13m-5 -13l-1 13m-16 4c7,0 15,0 22,0 2,0 4,-2 5,-4 1,-6 2,-10 3,-16 -13,0 -25,0 -38,0 1,6 2,10 3,16 1,2 3,4 5,4z"/>
 </g>
</svg>
