<svg xmlns="http://www.w3.org/2000/svg" shape-rendering="geometricPrecision" text-rendering="geometricPrecision" image-rendering="optimizeQuality" fill-rule="evenodd" clip-rule="evenodd" viewBox="0 0 500 500"><defs><linearGradient id="a" gradientUnits="userSpaceOnUse" x1="250" y1="440.001" x2="250" y2="235.001"><stop offset="0" stop-color="#008BFF"/><stop offset="1" stop-color="#0af"/></linearGradient></defs><g><path fill="url(#a)" stroke="#434242" stroke-width="10" stroke-linejoin="round" d="M138 440h224c22 0 42-17 46-39l32-166h-380c10 62 21 104 32 166 3 22 24 39 46 39z"/><path stroke="#434242" stroke-width="40" d="M220 100l-118 117m178-117l118 117" fill="none"/><path fill="#279DFF" stroke="#434242" stroke-width="7.5" d="M258 80c-11 12-11 31 2 42 12 11 31 11 42-2 11-12 11-31-2-42-12-11-31-11-42 2zm-16 0c11 12 11 31-2 42-12 11-31 11-42-2-11-12-11-31 2-42 12-11 31-11 42 2z"/><line stroke="#434242" stroke-width="50" stroke-linecap="round" x1="60" y1="220" x2="440" y2="220" fill="none"/><path stroke="#FCFCFD" stroke-width="30" stroke-linecap="round" d="M122 277l24 120m232-120l-24 120m-61-119l-7 121m-79-121l7 121" fill="none"/></g></svg>