<?xml version="1.0" encoding="UTF-8"?>
<!DOCTYPE svg PUBLIC "-//W3C//DTD SVG 1.1//EN" "http://www.w3.org/Graphics/SVG/1.1/DTD/svg11.dtd">
<!-- Creator: CorelDRAW X6 -->
<svg xmlns="http://www.w3.org/2000/svg" xml:space="preserve" width="100%" height="100%" version="1.1" shape-rendering="geometricPrecision" text-rendering="geometricPrecision" image-rendering="optimizeQuality" fill-rule="evenodd" clip-rule="evenodd"
viewBox="0 0 50 50"
 xmlns:xlink="http://www.w3.org/1999/xlink">
 <g id="Layer_x0020_1">
  <metadata id="CorelCorpID_0Corel-Layer"/>
  <path fill="#FCFCFD" d="M29 9c0,1 0,1 0,2 -1,0 -1,0 -2,0 0,-1 0,-1 0,-2 1,0 1,0 2,0zm-6 0c0,1 0,1 0,2 -1,0 -1,0 -2,0 0,-1 0,-1 0,-2 1,0 1,0 2,0zm6 18c0,0 -1,0 -1,1l-1 11c0,1 1,2 2,2 0,0 1,-1 1,-2l1 -11c0,0 -1,-1 -2,-1zm9 0c-1,0 -2,0 -2,1l-2 11c0,1 1,1 1,2 1,0 2,-1 2,-2l2 -10c0,-1 0,-2 -1,-2zm-17 0c0,0 1,0 1,1l1 11c0,1 -1,2 -2,2 0,0 -1,-1 -1,-2l-1 -11c0,0 1,-1 2,-1zm-9 0c1,0 2,0 2,1l2 11c0,1 -1,1 -1,2 -1,0 -2,-1 -2,-2l-2 -10c0,-1 0,-2 1,-2zm-7 -7l4 0 10 -9c0,-1 0,-2 1,-3 1,-1 3,-1 4,0 1,1 1,3 0,4 -1,1 -2,1 -3,1l-7 7 22 0 -7 -7c-1,0 -2,0 -3,-1 -1,-1 -1,-3 0,-4 1,-1 3,-1 4,0 1,1 1,2 1,3l10 9 4 0c1,0 2,1 2,2 0,1 -1,2 -2,2l-1 0c-1,6 -2,10 -3,16 -1,2 -3,4 -5,4 -7,0 -15,0 -22,0 -2,0 -4,-2 -5,-4 -1,-6 -2,-10 -3,-16l-1 0c-1,0 -2,-1 -2,-2 0,-1 1,-2 2,-2z"/>
 </g>
</svg>
