<?xml version="1.0" encoding="UTF-8"?>
<!DOCTYPE svg PUBLIC "-//W3C//DTD SVG 1.1//EN" "http://www.w3.org/Graphics/SVG/1.1/DTD/svg11.dtd">
<!-- Creator: CorelDRAW X6 -->
<svg xmlns="http://www.w3.org/2000/svg" xml:space="preserve" width="100%" height="100%" version="1.1" shape-rendering="geometricPrecision" text-rendering="geometricPrecision" image-rendering="optimizeQuality" fill-rule="evenodd" clip-rule="evenodd"
viewBox="0 0 500 500"
 xmlns:xlink="http://www.w3.org/1999/xlink">
 <g id="Layer_x0020_1">
  <metadata id="CorelCorpID_0Corel-Layer"/>
  <path fill="#434242" d="M155 65c0,-3 2,-5 5,-5l53 0c3,0 5,-2 5,-5l0 -10c0,-3 3,-5 6,-5l52 0c3,0 6,2 6,5l0 10c0,3 2,5 5,5l53 0c3,0 5,2 5,5 0,129 0,259 0,388 0,3 -2,5 -5,5l-180 0c-3,0 -5,-2 -5,-5 0,-129 0,-259 0,-388zm21 145l148 0 0 -130 -148 0 0 130zm106 164l0 20 -64 0 0 -20 64 0zm-43 -268l22 0 0 20 21 0 0 19 -21 0 0 20 -22 0 0 -20 -21 0 0 -19 21 0 0 -20zm-84 243l190 0"/>
 </g>
</svg>
