<?xml version="1.0" encoding="UTF-8"?>
<!DOCTYPE svg PUBLIC "-//W3C//DTD SVG 1.1//EN" "http://www.w3.org/Graphics/SVG/1.1/DTD/svg11.dtd">
<!-- Creator: CorelDRAW X6 -->
<svg xmlns="http://www.w3.org/2000/svg" xml:space="preserve" width="100%" height="100%" version="1.1" shape-rendering="geometricPrecision" text-rendering="geometricPrecision" image-rendering="optimizeQuality" fill-rule="evenodd" clip-rule="evenodd"
viewBox="0 0 500 500"
 xmlns:xlink="http://www.w3.org/1999/xlink">
 <g id="Layer_x0020_1">
  <metadata id="CorelCorpID_0Corel-Layer"/>
  <path fill="none" stroke="#434242" stroke-width="20" stroke-linecap="round" d="M340 454c0,3 -2,5 -5,5l-170 0c-3,0 -5,-2 -5,-5 0,-130 0,-260 0,-390 0,-3 2,-5 5,-5l50 0c3,0 5,-2 5,-5l0 -10c0,-3 2,-5 5,-5l50 0c3,0 5,2 5,5l0 10c0,3 2,5 5,5l50 0c3,0 5,2 5,5 0,130 0,260 0,390zm-60 -49l-60 0m30 -320l0 60m30 -30l-60 0"/>
  <line fill="none" stroke="#434242" stroke-width="10" x1="155" y1="218" x2="345" y2= "218" />
 </g>
</svg>
