<?xml version="1.0" encoding="UTF-8"?>
<!DOCTYPE svg PUBLIC "-//W3C//DTD SVG 1.1//EN" "http://www.w3.org/Graphics/SVG/1.1/DTD/svg11.dtd">

<svg xmlns="http://www.w3.org/2000/svg" xml:space="preserve" width="100%" height="100%" version="1.1" style="shape-rendering:geometricPrecision; text-rendering:geometricPrecision; image-rendering:optimizeQuality; fill-rule:evenodd; clip-rule:evenodd"
viewBox="0 0 5000 5000"
 xmlns:xlink="http://www.w3.org/1999/xlink">
 <defs>
  <style type="text/css">
   <![CDATA[
    .str0 {stroke:#FFFFFF;stroke-width:100;stroke-linejoin:round}
    .fil0 {fill:#FFFFFF}
   ]]>
  </style>
 </defs>
 <g id="Layer_x0020_1">
  <metadata id="CorelCorpID_0Corel-Layer"/>
  <path class="fil0" d="M721 3765c593,-441 949,-1102 949,-1653l0 -358c0,-523 237,-854 830,-854 593,0 830,331 830,854l0 358c0,551 356,1212 949,1653l-2637 0c353,-413 503,-918 503,-1354l0 -363c0,-353 107,-619 355,-758l0 -20c-421,82 -595,392 -595,843l0 363c0,413 -198,889 -546,1289l-638 0z"/>
  <path class="fil0 str0" d="M780 4250c-236,0 -284,-176 -173,-331l3786 0c111,155 63,331 -173,331l-3440 0z"/>
  <path class="fil0" d="M2500 4350l-350 0c0,193 157,350 350,350 193,0 350,-157 350,-350l-350 0z"/>
  <path class="fil0" d="M2500 950c166,0 300,-134 300,-300 0,-166 -134,-300 -300,-300 -166,0 -300,134 -300,300 0,166 134,300 300,300zm0 -150c83,0 150,-67 150,-150 0,-83 -67,-150 -150,-150 -83,0 -150,67 -150,150 0,83 67,150 150,150z"/>
 </g>
</svg>
