<?xml version="1.0" encoding="UTF-8"?>
<!DOCTYPE svg PUBLIC "-//W3C//DTD SVG 1.1//EN" "http://www.w3.org/Graphics/SVG/1.1/DTD/svg11.dtd">

<svg xmlns="http://www.w3.org/2000/svg" xml:space="preserve" width="100%" height="100%" version="1.1" style="shape-rendering:geometricPrecision; text-rendering:geometricPrecision; image-rendering:optimizeQuality; fill-rule:evenodd; clip-rule:evenodd"
viewBox="0 0 500 500"
 xmlns:xlink="http://www.w3.org/1999/xlink">
 <defs>
  <style type="text/css">
   <![CDATA[
    .str1 {stroke:#434242;stroke-width:10;stroke-linecap:round}
    .str2 {stroke:#434242;stroke-width:15}
    .str0 {stroke:#434242;stroke-width:30}
    .fil0 {fill:none}
   ]]>
  </style>
 </defs>
 <g id="Layer_x0020_1">
  <metadata id="CorelCorpID_0Corel-Layer"/>
  <path class="fil0 str0" d="M74 420c-31,0 -31,-28 -6,-44 60,-44 97,-110 97,-165l0 -36c0,-52 24,-85 85,-85 61,0 85,33 85,85l0 36c0,55 37,121 97,165 25,16 25,44 -6,44l-352 0z"/>
  <line class="fil0 str1" x1="115" y1="376" x2="385" y2= "376" />
  <circle class="fil0 str2" cx="250" cy="57" r="30"/>
  <path class="fil0 str1" d="M225 445c0,14 11,25 25,25 14,0 25,-11 25,-25"/>
  <path class="fil0 str1" d="M174 300c15,-26 23,-54 23,-79l0 -27c0,-41 15,-66 53,-66"/>
 </g>
</svg>
