<?xml version="1.0" encoding="UTF-8"?>
<!DOCTYPE svg PUBLIC "-//W3C//DTD SVG 1.1//EN" "http://www.w3.org/Graphics/SVG/1.1/DTD/svg11.dtd">

<svg xmlns="http://www.w3.org/2000/svg" xml:space="preserve" width="100%" height="100%" version="1.1" style="shape-rendering:geometricPrecision; text-rendering:geometricPrecision; image-rendering:optimizeQuality; fill-rule:evenodd; clip-rule:evenodd"
viewBox="0 0 500 500"
 xmlns:xlink="http://www.w3.org/1999/xlink">
 <defs>
  <style type="text/css">
   <![CDATA[
    .str1 {stroke:#434242;stroke-width:10}
    .str0 {stroke:#434242;stroke-width:10;stroke-linejoin:round}
    .str2 {stroke:#434242;stroke-width:15;stroke-linejoin:round}
    .fil3 {fill:none}
    .fil1 {fill:#434242}
    .fil4 {fill:url(#id0)}
    .fil2 {fill:url(#id1)}
    .fil0 {fill:url(#id2)}
   ]]>
  </style>
  <linearGradient id="id0" gradientUnits="userSpaceOnUse" x1="370.875" y1="295.974" x2="129.123" y2="295.974">
   <stop offset="0" style="stop-color:#008BFF"/>
   <stop offset="1" style="stop-color:#00AAFF"/>
  </linearGradient>
  <linearGradient id="id1" gradientUnits="userSpaceOnUse" x1="192.404" y1="151.314" x2="192.404" y2="340.61">
   <stop offset="0" style="stop-color:#FCFCFD"/>
   <stop offset="1" style="stop-color:#FFFFFF"/>
  </linearGradient>
  <linearGradient id="id2" gradientUnits="userSpaceOnUse" x1="335.199" y1="227.5" x2="164.799" y2="227.5">
   <stop offset="0" style="stop-color:#CDCDCE"/>
   <stop offset="0.501961" style="stop-color:#FFFFFF"/>
   <stop offset="1" style="stop-color:#CDCDCE"/>
  </linearGradient>
 </defs>
 <g id="Layer_x0020_1">
  <metadata id="CorelCorpID_0Corel-Layer"/>
  <path class="fil0" d="M72 371c60,-44 95,-110 95,-166l0 -35c0,-52 24,-86 83,-86 59,0 83,34 83,86l0 35c0,56 35,122 94,166l-355 0z"/>
  <path class="fil1 str0" d="M78 425c-24,0 -28,-18 -17,-33l378 0c11,15 7,33 -17,33l-344 0z"/>
  <path class="fil2" d="M135 371c36,-41 56,-89 56,-131l0 -35c0,-45 17,-75 59,-84l0 2c-24,14 -35,40 -35,75l0 36c0,44 -16,95 -52,137l-28 0z"/>
  <path class="fil1" d="M250 435l-35 0c0,19 16,35 35,35 19,0 35,-16 35,-35l-35 0z"/>
  <path class="fil1" d="M250 89c17,0 30,-13 30,-30 0,-16 -13,-30 -30,-30 -17,0 -30,14 -30,30 0,17 13,30 30,30zm0 -15c8,0 15,-6 15,-15 0,-8 -7,-15 -15,-15 -8,0 -15,7 -15,15 0,9 7,15 15,15z"/>
  <path class="fil3" d="M72 371c60,-44 95,-110 95,-166l0 -35c0,-52 24,-86 83,-86 59,0 83,34 83,86l0 35c0,56 35,122 94,166l-355 0z"/>
  <path class="fil3 str0" d="M78 425c-24,0 -28,-18 -17,-33l378 0c11,15 7,33 -17,33l-344 0z"/>
  <path class="fil3" d="M135 371c36,-41 56,-89 56,-131l0 -35c0,-45 17,-75 59,-84l0 2c-24,14 -35,40 -35,75l0 36c0,44 -16,95 -52,137l-28 0z"/>
  <path class="fil3" d="M250 435l-35 0c0,19 16,35 35,35 19,0 35,-16 35,-35l-35 0z"/>
  <path class="fil4 str1" d="M129 313c8,-11 14,-22 20,-34l202 0c6,12 12,23 20,34l-242 0z"/>
  <path class="fil3" d="M250 89c17,0 30,-13 30,-30 0,-16 -13,-30 -30,-30 -17,0 -30,14 -30,30 0,17 13,30 30,30zm0 -15c8,0 15,-6 15,-15 0,-8 -7,-15 -15,-15 -8,0 -15,7 -15,15 0,9 7,15 15,15z"/>
  <path class="fil3 str2" d="M72 371c60,-44 95,-110 95,-166l0 -35c0,-52 24,-86 83,-86 59,0 83,34 83,86l0 35c0,56 35,122 94,166l-355 0z"/>
 </g>
</svg>
