<?xml version="1.0" encoding="UTF-8"?>
<!DOCTYPE svg PUBLIC "-//W3C//DTD SVG 1.1//EN" "http://www.w3.org/Graphics/SVG/1.1/DTD/svg11.dtd">

<svg xmlns="http://www.w3.org/2000/svg" xml:space="preserve" width="100%" height="100%" version="1.1" style="shape-rendering:geometricPrecision; text-rendering:geometricPrecision; image-rendering:optimizeQuality; fill-rule:evenodd; clip-rule:evenodd"
viewBox="0 0 500 500"
 xmlns:xlink="http://www.w3.org/1999/xlink">
 <defs>
  <style type="text/css">
   <![CDATA[
    .fil0 {fill:#434242}
   ]]>
  </style>
 </defs>
 <g id="Layer_x0020_1">
  <metadata id="CorelCorpID_0Corel-Layer"/>
  <path class="fil0" d="M190 55l164 0c3,1 4,2 1,4 -9,4 -15,11 -15,21l0 361c0,5 -5,5 -10,0l-70 -76c-5,-5 -15,-5 -20,0l-70 76c-5,5 -10,5 -10,0l0 -361c0,-15 15,-25 30,-25zm103 200l-37 -29c-4,-3 -8,-3 -12,0l-37 29c-2,1 -5,-1 -4,-3l14 -46c1,-5 0,-10 -4,-13l-37 -28c-2,-1 -1,-5 1,-5l46 0c5,0 9,-3 10,-7l15 -46c0,-3 4,-3 4,0l15 46c1,4 5,7 10,7l46 0c2,0 3,4 1,5l-37 28c-4,3 -5,8 -4,13l14 46c1,2 -2,4 -4,3z"/>
 </g>
</svg>
