<?xml version="1.0" encoding="UTF-8"?>
<!DOCTYPE svg PUBLIC "-//W3C//DTD SVG 1.1//EN" "http://www.w3.org/Graphics/SVG/1.1/DTD/svg11.dtd">

<svg xmlns="http://www.w3.org/2000/svg" xml:space="preserve" width="100%" height="100%" version="1.1" style="shape-rendering:geometricPrecision; text-rendering:geometricPrecision; image-rendering:optimizeQuality; fill-rule:evenodd; clip-rule:evenodd"
viewBox="0 0 500 500"
 xmlns:xlink="http://www.w3.org/1999/xlink">
 <defs>
  <style type="text/css">
   <![CDATA[
    .str1 {stroke:#434242;stroke-width:7.5}
    .str0 {stroke:#434242;stroke-width:10;stroke-linejoin:round}
    .fil1 {fill:url(#id0)}
    .fil0 {fill:url(#id1)}
   ]]>
  </style>
  <linearGradient id="id0" gradientUnits="userSpaceOnUse" x1="190.011" y1="267.875" x2="309.989" y2="92.482">
   <stop offset="0" style="stop-color:#008BFF"/>
   <stop offset="1" style="stop-color:#00AAFF"/>
  </linearGradient>
  <linearGradient id="id1" gradientUnits="userSpaceOnUse" x1="162.099" y1="250.635" x2="367.897" y2="250.635">
   <stop offset="0" style="stop-color:#FCFCFD"/>
   <stop offset="1" style="stop-color:#FFFFFF"/>
  </linearGradient>
 </defs>
 <g id="Layer_x0020_1">
  <metadata id="CorelCorpID_0Corel-Layer"/>
  <path class="fil0 str0" d="M190 55l180 0c-15,0 -30,10 -30,25l0 361c0,5 -5,5 -10,0l-70 -76c-5,-5 -15,-5 -20,0l-70 76c-5,5 -10,5 -10,0l0 -361c0,-15 15,-25 30,-25z"/>
  <path class="fil1 str1" d="M293 255l-37 -29c-4,-3 -8,-3 -12,0l-37 29c-2,1 -5,-1 -4,-3l14 -46c1,-5 0,-10 -4,-13l-37 -28c-2,-1 -1,-5 1,-5l46 0c5,0 9,-3 10,-7l15 -46c0,-3 4,-3 4,0l15 46c1,4 5,7 10,7l46 0c2,0 3,4 1,5l-37 28c-4,3 -5,8 -4,13l14 46c1,2 -2,4 -4,3z"/>
 </g>
</svg>
