<?xml version="1.0" encoding="UTF-8"?>
<!DOCTYPE svg PUBLIC "-//W3C//DTD SVG 1.1//EN" "http://www.w3.org/Graphics/SVG/1.1/DTD/svg11.dtd">

<svg xmlns="http://www.w3.org/2000/svg" xml:space="preserve" width="100%" height="100%" version="1.1" style="shape-rendering:geometricPrecision; text-rendering:geometricPrecision; image-rendering:optimizeQuality; fill-rule:evenodd; clip-rule:evenodd"
viewBox="0 0 500 500"
 xmlns:xlink="http://www.w3.org/1999/xlink">
 <defs>
  <style type="text/css">
   <![CDATA[
    .str0 {stroke:#434242;stroke-width:10}
    .str1 {stroke:#434242;stroke-width:10;stroke-linejoin:round}
    .fil3 {fill:none}
    .fil0 {fill:url(#id0)}
    .fil1 {fill:url(#id1)}
    .fil2 {fill:url(#id2)}
   ]]>
  </style>
  <linearGradient id="id0" gradientUnits="userSpaceOnUse" x1="80" y1="268" x2="410" y2="268">
   <stop offset="0" style="stop-color:whitesmoke"/>
   <stop offset="1" style="stop-color:#D5D6D6"/>
  </linearGradient>
  <linearGradient id="id1" gradientUnits="userSpaceOnUse" x1="80" y1="268" x2="139" y2="268">
   <stop offset="0" style="stop-color:#008BFF"/>
   <stop offset="1" style="stop-color:#00AAFF"/>
  </linearGradient>
  <linearGradient id="id2" gradientUnits="userSpaceOnUse" x1="386" y1="75" x2="103" y2="75">
   <stop offset="0" style="stop-color:#FCFCFD"/>
   <stop offset="1" style="stop-color:#FFFFFF"/>
  </linearGradient>
 </defs>
 <g id="Layer_x0020_1">
  <metadata id="CorelCorpID_0Corel-Layer"/>
  <path class="fil0" d="M80 430c0,15 5,30 25,30l285 0c10,0 20,-10 20,-20l0 -340 -305 0c-15,0 -25,-10 -25,-24l0 354z"/>
  <path class="fil1" d="M80 430c0,15 5,30 25,30l34 0 0 -360 -34 0c-15,0 -25,-10 -25,-24l0 354z"/>
  <path class="fil2 str0" d="M105 100l305 0c-14,0 -25,-11 -25,-25 0,-14 11,-25 25,-25l-305 0c-14,0 -25,11 -25,25 0,14 11,25 25,25z"/>
  <path class="fil3 str1" d="M80 430c0,15 5,30 25,30l285 0c10,0 20,-10 20,-20l0 -340 -305 0c-15,0 -25,-10 -25,-24l0 354z"/>
 </g>
</svg>
