<?xml version="1.0" encoding="UTF-8"?>
<!DOCTYPE svg PUBLIC "-//W3C//DTD SVG 1.1//EN" "http://www.w3.org/Graphics/SVG/1.1/DTD/svg11.dtd">
<!-- Creator: CorelDRAW X6 -->
<svg xmlns="http://www.w3.org/2000/svg" xml:space="preserve" width="100%" height="100%" version="1.1" shape-rendering="geometricPrecision" text-rendering="geometricPrecision" image-rendering="optimizeQuality" fill-rule="evenodd" clip-rule="evenodd"
viewBox="0 0 500 500"
 xmlns:xlink="http://www.w3.org/1999/xlink">
 <g id="Layer_x0020_1">
  <metadata id="CorelCorpID_0Corel-Layer"/>
  <path fill="none" stroke="#434242" stroke-width="10" stroke-linejoin="round" d="M268 126l-188 37 -50 -75 188 -38 50 76zm0 0l126 37 69 -63 -132 -37 -63 63zm-188 37l138 38 -25 100 -138 -50 25 -88zm314 0l-176 38 75 81 176 -44 -75 -75z"/>
  <path fill="none" stroke="#434242" stroke-width="15" stroke-linejoin="round" d="M268 126l126 37 -176 38 -138 -38 188 -37zm-50 75l0 244 176 -37 1 -148 -101 25 -76 -84zm-37 -10l37 10 0 244 -138 -37 0 -145 113 41 25 -103 -37 -10z"/>
 </g>
</svg>
