<?xml version="1.0" encoding="UTF-8"?>
<!DOCTYPE svg PUBLIC "-//W3C//DTD SVG 1.1//EN" "http://www.w3.org/Graphics/SVG/1.1/DTD/svg11.dtd">

<svg xmlns="http://www.w3.org/2000/svg" xml:space="preserve" width="100%" height="100%" version="1.1" style="shape-rendering:geometricPrecision; text-rendering:geometricPrecision; image-rendering:optimizeQuality; fill-rule:evenodd; clip-rule:evenodd"
viewBox="0 0 500 500"
 xmlns:xlink="http://www.w3.org/1999/xlink">
 <defs>
  <style type="text/css">
   <![CDATA[
    .fil0 {fill:#434242}
   ]]>
  </style>
 </defs>
 <g id="Layer_x0020_1">
  <metadata id="CorelCorpID_0Corel-Layer"/>
  <path class="fil0" d="M200 80l100 0c5,0 10,4 10,10l0 40c0,6 -5,10 -10,10l-100 0c-6,0 -10,-4 -10,-10l0 -40c0,-6 4,-10 10,-10zm10 15l80 0c3,0 5,2 5,5l0 35c0,3 -2,5 -5,5l-80 0c-3,0 -5,-2 -5,-5l0 -35c0,-3 2,-5 5,-5z"/>
  <path class="fil0" d="M460 240l0 160c0,16 -14,30 -30,30l-360 0c-17,0 -30,-14 -30,-30l0 -160c62,36 123,55 185,60l0 15c0,6 4,10 10,10l30 0c5,0 10,-4 10,-10l0 -15c62,-5 123,-24 185,-60z"/>
  <path class="fil0" d="M70 130l360 0c16,0 30,13 30,30l0 70c-62,36 -123,55 -185,60l0 -35c0,-5 -5,-10 -10,-10l-30 0c-6,0 -10,5 -10,10l0 35c-62,-5 -123,-24 -185,-60l0 -70c0,-17 13,-30 30,-30z"/>
  <rect class="fil0" x="230" y="250" width="40.004" height="69.999" rx="10" ry="10"/>
 </g>
</svg>
