<?xml version="1.0" encoding="UTF-8"?>
<!DOCTYPE svg PUBLIC "-//W3C//DTD SVG 1.1//EN" "http://www.w3.org/Graphics/SVG/1.1/DTD/svg11.dtd">

<svg xmlns="http://www.w3.org/2000/svg" xml:space="preserve" width="100%" height="100%" version="1.1" style="shape-rendering:geometricPrecision; text-rendering:geometricPrecision; image-rendering:optimizeQuality; fill-rule:evenodd; clip-rule:evenodd"
viewBox="0 0 5000 5000"
 xmlns:xlink="http://www.w3.org/1999/xlink">
 <defs>
  <style type="text/css">
   <![CDATA[
    .str2 {stroke:#434242;stroke-width:50}
    .str1 {stroke:#434242;stroke-width:100}
    .str0 {stroke:#434242;stroke-width:200}
    .fil0 {fill:none}
    .fil3 {fill:#FFFFFF}
    .fil2 {fill:url(#id0)}
    .fil1 {fill:url(#id1)}
   ]]>
  </style>
  <linearGradient id="id0" gradientUnits="userSpaceOnUse" x1="4599.99" y1="2203.1" x2="399.99" y2="2203.1">
   <stop offset="0" style="stop-color:#008BFF"/>
   <stop offset="1" style="stop-color:#00AAFF"/>
  </linearGradient>
  <linearGradient id="id1" gradientUnits="userSpaceOnUse" x1="2499.99" y1="2527.99" x2="2499.99" y2="3971.97">
   <stop offset="0" style="stop-color:#616161"/>
   <stop offset="1" style="stop-color:#434242"/>
  </linearGradient>
 </defs>
 <g id="Layer_x0020_1">
  <metadata id="CorelCorpID_0Corel-Layer"/>
  <rect class="fil0 str0" x="1900" y="800" width="1200" height="600" rx="100" ry="100"/>
  <path class="fil1 str1" d="M4600 2300l0 1600c0,165 -135,300 -300,300l-3600 0c-165,0 -300,-135 -300,-300l0 -1600c1396,806 2804,806 4200,0z"/>
  <path class="fil2 str1" d="M700 1300l3600 0c165,0 300,135 300,300l0 700c-1396,806 -2804,806 -4200,0l0 -700c0,-165 135,-300 300,-300z"/>
  <rect class="fil3 str2" x="2300" y="2500" width="400" height="700" rx="100" ry="100"/>
 </g>
</svg>
