<?xml version="1.0" encoding="UTF-8"?>
<!DOCTYPE svg PUBLIC "-//W3C//DTD SVG 1.1//EN" "http://www.w3.org/Graphics/SVG/1.1/DTD/svg11.dtd">

<svg xmlns="http://www.w3.org/2000/svg" xml:space="preserve" width="100%" height="100%" version="1.1" style="shape-rendering:geometricPrecision; text-rendering:geometricPrecision; image-rendering:optimizeQuality; fill-rule:evenodd; clip-rule:evenodd"
viewBox="0 0 5000 5000"
 xmlns:xlink="http://www.w3.org/1999/xlink">
 <defs>
  <style type="text/css">
   <![CDATA[
    .fil0 {fill:#FFFFFF}
   ]]>
  </style>
 </defs>
 <g id="Layer_x0020_1">
  <metadata id="CorelCorpID_0Corel-Layer"/>
  <path class="fil0" d="M2000 800l1000 0c55,0 100,45 100,100l0 400c0,55 -45,100 -100,100l-1000 0c-55,0 -100,-45 -100,-100l0 -400c0,-55 45,-100 100,-100zm100 150l800 0c27,0 50,23 50,50l0 350c0,28 -23,50 -50,50l-800 0c-28,0 -50,-22 -50,-50l0 -350c0,-27 22,-50 50,-50z"/>
  <path class="fil0" d="M4600 2400l0 1600c0,165 -135,300 -300,300l-3600 0c-165,0 -300,-135 -300,-300l0 -1600c615,355 1232,554 1850,596l0 154c0,55 45,100 100,100l300 0c55,0 100,-45 100,-100l0 -154c618,-42 1235,-241 1850,-596z"/>
  <path class="fil0" d="M700 1300l3600 0c165,0 300,135 300,300l0 700c-615,355 -1232,554 -1850,596l0 -346c0,-55 -45,-100 -100,-100l-300 0c-55,0 -100,45 -100,100l0 346c-618,-42 -1235,-241 -1850,-596l0 -700c0,-165 135,-300 300,-300z"/>
  <rect class="fil0" x="2300" y="2500" width="400" height="700" rx="100" ry="100"/>
 </g>
</svg>
