<?xml version="1.0" encoding="UTF-8"?>
<!DOCTYPE svg PUBLIC "-//W3C//DTD SVG 1.1//EN" "http://www.w3.org/Graphics/SVG/1.1/DTD/svg11.dtd">

<svg xmlns="http://www.w3.org/2000/svg" xml:space="preserve" width="100%" height="100%" version="1.1" style="shape-rendering:geometricPrecision; text-rendering:geometricPrecision; image-rendering:optimizeQuality; fill-rule:evenodd; clip-rule:evenodd"
viewBox="0 0 500 500"
 xmlns:xlink="http://www.w3.org/1999/xlink">
 <defs>
  <style type="text/css">
   <![CDATA[
    .str2 {stroke:#434242;stroke-width:7.5}
    .str1 {stroke:#434242;stroke-width:10;stroke-linecap:round}
    .str0 {stroke:#434242;stroke-width:20}
    .fil0 {fill:none}
   ]]>
  </style>
 </defs>
 <g id="Layer_x0020_1">
  <metadata id="CorelCorpID_0Corel-Layer"/>
  <path class="fil0 str0" d="M70 130l360 0c17,0 30,14 30,30l0 230c0,16 -14,30 -30,30l-360 0c-17,0 -30,-14 -30,-30l0 -230c0,-16 13,-30 30,-30z"/>
  <path class="fil0 str1" d="M435 232c-54,33 -107,51 -161,55m-48 0c-54,-4 -107,-22 -161,-55"/>
  <path class="fil0 str0" d="M190 130l0 -40c0,-6 4,-10 10,-10l100 0c5,0 10,4 10,10l0 40"/>
  <rect class="fil0 str2" x="230" y="250" width="40.004" height="69.999" rx="10" ry="10"/>
 </g>
</svg>
