<?xml version="1.0" encoding="UTF-8"?>
<!DOCTYPE svg PUBLIC "-//W3C//DTD SVG 1.1//EN" "http://www.w3.org/Graphics/SVG/1.1/DTD/svg11.dtd">
<!-- Creator: CorelDRAW X6 -->
<svg xmlns="http://www.w3.org/2000/svg" xml:space="preserve" width="100%" height="100%" version="1.1" shape-rendering="geometricPrecision" text-rendering="geometricPrecision" image-rendering="optimizeQuality" fill-rule="evenodd" clip-rule="evenodd"
viewBox="0 0 500 500"
 xmlns:xlink="http://www.w3.org/1999/xlink">
 <g id="Layer_x0020_1">
  <metadata id="CorelCorpID_0Corel-Layer"/>
  <path fill="#FFFFFF" d="M445 172c16,17 26,39 26,63 0,25 -10,47 -26,63l0 103c0,7 -6,14 -12,7 -29,-33 -64,-62 -106,-76l0 -194c42,-13 77,-42 106,-75 6,-7 12,-1 12,7l0 102zm-131 157c-11,-3 -23,-4 -35,-4l0 0 -74 0 0 -90c0,-7 -6,-12 -13,-12 -32,0 -57,-10 -57,-45l0 -32 144 0c12,0 24,-2 35,-4l0 187zm-240 -183l32 0c9,0 16,7 16,15l0 23c0,36 26,51 58,51 7,0 13,6 13,13l0 77c13,77 50,77 50,102l0 13c0,7 -7,13 -13,13l-51 0c-13,0 -17,-5 -20,-13l-38 -115c-16,0 -32,0 -47,0 -9,0 -16,-7 -16,-16l0 -25c-17,-11 -28,-30 -28,-52 0,-21 11,-40 28,-51l0 -20c0,-8 7,-15 16,-15z"/>
 </g>
</svg>
