<?xml version="1.0" encoding="UTF-8"?>
<!DOCTYPE svg PUBLIC "-//W3C//DTD SVG 1.1//EN" "http://www.w3.org/Graphics/SVG/1.1/DTD/svg11.dtd">
<!-- Creator: CorelDRAW X6 -->
<svg xmlns="http://www.w3.org/2000/svg" xml:space="preserve" width="100%" height="100%" version="1.1" shape-rendering="geometricPrecision" text-rendering="geometricPrecision" image-rendering="optimizeQuality" fill-rule="evenodd" clip-rule="evenodd"
viewBox="0 0 500 500"
 xmlns:xlink="http://www.w3.org/1999/xlink">
 <g id="Layer_x0020_1">
  <metadata id="CorelCorpID_0Corel-Layer"/>
  <path fill="none" stroke="#434242" stroke-width="10" d="M425 148c28,21 45,52 45,85 0,33 -17,63 -45,85l0 -170z"/>
  <path fill="none" stroke="#434242" stroke-width="25" stroke-linecap="round" stroke-linejoin="round" d="M274 312l-182 0c-7,0 -14,-6 -14,-14l0 -23c-15,-9 -25,-26 -25,-45 0,-19 10,-36 25,-46l0 -17c0,-8 7,-14 14,-14 61,0 122,0 182,0 57,0 102,-34 136,-73 6,-6 12,-1 12,6l0 294c0,6 -6,12 -12,6 -34,-40 -79,-74 -136,-74z"/>
  <path fill="none" stroke="#434242" stroke-width="25" stroke-linecap="round" stroke-linejoin="round" d="M197 312l-63 0 34 102c3,7 6,12 17,12l46 0c5,0 11,-5 11,-12l0 -11c0,-23 -34,-23 -45,-91z"/>
  <path fill="none" stroke="#434242" stroke-width="10" d="M120 153c7,0 13,6 13,14l0 20c0,32 24,46 52,46 6,0 12,5 12,11l0 68"/>
 </g>
</svg>
