<?xml version="1.0" encoding="UTF-8"?>
<!DOCTYPE svg PUBLIC "-//W3C//DTD SVG 1.1//EN" "http://www.w3.org/Graphics/SVG/1.1/DTD/svg11.dtd">
<!-- Creator: CorelDRAW X6 -->
<svg xmlns="http://www.w3.org/2000/svg" xml:space="preserve" width="100%" height="100%" version="1.1" shape-rendering="geometricPrecision" text-rendering="geometricPrecision" image-rendering="optimizeQuality" fill-rule="evenodd" clip-rule="evenodd"
viewBox="0 0 500 500"
 xmlns:xlink="http://www.w3.org/1999/xlink">
 <defs>
   <linearGradient id="id0" gradientUnits="userSpaceOnUse" x1="249.997" y1="82.801" x2="249.997" y2="417.199">
    <stop offset="0" stop-color="#FCFCFD"/>
    <stop offset="1" stop-color="#FFFFFF"/>
   </linearGradient>
   <linearGradient id="id1" gradientUnits="userSpaceOnUse" x1="249.998" y1="62.399" x2="249.998" y2="137.599">
    <stop offset="0" stop-color="#008BFF"/>
    <stop offset="1" stop-color="#00AAFF"/>
   </linearGradient>
 </defs>
 <g id="Layer_x0020_1">
  <metadata id="CorelCorpID_0Corel-Layer"/>
  <path fill="url(#id0)" stroke="#434242" stroke-width="10" d="M100 30l300 0c11,0 20,9 20,20l0 400c0,11 -9,20 -20,20l-300 0c-11,0 -20,-9 -20,-20l0 -400c0,-11 9,-20 20,-20z"/>
  <path fill="url(#id1)" stroke="#434242" stroke-width="10" d="M120 60l260 0c6,0 10,4 10,10l0 60c0,6 -4,10 -10,10l-260 0c-6,0 -10,-4 -10,-10l0 -60c0,-6 4,-10 10,-10z"/>
  <polygon fill="#434242" points="190,175 235,175 235,220 190,220 "/>
  <polygon fill="#434242" points="265,175 310,175 310,220 265,220 "/>
  <polygon fill="#434242" points="335,175 380,175 380,220 335,220 "/>
  <polygon fill="#434242" points="115,175 160,175 160,220 115,220 "/>
  <polygon fill="#434242" points="190,245 235,245 235,290 190,290 "/>
  <polygon fill="#434242" points="265,245 310,245 310,290 265,290 "/>
  <polygon fill="#434242" points="335,245 380,245 380,290 335,290 "/>
  <polygon fill="#434242" points="115,245 160,245 160,290 115,290 "/>
  <polygon fill="#434242" points="190,320 235,320 235,365 190,365 "/>
  <polygon fill="#434242" points="265,320 310,320 310,365 265,365 "/>
  <polygon fill="#434242" points="115,320 160,320 160,365 115,365 "/>
  <polygon fill="#434242" points="190,395 235,395 235,440 190,440 "/>
  <polygon fill="#434242" points="265,395 310,395 310,440 265,440 "/>
  <polygon fill="#434242" points="335,320 380,320 380,440 335,440 "/>
  <polygon fill="#434242" points="115,395 160,395 160,440 115,440 "/>
 </g>
</svg>
