<?xml version="1.0" encoding="UTF-8"?>
<!DOCTYPE svg PUBLIC "-//W3C//DTD SVG 1.1//EN" "http://www.w3.org/Graphics/SVG/1.1/DTD/svg11.dtd">
<!-- Creator: CorelDRAW X6 -->
<svg xmlns="http://www.w3.org/2000/svg" xml:space="preserve" width="100%" height="100%" version="1.1" shape-rendering="geometricPrecision" text-rendering="geometricPrecision" image-rendering="optimizeQuality" fill-rule="evenodd" clip-rule="evenodd"
viewBox="0 0 500 500"
 xmlns:xlink="http://www.w3.org/1999/xlink">
 <g id="Layer_x0020_1">
  <metadata id="CorelCorpID_0Corel-Layer"/>
  <path fill="#FFFFFF" d="M120 60l260 0c6,0 10,4 10,10l0 60c0,6 -4,10 -10,10l-260 0c-6,0 -10,-4 -10,-10l0 -60c0,-6 4,-10 10,-10zm-20 -30l300 0c11,0 20,9 20,20l0 400c0,11 -9,20 -20,20l-300 0c-11,0 -20,-9 -20,-20l0 -400c0,-11 9,-20 20,-20zm90 145l45 0 0 45 -45 0 0 -45zm75 0l45 0 0 45 -45 0 0 -45zm70 0l45 0 0 45 -45 0 0 -45zm-220 0l45 0 0 45 -45 0 0 -45zm75 70l45 0 0 45 -45 0 0 -45zm75 0l45 0 0 45 -45 0 0 -45zm70 0l45 0 0 45 -45 0 0 -45zm-220 0l45 0 0 45 -45 0 0 -45zm75 75l45 0 0 45 -45 0 0 -45zm75 0l45 0 0 45 -45 0 0 -45zm70 0l45 0 0 45 -45 0 0 -45zm-220 0l45 0 0 45 -45 0 0 -45zm75 75l45 0 0 45 -45 0 0 -45zm75 0l45 0 0 45 -45 0 0 -45zm70 0l45 0 0 45 -45 0 0 -45zm-220 0l45 0 0 45 -45 0 0 -45z"/>
 </g>
</svg>
