<?xml version="1.0" encoding="UTF-8"?>
<!DOCTYPE svg PUBLIC "-//W3C//DTD SVG 1.1//EN" "http://www.w3.org/Graphics/SVG/1.1/DTD/svg11.dtd">
<svg xmlns="http://www.w3.org/2000/svg" xml:space="preserve" width="100%" height="100%" version="1.1" style="shape-rendering:geometricPrecision; text-rendering:geometricPrecision; image-rendering:optimizeQuality; fill-rule:evenodd; clip-rule:evenodd"
viewBox="0 0 5000 5000"
 xmlns:xlink="http://www.w3.org/1999/xlink">
 <defs>
  <style type="text/css">
   <![CDATA[
    .str0 {stroke:#434242;stroke-width:50}
    .fil4 {fill:none}
    .fil0 {fill:#434242}
    .fil2 {fill:#FFFFFF}
    .fil1 {fill:url(#id0)}
    .fil3 {fill:url(#id1)}
   ]]>
  </style>
  <linearGradient id="id0" gradientUnits="userSpaceOnUse" x1="2500" y1="1800" x2="2500" y2="850">
   <stop offset="0" style="stop-color:#008BFF"/>
   <stop offset="1" style="stop-color:#00AAFF"/>
  </linearGradient>
  <linearGradient id="id1" gradientUnits="userSpaceOnUse" x1="4075" y1="4139" x2="924" y2="2210">
   <stop offset="0" style="stop-color:#E6E6E6"/>
   <stop offset="1" style="stop-color:#FEFEFE"/>
  </linearGradient>
 </defs>
 <g id="Layer_x0020_1">
  <metadata id="CorelCorpID_0Corel-Layer"/>
  <rect class="fil0" x="500" y="650" width="4000" height="4100" rx="300" ry="300"/>
  <path class="fil1 str0" d="M4300 1800l-3600 0 0 -750c0,-110 90,-200 200,-200l3200 0c110,0 200,90 200,200l0 750z"/>
  <circle class="fil2" cx="3800" cy="1300" r="250"/>
  <path class="fil3 str0" d="M700 1800l3600 0 0 2550c0,110 -90,200 -200,200l-3200 0c-110,0 -200,-90 -200,-200l0 -2550z"/>
  <g>
   <path class="fil4 str0" d="M3800 250c55,0 100,45 100,100l0 950c0,55 -45,100 -100,100 -55,0 -100,-45 -100,-100l0 -950c0,-55 45,-100 100,-100z"/>
   <path id="1" class="fil0" d="M3800 250c55,0 100,45 100,100l0 950c0,55 -45,100 -100,100 -55,0 -100,-45 -100,-100l0 -950c0,-55 45,-100 100,-100z"/>
  </g>
  <rect class="fil2" x="3750" y="400" width="99.98" height="900" rx="50" ry="50"/>
  <circle class="fil2" cx="1300" cy="1300" r="250"/>
  <g>
   <path class="fil4 str0" d="M1300 250c55,0 100,45 100,100l0 950c0,55 -45,100 -100,100 -55,0 -100,-45 -100,-100l0 -950c0,-55 45,-100 100,-100z"/>
   <path id="1" class="fil0" d="M1300 250c55,0 100,45 100,100l0 950c0,55 -45,100 -100,100 -55,0 -100,-45 -100,-100l0 -950c0,-55 45,-100 100,-100z"/>
  </g>
  <rect class="fil2" x="1250" y="400" width="99.98" height="900" rx="50" ry="50"/>
  <path class="fil0" d="M900 4300l700 0 0 -400 -700 0 0 400zm800 0l700 0 0 -400 -700 0 0 400zm900 0l700 0 0 -400 -700 0 0 400zm-1700 -600l700 0 0 -400 -700 0 0 400zm800 0l700 0 0 -400 -700 0 0 400zm900 0l700 0 0 -400 -700 0 0 400zm800 0l700 0 0 -400 -700 0 0 400zm-2500 -600l700 0 0 -400 -700 0 0 400zm800 0l700 0 0 -400 -700 0 0 400zm900 0l700 0 0 -400 -700 0 0 400zm800 0l700 0 0 -400 -700 0 0 400zm-1700 -600l700 0 0 -400 -700 0 0 400zm900 0l700 0 0 -400 -700 0 0 400zm800 0l700 0 0 -400 -700 0 0 400z"/>
 </g>
</svg>
