<?xml version="1.0" encoding="UTF-8"?>
<!DOCTYPE svg PUBLIC "-//W3C//DTD SVG 1.1//EN" "http://www.w3.org/Graphics/SVG/1.1/DTD/svg11.dtd">

<svg xmlns="http://www.w3.org/2000/svg" xml:space="preserve" width="100%" height="100%" version="1.1" style="shape-rendering:geometricPrecision; text-rendering:geometricPrecision; image-rendering:optimizeQuality; fill-rule:evenodd; clip-rule:evenodd"
viewBox="0 0 5000 5000"
 xmlns:xlink="http://www.w3.org/1999/xlink">
 <defs>
  <style type="text/css">
   <![CDATA[
    .str1 {stroke:#434242;stroke-width:100;stroke-linecap:round}
    .str0 {stroke:#434242;stroke-width:200}
    .fil0 {fill:none}
    .fil1 {fill:#434242}
   ]]>
  </style>
 </defs>
 <g id="Layer_x0020_1">
  <metadata id="CorelCorpID_0Corel-Layer"/>
  <rect class="fil0 str0" x="500" y="650" width="4000" height="4100" rx="300" ry="300"/>
  <circle class="fil1" cx="3800" cy="1300" r="250"/>
  <path class="fil1" d="M3800 250c55,0 100,45 100,100l0 950c0,55 -45,100 -100,100 -55,0 -100,-45 -100,-100l0 -950c0,-55 45,-100 100,-100z"/>
  <circle class="fil1" cx="1300" cy="1300" r="250"/>
  <path class="fil1" d="M1300 250c55,0 100,45 100,100l0 950c0,55 -45,100 -100,100 -55,0 -100,-45 -100,-100l0 -950c0,-55 45,-100 100,-100z"/>
  <line class="fil0 str1" x1="800" y1="1800" x2="4200" y2= "1800" />
  <line class="fil0 str1" x1="1000" y1="2600" x2="4000" y2= "2600" />
  <line class="fil0 str1" x1="1000" y1="3200" x2="4000" y2= "3200" />
  <line class="fil0 str1" x1="1000" y1="3800" x2="4000" y2= "3800" />
  <line class="fil0 str1" x1="1653" y1="4294" x2="1653" y2= "2207" />
  <line class="fil0 str1" x1="2500" y1="4300" x2="2500" y2= "2213" />
  <line class="fil0 str1" x1="3350" y1="4300" x2="3350" y2= "2213" />
 </g>
</svg>
