<?xml version="1.0" encoding="UTF-8"?>
<!DOCTYPE svg PUBLIC "-//W3C//DTD SVG 1.1//EN" "http://www.w3.org/Graphics/SVG/1.1/DTD/svg11.dtd">

<svg xmlns="http://www.w3.org/2000/svg" xml:space="preserve" width="100%" height="100%" version="1.1" style="shape-rendering:geometricPrecision; text-rendering:geometricPrecision; image-rendering:optimizeQuality; fill-rule:evenodd; clip-rule:evenodd"
viewBox="0 0 5000 5000"
 xmlns:xlink="http://www.w3.org/1999/xlink">
 <defs>
  <style type="text/css">
   <![CDATA[
    .str2 {stroke:#2B2A29;stroke-width:20}
    .str0 {stroke:#434242;stroke-width:100}
    .str1 {stroke:#FEFEFE;stroke-width:100;stroke-linecap:round}
    .fil5 {fill:none}
    .fil0 {fill:#434242}
    .fil4 {fill:#FFFFFF}
    .fil1 {fill:url(#id0)}
    .fil2 {fill:url(#id1)}
    .fil3 {fill:url(#id2)}
   ]]>
  </style>
  <linearGradient id="id0" gradientUnits="userSpaceOnUse" x1="2499.99" y1="4400" x2="2499.99" y2="1600">
   <stop offset="0" style="stop-color:#474747"/>
   <stop offset="1" style="stop-color:#747474"/>
  </linearGradient>
  <radialGradient id="id1" gradientUnits="objectBoundingBox" cx="50%" cy="50%" r="42%" fx="50%" fy="50%">
   <stop offset="0" style="stop-color:#FFFFFF"/>
   <stop offset="1" style="stop-color:#FFFFFF"/>
  </radialGradient>
  <radialGradient id="id2" gradientUnits="objectBoundingBox" cx="50%" cy="49%" r="38%" fx="50%" fy="49%">
   <stop offset="0" style="stop-color:#00AAFF"/>
   <stop offset="1" style="stop-color:#008BFF"/>
  </radialGradient>
 </defs>
 <g id="Layer_x0020_1">
  <metadata id="CorelCorpID_0Corel-Layer"/>
  <path class="fil0" d="M600 1400l1743 0 257 -600c22,-51 45,-100 100,-100l1200 0c55,0 78,49 100,100l257 600 143 0c110,0 200,90 200,200l0 2800c0,110 -90,200 -200,200l-3800 0c-110,0 -200,-90 -200,-200l0 -2800c0,-110 90,-200 200,-200zm250 -300l600 0c27,0 50,23 50,50l0 50 100 0 0 200 -900 0 0 -200 100 0 0 -50c0,-27 23,-50 50,-50z"/>
  <rect class="fil1" x="600" y="1600" width="3800" height="2800" rx="100" ry="100"/>
  <circle class="fil2" cx="2500" cy="3100" r="1200"/>
  <circle class="fil3 str0" cx="2500" cy="3100" r="800"/>
  <circle class="fil4" cx="4100" cy="1900" r="150"/>
  <path class="fil5 str1" d="M1901 3140c-1,-13 -1,-27 -1,-40 0,-331 269,-600 600,-600"/>
  <rect class="fil4 str2" x="3000" y="900" width="600" height="400" rx="100" ry="100"/>
 </g>
</svg>
