<?xml version="1.0" encoding="UTF-8"?>
<!DOCTYPE svg PUBLIC "-//W3C//DTD SVG 1.1//EN" "http://www.w3.org/Graphics/SVG/1.1/DTD/svg11.dtd">

<svg xmlns="http://www.w3.org/2000/svg" xml:space="preserve" width="100%" height="100%" version="1.1" style="shape-rendering:geometricPrecision; text-rendering:geometricPrecision; image-rendering:optimizeQuality; fill-rule:evenodd; clip-rule:evenodd"
viewBox="0 0 5000 5000"
 xmlns:xlink="http://www.w3.org/1999/xlink">
 <defs>
  <style type="text/css">
   <![CDATA[
    .str0 {stroke:#FFF;stroke-width:100;stroke-linecap:round}
    .fil1 {fill:none}
    .fil0 {fill:#FFF}
   ]]>
  </style>
 </defs>
 <g id="Layer_x0020_1">
  <metadata id="CorelCorpID_0Corel-Layer"/>
  <path class="fil0" d="M600 1400l1743 0 257 -600c22,-51 45,-100 100,-100l1200 0c55,0 78,49 100,100l257 600 143 0c110,0 200,90 200,200l0 2800c0,110 -90,200 -200,200l-3800 0c-110,0 -200,-90 -200,-200l0 -2800c0,-110 90,-200 200,-200zm250 -300l600 0c27,0 50,23 50,50l0 50 100 0 0 200 -900 0 0 -200 100 0 0 -50c0,-27 23,-50 50,-50zm2250 -200l400 0c55,0 100,45 100,100l0 200c0,55 -45,100 -100,100l-400 0c-55,0 -100,-45 -100,-100l0 -200c0,-55 45,-100 100,-100zm-600 1000c663,0 1200,537 1200,1200 0,663 -537,1200 -1200,1200 -663,0 -1200,-537 -1200,-1200 0,-663 537,-1200 1200,-1200zm1600 -150c83,0 150,67 150,150 0,83 -67,150 -150,150 -83,0 -150,-67 -150,-150 0,-83 67,-150 150,-150z"/>
  <circle class="fil0" cx="2500" cy="3100" r="800"/>
  <path class="fil1 str0" d="M1901 3140c-1,-13 -1,-27 -1,-40 0,-331 269,-600 600,-600"/>
 </g>
</svg>
