<?xml version="1.0" encoding="UTF-8"?>
<!DOCTYPE svg PUBLIC "-//W3C//DTD SVG 1.1//EN" "http://www.w3.org/Graphics/SVG/1.1/DTD/svg11.dtd">
<!-- Creator: CorelDRAW X6 -->
<svg xmlns="http://www.w3.org/2000/svg" xml:space="preserve" width="100%" height="100%" version="1.1" shape-rendering="geometricPrecision" text-rendering="geometricPrecision" image-rendering="optimizeQuality" fill-rule="evenodd" clip-rule="evenodd"
viewBox="0 0 500 500"
 xmlns:xlink="http://www.w3.org/1999/xlink">
 <g id="Layer_x0020_1">
  <metadata id="CorelCorpID_0Corel-Layer"/>
  <path fill="none" stroke="#434242" stroke-width="20" d="M76 435l348 0c24,0 43,-20 43,-44l0 -218c0,-33 -54,-42 -98,-43 -8,-1 -13,-4 -16,-12 -14,-37 -23,-65 -60,-63 -29,0 -57,0 -86,0 -37,-2 -46,26 -60,63 -3,7 -11,11 -16,11 -44,0 -98,11 -98,44l0 218c0,24 19,44 43,44z"/>
  <circle fill="none" stroke="#434242" stroke-width="15" cx="250" cy="270" r="105"/>
  <path fill="none" stroke="#434242" stroke-width="20" stroke-linecap="round" d="M185 265c0,-33 27,-60 60,-60"/>
 </g>
</svg>
