<?xml version="1.0" encoding="UTF-8"?>
<!DOCTYPE svg PUBLIC "-//W3C//DTD SVG 1.1//EN" "http://www.w3.org/Graphics/SVG/1.1/DTD/svg11.dtd">
<!-- Creator: CorelDRAW X6 -->
<svg xmlns="http://www.w3.org/2000/svg" xml:space="preserve" width="100%" height="100%" version="1.1" shape-rendering="geometricPrecision" text-rendering="geometricPrecision" image-rendering="optimizeQuality" fill-rule="evenodd" clip-rule="evenodd"
viewBox="0 0 500 500"
 xmlns:xlink="http://www.w3.org/1999/xlink">
 <defs>
   <linearGradient id="id0" gradientUnits="userSpaceOnUse" x1="249.998" y1="362.299" x2="249.998" y2="142.701">
    <stop offset="0" stop-color="#FCFCFD"/>
    <stop offset="1" stop-color="#FFFFFF"/>
   </linearGradient>
 </defs>
 <g id="Layer_x0020_1">
  <metadata id="CorelCorpID_0Corel-Layer"/>
  <path fill="#434242" d="M40 410l420 0 0 -310c0,-5 -5,-10 -10,-10l-400 0c-5,0 -10,4 -10,10l0 310z"/>
  <path fill="url(#id0)" d="M50 390l400 0 0 -285c0,-3 -2,-5 -5,-5l-390 0c-3,0 -5,2 -5,5l0 285z"/>
  <path fill="#0076D8" d="M110 355l60 0 0 15 -25 0 0 20 -10 0 0 -20 -25 0 0 -15zm245 35l10 0 0 -20 25 0 0 -15 -60 0 0 15 25 0 0 20z"/>
 </g>
</svg>
