<?xml version="1.0" encoding="UTF-8"?>
<!DOCTYPE svg PUBLIC "-//W3C//DTD SVG 1.1//EN" "http://www.w3.org/Graphics/SVG/1.1/DTD/svg11.dtd">
<!-- Creator: CorelDRAW X6 -->
<svg xmlns="http://www.w3.org/2000/svg" xml:space="preserve" width="100%" height="100%" version="1.1" shape-rendering="geometricPrecision" text-rendering="geometricPrecision" image-rendering="optimizeQuality" fill-rule="evenodd" clip-rule="evenodd"
viewBox="0 0 500 500"
 xmlns:xlink="http://www.w3.org/1999/xlink">
 <g id="Layer_x0020_1">
  <metadata id="CorelCorpID_0Corel-Layer"/>
  <circle fill="#FFFFFF" stroke="#434242" stroke-width="40" cx="250" cy="250" r="200"/>
  <path fill="#279DFF" d="M250 119c17,0 31,14 31,31 0,17 -14,31 -31,31 -17,0 -31,-14 -31,-31 0,-17 14,-31 31,-31zm29 171l0 100 -58 0 0 -100 -16 0c-3,0 -5,-2 -5,-5l0 -75c0,-6 5,-9 10,-10 27,-7 53,-7 80,0 5,1 10,5 10,10l0 75c0,3 -2,5 -5,5l-16 0z"/>
 </g>
</svg>
