<?xml version="1.0" encoding="UTF-8"?>
<!DOCTYPE svg PUBLIC "-//W3C//DTD SVG 1.1//EN" "http://www.w3.org/Graphics/SVG/1.1/DTD/svg11.dtd">
<!-- Creator: CorelDRAW X6 -->
<svg xmlns="http://www.w3.org/2000/svg" xml:space="preserve" width="100%" height="100%" version="1.1" shape-rendering="geometricPrecision" text-rendering="geometricPrecision" image-rendering="optimizeQuality" fill-rule="evenodd" clip-rule="evenodd"
viewBox="0 0 500 500"
 xmlns:xlink="http://www.w3.org/1999/xlink">
 <g id="Layer_x0020_1">
  <metadata id="CorelCorpID_0Corel-Layer"/>
  <circle fill="none" stroke="#FEFEFE" stroke-width="40" cx="250" cy="250" r="200"/>
  <path fill="#FEFEFE" d="M209 263l36 0c-1,15 -7,27 -17,36 -22,19 -64,17 -85,-4 -21,-22 -21,-68 0,-91 20,-21 63,-22 84,-4 10,8 16,20 17,35l-36 0c-1,-6 -3,-10 -6,-13 -8,-8 -25,-6 -31,3 -8,11 -8,38 0,49 7,10 23,11 32,3 3,-3 5,-8 6,-14zm128 0l36 0c-1,15 -7,27 -17,36 -21,19 -64,17 -84,-4 -22,-22 -22,-68 0,-91 20,-21 62,-22 84,-4 9,8 15,20 16,35l-36 0c-1,-6 -3,-10 -6,-13 -8,-8 -24,-6 -31,3 -7,11 -7,38 1,49 6,10 23,11 31,3 3,-3 5,-8 6,-14z"/>
 </g>
</svg>
