<?xml version="1.0" encoding="UTF-8"?>
<!DOCTYPE svg PUBLIC "-//W3C//DTD SVG 1.1//EN" "http://www.w3.org/Graphics/SVG/1.1/DTD/svg11.dtd">
<!-- Creator: CorelDRAW X6 -->
<svg xmlns="http://www.w3.org/2000/svg" xml:space="preserve" width="100%" height="100%" version="1.1" shape-rendering="geometricPrecision" text-rendering="geometricPrecision" image-rendering="optimizeQuality" fill-rule="evenodd" clip-rule="evenodd"
viewBox="0 0 500 500"
 xmlns:xlink="http://www.w3.org/1999/xlink">
 <g id="Layer_x0020_1">
  <metadata id="CorelCorpID_0Corel-Layer"/>
  <circle fill="#FFFFFF" stroke="#434242" stroke-width="40" cx="250" cy="250" r="200"/>
  <path fill="#279DFF" fill-rule="nonzero" d="M241 221l0 -42c-6,0 -12,2 -15,5 -4,4 -6,8 -6,14 0,5 2,9 5,13 3,4 9,7 16,10zm20 107c7,-1 12,-3 16,-7 4,-4 6,-9 6,-15 0,-6 -2,-11 -5,-16 -4,-4 -10,-7 -17,-11l0 49zm-20 72l0 -31c-25,-1 -44,-7 -57,-19 -12,-13 -19,-31 -19,-55l50 0c0,11 2,19 6,24 5,5 11,8 20,9l0 -55c-25,-8 -43,-17 -54,-29 -12,-11 -17,-25 -17,-42 0,-19 6,-34 19,-45 12,-11 30,-18 52,-19l0 -18 20 0 0 18c22,1 39,6 52,18 12,11 18,27 19,47l-50 0c0,-8 -2,-14 -6,-18 -3,-4 -8,-6 -15,-6l0 49c27,10 46,20 58,31 11,12 16,27 16,45 0,18 -6,33 -20,45 -13,12 -31,19 -54,20l0 31 -20 0z"/>
  <line fill="none" stroke="#434242" stroke-width="60" x1="77" y1="150" x2="423" y2= "350" />
 </g>
</svg>
