<?xml version="1.0" encoding="UTF-8"?>
<!DOCTYPE svg PUBLIC "-//W3C//DTD SVG 1.1//EN" "http://www.w3.org/Graphics/SVG/1.1/DTD/svg11.dtd">
<!-- Creator: CorelDRAW X6 -->
<svg xmlns="http://www.w3.org/2000/svg" xml:space="preserve" width="100%" height="100%" version="1.1" shape-rendering="geometricPrecision" text-rendering="geometricPrecision" image-rendering="optimizeQuality" fill-rule="evenodd" clip-rule="evenodd"
viewBox="0 0 500 500"
 xmlns:xlink="http://www.w3.org/1999/xlink">
 <g id="Layer_x0020_1">
  <metadata id="CorelCorpID_0Corel-Layer"/>
  <circle fill="none" stroke="#434242" stroke-width="40" cx="250" cy="250" r="200"/>
  <path fill="#434242" fill-rule="nonzero" d="M272 139c9,2 17,4 26,8 1,-1 3,-2 5,-3 2,0 4,0 5,0 6,0 11,2 14,5 4,4 5,11 5,20l0 12c0,9 -1,16 -5,20 -3,4 -8,6 -13,6 -5,0 -10,-2 -13,-6 -4,-3 -6,-8 -6,-14 -9,-7 -20,-11 -34,-11 -14,0 -24,3 -30,8 -7,5 -10,10 -10,16l117 100c0,16 -6,30 -17,42 -11,13 -26,21 -47,25l0 23c0,9 -2,16 -5,20 -4,3 -8,5 -14,5 -5,0 -10,-2 -14,-5 -3,-4 -5,-11 -5,-20l0 -23c-10,-2 -19,-6 -29,-10 -6,4 -11,7 -15,7 -6,0 -11,-2 -14,-6 -4,-4 -6,-10 -6,-19l0 -24c0,-9 2,-16 5,-20 4,-4 9,-6 14,-6 5,0 9,2 12,4 3,3 5,6 6,11 2,5 4,9 6,12 4,4 9,7 17,10 8,2 15,4 23,4 14,0 26,-4 35,-11 7,-5 10,-11 10,-19l-117 -100c0,-15 5,-28 15,-39 10,-11 24,-19 41,-22l0 -10c0,-9 2,-15 5,-19 4,-4 8,-6 14,-6 5,0 10,2 14,6 3,4 5,10 5,19l0 10z"/>
  <line fill="none" stroke="#434242" stroke-width="60" x1="77" y1="150" x2="423" y2= "350" />
 </g>
</svg>
