<?xml version="1.0" encoding="UTF-8"?>
<!DOCTYPE svg PUBLIC "-//W3C//DTD SVG 1.1//EN" "http://www.w3.org/Graphics/SVG/1.1/DTD/svg11.dtd">
<!-- Creator: CorelDRAW X6 -->
<svg xmlns="http://www.w3.org/2000/svg" xml:space="preserve" width="100%" height="100%" version="1.1" shape-rendering="geometricPrecision" text-rendering="geometricPrecision" image-rendering="optimizeQuality" fill-rule="evenodd" clip-rule="evenodd"
viewBox="0 0 500 500"
 xmlns:xlink="http://www.w3.org/1999/xlink">
 <g id="Layer_x0020_1">
  <metadata id="CorelCorpID_0Corel-Layer"/>
  <circle fill="none" stroke="#434242" stroke-width="40" cx="250" cy="250" r="200"/>
  <path fill="none" fill-rule="nonzero" stroke="#434242" stroke-width="40" stroke-linecap="round" d="M165 290c4,14 11,26 19,36 17,19 39,28 66,28 27,0 49,-9 66,-28 16,-19 24,-44 24,-76 0,-32 -8,-57 -24,-76 -17,-19 -39,-28 -66,-28 -27,0 -49,9 -66,28 -8,10 -15,22 -19,36l0 20"/>
  <polyline fill="none" stroke="#434242" stroke-width="40" stroke-linecap="round" stroke-linejoin="round" points="131,211 170,249 209,211 "/>
 </g>
</svg>
