<?xml version="1.0" encoding="UTF-8"?>
<!DOCTYPE svg PUBLIC "-//W3C//DTD SVG 1.1//EN" "http://www.w3.org/Graphics/SVG/1.1/DTD/svg11.dtd">
<!-- Creator: CorelDRAW X6 -->
<svg xmlns="http://www.w3.org/2000/svg" xml:space="preserve" width="100%" height="100%" version="1.1" shape-rendering="geometricPrecision" text-rendering="geometricPrecision" image-rendering="optimizeQuality" fill-rule="evenodd" clip-rule="evenodd"
viewBox="0 0 500 500"
 xmlns:xlink="http://www.w3.org/1999/xlink">
 <g id="Layer_x0020_1">
  <metadata id="CorelCorpID_0Corel-Layer"/>
  <path fill="none" stroke="#434242" stroke-width="10" stroke-linecap="round" d="M250 220c17,0 30,13 30,30 0,17 -13,30 -30,30 -17,0 -30,-13 -30,-30 0,-17 13,-30 30,-30zm0 0c17,0 30,13 30,30 0,17 -13,30 -30,30 -17,0 -30,-13 -30,-30 0,-17 13,-30 30,-30zm0 -40c39,0 70,31 70,70 0,39 -31,70 -70,70 -39,0 -70,-31 -70,-70 0,-39 31,-70 70,-70zm71 -1c18,19 29,44 29,71 0,27 -11,52 -29,71m24 -156c22,23 35,53 35,85 0,32 -13,62 -35,85m24 -184c26,26 41,62 41,99 0,37 -15,73 -41,99m-190 -170c-18,19 -29,44 -29,71 0,27 11,52 29,71m-24 -156c-22,23 -35,53 -35,85 0,32 13,62 35,85m-24 -184c-26,26 -41,62 -41,99 0,37 15,73 41,99"/>
  <circle fill="none" stroke="#434242" stroke-width="20" cx="250" cy="250" r="220"/>
 </g>
</svg>
