<?xml version="1.0" encoding="UTF-8"?>
<!DOCTYPE svg PUBLIC "-//W3C//DTD SVG 1.1//EN" "http://www.w3.org/Graphics/SVG/1.1/DTD/svg11.dtd">
<!-- Creator: CorelDRAW X6 -->
<svg xmlns="http://www.w3.org/2000/svg" xml:space="preserve" width="100%" height="100%" version="1.1" shape-rendering="geometricPrecision" text-rendering="geometricPrecision" image-rendering="optimizeQuality" fill-rule="evenodd" clip-rule="evenodd"
viewBox="0 0 500 500"
 xmlns:xlink="http://www.w3.org/1999/xlink">
 <g id="Layer_x0020_1">
  <metadata id="CorelCorpID_0Corel-Layer"/>
  <path fill="#434242" d="M94 94c86,-85 226,-85 312,0 85,86 85,226 0,312 -86,85 -226,85 -312,0 -85,-86 -85,-226 0,-312zm135 135c12,-12 30,-12 42,0 12,12 12,30 0,42 -12,12 -30,12 -42,0 -12,-12 -12,-30 0,-42zm44 -34l53 -130c49,20 88,59 109,108l-130 54c-3,-7 -7,-14 -13,-19 -5,-6 -12,-11 -19,-13zm-46 110l-53 130c-49,-20 -88,-59 -109,-108l130 -54c3,7 7,14 13,19 5,6 12,11 19,13z"/>
 </g>
</svg>
