<?xml version="1.0" encoding="UTF-8"?>
<!DOCTYPE svg PUBLIC "-//W3C//DTD SVG 1.1//EN" "http://www.w3.org/Graphics/SVG/1.1/DTD/svg11.dtd">
<!-- Creator: CorelDRAW X6 -->
<svg xmlns="http://www.w3.org/2000/svg" xml:space="preserve" width="100%" height="100%" version="1.1" shape-rendering="geometricPrecision" text-rendering="geometricPrecision" image-rendering="optimizeQuality" fill-rule="evenodd" clip-rule="evenodd"
viewBox="0 0 500 500"
 xmlns:xlink="http://www.w3.org/1999/xlink">
 <g id="Layer_x0020_1">
  <metadata id="CorelCorpID_0Corel-Layer"/>
  <path fill="#008BFF" d="M250 30c121,0 220,98 220,220 0,122 -99,220 -220,220 -122,0 -220,-98 -220,-220 0,-122 98,-220 220,-220zm0 190c17,0 30,13 30,30 0,17 -13,30 -30,30 -17,0 -30,-13 -30,-30 0,-17 13,-30 30,-30z"/>
  <path fill="#279DFF" d="M229 229l-135 -135c42,-41 98,-64 156,-64l0 190c-8,0 -16,3 -21,9zm42 42l135 135c-42,41 -98,64 -156,64l0 -190c8,0 16,-3 21,-9z"/>
  <path fill="#76C1FF" d="M229 271l-135 135c-41,-42 -64,-98 -64,-156l190 0c0,8 3,16 9,21zm42 -42l135 -135c41,42 64,98 64,156l-190 0c0,-8 -3,-16 -9,-21zm-6 47l95 165c-17,9 -34,17 -53,22l-49 -184c2,-1 5,-2 7,-3zm-30 -52l-95 -165c17,-9 34,-17 53,-22l49 184c-2,1 -5,2 -7,3z"/>
  <path fill="#9DD2FF" d="M237 223l-81 -172c6,-3 13,-6 19,-8l65 179c-1,0 -2,0 -3,1z"/>
  <path fill="#9DD2FF" d="M263 277l81 172c-6,3 -13,6 -19,8l-65 -179c1,0 2,0 3,-1z"/>
  <path fill="#FFFFFF" d="M250 180c39,0 70,31 70,70 0,39 -31,70 -70,70 -39,0 -70,-31 -70,-70 0,-39 31,-70 70,-70zm0 43c15,0 27,12 27,27 0,15 -12,27 -27,27 -15,0 -27,-12 -27,-27 0,-15 12,-27 27,-27z"/>
  <path fill="none" stroke="#434242" stroke-width="10" d="M250 30c121,0 220,98 220,220 0,122 -99,220 -220,220 -122,0 -220,-98 -220,-220 0,-122 98,-220 220,-220zm0 190c17,0 30,13 30,30 0,17 -13,30 -30,30 -17,0 -30,-13 -30,-30 0,-17 13,-30 30,-30z"/>
 </g>
</svg>
