<?xml version="1.0" encoding="UTF-8"?>
<!DOCTYPE svg PUBLIC "-//W3C//DTD SVG 1.1//EN" "http://www.w3.org/Graphics/SVG/1.1/DTD/svg11.dtd">

<svg xmlns="http://www.w3.org/2000/svg" xml:space="preserve" width="100%" height="100%" version="1.1" style="shape-rendering:geometricPrecision; text-rendering:geometricPrecision; image-rendering:optimizeQuality; fill-rule:evenodd; clip-rule:evenodd"
viewBox="0 0 5000 5000"
 xmlns:xlink="http://www.w3.org/1999/xlink">
 <defs>
  <style type="text/css">
   <![CDATA[
    .str1 {stroke:#434242;stroke-width:100}
    .str0 {stroke:#434242;stroke-width:200;stroke-linejoin:round}
    .fil0 {fill:none}
   ]]>
  </style>
 </defs>
 <g id="Layer_x0020_1">
  <metadata id="CorelCorpID_0Corel-Layer"/>
  <polygon class="fil0 str0" points="1439,839 1686,839 1750,601 1988,665 2112,451 2326,575 2500,400 2675,575 2888,451 3012,665 3250,601 3314,839 3561,839 3561,1086 3799,1150 3735,1388 3949,1512 3826,1726 4000,1900 3826,2075 3949,2288 3735,2412 3799,2650 3561,2714 3561,2961 3314,2961 3250,3199 3012,3135 2888,3349 2675,3226 2500,3400 2326,3226 2112,3349 1988,3135 1750,3199 1686,2961 1439,2961 1439,2714 1201,2650 1265,2412 1051,2288 1175,2075 1000,1900 1175,1726 1051,1512 1265,1388 1201,1150 1439,1086 "/>
  <path class="fil0 str1" d="M3200 3191l0 1131c0,50 -50,50 -98,0l-552 -550c-50,-50 -50,-50 -100,0l-550 550c-50,50 -100,50 -100,0l0 -1140"/>
 </g>
</svg>
