<?xml version="1.0" encoding="UTF-8"?>
<!DOCTYPE svg PUBLIC "-//W3C//DTD SVG 1.1//EN" "http://www.w3.org/Graphics/SVG/1.1/DTD/svg11.dtd">

<svg xmlns="http://www.w3.org/2000/svg" xml:space="preserve" width="100%" height="100%" version="1.1" style="shape-rendering:geometricPrecision; text-rendering:geometricPrecision; image-rendering:optimizeQuality; fill-rule:evenodd; clip-rule:evenodd"
viewBox="0 0 500 500"
 xmlns:xlink="http://www.w3.org/1999/xlink">
 <defs>
  <style type="text/css">
   <![CDATA[
    .str1 {stroke:#434242;stroke-width:10;stroke-linejoin:round}
    .str0 {stroke:#434242;stroke-width:20;stroke-linejoin:round}
    .fil2 {fill:none}
    .fil0 {fill:#FFFFFF}
    .fil1 {fill:url(#id0)}
   ]]>
  </style>
  <linearGradient id="id0" gradientUnits="userSpaceOnUse" x1="409.997" y1="190.001" x2="90.003" y2="190.001">
   <stop offset="0" style="stop-color:#008BFF"/>
   <stop offset="1" style="stop-color:#00AAFF"/>
  </linearGradient>
 </defs>
 <g id="Layer_x0020_1">
  <metadata id="CorelCorpID_0Corel-Layer"/>
  <path class="fil0 str0" d="M320 203l0 248c0,5 -5,5 -10,0l-55 -55c-5,-5 -5,-5 -10,0l-55 55c-5,5 -10,5 -10,0l0 -248 140 0z"/>
  <polygon class="fil1 str1" points="137,77 163,77 170,51 195,58 209,35 231,49 250,30 269,49 291,35 305,58 330,51 337,77 363,77 363,103 389,110 382,135 405,149 391,171 410,190 391,209 405,231 382,245 389,270 363,277 363,303 337,303 330,329 305,322 291,345 269,331 250,350 231,331 209,345 195,322 170,329 163,303 137,303 137,277 111,270 118,245 95,231 109,209 90,190 109,171 95,149 118,135 111,110 137,103 "/>
  <circle class="fil2 str1" cx="250" cy="190" r="97"/>
 </g>
</svg>
