<?xml version="1.0" encoding="UTF-8"?>
<!DOCTYPE svg PUBLIC "-//W3C//DTD SVG 1.1//EN" "http://www.w3.org/Graphics/SVG/1.1/DTD/svg11.dtd">
<!-- Creator: CorelDRAW X6 -->
<svg xmlns="http://www.w3.org/2000/svg" xml:space="preserve" width="100%" height="100%" version="1.1" style="shape-rendering:geometricPrecision; text-rendering:geometricPrecision; image-rendering:optimizeQuality; fill-rule:evenodd; clip-rule:evenodd"
viewBox="0 0 500 500"
 xmlns:xlink="http://www.w3.org/1999/xlink">
 <defs>
  <style type="text/css">
   <![CDATA[
    .str0 {stroke:#FFC74E;stroke-width:0.1}
    .str1 {stroke:white;stroke-width:10}
    .fil0 {fill:none}
    .fil1 {fill:#4D4D4D}
    .fil2 {fill:white}
    .fil3 {fill:#4D4D4D;fill-rule:nonzero}
   ]]>
  </style>
 </defs>
 <g id="Layer_x0020_1">
  <metadata id="CorelCorpID_0Corel-Layer"/>
  
  <path class="fil1 str1" d="M212 341c7,31 35,54 68,54l70 0c6,0 6,2 9,3l48 41c3,3 6,4 6,0l-6 -41c-1,-3 5,-4 10,-5 30,-8 53,-35 53,-68l0 -31c0,-24 -12,-45 -30,-58 -3,58 -52,104 -110,104l-110 0c-4,0 -6,0 -8,1z"/>
  <path class="fil2" d="M140 70l190 0c61,0 110,50 110,110l0 50c0,61 -49,110 -110,110l-110 0c-10,0 -10,2 -15,5l-75 65c-5,4 -10,5 -10,0l10 -65c2,-5 -9,-6 -17,-8 -47,-12 -83,-56 -83,-107l0 -50c0,-60 50,-110 110,-110zm-40 120l287 0 0 20 -287 0 0 -20zm0 50l180 0 0 20 -180 0 0 -20zm0 -100l230 0 0 20 -230 0 0 -20z"/>
  <path class="fil3" d="M100 190l287 0 0 20 -287 0 0 -20zm0 50l180 0 0 20 -180 0 0 -20zm0 -100l230 0 0 20 -230 0 0 -20z"/>
 </g>
</svg>
