<?xml version="1.0" encoding="UTF-8"?>
<!DOCTYPE svg PUBLIC "-//W3C//DTD SVG 1.1//EN" "http://www.w3.org/Graphics/SVG/1.1/DTD/svg11.dtd">
<!-- Creator: CorelDRAW X6 -->
<svg xmlns="http://www.w3.org/2000/svg" xml:space="preserve" width="100%" height="100%" version="1.1" style="shape-rendering:geometricPrecision; text-rendering:geometricPrecision; image-rendering:optimizeQuality; fill-rule:evenodd; clip-rule:evenodd"
viewBox="0 0 500 500"
 xmlns:xlink="http://www.w3.org/1999/xlink">
 <defs>
  <style type="text/css">
   <![CDATA[
    .str0 {stroke:#FFC74E;stroke-width:0.1}
    .str1 {stroke:#434242;stroke-width:20}
    .fil0 {fill:none}
    .fil1 {fill:#434242}
   ]]>
  </style>
 </defs>
 <g id="Layer_x0020_1">
  <metadata id="CorelCorpID_0Corel-Layer"/>
  
  <path class="fil1" d="M390 190l-139 0c-45,0 -81,37 -81,81l0 36c0,45 36,81 81,81l80 0c7,0 7,2 11,4l55 47c4,3 7,4 7,0l-7 -47c-1,-4 7,-5 12,-7 35,-8 61,-40 61,-78l0 -36c0,-44 -36,-81 -80,-81zm-175 86l48 -48c2,-3 4,-5 9,-5 5,0 10,5 10,10l0 23c0,3 2,5 4,5l53 0c45,0 81,37 81,81 0,5 -5,5 -5,0 0,-18 -15,-33 -33,-33 -32,0 -64,0 -96,0 -2,0 -4,2 -4,5l0 24c0,4 -5,9 -10,9 -5,0 -7,-2 -9,-5l-48 -47c-7,-7 -7,-13 0,-19z"/>
  <path class="fil0 str1" d="M191 357l-61 53c-5,4 -10,5 -10,0l10 -65c2,-5 -9,-6 -17,-8 -47,-12 -83,-56 -83,-107l0 -50c0,-60 50,-110 110,-110l190 0c61,0 110,50 110,110l0 44"/>
 </g>
</svg>
