<?xml version="1.0" encoding="UTF-8"?>
<!DOCTYPE svg PUBLIC "-//W3C//DTD SVG 1.1//EN" "http://www.w3.org/Graphics/SVG/1.1/DTD/svg11.dtd">
<!-- Creator: CorelDRAW X6 -->
<svg xmlns="http://www.w3.org/2000/svg" xml:space="preserve" width="100%" height="100%" version="1.1" style="shape-rendering:geometricPrecision; text-rendering:geometricPrecision; image-rendering:optimizeQuality; fill-rule:evenodd; clip-rule:evenodd"
viewBox="0 0 500 500"
 xmlns:xlink="http://www.w3.org/1999/xlink">
 <defs>
  <style type="text/css">
   <![CDATA[
    .str2 {stroke:#FFC74E;stroke-width:0.1}
    .str0 {stroke:#434242;stroke-width:10}
    .str1 {stroke:#434242;stroke-width:20;stroke-linecap:round}
    .fil2 {fill:none}
    .fil0 {fill:url(#id0)}
    .fil1 {fill:url(#id1)}
   ]]>
  </style>
  <linearGradient id="id0" gradientUnits="userSpaceOnUse" x1="340.049" y1="223.826" x2="340.049" y2="442.612">
   <stop offset="0" style="stop-color:#008BFF"/>
   <stop offset="1" style="stop-color:#00AAFF"/>
  </linearGradient>
  <linearGradient id="id1" gradientUnits="userSpaceOnUse" x1="235.049" y1="111.449" x2="235.049" y2="373.651">
   <stop offset="0" style="stop-color:#FCFCFD"/>
   <stop offset="1" style="stop-color:#EDEDED"/>
  </linearGradient>
 </defs>
 <g id="Layer_x0020_1">
  <metadata id="CorelCorpID_0Corel-Layer"/>
  <path class="fil0 str0" d="M400 224l-120 0c-39,0 -70,31 -70,70l0 31c0,39 31,70 70,70l70 0c6,0 6,2 9,3l48 41c3,3 6,4 6,0l-6 -41c-1,-3 5,-4 10,-5 30,-8 53,-35 53,-68l0 -31c0,-39 -31,-70 -70,-70z"/>
  <path class="fil1 str0" d="M140 70l190 0c61,0 110,50 110,110l0 50c0,61 -49,110 -110,110l-110 0c-10,0 -10,2 -15,5l-75 65c-5,4 -10,5 -10,0l10 -65c2,-5 -9,-6 -17,-8 -47,-12 -83,-56 -83,-107l0 -50c0,-60 50,-110 110,-110z"/>
  <path class="fil2 str1" d="M100 150l230 0m-230 100l180 0m-180 -50l287 0"/>
 </g>
</svg>
