<?xml version="1.0" encoding="UTF-8"?>
<!DOCTYPE svg PUBLIC "-//W3C//DTD SVG 1.1//EN" "http://www.w3.org/Graphics/SVG/1.1/DTD/svg11.dtd">
<!-- Creator: CorelDRAW X6 -->
<svg xmlns="http://www.w3.org/2000/svg" xml:space="preserve" width="100%" height="100%" version="1.1" style="shape-rendering:geometricPrecision; text-rendering:geometricPrecision; image-rendering:optimizeQuality; fill-rule:evenodd; clip-rule:evenodd"
viewBox="0 0 500 500"
 xmlns:xlink="http://www.w3.org/1999/xlink">
 <defs>
  <style type="text/css">
   <![CDATA[
    .str0 {stroke:#FFC74E;stroke-width:0.1}
    .str2 {stroke:#434242;stroke-width:15}
    .str1 {stroke:#434242;stroke-width:20}
    .str3 {stroke:#434242;stroke-width:20;stroke-linecap:round}
    .str4 {stroke:#434242;stroke-width:30;stroke-linecap:round}
    .fil0 {fill:none}
   ]]>
  </style>
 </defs>
 <g id="Layer_x0020_1">
  <metadata id="CorelCorpID_0Corel-Layer"/>
  
  <path class="fil0 str1" d="M390 190l-139 0c-45,0 -81,37 -81,81l0 36c0,45 36,81 81,81l80 0c7,0 7,2 11,4l55 47c4,3 7,4 7,0l-7 -47c-1,-4 7,-5 12,-7 35,-8 61,-40 61,-78l0 -36c0,-44 -36,-81 -80,-81z"/>
  <path class="fil0 str2" d="M189 359l-59 51c-5,4 -10,5 -10,0l10 -65c2,-5 -9,-6 -17,-8 -47,-12 -83,-56 -83,-107l0 -50c0,-60 50,-110 110,-110l190 0c61,0 110,50 110,110l0 28"/>
  <path class="fil0 str3" d="M405 340c0,-25 -17,-55 -55,-55l-120 0"/>
  <path class="fil0 str4" d="M276 233l-43 43c-4,5 -4,13 0,18l43 43"/>
 </g>
</svg>
