<?xml version="1.0" encoding="UTF-8"?>
<!DOCTYPE svg PUBLIC "-//W3C//DTD SVG 1.1//EN" "http://www.w3.org/Graphics/SVG/1.1/DTD/svg11.dtd">
<!-- Creator: CorelDRAW X6 -->
<svg xmlns="http://www.w3.org/2000/svg" xml:space="preserve" width="100%" height="100%" version="1.1" style="shape-rendering:geometricPrecision; text-rendering:geometricPrecision; image-rendering:optimizeQuality; fill-rule:evenodd; clip-rule:evenodd"
viewBox="0 0 500 500"
 xmlns:xlink="http://www.w3.org/1999/xlink">
 <defs>
  <style type="text/css">
   <![CDATA[
    .str0 {stroke:#FFC74E;stroke-width:0.1}
    .str1 {stroke:#434242;stroke-width:10}
    .fil0 {fill:none}
    .fil3 {fill:#F3F3F4}
    .fil1 {fill:url(#id0)}
    .fil2 {fill:url(#id1)}
   ]]>
  </style>
  <linearGradient id="id0" gradientUnits="userSpaceOnUse" x1="235.049" y1="128.699" x2="235.049" y2="356.401">
   <stop offset="0" style="stop-color:#FCFCFD"/>
   <stop offset="1" style="stop-color:#EDEDED"/>
  </linearGradient>
  <radialGradient id="id1" gradientUnits="objectBoundingBox" cx="51%" cy="39.9999%" r="33.0001%" fx="51%" fy="39.9999%">
   <stop offset="0" style="stop-color:#00AAFF"/>
   <stop offset="1" style="stop-color:#008BFF"/>
  </radialGradient>
 </defs>
 <g id="Layer_x0020_1">
  <metadata id="CorelCorpID_0Corel-Layer"/>
  
  <path class="fil1 str1" d="M140 70l190 0c61,0 110,50 110,110l0 50c0,61 -49,110 -110,110l-110 0c-10,0 -10,2 -15,5l-75 65c-5,4 -10,5 -10,0l10 -65c2,-5 -9,-6 -17,-8 -47,-12 -83,-56 -83,-107l0 -50c0,-60 50,-110 110,-110z"/>
  <path class="fil2 str1" d="M390 190l-139 0c-45,0 -81,37 -81,81l0 36c0,45 36,81 81,81l80 0c7,0 7,2 11,4l55 47c4,3 7,4 7,0l-7 -47c-1,-4 7,-5 12,-7 35,-8 61,-40 61,-78l0 -36c0,-44 -36,-81 -80,-81z"/>
  <path class="fil3" d="M215 276l48 -48c2,-3 4,-5 9,-5 5,0 10,5 10,10l0 23c0,3 2,5 4,5l53 0c45,0 81,37 81,81 0,5 -5,5 -5,0 0,-18 -15,-33 -33,-33 -32,0 -64,0 -96,0 -2,0 -4,2 -4,5l0 24c0,4 -5,9 -10,9 -5,0 -7,-2 -9,-5l-48 -47c-7,-7 -7,-13 0,-19z"/>
 </g>
</svg>
