<?xml version="1.0" encoding="UTF-8"?>
<!DOCTYPE svg PUBLIC "-//W3C//DTD SVG 1.1//EN" "http://www.w3.org/Graphics/SVG/1.1/DTD/svg11.dtd">
<!-- Creator: CorelDRAW X6 -->
<svg xmlns="http://www.w3.org/2000/svg" xml:space="preserve" width="100%" height="100%" version="1.1" style="shape-rendering:geometricPrecision; text-rendering:geometricPrecision; image-rendering:optimizeQuality; fill-rule:evenodd; clip-rule:evenodd"
viewBox="0 0 500 500"
 xmlns:xlink="http://www.w3.org/1999/xlink">
 <defs>
  <style type="text/css">
   <![CDATA[
    .str0 {stroke:#FFC74E;stroke-width:0.1}
    .str2 {stroke:#434242;stroke-width:15;stroke-linecap:round}
    .str3 {stroke:#434242;stroke-width:20}
    .str1 {stroke:#434242;stroke-width:20;stroke-linecap:round}
    .fil0 {fill:none}
   ]]>
  </style>
 </defs>
 <g id="Layer_x0020_1">
  <metadata id="CorelCorpID_0Corel-Layer"/>
  
  <path class="fil0 str1" d="M100 200l287 0m-287 50l180 0m-180 -100l230 0"/>
  <path class="fil0 str2" d="M212 341c7,31 35,54 68,54l70 0c6,0 6,2 9,3l48 41c3,3 6,4 6,0l-6 -41c-1,-3 5,-4 10,-5 30,-8 53,-35 53,-68l0 -31c0,-24 -12,-45 -30,-58"/>
  <path class="fil0 str3" d="M140 70l190 0c61,0 110,50 110,110l0 50c0,61 -49,110 -110,110l-110 0c-10,0 -10,2 -15,5l-75 65c-5,4 -10,5 -10,0l10 -65c2,-5 -9,-6 -17,-8 -47,-12 -83,-56 -83,-107l0 -50c0,-60 50,-110 110,-110z"/>
 </g>
</svg>
