<?xml version="1.0" encoding="UTF-8"?>
<!DOCTYPE svg PUBLIC "-//W3C//DTD SVG 1.1//EN" "http://www.w3.org/Graphics/SVG/1.1/DTD/svg11.dtd">

<svg xmlns="http://www.w3.org/2000/svg" xml:space="preserve" width="100%" height="100%" version="1.1" style="shape-rendering:geometricPrecision; text-rendering:geometricPrecision; image-rendering:optimizeQuality; fill-rule:evenodd; clip-rule:evenodd"
viewBox="0 0 5000 5000"
 xmlns:xlink="http://www.w3.org/1999/xlink">
 <defs>
  <style type="text/css">
   <![CDATA[
    .str0 {stroke:#434242;stroke-width:200}
    .fil0 {fill:none}
    .fil1 {fill:#434242}
   ]]>
  </style>
 </defs>
 <g id="Layer_x0020_1">
  <metadata id="CorelCorpID_0Corel-Layer"/>
  <rect class="fil0 str0" x="300" y="300" width="4400" height="4400" rx="400" ry="400"/>
  <path class="fil1" d="M4048 1167l309 308c57,56 57,149 0,205l-2167 2153c-56,56 -149,56 -206,0 -413,-410 -929,-923 -1341,-1333 -57,-56 -57,-149 0,-205l309 -308c57,-56 150,-56 207,0 275,274 550,547 825,821 52,51 155,51 206,0l1651 -1641c57,-56 150,-56 207,0z"/>
 </g>
</svg>
