<?xml version="1.0" encoding="UTF-8"?>
<!DOCTYPE svg PUBLIC "-//W3C//DTD SVG 1.1//EN" "http://www.w3.org/Graphics/SVG/1.1/DTD/svg11.dtd">

<svg xmlns="http://www.w3.org/2000/svg" xml:space="preserve" width="100%" height="100%" version="1.1" style="shape-rendering:geometricPrecision; text-rendering:geometricPrecision; image-rendering:optimizeQuality; fill-rule:evenodd; clip-rule:evenodd"
viewBox="0 0 5000 5000"
 xmlns:xlink="http://www.w3.org/1999/xlink">
 <defs>
  <style type="text/css">
   <![CDATA[
    .str0 {stroke:#434242;stroke-width:100}
    .fil0 {fill:url(#id0)}
    .fil1 {fill:url(#id1)}
   ]]>
  </style>
  <radialGradient id="id0" gradientUnits="objectBoundingBox" cx="48%" cy="50%" r="50%" fx="48%" fy="50%">
   <stop offset="0" style="stop-color:#00AAFF"/>
   <stop offset="1" style="stop-color:#008BFF"/>
  </radialGradient>
  <radialGradient id="id1" gradientUnits="objectBoundingBox" cx="50%" cy="49.9999%" r="38.0001%" fx="50%" fy="49.9999%">
   <stop offset="0" style="stop-color:#FFFFFF"/>
   <stop offset="1" style="stop-color:#FCFCFD"/>
  </radialGradient>
 </defs>
 <g id="Layer_x0020_1">
  <metadata id="CorelCorpID_0Corel-Layer"/>
  <path class="fil0 str0" d="M300 2500c0,1215 985,2200 2200,2200 1215,0 2200,-985 2200,-2200 0,-1215 -985,-2200 -2200,-2200 -1215,0 -2200,985 -2200,2200z"/>
  <path class="fil1 str0" d="M2300 4199l-1000 -1000c-50,-50 -100,-100 -100,-200 0,-100 100,-200 200,-200l500 0c50,0 100,-50 100,-100l0 -1900c0,-50 50,-100 100,-100l800 0c50,0 100,50 100,100l0 1900c0,50 50,100 100,100l500 0c100,0 200,100 200,200 0,100 -50,150 -100,200l-1000 1000c-135,135 -265,135 -400,0z"/>
 </g>
</svg>
