<?xml version="1.0" encoding="UTF-8"?>
<!DOCTYPE svg PUBLIC "-//W3C//DTD SVG 1.1//EN" "http://www.w3.org/Graphics/SVG/1.1/DTD/svg11.dtd">

<svg xmlns="http://www.w3.org/2000/svg" xml:space="preserve" width="100%" height="100%" version="1.1" style="shape-rendering:geometricPrecision; text-rendering:geometricPrecision; image-rendering:optimizeQuality; fill-rule:evenodd; clip-rule:evenodd"
viewBox="0 0 5000 5000"
 xmlns:xlink="http://www.w3.org/1999/xlink">
 <defs>
  <style type="text/css">
   <![CDATA[
    .str0 {stroke:#434242;stroke-width:100}
    .fil0 {fill:url(#id0)}
    .fil1 {fill:url(#id1)}
   ]]>
  </style>
  <radialGradient id="id0" gradientUnits="objectBoundingBox" cx="50%" cy="48%" r="50%" fx="50%" fy="48%">
   <stop offset="0" style="stop-color:#00AAFF"/>
   <stop offset="1" style="stop-color:#008BFF"/>
  </radialGradient>
  <radialGradient id="id1" gradientUnits="objectBoundingBox" cx="50.0001%" cy="50%" r="38%" fx="50.0001%" fy="50%">
   <stop offset="0" style="stop-color:#FFFFFF"/>
   <stop offset="1" style="stop-color:#FCFCFD"/>
  </radialGradient>
 </defs>
 <g id="Layer_x0020_1">
  <metadata id="CorelCorpID_0Corel-Layer"/>
  <circle class="fil0 str0" cx="2500" cy="2500" r="2200"/>
  <path class="fil1 str0" d="M801 2300l1000 -1000c50,-50 100,-100 200,-100 100,0 200,100 200,200l0 500c0,50 50,100 100,100l1900 0c50,0 100,50 100,100l0 800c0,50 -50,100 -100,100l-1900 0c-50,0 -100,50 -100,100l0 500c0,100 -100,200 -200,200 -100,0 -150,-50 -200,-100l-1000 -1000c-135,-135 -135,-265 0,-400z"/>
 </g>
</svg>
