<?xml version="1.0" encoding="UTF-8"?>
<!DOCTYPE svg PUBLIC "-//W3C//DTD SVG 1.1//EN" "http://www.w3.org/Graphics/SVG/1.1/DTD/svg11.dtd">

<svg xmlns="http://www.w3.org/2000/svg" xml:space="preserve" width="100%" height="100%" version="1.1" style="shape-rendering:geometricPrecision; text-rendering:geometricPrecision; image-rendering:optimizeQuality; fill-rule:evenodd; clip-rule:evenodd"
viewBox="0 0 5000 5000"
 xmlns:xlink="http://www.w3.org/1999/xlink">
 <defs>
  <style type="text/css">
   <![CDATA[
    .fil0 {fill:#FFFFFF}
   ]]>
  </style>
 </defs>
 <g id="Layer_x0020_1">
  <metadata id="CorelCorpID_0Corel-Layer"/>
  <path class="fil0" d="M300 2500c0,1215 985,2200 2200,2200 1215,0 2200,-985 2200,-2200 0,-1215 -985,-2200 -2200,-2200 -1215,0 -2200,985 -2200,2200zm2000 1699l-1000 -1000c-50,-50 -100,-100 -100,-200 0,-100 100,-200 200,-200l500 0c50,0 100,-50 100,-100l0 -1900c0,-50 50,-100 100,-100l800 0c50,0 100,50 100,100l0 1900c0,50 50,100 100,100l500 0c100,0 200,100 200,200 0,100 -50,150 -100,200l-1000 1000c-135,135 -265,135 -400,0z"/>
 </g>
</svg>
