<?xml version="1.0" encoding="UTF-8"?>
<!DOCTYPE svg PUBLIC "-//W3C//DTD SVG 1.1//EN" "http://www.w3.org/Graphics/SVG/1.1/DTD/svg11.dtd">
<!-- Creator: CorelDRAW X6 -->
<svg xmlns="http://www.w3.org/2000/svg" xml:space="preserve" width="100%" height="100%" version="1.1" style="shape-rendering:geometricPrecision; text-rendering:geometricPrecision; image-rendering:optimizeQuality; fill-rule:evenodd; clip-rule:evenodd"
viewBox="0 0 500 500"
 xmlns:xlink="http://www.w3.org/1999/xlink">
 <defs>
  <style type="text/css">
   <![CDATA[
    .str0 {stroke:red;stroke-width:0.1}
    .str1 {stroke:#333333;stroke-width:25;stroke-linejoin:round}
    .fil0 {fill:none}
    .fil1 {fill:#333333}
   ]]>
  </style>
 </defs>
 <g id="Layer_x0020_1">
  <metadata id="CorelCorpID_0Corel-Layer"/>

  <path class="fil1" d="M262 218c-9,0 -16,7 -16,16 0,9 7,16 16,16 9,0 16,-7 16,-16 0,-9 -7,-16 -16,-16zm0 -22c-21,0 -38,17 -38,38 0,21 17,39 38,39 21,0 39,-18 39,-39 0,-21 -18,-38 -39,-38zm0 -11c-27,0 -49,22 -49,49 0,27 22,49 49,49 27,0 49,-22 49,-49 0,-27 -22,-49 -49,-49zm37 109l18 13c1,1 3,1 4,0l14 -14c1,-1 1,-3 0,-4l-13 -18c4,-7 6,-13 8,-20l22 -4c2,-1 3,-2 3,-3l0 -20c0,-1 -1,-2 -3,-3l-22 -3c-2,-8 -4,-14 -8,-20l13 -19c1,-1 1,-3 0,-4l-14 -14c-1,-1 -3,-1 -4,0l-19 13c-6,-3 -12,-6 -19,-8l-4 -22c-1,-2 -2,-3 -3,-3l-20 0c-1,0 -2,1 -3,3l-3 22c-8,2 -14,5 -20,8l-19 -13c-1,-1 -3,-1 -4,0l-14 14c-1,1 -1,3 0,4l13 19c-3,6 -6,12 -8,20l-22 3c-2,1 -3,2 -3,3l0 20c0,1 1,2 3,3l22 4c2,7 4,13 8,20l-13 18c-1,1 -1,3 0,4l14 14c1,1 3,1 4,0l18 -13c7,4 13,7 21,8l3 22c1,2 2,3 3,3l20 0c1,0 2,-1 3,-3l4 -22c7,-1 14,-4 20,-8z"/>
  <path class="fil0 str1" d="M96 224c1,0 1,0 2,0 -1,-6 -2,-12 -2,-18 0,-35 28,-63 63,-63 4,0 8,0 12,1 12,-42 51,-72 97,-72 52,0 95,40 100,91 2,0 4,0 6,0 53,0 96,43 96,96 0,53 -43,96 -96,96 -91,0 -222,0 -278,0 -37,0 -66,-29 -66,-66 0,-36 29,-65 66,-65z"/>
 </g>
</svg>
