<?xml version="1.0" encoding="UTF-8"?>
<!DOCTYPE svg PUBLIC "-//W3C//DTD SVG 1.1//EN" "http://www.w3.org/Graphics/SVG/1.1/DTD/svg11.dtd">
<!-- Creator: CorelDRAW X6 -->
<svg xmlns="http://www.w3.org/2000/svg" xml:space="preserve" width="100%" height="100%" version="1.1" style="shape-rendering:geometricPrecision; text-rendering:geometricPrecision; image-rendering:optimizeQuality; fill-rule:evenodd; clip-rule:evenodd"
viewBox="0 0 500 500"
 xmlns:xlink="http://www.w3.org/1999/xlink">
 <defs>
  <style type="text/css">
   <![CDATA[
    .str1 {stroke:red;stroke-width:0.1}
    .str2 {stroke:#434242;stroke-width:10;stroke-linejoin:round}
    .str0 {stroke:#1A1A1A;stroke-width:15;stroke-linejoin:round}
    .fil1 {fill:none}
    .fil0 {fill:url(#id0)}
    .fil2 {fill:url(#id1)}
   ]]>
  </style>
  <linearGradient id="id0" gradientUnits="userSpaceOnUse" x1="250.045" y1="355.065" x2="250.045" y2="71.845">
   <stop offset="0" style="stop-color:#E2E3E3"/>
   <stop offset="1" style="stop-color:white"/>
  </linearGradient>
  <linearGradient id="id1" gradientUnits="userSpaceOnUse" x1="325.05" y1="325.05" x2="175.05" y2="175.05">
   <stop offset="0" style="stop-color:#008BFF"/>
   <stop offset="1" style="stop-color:#00AAFF"/>
  </linearGradient>
 </defs>
 <g id="Layer_x0020_1">
  <metadata id="CorelCorpID_0Corel-Layer"/>
  <path class="fil0 str0" d="M96 224c1,0 1,0 2,0 -1,-6 -2,-12 -2,-18 0,-35 28,-63 63,-63 4,0 8,0 12,1 12,-42 51,-72 97,-72 52,0 95,40 100,91 2,0 4,0 6,0 53,0 96,43 96,96 0,53 -43,96 -96,96 -91,0 -222,0 -278,0 -37,0 -66,-29 -66,-66 0,-36 29,-65 66,-65z"/>
  <path class="fil2 str2" d="M323 213l-37 37 37 37c3,3 3,6 0,9l-27 27c-3,3 -6,3 -9,0l-37 -37 -37 37c-2,3 -6,3 -9,0l-27 -27c-3,-3 -3,-6 0,-9l37 -37 -37 -37c-3,-2 -3,-6 0,-9l27 -27c3,-3 7,-3 9,0l37 37 37 -37c3,-3 6,-3 9,0l27 27c3,3 3,7 0,9z"/>
 </g>
</svg>
