<?xml version="1.0" encoding="UTF-8"?>
<!DOCTYPE svg PUBLIC "-//W3C//DTD SVG 1.1//EN" "http://www.w3.org/Graphics/SVG/1.1/DTD/svg11.dtd">
<!-- Creator: CorelDRAW X6 -->
<svg xmlns="http://www.w3.org/2000/svg" xml:space="preserve" width="100%" height="100%" version="1.1" style="shape-rendering:geometricPrecision; text-rendering:geometricPrecision; image-rendering:optimizeQuality; fill-rule:evenodd; clip-rule:evenodd"
viewBox="0 0 500 500"
 xmlns:xlink="http://www.w3.org/1999/xlink">
 <defs>
  <style type="text/css">
   <![CDATA[
    .str3 {stroke:red;stroke-width:0.1}
    .str0 {stroke:#333333;stroke-width:25;stroke-linecap:round;stroke-linejoin:round}
    .str2 {stroke:#434242;stroke-width:30;stroke-linecap:round}
    .str1 {stroke:#434242;stroke-width:30;stroke-linecap:round}
    .fil0 {fill:none}
   ]]>
  </style>
 </defs>
 <g id="Layer_x0020_1">
  <metadata id="CorelCorpID_0Corel-Layer"/>
  <path class="fil0 str0" d="M96 224c1,0 1,0 2,0 -1,-6 -2,-12 -2,-18 0,-35 28,-63 63,-63 4,0 8,0 12,1 12,-42 51,-72 97,-72 52,0 95,40 100,91 2,0 4,0 6,0 53,0 96,43 96,96 0,53 -43,96 -96,96 -91,0 -222,0 -278,0 -37,0 -66,-29 -66,-66 0,-36 29,-65 66,-65zm109 246l120 0"/>
  <path class="fil0 str1" d="M200 387l53 53c4,4 7,6 12,6 6,0 9,-3 11,-6l54 -53"/>
  <line class="fil0 str2" x1="265" y1="446" x2="265" y2= "210" />
  
 </g>
</svg>
