<?xml version="1.0" encoding="UTF-8"?>
<!DOCTYPE svg PUBLIC "-//W3C//DTD SVG 1.1//EN" "http://www.w3.org/Graphics/SVG/1.1/DTD/svg11.dtd">
<!-- Creator: CorelDRAW X6 -->
<svg xmlns="http://www.w3.org/2000/svg" xml:space="preserve" width="100%" height="100%" version="1.1" style="shape-rendering:geometricPrecision; text-rendering:geometricPrecision; image-rendering:optimizeQuality; fill-rule:evenodd; clip-rule:evenodd"
viewBox="0 0 500 500"
 xmlns:xlink="http://www.w3.org/1999/xlink">
 <defs>
  <style type="text/css">
   <![CDATA[
    .str3 {stroke:red;stroke-width:0.1}
    .str2 {stroke:#434242;stroke-width:10;stroke-linejoin:round}
    .str1 {stroke:#434242;stroke-width:15;stroke-linejoin:round}
    .str0 {stroke:#333333;stroke-width:25;stroke-linejoin:round}
    .fil0 {fill:none}
   ]]>
  </style>
 </defs>
 <g id="Layer_x0020_1">
  <metadata id="CorelCorpID_0Corel-Layer"/>
  <path class="fil0 str0" d="M96 224c1,0 1,0 2,0 -1,-6 -2,-12 -2,-18 0,-35 28,-63 63,-63 4,0 8,0 12,1 12,-42 51,-72 97,-72 52,0 95,40 100,91 2,0 4,0 6,0 53,0 96,43 96,96 0,53 -43,96 -96,96 -91,0 -222,0 -278,0 -37,0 -66,-29 -66,-66 0,-36 29,-65 66,-65z"/>
  <path class="fil0 str1" d="M284 294l17 12c2,1 3,1 4,0l13 -13c1,-1 1,-2 0,-4l-12 -17c4,-5 6,-12 8,-18l21 -4c1,0 2,-1 2,-3l0 -18c0,-2 -1,-3 -2,-3l-21 -3c-2,-7 -4,-13 -8,-19l12 -17c1,-2 1,-3 0,-4l-13 -13c-1,-1 -2,-1 -4,0l-17 12c-5,-4 -12,-6 -18,-8l-4 -21c0,-1 -1,-2 -3,-2l-18 0c-2,0 -3,1 -3,2l-3 21c-7,2 -13,4 -19,8l-17 -12c-2,-1 -3,-1 -4,0l-13 13c-1,1 -1,2 0,4l12 17c-4,6 -6,12 -8,19l-21 3c-1,0 -2,1 -2,3l0 18c0,2 1,3 2,3l21 4c2,6 4,13 8,18l-12 17c-1,2 -1,3 0,4l13 13c1,1 2,1 4,0l17 -12c5,4 12,7 19,8l3 21c0,1 1,2 3,2l18 0c2,0 3,-1 3,-2l4 -21c6,-1 13,-4 18,-8z"/>
  <path class="fil0 str2" d="M250 217c-11,0 -21,10 -21,21 0,12 10,21 21,21 12,0 21,-9 21,-21 0,-11 -9,-21 -21,-21z"/>
  <path class="fil0 str2" d="M219 207c8,-8 19,-13 31,-13 12,0 23,5 31,13 8,8 13,19 13,31 0,12 -5,23 -13,31 -8,8 -19,13 -31,13 -12,0 -23,-5 -31,-13 -8,-8 -13,-19 -13,-31 0,-12 5,-23 13,-31z"/>
  
 </g>
</svg>
