<?xml version="1.0" encoding="UTF-8"?>
<!DOCTYPE svg PUBLIC "-//W3C//DTD SVG 1.1//EN" "http://www.w3.org/Graphics/SVG/1.1/DTD/svg11.dtd">
<!-- Creator: CorelDRAW X6 -->
<svg xmlns="http://www.w3.org/2000/svg" xml:space="preserve" width="100%" height="100%" version="1.1" style="shape-rendering:geometricPrecision; text-rendering:geometricPrecision; image-rendering:optimizeQuality; fill-rule:evenodd; clip-rule:evenodd"
viewBox="0 0 500 500"
 xmlns:xlink="http://www.w3.org/1999/xlink">
 <defs>
  <style type="text/css">
   <![CDATA[
    .str0 {stroke:red;stroke-width:0.1}
    .str2 {stroke:#333333;stroke-width:10}
    .str1 {stroke:#1A1A1A;stroke-width:15;stroke-linejoin:round}
    .fil0 {fill:none}
    .fil1 {fill:url(#id0)}
    .fil2 {fill:url(#id1)}
   ]]>
  </style>
  <linearGradient id="id0" gradientUnits="userSpaceOnUse" x1="250.045" y1="355.065" x2="250.045" y2="71.845">
   <stop offset="0" style="stop-color:#E2E3E3"/>
   <stop offset="1" style="stop-color:white"/>
  </linearGradient>
  <linearGradient id="id1" gradientUnits="userSpaceOnUse" x1="262.491" y1="446.61" x2="267.605" y2="177.418">
   <stop offset="0" style="stop-color:#008BFF"/>
   <stop offset="1" style="stop-color:#00AAFF"/>
  </linearGradient>
 </defs>
 <g id="Layer_x0020_1">
  <metadata id="CorelCorpID_0Corel-Layer"/>

  <path class="fil1 str1" d="M96 224c1,0 1,0 2,0 -1,-6 -2,-12 -2,-18 0,-35 28,-63 63,-63 4,0 8,0 12,1 12,-42 51,-72 97,-72 52,0 95,40 100,91 2,0 4,0 6,0 53,0 96,43 96,96 0,53 -43,96 -96,96 -91,0 -222,0 -278,0 -37,0 -66,-29 -66,-66 0,-36 29,-65 66,-65z"/>
  <path class="fil2 str2" d="M208 285l17 0 0 150c0,6 5,10 10,10l60 0c6,0 10,-4 10,-10l0 -150 17 0c14,0 17,-3 21,-7 7,-7 7,-21 0,-28l-64 -64c-7,-7 -21,-7 -28,0l-64 64c-7,7 -7,21 0,28 4,4 7,7 21,7z"/>
 </g>
</svg>
