<?xml version="1.0" encoding="UTF-8"?>
<!DOCTYPE svg PUBLIC "-//W3C//DTD SVG 1.1//EN" "http://www.w3.org/Graphics/SVG/1.1/DTD/svg11.dtd">
<!-- Creator: CorelDRAW X6 -->
<svg xmlns="http://www.w3.org/2000/svg" xml:space="preserve" width="100%" height="100%" version="1.1" style="shape-rendering:geometricPrecision; text-rendering:geometricPrecision; image-rendering:optimizeQuality; fill-rule:evenodd; clip-rule:evenodd"
viewBox="0 0 500 500"
 xmlns:xlink="http://www.w3.org/1999/xlink">
 <defs>
  <style type="text/css">
   <![CDATA[
    .str0 {stroke:red;stroke-width:0.1}
    .str3 {stroke:#434242;stroke-width:5}
    .str2 {stroke:#434242;stroke-width:5;stroke-linejoin:round}
    .str1 {stroke:#1A1A1A;stroke-width:15;stroke-linejoin:round}
    .fil0 {fill:none}
    .fil3 {fill:url(#id0)}
    .fil1 {fill:url(#id1)}
    .fil2 {fill:url(#id2)}
    .fil4 {fill:url(#id3)}
   ]]>
  </style>
  <linearGradient id="id0" gradientUnits="userSpaceOnUse" x1="250.05" y1="282.335" x2="250.05" y2="193.765">
   <stop offset="0" style="stop-color:#DDDEDE"/>
   <stop offset="1" style="stop-color:#B3B4B4"/>
  </linearGradient>
  <linearGradient id="id1" gradientUnits="userSpaceOnUse" x1="250.049" y1="355.065" x2="250.049" y2="71.845">
   <stop offset="0" style="stop-color:#E2E3E3"/>
   <stop offset="1" style="stop-color:white"/>
  </linearGradient>
  <linearGradient id="id2" gradientUnits="userSpaceOnUse" x1="343.05" y1="238.05" x2="157.05" y2="238.05">
   <stop offset="0" style="stop-color:#008BFF"/>
   <stop offset="1" style="stop-color:#00AAFF"/>
  </linearGradient>
  <linearGradient id="id3" gradientUnits="userSpaceOnUse" xlink:href="#id0" x1="250.05" y1="211.479" x2="250.05" y2="264.621">
  </linearGradient>
 </defs>
 <g id="Layer_x0020_1">
  <metadata id="CorelCorpID_0Corel-Layer"/>

  <path class="fil1 str1" d="M96 224c1,0 1,0 2,0 -1,-6 -2,-12 -2,-18 0,-35 28,-63 63,-63 4,0 8,0 12,1 12,-42 51,-72 97,-72 52,0 95,40 100,91 2,0 4,0 6,0 53,0 96,43 96,96 0,53 -43,96 -96,96 -91,0 -222,0 -278,0 -37,0 -66,-29 -66,-66 0,-36 29,-65 66,-65z"/>
  <path class="fil2 str2" d="M287 298l18 13c1,1 3,1 4,0l14 -14c1,-1 1,-3 0,-4l-13 -18c4,-7 6,-13 8,-20l22 -4c2,-1 3,-2 3,-3l0 -20c0,-1 -1,-2 -3,-3l-22 -3c-2,-8 -4,-14 -8,-20l13 -19c1,-1 1,-3 0,-4l-14 -14c-1,-1 -3,-1 -4,0l-19 13c-6,-3 -12,-6 -19,-8l-4 -22c-1,-2 -2,-3 -3,-3l-20 0c-1,0 -2,1 -3,3l-3 22c-8,2 -14,5 -20,8l-19 -13c-1,-1 -3,-1 -4,0l-14 14c-1,1 -1,3 0,4l13 19c-3,6 -6,12 -8,20l-22 3c-2,1 -3,2 -3,3l0 20c0,1 1,2 3,3l22 4c2,7 4,13 8,20l-13 18c-1,1 -1,3 0,4l14 14c1,1 3,1 4,0l18 -13c7,4 13,7 21,8l3 22c1,2 2,3 3,3l20 0c1,0 2,-1 3,-3l4 -22c7,-1 14,-4 20,-8zm-37 -82c-12,0 -22,10 -22,22 0,12 10,22 22,22 12,0 22,-10 22,-22 0,-12 -10,-22 -22,-22z"/>
  <path class="fil3" d="M250 194c-24,0 -44,20 -44,44 0,25 20,44 44,44 25,0 44,-19 44,-44 0,-24 -19,-44 -44,-44zm0 22c-12,0 -22,10 -22,22 0,12 10,22 22,22 12,0 22,-10 22,-22 0,-12 -10,-22 -22,-22z"/>
  <path class="fil4" d="M250 265c15,0 27,-12 27,-27 0,-15 -12,-27 -27,-27 -15,0 -27,12 -27,27 0,15 12,27 27,27zm0 -49c-12,0 -22,10 -22,22 0,12 10,22 22,22 12,0 22,-10 22,-22 0,-12 -10,-22 -22,-22z"/>
  <circle class="fil0 str3" cx="250" cy="238" r="44"/>
 </g>
</svg>
