<?xml version="1.0" encoding="UTF-8"?>
<!DOCTYPE svg PUBLIC "-//W3C//DTD SVG 1.1//EN" "http://www.w3.org/Graphics/SVG/1.1/DTD/svg11.dtd">

<svg xmlns="http://www.w3.org/2000/svg" xml:space="preserve" width="100%" height="100%" version="1.1" style="shape-rendering:geometricPrecision; text-rendering:geometricPrecision; image-rendering:optimizeQuality; fill-rule:evenodd; clip-rule:evenodd"
viewBox="0 0 5000 5000"
 xmlns:xlink="http://www.w3.org/1999/xlink">
 <defs>
  <style type="text/css">
   <![CDATA[
    .fil0 {fill:#434242}
   ]]>
  </style>
 </defs>
 <g id="Layer_x0020_1">
  <metadata id="CorelCorpID_0Corel-Layer"/>
  <path class="fil0" d="M3326 3853l411 288c29,21 66,26 91,0l313 -313c26,-25 21,-62 0,-91l-289 -411c85,-139 148,-291 187,-453l496 -87c35,-6 65,-29 65,-65l0 -442c0,-36 -30,-59 -65,-65l-497 -87c-40,-161 -103,-312 -188,-450l291 -414c21,-29 26,-66 0,-91l-313 -313c-25,-26 -62,-21 -91,0l-415 291c-137,-83 -288,-146 -449,-185l-87 -500c-6,-35 -29,-65 -65,-65l-442 0c-36,0 -59,30 -65,65l-87 500c-161,39 -312,102 -449,185l-415 -291c-29,-21 -66,-26 -91,0l-313 313c-26,25 -21,62 0,91l291 414c-85,138 -148,289 -188,450l-497 87c-35,6 -65,29 -65,65l0 442c0,36 30,59 65,65l496 87c39,162 102,314 187,453l-289 411c-21,29 -26,66 0,91l313 313c25,26 62,21 91,0l411 -288c138,85 291,149 454,189l86 493c6,35 29,65 65,65l442 0c36,0 59,-30 65,-65l86 -493c163,-40 316,-104 454,-189zm-826 -2303c-262,0 -500,106 -672,278 -172,172 -278,410 -278,672 0,262 106,500 278,672 172,172 410,278 672,278 262,0 500,-106 672,-278 172,-172 278,-410 278,-672 0,-262 -106,-500 -278,-672 -172,-172 -410,-278 -672,-278zm-742 208c190,-190 452,-308 742,-308 290,0 552,118 742,308 190,190 308,452 308,742 0,290 -118,552 -308,742 -190,190 -452,308 -742,308 -290,0 -552,-118 -742,-308 -190,-190 -308,-452 -308,-742 0,-290 118,-552 308,-742zm742 242c-276,0 -500,224 -500,500 0,276 224,500 500,500 276,0 500,-224 500,-500 0,-276 -224,-500 -500,-500z"/>
 </g>
</svg>
