<?xml version="1.0" encoding="UTF-8"?>
<!DOCTYPE svg PUBLIC "-//W3C//DTD SVG 1.1//EN" "http://www.w3.org/Graphics/SVG/1.1/DTD/svg11.dtd">

<svg xmlns="http://www.w3.org/2000/svg" xml:space="preserve" width="100%" height="100%" version="1.1" style="shape-rendering:geometricPrecision; text-rendering:geometricPrecision; image-rendering:optimizeQuality; fill-rule:evenodd; clip-rule:evenodd"
viewBox="0 0 500 500"
 xmlns:xlink="http://www.w3.org/1999/xlink">
 <defs>
  <style type="text/css">
   <![CDATA[
    .str1 {stroke:#434242;stroke-width:5}
    .str0 {stroke:#434242;stroke-width:10;stroke-linejoin:round}
    .fil3 {fill:none}
    .fil1 {fill:url(#id0)}
    .fil2 {fill:url(#id1)}
    .fil0 {fill:url(#id2)}
   ]]>
  </style>
  <linearGradient id="id0" gradientUnits="userSpaceOnUse" x1="250" y1="349.998" x2="250" y2="150.002">
   <stop offset="0" style="stop-color:#DDDEDE"/>
   <stop offset="1" style="stop-color:#B3B4B4"/>
  </linearGradient>
  <linearGradient id="id1" gradientUnits="userSpaceOnUse" xlink:href="#id0" x1="250" y1="190.001" x2="250" y2="309.999">
  </linearGradient>
  <radialGradient id="id2" gradientUnits="objectBoundingBox" cx="50%" cy="48%" r="50%" fx="50%" fy="48%">
   <stop offset="0" style="stop-color:#00AAFF"/>
   <stop offset="1" style="stop-color:#008BFF"/>
  </radialGradient>
 </defs>
 <g id="Layer_x0020_1">
  <metadata id="CorelCorpID_0Corel-Layer"/>
  <path class="fil0 str0" d="M333 385l41 29c3,2 6,3 9,0l31 -31c3,-3 2,-6 0,-9l-29 -41c9,-14 15,-30 19,-46l50 -8c3,-1 6,-3 6,-7l0 -44c0,-4 -3,-6 -6,-7l-50 -8c-4,-16 -11,-32 -19,-45l29 -42c2,-3 3,-6 0,-9l-31 -31c-3,-3 -6,-2 -9,0l-42 29c-14,-8 -29,-15 -45,-19l-8 -50c-1,-3 -3,-6 -7,-6l-44 0c-4,0 -6,3 -7,6l-8 50c-16,4 -31,11 -45,19l-42 -29c-3,-2 -6,-3 -9,0l-31 31c-3,3 -2,6 0,9l29 42c-8,13 -15,29 -19,45l-50 8c-3,1 -6,3 -6,7l0 44c0,4 3,6 6,7l50 8c4,16 10,32 19,46l-29 41c-2,3 -3,6 0,9l31 31c3,3 6,2 9,0l41 -29c14,9 30,15 46,19l8 50c1,3 3,6 7,6l44 0c4,0 6,-3 7,-6l8 -50c16,-4 32,-10 46,-19zm-83 -185c-28,0 -50,22 -50,50 0,28 22,50 50,50 28,0 50,-22 50,-50 0,-28 -22,-50 -50,-50z"/>
  <path class="fil1" d="M250 150c-55,0 -100,45 -100,100 0,55 45,100 100,100 55,0 100,-45 100,-100 0,-55 -45,-100 -100,-100zm0 50c-28,0 -50,22 -50,50 0,28 22,50 50,50 28,0 50,-22 50,-50 0,-28 -22,-50 -50,-50z"/>
  <path class="fil2" d="M250 310c33,0 60,-27 60,-60 0,-33 -27,-60 -60,-60 -33,0 -60,27 -60,60 0,33 27,60 60,60zm0 -110c-28,0 -50,22 -50,50 0,28 22,50 50,50 28,0 50,-22 50,-50 0,-28 -22,-50 -50,-50z"/>
  <circle class="fil3 str1" cx="250" cy="250" r="100"/>
 </g>
</svg>
