<?xml version="1.0" encoding="UTF-8"?>
<!DOCTYPE svg PUBLIC "-//W3C//DTD SVG 1.1//EN" "http://www.w3.org/Graphics/SVG/1.1/DTD/svg11.dtd">
<!-- Creator: CorelDRAW X6 -->
<svg xmlns="http://www.w3.org/2000/svg" xml:space="preserve" width="100%" height="100%" version="1.1" shape-rendering="geometricPrecision" text-rendering="geometricPrecision" image-rendering="optimizeQuality" fill-rule="evenodd" clip-rule="evenodd"
viewBox="0 0 500 500"
 xmlns:xlink="http://www.w3.org/1999/xlink">
 <g id="Layer_x0020_1">
  <metadata id="CorelCorpID_0Corel-Layer"/>
  <path fill="#FFFFFF" d="M190 90c35,0 67,11 93,30l182 121c7,4 7,14 0,18l-182 121c-26,19 -58,30 -93,30 -88,0 -160,-72 -160,-160 0,-88 72,-160 160,-160zm-83 220c-5,0 -10,-4 -10,-10 0,-6 5,-10 10,-10l173 0c6,0 10,4 10,10 0,6 -4,10 -10,10l-173 0zm0 -100c-5,0 -10,-4 -10,-10 0,-6 5,-10 10,-10l173 0c6,0 10,4 10,10 0,6 -4,10 -10,10l-173 0zm0 50c-5,0 -10,-4 -10,-10 0,-6 5,-10 10,-10l173 0c6,0 10,4 10,10 0,6 -4,10 -10,10l-173 0z"/>
 </g>
</svg>
