<?xml version="1.0" encoding="UTF-8"?>
<!DOCTYPE svg PUBLIC "-//W3C//DTD SVG 1.1//EN" "http://www.w3.org/Graphics/SVG/1.1/DTD/svg11.dtd">
<!-- Creator: CorelDRAW X6 -->
<svg xmlns="http://www.w3.org/2000/svg" xml:space="preserve" width="100%" height="100%" version="1.1" shape-rendering="geometricPrecision" text-rendering="geometricPrecision" image-rendering="optimizeQuality" fill-rule="evenodd" clip-rule="evenodd"
viewBox="0 0 500 500"
 xmlns:xlink="http://www.w3.org/1999/xlink">
 <g id="Layer_x0020_1">
  <metadata id="CorelCorpID_0Corel-Layer"/>
  <circle fill="none" stroke="#FFFFFF" stroke-width="50" cx="250" cy="250" r="200"/>
  <path fill="#FFFFFF" fill-rule="nonzero" d="M261 360l1 13 -2 0c0,-3 -2,-6 -4,-8 -2,-2 -5,-3 -7,-3 -2,0 -4,1 -5,2 -1,1 -2,2 -2,3 0,1 0,2 1,3 0,1 1,2 3,3 0,0 3,1 6,3 5,2 8,5 10,7 1,2 2,4 2,7 0,3 -1,6 -4,8 -3,3 -6,4 -10,4 -1,0 -2,0 -4,0 -1,-1 -2,-1 -4,-2 -1,0 -2,0 -2,0 -1,0 -1,0 -2,0 0,1 -1,1 -1,2l-1 0 0 -15 1 0c1,4 2,7 5,10 2,2 5,3 8,3 2,0 4,-1 5,-2 2,-1 2,-2 2,-4 0,-1 0,-2 -1,-3 0,-1 -1,-2 -2,-2 -1,-1 -3,-2 -5,-3 -4,-2 -7,-4 -8,-5 -2,-1 -3,-3 -4,-4 -1,-2 -1,-4 -1,-6 0,-3 1,-5 3,-8 3,-2 6,-3 9,-3 2,0 3,0 4,0 1,1 2,1 3,2 2,0 3,1 3,1 1,0 1,-1 1,-1 1,0 1,-1 1,-2l1 0zm-18 -264l20 25 0 -17c0,-3 0,-4 -1,-5 -1,-1 -2,-2 -5,-2l0 -1 14 0 0 1c-2,0 -3,1 -4,1 0,0 -1,1 -1,2 0,0 -1,2 -1,4l0 33 -1 0 -27 -33 0 25c0,3 1,4 2,5 1,1 2,1 3,1l1 0 0 1 -14 0 0 -1c2,0 4,0 5,-1 1,-1 1,-2 1,-5l0 -28 -1 -1c-1,-1 -1,-2 -2,-2 -1,-1 -2,-1 -3,-1l0 -1 14 0zm-90 133l0 1c0,0 -1,1 -2,1 0,0 0,1 -1,2 0,0 -1,2 -2,4l-12 34 -1 0 -11 -27 -11 27 -1 0 -13 -33c-1,-4 -2,-6 -3,-6 0,-1 -1,-1 -3,-2l0 -1 18 0 0 1c-1,0 -2,1 -3,1 0,0 -1,1 -1,2 0,0 1,2 2,4l8 20 6 -16 -1 -4c-1,-2 -2,-4 -2,-4 -1,-1 -2,-2 -2,-2 -1,0 -2,-1 -3,-1l0 -1 19 0 0 1c-1,0 -2,1 -3,1 0,0 0,0 -1,0 0,1 0,1 0,2 0,0 1,1 1,4l8 19 6 -17c1,-2 2,-3 2,-4 0,-1 0,-1 0,-2 0,-1 0,-1 -1,-2 0,0 -2,-1 -3,-1l0 -1 10 0zm227 3l0 17 1 0c2,0 4,-1 5,-3 1,-1 2,-4 2,-7l2 0 0 21 -2 0c0,-2 0,-4 -1,-5 -1,-2 -2,-3 -3,-3 -1,-1 -2,-1 -4,-1l0 11c0,2 0,4 0,4 0,1 1,1 1,2 1,0 2,0 3,0l2 0c4,0 7,-1 9,-3 2,-1 4,-4 5,-8l1 0 -2 13 -35 0 0 -1 2 0c1,0 2,0 3,0 0,-1 1,-1 1,-2 0,0 0,-2 0,-4l0 -26c0,-2 0,-3 0,-4 0,0 -1,-1 -1,-1 -1,-1 -2,-1 -3,-1l-2 0 0 -1 34 0 0 12 -1 0c0,-3 -1,-5 -2,-7 -1,-1 -3,-2 -5,-2 -1,-1 -3,-1 -6,-1l-4 0zm-41 -75l-104 78c0,0 0,0 0,0l-78 104c-1,1 -1,3 0,4 1,1 3,1 4,0l104 -78c0,0 0,0 0,0l78 -104c1,-1 1,-3 0,-4 -1,-1 -3,-1 -4,0zm-80 84c5,5 5,13 0,18 -5,5 -13,5 -18,0 -5,-5 -5,-13 0,-18 5,-5 13,-5 18,0z"/>
  <path fill="none" stroke="#FFFFFF" stroke-width="10" stroke-linecap="round" d="M430 250l-15 0m-330 0l-15 0m180 -180l0 15m0 330l0 15m174 -133l-15 -4m-318 -86l-15 -4m221 -127l-4 15m-86 318l-4 15m203 -84l-13 -7m-286 -166l-13 -7m246 -66l-8 13m-165 286l-7 13m217 -29l-10 -10m-234 -234l-10 -10m254 0l-10 10m-234 234l-10 10m217 29l-8 -13m-165 -286l-7 -13m246 66l-13 8m-286 165l-13 7m203 84l-4 -15m-86 -318l-4 -15m221 127l-15 4m-318 86l-15 4"/>
 </g>
</svg>
