<svg xmlns="http://www.w3.org/2000/svg" width="100%" height="100%" shape-rendering="geometricPrecision" text-rendering="geometricPrecision" image-rendering="optimizeQuality" fill-rule="evenodd" clip-rule="evenodd" viewBox="0 0 500 500"><circle stroke="#434242" stroke-width="10" cx="250" cy="250" r="185" fill="none"/><path stroke="#434242" stroke-width="10" stroke-linecap="round" d="M430 250h-15m-330 0h-15m180-180v15m0 330v15m174-133l-15-4m-318-86l-15-4m221-127l-4 15m-86 318l-4 15m203-84l-13-7m-286-166l-13-7m246-66l-8 13m-165 286l-7 13m217-29l-10-10m-234-234l-10-10m254 0l-10 10m-234 234l-10 10m217 29l-8-13m-165-286l-7-13m246 66l-13 8m-286 165l-13 7m203 84l-4-15m-86-318l-4-15m221 127l-15 4m-318 86l-15 4" fill="none"/><path stroke="#434242" stroke-width="10" stroke-linejoin="round" d="M339 157l-106 75c-1 0-1 0-1 1l-75 106c-1 1-1 3 0 4s3 1 4 0l106-75c1 0 1 0 1-1l75-106c1-1 1-3 0-4s-3-1-4 0zm-80 84c5 5 5 13 0 18s-13 5-18 0-5-13 0-18 13-5 18 0z" fill="none"/><path fill="#434242" d="M242 113v20h2c2 0 3 1 4 1 1 1 1 2 1 3s0 1-1 2-2 1-4 1h-9c-2 0-3 0-3-1-1-1-1-1-1-2s0-2 1-3c0 0 1-1 3-1v-26h-1c-2 0-3-1-3-1-1-1-2-2-2-3l2-2c0-1 1-1 3-1h8l17 27v-20h-2c-2 0-3-1-4-1l-1-3 1-2c1-1 2-1 4-1h9c2 0 3 0 3 1 1 1 2 1 2 2s-1 2-2 3c0 0-1 1-3 1v33h-7l-17-27zm-121 138l-6 19h-8l-4-33c-2 0-3 0-4-1l-1-2 1-3c1-1 2-1 4-1h10c2 0 3 0 4 1s1 1 1 2 0 2-1 3c-1 0-2 1-4 1h-3l2 19 5-16h7l6 16 2-19h-4c-1 0-3-1-3-1-1-1-1-2-1-3s0-1 1-2c0-1 2-1 3-1h11c1 0 2 0 3 1s1 1 1 2 0 2-1 3l-3 1-4 33h-8l-6-19zm119 147l-1 2h-2c-1 0-2 0-2-1-1-1-1-2-1-4v-4c0-2 0-3 1-4 0 0 1-1 2-1l2 1c1 0 1 1 2 2v2c1 1 2 1 4 2 1 1 3 1 5 1 3 0 6-1 8-2 1-1 1-2 1-3s0-2-1-2c0-1-1-2-2-2-1-1-3-1-6-2-4 0-7-1-9-2-1-1-3-2-4-4s-2-4-2-6c0-3 2-6 4-8 3-3 7-4 11-4 2 0 3 0 5 1 1 0 2 1 4 1l2-1c1 0 2 0 3 1 0 1 1 2 1 4v5l-1 3c-1 1-2 1-3 1s-1 0-2-1c0 0-1-1-1-2s0-2-1-2c0-1-1-2-3-2-1-1-2-1-4-1-3 0-4 0-6 1-1 2-2 3-2 4s0 2 1 2c1 1 1 2 2 2 1 1 3 1 7 2 3 0 6 1 8 2 1 1 3 2 4 4s2 4 2 6c0 3-1 6-3 8-4 3-8 4-12 4-2 0-4 0-6-1-2 0-3-1-5-2zm134-145v10h17v-3c0-2 1-3 1-4 1-1 2-1 3-1s2 0 2 1c1 1 1 2 1 4v10h-32c-1 0-2 0-3-1s-1-1-1-2 0-2 1-3l3-1h2v-26h-2l-3-1c-1-1-1-2-1-3s0-1 1-2 2-1 3-1h31v10c0 2-1 3-1 4-1 1-2 1-3 1s-1 0-2-1-1-2-1-4v-3h-16v10h6c0-2 0-3 1-4s2-1 3-1 1 0 2 1 1 2 1 4v6c0 2 0 3-1 3-1 1-1 2-2 2s-2-1-3-2c-1 0-1-1-1-3h-6z"/><circle stroke="#434242" stroke-width="20" cx="250" cy="250" r="220" fill="none"/></svg>