<?xml version="1.0" encoding="UTF-8"?>
<!DOCTYPE svg PUBLIC "-//W3C//DTD SVG 1.1//EN" "http://www.w3.org/Graphics/SVG/1.1/DTD/svg11.dtd">
<!-- Creator: CorelDRAW X6 -->
<svg xmlns="http://www.w3.org/2000/svg" xml:space="preserve" width="100%" height="100%" version="1.1" shape-rendering="geometricPrecision" text-rendering="geometricPrecision" image-rendering="optimizeQuality" fill-rule="evenodd" clip-rule="evenodd"
viewBox="0 0 500 500"
 xmlns:xlink="http://www.w3.org/1999/xlink">
 <g id="Layer_x0020_1">
  <metadata id="CorelCorpID_0Corel-Layer"/>
  <path fill="none" stroke="#434242" stroke-width="10" stroke-linejoin="round" d="M180 300c7,0 12,6 12,13 0,7 -5,12 -12,12 -7,0 -13,-5 -13,-12 0,-7 6,-13 13,-13zm245 -105c0,8 -7,15 -15,15 -8,0 -15,-7 -15,-15 0,-8 7,-15 15,-15 8,0 15,7 15,15z"/>
  <path fill="none" stroke="#434242" stroke-width="7.5" stroke-linejoin="round" d="M53 120l256 0c4,0 7,3 7,7l0 150c0,4 -3,7 -7,7l-256 0c-4,0 -7,-3 -7,-7l0 -150c0,-4 3,-7 7,-7zm347 120l0 90c0,6 4,10 10,10 6,0 10,-4 10,-10l0 -90c0,-5 -4,-10 -10,-10 -6,0 -10,5 -10,10zm-35 -75l90 0 0 -20 -90 0 0 20zm0 -35l90 0 0 -20 -90 0 0 20z"/>
  <path fill="none" stroke="#434242" stroke-width="15" stroke-linejoin="round" d="M360 360l100 0c6,0 10,-4 10,-10l0 -250c0,-6 -4,-10 -10,-10l-100 0c-6,0 -10,4 -10,10l0 250c0,6 4,10 10,10zm-269 -26l53 0 0 -21 -100 0c-8,0 -14,-7 -14,-15l0 -178c0,-8 6,-15 14,-15l272 0c8,0 14,7 14,15l0 178c0,8 -6,15 -14,15l-100 0 0 21 53 0c6,0 11,5 11,11l0 15 -200 0 0 -15c0,-6 5,-11 11,-11z"/>
 </g>
</svg>
