<svg xmlns="http://www.w3.org/2000/svg" width="100%" height="100%" shape-rendering="geometricPrecision" text-rendering="geometricPrecision" image-rendering="optimizeQuality" fill-rule="evenodd" clip-rule="evenodd" viewBox="0 0 500 500"><g><circle stroke="#434242" stroke-width="50" cx="250" cy="250" r="200" fill="none"/><path fill="#434242" d="M261 360l1 13h-2c0-3-2-6-4-8s-5-3-7-3-4 1-5 2-2 2-2 3 0 2 1 3c0 1 1 2 3 3 0 0 3 1 6 3 5 2 8 5 10 7 1 2 2 4 2 7s-1 6-4 8c-3 3-6 4-10 4h-4c-1-1-2-1-4-2h-4l-1 2h-1v-15h1c1 4 2 7 5 10 2 2 5 3 8 3 2 0 4-1 5-2 2-1 2-2 2-4 0-1 0-2-1-3 0-1-1-2-2-2-1-1-3-2-5-3-4-2-7-4-8-5-2-1-3-3-4-4-1-2-1-4-1-6 0-3 1-5 3-8 3-2 6-3 9-3h4l3 2c2 0 3 1 3 1 1 0 1-1 1-1 1 0 1-1 1-2h1zm-18-264l20 25v-17c0-3 0-4-1-5s-2-2-5-2v-1h14v1c-2 0-3 1-4 1 0 0-1 1-1 2 0 0-1 2-1 4v33h-1l-27-33v25c0 3 1 4 2 5s2 1 3 1h1v1h-14v-1c2 0 4 0 5-1s1-2 1-5v-28l-1-1c-1-1-1-2-2-2-1-1-2-1-3-1v-1h14zm-90 133v1s-1 1-2 1c0 0 0 1-1 2l-2 4-12 34h-1l-11-27-11 27h-1l-13-33c-1-4-2-6-3-6 0-1-1-1-3-2v-1h18v1l-3 1s-1 1-1 2l2 4 8 20 6-16-1-4-2-4-2-2-3-1v-1h19v1l-3 1h-1v2s1 1 1 4l8 19 6-17c1-2 2-3 2-4v-2c0-1 0-1-1-2 0 0-2-1-3-1v-1h10zm227 3v17h1c2 0 4-1 5-3 1-1 2-4 2-7h2v21h-2c0-2 0-4-1-5-1-2-2-3-3-3-1-1-2-1-4-1v15l1 2h5c4 0 7-1 9-3 2-1 4-4 5-8h1l-2 13h-35v-1h5l1-2v-34l-1-1c-1-1-2-1-3-1h-2v-1h34v12h-1c0-3-1-5-2-7-1-1-3-2-5-2-1-1-3-1-6-1h-4zm-41-75l-104 78-78 104c-1 1-1 3 0 4s3 1 4 0l104-78 78-104c1-1 1-3 0-4s-3-1-4 0zm-80 84c5 5 5 13 0 18s-13 5-18 0-5-13 0-18 13-5 18 0z"/><path stroke="#434242" stroke-width="10" stroke-linecap="round" d="M430 250h-15m-330 0h-15m180-180v15m0 330v15m174-133l-15-4m-318-86l-15-4m221-127l-4 15m-86 318l-4 15m203-84l-13-7m-286-166l-13-7m246-66l-8 13m-165 286l-7 13m217-29l-10-10m-234-234l-10-10m254 0l-10 10m-234 234l-10 10m217 29l-8-13m-165-286l-7-13m246 66l-13 8m-286 165l-13 7m203 84l-4-15m-86-318l-4-15m221 127l-15 4m-318 86l-15 4" fill="none"/></g></svg>