<?xml version="1.0" encoding="UTF-8"?>
<!DOCTYPE svg PUBLIC "-//W3C//DTD SVG 1.1//EN" "http://www.w3.org/Graphics/SVG/1.1/DTD/svg11.dtd">
<!-- Creator: CorelDRAW X6 -->
<svg xmlns="http://www.w3.org/2000/svg" xml:space="preserve" width="100%" height="100%" version="1.1" style="shape-rendering:geometricPrecision; text-rendering:geometricPrecision; image-rendering:optimizeQuality; fill-rule:evenodd; clip-rule:evenodd"
viewBox="0 0 500 500"
 xmlns:xlink="http://www.w3.org/1999/xlink">
 <defs>
  <style type="text/css">
   <![CDATA[
    .str1 {stroke:#434242;stroke-width:5}
    .str0 {stroke:#434242;stroke-width:10;stroke-linejoin:round}
    .fil4 {fill:none}
    .fil2 {fill:#EDEDED}
    .fil3 {fill:white}
    .fil1 {fill:url(#id0)}
    .fil0 {fill:url(#id1)}
   ]]>
  </style>
  <linearGradient id="id0" gradientUnits="userSpaceOnUse" x1="329.998" y1="434.002" x2="329.998" y2="65.998">
   <stop offset="0" style="stop-color:#4EAFFF"/>
   <stop offset="1" style="stop-color:#279DFF"/>
  </linearGradient>
  <linearGradient id="id1" gradientUnits="userSpaceOnUse" x1="249.998" y1="20.001" x2="249.998" y2="479.999">
   <stop offset="0" style="stop-color:#008BFF"/>
   <stop offset="1" style="stop-color:#00AAFF"/>
  </linearGradient>
 </defs>
 <g id="Layer_x0020_1">
  <metadata id="CorelCorpID_0Corel-Layer"/>
  <polygon class="fil0 str0" points="50,20 80,420 250,480 420,420 450,20 "/>
  <polygon class="fil1" points="250,434 386,386 410,66 250,66 "/>
  <path class="fil2" d="M211 225l39 -39 0 42 -4 4 4 3 0 39 -4 0 -21 -21 -14 14 -56 -57 0 -40 30 0 0 28 26 27zm39 -46l-23 -23 -71 0 -30 -30 113 0 11 10 0 43zm-32 137l-28 -28 21 -21 20 19 19 0 0 30 -32 0z"/>
  <path class="fil3" d="M250 186l4 -4 -4 -3 0 -43 46 46 -14 14 21 21 0 43 -42 -43 -11 11 0 -42zm0 49l39 39 -39 0 0 -39zm95 -46l-28 -28 -21 21 19 20 0 72 30 0 0 -85zm-95 97l94 0 30 30 -124 0 0 -30z"/>
  <path class="fil4 str1" d="M211 225l43 -43 -27 -26 -71 0 -30 -30 113 0 57 56 -14 14 21 21 0 43 -42 -43 -15 15 43 42 -43 0 -21 -21 -14 14 -56 -57 0 -40 30 0 0 28 26 27zm134 -36l-28 -28 -21 21 19 20 0 72 30 0 0 -85zm-127 127l-28 -28 21 -21 20 19 113 0 30 30 -156 0z"/>
 </g>
</svg>
