<?xml version="1.0" encoding="UTF-8"?>
<!DOCTYPE svg PUBLIC "-//W3C//DTD SVG 1.1//EN" "http://www.w3.org/Graphics/SVG/1.1/DTD/svg11.dtd">
<!-- Creator: CorelDRAW X6 -->
<svg xmlns="http://www.w3.org/2000/svg" xml:space="preserve" width="100%" height="100%" version="1.1" style="shape-rendering:geometricPrecision; text-rendering:geometricPrecision; image-rendering:optimizeQuality; fill-rule:evenodd; clip-rule:evenodd"
viewBox="0 0 500 500"
 xmlns:xlink="http://www.w3.org/1999/xlink">
 <defs>
  <style type="text/css">
   <![CDATA[
    .fil0 {fill:#434242}
   ]]>
  </style>
 </defs>
 <g id="Layer_x0020_1">
  <metadata id="CorelCorpID_0Corel-Layer"/>
  <path class="fil0" d="M50 20l30 400 170 60 170 -60 30 -400 -400 0zm161 205l43 -43 -27 -26 -71 0 -30 -30 113 0 57 56 -14 14 21 21 0 43 -42 -43 -15 15 43 42 -43 0 -21 -21 -14 14 -56 -57 0 -40 30 0 0 28 26 27zm134 -36l-28 -28 -21 21 19 20 0 72 30 0 0 -85zm-127 127l-28 -28 21 -21 20 19 113 0 30 30 -156 0z"/>
 </g>
</svg>
