<?xml version="1.0" encoding="UTF-8"?>
<!DOCTYPE svg PUBLIC "-//W3C//DTD SVG 1.1//EN" "http://www.w3.org/Graphics/SVG/1.1/DTD/svg11.dtd">
<!-- Creator: CorelDRAW X6 -->
<svg xmlns="http://www.w3.org/2000/svg" xml:space="preserve" width="100%" height="100%" version="1.1" style="shape-rendering:geometricPrecision; text-rendering:geometricPrecision; image-rendering:optimizeQuality; fill-rule:evenodd; clip-rule:evenodd"
viewBox="0 0 500 500"
 xmlns:xlink="http://www.w3.org/1999/xlink">
 <defs>
  <style type="text/css">
   <![CDATA[
    .str0 {stroke:#2B2A29;stroke-width:0.1}
    .fil0 {fill:none}
    .fil1 {fill:#333333}
   ]]>
  </style>
 </defs>
 <g id="Layer_x0020_1">
  <metadata id="CorelCorpID_0Corel-Layer"/>
  <rect class="fil0 str0" width="500" height="500"/>
  <path class="fil1" d="M235 230l0 180 -70 0 0 -180c-5,0 -10,-4 -10,-10l0 -10c0,-5 5,-10 10,-10l70 0c6,0 10,5 10,10l0 10c0,6 -4,10 -10,10zm-205 220l440 0 0 -10c0,-11 -9,-20 -20,-20l-400 0c-11,0 -20,9 -20,20l0 10zm3 -310l434 0c1,0 3,-1 3,-2 0,-2 0,-3 -2,-4l-206 -103c-8,-4 -16,-4 -24,0l-206 103c-2,1 -2,2 -2,4 0,1 2,2 3,2zm-3 20l440 0 0 10c0,11 -9,20 -20,20l-400 0c-11,0 -20,-9 -20,-20l0 -10zm99 70c6,0 10,-4 10,-10l0 -10c0,-5 -4,-10 -10,-10l-70 0c-5,0 -10,5 -10,10l0 10c0,6 5,10 10,10l0 180 70 0 0 -180zm311 0c6,0 10,-4 10,-10l0 -10c0,-5 -4,-10 -10,-10l-70 0c-5,0 -10,5 -10,10l0 10c0,6 5,10 10,10l0 180 70 0 0 -180zm-105 0c6,0 10,-4 10,-10l0 -10c0,-5 -4,-10 -10,-10l-70 0c-5,0 -10,5 -10,10l0 10c0,6 5,10 10,10l0 180 70 0 0 -180z"/>
 </g>
</svg>
