<?xml version="1.0" encoding="UTF-8"?>
<!DOCTYPE svg PUBLIC "-//W3C//DTD SVG 1.1//EN" "http://www.w3.org/Graphics/SVG/1.1/DTD/svg11.dtd">
<!-- Creator: CorelDRAW X6 -->
<svg xmlns="http://www.w3.org/2000/svg" xml:space="preserve" width="100%" height="100%" version="1.1" style="shape-rendering:geometricPrecision; text-rendering:geometricPrecision; image-rendering:optimizeQuality; fill-rule:evenodd; clip-rule:evenodd"
viewBox="0 0 500 500"
 xmlns:xlink="http://www.w3.org/1999/xlink">
 <defs>
  <style type="text/css">
   <![CDATA[
    .str0 {stroke:#5B5B5B;stroke-width:5}
    .fil1 {fill:none}
    .fil3 {fill:#5B5B5B}
    .fil2 {fill:whitesmoke}
    .fil0 {fill:white}
   ]]>
  </style>
 </defs>
 <g id="Layer_x0020_1">
  <metadata id="CorelCorpID_0Corel-Layer"/>
  <path class="fil0" d="M50 20l30 400 170 60 170 -60 30 -400 -400 0zm78 90l4 50c65,0 131,0 196,0l-3 50c-63,0 -126,0 -189,0l4 50c60,0 120,0 181,0l-4 57 -67 23 -67 -23 -2 -27 -39 0 5 63 103 37 103 -37 19 -243 -244 0z"/>
  <polygon class="fil1 str0" points="50,20 80,420 250,480 420,420 450,20 "/>
  <path class="fil2" d="M250 434l136 -48 24 -320 -160 0 0 44 122 0 -19 243 -103 37 0 44zm0 -274l0 50 75 0 3 -50 -78 0zm0 100l0 80 67 -23 4 -57 -71 0z"/>
  <path class="fil3" d="M128 110l4 50c65,0 131,0 196,0l-3 50c-63,0 -126,0 -189,0l4 50c60,0 120,0 181,0l-4 57 -67 23 -67 -23 -2 -27 -39 0 5 63 103 37 103 -37 19 -243 -244 0z"/>
 </g>
</svg>
