<?xml version="1.0" encoding="UTF-8"?>
<!DOCTYPE svg PUBLIC "-//W3C//DTD SVG 1.1//EN" "http://www.w3.org/Graphics/SVG/1.1/DTD/svg11.dtd">
<!-- Creator: CorelDRAW X6 -->
<svg xmlns="http://www.w3.org/2000/svg" xml:space="preserve" width="100%" height="100%" version="1.1" style="shape-rendering:geometricPrecision; text-rendering:geometricPrecision; image-rendering:optimizeQuality; fill-rule:evenodd; clip-rule:evenodd"
viewBox="0 0 500 500"
 xmlns:xlink="http://www.w3.org/1999/xlink">
 <defs>
  <style type="text/css">
   <![CDATA[
    .str3 {stroke:red;stroke-width:0.1}
    .str1 {stroke:#333333;stroke-width:10}
    .str0 {stroke:#333333;stroke-width:15}
    .str2 {stroke:#333333;stroke-width:25;stroke-linecap:round}
    .fil0 {fill:none}
   ]]>
  </style>
 </defs>
 <g id="Layer_x0020_1">
  <metadata id="CorelCorpID_0Corel-Layer"/>
  <path class="fil0 str0" d="M238 375l-48 84 -114 -3 75 -131c-6,-7 -7,-18 -2,-27 41,-72 83,-143 124,-215 23,-39 74,-53 113,-30 40,23 53,73 31,113l-18 31c-18,30 -43,2 -82,71l-55 95c-5,9 -15,13 -24,12zm-87 -50l87 50"/>
  <path class="fil0 str1" d="M187 313l42 24c5,3 11,1 14,-3 28,-50 81,-141 109,-190 10,-17 4,-38 -12,-47l0 0c-16,-9 -37,-4 -47,12 -28,50 -81,141 -109,190 -3,5 -1,11 3,14z"/>
  <line class="fil0 str2" x1="315" y1="142" x2="291" y2= "182" />
  
 </g>
</svg>
