<?xml version="1.0" encoding="UTF-8"?>
<!DOCTYPE svg PUBLIC "-//W3C//DTD SVG 1.1//EN" "http://www.w3.org/Graphics/SVG/1.1/DTD/svg11.dtd">
<!-- Creator: CorelDRAW X6 -->
<svg xmlns="http://www.w3.org/2000/svg" xml:space="preserve" width="100%" height="100%" version="1.1" style="shape-rendering:geometricPrecision; text-rendering:geometricPrecision; image-rendering:optimizeQuality; fill-rule:evenodd; clip-rule:evenodd"
viewBox="0 0 500 500"
 xmlns:xlink="http://www.w3.org/1999/xlink">
 <defs>
  <style type="text/css">
   <![CDATA[
    .str0 {stroke:red;stroke-width:0.1}
    .str1 {stroke:#333333;stroke-width:10}
    .str3 {stroke:#008BFF;stroke-width:25}
    .str2 {stroke:#333333;stroke-width:25;stroke-linecap:round}
    .fil0 {fill:none}
    .fil1 {fill:#333333}
    .fil3 {fill:#F3F3F4}
    .fil2 {fill:url(#id0)}
   ]]>
  </style>
  <linearGradient id="id0" gradientUnits="userSpaceOnUse" x1="386.691" y1="52.178" x2="262.099" y2="254.244">
   <stop offset="0" style="stop-color:#279DFF"/>
   <stop offset="1" style="stop-color:#008BFF"/>
  </linearGradient>
 </defs>
 <g id="Layer_x0020_1">
  <metadata id="CorelCorpID_0Corel-Layer"/>

  <polygon class="fil1" points="158,313 167,318 99,435 191,436 237,359 245,363 190,459 76,456 "/>
  <path class="fil2 str1" d="M158 330l72 42c11,7 26,3 32,-9l55 -95c39,-69 64,-41 82,-71l18 -31c22,-40 9,-90 -31,-113 -39,-23 -90,-9 -113,30 -41,72 -83,143 -124,215 -6,11 -3,26 9,32z"/>
  <path class="fil3" d="M187 313l42 24c5,3 11,1 14,-3 28,-50 81,-141 109,-190 10,-17 4,-38 -12,-47l0 0c-16,-9 -37,-4 -47,12 -28,50 -81,141 -109,190 -3,5 -1,11 3,14z"/>
  <line class="fil0 str2" x1="315" y1="142" x2="291" y2= "182" />
  <line class="fil0 str3" x1="215" y1="235" x2="265" y2= "312" />
 </g>
</svg>
