<?xml version="1.0" encoding="UTF-8"?>
<!DOCTYPE svg PUBLIC "-//W3C//DTD SVG 1.1//EN" "http://www.w3.org/Graphics/SVG/1.1/DTD/svg11.dtd">
<!-- Creator: CorelDRAW X6 -->
<svg xmlns="http://www.w3.org/2000/svg" xml:space="preserve" width="100%" height="100%" version="1.1" style="shape-rendering:geometricPrecision; text-rendering:geometricPrecision; image-rendering:optimizeQuality; fill-rule:evenodd; clip-rule:evenodd"
viewBox="0 0 500 500"
 xmlns:xlink="http://www.w3.org/1999/xlink">
 <defs>
  <style type="text/css">
   <![CDATA[
    .str0 {stroke:#434242;stroke-width:10;stroke-linecap:round}
    .fil0 {fill:none}
    .fil1 {fill:#434242;fill-rule:nonzero}
   ]]>
  </style>
 </defs>
 <g id="Layer_x0020_1">
  <metadata id="CorelCorpID_0Corel-Layer"/>
  <path class="fil0 str0" d="M233 302l-10 11m116 -117l-77 78m-15 -6c11,0 20,9 20,20 0,11 -9,20 -20,20 -11,0 -20,-9 -20,-20 0,-11 9,-20 20,-20zm50 -152l-8 28m51 -10l-15 25m81 40l-26 15m44 29l-29 8m-192 -135l8 28m-51 -10l15 25m-81 40l26 15m-44 29l29 8m145 -153c105,0 190,85 190,190 0,43 -14,83 -39,115l-302 0c-25,-32 -39,-72 -39,-115 0,-105 85,-190 190,-190z"/>
  <g>
   <path class="fil1" d="M65 278l0 15 0 0 -1 0 0 0 -1 0 0 0 0 0 -1 -1 0 0 0 0 -1 0 0 0 0 0 0 -1 -1 0 0 0 0 0 -1 -1 0 0 0 0 0 0 0 -1 -1 0 0 0 0 -1 0 0 0 0 0 -1 0 0 0 0 0 -1 0 0 -1 -1 1 0 0 0 0 -1 0 0 0 0 0 -1 0 0 0 0 0 -1 0 0 1 0 0 -1 0 0 0 0 0 0 1 -1 0 0 0 0 1 0 0 -1 0 0 0 0 1 0 0 0 0 0 1 -1 0 0 0 0 1 0 0 0 1 0 0 0zm31 15l-31 0 0 -15 31 0 0 15zm0 0l0 -15 0 0 0 0 1 0 0 0 1 0 0 0 0 1 1 0 0 0 0 0 1 0 0 0 0 1 0 0 1 0 0 0 0 1 0 0 1 0 0 0 0 1 0 0 0 0 1 1 0 0 0 0 0 1 0 0 0 0 0 1 0 0 0 0 0 1 0 0 0 1 0 0 0 0 0 1 0 0 0 0 -1 1 0 0 0 0 0 1 0 0 -1 0 0 0 0 1 0 0 -1 0 0 0 0 1 0 0 -1 0 0 0 0 0 -1 0 0 1 0 0 -1 0 0 0 -1 0 0 0 0 0zm339 0l0 -15 0 0 1 0 0 0 1 0 0 0 0 0 1 1 0 0 0 0 1 0 0 0 0 0 0 1 1 0 0 0 0 0 1 1 0 0 0 0 0 0 0 1 1 0 0 0 0 1 0 0 0 0 0 1 0 0 0 0 0 1 0 0 0 0 0 1 0 0 0 1 0 0 0 0 0 1 0 0 0 0 0 1 0 0 -1 0 0 1 0 0 0 0 0 0 -1 1 0 0 0 0 -1 0 0 1 0 0 0 0 -1 0 0 0 0 0 -1 1 0 0 0 0 -1 0 0 0 -1 0 0 0zm-31 -15l31 0 0 15 -31 0 0 -15zm0 0l0 15 0 0 0 0 -1 0 0 0 -1 0 0 0 0 -1 -1 0 0 0 0 0 -1 0 0 0 0 -1 0 0 -1 0 0 0 0 -1 0 0 -1 0 0 0 0 -1 0 0 0 0 -1 -1 0 0 0 0 0 -1 0 0 0 0 0 -1 0 0 0 -1 0 0 0 0 0 -1 0 0 0 0 0 -1 0 0 0 0 1 -1 0 0 0 0 0 -1 0 0 1 0 0 0 0 -1 0 0 1 0 0 0 0 -1 0 0 1 0 0 0 0 0 1 0 0 -1 0 0 1 0 0 0 1 0 0 0 0 0zm-279 -128l-11 10 0 0 -1 0 0 -1 0 0 0 0 0 -1 -1 0 0 0 0 -1 0 0 0 0 0 -1 0 0 0 0 0 -1 0 0 0 0 0 -1 0 0 0 -1 0 0 0 0 0 -1 0 0 0 0 1 -1 0 0 0 0 0 0 0 -1 1 0 0 0 0 -1 1 0 0 0 0 0 0 0 1 -1 0 0 0 0 1 0 0 0 0 0 1 0 0 0 1 0 0 0 0 0 1 0 0 0 0 0 1 0 0 0 0 0 1 0 0 0 0 0 1 0 0 1 0 0 1 0 0 0 0 1 1 0zm11 32l-22 -22 11 -10 21 21 -10 11zm0 0l10 -11 0 1 1 0 0 0 0 1 0 0 1 0 0 1 0 0 0 0 0 1 0 0 0 0 0 1 0 0 0 0 0 1 0 0 0 0 0 1 0 0 0 0 0 1 0 0 0 0 0 1 -1 0 0 0 0 1 0 0 0 0 -1 1 0 0 0 0 0 0 -1 1 0 0 0 0 -1 0 0 0 0 0 -1 1 0 0 0 0 -1 0 0 0 0 0 -1 0 0 0 -1 0 0 0 0 0 -1 0 0 0 0 0 -1 -1 0 0 0 0 -1 0 0 0 0 0 -1 -1 0 0 0 0 0 0zm121 -81l-15 0 1 -1 0 0 0 0 0 -1 0 0 0 0 0 -1 0 0 0 0 0 -1 1 0 0 0 0 -1 0 0 0 0 1 0 0 -1 0 0 1 0 0 0 0 0 0 -1 1 0 0 0 0 0 1 0 0 0 0 0 1 0 0 0 1 0 0 0 0 0 1 0 0 0 1 0 0 0 0 0 1 0 0 0 0 0 1 0 0 1 0 0 0 0 1 0 0 0 0 1 1 0 0 0 0 0 0 1 0 0 1 0 0 1 0 0 0 0 0 1 0 0 0 0 0 1 0 0 0 0 0 1zm-15 30l0 -30 15 0 0 30 -15 0zm0 0l15 0 0 1 0 0 0 1 0 0 0 0 0 1 0 0 0 0 0 1 0 0 -1 0 0 1 0 0 0 0 0 0 -1 1 0 0 0 0 -1 0 0 1 0 0 0 0 -1 0 0 0 0 0 -1 0 0 1 0 0 -1 0 0 0 -1 0 0 0 0 0 -1 0 0 0 -1 0 0 0 0 -1 -1 0 0 0 0 0 -1 0 0 0 0 0 0 -1 -1 0 0 0 0 0 -1 -1 0 0 0 0 0 0 0 -1 -1 0 0 0 0 -1 0 0 0 0 0 -1 0 0 0 0 0 -1 0 0 -1 -1zm144 29l-11 -10 1 0 0 -1 0 0 1 0 0 0 0 -1 1 0 0 0 0 0 1 0 0 0 0 0 1 0 0 0 0 0 1 0 0 0 0 0 1 0 0 0 1 0 0 0 0 0 1 0 0 0 0 0 1 1 0 0 0 0 0 0 1 0 0 1 0 0 1 0 0 1 0 0 0 0 0 0 1 1 0 0 0 0 0 1 0 0 0 0 0 1 0 0 0 1 0 0 0 0 0 1 0 0 0 0 0 1 0 0 0 0 0 1 0 0 -1 0 0 1 0 0 0 0 0 1 -1 0 0 0zm-32 11l21 -21 11 10 -22 22 -10 -11zm0 0l10 11 0 0 0 0 0 0 -1 1 0 0 0 0 -1 0 0 0 0 0 -1 1 0 0 0 0 -1 0 0 0 0 0 -1 0 0 0 -1 0 0 0 0 0 -1 0 0 0 0 0 -1 -1 0 0 0 0 -1 0 0 0 0 0 -1 -1 0 0 0 0 0 0 -1 -1 0 0 0 0 0 -1 0 0 -1 0 0 -1 0 0 0 0 0 -1 0 0 0 0 0 -1 0 0 0 0 0 -1 0 0 0 0 0 -1 0 0 0 0 0 -1 0 0 0 0 0 -1 1 0 0 0 0 -1 0 0 1 0 0 -1zm134 117l-15 0 0 0 -1 -12 -1 -11 -1 -11 -2 -11 -3 -11 -3 -11 -3 -10 -4 -10 -4 -10 -5 -10 -6 -9 -6 -9 -6 -9 -6 -8 -7 -8 -8 -8 -7 -7 -9 -7 -8 -7 -9 -6 -9 -6 -9 -5 -10 -5 -9 -5 -11 -4 -10 -3 -10 -3 -11 -3 -11 -2 -11 -1 -12 -1 -11 0 0 -15 12 0 12 1 12 2 12 2 11 3 12 3 11 4 10 4 11 5 10 5 10 6 10 6 9 6 9 7 9 8 8 8 8 8 7 9 7 9 7 9 6 9 6 10 5 11 5 10 4 11 4 11 3 11 3 12 2 11 1 12 1 12 1 13 0 0zm-68 162l0 -15 -6 3 4 -4 3 -4 3 -4 3 -4 3 -4 3 -4 3 -4 3 -4 2 -5 3 -4 2 -5 3 -4 2 -5 2 -4 2 -5 2 -5 2 -4 2 -5 1 -5 2 -5 1 -5 1 -5 1 -5 1 -5 1 -5 1 -6 1 -5 0 -5 1 -5 0 -6 0 -5 1 -5 15 0 -1 5 0 6 0 6 -1 5 0 6 -1 5 -1 6 -1 6 -1 5 -1 5 -1 6 -2 5 -2 5 -1 5 -2 6 -2 5 -2 5 -2 5 -3 5 -2 5 -2 4 -3 5 -3 5 -3 4 -2 5 -3 4 -4 5 -3 4 -3 4 -3 4 -4 4 -3 4 -6 3zm6 -3l-3 3 -3 0 6 -3zm-346 -12l340 0 0 15 -340 0 -6 -3 6 -12zm0 15l-3 0 -3 -3 6 3zm-67 -162l15 0 0 0 0 5 0 5 0 6 1 5 0 5 1 5 1 6 1 5 1 5 1 5 1 5 1 5 2 5 1 5 2 5 2 4 2 5 2 5 2 4 2 5 3 4 2 5 3 4 2 5 3 4 3 4 3 4 3 4 3 4 3 4 3 4 4 4 -12 9 -3 -4 -4 -4 -3 -4 -3 -4 -3 -4 -4 -5 -3 -4 -2 -5 -3 -4 -3 -5 -3 -5 -2 -4 -2 -5 -3 -5 -2 -5 -2 -5 -2 -5 -2 -6 -1 -5 -2 -5 -2 -5 -1 -6 -1 -5 -1 -5 -1 -6 -1 -6 -1 -5 0 -6 -1 -5 0 -6 0 -6 0 -5 0 0zm237 -238l0 15 0 0 -11 0 -12 1 -11 1 -11 2 -11 3 -10 3 -10 3 -11 4 -9 5 -10 5 -9 5 -9 6 -9 6 -8 7 -9 7 -7 7 -8 8 -7 8 -6 8 -6 9 -6 9 -6 9 -5 10 -4 10 -4 10 -3 10 -3 11 -3 11 -2 11 -1 11 -1 11 0 12 -15 0 0 -13 1 -12 1 -12 2 -11 3 -12 3 -11 4 -11 4 -11 5 -10 5 -11 6 -10 6 -9 7 -9 7 -9 7 -9 8 -8 8 -8 9 -8 9 -7 9 -6 10 -6 10 -6 10 -5 11 -5 10 -4 11 -4 12 -3 11 -3 12 -2 12 -2 12 -1 12 0 0 0z"/>
  </g>
 </g>
</svg>
