<?xml version="1.0" encoding="UTF-8"?>
<!DOCTYPE svg PUBLIC "-//W3C//DTD SVG 1.1//EN" "http://www.w3.org/Graphics/SVG/1.1/DTD/svg11.dtd">
<!-- Creator: CorelDRAW X6 -->
<svg xmlns="http://www.w3.org/2000/svg" xml:space="preserve" width="100%" height="100%" version="1.1" shape-rendering="geometricPrecision" text-rendering="geometricPrecision" image-rendering="optimizeQuality" fill-rule="evenodd" clip-rule="evenodd"
viewBox="0 0 500 500"
 xmlns:xlink="http://www.w3.org/1999/xlink">
 <g id="Layer_x0020_1">
  <metadata id="CorelCorpID_0Corel-Layer"/>
  <path fill="#FFFFFF" d="M90 345l320 0 0 105c0,5 -5,10 -10,10l-300 0c-5,0 -10,-5 -10,-10l0 -105zm320 -160l-320 0 0 130 320 0 0 -130zm-320 -30l320 0 0 -105c0,-5 -5,-10 -10,-10l-300 0c-6,0 -10,5 -10,10l0 105z"/>
  <path fill="none" stroke="#FFFFFF" stroke-width="10" stroke-linejoin="round" d="M400 150l-300 0 5 13 0 14 -5 13 300 0 -5 -13 0 -14 5 -13zm0 160l-300 0 5 13 0 14 -5 13 300 0 -5 -13 0 -14 5 -13z"/>
 </g>
</svg>
