<?xml version="1.0" encoding="UTF-8"?>
<!DOCTYPE svg PUBLIC "-//W3C//DTD SVG 1.1//EN" "http://www.w3.org/Graphics/SVG/1.1/DTD/svg11.dtd">
<!-- Creator: CorelDRAW X6 -->
<svg xmlns="http://www.w3.org/2000/svg" xml:space="preserve" width="100%" height="100%" version="1.1" shape-rendering="geometricPrecision" text-rendering="geometricPrecision" image-rendering="optimizeQuality" fill-rule="evenodd" clip-rule="evenodd"
viewBox="0 0 500 500"
 xmlns:xlink="http://www.w3.org/1999/xlink">
 <defs>
   <linearGradient id="id0" gradientUnits="userSpaceOnUse" x1="409.998" y1="250" x2="89.998" y2="250">
    <stop offset="0" stop-color="#DDDEDE"/>
    <stop offset="0.639216" stop-color="whitesmoke"/>
    <stop offset="1" stop-color="#DDDEDE"/>
   </linearGradient>
   <linearGradient id="id1" gradientUnits="userSpaceOnUse" x1="406.798" y1="250" x2="93.198" y2="250">
    <stop offset="0" stop-color="#008BFF"/>
    <stop offset="0.639216" stop-color="#4EAFFF"/>
    <stop offset="1" stop-color="#008BFF"/>
   </linearGradient>
 </defs>
 <g id="Layer_x0020_1">
  <metadata id="CorelCorpID_0Corel-Layer"/>
  <path fill="url(#id0)" stroke="#434242" stroke-width="10" stroke-linejoin="round" d="M90 345l320 0 0 105c0,5 -5,10 -10,10l-300 0c-5,0 -10,-5 -10,-10l0 -105zm320 -160l-320 0 0 130 320 0 0 -130zm-320 -30l320 0 0 -105c0,-5 -5,-10 -10,-10l-300 0c-6,0 -10,5 -10,10l0 105z"/>
  <path fill="url(#id1)" stroke="#434242" stroke-width="5" d="M410 315l-320 0 5 10 0 10 -5 10 320 0 -5 -10 0 -10 5 -10zm0 -160l-320 0 5 10 0 10 -5 10 320 0 -5 -10 0 -10 5 -10z"/>
  <path fill="none" stroke="#434242" stroke-width="2.5" d="M95 165l310 0m0 10l-310 0m0 150l310 0m0 10l-310 0"/>
 </g>
</svg>
