<?xml version="1.0" encoding="UTF-8"?>
<!DOCTYPE svg PUBLIC "-//W3C//DTD SVG 1.1//EN" "http://www.w3.org/Graphics/SVG/1.1/DTD/svg11.dtd">
<!-- Creator: CorelDRAW X6 -->
<svg xmlns="http://www.w3.org/2000/svg" xml:space="preserve" width="100%" height="100%" version="1.1" style="shape-rendering:geometricPrecision; text-rendering:geometricPrecision; image-rendering:optimizeQuality; fill-rule:evenodd; clip-rule:evenodd"
viewBox="0 0 500 500"
 xmlns:xlink="http://www.w3.org/1999/xlink">
 <defs>
  <style type="text/css">
   <![CDATA[
    .str1 {stroke:#434242;stroke-width:5}
    .str0 {stroke:#434242;stroke-width:10;stroke-linejoin:round}
    .fil4 {fill:none}
    .fil3 {fill:#EDEDED}
    .fil2 {fill:white}
    .fil1 {fill:url(#id0)}
    .fil0 {fill:url(#id1)}
   ]]>
  </style>
  <linearGradient id="id0" gradientUnits="userSpaceOnUse" x1="329.998" y1="434.002" x2="329.998" y2="65.998">
   <stop offset="0" style="stop-color:#4EAFFF"/>
   <stop offset="1" style="stop-color:#279DFF"/>
  </linearGradient>
  <linearGradient id="id1" gradientUnits="userSpaceOnUse" x1="249.998" y1="20.001" x2="249.998" y2="479.999">
   <stop offset="0" style="stop-color:#008BFF"/>
   <stop offset="1" style="stop-color:#00AAFF"/>
  </linearGradient>
 </defs>
 <g id="Layer_x0020_1">
  <metadata id="CorelCorpID_0Corel-Layer"/>
  <polygon class="fil0 str0" points="50,20 80,420 250,480 420,420 450,20 "/>
  <polygon class="fil1" points="250,434 386,386 410,66 250,66 "/>
  <path class="fil2" d="M370 160l0 170c-27,0 -53,1 -80,1l-40 -41 0 -40 40 41 40 0 0 -91 -80 0 0 -40 0 0 50 -50 50 0 -50 50c23,0 47,0 70,0z"/>
  <path class="fil3" d="M130 160l0 170c27,0 53,1 80,1l40 -41 0 -40 -40 41 -40 0 0 -91 80 0 0 -40 0 0 -50 -50 -50 0 50 50c-23,0 -47,0 -70,0z"/>
  <path class="fil4 str1" d="M370 160l0 170c-27,0 -53,1 -80,1l-40 -41 -40 41c-27,0 -53,-1 -80,-1l0 -170c23,0 47,0 70,0l-50 -50 50 0 50 50 50 -50 50 0 -50 50c23,0 47,0 70,0zm-120 90l40 41 40 0 0 -91 -160 0 0 91 40 0 40 -41z"/>
 </g>
</svg>
