<?xml version="1.0" encoding="UTF-8"?>
<!DOCTYPE svg PUBLIC "-//W3C//DTD SVG 1.1//EN" "http://www.w3.org/Graphics/SVG/1.1/DTD/svg11.dtd">
<!-- Creator: CorelDRAW X6 -->
<svg xmlns="http://www.w3.org/2000/svg" xml:space="preserve" width="100%" height="100%" version="1.1" style="shape-rendering:geometricPrecision; text-rendering:geometricPrecision; image-rendering:optimizeQuality; fill-rule:evenodd; clip-rule:evenodd"
viewBox="0 0 500 500"
 xmlns:xlink="http://www.w3.org/1999/xlink">
 <defs>
  <style type="text/css">
   <![CDATA[
    .str0 {stroke:#5B5B5B;stroke-width:5}
    .fil2 {fill:none}
    .fil3 {fill:#5B5B5B}
    .fil1 {fill:whitesmoke}
    .fil0 {fill:white}
   ]]>
  </style>
 </defs>
 <g id="Layer_x0020_1">
  <metadata id="CorelCorpID_0Corel-Layer"/>
  <path class="fil0" d="M50 20l30 400 170 60 170 -60 30 -400 -400 0zm320 140l0 170c-27,0 -53,1 -80,1l-40 -41 -40 41c-27,0 -53,-1 -80,-1l0 -170c23,0 47,0 70,0l-50 -50 50 0 50 50 50 -50 50 0 -50 50c23,0 47,0 70,0zm-120 90l40 41 40 0 0 -91 -160 0 0 91 40 0 40 -41z"/>
  <path class="fil1" d="M250 434l136 -48 24 -320 -160 0 0 94 50 -50 50 0 -50 50c23,0 47,0 70,0l0 170c-27,0 -53,1 -80,1l-40 -41 0 144zm0 -234l0 50 40 41 40 0 0 -91 -80 0z"/>
  <polygon class="fil2 str0" points="50,20 80,420 250,480 420,420 450,20 "/>
  <path class="fil3" d="M370 160l0 170c-27,0 -53,1 -80,1l-40 -41 -40 41c-27,0 -53,-1 -80,-1l0 -170c23,0 47,0 70,0l-50 -50 50 0 50 50 50 -50 50 0 -50 50c23,0 47,0 70,0zm-120 90l40 41 40 0 0 -91 -160 0 0 91 40 0 40 -41z"/>
 </g>
</svg>
