<?xml version="1.0" encoding="UTF-8"?>
<!DOCTYPE svg PUBLIC "-//W3C//DTD SVG 1.1//EN" "http://www.w3.org/Graphics/SVG/1.1/DTD/svg11.dtd">
<!-- Creator: CorelDRAW X6 -->
<svg xmlns="http://www.w3.org/2000/svg" xml:space="preserve" width="100%" height="100%" version="1.1" style="shape-rendering:geometricPrecision; text-rendering:geometricPrecision; image-rendering:optimizeQuality; fill-rule:evenodd; clip-rule:evenodd"
viewBox="0 0 500 500"
 xmlns:xlink="http://www.w3.org/1999/xlink">
 <defs>
  <style type="text/css">
   <![CDATA[
    .str1 {stroke:#2B2A29;stroke-width:0.1}
    .str0 {stroke:#333333;stroke-width:15;stroke-linecap:round;stroke-linejoin:round}
    .fil0 {fill:none}
    .fil1 {fill:#434242}
   ]]>
  </style>
 </defs>
 <g id="Layer_x0020_1">
  <metadata id="CorelCorpID_0Corel-Layer"/>
  <polyline class="fil0 str0" points="80,200 190,305 300,115 415,230 "/>
  <path class="fil1" d="M64 88l375 0c5,0 10,4 10,10l0 220c0,6 -5,11 -10,11l-375 0c-6,0 -11,-5 -11,-11l0 -220c0,-6 5,-10 11,-10zm16 97c8,0 15,7 15,15 0,8 -7,15 -15,15 -8,0 -15,-7 -15,-15 0,-8 7,-15 15,-15zm335 30c8,0 15,7 15,15 0,8 -7,15 -15,15 -8,0 -15,-7 -15,-15 0,-8 7,-15 15,-15zm-115 -112c10,0 17,7 17,17 0,10 -7,17 -17,17 -10,0 -17,-7 -17,-17 0,-10 7,-17 17,-17zm-110 182c10,0 17,8 17,17 0,10 -7,18 -17,18 -10,0 -17,-8 -17,-18 0,-9 7,-17 17,-17zm-71 117l79 0 0 -31 -147 0c-12,0 -21,-10 -21,-21l0 -262c0,-12 9,-21 21,-21l398 0c12,0 21,9 21,21l0 262c0,11 -9,21 -21,21l-147 0 0 31 79 0c9,0 16,7 16,16l0 5 -294 0 0 -5c0,-9 7,-16 16,-16zm100 -60l62 0c3,0 6,2 6,5l0 5c0,3 -3,5 -6,5l-62 0c-3,0 -6,-2 -6,-5l0 -5c0,-3 3,-5 6,-5zm199 -3c5,0 10,5 10,11 0,5 -5,10 -10,10 -6,0 -11,-5 -11,-10 0,-6 5,-11 11,-11z"/>
  <rect class="fil0 str1" width="500" height="500"/>
 </g>
</svg>
