<?xml version="1.0" encoding="UTF-8"?>
<!DOCTYPE svg PUBLIC "-//W3C//DTD SVG 1.1//EN" "http://www.w3.org/Graphics/SVG/1.1/DTD/svg11.dtd">
<!-- Creator: CorelDRAW X6 -->
<svg xmlns="http://www.w3.org/2000/svg" xml:space="preserve" width="100%" height="100%" version="1.1" style="shape-rendering:geometricPrecision; text-rendering:geometricPrecision; image-rendering:optimizeQuality; fill-rule:evenodd; clip-rule:evenodd"
viewBox="0 0 500 500"
 xmlns:xlink="http://www.w3.org/1999/xlink">
 <defs>
  <style type="text/css">
   <![CDATA[
    .str1 {stroke:#2B2A29;stroke-width:0.1}
    .str0 {stroke:#008BFF;stroke-width:15;stroke-linecap:round;stroke-linejoin:round}
    .fil4 {fill:none}
    .fil2 {fill:#434242}
    .fil5 {fill:#008BFF}
    .fil1 {fill:#EBF6FF}
    .fil3 {fill:#EBEBEB}
    .fil0 {fill:#FBFBFC}
   ]]>
  </style>
 </defs>
 <g id="Layer_x0020_1">
  <metadata id="CorelCorpID_0Corel-Layer"/>
  <path class="fil0" d="M64 85l375 0c6,0 11,5 11,11l0 220c0,6 -5,11 -11,11l-375 0c-6,0 -11,-5 -11,-11l0 -220c0,-6 5,-11 11,-11z"/>
  <path class="fil1" d="M64 85l253 0c0,1 0,3 0,4 0,104 -59,193 -145,238l-108 0c-6,0 -11,-5 -11,-11l0 -220c0,-6 5,-11 11,-11z"/>
  <path class="fil2" d="M64 85l375 0c6,0 11,5 11,11l0 220c0,6 -5,11 -11,11l-375 0c-6,0 -11,-5 -11,-11l0 -220c0,-6 5,-11 11,-11zm55 315l79 0 0 -31 -147 0c-12,0 -21,-10 -21,-21l0 -263c0,-11 9,-21 21,-21l399 0c12,0 21,10 21,21l0 263c0,11 -9,21 -21,21l-147 0 0 31 79 0c8,0 15,7 15,16l0 5 -293 0 0 -5c0,-9 7,-16 15,-16z"/>
  <path class="fil3" d="M219 340l63 0c3,0 5,2 5,5l0 5c0,3 -2,5 -5,5l-63 0c-3,0 -5,-2 -5,-5l0 -5c0,-3 2,-5 5,-5z"/>
  <circle class="fil3" cx="418" cy="348" r="10"/>
  <polyline class="fil4 str0" points="80,200 190,305 300,115 415,230 "/>
  <path class="fil5" d="M80 185c8,0 15,7 15,15 0,8 -7,15 -15,15 -8,0 -15,-7 -15,-15 0,-8 7,-15 15,-15zm335 30c8,0 15,7 15,15 0,8 -7,15 -15,15 -8,0 -15,-7 -15,-15 0,-8 7,-15 15,-15zm-115 -112c10,0 17,7 17,17 0,10 -7,17 -17,17 -10,0 -17,-7 -17,-17 0,-10 7,-17 17,-17zm-110 182c10,0 17,8 17,17 0,10 -7,18 -17,18 -10,0 -17,-8 -17,-18 0,-9 7,-17 17,-17z"/>
  <rect class="fil4 str1" width="500" height="500"/>
 </g>
</svg>
