<?xml version="1.0" encoding="UTF-8"?>
<!DOCTYPE svg PUBLIC "-//W3C//DTD SVG 1.1//EN" "http://www.w3.org/Graphics/SVG/1.1/DTD/svg11.dtd">
<!-- Creator: CorelDRAW X6 -->
<svg xmlns="http://www.w3.org/2000/svg" xml:space="preserve" width="100%" height="100%" version="1.1" style="shape-rendering:geometricPrecision; text-rendering:geometricPrecision; image-rendering:optimizeQuality; fill-rule:evenodd; clip-rule:evenodd"
viewBox="0 0 500 500"
 xmlns:xlink="http://www.w3.org/1999/xlink">
 <defs>
  <style type="text/css">
   <![CDATA[
    .str3 {stroke:#2B2A29;stroke-width:0.1}
    .str1 {stroke:#434242;stroke-width:10}
    .str0 {stroke:#434242;stroke-width:15;stroke-linecap:round;stroke-linejoin:round}
    .str2 {stroke:#333333;stroke-width:15;stroke-linecap:round;stroke-linejoin:round}
    .fil0 {fill:none}
   ]]>
  </style>
 </defs>
 <g id="Layer_x0020_1">
  <metadata id="CorelCorpID_0Corel-Layer"/>
  <path class="fil0 str0" d="M150 385l50 0 0 -30 -140 0c-11,0 -20,-9 -20,-20l0 -250c0,-11 9,-20 20,-20l380 0c11,0 20,9 20,20l0 250c0,11 -9,20 -20,20l-140 0 0 30 50 0c8,0 15,7 15,15l0 35 -230 0 0 -35c0,-8 7,-15 15,-15zm270 -50l-30 0m-165 0l55 0"/>
  <path class="fil0 str1" d="M72 85l358 0c6,0 10,5 10,10l0 210c0,6 -4,10 -10,10l-358 0c-5,0 -10,-4 -10,-10l0 -210c0,-5 5,-10 10,-10z"/>
  <polyline class="fil0 str2" points="92,202 194,286 296,134 403,226 "/>
  <rect class="fil0 str3" width="500" height="500"/>
 </g>
</svg>
