<?xml version="1.0" encoding="UTF-8"?>
<!DOCTYPE svg PUBLIC "-//W3C//DTD SVG 1.1//EN" "http://www.w3.org/Graphics/SVG/1.1/DTD/svg11.dtd">
<!-- Creator: CorelDRAW X6 -->
<svg xmlns="http://www.w3.org/2000/svg" xml:space="preserve" width="100%" height="100%" version="1.1" style="shape-rendering:geometricPrecision; text-rendering:geometricPrecision; image-rendering:optimizeQuality; fill-rule:evenodd; clip-rule:evenodd"
viewBox="0 0 500 500"
 xmlns:xlink="http://www.w3.org/1999/xlink">
 <defs>
  <style type="text/css">
   <![CDATA[
    .str1 {stroke:#2B2A29;stroke-width:0.1}
    .str0 {stroke:#4D4D4D;stroke-width:5;stroke-linejoin:bevel}
    .fil3 {fill:none}
    .fil2 {fill:#4D4D4D}
    .fil0 {fill:#EBEBEB}
    .fil1 {fill:white}
   ]]>
  </style>
 </defs>
 <g id="Layer_x0020_1">
  <metadata id="CorelCorpID_0Corel-Layer"/>
  <path class="fil0 str0" d="M168 41l0 66c0,5 -6,11 -11,11l-66 0 77 -77z"/>
  <path class="fil1 str0" d="M168 40l232 0c6,0 10,5 10,10 0,206 0,288 0,400 0,6 -4,10 -10,10l-300 0c-5,0 -10,-4 -10,-10l0 -332 62 0c8,0 16,-8 16,-16l0 -62zm202 185l-60 0 0 195 60 0 0 -195zm-180 -35l-60 0 0 230 60 0 0 -230zm30 75l60 0 0 155 -60 0 0 -155z"/>
  <path class="fil2" d="M370 225l-60 0 0 195 60 0 0 -195zm-180 -35l-60 0 0 230 60 0 0 -230zm30 75l60 0 0 155 -60 0 0 -155z"/>
  <rect class="fil3 str1" width="500" height="500"/>
 </g>
</svg>
