<?xml version="1.0" encoding="UTF-8"?>
<!DOCTYPE svg PUBLIC "-//W3C//DTD SVG 1.1//EN" "http://www.w3.org/Graphics/SVG/1.1/DTD/svg11.dtd">
<!-- Creator: CorelDRAW X6 -->
<svg xmlns="http://www.w3.org/2000/svg" xml:space="preserve" width="100%" height="100%" version="1.1" style="shape-rendering:geometricPrecision; text-rendering:geometricPrecision; image-rendering:optimizeQuality; fill-rule:evenodd; clip-rule:evenodd"
viewBox="0 0 500 500"
 xmlns:xlink="http://www.w3.org/1999/xlink">
 <defs>
  <style type="text/css">
   <![CDATA[
    .str1 {stroke:#333333;stroke-width:0.1}
    .str0 {stroke:#333333;stroke-width:20;stroke-linejoin:round}
    .fil0 {fill:none}
    .fil1 {fill:#333333}
   ]]>
  </style>
 </defs>
 <g id="Layer_x0020_1">
  <metadata id="CorelCorpID_0Corel-Layer"/>
  <path class="fil0 str0" d="M411 451c0,6 -5,10 -10,10l-300 0c-6,0 -10,-4 -10,-10l0 -340 70 -70 240 0c5,0 10,6 10,12l0 398z"/>
  <rect class="fil0 str1" width="500" height="500"/>
  <path class="fil1" d="M370 225l-60 0 0 195 60 0 0 -195zm-203 -186l0 67c0,5 -6,11 -11,11l-67 0 78 -78zm23 151l-60 0 0 230 60 0 0 -230zm30 75l60 0 0 155 -60 0 0 -155z"/>
 </g>
</svg>
