<?xml version="1.0" encoding="UTF-8"?>
<!DOCTYPE svg PUBLIC "-//W3C//DTD SVG 1.1//EN" "http://www.w3.org/Graphics/SVG/1.1/DTD/svg11.dtd">
<!-- Creator: CorelDRAW X6 -->
<svg xmlns="http://www.w3.org/2000/svg" xml:space="preserve" width="100%" height="100%" version="1.1" style="shape-rendering:geometricPrecision; text-rendering:geometricPrecision; image-rendering:optimizeQuality; fill-rule:evenodd; clip-rule:evenodd"
viewBox="0 0 500 500"
 xmlns:xlink="http://www.w3.org/1999/xlink">
 <defs>
  <style type="text/css">
   <![CDATA[
    .str1 {stroke:#434242;stroke-width:10;stroke-linejoin:round}
    .str2 {stroke:#008BFF;stroke-width:10}
    .str0 {stroke:#434242;stroke-width:15;stroke-linejoin:round}
    .fil3 {fill:none}
    .fil2 {fill:#008BFF}
    .fil0 {fill:#DADADA}
    .fil1 {fill:url(#id0)}
   ]]>
  </style>
  <linearGradient id="id0" gradientUnits="userSpaceOnUse" x1="71.114" y1="56.556" x2="318.882" y2="393.444">
   <stop offset="0" style="stop-color:#DDDEDE"/>
   <stop offset="0.14902" style="stop-color:#EDEDED"/>
   <stop offset="0.439216" style="stop-color:whitesmoke"/>
   <stop offset="0.721569" style="stop-color:#EDEDED"/>
   <stop offset="1" style="stop-color:#DDDEDE"/>
  </linearGradient>
 </defs>
 <g id="Layer_x0020_1">
  <metadata id="CorelCorpID_0Corel-Layer"/>
  <path class="fil0 str0" d="M221 80l228 0c5,0 10,5 10,10l0 370c0,6 -5,10 -10,10l-288 0c-6,0 -10,-4 -10,-10l0 -310 70 -70z"/>
  <path class="fil1 str0" d="M132 30l208 0c6,0 10,5 10,10l0 370c0,6 -5,10 -10,10l-290 0c-5,0 -10,-4 -10,-10l0 -288 92 -92z"/>
  <path class="fil2 str1" d="M132 30l0 79c0,7 -6,13 -13,13l-79 0 92 -92z"/>
  <path class="fil3 str2" d="M60 370l200 0m-200 -35l265 0m-265 -35l165 0m-165 -35l200 0m-200 -35l135 0"/>
 </g>
</svg>
