<?xml version="1.0" encoding="UTF-8"?>
<!DOCTYPE svg PUBLIC "-//W3C//DTD SVG 1.1//EN" "http://www.w3.org/Graphics/SVG/1.1/DTD/svg11.dtd">
<!-- Creator: CorelDRAW X6 -->
<svg xmlns="http://www.w3.org/2000/svg" xml:space="preserve" width="100%" height="100%" version="1.1" style="shape-rendering:geometricPrecision; text-rendering:geometricPrecision; image-rendering:optimizeQuality; fill-rule:evenodd; clip-rule:evenodd"
viewBox="0 0 500 500"
 xmlns:xlink="http://www.w3.org/1999/xlink">
 <defs>
  <style type="text/css">
   <![CDATA[
    .str2 {stroke:red;stroke-width:0.1}
    .str1 {stroke:#333333;stroke-width:20;stroke-linejoin:round}
    .str0 {stroke:#333333;stroke-width:10;stroke-linejoin:round}
    .fil0 {fill:none}
   ]]>
  </style>
 </defs>
 <g id="Layer_x0020_1">
  <metadata id="CorelCorpID_0Corel-Layer"/>
  <path class="fil0 str0" d="M216 325l63 -63c3,-3 7,-6 13,-6 6,0 12,6 12,13l0 18c0,4 3,7 7,7l158 0c3,0 7,3 7,6l0 74c0,3 -4,6 -7,6l-158 0c-4,0 -7,3 -7,6l0 21c0,6 -6,12 -12,12 -6,0 -10,-3 -13,-6l-63 -63c-8,-8 -8,-16 0,-25zm-103 -285l0 67c0,5 -6,11 -11,11l-67 0 78 -78z"/>
  <path class="fil0 str1" d="M355 380l0 70c0,6 -4,10 -10,10l-300 0c-5,0 -10,-4 -10,-10l0 -340 70 -70 240 0c6,0 10,5 10,10l0 244"/>
 </g>
</svg>
