<?xml version="1.0" encoding="UTF-8"?>
<!DOCTYPE svg PUBLIC "-//W3C//DTD SVG 1.1//EN" "http://www.w3.org/Graphics/SVG/1.1/DTD/svg11.dtd">
<!-- Creator: CorelDRAW X6 -->
<svg xmlns="http://www.w3.org/2000/svg" xml:space="preserve" width="100%" height="100%" version="1.1" style="shape-rendering:geometricPrecision; text-rendering:geometricPrecision; image-rendering:optimizeQuality; fill-rule:evenodd; clip-rule:evenodd"
viewBox="0 0 500 500"
 xmlns:xlink="http://www.w3.org/1999/xlink">
 <defs>
  <style type="text/css">
   <![CDATA[
    .str2 {stroke:#333333;stroke-width:5}
    .str3 {stroke:#333333;stroke-width:7.5}
    .str0 {stroke:#333333;stroke-width:10;stroke-linejoin:round}
    .str1 {stroke:#333333;stroke-width:20;stroke-linejoin:round}
    .fil0 {fill:none}
   ]]>
  </style>
 </defs>
 <g id="Layer_x0020_1">
  <metadata id="CorelCorpID_0Corel-Layer"/>
  <path class="fil0 str0" d="M113 40l0 67c0,5 -6,11 -11,11l-67 0 78 -78z"/>
  <path class="fil0 str1" d="M355 420l0 30c0,5 -5,10 -10,10l-300 0c-6,0 -10,-4 -10,-10l0 -340 70 -70 240 0c6,0 10,5 10,10l0 190"/>
  <path class="fil0 str0" d="M245 270l42 0 0 0 120 0 0 0 43 0c11,0 20,9 20,20l0 70c0,11 -9,20 -20,20l-43 0 0 -35 -120 0 0 35 -42 0c-11,0 -20,-9 -20,-20l0 -70c0,-11 9,-20 20,-20zm-134 -232l0 67c0,5 -6,11 -11,11l-67 0 78 -78z"/>
  <circle class="fil0 str2" cx="440" cy="300" r="10"/>
  <path class="fil0 str3" d="M306 369l65 0m-65 15l45 0m-45 15l85 0m-104 -129l120 0 0 -30 -120 0 0 30zm0 75l120 0 0 75 -120 0 0 -75z"/>
 </g>
</svg>
