<?xml version="1.0" encoding="UTF-8"?>
<!DOCTYPE svg PUBLIC "-//W3C//DTD SVG 1.1//EN" "http://www.w3.org/Graphics/SVG/1.1/DTD/svg11.dtd">
<!-- Creator: CorelDRAW X6 -->
<svg xmlns="http://www.w3.org/2000/svg" xml:space="preserve" width="100%" height="100%" version="1.1" style="shape-rendering:geometricPrecision; text-rendering:geometricPrecision; image-rendering:optimizeQuality; fill-rule:evenodd; clip-rule:evenodd"
viewBox="0 0 500 500"
 xmlns:xlink="http://www.w3.org/1999/xlink">
 <defs>
  <style type="text/css">
   <![CDATA[
    .str1 {stroke:#333333;stroke-width:10}
    .str0 {stroke:#333333;stroke-width:15;stroke-linejoin:bevel}
    .fil1 {fill:none}
    .fil0 {fill:#333333}
   ]]>
  </style>
 </defs>
 <g id="Layer_x0020_1">
  <metadata id="CorelCorpID_0Corel-Layer"/>
  <path class="fil0" d="M350 80l99 0c5,0 10,5 10,10l0 370c0,6 -5,10 -10,10l-288 0c-6,0 -10,-4 -10,-10l0 -40 189 0c5,0 10,-4 10,-10l0 -330zm-214 -57l0 89c0,7 -7,14 -14,14l-89 0 103 -103z"/>
  <path class="fil1 str0" d="M136 30l204 0c6,0 10,5 10,10l0 370c0,6 -5,10 -10,10l-290 0c-5,0 -10,-4 -10,-10l0 -284 79 0c9,0 17,-8 17,-17l0 -79z"/>
  <path class="fil1 str1" d="M60 370l200 0m-200 -35l265 0m-265 -35l165 0m-165 -35l200 0m-200 -35l135 0"/>
 </g>
</svg>
