<?xml version="1.0" encoding="UTF-8"?>
<!DOCTYPE svg PUBLIC "-//W3C//DTD SVG 1.1//EN" "http://www.w3.org/Graphics/SVG/1.1/DTD/svg11.dtd">
<!-- Creator: CorelDRAW X6 -->
<svg xmlns="http://www.w3.org/2000/svg" xml:space="preserve" width="100%" height="100%" version="1.1" style="shape-rendering:geometricPrecision; text-rendering:geometricPrecision; image-rendering:optimizeQuality; fill-rule:evenodd; clip-rule:evenodd"
viewBox="0 0 500 500"
 xmlns:xlink="http://www.w3.org/1999/xlink">
 <defs>
  <style type="text/css">
   <![CDATA[
    .str0 {stroke:#4D4D4D;stroke-width:5;stroke-linejoin:bevel}
    .str1 {stroke:#4D4D4D;stroke-width:5;stroke-linecap:round;stroke-linejoin:round}
    .fil2 {fill:none}
    .fil1 {fill:#F3F3F4}
    .fil0 {fill:white}
    .fil3 {fill:#4D4D4D;fill-rule:nonzero}
   ]]>
  </style>
 </defs>
 <g id="Layer_x0020_1">
  <metadata id="CorelCorpID_0Corel-Layer"/>
  <path class="fil0" d="M132 30l208 0c6,0 10,5 10,10l0 370c0,6 -5,10 -10,10l-290 0c-5,0 -10,-4 -10,-10l0 -288 79 0 0 0c7,0 13,-6 13,-13l0 0 0 -79zm-72 335l200 0 0 10 -200 0 0 -10zm0 -35l265 0 0 10 -265 0 0 -10zm0 -35l165 0 0 10 -165 0 0 -10zm0 -35l200 0 0 10 -200 0 0 -10zm0 -35l135 0 0 10 -135 0 0 -10z"/>
  <path class="fil1" d="M350 80l99 0c5,0 10,5 10,10l0 370c0,6 -5,10 -10,10l-288 0c-6,0 -10,-4 -10,-10l0 -40 189 0c5,0 10,-4 10,-10l0 -330z"/>
  <path class="fil2 str0" d="M132 30l208 0c6,0 10,5 10,10l0 370c0,6 -5,10 -10,10l-290 0c-5,0 -10,-4 -10,-10l0 -288 79 0c7,0 13,-6 13,-13l0 -79zm218 50l99 0c5,0 10,5 10,10l0 370c0,6 -5,10 -10,10l-288 0c-6,0 -10,-4 -10,-10l0 -40"/>
  <path class="fil1 str1" d="M132 31l0 78c0,7 -6,13 -13,13l-78 0 91 -91z"/>
  <path class="fil3" d="M60 365l200 0 0 10 -200 0 0 -10zm0 -35l265 0 0 10 -265 0 0 -10zm0 -35l165 0 0 10 -165 0 0 -10zm0 -35l200 0 0 10 -200 0 0 -10zm0 -35l135 0 0 10 -135 0 0 -10z"/>
 </g>
</svg>
