<?xml version="1.0" encoding="UTF-8"?>
<!DOCTYPE svg PUBLIC "-//W3C//DTD SVG 1.1//EN" "http://www.w3.org/Graphics/SVG/1.1/DTD/svg11.dtd">
<!-- Creator: CorelDRAW X6 -->
<svg xmlns="http://www.w3.org/2000/svg" xml:space="preserve" width="100%" height="100%" version="1.1" style="shape-rendering:geometricPrecision; text-rendering:geometricPrecision; image-rendering:optimizeQuality; fill-rule:evenodd; clip-rule:evenodd"
viewBox="0 0 500 500"
 xmlns:xlink="http://www.w3.org/1999/xlink">
 <defs>
  <style type="text/css">
   <![CDATA[
    .str3 {stroke:#333333;stroke-width:5}
    .str1 {stroke:#333333;stroke-width:10;stroke-linejoin:round}
    .str0 {stroke:#333333;stroke-width:15}
    .str2 {stroke:#333333;stroke-width:20;stroke-linejoin:round}
    .fil0 {fill:none}
    .fil1 {fill:#333333}
   ]]>
  </style>
 </defs>
 <g id="Layer_x0020_1">
  <metadata id="CorelCorpID_0Corel-Layer"/>
  <path class="fil0 str0" d="M287 330l120 0 0 75 -120 0 0 -75zm0 -75l120 0 0 -30 -120 0 0 30z"/>
  <path class="fil1 str1" d="M111 38l0 67c0,5 -6,11 -11,11l-67 0 78 -78z"/>
  <path class="fil0 str2" d="M355 405l0 45c0,5 -5,10 -10,10l-300 0c-6,0 -10,-4 -10,-10l0 -340 70 -70 240 0c6,0 10,6 10,12l0 173"/>
  <path class="fil1" d="M245 255l205 0c11,0 20,9 20,20l0 70c0,11 -9,20 -20,20l-43 0 0 -35 -120 0 0 35 -42 0c-11,0 -20,-9 -20,-20l0 -70c0,-11 9,-20 20,-20zm195 20c-6,0 -10,4 -10,10 0,5 4,10 10,10 6,0 10,-5 10,-10 0,-6 -4,-10 -10,-10z"/>
  <path class="fil0 str3" d="M306 354l65 0m-65 15l45 0m-45 15l85 0"/>
 </g>
</svg>
