<?xml version="1.0" encoding="UTF-8"?>
<!DOCTYPE svg PUBLIC "-//W3C//DTD SVG 1.1//EN" "http://www.w3.org/Graphics/SVG/1.1/DTD/svg11.dtd">
<!-- Creator: CorelDRAW X6 -->
<svg xmlns="http://www.w3.org/2000/svg" xml:space="preserve" width="100%" height="100%" version="1.1" style="shape-rendering:geometricPrecision; text-rendering:geometricPrecision; image-rendering:optimizeQuality; fill-rule:evenodd; clip-rule:evenodd"
viewBox="0 0 500 500"
 xmlns:xlink="http://www.w3.org/1999/xlink">
 <defs>
  <style type="text/css">
   <![CDATA[
    .str1 {stroke:#333333;stroke-width:5;stroke-linejoin:round}
    .str0 {stroke:#4D4D4D;stroke-width:5;stroke-linejoin:bevel}
    .fil0 {fill:white}
    .fil1 {fill:#F3F3F4}
   ]]>
  </style>
 </defs>
 <g id="Layer_x0020_1">
  <metadata id="CorelCorpID_0Corel-Layer"/>
  <path class="fil0 str0" d="M113 40l232 0c6,0 10,4 10,10l0 122 -24 0c-4,0 -8,4 -8,9l0 70 -70 0c-4,0 -8,3 -8,8l0 52c0,5 4,8 8,8l70 0 0 70c0,5 4,8 8,8l24 0 0 53c0,6 -4,10 -10,10l-300 0c-6,0 -10,-4 -10,-10l0 -332 62 0c8,0 16,-8 16,-16l0 -62z"/>
  <path class="fil1 str0" d="M113 41l0 66c0,5 -6,11 -11,11l-66 0 77 -77z"/>
  <path class="fil1 str1" d="M392 181l0 70 70 0c4,0 8,3 8,8l0 52c0,5 -4,8 -8,8l-70 0 0 70c0,5 -4,8 -8,8l-53 0c-4,0 -8,-3 -8,-8l0 -70 -70 0c-4,0 -8,-3 -8,-8l0 -52c0,-5 4,-8 8,-8l70 0 0 -70c0,-5 4,-9 8,-9l53 0c4,0 8,4 8,9z"/>
 </g>
</svg>
