<?xml version="1.0" encoding="UTF-8"?>
<!DOCTYPE svg PUBLIC "-//W3C//DTD SVG 1.1//EN" "http://www.w3.org/Graphics/SVG/1.1/DTD/svg11.dtd">
<!-- Creator: CorelDRAW X6 -->
<svg xmlns="http://www.w3.org/2000/svg" xml:space="preserve" width="100%" height="100%" version="1.1" style="shape-rendering:geometricPrecision; text-rendering:geometricPrecision; image-rendering:optimizeQuality; fill-rule:evenodd; clip-rule:evenodd"
viewBox="0 0 500 500"
 xmlns:xlink="http://www.w3.org/1999/xlink">
 <defs>
  <style type="text/css">
   <![CDATA[
    .str2 {stroke:red;stroke-width:0.1}
    .str1 {stroke:#4D4D4D;stroke-width:5}
    .str0 {stroke:#4D4D4D;stroke-width:5;stroke-linejoin:bevel}
    .fil3 {fill:none}
    .fil2 {fill:#4D4D4D}
    .fil1 {fill:#F3F3F4}
    .fil0 {fill:white}
   ]]>
  </style>
 </defs>
 <g id="Layer_x0020_1">
  <metadata id="CorelCorpID_0Corel-Layer"/>
  <path class="fil0" d="M113 40l232 0c6,0 10,5 10,10l0 190 53 0 0 30 42 0c11,0 20,9 20,20l0 70c0,11 -9,20 -20,20l-42 0 0 40 -53 0 0 30c0,6 -4,10 -10,10l-300 0c-5,0 -10,-4 -10,-10l0 -332 62 0c8,0 16,-8 16,-16l0 -62z"/>
  <path class="fil1 str0" d="M113 41l0 66c0,5 -6,11 -11,11l-66 0 77 -77z"/>
  <rect class="fil1 str1" x="225" y="270" width="245" height="110" rx="23" ry="20"/>
  <circle class="fil2" cx="440" cy="300" r="10"/>
  <path class="fil3 str0" d="M113 40l232 0c6,0 10,5 10,10l0 190 53 0 0 30 42 0c11,0 20,9 20,20l0 70c0,11 -9,20 -20,20l-42 0 0 40 -53 0 0 30c0,6 -4,10 -10,10l-300 0c-5,0 -10,-4 -10,-10l0 -332 62 0c8,0 16,-8 16,-16l0 -62z"/>
  <path class="fil1 str1" d="M288 270l120 0 0 -30 -120 0 0 30zm0 75l120 0 0 75 -120 0 0 -75z"/>
  <path class="fil3 str1" d="M306 369l65 0m-65 15l45 0m-45 15l85 0"/>
 </g>
</svg>
