<?xml version="1.0" encoding="UTF-8"?>
<!DOCTYPE svg PUBLIC "-//W3C//DTD SVG 1.1//EN" "http://www.w3.org/Graphics/SVG/1.1/DTD/svg11.dtd">
<!-- Creator: CorelDRAW X6 -->
<svg xmlns="http://www.w3.org/2000/svg" xml:space="preserve" width="100%" height="100%" version="1.1" style="shape-rendering:geometricPrecision; text-rendering:geometricPrecision; image-rendering:optimizeQuality; fill-rule:evenodd; clip-rule:evenodd"
viewBox="0 0 500 500"
 xmlns:xlink="http://www.w3.org/1999/xlink">
 <defs>
  <style type="text/css">
   <![CDATA[
    .str3 {stroke:#4587C6;stroke-width:0.1}
    .str1 {stroke:#333333;stroke-width:10;stroke-linejoin:round}
    .str0 {stroke:#333333;stroke-width:15;stroke-linejoin:round}
    .str2 {stroke:#333333;stroke-width:7.777}
    .fil2 {fill:none}
    .fil1 {fill:#008BFF}
    .fil0 {fill:url(#id0)}
   ]]>
  </style>
  <linearGradient id="id0" gradientUnits="userSpaceOnUse" x1="152.202" y1="47.887" x2="457.91" y2="452.213">
   <stop offset="0" style="stop-color:#DDDEDE"/>
   <stop offset="0.14902" style="stop-color:#EDEDED"/>
   <stop offset="0.439216" style="stop-color:#FDFDFD"/>
   <stop offset="0.721569" style="stop-color:#EBEBEB"/>
   <stop offset="1" style="stop-color:#DDDEDE"/>
  </linearGradient>
 </defs>
 <g id="Layer_x0020_1">
  <metadata id="CorelCorpID_0Corel-Layer"/>
  <path class="fil0 str0" d="M230 40l225 0c6,0 10,5 10,10l0 400c0,6 -4,10 -10,10l-300 0c-5,0 -10,-4 -10,-10l0 -325 85 -85z"/>
  <path class="fil1 str1" d="M230 40l0 73c0,6 -6,12 -12,12l-73 0 85 -85z"/>
  <path class="fil1 str2" d="M284 325l-63 -63c-3,-3 -6,-6 -13,-6 -6,0 -12,6 -12,13l0 18c0,4 -3,7 -7,7l-158 0c-3,0 -7,3 -7,6l0 74c0,3 4,6 7,6l158 0c4,0 7,3 7,6l0 21c0,6 6,12 12,12 7,0 10,-3 13,-6l63 -63c8,-8 8,-16 0,-25z"/>
 </g>
</svg>
