<?xml version="1.0" encoding="UTF-8"?>
<!DOCTYPE svg PUBLIC "-//W3C//DTD SVG 1.1//EN" "http://www.w3.org/Graphics/SVG/1.1/DTD/svg11.dtd">
<!-- Creator: CorelDRAW X6 -->
<svg xmlns="http://www.w3.org/2000/svg" xml:space="preserve" width="100%" height="100%" version="1.1" style="shape-rendering:geometricPrecision; text-rendering:geometricPrecision; image-rendering:optimizeQuality; fill-rule:evenodd; clip-rule:evenodd"
viewBox="0 0 500 500"
 xmlns:xlink="http://www.w3.org/1999/xlink">
 <defs>
  <style type="text/css">
   <![CDATA[
    .str2 {stroke:#333333;stroke-width:10}
    .str1 {stroke:#333333;stroke-width:10;stroke-linejoin:round}
    .str0 {stroke:#333333;stroke-width:15;stroke-linejoin:round}
    .fil1 {fill:#008BFF}
    .fil0 {fill:url(#id0)}
    .fil2 {fill:url(#id1)}
   ]]>
  </style>
  <linearGradient id="id0" gradientUnits="userSpaceOnUse" x1="42.144" y1="47.837" x2="347.852" y2="452.163">
   <stop offset="0" style="stop-color:#DDDEDE"/>
   <stop offset="0.14902" style="stop-color:#EDEDED"/>
   <stop offset="0.439216" style="stop-color:#FDFDFD"/>
   <stop offset="0.721569" style="stop-color:#EBEBEB"/>
   <stop offset="1" style="stop-color:#DDDEDE"/>
  </linearGradient>
  <radialGradient id="id1" gradientUnits="objectBoundingBox" cx="50%" cy="49%" r="50%" fx="50%" fy="49%">
   <stop offset="0" style="stop-color:#4EAFFF"/>
   <stop offset="1" style="stop-color:#008BFF"/>
  </radialGradient>
 </defs>
 <g id="Layer_x0020_1">
  <metadata id="CorelCorpID_0Corel-Layer"/>
  <path class="fil0 str0" d="M120 40l225 0c6,0 10,4 10,10l0 400c0,6 -4,10 -10,10l-300 0c-6,0 -10,-4 -10,-10l0 -325 85 -85z"/>
  <path class="fil1 str1" d="M120 40l0 73c0,6 -6,12 -12,12l-73 0 85 -85z"/>
  <path class="fil2 str2" d="M392 181l0 70 70 0c4,0 8,3 8,8l0 52c0,5 -4,8 -8,8l-70 0 0 70c0,5 -4,8 -8,8l-53 0c-4,0 -8,-3 -8,-8l0 -70 -70 0c-4,0 -8,-3 -8,-8l0 -52c0,-5 4,-8 8,-8l70 0 0 -70c0,-5 4,-9 8,-9l53 0c4,0 8,4 8,9z"/>
 </g>
</svg>
