<?xml version="1.0" encoding="UTF-8"?>
<!DOCTYPE svg PUBLIC "-//W3C//DTD SVG 1.1//EN" "http://www.w3.org/Graphics/SVG/1.1/DTD/svg11.dtd">
<!-- Creator: CorelDRAW X6 -->
<svg xmlns="http://www.w3.org/2000/svg" xml:space="preserve" width="100%" height="100%" version="1.1" style="shape-rendering:geometricPrecision; text-rendering:geometricPrecision; image-rendering:optimizeQuality; fill-rule:evenodd; clip-rule:evenodd"
viewBox="0 0 500 500"
 xmlns:xlink="http://www.w3.org/1999/xlink">
 <defs>
  <style type="text/css">
   <![CDATA[
    .str2 {stroke:#4587C6;stroke-width:0.1}
    .str0 {stroke:#4D4D4D;stroke-width:5;stroke-linejoin:bevel}
    .str1 {stroke:#4D4D4D;stroke-width:5}
    .fil2 {fill:none}
    .fil1 {fill:#F3F3F4}
    .fil0 {fill:white}
   ]]>
  </style>
 </defs>
 <g id="Layer_x0020_1">
  <metadata id="CorelCorpID_0Corel-Layer"/>
  <path class="fil0" d="M113 40l232 0c6,0 10,5 10,10l0 244 -129 0c-3,0 -6,3 -6,6l0 74c0,3 3,6 6,6l129 0 0 70c0,6 -4,10 -10,10l-300 0c-5,0 -10,-4 -10,-10l0 -332 62 0c8,0 16,-8 16,-16l0 -62z"/>
  <path class="fil1 str0" d="M113 41l0 66c0,5 -6,11 -11,11l-66 0 77 -77z"/>
  <path class="fil2 str0" d="M113 40l232 0c6,0 10,5 10,10l0 244 -129 0c-3,0 -6,3 -6,6l0 74c0,3 3,6 6,6l129 0 0 70c0,6 -4,10 -10,10l-300 0c-5,0 -10,-4 -10,-10l0 -332 62 0c8,0 16,-8 16,-16l0 -62z"/>
  <path class="fil1 str1" d="M479 325l-63 -63c-3,-3 -6,-6 -12,-6 -6,0 -13,6 -13,13l0 18c0,4 -3,7 -6,7l-159 0c-3,0 -6,3 -6,6l0 74c0,3 3,6 6,6l159 0c3,0 6,3 6,6l0 21c0,6 7,12 13,12 6,0 9,-3 12,-6l63 -63c9,-8 9,-16 0,-25z"/>
 </g>
</svg>
