<?xml version="1.0" encoding="UTF-8"?>
<!DOCTYPE svg PUBLIC "-//W3C//DTD SVG 1.1//EN" "http://www.w3.org/Graphics/SVG/1.1/DTD/svg11.dtd">
<!-- Creator: CorelDRAW X6 -->
<svg xmlns="http://www.w3.org/2000/svg" xml:space="preserve" width="100%" height="100%" version="1.1" style="shape-rendering:geometricPrecision; text-rendering:geometricPrecision; image-rendering:optimizeQuality; fill-rule:evenodd; clip-rule:evenodd"
viewBox="0 0 500 500"
 xmlns:xlink="http://www.w3.org/1999/xlink">
 <defs>
  <style type="text/css">
   <![CDATA[
    .str1 {stroke:#333333;stroke-width:10;stroke-linejoin:round}
    .str2 {stroke:#333333;stroke-width:20;stroke-linejoin:round}
    .str0 {stroke:#333333;stroke-width:10}
    .fil0 {fill:none}
    .fil1 {fill:#333333}
   ]]>
  </style>
 </defs>
 <g id="Layer_x0020_1">
  <metadata id="CorelCorpID_0Corel-Layer"/>
  <g id="_787011552">
   <path class="fil0 str0" d="M479 325l-63 -63c-3,-3 -6,-6 -12,-6 -6,0 -13,6 -13,13l0 18c0,4 -3,7 -6,7l-159 0c-3,0 -6,3 -6,6l0 74c0,3 3,6 6,6l159 0c3,0 6,3 6,6l0 21c0,6 7,12 13,12 6,0 9,-3 12,-6l63 -63c9,-8 9,-16 0,-25z"/>
   <path class="fil1 str1" d="M111 38l0 67c0,5 -6,11 -11,11l-67 0 78 -78z"/>
   <path class="fil0 str2" d="M355 380l0 70c0,5 -5,10 -10,10l-300 0c-6,0 -10,-4 -10,-10l0 -340 70 -70 240 0c6,0 10,6 10,12l0 242"/>
  </g>
 </g>
</svg>
