<?xml version="1.0" encoding="UTF-8"?>
<!DOCTYPE svg PUBLIC "-//W3C//DTD SVG 1.1//EN" "http://www.w3.org/Graphics/SVG/1.1/DTD/svg11.dtd">

<svg xmlns="http://www.w3.org/2000/svg" xml:space="preserve" width="100%" height="100%" version="1.1" style="shape-rendering:geometricPrecision; text-rendering:geometricPrecision; image-rendering:optimizeQuality; fill-rule:evenodd; clip-rule:evenodd"
viewBox="0 0 5000 5000"
 xmlns:xlink="http://www.w3.org/1999/xlink">
 <defs>
  <style type="text/css">
   <![CDATA[
    .str0 {stroke:#434242;stroke-width:200}
    .fil0 {fill:none}
    .fil1 {fill:#434242}
   ]]>
  </style>
 </defs>
 <g id="Layer_x0020_1">
  <metadata id="CorelCorpID_0Corel-Layer"/>
  <circle class="fil0 str0" cx="2500" cy="2500" r="2100"/>
  <rect class="fil1" x="1200" y="3500" width="2600" height="300" rx="100" ry="100"/>
  <path class="fil1" d="M2700 3201l600 -600c50,-50 100,-100 100,-200 0,-100 -100,-200 -200,-200l-400 0 0 -1251c0,-83 -68,-150 -150,-150l-300 0c-83,0 -150,67 -150,150l0 1251 -400 0c-100,0 -200,100 -200,200 0,100 50,150 100,200l600 600c135,135 265,135 400,0z"/>
 </g>
</svg>
