<?xml version="1.0" encoding="UTF-8"?>
<!DOCTYPE svg PUBLIC "-//W3C//DTD SVG 1.1//EN" "http://www.w3.org/Graphics/SVG/1.1/DTD/svg11.dtd">

<svg xmlns="http://www.w3.org/2000/svg" xml:space="preserve" width="100%" height="100%" version="1.1" style="shape-rendering:geometricPrecision; text-rendering:geometricPrecision; image-rendering:optimizeQuality; fill-rule:evenodd; clip-rule:evenodd"
viewBox="0 0 500 500"
 xmlns:xlink="http://www.w3.org/1999/xlink">
 <defs>
  <style type="text/css">
   <![CDATA[
    .str1 {stroke:#434242;stroke-width:10}
    .str0 {stroke:#434242;stroke-width:30}
    .fil0 {fill:none}
    .fil1 {fill:#434242}
    .fil2 {fill:url(#id0)}
   ]]>
  </style>
  <linearGradient id="id0" gradientUnits="userSpaceOnUse" x1="250" y1="125.639" x2="250" y2="287.919">
   <stop offset="0" style="stop-color:#008BFF"/>
   <stop offset="1" style="stop-color:#00AAFF"/>
  </linearGradient>
 </defs>
 <g id="Layer_x0020_1">
  <metadata id="CorelCorpID_0Corel-Layer"/>
  <circle class="fil0 str0" cx="250" cy="250" r="210"/>
  <rect class="fil1" x="120" y="350" width="260" height="29.998" rx="10" ry="10"/>
  <path class="fil2 str1" d="M270 320l60 -60c5,-5 10,-10 10,-20 0,-10 -10,-20 -20,-20l-40 0 0 -125c0,-8 -7,-15 -15,-15l-30 0c-8,0 -15,7 -15,15l0 125 -40 0c-10,0 -20,10 -20,20 0,10 5,15 10,20l60 60c13,14 27,14 40,0z"/>
 </g>
</svg>
