<?xml version="1.0" encoding="UTF-8"?>
<!DOCTYPE svg PUBLIC "-//W3C//DTD SVG 1.1//EN" "http://www.w3.org/Graphics/SVG/1.1/DTD/svg11.dtd">

<svg xmlns="http://www.w3.org/2000/svg" xml:space="preserve" width="100%" height="100%" version="1.1" style="shape-rendering:geometricPrecision; text-rendering:geometricPrecision; image-rendering:optimizeQuality; fill-rule:evenodd; clip-rule:evenodd"
viewBox="0 0 500 500"
 xmlns:xlink="http://www.w3.org/1999/xlink">
 <defs>
  <style type="text/css">
   <![CDATA[
    .str1 {stroke:#434242;stroke-width:10;stroke-linecap:round}
    .str2 {stroke:#434242;stroke-width:10;stroke-linecap:round;stroke-linejoin:round}
    .str0 {stroke:#434242;stroke-width:20;stroke-linejoin:round}
    .fil0 {fill:none}
   ]]>
  </style>
 </defs>
 <g id="Layer_x0020_1">
  <metadata id="CorelCorpID_0Corel-Layer"/>
  <path class="fil0 str0" d="M405 95l64 64c6,6 6,15 0,21l-202 202 -127 42 42 -127 202 -202c6,-6 15,-6 21,0z"/>
  <path class="fil0 str1" d="M219 380c-4,-7 -9,-14 -15,-20 -6,-6 -13,-11 -20,-15"/>
  <g id="_1333988592">
   <line class="fil0 str1" x1="395" y1="141" x2="232" y2= "304" />
   <line class="fil0 str1" x1="423" y1="169" x2="260" y2= "332" />
  </g>
  <path class="fil0 str2" d="M350 299l0 151c0,11 -9,20 -20,20l-280 0c-11,0 -20,-9 -20,-20l0 -260 160 -160 140 0c11,0 20,9 20,20l0 79"/>
  <path class="fil0 str2" d="M160 190l-130 0 160 -160 0 130c0,17 -14,30 -30,30z"/>
 </g>
</svg>
