<?xml version="1.0" encoding="UTF-8"?>
<!DOCTYPE svg PUBLIC "-//W3C//DTD SVG 1.1//EN" "http://www.w3.org/Graphics/SVG/1.1/DTD/svg11.dtd">

<svg xmlns="http://www.w3.org/2000/svg" xml:space="preserve" width="100%" height="100%" version="1.1" style="shape-rendering:geometricPrecision; text-rendering:geometricPrecision; image-rendering:optimizeQuality; fill-rule:evenodd; clip-rule:evenodd"
viewBox="0 0 500 500"
 xmlns:xlink="http://www.w3.org/1999/xlink">
 <defs>
  <style type="text/css">
   <![CDATA[
    .str0 {stroke:#FFFFFF;stroke-width:10;stroke-linecap:round;stroke-linejoin:round}
    .fil0 {fill:none}
    .fil1 {fill:#FFFFFF}
   ]]>
  </style>
 </defs>
 <g id="Layer_x0020_1">
  <metadata id="CorelCorpID_0Corel-Layer"/>
  <path class="fil0 str0" d="M350 283l0 167c0,11 -9,20 -20,20l-280 0c-11,0 -20,-9 -20,-20l0 -260 160 -160 140 0c11,0 20,9 20,20l0 89"/>
  <path class="fil0 str0" d="M160 190l-130 0 160 -160 0 130c0,17 -14,30 -30,30z"/>
  <g id="_1677527024">
   <path class="fil1" d="M350 125l85 85 -163 162 0 0 -51 17c-4,-11 -10,-22 -19,-31 -10,-9 -20,-15 -32,-19l17 -51 0 0 0 0 163 -163zm46 67l7 7c2,2 2,5 0,7l-134 135c-2,1 -5,1 -7,0l-7 -8c-2,-1 -2,-5 0,-7l134 -134c2,-2 5,-2 7,0zm-35 -35l7 7c2,2 2,5 0,7l-135 134c-2,2 -5,2 -7,0l-7 -7c-2,-2 -2,-5 0,-7l135 -134c1,-2 5,-2 7,0z"/>
   <path class="fil1" d="M207 394l-54 18c-4,2 -7,-1 -5,-5l17 -54c10,3 19,8 26,16 7,7 13,16 16,25z"/>
   <path class="fil1" d="M474 150l-64 -64c-6,-6 -15,-6 -21,0l-25 25 85 85 25 -25c6,-6 6,-16 0,-21z"/>
  </g>
 </g>
</svg>
