<?xml version="1.0" encoding="UTF-8"?>
<!DOCTYPE svg PUBLIC "-//W3C//DTD SVG 1.1//EN" "http://www.w3.org/Graphics/SVG/1.1/DTD/svg11.dtd">

<svg xmlns="http://www.w3.org/2000/svg" xml:space="preserve" width="100%" height="100%" version="1.1" style="shape-rendering:geometricPrecision; text-rendering:geometricPrecision; image-rendering:optimizeQuality; fill-rule:evenodd; clip-rule:evenodd"
viewBox="0 0 500 500"
 xmlns:xlink="http://www.w3.org/1999/xlink">
 <defs>
  <style type="text/css">
   <![CDATA[
    .str2 {stroke:#434242;stroke-width:5}
    .str0 {stroke:#434242;stroke-width:10;stroke-linecap:round;stroke-linejoin:round}
    .str1 {stroke:#434242;stroke-width:15;stroke-linejoin:round}
    .fil2 {fill:#434242}
    .fil1 {fill:#FEFEFE}
    .fil5 {fill:#0075D8}
    .fil6 {fill:#008BFF}
    .fil7 {fill:#289CFF}
    .fil3 {fill:#979798}
    .fil4 {fill:#CDCDCE}
    .fil0 {fill:#FFFFFF}
   ]]>
  </style>
 </defs>
 <g id="Layer_x0020_1">
  <metadata id="CorelCorpID_0Corel-Layer"/>
  <path class="fil0 str0" d="M190 30l140 0c11,0 20,9 20,20l0 400c0,11 -9,20 -20,20l-280 0c-11,0 -20,-9 -20,-20l0 -260 160 -160z"/>
  <path class="fil1 str0" d="M160 190l-130 0 160 -160 0 130c0,17 -14,30 -30,30z"/>
  <path class="fil2 str1" d="M400 88l64 63c6,6 6,16 0,22l-202 201 -127 43 42 -128 202 -201c6,-6 15,-6 21,0z"/>
  <rect class="fil3" transform="matrix(-2.12132 -2.12132 0.0642795 -0.0642795 424.911 211.53)" width="39.999" height="219.999"/>
  <polygon class="fil4" points="177,289 262,374 135,417 "/>
  <rect class="fil5" transform="matrix(0.707107 0.707107 -0.707107 0.707107 396.628 183.246)" width="39.997" height="229.998"/>
  <rect class="fil6" transform="matrix(0.707107 0.707107 -0.707107 0.707107 368.344 154.959)" width="39.999" height="230.001"/>
  <rect class="fil7" transform="matrix(0.707107 0.707107 -0.707107 0.707107 340.059 126.675)" width="40.001" height="230.001"/>
  <path class="fil2 str2" d="M135 417l66 -23c-3,-10 -9,-19 -17,-27 -7,-8 -17,-13 -27,-17l-22 67z"/>
 </g>
</svg>
