<?xml version="1.0" encoding="UTF-8"?>
<!DOCTYPE svg PUBLIC "-//W3C//DTD SVG 1.1//EN" "http://www.w3.org/Graphics/SVG/1.1/DTD/svg11.dtd">

<svg xmlns="http://www.w3.org/2000/svg" xml:space="preserve" width="100%" height="100%" version="1.1" style="shape-rendering:geometricPrecision; text-rendering:geometricPrecision; image-rendering:optimizeQuality; fill-rule:evenodd; clip-rule:evenodd"
viewBox="0 0 500 500"
 xmlns:xlink="http://www.w3.org/1999/xlink">
 <defs>
  <style type="text/css">
   <![CDATA[
    .str0 {stroke:#434242;stroke-width:10}
    .str1 {stroke:#434242;stroke-width:15}
    .fil3 {fill:none}
    .fil0 {fill:url(#id0)}
    .fil1 {fill:url(#id1)}
    .fil2 {fill:url(#id2)}
   ]]>
  </style>
  <linearGradient id="id0" gradientUnits="userSpaceOnUse" x1="39.999" y1="240" x2="459.999" y2="240">
   <stop offset="0" style="stop-color:#C5C5C5"/>
   <stop offset="0.490196" style="stop-color:whitesmoke"/>
   <stop offset="1" style="stop-color:#C5C5C5"/>
  </linearGradient>
  <linearGradient id="id1" gradientUnits="userSpaceOnUse" x1="247.499" y1="229.202" x2="247.499" y2="350.8">
   <stop offset="0" style="stop-color:#FCFCFD"/>
   <stop offset="1" style="stop-color:#FFFFFF"/>
  </linearGradient>
  <linearGradient id="id2" gradientUnits="userSpaceOnUse" xlink:href="#id1" x1="249.999" y1="129.801" x2="249.999" y2="255.199">
  </linearGradient>
 </defs>
 <g id="Layer_x0020_1">
  <metadata id="CorelCorpID_0Corel-Layer"/>
  <rect class="fil0" x="40" y="110" width="420" height="260" rx="20" ry="20"/>
  <polygon class="fil1 str0" points="435,370 60,370 250,210 "/>
  <path class="fil2 str0" d="M460 155l0 -25c0,-11 -9,-20 -20,-20l-380 0c-11,0 -20,9 -20,20l0 25 190 110c15,10 25,10 40,0l190 -110z"/>
  <rect class="fil3 str1" x="40" y="110" width="420" height="260" rx="20" ry="20"/>
 </g>
</svg>
