<?xml version="1.0" encoding="UTF-8"?>
<!DOCTYPE svg PUBLIC "-//W3C//DTD SVG 1.1//EN" "http://www.w3.org/Graphics/SVG/1.1/DTD/svg11.dtd">

<svg xmlns="http://www.w3.org/2000/svg" xml:space="preserve" width="100%" height="100%" version="1.1" style="shape-rendering:geometricPrecision; text-rendering:geometricPrecision; image-rendering:optimizeQuality; fill-rule:evenodd; clip-rule:evenodd"
viewBox="0 0 500 500"
 xmlns:xlink="http://www.w3.org/1999/xlink">
 <defs>
  <style type="text/css">
   <![CDATA[
    .str0 {stroke:#434242;stroke-width:40}
    .str1 {stroke:#434242;stroke-width:15}
    .fil2 {fill:none}
    .fil3 {fill:#434242}
    .fil0 {fill:url(#id0)}
    .fil1 {fill:url(#id1)}
   ]]>
  </style>
  <linearGradient id="id0" gradientUnits="userSpaceOnUse" x1="250" y1="166.4" x2="250" y2="333.6">
   <stop offset="0" style="stop-color:#FCFCFD"/>
   <stop offset="1" style="stop-color:#FFFFFF"/>
  </linearGradient>
  <radialGradient id="id1" gradientUnits="objectBoundingBox" cx="50%" cy="48%" r="50%" fx="50%" fy="48%">
   <stop offset="0" style="stop-color:#00AAFF"/>
   <stop offset="1" style="stop-color:#008BFF"/>
  </radialGradient>
 </defs>
 <g id="Layer_x0020_1">
  <metadata id="CorelCorpID_0Corel-Layer"/>
  <path class="fil0 str0" d="M460 250c-40,-70 -120,-110 -210,-110 -90,0 -170,40 -210,110 40,70 120,110 210,110 90,0 170,-40 210,-110z"/>
  <circle class="fil1" cx="250" cy="250" r="70"/>
  <g>
   <path class="fil2 str1" d="M308 178l14 14c2,2 2,5 0,7l-51 51 51 51c2,2 2,5 0,7l-14 14c-2,2 -5,2 -7,0l-51 -51 -51 51c-2,2 -5,2 -7,0l-14 -14c-2,-2 -2,-5 0,-7l51 -51 -51 -51c-2,-2 -2,-5 0,-7l14 -14c2,-2 5,-2 7,0l51 51 51 -51c2,-2 5,-2 7,0z"/>
   <path id="1" class="fil3" d="M308 178l14 14c2,2 2,5 0,7l-51 51 51 51c2,2 2,5 0,7l-14 14c-2,2 -5,2 -7,0l-51 -51 -51 51c-2,2 -5,2 -7,0l-14 -14c-2,-2 -2,-5 0,-7l51 -51 -51 -51c-2,-2 -2,-5 0,-7l14 -14c2,-2 5,-2 7,0l51 51 51 -51c2,-2 5,-2 7,0z"/>
  </g>
 </g>
</svg>
