<?xml version="1.0" encoding="UTF-8"?>
<!DOCTYPE svg PUBLIC "-//W3C//DTD SVG 1.1//EN" "http://www.w3.org/Graphics/SVG/1.1/DTD/svg11.dtd">

<svg xmlns="http://www.w3.org/2000/svg" xml:space="preserve" width="100%" height="100%" version="1.1" style="shape-rendering:geometricPrecision; text-rendering:geometricPrecision; image-rendering:optimizeQuality; fill-rule:evenodd; clip-rule:evenodd"
viewBox="0 0 5000 5000"
 xmlns:xlink="http://www.w3.org/1999/xlink">
 <defs>
  <style type="text/css">
   <![CDATA[
    .str1 {stroke:#FFFFFF;stroke-width:100}
    .str0 {stroke:#FFFFFF;stroke-width:400;stroke-linejoin:round}
    .fil0 {fill:none}
    .fil1 {fill:#FFFFFF}
   ]]>
  </style>
 </defs>
 <g id="Layer_x0020_1">
  <metadata id="CorelCorpID_0Corel-Layer"/>
  <path class="fil0 str0" d="M4600 2500c-400,-700 -1200,-1100 -2100,-1100 -900,0 -1700,400 -2100,1100 400,700 1200,1100 2100,1100 900,0 1700,-400 2100,-1100z"/>
  <circle class="fil0 str1" cx="2500" cy="2500" r="750"/>
  <path class="fil1" d="M3083 1775l142 142c19,19 19,51 0,70l-513 513 513 513c19,19 19,51 0,70l-142 142c-19,19 -51,19 -70,0l-513 -513 -513 513c-19,19 -51,19 -70,0l-142 -142c-19,-19 -19,-51 0,-70l513 -513 -513 -513c-19,-19 -19,-51 0,-70l142 -142c19,-19 51,-19 70,0l513 513 513 -513c19,-19 51,-19 70,0z"/>
 </g>
</svg>
