<?xml version="1.0" encoding="UTF-8"?>
<!DOCTYPE svg PUBLIC "-//W3C//DTD SVG 1.1//EN" "http://www.w3.org/Graphics/SVG/1.1/DTD/svg11.dtd">

<svg xmlns="http://www.w3.org/2000/svg" xml:space="preserve" width="100%" height="100%" version="1.1" style="shape-rendering:geometricPrecision; text-rendering:geometricPrecision; image-rendering:optimizeQuality; fill-rule:evenodd; clip-rule:evenodd"
viewBox="0 0 5000 5000"
 xmlns:xlink="http://www.w3.org/1999/xlink">
 <defs>
  <style type="text/css">
   <![CDATA[
    .str0 {stroke:#FFFFFF;stroke-width:400;stroke-linejoin:round}
    .fil0 {fill:none}
    .fil1 {fill:#FFFFFF}
   ]]>
  </style>
 </defs>
 <g id="Layer_x0020_1">
  <metadata id="CorelCorpID_0Corel-Layer"/>
  <path class="fil0 str0" d="M4600 2500c-400,-700 -1200,-1100 -2100,-1100 -900,0 -1700,400 -2100,1100 400,700 1200,1100 2100,1100 900,0 1700,-400 2100,-1100z"/>
  <path class="fil1" d="M2500 1700c442,0 800,358 800,800 0,442 -358,800 -800,800 -442,0 -800,-358 -800,-800 0,-442 358,-800 800,-800zm0 600c110,0 200,90 200,200 0,110 -90,200 -200,200 -110,0 -200,-90 -200,-200 0,-110 90,-200 200,-200zm-400 200c0,55 -45,100 -100,100 -55,0 -100,-45 -100,-100 0,-166 67,-316 176,-424 108,-109 258,-176 424,-176 55,0 100,45 100,100 0,55 -45,100 -100,100 -110,0 -210,45 -283,117 -72,73 -117,173 -117,283z"/>
 </g>
</svg>
