<?xml version="1.0" encoding="UTF-8"?>
<!DOCTYPE svg PUBLIC "-//W3C//DTD SVG 1.1//EN" "http://www.w3.org/Graphics/SVG/1.1/DTD/svg11.dtd">

<svg xmlns="http://www.w3.org/2000/svg" xml:space="preserve" width="100%" height="100%" version="1.1" style="shape-rendering:geometricPrecision; text-rendering:geometricPrecision; image-rendering:optimizeQuality; fill-rule:evenodd; clip-rule:evenodd"
viewBox="0 0 500 500"
 xmlns:xlink="http://www.w3.org/1999/xlink">
 <defs>
  <style type="text/css">
   <![CDATA[
    .fil2 {fill:none}
    .fil0 {fill:#434242}
    .fil5 {fill:#008BFF}
    .fil6 {fill:#00AAFF}
    .fil7 {fill:#E8E8E8}
    .fil4 {fill:#F0F0F0}
    .fil1 {fill:url(#id0)}
    .fil3 {fill:url(#id1)}
   ]]>
  </style>
  <linearGradient id="id0" gradientUnits="userSpaceOnUse" x1="231.2" y1="188.8" x2="108.8" y2="311.2">
   <stop offset="0" style="stop-color:#4C4B4C"/>
   <stop offset="1" style="stop-color:#1D1F1F"/>
  </linearGradient>
  <linearGradient id="id1" gradientUnits="userSpaceOnUse" xlink:href="#id0" x1="128.4" y1="291.6" x2="211.6" y2="208.4">
  </linearGradient>
 </defs>
 <g id="Layer_x0020_1">
  <metadata id="CorelCorpID_0Corel-Layer"/>
  <rect class="fil0" x="40" y="120" width="260" height="260" rx="30" ry="30"/>
  <path class="fil0" d="M460 390c0,5 -5,5 -10,0l-130 -130c-5,-5 -5,-15 0,-20l130 -130c5,-5 10,-5 10,0l0 280z"/>
  <circle class="fil1" cx="170" cy="250" r="90"/>
  <circle class="fil2" cx="170" cy="250" r="38"/>
  <circle class="fil3" cx="170" cy="250" r="65"/>
  <circle class="fil4" cx="170" cy="250" r="55"/>
  <circle class="fil5" cx="170" cy="250" r="50"/>
  <circle class="fil6" cx="170" cy="250" r="20"/>
  <circle class="fil7" cx="170" cy="250" r="5"/>
 </g>
</svg>
