<?xml version="1.0" encoding="UTF-8"?>
<!DOCTYPE svg PUBLIC "-//W3C//DTD SVG 1.1//EN" "http://www.w3.org/Graphics/SVG/1.1/DTD/svg11.dtd">

<svg xmlns="http://www.w3.org/2000/svg" xml:space="preserve" width="100%" height="100%" version="1.1" style="shape-rendering:geometricPrecision; text-rendering:geometricPrecision; image-rendering:optimizeQuality; fill-rule:evenodd; clip-rule:evenodd"
viewBox="0 0 5000 5000"
 xmlns:xlink="http://www.w3.org/1999/xlink">
 <defs>
  <style type="text/css">
   <![CDATA[
    .fil0 {fill:#434242}
   ]]>
  </style>
 </defs>
 <g id="Layer_x0020_1">
  <metadata id="CorelCorpID_0Corel-Layer"/>
  <path class="fil0" d="M2700 1200l-2000 0c-165,0 -300,135 -300,300l0 2000c0,165 135,300 300,300l2000 0c165,0 300,-135 300,-300l0 -2000c0,-165 -135,-300 -300,-300zm-553 1250l452 0c-26,-474 -419,-850 -899,-850 -480,0 -873,376 -899,850l452 0c25,-225 215,-400 447,-400 232,0 422,175 447,400zm452 100l-452 0c-25,225 -215,400 -447,400 -232,0 -422,-175 -447,-400l-452 0c26,474 419,850 899,850 480,0 873,-376 899,-850zm-899 -354c168,0 304,136 304,304 0,168 -136,304 -304,304 -168,0 -304,-136 -304,-304 0,-168 136,-304 304,-304zm0 154c83,0 150,67 150,150 0,83 -67,150 -150,150 -83,0 -150,-67 -150,-150 0,-83 67,-150 150,-150z"/>
  <path class="fil0" d="M4600 3900c0,50 -50,50 -100,0l-1300 -1300c-50,-50 -50,-150 0,-200l1300 -1300c50,-50 100,-50 100,0l0 2800z"/>
 </g>
</svg>
