<?xml version="1.0" encoding="UTF-8"?>
<!DOCTYPE svg PUBLIC "-//W3C//DTD SVG 1.1//EN" "http://www.w3.org/Graphics/SVG/1.1/DTD/svg11.dtd">

<svg xmlns="http://www.w3.org/2000/svg" xml:space="preserve" width="100%" height="100%" version="1.1" style="shape-rendering:geometricPrecision; text-rendering:geometricPrecision; image-rendering:optimizeQuality; fill-rule:evenodd; clip-rule:evenodd"
viewBox="0 0 500 500"
 xmlns:xlink="http://www.w3.org/1999/xlink">
 <defs>
  <style type="text/css">
   <![CDATA[
    .str1 {stroke:#434242;stroke-width:10}
    .str2 {stroke:#434242;stroke-width:15}
    .str0 {stroke:#434242;stroke-width:20;stroke-linejoin:round}
    .fil0 {fill:none}
   ]]>
  </style>
 </defs>
 <g id="Layer_x0020_1">
  <metadata id="CorelCorpID_0Corel-Layer"/>
  <path class="fil0 str0" d="M270 120l-200 0c-17,0 -30,14 -30,30l0 200c0,17 13,30 30,30l200 0c16,0 30,-13 30,-30l0 -67 141 107c6,5 13,5 13,0l0 -280c0,-5 -7,-5 -13,0l-141 107 0 -67c0,-16 -14,-30 -30,-30z"/>
  <circle class="fil0 str1" cx="170" cy="250" r="95"/>
  <circle class="fil0 str2" cx="170" cy="250" r="25"/>
 </g>
</svg>
