<?xml version="1.0" encoding="UTF-8"?>
<!DOCTYPE svg PUBLIC "-//W3C//DTD SVG 1.1//EN" "http://www.w3.org/Graphics/SVG/1.1/DTD/svg11.dtd">

<svg xmlns="http://www.w3.org/2000/svg" xml:space="preserve" width="100%" height="100%" version="1.1" style="shape-rendering:geometricPrecision; text-rendering:geometricPrecision; image-rendering:optimizeQuality; fill-rule:evenodd; clip-rule:evenodd"
viewBox="0 0 5000 5000"
 xmlns:xlink="http://www.w3.org/1999/xlink">
 <defs>
  <style type="text/css">
   <![CDATA[
    .fil1 {fill:none}
    .fil0 {fill:#434242}
   ]]>
  </style>
 </defs>
 <g id="Layer_x0020_1">
  <metadata id="CorelCorpID_0Corel-Layer"/>
  <path class="fil0" d="M2575 300l1325 0c110,0 200,90 200,200l0 4000c0,110 -90,200 -200,200l-2800 0c-110,0 -200,-90 -200,-200l0 -2525 1300 0c103,0 197,-42 265,-110 68,-68 110,-162 110,-265l0 -1300zm-1600 1525l1450 -1450 0 1225c0,62 -25,118 -66,159 -41,41 -97,66 -159,66l-1225 0z"/>
  <path class="fil1" d="M2500 300l0 1300c0,165 -135,300 -300,300l-1300 0"/>
 </g>
</svg>
