<?xml version="1.0" encoding="UTF-8"?>
<!DOCTYPE svg PUBLIC "-//W3C//DTD SVG 1.1//EN" "http://www.w3.org/Graphics/SVG/1.1/DTD/svg11.dtd">

<svg xmlns="http://www.w3.org/2000/svg" xml:space="preserve" width="100%" height="100%" version="1.1" style="shape-rendering:geometricPrecision; text-rendering:geometricPrecision; image-rendering:optimizeQuality; fill-rule:evenodd; clip-rule:evenodd"
viewBox="0 0 500 500"
 xmlns:xlink="http://www.w3.org/1999/xlink">
 <defs>
  <style type="text/css">
   <![CDATA[
    .fil0 {fill:#434242}
    .fil2 {fill:url(#id0)}
    .fil1 {fill:url(#id1)}
   ]]>
  </style>
  <linearGradient id="id0" gradientUnits="userSpaceOnUse" x1="375.184" y1="236.003" x2="124.812" y2="73.995">
   <stop offset="0" style="stop-color:#008BFF"/>
   <stop offset="1" style="stop-color:#00AAFF"/>
  </linearGradient>
  <linearGradient id="id1" gradientUnits="userSpaceOnUse" xlink:href="#id0" x1="124.812" y1="263.997" x2="375.184" y2="426.003">
  </linearGradient>
 </defs>
 <g id="Layer_x0020_1">
  <metadata id="CorelCorpID_0Corel-Layer"/>
  <path class="fil0" d="M400 55l30 0 0 30 -30 0 0 -30zm0 60l30 0 0 30 -30 0 0 -30zm0 60l30 0 0 30 -30 0 0 -30zm0 60l30 0 0 30 -30 0 0 -30zm0 60l30 0 0 30 -30 0 0 -30zm0 60l30 0 0 30 -30 0 0 -30zm0 60l30 0 0 30 -30 0 0 -30zm-338 -375l376 0c7,0 12,6 12,12l0 396c0,7 -5,12 -12,12l-376 0c-7,0 -12,-6 -12,-12l0 -396c0,-7 5,-12 12,-12zm8 15l30 0 0 30 -30 0 0 -30zm0 60l30 0 0 30 -30 0 0 -30zm0 60l30 0 0 30 -30 0 0 -30zm0 60l30 0 0 30 -30 0 0 -30zm0 60l30 0 0 30 -30 0 0 -30zm0 60l30 0 0 30 -30 0 0 -30zm0 60l30 0 0 30 -30 0 0 -30z"/>
  <rect class="fil1" x="120" y="260" width="260" height="170" rx="5" ry="5"/>
  <rect class="fil2" x="120" y="70" width="260" height="170" rx="5" ry="5"/>
 </g>
</svg>
