<?xml version="1.0" encoding="UTF-8"?>
<!DOCTYPE svg PUBLIC "-//W3C//DTD SVG 1.1//EN" "http://www.w3.org/Graphics/SVG/1.1/DTD/svg11.dtd">

<svg xmlns="http://www.w3.org/2000/svg" xml:space="preserve" width="100%" height="100%" version="1.1" style="shape-rendering:geometricPrecision; text-rendering:geometricPrecision; image-rendering:optimizeQuality; fill-rule:evenodd; clip-rule:evenodd"
viewBox="0 0 5000 5000"
 xmlns:xlink="http://www.w3.org/1999/xlink">
 <defs>
  <style type="text/css">
   <![CDATA[
    .str0 {stroke:#434242;stroke-width:50;stroke-linejoin:round}
    .str2 {stroke:#434242;stroke-width:100}
    .str1 {stroke:#434242;stroke-width:150}
    .fil0 {fill:none}
   ]]>
  </style>
 </defs>
 <g id="Layer_x0020_1">
  <metadata id="CorelCorpID_0Corel-Layer"/>
  <path class="fil0 str0" d="M600 1150l300 0 0 300 -300 0 0 -300zm0 600l300 0 0 300 -300 0 0 -300zm0 600l300 0 0 300 -300 0 0 -300zm0 600l300 0 0 300 -300 0 0 -300zm0 600l300 0 0 300 -300 0 0 -300z"/>
  <path class="fil0 str1" d="M4650 1075l-3 2850c0,59 -55,107 -122,107l-4054 0c-66,0 -121,-48 -121,-107l3 -2850c0,-59 55,-107 122,-107l4054 0c66,0 121,48 121,107z"/>
  <rect class="fil0 str2" x="1100" y="1400" width="2800" height="2200" rx="54" ry="65"/>
  <path class="fil0 str0" d="M4100 1150l300 0 0 300 -300 0 0 -300zm0 600l300 0 0 300 -300 0 0 -300zm0 600l300 0 0 300 -300 0 0 -300zm0 600l300 0 0 300 -300 0 0 -300zm0 600l300 0 0 300 -300 0 0 -300z"/>
 </g>
</svg>
