<?xml version="1.0" encoding="UTF-8"?>
<!DOCTYPE svg PUBLIC "-//W3C//DTD SVG 1.1//EN" "http://www.w3.org/Graphics/SVG/1.1/DTD/svg11.dtd">

<svg xmlns="http://www.w3.org/2000/svg" xml:space="preserve" width="100%" height="100%" version="1.1" style="shape-rendering:geometricPrecision; text-rendering:geometricPrecision; image-rendering:optimizeQuality; fill-rule:evenodd; clip-rule:evenodd"
viewBox="0 0 5000 5000"
 xmlns:xlink="http://www.w3.org/1999/xlink">
 <defs>
  <style type="text/css">
   <![CDATA[
    .fil0 {fill:#434242}
   ]]>
  </style>
 </defs>
 <g id="Layer_x0020_1">
  <metadata id="CorelCorpID_0Corel-Layer"/>
  <path class="fil0" d="M4000 550l300 0 0 300 -300 0 0 -300zm0 600l300 0 0 300 -300 0 0 -300zm0 600l300 0 0 300 -300 0 0 -300zm0 600l300 0 0 300 -300 0 0 -300zm0 600l300 0 0 300 -300 0 0 -300zm0 600l300 0 0 300 -300 0 0 -300zm0 600l300 0 0 300 -300 0 0 -300zm-3381 -3750l3762 3c66,0 119,54 119,119l0 3959c0,66 -53,119 -119,119l-3762 -3c-66,0 -119,-54 -119,-119l0 -3959c0,-66 53,-119 119,-119zm81 150l300 0 0 300 -300 0 0 -300zm0 600l300 0 0 300 -300 0 0 -300zm0 600l300 0 0 300 -300 0 0 -300zm0 600l300 0 0 300 -300 0 0 -300zm0 600l300 0 0 300 -300 0 0 -300zm0 600l300 0 0 300 -300 0 0 -300zm0 600l300 0 0 300 -300 0 0 -300zm550 -1550l2500 0c27,0 50,23 50,50l0 1600c0,28 -23,50 -50,50l-2500 0c-28,0 -50,-22 -50,-50l0 -1600c0,-27 22,-50 50,-50zm0 -1900l2500 0c27,0 50,22 50,50l0 1600c0,28 -23,50 -50,50l-2500 0c-28,0 -50,-22 -50,-50l0 -1600c0,-28 22,-50 50,-50z"/>
 </g>
</svg>
