<?xml version="1.0" encoding="UTF-8"?>
<!DOCTYPE svg PUBLIC "-//W3C//DTD SVG 1.1//EN" "http://www.w3.org/Graphics/SVG/1.1/DTD/svg11.dtd">

<svg xmlns="http://www.w3.org/2000/svg" xml:space="preserve" width="100%" height="100%" version="1.1" style="shape-rendering:geometricPrecision; text-rendering:geometricPrecision; image-rendering:optimizeQuality; fill-rule:evenodd; clip-rule:evenodd"
viewBox="0 0 5000 5000"
 xmlns:xlink="http://www.w3.org/1999/xlink">
 <defs>
  <style type="text/css">
   <![CDATA[
    .fil0 {fill:#FFFFFF}
   ]]>
  </style>
 </defs>
 <g id="Layer_x0020_1">
  <metadata id="CorelCorpID_0Corel-Layer"/>
  <path class="fil0" d="M1825 886c275,-379 654,-606 1260,-303 -530,76 -606,758 -151,1061 530,379 966,756 985,1364 -19,792 -219,1492 -1061,1592 -253,0 -505,0 -758,0 -600,0 -1000,-645 -1000,-1100 0,-760 622,-833 469,-1360 -75,-228 -227,-268 -454,-344 379,-152 606,-76 909,76 -379,-304 -379,-682 -199,-986zm1175 2216c242,-24 333,283 300,550 -50,400 -293,670 -500,748 -200,98 -500,124 -750,-50 -200,-200 -500,-450 -300,-1000 200,350 550,302 550,102 -150,-350 -100,-800 400,-900 -150,351 -100,600 300,550z"/>
 </g>
</svg>
