<?xml version="1.0" encoding="UTF-8"?>
<!DOCTYPE svg PUBLIC "-//W3C//DTD SVG 1.1//EN" "http://www.w3.org/Graphics/SVG/1.1/DTD/svg11.dtd">

<svg xmlns="http://www.w3.org/2000/svg" xml:space="preserve" width="100%" height="100%" version="1.1" style="shape-rendering:geometricPrecision; text-rendering:geometricPrecision; image-rendering:optimizeQuality; fill-rule:evenodd; clip-rule:evenodd"
viewBox="0 0 500 500"
 xmlns:xlink="http://www.w3.org/1999/xlink">
 <defs>
  <style type="text/css">
   <![CDATA[
    .str0 {stroke:#434242;stroke-width:10;stroke-linejoin:round}
    .fil1 {fill:#FFFFFF}
    .fil0 {fill:url(#id0)}
   ]]>
  </style>
  <linearGradient id="id0" gradientUnits="userSpaceOnUse" x1="391.89" y1="244.003" x2="109.997" y2="244.003">
   <stop offset="0" style="stop-color:#008BFF"/>
   <stop offset="1" style="stop-color:#00AAFF"/>
  </linearGradient>
 </defs>
 <g id="Layer_x0020_1">
  <metadata id="CorelCorpID_0Corel-Layer"/>
  <path class="fil0 str0" d="M182 89c28,-38 66,-61 127,-31 -54,8 -61,76 -16,106 53,38 97,76 99,137 -2,79 -22,149 -106,159 -25,0 -51,0 -76,0 -60,0 -100,-65 -100,-110 0,-76 62,-83 47,-136 -8,-23 -23,-27 -46,-34 38,-16 61,-8 91,7 -37,-30 -37,-68 -20,-98z"/>
  <path class="fil1 str0" d="M300 310c24,-2 33,29 30,55 -5,40 -29,67 -50,75 -20,10 -50,12 -75,-5 -20,-20 -50,-45 -30,-100 20,35 55,30 55,10 -15,-35 -10,-80 40,-90 -15,35 -10,60 30,55z"/>
 </g>
</svg>
