<?xml version="1.0" encoding="UTF-8"?>
<!DOCTYPE svg PUBLIC "-//W3C//DTD SVG 1.1//EN" "http://www.w3.org/Graphics/SVG/1.1/DTD/svg11.dtd">
<!-- Creator: CorelDRAW X6 -->
<svg xmlns="http://www.w3.org/2000/svg" xml:space="preserve" width="100%" height="100%" version="1.1" style="shape-rendering:geometricPrecision; text-rendering:geometricPrecision; image-rendering:optimizeQuality; fill-rule:evenodd; clip-rule:evenodd"
viewBox="0 0 500 500"
 xmlns:xlink="http://www.w3.org/1999/xlink">
 <defs>
  <style type="text/css">
   <![CDATA[
    .fil0 {fill:white}
   ]]>
  </style>
 </defs>
 <g id="Layer_x0020_1">
  <metadata id="CorelCorpID_0Corel-Layer"/>
  <path class="fil0" d="M217 96l-23 -11c-5,-3 -8,-7 -9,-12 -1,-5 0,-10 3,-14l27 -33c5,-7 16,-8 23,-2l18 14c7,5 8,15 3,22l-21 31c-4,7 -13,9 -21,5zm72 119l-11 -9c-5,-3 -8,-16 -2,-24l49 -69c2,-4 6,-5 10,-5 4,-1 8,1 11,4l19 19c5,6 5,14 0,19l-54 61c-5,5 -17,8 -22,4zm116 -16l-52 42c-6,5 -15,7 -20,1l-5 -5c-5,-6 -8,-14 -3,-20l47 -56c3,-3 7,-5 11,-5 4,0 8,2 11,6l13 17c5,6 4,15 -2,20zm-17 27c0,66 -11,99 -50,132l-2 111c0,5 -5,11 -11,11l-150 0c-6,0 -11,-4 -10,-9l19 -135 -94 -132c-5,-6 -5,-16 0,-23l71 -99c4,-5 11,-4 17,0l83 44c28,22 -10,47 -55,44 -12,-2 -15,-14 -22,-22 5,26 2,30 -23,33 29,16 51,21 70,24 31,5 55,7 96,48 9,10 15,10 23,6l38 -33zm-154 -33c-9,0 -25,-4 -21,-16 14,0 25,-3 38,-7 21,-11 23,-19 25,-29 2,-9 -3,-17 -8,-20l-14 -8c-4,-2 -6,-6 -7,-10 -1,-4 0,-8 3,-11l18 -26c3,-3 6,-5 10,-5 5,-1 8,0 12,3l26 24c6,5 6,14 1,20 -15,20 -40,52 -50,62 -9,9 -21,23 -33,23z"/>
 </g>
</svg>
