<?xml version="1.0" encoding="UTF-8"?>
<!DOCTYPE svg PUBLIC "-//W3C//DTD SVG 1.1//EN" "http://www.w3.org/Graphics/SVG/1.1/DTD/svg11.dtd">
<!-- Creator: CorelDRAW X6 -->
<svg xmlns="http://www.w3.org/2000/svg" xml:space="preserve" width="100%" height="100%" version="1.1" style="shape-rendering:geometricPrecision; text-rendering:geometricPrecision; image-rendering:optimizeQuality; fill-rule:evenodd; clip-rule:evenodd"
viewBox="0 0 500 500"
 xmlns:xlink="http://www.w3.org/1999/xlink">
 <defs>
  <style type="text/css">
   <![CDATA[
    .str0 {stroke:#2B2A29;stroke-width:0.1}
    .str1 {stroke:#4D4D4D;stroke-width:5}
    .fil1 {fill:none}
    .fil2 {fill:#4D4D4D}
    .fil0 {fill:white}
   ]]>
  </style>
 </defs>
 <g id="Layer_x0020_1">
  <metadata id="CorelCorpID_0Corel-Layer"/>
  <path class="fil0" d="M50 264l0 -164c0,-5 5,-10 10,-10l140 0c20,0 20,30 40,30l200 0c6,0 10,5 10,10l0 100 -150 0c-22,0 -22,34 -45,34l-205 0zm10 146l380 0c5,0 9,-5 10,-10l25 -150c1,-5 -5,-10 -10,-10l-160 0c-20,0 -20,30 -40,30l-215 0c-5,0 -10,5 -10,10l10 120c1,6 5,10 10,10zm20 -300l110 0c6,0 10,5 10,10 0,6 -4,10 -10,10l-110 0c-5,0 -10,-4 -10,-10 0,-5 5,-10 10,-10z"/>
  <rect class="fil1 str0" width="500" height="500"/>
  <path class="fil2" d="M80 110l110 0c6,0 10,5 10,10 0,6 -4,10 -10,10l-110 0c-5,0 -10,-4 -10,-10 0,-5 5,-10 10,-10z"/>
  <path class="fil1 str1" d="M60 410l380 0c5,0 9,-5 10,-10l25 -150c1,-5 -5,-10 -10,-10l-160 0c-20,0 -20,30 -40,30l-215 0c-5,0 -10,5 -10,10l10 120c1,6 5,10 10,10zm-10 -146l0 -164c0,-5 5,-10 10,-10l140 0c20,0 20,30 40,30l200 0c6,0 10,5 10,10l0 100 -150 0c-22,0 -22,34 -45,34l-205 0z"/>
 </g>
</svg>
