<?xml version="1.0" encoding="UTF-8"?>
<!DOCTYPE svg PUBLIC "-//W3C//DTD SVG 1.1//EN" "http://www.w3.org/Graphics/SVG/1.1/DTD/svg11.dtd">
<!-- Creator: CorelDRAW X6 -->
<svg xmlns="http://www.w3.org/2000/svg" xml:space="preserve" width="100%" height="100%" version="1.1" style="shape-rendering:geometricPrecision; text-rendering:geometricPrecision; image-rendering:optimizeQuality; fill-rule:evenodd; clip-rule:evenodd"
viewBox="0 0 500 500"
 xmlns:xlink="http://www.w3.org/1999/xlink">
 <defs>
  <style type="text/css">
   <![CDATA[
    .str0 {stroke:#2B2A29;stroke-width:0.1}
    .fil1 {fill:none}
    .fil0 {fill:#333333}
   ]]>
  </style>
 </defs>
 <g id="Layer_x0020_1">
  <metadata id="CorelCorpID_0Corel-Layer"/>
  <path class="fil0" d="M50 168l0 -68c0,-5 5,-10 10,-10l140 0c20,0 20,30 40,30l200 0c6,0 10,5 10,10l0 5 -154 0c-22,0 -22,33 -44,33l-202 0zm10 242l380 0c6,0 10,-4 10,-10l10 -245c0,-5 -4,-10 -10,-10l-150 0c-20,0 -20,30 -40,30l-210 0c-5,0 -10,5 -10,10l10 215c0,6 5,10 10,10zm20 -300l110 0c6,0 10,5 10,10 0,6 -4,10 -10,10l-110 0c-5,0 -10,-4 -10,-10 0,-5 5,-10 10,-10z"/>
  <rect class="fil1 str0" width="500" height="500"/>
 </g>
</svg>
