<?xml version="1.0" encoding="UTF-8"?>
<!DOCTYPE svg PUBLIC "-//W3C//DTD SVG 1.1//EN" "http://www.w3.org/Graphics/SVG/1.1/DTD/svg11.dtd">

<svg xmlns="http://www.w3.org/2000/svg" xml:space="preserve" width="100%" height="100%" version="1.1" style="shape-rendering:geometricPrecision; text-rendering:geometricPrecision; image-rendering:optimizeQuality; fill-rule:evenodd; clip-rule:evenodd"
viewBox="0 0 5000 5000"
 xmlns:xlink="http://www.w3.org/1999/xlink">
 <defs>
  <style type="text/css">
   <![CDATA[
    .str0 {stroke:#434242;stroke-width:200;stroke-linejoin:round}
    .fil0 {fill:none}
    .fil1 {fill:url(#id0)}
   ]]>
  </style>
  <linearGradient id="id0" gradientUnits="userSpaceOnUse" x1="4750" y1="2500" x2="250" y2="2500">
   <stop offset="0" style="stop-color:#008BFF"/>
   <stop offset="1" style="stop-color:#00AAFF"/>
  </linearGradient>
 </defs>
 <g id="Layer_x0020_1">
  <metadata id="CorelCorpID_0Corel-Layer"/>
  <g>
   <path class="fil0 str0" d="M2856 3481l-1484 0 -184 426c-59,142 -88,261 -88,354 0,124 48,215 143,274 57,34 195,61 416,78l0 112 -1409 0 0 -112c151,-24 277,-90 374,-196 99,-108 220,-329 363,-665l1515 -3477 59 0 1529 3573c146,343 265,559 359,648 72,68 171,106 301,117l0 112 -2050 0 0 -112 84 0c165,0 281,-24 347,-72 46,-34 68,-85 68,-150 0,-39 -5,-80 -18,-121 -4,-19 -35,-101 -94,-245l-231 -544zm-101 -237l-632 -1487 -647 1487 1279 0z"/>
   <path id="1" class="fil1" d="M2856 3481l-1484 0 -184 426c-59,142 -88,261 -88,354 0,124 48,215 143,274 57,34 195,61 416,78l0 112 -1409 0 0 -112c151,-24 277,-90 374,-196 99,-108 220,-329 363,-665l1515 -3477 59 0 1529 3573c146,343 265,559 359,648 72,68 171,106 301,117l0 112 -2050 0 0 -112 84 0c165,0 281,-24 347,-72 46,-34 68,-85 68,-150 0,-39 -5,-80 -18,-121 -4,-19 -35,-101 -94,-245l-231 -544zm-101 -237l-632 -1487 -647 1487 1279 0z"/>
  </g>
 </g>
</svg>
