<?xml version="1.0" encoding="UTF-8"?>
<!DOCTYPE svg PUBLIC "-//W3C//DTD SVG 1.1//EN" "http://www.w3.org/Graphics/SVG/1.1/DTD/svg11.dtd">

<svg xmlns="http://www.w3.org/2000/svg" xml:space="preserve" width="100%" height="100%" version="1.1" style="shape-rendering:geometricPrecision; text-rendering:geometricPrecision; image-rendering:optimizeQuality; fill-rule:evenodd; clip-rule:evenodd"
viewBox="0 0 5000 5000"
 xmlns:xlink="http://www.w3.org/1999/xlink">
 <defs>
  <style type="text/css">
   <![CDATA[
    .str0 {stroke:#434242;stroke-width:150;stroke-linecap:round;stroke-linejoin:round}
    .str2 {stroke:#434242;stroke-width:300;stroke-linecap:round}
    .str1 {stroke:#434242;stroke-width:300;stroke-linecap:round}
    .fil0 {fill:none}
   ]]>
  </style>
 </defs>
 <g id="Layer_x0020_1">
  <metadata id="CorelCorpID_0Corel-Layer"/>
  <polyline class="fil0 str0" points="350,1250 350,350 1250,350 "/>
  <polyline class="fil0 str0" points="4650,1250 4650,350 3750,350 "/>
  <polyline class="fil0 str0" points="350,3734 350,4634 1250,4634 "/>
  <polyline class="fil0 str0" points="4650,3734 4650,4634 3750,4634 "/>
  <g id="_1118473664">
   <path class="fil0 str1" d="M975 2933l3 896c0,59 4,102 49,146 48,48 97,48 145,48l895 2"/>
   <line class="fil0 str2" x1="1042" y1="3963" x2="3976" y2= "1029" />
   <path class="fil0 str1" d="M2933 975l896 3c59,0 102,4 146,49 48,48 48,97 48,145l2 895"/>
  </g>
  <g id="_1118466048">
   <path class="fil0 str1" d="M2067 975l-896 3c-59,0 -102,4 -146,49 -48,48 -48,97 -48,145l-2 895"/>
   <line class="fil0 str2" x1="1037" y1="1042" x2="3971" y2= "3976" />
   <path class="fil0 str1" d="M4025 2933l-3 896c0,59 -4,102 -49,146 -48,48 -97,48 -145,48l-895 2"/>
  </g>
 </g>
</svg>
