<?xml version="1.0" encoding="UTF-8"?>
<!DOCTYPE svg PUBLIC "-//W3C//DTD SVG 1.1//EN" "http://www.w3.org/Graphics/SVG/1.1/DTD/svg11.dtd">
<!-- Creator: CorelDRAW X6 -->
<svg xmlns="http://www.w3.org/2000/svg" xml:space="preserve" width="100%" height="100%" version="1.1" style="shape-rendering:geometricPrecision; text-rendering:geometricPrecision; image-rendering:optimizeQuality; fill-rule:evenodd; clip-rule:evenodd"
viewBox="0 0 500 500"
 xmlns:xlink="http://www.w3.org/1999/xlink">
 <defs>
  <style type="text/css">
   <![CDATA[
    .str1 {stroke:red;stroke-width:0.1}
    .str0 {stroke:#333333;stroke-width:15;stroke-linejoin:round}
    .fil0 {fill:none}
   ]]>
  </style>
 </defs>
 <g id="Layer_x0020_1">
  <metadata id="CorelCorpID_0Corel-Layer"/>
  <path class="fil0 str0" d="M162 117l71 41m-152 98l72 41m80 -139c-18,54 -44,100 -80,139 4,3 5,8 2,13 -2,4 -8,6 -13,3l-70 -40c-4,-2 -6,-9 -3,-13 2,-5 8,-6 12,-4 17,-53 44,-99 81,-139 -5,-3 -6,-9 -3,-13 3,-5 9,-7 13,-4l70 40c5,3 6,9 3,14 -2,4 -8,6 -12,4zm-177 208l135 0c14,0 25,11 25,25l0 10 -185 0 0 -10c0,-14 12,-25 25,-25zm393 -25l11 6c8,5 11,16 6,24l-12 22c-5,8 -16,11 -24,6l-11 -6c-2,-2 -3,-5 -2,-7l3 -4 -230 -133 20 -35 230 133 2 -4c2,-3 5,-4 7,-2z"/>
  <rect class="fil0 str1" width="500" height="500"/>
 </g>
</svg>
