<?xml version="1.0" encoding="UTF-8"?>
<!DOCTYPE svg PUBLIC "-//W3C//DTD SVG 1.1//EN" "http://www.w3.org/Graphics/SVG/1.1/DTD/svg11.dtd">
<!-- Creator: CorelDRAW X6 -->
<svg xmlns="http://www.w3.org/2000/svg" xml:space="preserve" width="100%" height="100%" version="1.1" style="shape-rendering:geometricPrecision; text-rendering:geometricPrecision; image-rendering:optimizeQuality; fill-rule:evenodd; clip-rule:evenodd"
viewBox="0 0 500 500"
 xmlns:xlink="http://www.w3.org/1999/xlink">
 <defs>
  <style type="text/css">
   <![CDATA[
    .str2 {stroke:#4587C6;stroke-width:0.1}
    .str0 {stroke:#333333;stroke-width:5}
    .str1 {stroke:white;stroke-width:10;stroke-linecap:round}
    .fil3 {fill:none}
    .fil0 {fill:#333333}
    .fil2 {fill:url(#id0)}
    .fil1 {fill:url(#id1)}
   ]]>
  </style>
  <linearGradient id="id0" gradientUnits="userSpaceOnUse" x1="114.173" y1="178.959" x2="200.035" y2="234.517">
   <stop offset="0" style="stop-color:#279DFF"/>
   <stop offset="0.490196" style="stop-color:#9DD2FF"/>
   <stop offset="1" style="stop-color:#279DFF"/>
  </linearGradient>
  <linearGradient id="id1" gradientUnits="userSpaceOnUse" x1="129.352" y1="190.714" x2="184.858" y2="222.762">
   <stop offset="0" style="stop-color:#0076D8"/>
   <stop offset="0.490196" style="stop-color:#4EAFFF"/>
   <stop offset="1" style="stop-color:#0076D8"/>
  </linearGradient>
 </defs>
 <g id="Layer_x0020_1">
  <metadata id="CorelCorpID_0Corel-Layer"/>
  <path class="fil0" d="M449 341l11 6c8,5 11,16 6,24l-12 22c-5,8 -16,11 -24,6l-11 -6c-2,-2 -3,-5 -2,-7l3 -4 -238 -138 20 -35 238 138 2 -4c2,-3 5,-4 7,-2z"/>
  <path class="fil1 str0" d="M72 273l70 40c5,3 11,1 13,-3 3,-5 2,-11 -3,-14l-70 -40c-4,-3 -10,-1 -13,4 -3,4 -1,11 3,13zm90 -156l70 40c5,3 11,2 13,-3 3,-5 2,-11 -3,-14l-70 -40c-4,-3 -10,-1 -13,4 -3,5 -1,11 3,13z"/>
  <path class="fil2 str0" d="M157 126l70 40c-13,49 -36,89 -70,121l-70 -40c12,-47 36,-87 70,-121z"/>
  <path class="fil3 str1" d="M154 163c-18,17 -29,37 -35,61"/>
  <path class="fil0" d="M56 366l135 0c14,0 25,11 25,25l0 10 -185 0 0 -10c0,-14 12,-25 25,-25zm26 -110l70 40 5 -9 -70 -40 -5 9zm80 -139l70 40 -5 9 -70 -40 5 -9z"/>
  <rect class="fil3 str2" width="500" height="500"/>
 </g>
</svg>
