<?xml version="1.0" encoding="UTF-8"?>
<!DOCTYPE svg PUBLIC "-//W3C//DTD SVG 1.1//EN" "http://www.w3.org/Graphics/SVG/1.1/DTD/svg11.dtd">
<!-- Creator: CorelDRAW X6 -->
<svg xmlns="http://www.w3.org/2000/svg" xml:space="preserve" width="100%" height="100%" version="1.1" shape-rendering="geometricPrecision" text-rendering="geometricPrecision" image-rendering="optimizeQuality" fill-rule="evenodd" clip-rule="evenodd"
viewBox="0 0 500 500"
 xmlns:xlink="http://www.w3.org/1999/xlink">
 <g id="Layer_x0020_1">
  <metadata id="CorelCorpID_0Corel-Layer"/>
  <path fill="#434242" d="M472 96l7 26c0,3 -1,5 -3,6l-25 10c-2,0 -3,2 -3,4 -1,15 -4,29 -11,42 -1,1 -1,4 0,5l17 21c2,2 1,4 0,6l-20 20c-1,1 -4,2 -6,0l-21 -17c-1,-1 -3,-2 -5,-1 -13,7 -27,11 -42,12 -2,0 -4,1 -4,3l-10 25c0,2 -3,3 -5,3l-27 -7c-2,-1 -4,-3 -3,-6l4 -26c0,-2 -1,-4 -2,-5 -13,-8 -23,-18 -31,-31 -1,-1 -3,-2 -5,-2l-26 5c-2,0 -5,-2 -6,-4l-7 -26c0,-3 1,-6 3,-6l25 -10c2,0 3,-2 3,-4 1,-15 5,-29 12,-42 1,-1 0,-4 -1,-5l-17 -21c-1,-2 -1,-4 1,-6l19 -20c2,-1 5,-2 7,0l20 17c2,1 4,1 6,0 12,-7 26,-10 41,-11 2,0 4,-1 4,-3l10 -25c1,-2 3,-3 6,-3l26 7c3,1 4,3 4,6l-5 26c0,2 1,4 3,5 12,8 23,18 30,30 1,2 3,3 5,3l26 -5c3,0 5,2 6,4zm-113 8c20,0 36,16 36,36 0,21 -16,37 -36,37 -21,0 -37,-16 -37,-37 0,-20 16,-36 37,-36zm-70 321l-20 19c-3,4 -9,4 -13,1l-21 -17c-3,-3 -7,-4 -11,-2 -6,4 -12,6 -19,8 -4,1 -7,5 -7,9l-3 27c0,5 -4,9 -9,9l-28 0c-5,0 -9,-4 -10,-9l-3 -27c0,-4 -3,-8 -6,-9 -7,-2 -13,-4 -19,-8 -4,-2 -8,-1 -11,2l-21 17c-4,3 -10,3 -14,-1l-19 -19c-4,-4 -4,-10 -1,-14l17 -21c3,-3 4,-7 2,-11 -4,-6 -6,-12 -8,-18 -1,-4 -5,-7 -9,-7l-27 -3c-5,0 -9,-5 -9,-10l0 -27c0,-6 4,-10 9,-10l27 -3c4,0 8,-3 9,-7 2,-6 4,-13 8,-19 2,-3 1,-8 -1,-11l-18 -21c-3,-4 -3,-10 1,-13l19 -20c4,-3 10,-4 14,0l21 17c3,3 7,3 11,1 6,-3 12,-6 19,-8 3,-1 6,-4 6,-8l3 -27c1,-6 5,-10 10,-10l28 0c5,0 9,4 9,10l3 27c0,4 3,7 7,8 7,2 13,5 19,8 3,2 8,2 11,-1l21 -17c4,-4 10,-3 13,0l20 20c3,3 4,9 0,13l-17 21c-3,3 -3,8 -1,11 3,6 6,13 8,19 1,4 4,7 8,7l27 3c6,0 10,4 10,10l0 27c0,5 -4,10 -10,10l-27 3c-4,0 -7,3 -8,7 -2,6 -5,12 -8,18 -2,4 -2,8 1,11l17 21c4,4 3,10 0,14zm-117 -142c24,0 44,20 44,44 0,25 -20,44 -44,44 -25,0 -44,-19 -44,-44 0,-24 19,-44 44,-44zm0 14c16,0 30,14 30,30 0,17 -14,30 -30,30 -17,0 -30,-13 -30,-30 0,-16 13,-30 30,-30zm187 -180c13,0 23,10 23,23 0,13 -10,24 -23,24 -13,0 -24,-11 -24,-24 0,-13 11,-23 24,-23z"/>
 </g>
</svg>
