<?xml version="1.0" encoding="UTF-8"?>
<!DOCTYPE svg PUBLIC "-//W3C//DTD SVG 1.1//EN" "http://www.w3.org/Graphics/SVG/1.1/DTD/svg11.dtd">

<svg xmlns="http://www.w3.org/2000/svg" xml:space="preserve" width="100%" height="100%" version="1.1" style="shape-rendering:geometricPrecision; text-rendering:geometricPrecision; image-rendering:optimizeQuality; fill-rule:evenodd; clip-rule:evenodd"
viewBox="0 0 5000 5000"
 xmlns:xlink="http://www.w3.org/1999/xlink">
 <defs>
  <style type="text/css">
   <![CDATA[
    .fil0 {fill:#434242}
   ]]>
  </style>
 </defs>
 <g id="Layer_x0020_1">
  <metadata id="CorelCorpID_0Corel-Layer"/>
  <path class="fil0" d="M550 1450l1550 0 0 950 -1700 0 0 -800c0,-83 67,-150 150,-150zm1650 0l600 0 0 950 -600 0 0 -950zm700 0l1550 0c83,0 150,67 150,150l0 800 -1700 0 0 -950z"/>
  <path class="fil0" d="M500 2550l1600 0 0 2050 -1400 0c-110,0 -200,-90 -200,-200l0 -1850zm1700 0l600 0 0 2050 -600 0 0 -2050zm700 0l1600 0 0 1850c0,110 -90,200 -200,200l-1400 0 0 -2050z"/>
  <path class="fil0" d="M2000 1149c100,50 50,150 -100,100 -400,-100 -900,-300 -900,-600 0,-300 200,-400 400,-400 500,0 800,400 1000,700 113,118 0,250 -100,100 -100,-150 -217,-250 -350,-350 -250,-200 -500,50 -350,250 150,150 300,150 400,200z"/>
  <path class="fil0" d="M3000 1149c-100,50 -50,150 100,100 400,-100 900,-300 900,-600 0,-300 -200,-400 -400,-400 -500,0 -800,400 -1000,700 -113,118 0,250 100,100 100,-150 217,-250 350,-350 250,-200 500,50 350,250 -150,150 -300,150 -400,200z"/>
  <path class="fil0" d="M2200 1350c150,-150 450,-150 600,0l-600 0z"/>
 </g>
</svg>
