<?xml version="1.0" encoding="UTF-8"?>
<!DOCTYPE svg PUBLIC "-//W3C//DTD SVG 1.1//EN" "http://www.w3.org/Graphics/SVG/1.1/DTD/svg11.dtd">

<svg xmlns="http://www.w3.org/2000/svg" xml:space="preserve" width="100%" height="100%" version="1.1" style="shape-rendering:geometricPrecision; text-rendering:geometricPrecision; image-rendering:optimizeQuality; fill-rule:evenodd; clip-rule:evenodd"
viewBox="0 0 5000 5000"
 xmlns:xlink="http://www.w3.org/1999/xlink">
 <defs>
  <style type="text/css">
   <![CDATA[
    .str0 {stroke:#434242;stroke-width:100;stroke-linecap:round;stroke-linejoin:round}
    .str1 {stroke:#434242;stroke-width:200;stroke-linecap:round}
    .fil0 {fill:none}
   ]]>
  </style>
 </defs>
 <g id="Layer_x0020_1">
  <metadata id="CorelCorpID_0Corel-Layer"/>
  <path class="fil0 str0" d="M2000 1200c-500,0 -841,-344 -650,-650 358,-501 1350,388 1350,700 0,200 -400,200 -400,0 0,-312 992,-1201 1350,-700 250,400 -350,750 -750,750 -200,0 -800,-300 -800,200l0 3050 400 -450 400 450 0 -1550"/>
  <path class="fil0 str1" d="M2000 4400l-1200 0c-110,0 -200,-90 -200,-200l0 -1200"/>
  <path class="fil0 str1" d="M3000 4400l1200 0c110,0 200,-90 200,-200l0 -2400c0,-82 -68,-150 -150,-150l-3700 0c-83,0 -150,67 -150,150l0 650c0,150 50,250 200,250l3092 0"/>
 </g>
</svg>
