<?xml version="1.0" encoding="UTF-8"?>
<!DOCTYPE svg PUBLIC "-//W3C//DTD SVG 1.1//EN" "http://www.w3.org/Graphics/SVG/1.1/DTD/svg11.dtd">

<svg xmlns="http://www.w3.org/2000/svg" xml:space="preserve" width="100%" height="100%" version="1.1" style="shape-rendering:geometricPrecision; text-rendering:geometricPrecision; image-rendering:optimizeQuality; fill-rule:evenodd; clip-rule:evenodd"
viewBox="0 0 5000 5000"
 xmlns:xlink="http://www.w3.org/1999/xlink">
 <defs>
  <style type="text/css">
   <![CDATA[
    .str1 {stroke:#434242;stroke-width:100}
    .str0 {stroke:#434242;stroke-width:100;stroke-linejoin:round}
    .fil0 {fill:url(#id0)}
    .fil1 {fill:url(#id1)}
   ]]>
  </style>
  <linearGradient id="id0" gradientUnits="userSpaceOnUse" x1="2499.99" y1="400" x2="2499.99" y2="4699.98">
   <stop offset="0" style="stop-color:#008BFF"/>
   <stop offset="1" style="stop-color:#00AAFF"/>
  </linearGradient>
  <linearGradient id="id1" gradientUnits="userSpaceOnUse" x1="2499.98" y1="649.99" x2="2499.98" y2="1699.99">
   <stop offset="0" style="stop-color:#FCFCFD"/>
   <stop offset="1" style="stop-color:#FFFFFF"/>
  </linearGradient>
 </defs>
 <g id="Layer_x0020_1">
  <metadata id="CorelCorpID_0Corel-Layer"/>
  <path class="fil0 str0" d="M400 400l4200 0 -1900 1900 0 1860 1050 240c80,18 150,68 150,150 0,83 -68,150 -150,150l-2500 0c-83,0 -150,-67 -150,-150 0,-82 70,-132 150,-150l1050 -240 0 -1860 -1900 -1900z"/>
  <polygon class="fil1 str1" points="1100,650 2150,1700 2850,1700 3900,650 "/>
 </g>
</svg>
