<?xml version="1.0" encoding="UTF-8"?>
<!DOCTYPE svg PUBLIC "-//W3C//DTD SVG 1.1//EN" "http://www.w3.org/Graphics/SVG/1.1/DTD/svg11.dtd">

<svg xmlns="http://www.w3.org/2000/svg" xml:space="preserve" width="100%" height="100%" version="1.1" style="shape-rendering:geometricPrecision; text-rendering:geometricPrecision; image-rendering:optimizeQuality; fill-rule:evenodd; clip-rule:evenodd"
viewBox="0 0 5000 5000"
 xmlns:xlink="http://www.w3.org/1999/xlink">
 <defs>
  <style type="text/css">
   <![CDATA[
    .fil0 {fill:#FFFFFF}
   ]]>
  </style>
 </defs>
 <g id="Layer_x0020_1">
  <metadata id="CorelCorpID_0Corel-Layer"/>
  <path class="fil0" d="M2678 450c460,40 876,231 1198,525 -148,127 -312,231 -486,312l-2 -3c-172,-322 -413,-608 -710,-834zm575 895l-3 1c-215,82 -443,128 -676,136l0 -925c284,213 514,483 679,788zm-826 137c-233,-8 -461,-54 -676,-135l-1 -1c164,-305 393,-574 676,-787l1 923zm-814 -194c-175,-81 -340,-186 -489,-314 323,-293 741,-485 1201,-524 -297,226 -538,512 -710,834l-2 4zm2370 -210c337,355 550,830 567,1354l-858 -1c-10,-354 -92,-697 -236,-1011 189,-88 366,-203 527,-342zm567 1503c-20,519 -232,989 -567,1341 -161,-139 -338,-254 -527,-342 143,-311 225,-650 235,-1001l859 2zm-674 1444c-322,293 -738,485 -1197,525 296,-226 536,-510 708,-832l3 -5c174,81 338,185 486,312zm-1551 525c-461,-39 -878,-231 -1201,-524 149,-128 314,-233 489,-314l3 6c173,322 413,606 709,832zm-1308 -628c-336,-353 -548,-826 -567,-1348l862 1c10,352 92,692 235,1004 -190,88 -369,203 -530,343zm-567 -1496c19,-522 231,-995 567,-1348 161,140 340,255 530,343 -144,313 -225,654 -235,1006l-862 -1zm1233 -947l16 7c232,87 477,137 728,145l0 798 -967 -1c10,-333 87,-655 223,-949zm744 1098l0 792c-250,8 -496,58 -728,145l-16 7c-135,-293 -213,-614 -223,-945l967 1zm0 941l1 924c-284,-213 -514,-483 -678,-788l1 -1c215,-81 443,-127 676,-135zm147 -1887c251,-8 497,-58 728,-146 6,-2 12,-4 18,-7 136,295 214,619 223,953l-968 -2 -1 -798zm969 948c-11,331 -88,650 -223,943l-18 -7c-231,-88 -477,-138 -727,-146l0 -792 968 2zm-290 1076c-165,305 -394,574 -678,787l0 -924c233,8 461,54 675,136l3 1z"/>
 </g>
</svg>
