<?xml version="1.0" encoding="UTF-8"?>
<!DOCTYPE svg PUBLIC "-//W3C//DTD SVG 1.1//EN" "http://www.w3.org/Graphics/SVG/1.1/DTD/svg11.dtd">

<svg xmlns="http://www.w3.org/2000/svg" xml:space="preserve" width="100%" height="100%" version="1.1" style="shape-rendering:geometricPrecision; text-rendering:geometricPrecision; image-rendering:optimizeQuality; fill-rule:evenodd; clip-rule:evenodd"
viewBox="0 0 500 500"
 xmlns:xlink="http://www.w3.org/1999/xlink">
 <defs>
  <style type="text/css">
   <![CDATA[
    .str1 {stroke:#434242;stroke-width:15}
    .str0 {stroke:#434242;stroke-width:25}
    .fil1 {fill:none}
    .fil0 {fill:#76C1FF}
   ]]>
  </style>
 </defs>
 <g id="Layer_x0020_1">
  <metadata id="CorelCorpID_0Corel-Layer"/>
  <circle class="fil0 str0" cx="250" cy="250" r="210"/>
  <g id="_1373460352">
   <path class="fil1 str1" d="M251 40c70,47 112,126 112,210 0,85 -42,164 -113,210"/>
   <path class="fil1 str1" d="M250 40c-71,47 -113,126 -113,210 0,85 43,164 113,210"/>
   <path class="fil1 str1" d="M103 100c41,35 93,55 147,55 54,0 106,-20 147,-56"/>
   <path class="fil1 str1" d="M103 400c41,-35 93,-55 147,-55 54,0 106,20 147,56"/>
   <line class="fil1 str1" x1="250" y1="40" x2="250" y2= "460" />
   <line class="fil1 str1" x1="40" y1="250" x2="460" y2= "251" />
  </g>
 </g>
</svg>
