<?xml version="1.0" encoding="UTF-8"?>
<!DOCTYPE svg PUBLIC "-//W3C//DTD SVG 1.1//EN" "http://www.w3.org/Graphics/SVG/1.1/DTD/svg11.dtd">
<!-- Creator: CorelDRAW X6 -->
<svg xmlns="http://www.w3.org/2000/svg" xml:space="preserve" width="100%" height="100%" version="1.1" style="shape-rendering:geometricPrecision; text-rendering:geometricPrecision; image-rendering:optimizeQuality; fill-rule:evenodd; clip-rule:evenodd"
viewBox="0 0 500 500"
 xmlns:xlink="http://www.w3.org/1999/xlink">
 <defs>
  <style type="text/css">
   <![CDATA[
    .str0 {stroke:#333333;stroke-width:0.1}
    .str2 {stroke:#333333;stroke-width:10}
    .str1 {stroke:#333333;stroke-width:15}
    .str3 {stroke:#333333;stroke-width:15;stroke-linejoin:round}
    .str4 {stroke:#333333;stroke-width:20;stroke-linecap:round}
    .fil0 {fill:none}
   ]]>
  </style>
 </defs>
 <g id="Layer_x0020_1">
  <metadata id="CorelCorpID_0Corel-Layer"/>
  <rect class="fil0 str0" width="500" height="500"/>
  <path class="fil0 str1" d="M90 365c-20,20 -20,54 0,74 21,20 54,20 75,0 21,-22 6,-36 29,-59l160 -160c19,-19 28,-16 51,-15 23,2 51,-41 65,-63l-10 -16 -47 28c-3,1 -6,0 -8,-2l-22 -39c-1,-3 -1,-6 2,-7l47 -28 -8 -13c-33,-3 -74,5 -90,35 -16,30 -7,54 -21,71l-163 164c-23,23 -38,8 -60,30z"/>
  <polygon class="fil0 str2" points="160,402 151,392 151,379 137,379 127,369 118,379 104,379 104,392 95,402 104,412 104,425 118,425 127,435 137,425 151,425 151,412 "/>
  <path class="fil0 str3" d="M318 72c-1,1 -4,2 -6,2l0 0c-31,-2 -62,-6 -85,25 -16,20 -19,63 -7,76l40 40 -31 31 -36 -37c-23,-23 -61,-16 -67,-9 -9,6 -4,30 -9,42l-23 22c-3,3 -8,3 -11,0l-49 -50c-3,-3 -3,-8 0,-11l22 -22c9,-10 30,-2 38,-10 16,-14 -13,-20 30,-61 39,-39 111,-88 194,-49 4,2 3,8 0,11zm-9 193l14 13c3,-2 6,-2 8,0 24,22 44,29 67,60 24,32 43,39 68,61 4,4 4,16 -1,21l-29 29c-5,5 -18,5 -22,1 -22,-24 -29,-44 -60,-67 -26,-20 -38,-43 -60,-68 -2,-1 -2,-3 -1,-6l-14 -14 30 -30z"/>
  <line class="fil0 str2" x1="323" y1="278" x2="292" y2= "309" />
  <line class="fil0 str4" x1="309" y1="222" x2="194" y2= "338" />
 </g>
</svg>
