<?xml version="1.0" encoding="UTF-8"?>
<!DOCTYPE svg PUBLIC "-//W3C//DTD SVG 1.1//EN" "http://www.w3.org/Graphics/SVG/1.1/DTD/svg11.dtd">
<!-- Creator: CorelDRAW X6 -->
<svg xmlns="http://www.w3.org/2000/svg" xml:space="preserve" width="100%" height="100%" version="1.1" style="shape-rendering:geometricPrecision; text-rendering:geometricPrecision; image-rendering:optimizeQuality; fill-rule:evenodd; clip-rule:evenodd"
viewBox="0 0 500 500"
 xmlns:xlink="http://www.w3.org/1999/xlink">
 <defs>
  <style type="text/css">
   <![CDATA[
    .fil0 {fill:#333333}
   ]]>
  </style>
 </defs>
 <g id="Layer_x0020_1">
  <metadata id="CorelCorpID_0Corel-Layer"/>
  <path class="fil0" d="M200 259l-160 0c-15,0 -10,20 0,25 55,30 110,40 190,50 40,5 50,80 0,80l-50 0 0 45c0,3 2,5 5,5 77,0 153,0 230,0 3,0 5,-2 5,-5l0 -45 -60 0c-30,-2 -37,-63 0,-80l65 -23c5,-2 5,-7 5,-11l0 -46c0,-6 -5,-10 -10,-10l-215 0c-3,0 -5,2 -5,5l0 10zm-63 -51l-12 -41 -5 2c-3,0 -5,-1 -5,-3l-11 -41c-1,-2 0,-5 2,-5l6 -2 -11 -41 6 -10 51 -13 10 5 12 49 193 -52c3,-1 5,1 5,3l8 27c0,2 -1,4 -3,5l-193 51 13 49 -6 9 -51 14 -9 -6z"/>
 </g>
</svg>
