<?xml version="1.0" encoding="UTF-8"?>
<!DOCTYPE svg PUBLIC "-//W3C//DTD SVG 1.1//EN" "http://www.w3.org/Graphics/SVG/1.1/DTD/svg11.dtd">
<!-- Creator: CorelDRAW X6 -->
<svg xmlns="http://www.w3.org/2000/svg" xml:space="preserve" width="100%" height="100%" version="1.1" style="shape-rendering:geometricPrecision; text-rendering:geometricPrecision; image-rendering:optimizeQuality; fill-rule:evenodd; clip-rule:evenodd"
viewBox="0 0 500 500"
 xmlns:xlink="http://www.w3.org/1999/xlink">
 <defs>
  <style type="text/css">
   <![CDATA[
    .str2 {stroke:#2B2A29;stroke-width:0.1}
    .str1 {stroke:#333333;stroke-width:5}
    .str0 {stroke:#333333;stroke-width:10}
    .fil2 {fill:none}
    .fil0 {fill:#E2E3E3}
    .fil5 {fill:url(#id0)}
    .fil3 {fill:url(#id1)}
    .fil4 {fill:url(#id2)}
    .fil1 {fill:url(#id3)}
   ]]>
  </style>
  <linearGradient id="id0" gradientUnits="userSpaceOnUse" x1="310.715" y1="268.006" x2="283.005" y2="295.716">
   <stop offset="0" style="stop-color:#333333"/>
   <stop offset="0.501961" style="stop-color:#5A5A5A"/>
   <stop offset="1" style="stop-color:#333333"/>
  </linearGradient>
  <linearGradient id="id1" gradientUnits="userSpaceOnUse" x1="239.012" y1="224.858" x2="134.972" y2="120.82">
   <stop offset="0" style="stop-color:#E2E3E3"/>
   <stop offset="1" style="stop-color:#DADADA"/>
  </linearGradient>
  <linearGradient id="id2" gradientUnits="userSpaceOnUse" x1="398.728" y1="337.978" x2="350.56" y2="386.146">
   <stop offset="0" style="stop-color:#008BFF"/>
   <stop offset="0.258824" style="stop-color:#279DFF"/>
   <stop offset="1" style="stop-color:#008BFF"/>
  </linearGradient>
  <linearGradient id="id3" gradientUnits="userSpaceOnUse" x1="160.482" y1="392.881" x2="107.146" y2="339.545">
   <stop offset="0" style="stop-color:#008BFF"/>
   <stop offset="0.490196" style="stop-color:#279DFF"/>
   <stop offset="1" style="stop-color:#008BFF"/>
  </linearGradient>
 </defs>
 <g id="Layer_x0020_1">
  <metadata id="CorelCorpID_0Corel-Layer"/>
  <polygon class="fil0 str0" points="415,109 229,295 205,271 391,85 399,64 443,40 460,57 436,101 "/>
  <path class="fil1 str0" d="M103 449l114 -113c1,-2 2,-3 3,-5l1 -6c1,-5 5,-8 9,-8l2 0c2,0 5,-1 6,-2l4 -4c4,-4 4,-10 0,-14l-39 -39c-4,-4 -10,-4 -14,0l-4 4c-1,2 -2,4 -2,6l0 2c0,4 -3,8 -8,9l-6 1c-2,1 -3,2 -5,3l-113 114c-14,13 -14,27 -1,40l14 13c13,13 26,13 39,-1z"/>
  <line class="fil2 str1" x1="75" y1="425" x2="191" y2= "310" />
  <line class="fil2 str1" x1="204" y1="323" x2="88" y2= "438" />
  <line class="fil2 str1" x1="62" y1="412" x2="178" y2= "296" />
  <path class="fil3 str0" d="M318 72c-1,1 -4,2 -6,2l0 0c-31,-2 -62,-6 -85,25 -16,20 -19,63 -7,76l117 117 -30 31 -114 -114c-23,-23 -61,-16 -67,-9 -9,6 -4,30 -9,42l-23 22c-3,3 -8,3 -11,0l-49 -50c-3,-3 -3,-8 0,-11l22 -22c9,-10 30,-2 38,-10 16,-14 -13,-20 30,-61 39,-39 111,-88 194,-49 4,2 3,8 0,11z"/>
  <path class="fil4 str0" d="M322 279l-27 28c-3,2 -3,6 -1,8 22,25 34,48 60,68 31,23 38,43 60,67 4,4 17,4 22,-1l29 -29c5,-5 5,-17 1,-21 -25,-22 -44,-29 -68,-61 -23,-31 -43,-38 -67,-60 -2,-2 -6,-2 -9,1z"/>
  <polygon class="fil5" points="302,260 275,287 292,304 319,277 "/>
  <rect class="fil2 str2" width="500" height="500"/>
 </g>
</svg>
