<?xml version="1.0" encoding="UTF-8"?>
<!DOCTYPE svg PUBLIC "-//W3C//DTD SVG 1.1//EN" "http://www.w3.org/Graphics/SVG/1.1/DTD/svg11.dtd">
<!-- Creator: CorelDRAW X6 -->
<svg xmlns="http://www.w3.org/2000/svg" xml:space="preserve" width="100%" height="100%" version="1.1" style="shape-rendering:geometricPrecision; text-rendering:geometricPrecision; image-rendering:optimizeQuality; fill-rule:evenodd; clip-rule:evenodd"
viewBox="0 0 500 500"
 xmlns:xlink="http://www.w3.org/1999/xlink">
 <defs>
  <style type="text/css">
   <![CDATA[
    .str0 {stroke:#2B2A29;stroke-width:0.1}
    .str1 {stroke:#333333;stroke-width:10}
    .fil0 {fill:none}
    .fil5 {fill:#008BFF}
    .fil4 {fill:url(#id0)}
    .fil3 {fill:url(#id1)}
    .fil1 {fill:url(#id2)}
    .fil2 {fill:url(#id3)}
   ]]>
  </style>
  <linearGradient id="id0" gradientUnits="userSpaceOnUse" x1="398.441" y1="133.704" x2="125.381" y2="406.764">
   <stop offset="0" style="stop-color:#E2E3E3"/>
   <stop offset="0.458824" style="stop-color:white"/>
   <stop offset="1" style="stop-color:#E2E3E3"/>
  </linearGradient>
  <linearGradient id="id1" gradientUnits="userSpaceOnUse" x1="310.715" y1="268.006" x2="283.005" y2="295.716">
   <stop offset="0" style="stop-color:#333333"/>
   <stop offset="0.501961" style="stop-color:#5A5A5A"/>
   <stop offset="1" style="stop-color:#333333"/>
  </linearGradient>
  <linearGradient id="id2" gradientUnits="userSpaceOnUse" x1="239.012" y1="224.858" x2="134.972" y2="120.82">
   <stop offset="0" style="stop-color:#E2E3E3"/>
   <stop offset="1" style="stop-color:#DADADA"/>
  </linearGradient>
  <linearGradient id="id3" gradientUnits="userSpaceOnUse" x1="398.728" y1="337.978" x2="350.56" y2="386.146">
   <stop offset="0" style="stop-color:#008BFF"/>
   <stop offset="0.258824" style="stop-color:#279DFF"/>
   <stop offset="1" style="stop-color:#008BFF"/>
  </linearGradient>
 </defs>
 <g id="Layer_x0020_1">
  <metadata id="CorelCorpID_0Corel-Layer"/>
  <rect class="fil0 str0" width="500" height="500"/>
  <path class="fil1 str1" d="M318 72c-1,1 -4,2 -6,2l0 0c-31,-2 -62,-6 -85,25 -16,20 -19,63 -7,76l117 117 -30 31 -114 -114c-23,-23 -61,-16 -67,-9 -9,6 -4,30 -9,42l-23 22c-3,3 -8,3 -11,0l-49 -50c-3,-3 -3,-8 0,-11l22 -22c9,-10 30,-2 38,-10 16,-14 -13,-20 30,-61 39,-39 111,-88 194,-49 4,2 3,8 0,11z"/>
  <path class="fil2 str1" d="M322 279l-27 28c-3,2 -3,6 -1,8 22,25 34,48 60,68 31,23 38,43 60,67 4,4 17,4 22,-1l29 -29c5,-5 5,-17 1,-21 -25,-22 -44,-29 -68,-61 -23,-31 -43,-38 -67,-60 -2,-2 -6,-2 -9,1z"/>
  <polygon class="fil3" points="302,260 275,287 292,304 319,277 "/>
  <path class="fil4 str1" d="M160 402l-9 -10 0 -13 -14 0 -10 -10 -9 10 -14 0 0 13 -9 10 9 10 0 13 14 0 9 10 10 -10 14 0 0 -13 9 -10zm-70 -37c-20,20 -20,54 0,74 21,20 54,20 75,0 21,-22 6,-36 29,-59l160 -160c19,-19 28,-16 51,-15 23,2 51,-41 65,-63l-10 -16 -47 28c-3,1 -6,0 -8,-2l-22 -39c-1,-3 -1,-6 2,-7l47 -28 -8 -13c-33,-3 -74,5 -90,35 -16,30 -7,54 -21,71l-163 164c-23,23 -38,8 -60,30z"/>
  <path class="fil5" d="M325 205c-7,-6 -17,-6 -23,0l-115 115c-6,6 -6,16 0,22 6,7 16,7 22,0l116 -115c6,-6 6,-16 0,-22z"/>
 </g>
</svg>
