<?xml version="1.0" encoding="UTF-8"?>
<!DOCTYPE svg PUBLIC "-//W3C//DTD SVG 1.1//EN" "http://www.w3.org/Graphics/SVG/1.1/DTD/svg11.dtd">
<!-- Creator: CorelDRAW X6 -->
<svg xmlns="http://www.w3.org/2000/svg" xml:space="preserve" width="100%" height="100%" version="1.1" style="shape-rendering:geometricPrecision; text-rendering:geometricPrecision; image-rendering:optimizeQuality; fill-rule:evenodd; clip-rule:evenodd"
viewBox="0 0 500 500"
 xmlns:xlink="http://www.w3.org/1999/xlink">
 <defs>
  <style type="text/css">
   <![CDATA[
    .str2 {stroke:#333333;stroke-width:0.1}
    .str0 {stroke:#333333;stroke-width:5}
    .str3 {stroke:#333333;stroke-width:10}
    .str4 {stroke:#333333;stroke-width:15}
    .str1 {stroke:#333333;stroke-width:15;stroke-linejoin:round}
    .fil0 {fill:none}
   ]]>
  </style>
 </defs>
 <g id="Layer_x0020_1">
  <metadata id="CorelCorpID_0Corel-Layer"/>
  <path class="fil0 str0" d="M75 425l116 -115m13 13l-116 115m-26 -26l116 -116"/>
  <path class="fil0 str1" d="M318 72c-1,1 -4,2 -6,2l0 0c-31,-2 -62,-6 -85,25 -16,20 -19,63 -7,76l40 40 -31 31 -36 -37c-23,-23 -61,-16 -67,-9 -9,6 -4,30 -9,42l-23 22c-3,3 -8,3 -11,0l-49 -50c-3,-3 -3,-8 0,-11l22 -22c9,-10 30,-2 38,-10 16,-14 -13,-20 30,-61 39,-39 111,-88 194,-49 4,2 3,8 0,11zm-33 168l38 38c3,-2 6,-2 8,0 24,22 44,29 67,60 24,32 43,39 68,61 4,4 4,16 -1,21l-29 29c-5,5 -18,5 -22,1 -22,-24 -29,-44 -60,-67 -26,-20 -38,-43 -60,-68 -2,-1 -2,-3 -1,-6l-39 -38 31 -31z"/>
  <rect class="fil0 str2" width="500" height="500"/>
  <line class="fil0 str3" x1="323" y1="278" x2="292" y2= "309" />
  <path class="fil0 str4" d="M103 449l114 -113c1,-2 2,-3 3,-5l1 -6c1,-5 5,-8 9,-8l2 0c2,0 5,-1 6,-2l4 -4c4,-4 4,-10 0,-14l-7 -7 180 -181 21 -8 24 -44 -17 -17 -44 24 -8 21 -181 180 -7 -7c-4,-4 -10,-4 -14,0l-4 4c-1,2 -2,4 -2,6l0 2c0,4 -3,8 -8,9l-6 1c-2,1 -3,2 -5,3l-113 114c-14,13 -14,27 -1,40l14 13c13,13 26,13 39,-1z"/>
 </g>
</svg>
