<?xml version="1.0" encoding="UTF-8"?>
<!DOCTYPE svg PUBLIC "-//W3C//DTD SVG 1.1//EN" "http://www.w3.org/Graphics/SVG/1.1/DTD/svg11.dtd">
<!-- Creator: CorelDRAW X6 -->
<svg xmlns="http://www.w3.org/2000/svg" xml:space="preserve" width="100%" height="100%" version="1.1" style="shape-rendering:geometricPrecision; text-rendering:geometricPrecision; image-rendering:optimizeQuality; fill-rule:evenodd; clip-rule:evenodd"
viewBox="0 0 500 500"
 xmlns:xlink="http://www.w3.org/1999/xlink">
 <defs>
  <style type="text/css">
   <![CDATA[
    .str0 {stroke:#2B2A29;stroke-width:0.1}
    .fil1 {fill:none}
    .fil0 {fill:#333333}
   ]]>
  </style>
 </defs>
 <g id="Layer_x0020_1">
  <metadata id="CorelCorpID_0Corel-Layer"/>
  <path class="fil0" d="M181 387c0,-7 -5,-12 -12,-12 -7,0 -13,5 -13,12 0,7 6,13 13,13 7,0 12,-6 12,-13zm124 79l0 -98c0,-3 -2,-5 -5,-5l-150 0c-2,0 -5,2 -5,5l0 81c0,2 2,4 5,5l150 17c3,1 5,-2 5,-5zm-110 -297c0,-11 -8,-19 -19,-19 -10,0 -19,8 -19,19l0 99c0,15 11,48 11,59l0 26 126 0 0 -25c40,-23 52,-23 83,-123l15 -25c3,-4 1,-10 -3,-12 -15,-9 -35,-4 -44,11l-2 4 -20 35c-8,1 -13,-3 -13,-11l0 -158c0,-11 -9,-19 -19,-19 -11,0 -19,8 -19,19l0 97 0 0c0,-10 -9,-19 -19,-19 -11,0 -19,9 -19,19l0 11 0 0c0,-10 -9,-19 -20,-19 -10,0 -19,9 -19,19 0,15 0,12 0,12z"/>
  <rect class="fil1 str0" transform="matrix(2.64845E-014 -1 1 2.64845E-014 0.05 500.048)" width="500" height="500"/>
 </g>
</svg>
