<?xml version="1.0" encoding="UTF-8"?>
<!DOCTYPE svg PUBLIC "-//W3C//DTD SVG 1.1//EN" "http://www.w3.org/Graphics/SVG/1.1/DTD/svg11.dtd">
<!-- Creator: CorelDRAW X6 -->
<svg xmlns="http://www.w3.org/2000/svg" xml:space="preserve" width="100%" height="100%" version="1.1" style="shape-rendering:geometricPrecision; text-rendering:geometricPrecision; image-rendering:optimizeQuality; fill-rule:evenodd; clip-rule:evenodd"
viewBox="0 0 500 500"
 xmlns:xlink="http://www.w3.org/1999/xlink">
 <defs>
  <style type="text/css">
   <![CDATA[
    .str3 {stroke:#2B2A29;stroke-width:0.1}
    .str0 {stroke:#4D4D4D;stroke-width:5;stroke-linecap:round;stroke-linejoin:round}
    .str2 {stroke:#4D4D4D;stroke-width:15}
    .str1 {stroke:#4D4D4D;stroke-width:15;stroke-linecap:round;stroke-linejoin:round}
    .fil0 {fill:none}
    .fil1 {fill:white}
   ]]>
  </style>
 </defs>
 <g id="Layer_x0020_1">
  <metadata id="CorelCorpID_0Corel-Layer"/>
  <path class="fil0 str0" d="M183 113c0,7 -6,12 -13,12 -7,0 -12,-5 -12,-12 0,-7 5,-13 12,-13 7,0 13,6 13,13z"/>
  <path class="fil0 str1" d="M312 132l0 -98c0,-3 -1,-6 -4,-8 -2,-2 -4,-3 -7,-2l-150 17c-5,1 -9,5 -9,10l0 81c0,6 4,10 10,10l17 0 0 38c0,12 -9,29 -9,45l0 60 150 0c0,-15 -70,0 -70,-105 0,105 70,90 70,105l-36 0c-24,0 -39,22 -34,32 2,4 7,8 12,8l30 0 58 0c15,0 15,-8 15,-15l0 -60c0,-30 -14,-47 -56,-71l0 -37 3 0c5,0 10,-4 10,-10z"/>
  <path class="fil1 str1" d="M320 325l-40 0 0 125c0,11 9,20 20,20 11,0 20,-9 20,-20l0 -125zm-140 -70c-11,0 -20,9 -20,20l0 55c0,11 9,20 20,20 11,0 20,-9 20,-20l0 -55c0,-11 -9,-20 -20,-20zm40 0c11,0 20,9 20,20l0 75c0,11 -9,20 -20,20 -11,0 -20,-9 -20,-20l0 -75c0,-11 9,-20 20,-20zm40 0c-11,0 -20,9 -20,20l0 32c3,-10 16,-22 34,-22l6 0 0 -10c0,-11 -9,-20 -20,-20zm-20 62l0 53c0,11 9,20 20,20 11,0 20,-9 20,-20l0 -45 -28 0c-5,0 -10,-4 -12,-8l0 0z"/>
  <line class="fil0 str2" x1="169" y1="142" x2="299" y2= "142" />
  <rect class="fil0 str3" transform="matrix(2.64845E-014 1 -1 2.64845E-014 500.05 0.05)" width="500" height="500"/>
 </g>
</svg>
