<?xml version="1.0" encoding="UTF-8"?>
<!DOCTYPE svg PUBLIC "-//W3C//DTD SVG 1.1//EN" "http://www.w3.org/Graphics/SVG/1.1/DTD/svg11.dtd">
<!-- Creator: CorelDRAW X6 -->
<svg xmlns="http://www.w3.org/2000/svg" xml:space="preserve" width="100%" height="100%" version="1.1" style="shape-rendering:geometricPrecision; text-rendering:geometricPrecision; image-rendering:optimizeQuality; fill-rule:evenodd; clip-rule:evenodd"
viewBox="0 0 500 500"
 xmlns:xlink="http://www.w3.org/1999/xlink">
 <defs>
  <style type="text/css">
   <![CDATA[
    .str0 {stroke:#2B2A29;stroke-width:0.1}
    .fil1 {fill:none}
    .fil0 {fill:#333333}
   ]]>
  </style>
 </defs>
 <g id="Layer_x0020_1">
  <metadata id="CorelCorpID_0Corel-Layer"/>
  <path class="fil0" d="M338 229l94 0c8,0 15,-6 15,-15 0,-8 -7,-14 -15,-14l-133 0c-5,0 -9,-2 -12,-5 -2,-2 -3,-4 -4,-7 0,-2 -1,-2 -2,-1 -4,6 -6,14 -8,23 -6,25 -14,57 -69,58 -1,0 -2,-1 -2,-3 0,-1 1,-2 2,-2 51,-1 58,-31 64,-55 3,-13 6,-25 16,-30l37 -22c8,-4 15,-10 17,-19 2,-6 0,-27 -9,-22l-25 15c-30,9 -73,22 -99,39 -19,13 -28,28 -39,48l-19 0 0 119 17 0c21,0 26,11 45,11l186 0c8,0 15,-7 15,-15 0,-8 -7,-14 -15,-14l-67 0c-3,0 -5,-3 -5,-5 0,-3 2,-5 5,-5l115 0c8,0 15,-7 15,-15 0,-8 -7,-15 -15,-15l-104 0c-3,1 -6,-2 -6,-5 0,-2 2,-5 5,-5l116 0c8,0 15,-6 15,-14 0,-8 -6,-15 -15,-15l-116 0c-3,0 -5,-2 -5,-5 0,-3 2,-5 5,-5zm-206 -23l-98 0c-3,0 -6,3 -5,6l17 150c1,2 3,4 5,4l81 0c3,0 5,-2 5,-5l0 -150c0,-3 -2,-5 -5,-5zm-17 125c7,0 13,6 13,13 0,7 -6,12 -13,12 -7,0 -12,-5 -12,-12 0,-7 5,-13 12,-13z"/>
  <rect class="fil1 str0" transform="matrix(2.64845E-014 -1 1 2.64845E-014 0.05 500.048)" width="500" height="500"/>
 </g>
</svg>
