<?xml version="1.0" encoding="UTF-8"?>
<!DOCTYPE svg PUBLIC "-//W3C//DTD SVG 1.1//EN" "http://www.w3.org/Graphics/SVG/1.1/DTD/svg11.dtd">
<!-- Creator: CorelDRAW X6 -->
<svg xmlns="http://www.w3.org/2000/svg" xml:space="preserve" width="100%" height="100%" version="1.1" style="shape-rendering:geometricPrecision; text-rendering:geometricPrecision; image-rendering:optimizeQuality; fill-rule:evenodd; clip-rule:evenodd"
viewBox="0 0 500 500"
 xmlns:xlink="http://www.w3.org/1999/xlink">
 <defs>
  <style type="text/css">
   <![CDATA[
    .str4 {stroke:#2B2A29;stroke-width:0.1}
    .str3 {stroke:#333333;stroke-width:5}
    .str1 {stroke:#434242;stroke-width:10;stroke-linecap:round}
    .str2 {stroke:#333333;stroke-width:10}
    .str0 {stroke:#333333;stroke-width:10;stroke-linecap:round;stroke-linejoin:round}
    .fil1 {fill:none}
    .fil3 {fill:white}
    .fil2 {fill:url(#id0)}
    .fil0 {fill:url(#id1)}
   ]]>
  </style>
  <linearGradient id="id0" gradientUnits="userSpaceOnUse" x1="192.003" y1="412.589" x2="363.017" y2="412.589">
   <stop offset="0" style="stop-color:#0076D8"/>
   <stop offset="1" style="stop-color:#008BFF"/>
  </linearGradient>
  <linearGradient id="id1" gradientUnits="userSpaceOnUse" x1="240.576" y1="28.558" x2="240.576" y2="357.616">
   <stop offset="0" style="stop-color:white"/>
   <stop offset="1" style="stop-color:#EBEBEB"/>
  </linearGradient>
 </defs>
 <g id="Layer_x0020_1">
  <metadata id="CorelCorpID_0Corel-Layer"/>
  <path class="fil0 str0" d="M302 175l0 -67c0,-11 9,-20 20,-20 11,0 20,9 20,20l0 160c0,16 -10,33 -10,45l0 45 -130 0 0 0 0 -44c-42,-24 -63,-64 -62,-124l0 -44c0,-5 4,-9 8,-12 9,-5 35,9 35,33l0 37 0 -133c0,-11 9,-20 20,-20 11,0 20,9 20,20l0 94 0 0 0 -117c0,-11 9,-19 20,-19 11,0 20,8 20,19l0 117 0 0 0 -106c0,-10 9,-19 19,-19 11,0 20,9 20,19l0 116 0 0z"/>
  <path class="fil1 str1" d="M183 204c0,8 62,19 72,46"/>
  <path class="fil2 str2" d="M192 368l0 98c0,3 1,6 3,8 3,2 5,3 8,2l150 -17c5,-1 9,-5 9,-10l0 -81c0,-6 -4,-10 -10,-10l-150 0c-6,0 -10,4 -10,10z"/>
  <circle class="fil3 str3" transform="matrix(2.20687E-014 -0.833267 0.833267 2.20687E-014 335.047 385.047)" r="15"/>
  <rect class="fil1 str4" transform="matrix(2.64845E-014 -1 1 2.64845E-014 0.05 500.048)" width="500" height="500"/>
 </g>
</svg>
