<?xml version="1.0" encoding="UTF-8"?>
<!DOCTYPE svg PUBLIC "-//W3C//DTD SVG 1.1//EN" "http://www.w3.org/Graphics/SVG/1.1/DTD/svg11.dtd">
<!-- Creator: CorelDRAW X6 -->
<svg xmlns="http://www.w3.org/2000/svg" xml:space="preserve" width="100%" height="100%" version="1.1" style="shape-rendering:geometricPrecision; text-rendering:geometricPrecision; image-rendering:optimizeQuality; fill-rule:evenodd; clip-rule:evenodd"
viewBox="0 0 500 500"
 xmlns:xlink="http://www.w3.org/1999/xlink">
 <defs>
  <style type="text/css">
   <![CDATA[
    .str1 {stroke:#2B2A29;stroke-width:0.1}
    .str0 {stroke:#4D4D4D;stroke-width:5}
    .fil2 {fill:none}
    .fil1 {fill:#4D4D4D}
    .fil0 {fill:white}
   ]]>
  </style>
 </defs>
 <g id="Layer_x0020_1">
  <metadata id="CorelCorpID_0Corel-Layer"/>
  <path class="fil0 str0" d="M299 368l0 98c0,3 -1,6 -3,8 -2,2 -5,3 -8,2l-150 -17c-5,-1 -9,-5 -9,-10l0 -81c0,-6 5,-10 10,-10l22 0 -1 -56c-7,-5 -11,-14 -11,-24 -1,-71 -1,-105 -1,-176 0,-11 9,-20 20,-20 11,0 19,9 19,20l0 59 0 0 0 -107c0,-11 9,-20 20,-20 11,0 20,9 20,20l0 103 0 0 0 -114c0,-11 9,-20 19,-20 11,0 20,9 20,20l0 114 0 0 0 -92c0,-11 9,-20 20,-20 10,0 19,9 19,20l0 139c0,7 11,18 23,18 17,0 33,-11 56,-11 22,0 39,17 28,28 -63,16 -102,75 -129,79 -3,1 -6,0 -6,6l0 34 12 0c6,0 10,4 10,10zm-129 19c0,-7 -5,-12 -12,-12 -7,0 -13,5 -13,12 0,7 6,13 13,13 7,0 12,-6 12,-13z"/>
  <circle class="fil1" transform="matrix(-2.20687E-014 -0.833267 -0.833267 2.20687E-014 157.66 387.117)" r="15"/>
  <line class="fil2 str0" x1="161" y1="358" x2="277" y2= "358" />
  <rect class="fil2 str1" width="500" height="500"/>
 </g>
</svg>
