<?xml version="1.0" encoding="UTF-8"?>
<!DOCTYPE svg PUBLIC "-//W3C//DTD SVG 1.1//EN" "http://www.w3.org/Graphics/SVG/1.1/DTD/svg11.dtd">
<!-- Creator: CorelDRAW X6 -->
<svg xmlns="http://www.w3.org/2000/svg" xml:space="preserve" width="100%" height="100%" version="1.1" style="shape-rendering:geometricPrecision; text-rendering:geometricPrecision; image-rendering:optimizeQuality; fill-rule:evenodd; clip-rule:evenodd"
viewBox="0 0 500 500"
 xmlns:xlink="http://www.w3.org/1999/xlink">
 <defs>
  <style type="text/css">
   <![CDATA[
    .str4 {stroke:#2B2A29;stroke-width:0.1}
    .str3 {stroke:#333333;stroke-width:5}
    .str1 {stroke:#434242;stroke-width:10;stroke-linecap:round}
    .str0 {stroke:#434242;stroke-width:10;stroke-linecap:round;stroke-linejoin:round}
    .str2 {stroke:#333333;stroke-width:10}
    .fil1 {fill:none}
    .fil3 {fill:white}
    .fil2 {fill:url(#id0)}
    .fil0 {fill:url(#id1)}
   ]]>
  </style>
  <linearGradient id="id0" gradientUnits="userSpaceOnUse" x1="82.969" y1="200.94" x2="82.969" y2="370.936">
   <stop offset="0" style="stop-color:#0076D8"/>
   <stop offset="1" style="stop-color:#008BFF"/>
  </linearGradient>
  <linearGradient id="id1" gradientUnits="userSpaceOnUse" x1="182.277" y1="229.82" x2="434.301" y2="229.82">
   <stop offset="0" style="stop-color:#FCFCFD"/>
   <stop offset="1" style="stop-color:#EDEDED"/>
  </linearGradient>
 </defs>
 <g id="Layer_x0020_1">
  <metadata id="CorelCorpID_0Corel-Layer"/>
  <path class="fil0 str0" d="M328 313l67 0c11,0 20,8 20,19 0,11 -9,20 -20,20l-186 0c-16,0 -33,-11 -45,-11l-22 0 0 -129 21 0c24,-42 35,-54 138,-87l26 -15c4,-2 10,-1 13,4 9,15 3,35 -12,44l-4 3 -36 21c-1,7 3,13 11,13l133 0c11,0 20,9 20,19 0,11 -9,20 -20,20l-94 0 0 0 116 0c11,0 20,9 20,20 0,11 -9,19 -20,19l-116 0 0 0 105 0c11,0 20,9 20,20 0,11 -9,20 -20,20l-115 0 0 0z"/>
  <path class="fil1 str1" d="M288 182c-26,11 -1,84 -82,85"/>
  <path class="fil2 str2" d="M132 201l-98 0c-3,0 -6,1 -8,3 -2,3 -3,5 -2,8l17 150c1,5 5,9 10,9l81 0c6,0 10,-5 10,-10l0 -150c0,-6 -4,-10 -10,-10z"/>
  <circle class="fil3 str3" cx="113" cy="342" r="12"/>
  <rect class="fil1 str4" transform="matrix(2.64845E-014 -1 1 2.64845E-014 0.05 500.048)" width="500" height="500"/>
 </g>
</svg>
