<?xml version="1.0" encoding="UTF-8"?>
<!DOCTYPE svg PUBLIC "-//W3C//DTD SVG 1.1//EN" "http://www.w3.org/Graphics/SVG/1.1/DTD/svg11.dtd">
<!-- Creator: CorelDRAW X6 -->
<svg xmlns="http://www.w3.org/2000/svg" xml:space="preserve" width="100%" height="100%" version="1.1" style="shape-rendering:geometricPrecision; text-rendering:geometricPrecision; image-rendering:optimizeQuality; fill-rule:evenodd; clip-rule:evenodd"
viewBox="0 0 500 500"
 xmlns:xlink="http://www.w3.org/1999/xlink">
 <defs>
  <style type="text/css">
   <![CDATA[
    .str3 {stroke:#2B2A29;stroke-width:0.1}
    .str2 {stroke:#333333;stroke-width:5}
    .str1 {stroke:#333333;stroke-width:10}
    .str0 {stroke:#333333;stroke-width:10;stroke-linecap:round;stroke-linejoin:round}
    .fil4 {fill:none}
    .fil1 {fill:white}
    .fil2 {fill:#F3F3F4}
    .fil3 {fill:url(#id0)}
    .fil0 {fill:url(#id1)}
   ]]>
  </style>
  <linearGradient id="id0" gradientUnits="userSpaceOnUse" x1="313.732" y1="87.955" x2="141.774" y2="87.955">
   <stop offset="0" style="stop-color:#0076D8"/>
   <stop offset="1" style="stop-color:#008BFF"/>
  </linearGradient>
  <linearGradient id="id1" gradientUnits="userSpaceOnUse" x1="254.973" y1="329.652" x2="254.973" y2="148.27">
   <stop offset="0" style="stop-color:white"/>
   <stop offset="1" style="stop-color:#EBEBEB"/>
  </linearGradient>
 </defs>
 <g id="Layer_x0020_1">
  <metadata id="CorelCorpID_0Corel-Layer"/>
  <path class="fil0 str0" d="M310 285c0,-15 -70,0 -70,-105 0,105 70,90 70,105l-150 0 0 -60c0,-16 9,-33 9,-45l0 -38 130 0 0 37c42,24 56,41 56,71l0 60c0,7 0,15 -15,15l-58 0 -30 0c-5,0 -10,-4 -12,-8 -5,-10 10,-32 34,-32l36 0z"/>
  <path class="fil1 str1" d="M320 325l-40 0 0 125c0,11 9,20 20,20 11,0 20,-9 20,-20l0 -125z"/>
  <path class="fil2 str1" d="M180 255c-11,0 -20,9 -20,20l0 55c0,11 9,20 20,20 11,0 20,-9 20,-20l0 -55c0,-11 -9,-20 -20,-20z"/>
  <path class="fil2 str1" d="M220 255c11,0 20,9 20,20l0 75c0,11 -9,20 -20,20 -11,0 -20,-9 -20,-20l0 -75c0,-11 9,-20 20,-20z"/>
  <path class="fil2 str1" d="M260 255c-11,0 -20,9 -20,20l0 32c3,-10 16,-22 34,-22l6 0 0 -10c0,-11 -9,-20 -20,-20zm-20 62l0 53c0,11 9,20 20,20 11,0 20,-9 20,-20l0 -45 -28 0c-5,0 -10,-4 -12,-8l0 0z"/>
  <path class="fil3 str1" d="M312 132l0 -98c0,-3 -1,-6 -4,-8 -2,-2 -4,-3 -7,-2l-150 17c-5,1 -9,5 -9,10l0 81c0,6 4,10 10,10l150 0c5,0 10,-4 10,-10z"/>
  <circle class="fil1 str2" transform="matrix(2.20687E-014 0.833267 -0.833267 2.20687E-014 170.272 112.981)" r="15"/>
  <rect class="fil4 str3" transform="matrix(2.64845E-014 1 -1 2.64845E-014 500.05 0.05)" width="500" height="500"/>
 </g>
</svg>
