<?xml version="1.0" encoding="UTF-8"?>
<!DOCTYPE svg PUBLIC "-//W3C//DTD SVG 1.1//EN" "http://www.w3.org/Graphics/SVG/1.1/DTD/svg11.dtd">
<!-- Creator: CorelDRAW X6 -->
<svg xmlns="http://www.w3.org/2000/svg" xml:space="preserve" width="100%" height="100%" version="1.1" style="shape-rendering:geometricPrecision; text-rendering:geometricPrecision; image-rendering:optimizeQuality; fill-rule:evenodd; clip-rule:evenodd"
viewBox="0 0 500 500"
 xmlns:xlink="http://www.w3.org/1999/xlink">
 <defs>
  <style type="text/css">
   <![CDATA[
    .str3 {stroke:#2B2A29;stroke-width:0.1}
    .str0 {stroke:#4D4D4D;stroke-width:5;stroke-linecap:round;stroke-linejoin:round}
    .str2 {stroke:#4D4D4D;stroke-width:15;stroke-linecap:round}
    .str1 {stroke:#4D4D4D;stroke-width:15;stroke-linecap:round;stroke-linejoin:round}
    .fil0 {fill:none}
   ]]>
  </style>
 </defs>
 <g id="Layer_x0020_1">
  <metadata id="CorelCorpID_0Corel-Layer"/>
  <path class="fil0 str0" d="M181 387c0,-7 -5,-12 -12,-12 -7,0 -13,5 -13,12 0,7 6,13 13,13 7,0 12,-6 12,-13z"/>
  <path class="fil0 str1" d="M310 368l0 98c0,3 -1,6 -3,8 -2,2 -5,3 -8,2l-150 -17c-5,-1 -9,-5 -9,-10l0 -81c0,-6 5,-10 10,-10l15 0 0 -27c0,-11 -11,-45 -11,-61l0 -102c0,-11 9,-20 20,-20 10,0 19,9 19,20l0 0 0 -12c0,-11 9,-20 20,-20 11,0 19,9 19,20l0 0 0 -11c0,-11 9,-20 20,-20 11,0 20,9 20,20l0 0 0 -100c0,-11 8,-20 19,-20 11,0 20,9 20,20l0 163c0,8 5,12 13,11l21 -36 2 -4c9,-15 29,-21 45,-12 4,3 6,8 3,13l-15 26c-32,103 -44,103 -86,126l0 26 6 0c6,0 10,4 10,10z"/>
  <line class="fil0 str2" x1="294" y1="358" x2="164" y2= "358" />
  <rect class="fil0 str3" transform="matrix(2.64845E-014 -1 1 2.64845E-014 0.05 500.048)" width="500" height="500"/>
 </g>
</svg>
