<?xml version="1.0" encoding="UTF-8"?>
<!DOCTYPE svg PUBLIC "-//W3C//DTD SVG 1.1//EN" "http://www.w3.org/Graphics/SVG/1.1/DTD/svg11.dtd">
<!-- Creator: CorelDRAW X6 -->
<svg xmlns="http://www.w3.org/2000/svg" xml:space="preserve" width="100%" height="100%" version="1.1" style="shape-rendering:geometricPrecision; text-rendering:geometricPrecision; image-rendering:optimizeQuality; fill-rule:evenodd; clip-rule:evenodd"
viewBox="0 0 500 500"
 xmlns:xlink="http://www.w3.org/1999/xlink">
 <defs>
  <style type="text/css">
   <![CDATA[
    .str0 {stroke:#2B2A29;stroke-width:0.1}
    .fil1 {fill:none}
    .fil0 {fill:#333333}
   ]]>
  </style>
 </defs>
 <g id="Layer_x0020_1">
  <metadata id="CorelCorpID_0Corel-Layer"/>
  <path class="fil0" d="M294 368l0 98c0,3 -2,6 -5,5l-150 -17c-3,-1 -5,-3 -5,-5l0 -81c0,-3 2,-5 5,-5l150 0c3,0 5,2 5,5zm-23 -209l0 -94c0,-8 7,-15 15,-15 8,0 14,7 14,15l0 139c0,27 37,23 53,18 15,-5 34,-10 49,-1 5,2 11,8 7,13 -54,15 -58,47 -117,80 -5,0 -9,1 -9,10l0 26c-36,0 -83,0 -119,0l0 -17c0,-21 -11,-26 -11,-45l0 -186c0,-8 7,-15 15,-15 8,0 14,7 14,15l0 67c0,3 3,5 5,5 3,0 5,-2 5,-5l0 -115c0,-8 7,-15 15,-15 8,0 15,7 15,15l0 104c-1,3 2,6 5,6 2,0 5,-2 5,-5l0 -116c0,-8 6,-15 14,-15 8,0 15,6 15,15l0 116c0,3 2,5 5,5 3,0 5,-2 5,-5zm-102 226c0,-7 -6,-12 -13,-12 -7,0 -12,5 -12,12 0,7 5,13 12,13 7,0 13,-6 13,-13z"/>
  <rect class="fil1 str0" width="500" height="500"/>
 </g>
</svg>
