<?xml version="1.0" encoding="UTF-8"?>
<!DOCTYPE svg PUBLIC "-//W3C//DTD SVG 1.1//EN" "http://www.w3.org/Graphics/SVG/1.1/DTD/svg11.dtd">
<!-- Creator: CorelDRAW X6 -->
<svg xmlns="http://www.w3.org/2000/svg" xml:space="preserve" width="100%" height="100%" version="1.1" style="shape-rendering:geometricPrecision; text-rendering:geometricPrecision; image-rendering:optimizeQuality; fill-rule:evenodd; clip-rule:evenodd"
viewBox="0 0 500 500"
 xmlns:xlink="http://www.w3.org/1999/xlink">
 <defs>
  <style type="text/css">
   <![CDATA[
    .str0 {stroke:#2B2A29;stroke-width:0.1}
    .fil1 {fill:none}
    .fil0 {fill:#333333}
   ]]>
  </style>
 </defs>
 <g id="Layer_x0020_1">
  <metadata id="CorelCorpID_0Corel-Layer"/>
  <circle class="fil0" cx="384" cy="244" r="5"/>
  <path class="fil0" d="M310 290c-14,0 -40,-2 -52,4 -11,6 -22,26 -6,26l30 0 58 0c0,-1 10,3 10,-10 -1,-29 2,-117 -53,-126 -2,-1 -3,-3 -3,-5l0 -32 -120 0 0 33c0,15 -9,30 -9,45l0 50 0 5 0 48c0,8 7,15 15,15 8,0 15,-7 15,-15l0 -48c0,-3 2,-5 5,-5 3,0 5,2 5,5l0 63c0,8 7,15 15,15 8,0 15,-7 15,-15l0 -63c0,-3 2,-5 5,-5 3,0 5,2 5,5l0 16c15,-14 31,-12 50,-12 -10,-4 -18,-10 -25,-17 -10,-10 -16,-22 -18,-33 -1,-2 0,-3 2,-3 1,0 2,1 2,2 2,10 8,21 18,31 8,8 20,16 36,21 1,0 2,1 2,3 0,1 -1,2 -2,2zm-3 -158l0 -98c0,-3 -3,-6 -6,-5l-150 17c-2,1 -4,3 -4,5l0 81c0,3 2,5 5,5l150 0c3,0 5,-2 5,-5zm-126 -17c0,7 -5,13 -12,13 -7,0 -13,-6 -13,-13 0,-7 6,-12 13,-12 7,0 12,5 12,12zm104 210l0 116c0,8 7,15 15,15 8,0 15,-7 15,-15l0 -116 -30 0zm-40 -1l0 38c0,8 7,15 15,15 8,0 15,-7 15,-15l0 -36 -23 0c-2,0 -5,-1 -7,-2z"/>
  <rect class="fil1 str0" transform="matrix(-7.94536E-014 1 -1 -7.94536E-014 500.05 0.05)" width="500" height="500"/>
 </g>
</svg>
