<?xml version="1.0" encoding="UTF-8"?>
<!DOCTYPE svg PUBLIC "-//W3C//DTD SVG 1.1//EN" "http://www.w3.org/Graphics/SVG/1.1/DTD/svg11.dtd">
<!-- Creator: CorelDRAW X6 -->
<svg xmlns="http://www.w3.org/2000/svg" xml:space="preserve" width="100%" height="100%" version="1.1" style="shape-rendering:geometricPrecision; text-rendering:geometricPrecision; image-rendering:optimizeQuality; fill-rule:evenodd; clip-rule:evenodd"
viewBox="0 0 500 500"
 xmlns:xlink="http://www.w3.org/1999/xlink">
 <defs>
  <style type="text/css">
   <![CDATA[
    .str3 {stroke:#2B2A29;stroke-width:0.1}
    .str1 {stroke:#333333;stroke-width:5}
    .str0 {stroke:#333333;stroke-width:10}
    .str2 {stroke:#333333;stroke-width:10;stroke-linejoin:round}
    .fil4 {fill:none}
    .fil2 {fill:#333333}
    .fil0 {fill:white}
    .fil3 {fill:url(#id0)}
    .fil1 {fill:url(#id1)}
   ]]>
  </style>
  <linearGradient id="id0" gradientUnits="userSpaceOnUse" x1="356.442" y1="268.344" x2="43.41" y2="268.344">
   <stop offset="0" style="stop-color:white"/>
   <stop offset="1" style="stop-color:#EBEBEB"/>
  </linearGradient>
  <linearGradient id="id1" gradientUnits="userSpaceOnUse" x1="420.165" y1="239.366" x2="420.165" y2="353.878">
   <stop offset="0" style="stop-color:#0076D8"/>
   <stop offset="1" style="stop-color:#008BFF"/>
  </linearGradient>
 </defs>
 <g id="Layer_x0020_1">
  <metadata id="CorelCorpID_0Corel-Layer"/>
  <path class="fil0 str0" d="M251 309l8 13c5,9 15,11 23,7l0 0c4,-2 6,-5 7,-8 -12,-3 -25,-7 -37,-12 -1,5 -4,10 -9,13l0 0c-8,5 -18,2 -23,-6l-12 -22 2 0c14,5 28,10 41,15z"/>
  <path class="fil1 str0" d="M378 225l84 0c2,0 4,1 6,3 2,2 2,4 2,6l-15 127c0,4 -4,7 -8,7l-69 0c-4,0 -8,-4 -8,-8l0 -127c0,-4 4,-8 8,-8z"/>
  <circle class="fil2 str1" cx="395" cy="343" r="11"/>
  <path class="fil3 str2" d="M38 203l190 -4c39,4 93,15 126,39l16 0 0 98 -18 -17c-55,19 -100,-14 -152,-28l-40 3c-12,0 -18,-13 -18,-20 0,-8 6,-20 18,-20 12,0 24,0 37,2 18,-12 39,-14 58,-18 -19,4 -40,6 -58,18 -16,-8 -21,-10 -29,-22l-99 -2c-15,0 -39,-2 -39,-21 0,-7 4,-8 8,-8z"/>
  <rect class="fil4 str3" width="500" height="500"/>
 </g>
</svg>
