<?xml version="1.0" encoding="UTF-8"?>
<!DOCTYPE svg PUBLIC "-//W3C//DTD SVG 1.1//EN" "http://www.w3.org/Graphics/SVG/1.1/DTD/svg11.dtd">
<!-- Creator: CorelDRAW X6 -->
<svg xmlns="http://www.w3.org/2000/svg" xml:space="preserve" width="100%" height="100%" version="1.1" style="shape-rendering:geometricPrecision; text-rendering:geometricPrecision; image-rendering:optimizeQuality; fill-rule:evenodd; clip-rule:evenodd"
viewBox="0 0 500 500"
 xmlns:xlink="http://www.w3.org/1999/xlink">
 <defs>
  <style type="text/css">
   <![CDATA[
    .str3 {stroke:#2B2A29;stroke-width:0.1}
    .str1 {stroke:#4D4D4D;stroke-width:5;stroke-linejoin:round}
    .str0 {stroke:#4D4D4D;stroke-width:15}
    .str2 {stroke:#4D4D4D;stroke-width:15;stroke-linejoin:round}
    .fil1 {fill:none}
    .fil0 {fill:white}
   ]]>
  </style>
 </defs>
 <g id="Layer_x0020_1">
  <metadata id="CorelCorpID_0Corel-Layer"/>
  <path class="fil0 str0" d="M249 309l-8 13c-5,9 -15,11 -23,7l0 0c-3,-2 -6,-5 -7,-8 13,-3 25,-7 38,-12 0,5 3,10 8,13l0 0c8,5 19,2 23,-6l13 -22 -3 0c-14,5 -28,10 -41,15z"/>
  <path class="fil1 str1" d="M105 333c6,0 10,4 10,10 0,6 -4,11 -10,11 -6,0 -11,-5 -11,-11 0,-6 5,-10 11,-10z"/>
  <path class="fil1 str2" d="M122 225l-84 0c-2,0 -4,1 -6,3 -1,2 -2,4 -2,6l15 127c0,4 4,7 8,7l69 0c4,0 8,-4 8,-8l0 -24 18 -17c55,19 101,-14 152,-28l40 3c12,0 19,-13 19,-20 0,-8 -7,-20 -19,-20 -12,0 -24,0 -37,2 -18,-12 -38,-14 -58,-18 20,4 40,6 58,18 16,-8 21,-10 29,-22l99 -2c16,0 39,-2 39,-21 0,-7 -4,-8 -8,-8l-190 -4c-39,4 -93,15 -126,39l-16 0 0 -5c0,-4 -4,-8 -8,-8z"/>
  <line class="fil1 str0" x1="130" y1="336" x2="130" y2= "238" />
  <rect class="fil1 str3" width="500" height="500"/>
 </g>
</svg>
