<?xml version="1.0" encoding="UTF-8"?>
<!DOCTYPE svg PUBLIC "-//W3C//DTD SVG 1.1//EN" "http://www.w3.org/Graphics/SVG/1.1/DTD/svg11.dtd">
<!-- Creator: CorelDRAW X6 -->
<svg xmlns="http://www.w3.org/2000/svg" xml:space="preserve" width="100%" height="100%" version="1.1" style="shape-rendering:geometricPrecision; text-rendering:geometricPrecision; image-rendering:optimizeQuality; fill-rule:evenodd; clip-rule:evenodd"
viewBox="0 0 500 500"
 xmlns:xlink="http://www.w3.org/1999/xlink">
 <defs>
  <style type="text/css">
   <![CDATA[
    .str0 {stroke:#2B2A29;stroke-width:0.1}
    .fil1 {fill:none}
    .fil0 {fill:#333333}
   ]]>
  </style>
 </defs>
 <g id="Layer_x0020_1">
  <metadata id="CorelCorpID_0Corel-Layer"/>
  <path class="fil0" d="M218 165l0 -94c0,-9 -7,-15 -15,-15 -8,0 -15,7 -15,15 0,44 0,88 0,133 0,1 1,2 1,3 1,1 2,1 3,2 2,1 7,1 12,4 10,4 47,18 53,36 1,1 0,3 -1,3 -1,1 -3,0 -3,-1 -1,-1 -1,-2 -2,-4 -8,-12 -29,-22 -43,-28 -2,0 -4,-1 -6,-2 -14,-5 -24,-7 -24,-13l0 -38c-1,-13 -13,-28 -25,-28 -4,0 -8,5 -8,8 0,39 -4,82 14,117 10,20 25,35 45,46 2,1 3,3 3,5l0 39 120 0 0 -40c0,-7 3,-14 5,-21 2,-8 5,-16 5,-24l0 -160c0,-9 -7,-15 -15,-15 -8,0 -15,6 -15,15l0 67c0,2 -2,5 -5,5 -2,0 -5,-3 -5,-5l0 -67 0 -49c0,-8 -6,-14 -15,-14 -8,0 -14,6 -14,14l0 106c0,2 -3,5 -5,5 -3,0 -5,-3 -5,-5l0 -106 0 -11c0,-8 -7,-14 -15,-14 -8,0 -15,6 -15,14l0 23 0 94c0,2 -2,5 -5,5 -3,0 -5,-3 -5,-5zm-21 203l0 98c0,3 3,6 6,5l150 -17c2,-1 4,-3 4,-5l0 -81c0,-3 -2,-5 -5,-5l-150 0c-3,0 -5,2 -5,5zm126 17c0,-7 5,-12 12,-12 7,0 13,5 13,12 0,7 -6,13 -13,13 -7,0 -12,-6 -12,-13z"/>
  <rect class="fil1 str0" transform="matrix(2.64845E-014 -1 1 2.64845E-014 0.05 500.048)" width="500" height="500"/>
 </g>
</svg>
