<?xml version="1.0" encoding="UTF-8"?>
<!DOCTYPE svg PUBLIC "-//W3C//DTD SVG 1.1//EN" "http://www.w3.org/Graphics/SVG/1.1/DTD/svg11.dtd">
<!-- Creator: CorelDRAW X6 -->
<svg xmlns="http://www.w3.org/2000/svg" xml:space="preserve" width="100%" height="100%" version="1.1" style="shape-rendering:geometricPrecision; text-rendering:geometricPrecision; image-rendering:optimizeQuality; fill-rule:evenodd; clip-rule:evenodd"
viewBox="0 0 500 500"
 xmlns:xlink="http://www.w3.org/1999/xlink">
 <defs>
  <style type="text/css">
   <![CDATA[
    .str4 {stroke:#2B2A29;stroke-width:0.1}
    .str0 {stroke:#4D4D4D;stroke-width:5}
    .str3 {stroke:#4D4D4D;stroke-width:15}
    .str2 {stroke:#4D4D4D;stroke-width:15;stroke-linecap:round}
    .str1 {stroke:#4D4D4D;stroke-width:15;stroke-linecap:round;stroke-linejoin:round}
    .fil0 {fill:none}
   ]]>
  </style>
 </defs>
 <g id="Layer_x0020_1">
  <metadata id="CorelCorpID_0Corel-Layer"/>
  <path class="fil0 str0" d="M113 330c7,0 12,6 12,12 0,7 -5,13 -12,13 -7,0 -13,-6 -13,-13 0,-6 6,-12 13,-12z"/>
  <path class="fil0 str1" d="M328 313l67 0c11,0 20,8 20,19 0,11 -9,20 -20,20l-186 0c-16,0 -33,-11 -45,-11l-22 0 0 20c0,5 -4,10 -10,10l-81 0c-5,0 -9,-4 -10,-9l-17 -150c-1,-3 0,-5 2,-8 2,-2 5,-3 8,-3l98 0c6,0 10,4 10,10l0 1 21 0c24,-42 35,-54 138,-87l26 -15c4,-2 10,-1 13,4 9,15 3,35 -12,44l-4 3 -36 21c-1,7 3,13 11,13l133 0c11,0 20,9 20,19 0,11 -9,20 -20,20l-94 0 0 0 116 0c11,0 20,9 20,20 0,11 -9,19 -20,19l-116 0 0 0 105 0c11,0 20,9 20,20 0,11 -9,20 -20,20l-115 0 0 0z"/>
  <path class="fil0 str2" d="M288 182c-26,11 -1,84 -82,85"/>
  <line class="fil0 str3" x1="142" y1="341" x2="142" y2= "211" />
  <rect class="fil0 str4" transform="matrix(2.64845E-014 -1 1 2.64845E-014 0.05 500.048)" width="500" height="500"/>
 </g>
</svg>
