<?xml version="1.0" encoding="UTF-8"?>
<!DOCTYPE svg PUBLIC "-//W3C//DTD SVG 1.1//EN" "http://www.w3.org/Graphics/SVG/1.1/DTD/svg11.dtd">
<!-- Creator: CorelDRAW X6 -->
<svg xmlns="http://www.w3.org/2000/svg" xml:space="preserve" width="100%" height="100%" version="1.1" style="shape-rendering:geometricPrecision; text-rendering:geometricPrecision; image-rendering:optimizeQuality; fill-rule:evenodd; clip-rule:evenodd"
viewBox="0 0 500 500"
 xmlns:xlink="http://www.w3.org/1999/xlink">
 <defs>
  <style type="text/css">
   <![CDATA[
    .str0 {stroke:#2B2A29;stroke-width:0.1}
    .fil1 {fill:none}
    .fil0 {fill:#333333}
   ]]>
  </style>
 </defs>
 <g id="Layer_x0020_1">
  <metadata id="CorelCorpID_0Corel-Layer"/>
  <path class="fil0" d="M245 316l-4 6c-5,9 -15,11 -23,7l0 0c-2,-1 -3,-2 -4,-3 10,-3 20,-6 31,-10zm217 -115l-189 -4c-22,3 -48,7 -72,15 -20,6 -38,14 -52,24 -1,1 -2,1 -3,1l-11 0 0 91 10 -9c1,-1 3,-1 5,-1 37,13 71,0 106,-13 14,-5 28,-11 43,-15 8,-2 40,9 50,-2 3,-3 5,-9 5,-12 0,-3 -2,-10 -5,-13 -8,-8 -38,-3 -46,-2 -1,0 -2,-1 -3,-1 -17,-11 -37,-13 -56,-17 -2,0 -4,-2 -4,-5 0,-3 3,-5 6,-5 20,4 39,6 57,17 11,-6 18,-8 25,-19 1,-1 2,-2 4,-2 13,0 104,2 123,-5 6,-2 10,-12 10,-20 0,-3 -2,-3 -3,-3zm-345 29l-74 0c-3,0 -5,1 -6,3 -2,1 -2,3 -2,6l13 117c1,4 4,7 8,7l61 0c5,0 8,-3 8,-8l0 -117c0,-4 -3,-8 -8,-8zm-12 103c6,0 10,4 10,10 0,6 -4,11 -10,11 -6,0 -11,-5 -11,-11 0,-6 5,-10 11,-10zm145 -19c1,3 4,6 7,8l0 0c8,5 19,2 23,-6l9 -16c-10,3 -20,7 -30,11 -3,1 -6,2 -9,3z"/>
  <rect class="fil1 str0" width="500" height="500"/>
 </g>
</svg>
