<?xml version="1.0" encoding="UTF-8"?>
<!DOCTYPE svg PUBLIC "-//W3C//DTD SVG 1.1//EN" "http://www.w3.org/Graphics/SVG/1.1/DTD/svg11.dtd">
<!-- Creator: CorelDRAW X6 -->
<svg xmlns="http://www.w3.org/2000/svg" xml:space="preserve" width="100%" height="100%" version="1.1" style="shape-rendering:geometricPrecision; text-rendering:geometricPrecision; image-rendering:optimizeQuality; fill-rule:evenodd; clip-rule:evenodd"
viewBox="0 0 500 500"
 xmlns:xlink="http://www.w3.org/1999/xlink">
 <defs>
  <style type="text/css">
   <![CDATA[
    .str3 {stroke:#2B2A29;stroke-width:0.1}
    .str2 {stroke:#333333;stroke-width:5}
    .str0 {stroke:#434242;stroke-width:10;stroke-linecap:round;stroke-linejoin:round}
    .str1 {stroke:#333333;stroke-width:10}
    .fil3 {fill:none}
    .fil2 {fill:white}
    .fil1 {fill:url(#id0)}
    .fil0 {fill:url(#id1)}
   ]]>
  </style>
  <linearGradient id="id0" gradientUnits="userSpaceOnUse" x1="299.62" y1="413.215" x2="129.162" y2="413.215">
   <stop offset="0" style="stop-color:#0076D8"/>
   <stop offset="1" style="stop-color:#008BFF"/>
  </linearGradient>
  <linearGradient id="id1" gradientUnits="userSpaceOnUse" x1="275.08" y1="61.224" x2="275.08" y2="367.748">
   <stop offset="0" style="stop-color:#FCFCFD"/>
   <stop offset="1" style="stop-color:#EDEDED"/>
  </linearGradient>
 </defs>
 <g id="Layer_x0020_1">
  <metadata id="CorelCorpID_0Corel-Layer"/>
  <path class="fil0 str0" d="M187 161l0 -59c0,-11 -8,-20 -19,-20 -11,0 -20,9 -20,20 0,71 0,105 1,176 0,10 4,19 11,24l1 56 116 0 0 -34c0,-6 3,-5 6,-6 27,-4 66,-63 129,-79 11,-11 -6,-28 -28,-28 -23,0 -39,11 -56,11 -12,0 -23,-11 -23,-18l0 -139c0,-11 -9,-20 -19,-20 -11,0 -20,9 -20,20l0 92 0 0 0 -114c0,-11 -9,-20 -20,-20 -10,0 -19,9 -19,20l0 114 0 0 0 -103c0,-11 -9,-20 -20,-20 -11,0 -20,9 -20,20l0 107 0 0z"/>
  <path class="fil1 str1" d="M299 368l0 98c0,3 -1,6 -3,8 -2,2 -5,3 -8,2l-150 -17c-5,-1 -9,-5 -9,-10l0 -81c0,-6 5,-10 10,-10l150 0c6,0 10,4 10,10z"/>
  <circle class="fil2 str2" transform="matrix(-2.20687E-014 -0.833267 -0.833267 2.20687E-014 157.66 387.117)" r="15"/>
  <rect class="fil3 str3" width="500" height="500"/>
 </g>
</svg>
