<?xml version="1.0" encoding="UTF-8"?>
<!DOCTYPE svg PUBLIC "-//W3C//DTD SVG 1.1//EN" "http://www.w3.org/Graphics/SVG/1.1/DTD/svg11.dtd">
<!-- Creator: CorelDRAW X6 -->
<svg xmlns="http://www.w3.org/2000/svg" xml:space="preserve" width="100%" height="100%" version="1.1" style="shape-rendering:geometricPrecision; text-rendering:geometricPrecision; image-rendering:optimizeQuality; fill-rule:evenodd; clip-rule:evenodd"
viewBox="0 0 500 500"
 xmlns:xlink="http://www.w3.org/1999/xlink">
 <defs>
  <style type="text/css">
   <![CDATA[
    .str3 {stroke:#2B2A29;stroke-width:0.1}
    .str2 {stroke:#4D4D4D;stroke-width:5}
    .str1 {stroke:#4D4D4D;stroke-width:15;stroke-linecap:round}
    .str0 {stroke:#4D4D4D;stroke-width:15;stroke-linecap:round;stroke-linejoin:round}
    .fil1 {fill:none}
    .fil0 {fill:white}
   ]]>
  </style>
 </defs>
 <g id="Layer_x0020_1">
  <metadata id="CorelCorpID_0Corel-Layer"/>
  <path class="fil0 str0" d="M302 175l0 -67c0,-11 9,-20 20,-20 11,0 20,9 20,20l0 160c0,16 -10,33 -10,45l0 45 20 0c6,0 10,4 10,10l0 81c0,5 -4,9 -9,10l-150 17c-3,1 -5,0 -8,-2 -2,-2 -3,-5 -3,-8l0 -98c0,-6 4,-10 10,-10l0 -44c-42,-24 -63,-64 -62,-124l0 -44c0,-5 4,-9 8,-12 9,-5 35,9 35,33l0 37 0 -133c0,-11 9,-20 20,-20 11,0 20,9 20,20l0 94 0 0 0 -117c0,-11 9,-19 20,-19 11,0 20,8 20,19l0 117 0 0 0 -106c0,-10 9,-19 19,-19 11,0 20,9 20,19l0 116 0 0z"/>
  <path class="fil1 str1" d="M183 204c0,8 62,19 72,46m-53 108l130 0"/>
  <circle class="fil1 str2" transform="matrix(2.20687E-014 -0.833267 0.833267 2.20687E-014 335.047 385.047)" r="15"/>
  <rect class="fil1 str3" transform="matrix(2.64845E-014 -1 1 2.64845E-014 0.05 500.048)" width="500" height="500"/>
 </g>
</svg>
