<?xml version="1.0" encoding="UTF-8"?>
<!DOCTYPE svg PUBLIC "-//W3C//DTD SVG 1.1//EN" "http://www.w3.org/Graphics/SVG/1.1/DTD/svg11.dtd">

<svg xmlns="http://www.w3.org/2000/svg" xml:space="preserve" width="100%" height="100%" version="1.1" style="shape-rendering:geometricPrecision; text-rendering:geometricPrecision; image-rendering:optimizeQuality; fill-rule:evenodd; clip-rule:evenodd"
viewBox="0 0 500 500"
 xmlns:xlink="http://www.w3.org/1999/xlink">
 <defs>
  <style type="text/css">
   <![CDATA[
    .fil0 {fill:#434242}
   ]]>
  </style>
 </defs>
 <g id="Layer_x0020_1">
  <metadata id="CorelCorpID_0Corel-Layer"/>
  <path class="fil0" d="M109 49c83,0 197,0 279,0 6,0 11,4 12,10l58 258 0 0c-3,-9 -12,-16 -23,-16 -123,0 -247,0 -370,0 -11,0 -20,7 -23,16l0 0 55 -258c1,-6 6,-10 12,-10zm-44 264l370 0c14,0 25,12 25,25l0 74c0,14 -11,25 -25,25l-370 0c-14,0 -25,-11 -25,-25l0 -74c0,-13 11,-25 25,-25zm49 44c10,0 19,8 19,18 0,10 -9,19 -19,19 -10,0 -18,-9 -18,-19 0,-10 8,-18 18,-18zm278 0l-185 0c-10,0 -19,8 -19,18 0,10 9,19 19,19l185 0c10,0 19,-9 19,-19 0,-10 -9,-18 -19,-18z"/>
 </g>
</svg>
