<?xml version="1.0" encoding="UTF-8"?>
<!DOCTYPE svg PUBLIC "-//W3C//DTD SVG 1.1//EN" "http://www.w3.org/Graphics/SVG/1.1/DTD/svg11.dtd">

<svg xmlns="http://www.w3.org/2000/svg" xml:space="preserve" width="100%" height="100%" version="1.1" style="shape-rendering:geometricPrecision; text-rendering:geometricPrecision; image-rendering:optimizeQuality; fill-rule:evenodd; clip-rule:evenodd"
viewBox="0 0 500 500"
 xmlns:xlink="http://www.w3.org/1999/xlink">
 <defs>
  <style type="text/css">
   <![CDATA[
    .str0 {stroke:#434242;stroke-width:10}
    .fil1 {fill:#E5E5E6}
    .fil3 {fill:url(#id0)}
    .fil2 {fill:url(#id1)}
    .fil0 {fill:url(#id2)}
   ]]>
  </style>
  <linearGradient id="id0" gradientUnits="userSpaceOnUse" x1="422.939" y1="374.707" x2="200.584" y2="374.707">
   <stop offset="0" style="stop-color:#008BFF"/>
   <stop offset="1" style="stop-color:#00AAFF"/>
  </linearGradient>
  <linearGradient id="id1" gradientUnits="userSpaceOnUse" xlink:href="#id0" x1="132.644" y1="374.707" x2="95.585" y2="374.707">
  </linearGradient>
  <linearGradient id="id2" gradientUnits="userSpaceOnUse" x1="425.007" y1="191.15" x2="74.991" y2="191.15">
   <stop offset="0" style="stop-color:#CDCDCE"/>
   <stop offset="0.501961" style="stop-color:whitesmoke"/>
   <stop offset="1" style="stop-color:#CDCDCE"/>
  </linearGradient>
 </defs>
 <g id="Layer_x0020_1">
  <metadata id="CorelCorpID_0Corel-Layer"/>
  <path class="fil0 str0" d="M114 54c82,0 187,0 269,0 6,0 11,4 12,9l63 266 0 0c-3,-9 -12,-16 -23,-16 -123,0 -247,0 -370,0 -11,0 -20,7 -23,16l0 0 60 -266c1,-5 6,-9 12,-9z"/>
  <rect class="fil1 str0" x="40" y="313" width="420" height="124" rx="25" ry="25"/>
  <circle class="fil2 str0" cx="114" cy="375" r="19"/>
  <path class="fil3 str0" d="M404 356l-185 0c-10,0 -18,9 -18,19 0,10 8,18 18,18l185 0c11,0 19,-8 19,-18 0,-10 -8,-19 -19,-19z"/>
 </g>
</svg>
