<?xml version="1.0" encoding="UTF-8"?>
<!DOCTYPE svg PUBLIC "-//W3C//DTD SVG 1.1//EN" "http://www.w3.org/Graphics/SVG/1.1/DTD/svg11.dtd">

<svg xmlns="http://www.w3.org/2000/svg" xml:space="preserve" width="100%" height="100%" version="1.1" style="shape-rendering:geometricPrecision; text-rendering:geometricPrecision; image-rendering:optimizeQuality; fill-rule:evenodd; clip-rule:evenodd"
viewBox="0 0 500 500"
 xmlns:xlink="http://www.w3.org/1999/xlink">
 <defs>
  <style type="text/css">
   <![CDATA[
    .fil0 {fill:#FFFFFF}
   ]]>
  </style>
 </defs>
 <g id="Layer_x0020_1">
  <metadata id="CorelCorpID_0Corel-Layer"/>
  <g id="_1474455952">
   <rect class="fil0" x="380" y="263" width="30.001" height="160.002" rx="10" ry="10"/>
   <path class="fil0" d="M423 273l-8 0 0 140 8 0c4,0 7,-3 7,-7l0 -125c0,-4 -3,-8 -7,-8z"/>
   <rect class="fil0" x="90" y="263" width="30.001" height="160.002" rx="10" ry="10"/>
   <path class="fil0" d="M78 273l7 0 0 140 -7 0c-5,0 -8,-3 -8,-7l0 -125c0,-4 3,-8 8,-8z"/>
   <path class="fil0" d="M65 303l0 80c-14,0 -25,-11 -25,-25l0 -30c0,-14 11,-25 25,-25z"/>
   <path class="fil0" d="M435 303l0 80c14,0 25,-11 25,-25l0 -30c0,-14 -11,-25 -25,-25z"/>
   <path class="fil0" d="M61 330c0,10 -10,10 -10,0l0 -58c0,-108 90,-195 200,-195 111,0 200,87 200,195l0 58c0,10 -10,10 -10,0l0 -68c0,-83 -85,-150 -190,-150 -105,0 -190,67 -190,150l0 68z"/>
  </g>
 </g>
</svg>
