<?xml version="1.0" encoding="UTF-8"?>
<!DOCTYPE svg PUBLIC "-//W3C//DTD SVG 1.1//EN" "http://www.w3.org/Graphics/SVG/1.1/DTD/svg11.dtd">

<svg xmlns="http://www.w3.org/2000/svg" xml:space="preserve" width="100%" height="100%" version="1.1" style="shape-rendering:geometricPrecision; text-rendering:geometricPrecision; image-rendering:optimizeQuality; fill-rule:evenodd; clip-rule:evenodd"
viewBox="0 0 5000 5000"
 xmlns:xlink="http://www.w3.org/1999/xlink">
 <defs>
  <style type="text/css">
   <![CDATA[
    .str0 {stroke:#FFFFFF;stroke-width:300;stroke-linecap:round}
    .fil0 {fill:none}
    .fil1 {fill:#FFFFFF}
   ]]>
  </style>
 </defs>
 <g id="Layer_x0020_1">
  <metadata id="CorelCorpID_0Corel-Layer"/>
  <path class="fil0 str0" d="M300 2000l2050 -1600c100,-50 200,-50 300,0l2050 1500"/>
  <path class="fil1" d="M3500 1022l600 439 0 -861c0,-55 -45,-100 -100,-100l-400 0c-55,0 -100,45 -100,100l0 422z"/>
  <path class="fil1" d="M899 4700l901 0 0 -1500c0,-110 90,-200 200,-200l900 0c110,0 200,90 200,200l0 1500 1001 0c165,0 300,-135 300,-300l-1 -2000 -1776 -1328c-33,-26 -79,-37 -124,-36 -45,1 -92,14 -127,40l-1773 1324 -1 2000c0,165 135,300 300,300z"/>
 </g>
</svg>
