<?xml version="1.0" encoding="UTF-8"?>
<!DOCTYPE svg PUBLIC "-//W3C//DTD SVG 1.1//EN" "http://www.w3.org/Graphics/SVG/1.1/DTD/svg11.dtd">
<!-- Creator: CorelDRAW X6 -->
<svg xmlns="http://www.w3.org/2000/svg" xml:space="preserve" width="100%" height="100%" version="1.1" shape-rendering="geometricPrecision" text-rendering="geometricPrecision" image-rendering="optimizeQuality" fill-rule="evenodd" clip-rule="evenodd"
viewBox="0 0 500 500"
 xmlns:xlink="http://www.w3.org/1999/xlink">
 <defs>
   <linearGradient id="id0" gradientUnits="userSpaceOnUse" x1="360.001" y1="301.973" x2="139.999" y2="301.973">
    <stop offset="0" stop-color="#008BFF"/>
    <stop offset="1" stop-color="#00AAFF"/>
   </linearGradient>
 </defs>
 <g id="Layer_x0020_1">
  <metadata id="CorelCorpID_0Corel-Layer"/>
  <path fill="url(#id0)" stroke="#434242" stroke-width="10" stroke-linejoin="round" d="M360 430l0 8c0,3 -3,6 -7,6l-206 0c-4,0 -7,-3 -7,-6l0 -8c0,-3 3,-6 6,-6 6,-1 13,-5 25,-20 14,-17 36,-28 61,-31l6 -123c-70,-20 -84,-60 -90,-90l204 0c-6,30 -20,70 -90,90l6 123c25,3 47,14 61,31 12,15 19,19 25,20 3,0 6,3 6,6z"/>
  <path fill="none" stroke="#434242" stroke-width="20" d="M374 55c0,62 -20,154 -90,185 -7,3 -9,5 -9,10 0,5 2,7 9,10 71,31 90,123 90,185m-248 -390c0,62 20,154 90,185 7,3 9,5 9,10 0,5 -2,7 -9,10 -71,31 -90,123 -90,185"/>
  <path fill="#434242" d="M105 440l290 0c6,0 10,4 10,10l0 14c0,6 -4,10 -10,10l-290 0c-6,0 -10,-4 -10,-10l0 -14c0,-6 4,-10 10,-10zm0 -414l290 0c6,0 10,4 10,10l0 14c0,6 -4,10 -10,10l-290 0c-6,0 -10,-4 -10,-10l0 -14c0,-6 4,-10 10,-10z"/>
 </g>
</svg>
