<?xml version="1.0" encoding="UTF-8"?>
<!DOCTYPE svg PUBLIC "-//W3C//DTD SVG 1.1//EN" "http://www.w3.org/Graphics/SVG/1.1/DTD/svg11.dtd">
<!-- Creator: CorelDRAW X6 -->
<svg xmlns="http://www.w3.org/2000/svg" xml:space="preserve" width="100%" height="100%" version="1.1" shape-rendering="geometricPrecision" text-rendering="geometricPrecision" image-rendering="optimizeQuality" fill-rule="evenodd" clip-rule="evenodd"
viewBox="0 0 500 500"
 xmlns:xlink="http://www.w3.org/1999/xlink">
 <g id="Layer_x0020_1">
  <metadata id="CorelCorpID_0Corel-Layer"/>
  <path fill="none" stroke="#434242" stroke-width="10" stroke-linejoin="round" d="M340 60l-180 0c1,31 5,68 19,100 47,0 95,0 142,0 14,-32 18,-69 19,-100z"/>
  <path fill="none" stroke="#434242" stroke-width="10" stroke-linejoin="round" d="M338 420c-5,-54 -23,-116 -87,-140 -1,0 -1,0 -2,0 -64,24 -82,86 -87,140 7,0 10,-1 23,-20 13,-20 30,-26 45,-30 13,-4 27,-4 40,0 15,4 32,10 45,30 13,19 16,20 23,20z"/>
  <path fill="none" stroke="#434242" stroke-width="20" stroke-linejoin="round" d="M125 30l250 0c3,0 5,2 5,5l0 20c0,3 -2,5 -5,5l-5 0c0,60 -10,150 -90,180 -7,3 -10,5 -10,10 0,7 4,8 10,10 80,30 90,120 90,180l5 0c3,0 5,2 5,5l0 20c0,3 -2,5 -5,5l-250 0c-3,0 -5,-2 -5,-5l0 -20c0,-3 2,-5 5,-5l5 0c0,-60 10,-150 90,-180 7,-3 10,-5 10,-10 0,-5 -3,-7 -10,-10 -80,-30 -90,-120 -90,-180l-5 0c-3,0 -5,-2 -5,-5l0 -20c0,-3 2,-5 5,-5z"/>
 </g>
</svg>
