<?xml version="1.0" encoding="UTF-8"?>
<!DOCTYPE svg PUBLIC "-//W3C//DTD SVG 1.1//EN" "http://www.w3.org/Graphics/SVG/1.1/DTD/svg11.dtd">
<!-- Creator: CorelDRAW X6 -->
<svg xmlns="http://www.w3.org/2000/svg" xml:space="preserve" width="100%" height="100%" version="1.1" style="shape-rendering:geometricPrecision; text-rendering:geometricPrecision; image-rendering:optimizeQuality; fill-rule:evenodd; clip-rule:evenodd"
viewBox="0 0 500 500"
 xmlns:xlink="http://www.w3.org/1999/xlink">
 <defs>
  <style type="text/css">
   <![CDATA[
    .str0 {stroke:#5B5B5B;stroke-width:5}
    .fil3 {fill:none}
    .fil2 {fill:#5B5B5B}
    .fil1 {fill:whitesmoke}
    .fil0 {fill:white}
   ]]>
  </style>
 </defs>
 <g id="Layer_x0020_1">
  <metadata id="CorelCorpID_0Corel-Layer"/>
  <path class="fil0" d="M50 20l30 400 170 60 170 -60 30 -400 -400 0zm271 240l-4 57 -67 23 -67 -23 -2 -37 -40 0 6 73 103 37 103 -37 11 -143 -189 0 -3 -50 196 0 4 -50 -244 0 12 150 181 0z"/>
  <path class="fil1" d="M250 434l136 -48 24 -320 -160 0 0 44 122 0 -4 50 -118 0 0 50 114 0 -11 143 -103 37 0 44zm0 -174l0 80 0 0 67 -23 4 -57 -71 0z"/>
  <polygon class="fil2" points="321,260 317,317 250,340 183,317 181,280 141,280 147,353 250,390 353,353 364,210 175,210 172,160 368,160 372,110 128,110 140,260 "/>
  <polygon class="fil3 str0" points="50,20 80,420 250,480 420,420 450,20 "/>
 </g>
</svg>
