<?xml version="1.0" encoding="UTF-8"?>
<!DOCTYPE svg PUBLIC "-//W3C//DTD SVG 1.1//EN" "http://www.w3.org/Graphics/SVG/1.1/DTD/svg11.dtd">

<svg xmlns="http://www.w3.org/2000/svg" xml:space="preserve" width="100%" height="100%" version="1.1" style="shape-rendering:geometricPrecision; text-rendering:geometricPrecision; image-rendering:optimizeQuality; fill-rule:evenodd; clip-rule:evenodd"
viewBox="0 0 500 500"
 xmlns:xlink="http://www.w3.org/1999/xlink">
 <defs>
  <style type="text/css">
   <![CDATA[
    .str0 {stroke:#434242;stroke-width:10;stroke-linejoin:round}
    .fil1 {fill:none}
    .fil0 {fill:#434242}
   ]]>
  </style>
 </defs>
 <g id="Layer_x0020_1">
  <metadata id="CorelCorpID_0Corel-Layer"/>
  <g id="_1562406816">
   <path class="fil0" d="M119 268l3 0 102 -83 -119 -69 0 138c0,8 6,14 14,14zm255 0l7 0c8,0 14,-6 14,-14l0 -138 -119 69 98 83z"/>
   <path class="fil0" d="M364 268l-231 0 96 -79 5 3c12,8 20,8 32,0l5 -3 93 79z"/>
   <path class="fil0" d="M395 109l0 -7c0,-7 -6,-13 -14,-13l-262 0c-8,0 -14,6 -14,13l0 7 131 76c11,7 17,7 28,0l131 -76z"/>
  </g>
  <polyline class="fil1 str0" points="460,288 420,192 360,192 "/>
  <polyline class="fil1 str0" points="140,192 80,192 40,288 "/>
  <path class="fil0 str0" d="M40 288l130 0 0 39c0,8 7,15 15,15l130 0c8,0 15,-7 15,-15l0 -39 130 0 0 99c0,13 -11,25 -25,25l-370 0c-14,0 -25,-12 -25,-25l0 -99z"/>
 </g>
</svg>
