<?xml version="1.0" encoding="UTF-8"?>
<!DOCTYPE svg PUBLIC "-//W3C//DTD SVG 1.1//EN" "http://www.w3.org/Graphics/SVG/1.1/DTD/svg11.dtd">

<svg xmlns="http://www.w3.org/2000/svg" xml:space="preserve" width="100%" height="100%" version="1.1" style="shape-rendering:geometricPrecision; text-rendering:geometricPrecision; image-rendering:optimizeQuality; fill-rule:evenodd; clip-rule:evenodd"
viewBox="0 0 500 500"
 xmlns:xlink="http://www.w3.org/1999/xlink">
 <defs>
  <style type="text/css">
   <![CDATA[
    .str1 {stroke:#434242;stroke-width:7.5;stroke-linejoin:round}
    .str0 {stroke:#434242;stroke-width:10;stroke-linejoin:round}
    .fil0 {fill:#434242}
    .fil1 {fill:#DDDEDE}
    .fil2 {fill:#FFFFFF}
    .fil3 {fill:url(#id0)}
   ]]>
  </style>
  <linearGradient id="id0" gradientUnits="userSpaceOnUse" x1="459.999" y1="378.236" x2="39.999" y2="378.236">
   <stop offset="0" style="stop-color:#008BFF"/>
   <stop offset="1" style="stop-color:#00AAFF"/>
  </linearGradient>
 </defs>
 <g id="Layer_x0020_1">
  <metadata id="CorelCorpID_0Corel-Layer"/>
  <polygon class="fil0 str0" points="40,316 460,316 400,220 100,220 "/>
  <rect class="fil1 str1" transform="matrix(2.241E-014 0.846153 0.846153 -2.241E-014 140.002 62.3089)" width="420" height="260" rx="20" ry="20"/>
  <polygon class="fil2 str1" points="140,397 140,79 275,240 "/>
  <path class="fil2 str1" d="M322 418l21 0c9,0 17,-8 17,-17l0 -322c0,-9 -8,-17 -17,-17l-21 0 -93 161c-9,13 -9,21 0,34l93 161z"/>
  <path class="fil3 str0" d="M40 316l130 0 0 39c0,8 7,15 15,15l130 0c8,0 15,-7 15,-15l0 -39 130 0 0 99c0,14 -11,25 -25,25l-370 0c-14,0 -25,-11 -25,-25l0 -99z"/>
 </g>
</svg>
