<?xml version="1.0" encoding="UTF-8"?>
<!DOCTYPE svg PUBLIC "-//W3C//DTD SVG 1.1//EN" "http://www.w3.org/Graphics/SVG/1.1/DTD/svg11.dtd">

<svg xmlns="http://www.w3.org/2000/svg" xml:space="preserve" width="100%" height="100%" version="1.1" style="shape-rendering:geometricPrecision; text-rendering:geometricPrecision; image-rendering:optimizeQuality; fill-rule:evenodd; clip-rule:evenodd"
viewBox="0 0 500 500"
 xmlns:xlink="http://www.w3.org/1999/xlink">
 <defs>
  <style type="text/css">
   <![CDATA[
    .fil0 {fill:#434242}
   ]]>
  </style>
 </defs>
 <g id="Layer_x0020_1">
  <metadata id="CorelCorpID_0Corel-Layer"/>
  <rect class="fil0" x="230" y="191" width="190.001" height="30.002"/>
  <rect class="fil0" x="230" y="101" width="140.001" height="30.004"/>
  <rect class="fil0" x="230" y="371" width="230" height="30.001"/>
  <rect class="fil0" x="180" y="40" width="19.999" height="419.999"/>
  <rect class="fil0" x="230" y="280" width="100" height="30"/>
  <path class="fil0" d="M92 213l0 11 -55 0c-3,0 -6,3 -6,7l0 39c0,3 3,6 6,6l55 0 0 11c0,9 2,12 5,14 4,5 13,5 18,0l42 -42c4,-4 4,-14 0,-18l-42 -42c-5,-4 -14,-4 -18,0 -3,3 -5,5 -5,14z"/>
 </g>
</svg>
