<?xml version="1.0" encoding="UTF-8"?>
<!DOCTYPE svg PUBLIC "-//W3C//DTD SVG 1.1//EN" "http://www.w3.org/Graphics/SVG/1.1/DTD/svg11.dtd">

<svg xmlns="http://www.w3.org/2000/svg" xml:space="preserve" width="100%" height="100%" version="1.1" style="shape-rendering:geometricPrecision; text-rendering:geometricPrecision; image-rendering:optimizeQuality; fill-rule:evenodd; clip-rule:evenodd"
viewBox="0 0 5000 5000"
 xmlns:xlink="http://www.w3.org/1999/xlink">
 <defs>
  <style type="text/css">
   <![CDATA[
    .str0 {stroke:#434242;stroke-width:100;stroke-linecap:round;stroke-linejoin:round}
    .fil0 {fill:url(#id0)}
   ]]>
  </style>
  <linearGradient id="id0" gradientUnits="userSpaceOnUse" x1="4164.64" y1="2500" x2="835.36" y2="2500">
   <stop offset="0" style="stop-color:#008BFF"/>
   <stop offset="1" style="stop-color:#00AAFF"/>
  </linearGradient>
 </defs>
 <g id="Layer_x0020_1">
  <metadata id="CorelCorpID_0Corel-Layer"/>
  <path class="fil0 str0" d="M1983 413l36 -113 2146 0 -42 113c-195,0 -343,44 -446,131 -102,88 -193,270 -270,548l-807 2816c-59,201 -88,336 -88,404 0,78 30,139 91,183 77,57 224,88 440,92l-32 113 -2176 0 37 -113c218,0 377,-42 479,-126 102,-84 193,-269 275,-553l808 -2816c49,-175 74,-308 74,-397 0,-81 -30,-144 -91,-190 -60,-47 -205,-77 -434,-92z"/>
 </g>
</svg>
