<?xml version="1.0" encoding="UTF-8"?>
<!DOCTYPE svg PUBLIC "-//W3C//DTD SVG 1.1//EN" "http://www.w3.org/Graphics/SVG/1.1/DTD/svg11.dtd">
<!-- Creator: CorelDRAW X6 -->
<svg xmlns="http://www.w3.org/2000/svg" xml:space="preserve" width="100%" height="100%" version="1.1" style="shape-rendering:geometricPrecision; text-rendering:geometricPrecision; image-rendering:optimizeQuality; fill-rule:evenodd; clip-rule:evenodd"
viewBox="0 0 500 500"
 xmlns:xlink="http://www.w3.org/1999/xlink">
 <defs>
  <style type="text/css">
   <![CDATA[
    .str0 {stroke:#434242;stroke-width:0.762}
    .str1 {stroke:#5B5B5B;stroke-width:5}
    .str2 {stroke:#5B5B5B;stroke-width:5;stroke-linejoin:round}
    .fil1 {fill:none}
    .fil3 {fill:#5B5B5B}
    .fil2 {fill:whitesmoke}
    .fil0 {fill:white}
   ]]>
  </style>
 </defs>
 <g id="Layer_x0020_1">
  <metadata id="CorelCorpID_0Corel-Layer"/>
  <polygon class="fil0 str0" points="204,248 219,261 39,476 33,452 "/>
  <path class="fil0" d="M319 26c-77,7 -134,75 -127,152 0,3 1,6 1,9l18 15c3,6 0,14 -5,20l-177 211 11 49 16 -3 176 -210 38 33 -42 50 22 5 49 -58c5,-6 12,-10 18,-8l18 14c3,0 6,0 9,0 77,-7 134,-75 127,-152 -7,-77 -75,-134 -152,-127zm66 76c14,13 16,35 4,50 -2,2 -5,4 -8,6l-51 -43c1,-3 3,-6 5,-8 13,-15 35,-17 50,-5z"/>
  <path class="fil1 str1" d="M324 49c-64,5 -110,61 -105,124 0,3 1,5 1,7l117 98c2,0 4,0 7,0 63,-6 110,-62 104,-125 -5,-63 -61,-110 -124,-104z"/>
  <polygon class="fil2" points="56,479 103,470 109,462 107,434 121,433 140,410 154,408 167,393 166,379 176,367 171,357 178,349 198,356 206,347 227,352 269,302 231,270 "/>
  <polygon class="fil3" points="204,248 219,261 39,476 33,452 "/>
  <path class="fil1 str2" d="M210 203c3,6 0,14 -5,20l-176 211 11 48 63 -12 6 -8 -2 -28 14 -1 19 -23 14 -2 13 -15 -1 -14 10 -12 -5 -10 7 -8 20 7 8 -9 43 10 48 -57c5,-6 13,-10 19,-9l18 15c3,0 6,0 9,0 77,-7 134,-75 127,-152 -7,-77 -75,-134 -152,-127 -77,7 -134,75 -127,152 0,3 1,6 1,9l18 15zm174 -100c14,13 16,35 4,50 -2,2 -5,4 -8,6l-51 -43c1,-3 3,-6 5,-8 13,-15 35,-17 50,-5z"/>
 </g>
</svg>
