<?xml version="1.0" encoding="UTF-8"?>
<!DOCTYPE svg PUBLIC "-//W3C//DTD SVG 1.1//EN" "http://www.w3.org/Graphics/SVG/1.1/DTD/svg11.dtd">
<!-- Creator: CorelDRAW X6 -->
<svg xmlns="http://www.w3.org/2000/svg" xml:space="preserve" width="100%" height="100%" version="1.1" style="shape-rendering:geometricPrecision; text-rendering:geometricPrecision; image-rendering:optimizeQuality; fill-rule:evenodd; clip-rule:evenodd"
viewBox="0 0 500 500"
 xmlns:xlink="http://www.w3.org/1999/xlink">
 <defs>
  <style type="text/css">
   <![CDATA[
    .fil0 {fill:#434242}
   ]]>
  </style>
 </defs>
 <g id="Layer_x0020_1">
  <metadata id="CorelCorpID_0Corel-Layer"/>
  <path class="fil0" d="M210 203c3,6 0,14 -5,20l-176 211 4 18 171 -204 15 13 -180 215 1 6 63 -12 6 -8 -2 -28 14 -1 19 -23 14 -2 13 -15 -1 -14 10 -12 -5 -10 7 -8 20 7 8 -9 43 10 48 -57c5,-6 13,-10 19,-9l18 15c3,0 6,0 9,0 77,-7 134,-75 127,-152 -7,-77 -75,-134 -152,-127 -77,7 -134,75 -127,152 0,3 1,6 1,9l18 15zm174 -100c14,13 16,35 4,50 -2,2 -5,4 -8,6l-51 -43c1,-3 3,-6 5,-8 13,-15 35,-17 50,-5z"/>
 </g>
</svg>
