<?xml version="1.0" encoding="UTF-8"?>
<!DOCTYPE svg PUBLIC "-//W3C//DTD SVG 1.1//EN" "http://www.w3.org/Graphics/SVG/1.1/DTD/svg11.dtd">
<!-- Creator: CorelDRAW X6 -->
<svg xmlns="http://www.w3.org/2000/svg" xml:space="preserve" width="100%" height="100%" version="1.1" style="shape-rendering:geometricPrecision; text-rendering:geometricPrecision; image-rendering:optimizeQuality; fill-rule:evenodd; clip-rule:evenodd"
viewBox="0 0 500 500"
 xmlns:xlink="http://www.w3.org/1999/xlink">
 <defs>
  <style type="text/css">
   <![CDATA[
    .str1 {stroke:#434242;stroke-width:7.5}
    .str0 {stroke:#434242;stroke-width:10;stroke-linejoin:round}
    .fil3 {fill:none}
    .fil2 {fill:#434242}
    .fil1 {fill:#EDEDED}
    .fil0 {fill:url(#id0)}
   ]]>
  </style>
  <linearGradient id="id0" gradientUnits="userSpaceOnUse" x1="477.914" y1="162.331" x2="185.378" y2="162.331">
   <stop offset="0" style="stop-color:#008BFF"/>
   <stop offset="1" style="stop-color:#00AAFF"/>
  </linearGradient>
 </defs>
 <g id="Layer_x0020_1">
  <metadata id="CorelCorpID_0Corel-Layer"/>
  <path class="fil0 str0" d="M319 26c-77,7 -134,75 -127,152 0,3 1,6 1,9l142 118c3,0 6,0 9,0 77,-7 134,-75 127,-152 -7,-77 -75,-134 -152,-127zm66 76c14,13 16,35 4,50 -2,2 -5,4 -8,6l-51 -43c1,-3 3,-6 5,-8 13,-15 35,-17 50,-5z"/>
  <path class="fil1 str0" d="M207 198c7,6 5,17 -2,25l-176 211 11 48 63 -12 6 -8 -2 -28 14 -1 19 -23 14 -2 13 -15 -1 -14 10 -12 -5 -10 7 -8 20 7 8 -9 43 10 48 -57c7,-8 17,-12 25,-6l-115 -96z"/>
  <path class="fil2" d="M204 248l15 13 -180 215 -6 -24 171 -204zm-148 231l47 -9 6 -8 -2 -28 14 -1 19 -23 14 -2 13 -15 -1 -14 10 -12 -5 -10 7 -8 20 7 8 -9 21 5 42 -50 -38 -32 -175 209z"/>
  <path class="fil3 str1" d="M324 49c-64,5 -110,61 -105,124 0,3 1,5 1,7l117 98c2,0 4,0 7,0 63,-6 110,-62 104,-125 -5,-63 -61,-110 -124,-104z"/>
 </g>
</svg>
