<?xml version="1.0" encoding="UTF-8"?>
<!DOCTYPE svg PUBLIC "-//W3C//DTD SVG 1.1//EN" "http://www.w3.org/Graphics/SVG/1.1/DTD/svg11.dtd">
<!-- Creator: CorelDRAW X6 -->
<svg xmlns="http://www.w3.org/2000/svg" xml:space="preserve" width="100%" height="100%" version="1.1" style="shape-rendering:geometricPrecision; text-rendering:geometricPrecision; image-rendering:optimizeQuality; fill-rule:evenodd; clip-rule:evenodd"
viewBox="0 0 500 500"
 xmlns:xlink="http://www.w3.org/1999/xlink">
 <defs>
  <style type="text/css">
   <![CDATA[
    .str3 {stroke:red;stroke-width:0.1}
    .str1 {stroke:#333333;stroke-width:7.5}
    .str0 {stroke:#333333;stroke-width:15}
    .str2 {stroke:#333333;stroke-width:15;stroke-linejoin:round}
    .fil0 {fill:none}
   ]]>
  </style>
 </defs>
 <g id="Layer_x0020_1">
  <metadata id="CorelCorpID_0Corel-Layer"/>
  <g id="_849238448">
   <path class="fil0 str0" d="M65 128l370 0c8,0 15,6 15,15l0 215c0,8 -7,15 -15,15l-370 0c-8,0 -15,-7 -15,-15l0 -215c0,-9 7,-15 15,-15z"/>
   <polygon class="fil0 str1" points="430,148 430,348 70,348 70,148 "/>
   <path class="fil0 str2" d="M45 429c101,0 309,0 410,0 8,0 15,-7 15,-15l0 -16 -170 0 0 3c0,4 -3,7 -7,7l-86 0c-4,0 -7,-3 -7,-7l0 -3 -170 0 0 16c0,8 7,15 15,15z"/>
  </g>
 </g>
</svg>
