<?xml version="1.0" encoding="UTF-8"?>
<!DOCTYPE svg PUBLIC "-//W3C//DTD SVG 1.1//EN" "http://www.w3.org/Graphics/SVG/1.1/DTD/svg11.dtd">
<!-- Creator: CorelDRAW X6 -->
<svg xmlns="http://www.w3.org/2000/svg" xml:space="preserve" width="100%" height="100%" version="1.1" style="shape-rendering:geometricPrecision; text-rendering:geometricPrecision; image-rendering:optimizeQuality; fill-rule:evenodd; clip-rule:evenodd"
viewBox="0 0 500 500"
 xmlns:xlink="http://www.w3.org/1999/xlink">
 <defs>
  <style type="text/css">
   <![CDATA[
    .str0 {stroke:red;stroke-width:0.1}
    .fil1 {fill:none}
    .fil0 {fill:#333333}
   ]]>
  </style>
 </defs>
 <g id="Layer_x0020_1">
  <metadata id="CorelCorpID_0Corel-Layer"/>
  <path class="fil0" d="M45 393c101,0 309,0 410,0 8,0 15,-7 15,-15l0 -10 -170 0 0 3c0,4 -3,7 -7,7l-86 0c-4,0 -7,-3 -7,-7l0 -3 -170 0 0 10c0,8 7,15 15,15zm20 -285l370 0c8,0 15,6 15,15l0 215c0,8 -7,15 -15,15l-370 0c-8,0 -15,-7 -15,-15l0 -215c0,-9 7,-15 15,-15zm5 20l360 0 0 200 -360 0 0 -200z"/>
 </g>
</svg>
