<?xml version="1.0" encoding="UTF-8"?>
<!DOCTYPE svg PUBLIC "-//W3C//DTD SVG 1.1//EN" "http://www.w3.org/Graphics/SVG/1.1/DTD/svg11.dtd">
<!-- Creator: CorelDRAW X6 -->
<svg xmlns="http://www.w3.org/2000/svg" xml:space="preserve" width="100%" height="100%" version="1.1" style="shape-rendering:geometricPrecision; text-rendering:geometricPrecision; image-rendering:optimizeQuality; fill-rule:evenodd; clip-rule:evenodd"
viewBox="0 0 500 500"
 xmlns:xlink="http://www.w3.org/1999/xlink">
 <defs>
  <style type="text/css">
   <![CDATA[
    .str0 {stroke:red;stroke-width:0.1}
    .fil3 {fill:none}
    .fil0 {fill:#333333}
    .fil1 {fill:url(#id0)}
    .fil2 {fill:url(#id1)}
   ]]>
  </style>
  <linearGradient id="id0" gradientUnits="userSpaceOnUse" x1="429.735" y1="225.22" x2="69.738" y2="225.22">
   <stop offset="0" style="stop-color:#008BFF"/>
   <stop offset="1" style="stop-color:#00AAFF"/>
  </linearGradient>
  <linearGradient id="id1" gradientUnits="userSpaceOnUse" x1="121.986" y1="152.246" x2="256.546" y2="298.193">
   <stop offset="0" style="stop-color:#008BFF"/>
   <stop offset="1" style="stop-color:#4EAFFF"/>
  </linearGradient>
 </defs>
 <g id="Layer_x0020_1">
  <metadata id="CorelCorpID_0Corel-Layer"/>
  <path class="fil0" d="M65 105l370 0c8,0 15,7 15,15l0 215c0,8 -7,15 -15,15l-370 0c-9,0 -15,-7 -15,-15l0 -215c0,-8 6,-15 15,-15zm5 20l360 0 0 200 -360 0 0 -200zm-25 265c101,0 308,0 410,0 8,0 15,-7 15,-15l0 -10 -170 0 0 4c0,4 -3,7 -7,7l-86 0c-4,0 -7,-3 -7,-7l0 -4 -170 0 0 10c0,8 6,15 15,15z"/>
  <polygon class="fil1" points="430,125 430,325 70,325 70,125 "/>
  <path class="fil2" d="M309 125c-3,84 -47,158 -112,200l-127 0 0 -200 239 0z"/>
 </g>
</svg>
