<?xml version="1.0" encoding="UTF-8"?>
<!DOCTYPE svg PUBLIC "-//W3C//DTD SVG 1.1//EN" "http://www.w3.org/Graphics/SVG/1.1/DTD/svg11.dtd">
<!-- Creator: CorelDRAW X6 -->
<svg xmlns="http://www.w3.org/2000/svg" xml:space="preserve" width="100%" height="100%" version="1.1" shape-rendering="geometricPrecision" text-rendering="geometricPrecision" image-rendering="optimizeQuality" fill-rule="evenodd" clip-rule="evenodd"
viewBox="0 0 500 500"
 xmlns:xlink="http://www.w3.org/1999/xlink">
 <g id="Layer_x0020_1">
  <metadata id="CorelCorpID_0Corel-Layer"/>
  <path fill="none" stroke="#434242" stroke-width="30" stroke-linecap="round" stroke-linejoin="round" d="M290 300c0,-35 25,-65 55,-65l-185 -40m55 105c0,-35 -25,-65 -55,-65m185 -49l-185 -40m185 -14l-185 -40m185 -11l-130 -29"/>
  <path fill="none" stroke="#434242" stroke-width="20" stroke-linecap="round" d="M300 440l-100 0m100 -25l-100 0m100 -25l-100 0m-36 -85l162 0c4,0 6,1 8,4 2,3 3,6 2,9l-13 40c-1,4 -5,7 -9,7l-138 0c-4,0 -8,-3 -9,-7l-13 -40c-1,-3 0,-6 2,-9 2,-3 4,-4 8,-4zm53 142c6,12 19,21 33,21 15,0 27,-9 33,-21"/>
 </g>
</svg>
