<?xml version="1.0" encoding="UTF-8"?>
<!DOCTYPE svg PUBLIC "-//W3C//DTD SVG 1.1//EN" "http://www.w3.org/Graphics/SVG/1.1/DTD/svg11.dtd">
<!-- Creator: CorelDRAW X6 -->
<svg xmlns="http://www.w3.org/2000/svg" xml:space="preserve" width="100%" height="100%" version="1.1" shape-rendering="geometricPrecision" text-rendering="geometricPrecision" image-rendering="optimizeQuality" fill-rule="evenodd" clip-rule="evenodd"
viewBox="0 0 500 500"
 xmlns:xlink="http://www.w3.org/1999/xlink">
 <defs>
   <linearGradient id="id0" gradientUnits="userSpaceOnUse" x1="279.997" y1="41.811" x2="279.997" y2="101.491">
    <stop offset="0" stop-color="#FEFEFE"/>
    <stop offset="1" stop-color="#E5E5E6"/>
   </linearGradient>
   <linearGradient id="id1" gradientUnits="userSpaceOnUse" x1="187.499" y1="225.85" x2="187.499" y2="309.15">
    <stop offset="0" stop-color="#FEFEFE"/>
    <stop offset="1" stop-color="#E5E5E6"/>
   </linearGradient>
   <linearGradient id="id2" gradientUnits="userSpaceOnUse" x1="251.8" y1="176.869" x2="251.8" y2="300.737">
    <stop offset="0" stop-color="#FEFEFE"/>
    <stop offset="1" stop-color="#E5E5E6"/>
   </linearGradient>
   <linearGradient id="id3" gradientUnits="userSpaceOnUse" x1="252.498" y1="129.607" x2="252.498" y2="200.941">
    <stop offset="0" stop-color="#FEFEFE"/>
    <stop offset="1" stop-color="#E5E5E6"/>
   </linearGradient>
   <linearGradient id="id4" gradientUnits="userSpaceOnUse" x1="252.498" y1="79.954" x2="252.498" y2="151.288">
    <stop offset="0" stop-color="#FEFEFE"/>
    <stop offset="1" stop-color="#E5E5E6"/>
   </linearGradient>
   <linearGradient id="id5" gradientUnits="userSpaceOnUse" x1="249.998" y1="466.662" x2="249.998" y2="305">
    <stop offset="0" stop-color="#008BFF"/>
    <stop offset="1" stop-color="#00AAFF"/>
   </linearGradient>
 </defs>
 <g id="Layer_x0020_1">
  <metadata id="CorelCorpID_0Corel-Layer"/>
  <path fill="url(#id0)" stroke="#434242" stroke-width="7.5" d="M348 71c8,2 13,10 12,18 -2,8 -10,13 -18,11l-130 -28c-8,-2 -13,-9 -12,-18 2,-8 10,-13 18,-11l130 28z"/>
  <path fill="url(#id1)" stroke="#434242" stroke-width="7.5" d="M230 305c0,2 0,3 -1,5l-28 0c-1,-2 -1,-3 -1,-5 0,-14 -5,-27 -13,-36 -7,-9 -17,-14 -27,-14 -8,0 -15,-7 -15,-15 0,-8 7,-15 15,-15 20,0 37,10 50,25 12,14 20,34 20,55z"/>
  <path fill="url(#id2)" stroke="#434242" stroke-width="7.5" d="M305 297c0,2 0,3 -1,5l-28 0c-1,-2 -1,-3 -1,-5 0,-21 8,-41 20,-55 1,-2 2,-3 4,-5l-142 -30c-8,-2 -13,-10 -12,-18 2,-8 10,-13 18,-12l184 40c8,1 13,8 13,15 0,8 -7,15 -15,15 -10,0 -20,5 -27,14 -8,9 -13,22 -13,36z"/>
  <path fill="url(#id3)" stroke="#434242" stroke-width="7.5" d="M348 171c8,1 13,9 12,17 -2,9 -10,14 -18,12l-185 -40c-8,-2 -13,-10 -12,-18 2,-8 10,-13 18,-11l185 40z"/>
  <path fill="url(#id4)" stroke="#434242" stroke-width="7.5" d="M348 121c8,2 13,10 12,18 -2,8 -10,13 -18,11l-185 -40c-8,-1 -13,-9 -12,-18 2,-8 10,-13 18,-11l185 40z"/>
  <path fill="#434242" stroke="#434242" stroke-width="15" d="M298 380l0 4c0,3 -2,5 -5,6l-85 9c-1,0 -3,0 -4,-1 -1,-1 -2,-3 -2,-4l0 -14c-8,-20 -27,-15 -27,-30l0 -30 150 0 0 30c0,15 -19,10 -27,30zm27 -65l0 -5c0,-3 -2,-5 -5,-5l-140 0c-3,0 -5,2 -5,5l0 5 150 0zm-32 96l-85 9c-1,1 -3,0 -4,-1 -1,-1 -2,-2 -2,-4l0 -5c0,-3 2,-5 5,-5l85 -10c1,0 3,0 4,1 1,1 2,3 2,4l0 6c0,2 -2,5 -5,5zm0 21l-85 10c-1,0 -3,-1 -4,-2 -1,-1 -2,-2 -2,-4l0 -5c0,-3 2,-5 5,-5l85 -10c1,0 3,1 4,2 1,1 2,2 2,4l0 5c0,3 -2,5 -5,5zm-16 13l0 8c0,6 -5,9 -11,10 -11,4 -21,4 -32,0 -6,-1 -11,-4 -11,-10l0 -3c0,-3 2,-5 5,-5l43 -5c1,0 3,0 4,1 1,1 2,3 2,4z"/>
  <path fill="url(#id5)" d="M298 380l0 4c0,3 -2,5 -5,6l-85 9c-1,0 -3,0 -4,-1 -1,-1 -2,-3 -2,-4l0 -14c-8,-20 -27,-15 -27,-30l0 -30 150 0 0 30c0,15 -19,10 -27,30zm27 -65l0 -5c0,-3 -2,-5 -5,-5l-140 0c-3,0 -5,2 -5,5l0 5 150 0zm-32 96l-85 9c-1,1 -3,0 -4,-1 -1,-1 -2,-2 -2,-4l0 -5c0,-3 2,-5 5,-5l85 -10c1,0 3,0 4,1 1,1 2,3 2,4l0 6c0,2 -2,5 -5,5zm0 21l-85 10c-1,0 -3,-1 -4,-2 -1,-1 -2,-2 -2,-4l0 -5c0,-3 2,-5 5,-5l85 -10c1,0 3,1 4,2 1,1 2,2 2,4l0 5c0,3 -2,5 -5,5zm-16 13l0 8c0,6 -5,9 -11,10 -11,4 -21,4 -32,0 -6,-1 -11,-4 -11,-10l0 -3c0,-3 2,-5 5,-5l43 -5c1,0 3,0 4,1 1,1 2,3 2,4z"/>
 </g>
</svg>
