<?xml version="1.0" encoding="UTF-8"?>
<!DOCTYPE svg PUBLIC "-//W3C//DTD SVG 1.1//EN" "http://www.w3.org/Graphics/SVG/1.1/DTD/svg11.dtd">
<!-- Creator: CorelDRAW X6 -->
<svg xmlns="http://www.w3.org/2000/svg" xml:space="preserve" width="100%" height="100%" version="1.1" shape-rendering="geometricPrecision" text-rendering="geometricPrecision" image-rendering="optimizeQuality" fill-rule="evenodd" clip-rule="evenodd"
viewBox="0 0 500 500"
 xmlns:xlink="http://www.w3.org/1999/xlink">
 <g id="Layer_x0020_1">
  <metadata id="CorelCorpID_0Corel-Layer"/>
  <path fill="#E5E5E6" d="M348 178c8,1 13,9 12,17 -2,9 -10,14 -18,12l-185 -40c-8,-2 -13,-10 -12,-18 2,-8 10,-13 18,-11l185 40zm0 -92c8,2 13,10 12,18 -2,8 -10,13 -18,11l-130 -28c-8,-2 -13,-9 -12,-18 2,-8 10,-13 18,-11l130 28zm-71 359l0 8c0,6 -5,9 -11,10 -11,4 -21,4 -32,0 -6,-1 -11,-4 -11,-10l0 -3c0,-3 2,-5 5,-5l43 -5c1,0 3,0 4,1 1,1 2,3 2,4zm16 -13l-85 10c-1,0 -3,-1 -4,-2 -1,-1 -2,-2 -2,-4l0 -5c0,-3 2,-5 5,-5l85 -10c1,0 3,1 4,2 1,1 2,2 2,4l0 5c0,3 -2,5 -5,5zm0 -21l-85 9c-1,1 -3,0 -4,-1 -1,-1 -2,-2 -2,-4l0 -5c0,-3 2,-5 5,-5l85 -10c1,0 3,0 4,1 1,1 2,3 2,4l0 6c0,2 -2,5 -5,5zm32 -96l0 -5c0,-3 -2,-5 -5,-5l-15 0c0,-1 0,-1 0,-2 0,-14 5,-27 13,-36 7,-9 17,-14 27,-14 8,0 15,-7 15,-15 0,-7 -5,-14 -13,-15l-184 -40c-8,-1 -16,4 -18,12 -1,8 4,16 12,18l142 30c-2,2 -3,3 -4,5 -12,14 -20,34 -20,55 0,1 0,1 0,2l-45 0c0,-21 -8,-41 -20,-55 -13,-15 -30,-25 -50,-25 -8,0 -15,7 -15,15 0,8 7,15 15,15 10,0 20,5 27,14 8,9 13,22 13,36l-20 0c-3,0 -5,2 -5,5l0 5 150 0zm-27 65l0 4c0,3 -2,5 -5,6l-85 9c-1,0 -3,0 -4,-1 -1,-1 -2,-3 -2,-4l0 -14c-8,-20 -27,-15 -27,-30l0 -30 150 0 0 30c0,15 -19,10 -27,30zm50 -249c8,2 13,10 12,18 -2,8 -10,13 -18,11l-185 -40c-8,-1 -13,-9 -12,-18 2,-8 10,-13 18,-11l185 40z"/>
 </g>
</svg>
