<?xml version="1.0" encoding="UTF-8"?>
<!DOCTYPE svg PUBLIC "-//W3C//DTD SVG 1.1//EN" "http://www.w3.org/Graphics/SVG/1.1/DTD/svg11.dtd">
<!-- Creator: CorelDRAW X6 -->
<svg xmlns="http://www.w3.org/2000/svg" xml:space="preserve" width="100%" height="100%" version="1.1" shape-rendering="geometricPrecision" text-rendering="geometricPrecision" image-rendering="optimizeQuality" fill-rule="evenodd" clip-rule="evenodd"
viewBox="0 0 500 500"
 xmlns:xlink="http://www.w3.org/1999/xlink">
 <defs>
   <radialGradient id="id0" gradientUnits="userSpaceOnUse" cx="250" cy="160.962" r="109.65" fx="250" fy="160.962">
    <stop offset="0" stop-color="#FEFEFE"/>
    <stop offset="1" stop-color="#FFFFFF"/>
   </radialGradient>
 </defs>
 <g id="Layer_x0020_1">
  <metadata id="CorelCorpID_0Corel-Layer"/>
  <path fill="#279DFF" stroke="#434242" stroke-width="15" d="M207 373l86 0c2,0 5,3 5,6l0 5c0,3 -2,5 -5,6l-85 9c-1,0 -3,0 -4,-1 -1,-1 -2,-3 -2,-4l0 -15c0,-3 3,-6 5,-6zm86 38l-85 9c-1,1 -3,0 -4,-1 -1,-1 -2,-2 -2,-4l0 -5c0,-3 2,-5 5,-5l85 -10c1,0 3,0 4,1 1,1 2,3 2,4l0 6c0,2 -2,5 -5,5zm0 21l-85 10c-1,0 -3,-1 -4,-2 -1,-1 -2,-2 -2,-4l0 -5c0,-3 2,-5 5,-5l85 -10c1,0 3,1 4,2 1,1 2,2 2,4l0 5c0,3 -2,5 -5,5zm-16 13l0 8c0,6 -5,9 -11,10 -11,4 -21,4 -32,0 -6,-1 -11,-4 -11,-10l0 -3c0,-3 2,-5 5,-5l43 -5c1,0 3,0 4,1 1,1 2,3 2,4z"/>
  <path fill="#279DFF" d="M207 373l86 0c2,0 5,3 5,6l0 5c0,3 -2,5 -5,6l-85 9c-1,0 -3,0 -4,-1 -1,-1 -2,-3 -2,-4l0 -15c0,-3 3,-6 5,-6zm86 38l-85 9c-1,1 -3,0 -4,-1 -1,-1 -2,-2 -2,-4l0 -5c0,-3 2,-5 5,-5l85 -10c1,0 3,0 4,1 1,1 2,3 2,4l0 6c0,2 -2,5 -5,5zm0 21l-85 10c-1,0 -3,-1 -4,-2 -1,-1 -2,-2 -2,-4l0 -5c0,-3 2,-5 5,-5l85 -10c1,0 3,1 4,2 1,1 2,2 2,4l0 5c0,3 -2,5 -5,5zm-16 13l0 8c0,6 -5,9 -11,10 -11,4 -21,4 -32,0 -6,-1 -11,-4 -11,-10l0 -3c0,-3 2,-5 5,-5l43 -5c1,0 3,0 4,1 1,1 2,3 2,4z"/>
  <path fill="url(#id0)" stroke="#434242" stroke-width="10" d="M250 31c75,0 136,60 136,135 0,109 -72,69 -72,191 0,9 -7,16 -16,16l-96 0c-9,0 -16,-7 -16,-16 0,-122 -72,-82 -72,-191 0,-75 61,-135 136,-135z"/>
  <path fill="none" stroke="#434242" stroke-width="10" stroke-linecap="round" d="M271 373l0 -63c0,-6 -5,-11 -10,-11l-22 0c-5,0 -10,5 -10,11l0 63m10 -74l-53 -138m75 138l53 -138m0 0c-21,14 -21,-14 -43,0 -21,14 -21,-14 -42,0 -22,14 -22,-14 -43,0"/>
 </g>
</svg>
