<?xml version="1.0" encoding="UTF-8"?>
<!DOCTYPE svg PUBLIC "-//W3C//DTD SVG 1.1//EN" "http://www.w3.org/Graphics/SVG/1.1/DTD/svg11.dtd">
<!-- Creator: CorelDRAW X6 -->
<svg xmlns="http://www.w3.org/2000/svg" xml:space="preserve" width="100%" height="100%" version="1.1" shape-rendering="geometricPrecision" text-rendering="geometricPrecision" image-rendering="optimizeQuality" fill-rule="evenodd" clip-rule="evenodd"
viewBox="0 0 500 500"
 xmlns:xlink="http://www.w3.org/1999/xlink">
 <g id="Layer_x0020_1">
  <metadata id="CorelCorpID_0Corel-Layer"/>
  <path fill="none" stroke="#434242" stroke-width="10" stroke-linecap="round" d="M271 373l0 -63c0,-6 -5,-11 -10,-11l-22 0c-5,0 -10,5 -10,11l0 63m10 -74l-53 -138m75 138l53 -138m0 0c-21,14 -21,-14 -43,0 -21,14 -21,-14 -42,0 -22,14 -22,-14 -43,0"/>
  <path fill="none" stroke="#434242" stroke-width="20" stroke-linecap="round" d="M300 385l-100 10m100 15l-100 10m100 15l-100 10"/>
  <path fill="none" stroke="#434242" stroke-width="20" d="M250 31c75,0 136,60 136,135 0,109 -72,69 -72,191 0,9 -7,16 -16,16l-96 0c-9,0 -16,-7 -16,-16 0,-122 -72,-82 -72,-191 0,-75 61,-135 136,-135z"/>
  <path fill="none" stroke="#434242" stroke-width="15" d="M217 446c5,13 18,22 33,22 17,0 31,-12 35,-28"/>
 </g>
</svg>
