<?xml version="1.0" encoding="UTF-8"?>
<!DOCTYPE svg PUBLIC "-//W3C//DTD SVG 1.1//EN" "http://www.w3.org/Graphics/SVG/1.1/DTD/svg11.dtd">

<svg xmlns="http://www.w3.org/2000/svg" xml:space="preserve" width="100%" height="100%" version="1.1" style="shape-rendering:geometricPrecision; text-rendering:geometricPrecision; image-rendering:optimizeQuality; fill-rule:evenodd; clip-rule:evenodd"
viewBox="0 0 500 500"
 xmlns:xlink="http://www.w3.org/1999/xlink">
 <defs>
  <style type="text/css">
   <![CDATA[
    .str0 {stroke:#434242;stroke-width:10}
    .fil2 {fill:#434242}
    .fil1 {fill:#FFFFFF}
    .fil0 {fill:url(#id0)}
   ]]>
  </style>
  <linearGradient id="id0" gradientUnits="userSpaceOnUse" x1="449.998" y1="250" x2="50" y2="250">
   <stop offset="0" style="stop-color:#008BFF"/>
   <stop offset="1" style="stop-color:#00AAFF"/>
  </linearGradient>
 </defs>
 <g id="Layer_x0020_1">
  <metadata id="CorelCorpID_0Corel-Layer"/>
  <rect class="fil0 str0" x="50" y="40" width="400" height="420" rx="20" ry="20"/>
  <path class="fil1 str0" d="M80 105l340 0c6,0 10,5 10,10l0 315c0,5 -4,10 -10,10l-340 0c-6,0 -10,-4 -10,-10l0 -315c0,-5 4,-10 10,-10z"/>
  <rect class="fil2" x="100" y="140" width="30" height="30.0001"/>
  <rect class="fil2" x="160" y="140" width="239.999" height="30.0001"/>
  <rect class="fil2" x="100" y="220" width="30" height="30.0001"/>
  <rect class="fil2" x="160" y="220" width="239.999" height="30.0001"/>
  <rect class="fil2" x="100" y="300" width="30" height="30.0001"/>
  <rect class="fil2" x="160" y="300" width="239.999" height="30.0001"/>
  <rect class="fil2" x="100" y="380" width="30" height="30.0001"/>
  <rect class="fil2" x="160" y="380" width="239.999" height="30.0001"/>
 </g>
</svg>
