<?xml version="1.0" encoding="UTF-8"?>
<!DOCTYPE svg PUBLIC "-//W3C//DTD SVG 1.1//EN" "http://www.w3.org/Graphics/SVG/1.1/DTD/svg11.dtd">

<svg xmlns="http://www.w3.org/2000/svg" xml:space="preserve" width="100%" height="100%" version="1.1" style="shape-rendering:geometricPrecision; text-rendering:geometricPrecision; image-rendering:optimizeQuality; fill-rule:evenodd; clip-rule:evenodd"
viewBox="0 0 500 500"
 xmlns:xlink="http://www.w3.org/1999/xlink">
 <defs>
  <style type="text/css">
   <![CDATA[
    .fil0 {fill:#FFFFFF}
   ]]>
  </style>
 </defs>
 <g id="Layer_x0020_1">
  <metadata id="CorelCorpID_0Corel-Layer"/>
  <path class="fil0" d="M70 40l360 0c11,0 20,9 20,20l0 380c0,11 -9,20 -20,20l-360 0c-11,0 -20,-9 -20,-20l0 -380c0,-11 9,-20 20,-20zm10 65l340 0c6,0 10,5 10,10l0 315c0,5 -4,10 -10,10l-340 0c-6,0 -10,-4 -10,-10l0 -315c0,-5 4,-10 10,-10zm20 35l30 0 0 30 -30 0 0 -30zm60 0l240 0 0 30 -240 0 0 -30zm-60 80l30 0 0 30 -30 0 0 -30zm60 0l240 0 0 30 -240 0 0 -30zm-60 80l30 0 0 30 -30 0 0 -30zm60 0l240 0 0 30 -240 0 0 -30zm-60 80l30 0 0 30 -30 0 0 -30zm60 0l240 0 0 30 -240 0 0 -30z"/>
 </g>
</svg>
