<?xml version="1.0" encoding="UTF-8"?>
<!DOCTYPE svg PUBLIC "-//W3C//DTD SVG 1.1//EN" "http://www.w3.org/Graphics/SVG/1.1/DTD/svg11.dtd">

<svg xmlns="http://www.w3.org/2000/svg" xml:space="preserve" width="100%" height="100%" version="1.1" style="shape-rendering:geometricPrecision; text-rendering:geometricPrecision; image-rendering:optimizeQuality; fill-rule:evenodd; clip-rule:evenodd"
viewBox="0 0 500 500"
 xmlns:xlink="http://www.w3.org/1999/xlink">
 <defs>
  <style type="text/css">
   <![CDATA[
    .str2 {stroke:#434242;stroke-width:10;stroke-linejoin:round}
    .str1 {stroke:#434242;stroke-width:15}
    .str0 {stroke:#FEFEFE;stroke-width:15;stroke-linecap:round}
    .fil1 {fill:none}
    .fil0 {fill:#434242}
    .fil2 {fill:url(#id0)}
    .fil3 {fill:url(#id1)}
   ]]>
  </style>
  <linearGradient id="id0" gradientUnits="userSpaceOnUse" x1="406.153" y1="340" x2="93.844" y2="340">
   <stop offset="0" style="stop-color:#008BFF"/>
   <stop offset="1" style="stop-color:#00AAFF"/>
  </linearGradient>
  <linearGradient id="id1" gradientUnits="userSpaceOnUse" x1="249.999" y1="301.661" x2="249.999" y2="399.877">
   <stop offset="0" style="stop-color:#FCFCFD"/>
   <stop offset="1" style="stop-color:#FFFFFF"/>
  </linearGradient>
 </defs>
 <g id="Layer_x0020_1">
  <metadata id="CorelCorpID_0Corel-Layer"/>
  <path class="fil0" d="M250 20l0 0c68,0 124,56 124,124l0 56 -46 0 0 -57c0,-43 -35,-78 -78,-78l0 0c-43,0 -78,35 -78,78l0 57 -46 0 0 -56c0,-68 56,-124 124,-124z"/>
  <path class="fil1 str0" d="M233 44c-36,6 -66,32 -78,66"/>
  <path class="fil2 str1" d="M406 324c0,86 -70,156 -156,156l0 0c-86,0 -156,-70 -156,-156 0,-34 0,-68 0,-102 0,-12 10,-22 21,-22l270 0c11,0 21,10 21,22 0,34 0,68 0,102z"/>
  <path class="fil3 str2" d="M250 286c18,0 32,15 32,32 0,10 -4,18 -10,24l21 73 -86 0 21 -73c-6,-6 -10,-14 -10,-24 0,-17 14,-32 32,-32z"/>
 </g>
</svg>
