<?xml version="1.0" encoding="UTF-8"?>
<!DOCTYPE svg PUBLIC "-//W3C//DTD SVG 1.1//EN" "http://www.w3.org/Graphics/SVG/1.1/DTD/svg11.dtd">
<!-- Creator: CorelDRAW X6 -->
<svg xmlns="http://www.w3.org/2000/svg" xml:space="preserve" width="100%" height="100%" version="1.1" style="shape-rendering:geometricPrecision; text-rendering:geometricPrecision; image-rendering:optimizeQuality; fill-rule:evenodd; clip-rule:evenodd"
viewBox="0 0 500 500"
 xmlns:xlink="http://www.w3.org/1999/xlink">
 <defs>
  <style type="text/css">
   <![CDATA[
    .str0 {stroke:#434242;stroke-width:10}
    .str1 {stroke:#EDEDED;stroke-width:15;stroke-linecap:round}
    .fil4 {fill:none}
    .fil3 {fill:#434242}
    .fil1 {fill:#0076D8}
    .fil2 {fill:#EDEDED}
    .fil0 {fill:url(#id0)}
   ]]>
  </style>
  <linearGradient id="id0" gradientUnits="userSpaceOnUse" x1="109.199" y1="337.499" x2="390.799" y2="337.499">
   <stop offset="0" style="stop-color:#00AAFF"/>
   <stop offset="0.501961" style="stop-color:#0099FF"/>
   <stop offset="1" style="stop-color:#00AAFF"/>
  </linearGradient>
 </defs>
 <g id="Layer_x0020_1">
  <metadata id="CorelCorpID_0Corel-Layer"/>
  <path class="fil0 str0" d="M105 205l290 0c8,0 15,7 15,15l0 235c0,8 -7,15 -15,15l-290 0c-8,0 -15,-7 -15,-15l0 -235c0,-8 7,-15 15,-15z"/>
  <path class="fil1" d="M378 210c-35,19 -80,30 -129,30 -49,0 -94,-11 -129,-30l258 0z"/>
  <rect class="fil2 str0" x="90" y="340" width="319.998" height="90.0015"/>
  <path class="fil3 str0" d="M130 205l39 0 0 -62c0,-45 36,-82 81,-82 45,0 81,37 81,82l0 62 39 0 0 -62c0,-66 -54,-120 -120,-120 -66,0 -120,54 -120,120l0 62z"/>
  <rect class="fil3" transform="matrix(0.133004 -0 0.238331 1.14338 99.9998 340)" width="225.558" height="78.715"/>
  <rect class="fil3" transform="matrix(0.133004 -0 0.238331 1.14338 169.997 340)" width="225.558" height="78.715"/>
  <rect class="fil3" transform="matrix(0.133004 -0 0.238331 1.14338 239.997 340)" width="225.558" height="78.715"/>
  <rect class="fil3" transform="matrix(0.133004 -0 0.238331 1.14338 309.994 340)" width="225.558" height="78.715"/>
  <polygon class="fil3" points="380,340 410,340 410,430 399,430 "/>
  <path class="fil4 str1" d="M250 43c-37,0 -71,20 -89,51"/>
  <path class="fil1" d="M250 445c45,0 87,7 122,20l-244 0c35,-13 77,-20 122,-20z"/>
 </g>
</svg>
