<?xml version="1.0" encoding="UTF-8"?>
<!DOCTYPE svg PUBLIC "-//W3C//DTD SVG 1.1//EN" "http://www.w3.org/Graphics/SVG/1.1/DTD/svg11.dtd">

<svg xmlns="http://www.w3.org/2000/svg" xml:space="preserve" width="100%" height="100%" version="1.1" style="shape-rendering:geometricPrecision; text-rendering:geometricPrecision; image-rendering:optimizeQuality; fill-rule:evenodd; clip-rule:evenodd"
viewBox="0 0 500 500"
 xmlns:xlink="http://www.w3.org/1999/xlink">
 <defs>
  <style type="text/css">
   <![CDATA[
    .str2 {stroke:#434242;stroke-width:10}
    .str0 {stroke:#434242;stroke-width:20}
    .str1 {stroke:#434242;stroke-width:30}
    .fil0 {fill:none}
   ]]>
  </style>
 </defs>
 <g id="Layer_x0020_1">
  <metadata id="CorelCorpID_0Corel-Layer"/>
  <path class="fil0 str0" d="M406 309c0,86 -70,156 -156,156 -86,0 -156,-70 -156,-156 0,-34 0,-55 0,-89 0,-12 10,-22 21,-22l270 0c11,0 21,10 21,22 0,34 0,55 0,89z"/>
  <path class="fil0 str1" d="M150 195l0 -50c0,-55 45,-100 100,-100 55,0 100,45 100,100l0 50"/>
  <circle class="fil0 str2" cx="250" cy="345" r="30"/>
 </g>
</svg>
