<?xml version="1.0" encoding="UTF-8"?>
<!DOCTYPE svg PUBLIC "-//W3C//DTD SVG 1.1//EN" "http://www.w3.org/Graphics/SVG/1.1/DTD/svg11.dtd">
<!-- Creator: CorelDRAW X6 -->
<svg xmlns="http://www.w3.org/2000/svg" xml:space="preserve" width="100%" height="100%" version="1.1" shape-rendering="geometricPrecision" text-rendering="geometricPrecision" image-rendering="optimizeQuality" fill-rule="evenodd" clip-rule="evenodd"
viewBox="0 0 500 500"
 xmlns:xlink="http://www.w3.org/1999/xlink">
 <g id="Layer_x0020_1">
  <metadata id="CorelCorpID_0Corel-Layer"/>
  <rect fill="none" x="210" y="35" width="250" height="389" rx="23" ry="22"/>
  <path fill="none" stroke="#434242" stroke-width="10" d="M270 152l0 -94c0,-13 10,-23 23,-23l144 0c13,0 23,10 23,23l0 327c0,13 -11,26 -23,23l-144 -35c-12,-3 -23,-10 -23,-23l0 -46"/>
  <path fill="none" stroke="#434242" stroke-width="30" d="M210 199l0 -141c0,-13 10,-23 23,-23l204 0c13,0 23,10 23,23l0 343c0,12 -10,23 -23,23l-204 0c-13,0 -23,-11 -23,-23l0 -142"/>
  <path fill="none" stroke="#434242" stroke-width="60" stroke-linecap="round" d="M273 147l67 67c4,5 7,8 7,15 0,7 -3,11 -7,14l-67 67"/>
  <line fill="none" stroke="#434242" stroke-width="60" stroke-linecap="round" x1="344" y1="229" x2="74" y2= "229" />
 </g>
</svg>
