<?xml version="1.0" encoding="UTF-8"?>
<!DOCTYPE svg PUBLIC "-//W3C//DTD SVG 1.1//EN" "http://www.w3.org/Graphics/SVG/1.1/DTD/svg11.dtd">
<!-- Creator: CorelDRAW X6 -->
<svg xmlns="http://www.w3.org/2000/svg" xml:space="preserve" width="100%" height="100%" version="1.1" shape-rendering="geometricPrecision" text-rendering="geometricPrecision" image-rendering="optimizeQuality" fill-rule="evenodd" clip-rule="evenodd"
viewBox="0 0 500 500"
 xmlns:xlink="http://www.w3.org/1999/xlink">
 <defs>
   <linearGradient id="id0" gradientUnits="userSpaceOnUse" x1="362.554" y1="227.99" x2="47" y2="227.99">
    <stop offset="0" stop-color="#008BFF"/>
    <stop offset="1" stop-color="#00AAFF"/>
   </linearGradient>
 </defs>
 <g id="Layer_x0020_1">
  <metadata id="CorelCorpID_0Corel-Layer"/>
  <rect fill="#D5D6D6" x="210" y="35" width="250" height="389" rx="23" ry="22"/>
  <path fill="whitesmoke" stroke="#434242" stroke-width="10" d="M293 35l144 0c13,0 23,10 23,23l0 327c0,13 -11,26 -23,23l-144 -35c-12,-3 -23,-10 -23,-23l0 -292c0,-13 10,-23 23,-23z"/>
  <rect fill="none" stroke="#434242" stroke-width="30" x="210" y="35" width="250" height="389" rx="23" ry="22"/>
  <path fill="url(#id0)" stroke="#434242" stroke-width="10" d="M359 236l-95 73c-4,2 -7,3 -11,1 -3,-2 -6,-5 -6,-9l0 -42 -190 0c-5,0 -10,-5 -10,-10l0 -40c0,-5 4,-10 10,-10l190 0 0 -44c0,-4 3,-7 6,-9 4,-2 7,-1 11,1l95 73c2,2 4,5 4,8 0,3 -2,6 -4,8z"/>
 </g>
</svg>
