<?xml version="1.0" encoding="UTF-8"?>
<!DOCTYPE svg PUBLIC "-//W3C//DTD SVG 1.1//EN" "http://www.w3.org/Graphics/SVG/1.1/DTD/svg11.dtd">
<!-- Creator: CorelDRAW X6 -->
<svg xmlns="http://www.w3.org/2000/svg" xml:space="preserve" width="100%" height="100%" version="1.1" shape-rendering="geometricPrecision" text-rendering="geometricPrecision" image-rendering="optimizeQuality" fill-rule="evenodd" clip-rule="evenodd"
viewBox="0 0 500 500"
 xmlns:xlink="http://www.w3.org/1999/xlink">
 <g id="Layer_x0020_1">
  <metadata id="CorelCorpID_0Corel-Layer"/>
  <path fill="none" stroke="#434242" stroke-width="60" stroke-linecap="round" d="M139 146l-66 67c-5,5 -7,8 -7,15 0,7 3,11 7,14l66 67"/>
  <path fill="#434242" fill-rule="nonzero" d="M233 20l204 0c21,0 38,17 38,38l0 343c0,21 -17,38 -38,38l-55 0 -34 0 74 -18c12,-3 23,-10 23,-23l0 -325c0,-19 -6,-23 -23,-23l-189 0c-4,0 -8,4 -8,8 0,173 0,170 0,343 0,4 4,8 8,8l32 0 0 21c0,3 1,6 2,9l-34 0c-21,0 -38,-17 -38,-38 0,-195 0,-153 0,-343 0,-21 17,-38 38,-38z"/>
  <path fill="#FEFEFE" stroke="#434242" stroke-width="10" d="M285 80l137 -30c12,-3 23,10 23,23l0 325c0,13 -11,20 -23,23l-134 32c-12,3 -23,-10 -23,-23l-3 -327c0,-13 11,-20 23,-23z"/>
  <line fill="none" stroke="#434242" stroke-width="60" x1="66" y1="228" x2="263" y2= "228" />
 </g>
</svg>
