<?xml version="1.0" encoding="UTF-8"?>
<!DOCTYPE svg PUBLIC "-//W3C//DTD SVG 1.1//EN" "http://www.w3.org/Graphics/SVG/1.1/DTD/svg11.dtd">
<!-- Creator: CorelDRAW X6 -->
<svg xmlns="http://www.w3.org/2000/svg" xml:space="preserve" width="100%" height="100%" version="1.1" shape-rendering="geometricPrecision" text-rendering="geometricPrecision" image-rendering="optimizeQuality" fill-rule="evenodd" clip-rule="evenodd"
viewBox="0 0 500 500"
 xmlns:xlink="http://www.w3.org/1999/xlink">
 <g id="Layer_x0020_1">
  <metadata id="CorelCorpID_0Corel-Layer"/>
  <path fill="#434242" fill-rule="nonzero" d="M233 20l204 0c21,0 38,17 38,38l0 343c0,21 -17,38 -38,38l-55 0 -34 0 74 -18c12,-3 23,-10 23,-23l0 -325c0,-19 -6,-23 -23,-23l-189 0c-4,0 -8,4 -8,8l0 141 43 0 1 60 -44 0 0 142c0,4 4,8 8,8l32 0 0 21c0,3 1,6 2,9l-34 0c-21,0 -38,-17 -38,-38l0 -142 -50 0 0 42c0,4 -2,7 -5,9 -4,2 -8,1 -11,-1l-95 -73c-3,-2 -4,-5 -4,-8 0,-3 1,-6 4,-8l95 -73c3,-2 7,-3 11,-1 3,2 5,5 5,9l0 44 50 0 0 -141c0,-21 17,-38 38,-38z"/>
  <path fill="none" stroke="#434242" stroke-width="10" d="M285 80l137 -30c12,-3 23,10 23,23l0 325c0,13 -11,20 -23,23l-134 32c-12,3 -23,-10 -23,-23l-3 -327c0,-13 11,-20 23,-23z"/>
 </g>
</svg>
