<?xml version="1.0" encoding="UTF-8"?>
<!DOCTYPE svg PUBLIC "-//W3C//DTD SVG 1.1//EN" "http://www.w3.org/Graphics/SVG/1.1/DTD/svg11.dtd">

<svg xmlns="http://www.w3.org/2000/svg" xml:space="preserve" width="100%" height="100%" version="1.1" style="shape-rendering:geometricPrecision; text-rendering:geometricPrecision; image-rendering:optimizeQuality; fill-rule:evenodd; clip-rule:evenodd"
viewBox="0 0 5000 5000"
 xmlns:xlink="http://www.w3.org/1999/xlink">
 <defs>
  <style type="text/css">
   <![CDATA[
    .fil0 {fill:#434242}
   ]]>
  </style>
 </defs>
 <g id="Layer_x0020_1">
  <metadata id="CorelCorpID_0Corel-Layer"/>
  <path class="fil0" d="M3227 4600l622 0 72 -800 -628 0 -66 800zm711 -1000l157 -1763c75,-842 -718,-1537 -1595,-1537 -877,0 -1670,695 -1595,1537l157 1763 628 0 -124 -1500c-54,-651 364,-1050 934,-1050 570,0 988,399 934,1050l-124 1500 628 0zm-2859 200l71 800 623 0 -66 -800 -628 0z"/>
 </g>
</svg>
