<?xml version="1.0" encoding="UTF-8"?>
<!DOCTYPE svg PUBLIC "-//W3C//DTD SVG 1.1//EN" "http://www.w3.org/Graphics/SVG/1.1/DTD/svg11.dtd">
<!-- Creator: CorelDRAW X6 -->
<svg xmlns="http://www.w3.org/2000/svg" xml:space="preserve" width="100%" height="100%" version="1.1" shape-rendering="geometricPrecision" text-rendering="geometricPrecision" image-rendering="optimizeQuality" fill-rule="evenodd" clip-rule="evenodd"
viewBox="0 0 500 500"
 xmlns:xlink="http://www.w3.org/1999/xlink">
 <g id="Layer_x0020_1">
  <metadata id="CorelCorpID_0Corel-Layer"/>
  <path fill="#434242" d="M319 336l0 -206c0,-17 -14,-31 -31,-31l-228 0c-17,0 -31,14 -31,31l0 206c0,17 14,31 31,31l21 0c11,0 21,0 31,10l62 93 63 -93c10,-10 20,-10 30,-10l21 0c17,0 31,-14 31,-31z"/>
  <path fill="none" stroke="#434242" stroke-width="15" stroke-linecap="round" stroke-linejoin="round" d="M150 80l0 -18c0,-18 14,-32 32,-32l256 0c18,0 32,14 32,32l-1 240c0,17 -15,32 -32,32l-32 0c-10,0 -21,0 -31,10l-65 96 -34 -52"/>
 </g>
</svg>
