<?xml version="1.0" encoding="UTF-8"?>
<!DOCTYPE svg PUBLIC "-//W3C//DTD SVG 1.1//EN" "http://www.w3.org/Graphics/SVG/1.1/DTD/svg11.dtd">
<!-- Creator: CorelDRAW X6 -->
<svg xmlns="http://www.w3.org/2000/svg" xml:space="preserve" width="100%" height="100%" version="1.1" shape-rendering="geometricPrecision" text-rendering="geometricPrecision" image-rendering="optimizeQuality" fill-rule="evenodd" clip-rule="evenodd"
viewBox="0 0 500 500"
 xmlns:xlink="http://www.w3.org/1999/xlink">
 <defs>
   <linearGradient id="id0" gradientUnits="userSpaceOnUse" x1="306.749" y1="79.201" x2="306.749" y2="390.801">
    <stop offset="0" stop-color="#FCFCFD"/>
    <stop offset="1" stop-color="#FFFFFF"/>
   </linearGradient>
   <linearGradient id="id1" gradientUnits="userSpaceOnUse" x1="319.001" y1="284.729" x2="29.391" y2="284.729">
    <stop offset="0" stop-color="#008BFF"/>
    <stop offset="1" stop-color="#00AAFF"/>
   </linearGradient>
 </defs>
 <g id="Layer_x0020_1">
  <metadata id="CorelCorpID_0Corel-Layer"/>
  <path fill="url(#id0)" stroke="#434242" stroke-width="10" stroke-linejoin="round" d="M461 297l0 -234c0,-18 -15,-33 -33,-33l-243 0c-18,0 -33,15 -33,33l0 234c0,18 15,33 33,33l22 0c12,0 23,0 34,11l65 99 67 -99c11,-11 22,-11 33,-11l22 0c18,0 33,-15 33,-33z"/>
  <path fill="url(#id1)" stroke="#434242" stroke-width="10" stroke-linejoin="round" d="M319 336l0 -206c0,-17 -14,-31 -31,-31l-228 0c-17,0 -31,14 -31,31l0 206c0,17 14,31 31,31l21 0c11,0 21,0 31,10l62 93 63 -93c10,-10 20,-10 30,-10l21 0c17,0 31,-14 31,-31z"/>
 </g>
</svg>
