<?xml version="1.0" encoding="UTF-8"?>
<!DOCTYPE svg PUBLIC "-//W3C//DTD SVG 1.1//EN" "http://www.w3.org/Graphics/SVG/1.1/DTD/svg11.dtd">
<!-- Creator: CorelDRAW X6 -->
<svg xmlns="http://www.w3.org/2000/svg" xml:space="preserve" width="100%" height="100%" version="1.1" shape-rendering="geometricPrecision" text-rendering="geometricPrecision" image-rendering="optimizeQuality" fill-rule="evenodd" clip-rule="evenodd"
viewBox="0 0 500 500"
 xmlns:xlink="http://www.w3.org/1999/xlink">
 <defs>
   <linearGradient id="id0" gradientUnits="userSpaceOnUse" x1="249.997" y1="356.378" x2="249.997" y2="224.38">
    <stop offset="0" stop-color="#008BFF"/>
    <stop offset="1" stop-color="#00AAFF"/>
   </linearGradient>
   <linearGradient id="id1" gradientUnits="userSpaceOnUse" x1="344.996" y1="98" x2="154.998" y2="98">
    <stop offset="0" stop-color="#008BFF"/>
    <stop offset="1" stop-color="#00AAFF"/>
   </linearGradient>
 </defs>
 <g id="Layer_x0020_1">
  <metadata id="CorelCorpID_0Corel-Layer"/>
  <path fill="url(#id0)" stroke="#434242" stroke-width="10" d="M250 365c52,0 95,-42 95,-95l0 -55 -190 0 0 55c0,53 43,95 95,95z"/>
  <path fill="#434242" d="M156 165l188 0c5,0 10,4 11,10l40 0c5,0 10,4 10,10l0 20c0,6 -5,10 -10,10l-5 0 0 48c0,68 -50,125 -115,137l0 40 75 0c8,0 15,7 15,15l0 15 -230 0 0 -15c0,-8 7,-15 15,-15l75 0 0 -40c-65,-12 -115,-69 -115,-137l0 -48 -5 0c-6,0 -10,-4 -10,-10l0 -20c0,-6 4,-10 10,-10l40 0c1,-6 6,-10 11,-10zm214 50l-15 0c-1,6 -6,10 -11,10l-188 0c-5,0 -10,-4 -11,-10l-15 0 0 50c0,66 54,120 120,120l0 0c66,0 120,-54 120,-120l0 -50z"/>
  <path fill="url(#id1)" stroke="#434242" stroke-width="5" stroke-linejoin="round" d="M250 25c52,0 95,43 95,95l0 51 -190 0 0 -31 85 0 0 -15 -85 0 0 -5c0,-3 0,-7 1,-10l84 0 0 -15 -82 0c2,-5 4,-10 6,-15l76 0 0 -15 -67 0c4,-5 8,-10 13,-15l54 0 0 -15 -32 0c12,-6 27,-10 42,-10z"/>
 </g>
</svg>
