<?xml version="1.0" encoding="UTF-8"?>
<!DOCTYPE svg PUBLIC "-//W3C//DTD SVG 1.1//EN" "http://www.w3.org/Graphics/SVG/1.1/DTD/svg11.dtd">
<!-- Creator: CorelDRAW X6 -->
<svg xmlns="http://www.w3.org/2000/svg" xml:space="preserve" width="100%" height="100%" version="1.1" shape-rendering="geometricPrecision" text-rendering="geometricPrecision" image-rendering="optimizeQuality" fill-rule="evenodd" clip-rule="evenodd"
viewBox="0 0 500 500"
 xmlns:xlink="http://www.w3.org/1999/xlink">
 <g id="Layer_x0020_1">
  <metadata id="CorelCorpID_0Corel-Layer"/>
  <path fill="none" stroke="#434242" stroke-width="15" d="M250 355c49,0 90,-40 90,-90l0 -145c0,-49 -41,-90 -90,-90 -50,0 -90,41 -90,90l0 145c0,50 40,90 90,90z"/>
  <path fill="none" stroke="#434242" stroke-width="25" stroke-linecap="round" d="M130 195l0 70c0,66 54,120 120,120 66,0 120,-54 120,-120l0 -70m-240 280l0 -10c0,-14 11,-25 25,-25l190 0c14,0 25,11 25,25l0 10m-120 -35l0 -55"/>
  <line fill="none" stroke="#434242" stroke-width="10" x1="161" y1="110" x2="250" y2= "110" />
  <line fill="none" stroke="#434242" stroke-width="10" x1="250" y1="135" x2="161" y2= "135" />
  <line fill="none" stroke="#434242" stroke-width="10" x1="250" y1="160" x2="161" y2= "160" />
  <line fill="none" stroke="#434242" stroke-width="10" x1="335" y1="220" x2="161" y2= "220" />
  <line fill="none" stroke="#434242" stroke-width="10" x1="170" y1="85" x2="250" y2= "85" />
  <line fill="none" stroke="#434242" stroke-width="10" x1="183" y1="60" x2="250" y2= "60" />
 </g>
</svg>
