<?xml version="1.0" encoding="UTF-8"?>
<!DOCTYPE svg PUBLIC "-//W3C//DTD SVG 1.1//EN" "http://www.w3.org/Graphics/SVG/1.1/DTD/svg11.dtd">

<svg xmlns="http://www.w3.org/2000/svg" xml:space="preserve" width="100%" height="100%" version="1.1" style="shape-rendering:geometricPrecision; text-rendering:geometricPrecision; image-rendering:optimizeQuality; fill-rule:evenodd; clip-rule:evenodd"
viewBox="0 0 500 500"
 xmlns:xlink="http://www.w3.org/1999/xlink">
 <defs>
  <style type="text/css">
   <![CDATA[
    .str1 {stroke:#434242;stroke-width:10}
    .str0 {stroke:#434242;stroke-width:15}
    .fil1 {fill:#FFFFFF}
    .fil0 {fill:url(#id0)}
   ]]>
  </style>
  <radialGradient id="id0" gradientUnits="objectBoundingBox" cx="48%" cy="50%" r="50%" fx="48%" fy="50%">
   <stop offset="0" style="stop-color:#00AAFF"/>
   <stop offset="1" style="stop-color:#008BFF"/>
  </radialGradient>
 </defs>
 <g id="Layer_x0020_1">
  <metadata id="CorelCorpID_0Corel-Layer"/>
  <path class="fil0 str0" d="M30 250c0,122 98,220 220,220 122,0 220,-98 220,-220 0,-122 -98,-220 -220,-220 -122,0 -220,98 -220,220z"/>
  <path class="fil1 str1" d="M380 208c5,0 10,4 10,10l0 64c0,6 -5,11 -10,11 -130,0 -130,0 -260,0 -5,0 -10,-5 -10,-11l0 -64c0,-6 5,-10 10,-10 130,0 130,0 260,0z"/>
 </g>
</svg>
