<?xml version="1.0" encoding="UTF-8"?>
<!DOCTYPE svg PUBLIC "-//W3C//DTD SVG 1.1//EN" "http://www.w3.org/Graphics/SVG/1.1/DTD/svg11.dtd">

<svg xmlns="http://www.w3.org/2000/svg" xml:space="preserve" width="100%" height="100%" version="1.1" style="shape-rendering:geometricPrecision; text-rendering:geometricPrecision; image-rendering:optimizeQuality; fill-rule:evenodd; clip-rule:evenodd"
viewBox="0 0 500 500"
 xmlns:xlink="http://www.w3.org/1999/xlink">
 <defs>
  <style type="text/css">
   <![CDATA[
    .fil0 {fill:#FFFFFF}
   ]]>
  </style>
 </defs>
 <g id="Layer_x0020_1">
  <metadata id="CorelCorpID_0Corel-Layer"/>
  <path class="fil0" d="M30 250c0,122 98,220 220,220 122,0 220,-98 220,-220 0,-122 -98,-220 -220,-220 -122,0 -220,98 -220,220zm350 -42c5,0 10,4 10,10l0 64c0,6 -5,11 -10,11 -130,0 -130,0 -260,0 -5,0 -10,-5 -10,-11l0 -64c0,-6 5,-10 10,-10 130,0 130,0 260,0z"/>
 </g>
</svg>
