<?xml version="1.0" encoding="UTF-8"?>
<!DOCTYPE svg PUBLIC "-//W3C//DTD SVG 1.1//EN" "http://www.w3.org/Graphics/SVG/1.1/DTD/svg11.dtd">
<!-- Creator: CorelDRAW X6 -->
<svg xmlns="http://www.w3.org/2000/svg" xml:space="preserve" width="100%" height="100%" version="1.1" style="shape-rendering:geometricPrecision; text-rendering:geometricPrecision; image-rendering:optimizeQuality; fill-rule:evenodd; clip-rule:evenodd"
viewBox="0 0 500 500"
 xmlns:xlink="http://www.w3.org/1999/xlink">
 <defs>
  <style type="text/css">
   <![CDATA[
    .str0 {stroke:red;stroke-width:0.1}
    .fil4 {fill:none}
    .fil2 {fill:#434242}
    .fil3 {fill:#EBEBEB}
    .fil0 {fill:url(#id0)}
    .fil1 {fill:url(#id1)}
   ]]>
  </style>
  <linearGradient id="id0" gradientUnits="userSpaceOnUse" x1="442.534" y1="215.774" x2="64.702" y2="215.774">
   <stop offset="0" style="stop-color:#008BFF"/>
   <stop offset="1" style="stop-color:#00AAFF"/>
  </linearGradient>
  <linearGradient id="id1" gradientUnits="userSpaceOnUse" x1="115.509" y1="136.871" x2="265.007" y2="294.677">
   <stop offset="0" style="stop-color:#008BFF"/>
   <stop offset="1" style="stop-color:#4EAFFF"/>
  </linearGradient>
 </defs>
 <g id="Layer_x0020_1">
  <metadata id="CorelCorpID_0Corel-Layer"/>
  <path class="fil0" d="M75 101l358 0c5,0 10,4 10,10l0 210c0,5 -5,10 -10,10l-358 0c-6,0 -10,-5 -10,-10l0 -210c0,-6 4,-10 10,-10z"/>
  <path class="fil1" d="M75 101l241 0c0,1 0,2 0,3 0,99 -56,185 -138,227l-103 0c-6,0 -10,-5 -10,-10l0 -210c0,-6 4,-10 10,-10z"/>
  <path class="fil2" d="M75 101l358 0c5,0 10,4 10,10l0 210c0,5 -5,10 -10,10l-358 0c-6,0 -10,-5 -10,-10l0 -210c0,-6 4,-10 10,-10zm53 300l75 0 0 -30 -140 0c-11,0 -20,-9 -20,-20l0 -250c0,-11 9,-20 20,-20l380 0c11,0 20,9 20,20l0 250c0,11 -9,20 -20,20l-140 0 0 30 75 0c8,0 15,7 15,15l0 5 -280 0 0 -5c0,-8 6,-15 15,-15z"/>
  <path class="fil3" d="M223 343l60 0c2,0 5,3 5,5l0 5c0,3 -3,5 -5,5l-60 0c-3,0 -5,-2 -5,-5l0 -5c0,-2 2,-5 5,-5z"/>
  <circle class="fil3" cx="413" cy="351" r="10"/>
 </g>
</svg>
