<?xml version="1.0" encoding="UTF-8"?>
<!DOCTYPE svg PUBLIC "-//W3C//DTD SVG 1.1//EN" "http://www.w3.org/Graphics/SVG/1.1/DTD/svg11.dtd">
<!-- Creator: CorelDRAW X6 -->
<svg xmlns="http://www.w3.org/2000/svg" xml:space="preserve" width="100%" height="100%" version="1.1" style="shape-rendering:geometricPrecision; text-rendering:geometricPrecision; image-rendering:optimizeQuality; fill-rule:evenodd; clip-rule:evenodd"
viewBox="0 0 500 500"
 xmlns:xlink="http://www.w3.org/1999/xlink">
 <defs>
  <style type="text/css">
   <![CDATA[
    .str1 {stroke:red;stroke-width:0.1}
    .str0 {stroke:#4D4D4D;stroke-width:5;stroke-linejoin:round}
    .fil2 {fill:none}
    .fil1 {fill:#4D4D4D}
    .fil0 {fill:#F3F3F4}
   ]]>
  </style>
 </defs>
 <g id="Layer_x0020_1">
  <metadata id="CorelCorpID_0Corel-Layer"/>
  <g id="_1065764688">
   <path class="fil0" d="M72 100l358 0c6,0 10,5 10,10l0 210c0,6 -4,10 -10,10l-358 0c-5,0 -10,-4 -10,-10l0 -210c0,-5 5,-10 10,-10zm53 300l75 0 0 -30 -140 0c-11,0 -20,-9 -20,-20l0 -250c0,-11 9,-20 20,-20l380 0c11,0 20,9 20,20l0 250c0,11 -9,20 -20,20l-140 0 0 30 75 0c8,0 15,7 15,15l0 5 -280 0 0 -5c0,-8 7,-15 15,-15zm95 -57l60 0c3,0 5,2 5,5l0 5c0,2 -2,5 -5,5l-60 0c-3,0 -5,-3 -5,-5l0 -5c0,-3 2,-5 5,-5zm190 -3c6,0 10,5 10,10 0,6 -4,10 -10,10 -5,0 -10,-4 -10,-10 0,-5 5,-10 10,-10z"/>
   <path class="fil1" d="M410 340c6,0 10,5 10,10 0,6 -4,10 -10,10 -5,0 -10,-4 -10,-10 0,-5 5,-10 10,-10z"/>
   <path class="fil1" d="M220 343l60 0c3,0 5,2 5,5l0 5c0,2 -2,5 -5,5l-60 0c-3,0 -5,-3 -5,-5l0 -5c0,-3 2,-5 5,-5z"/>
   <path class="fil2 str0" d="M125 400l75 0 0 -30 -140 0c-11,0 -20,-9 -20,-20l0 -250c0,-11 9,-20 20,-20l380 0c11,0 20,9 20,20l0 250c0,11 -9,20 -20,20l-140 0 0 30 75 0c8,0 15,7 15,15l0 5 -280 0 0 -5c0,-8 7,-15 15,-15z"/>
   <path class="fil1" d="M72 100l358 0c6,0 10,5 10,10l0 210c0,6 -4,10 -10,10l-358 0c-5,0 -10,-4 -10,-10l0 -210c0,-5 5,-10 10,-10z"/>
  </g>
 </g>
</svg>
