<?xml version="1.0" encoding="UTF-8"?>
<!DOCTYPE svg PUBLIC "-//W3C//DTD SVG 1.1//EN" "http://www.w3.org/Graphics/SVG/1.1/DTD/svg11.dtd">
<!-- Creator: CorelDRAW X6 -->
<svg xmlns="http://www.w3.org/2000/svg" xml:space="preserve" width="100%" height="100%" version="1.1" shape-rendering="geometricPrecision" text-rendering="geometricPrecision" image-rendering="optimizeQuality" fill-rule="evenodd" clip-rule="evenodd"
viewBox="0 0 500 500"
 xmlns:xlink="http://www.w3.org/1999/xlink">
 <g id="Layer_x0020_1">
  <metadata id="CorelCorpID_0Corel-Layer"/>
  <path fill="#FFFFFF" d="M110 200l0 -17c0,-83 58,-151 130,-153l5 0 0 75 -5 0c-8,0 -15,7 -15,15l0 80 -115 0z"/>
  <path fill="#FFFFFF" d="M110 210l0 102c0,82 54,153 140,153 86,0 140,-71 140,-153l0 -102 -115 0 0 10c0,8 -7,15 -15,15l-20 0c-8,0 -15,-7 -15,-15l0 -10 -115 0z"/>
  <path fill="#FFFFFF" d="M245 115l10 0c6,0 10,4 10,10l0 90c0,6 -5,10 -10,10l-10 0c-6,0 -10,-4 -10,-10l0 -90c0,-6 4,-10 10,-10z"/>
  <path fill="#FFFFFF" d="M255 105l5 0c8,0 15,7 15,15l0 80 115 0 0 -17c0,-83 -58,-151 -130,-153l-5 0 0 75z"/>
 </g>
</svg>
