<?xml version="1.0" encoding="UTF-8"?>
<!DOCTYPE svg PUBLIC "-//W3C//DTD SVG 1.1//EN" "http://www.w3.org/Graphics/SVG/1.1/DTD/svg11.dtd">
<!-- Creator: CorelDRAW X6 -->
<svg xmlns="http://www.w3.org/2000/svg" xml:space="preserve" width="100%" height="100%" version="1.1" shape-rendering="geometricPrecision" text-rendering="geometricPrecision" image-rendering="optimizeQuality" fill-rule="evenodd" clip-rule="evenodd"
viewBox="0 0 500 500"
 xmlns:xlink="http://www.w3.org/1999/xlink">
 <g id="Layer_x0020_1">
  <metadata id="CorelCorpID_0Corel-Layer"/>
  <path fill="none" stroke="#434242" stroke-width="20" stroke-linejoin="round" d="M110 312c0,82 54,153 140,153 86,0 140,-71 140,-153 0,-43 0,-86 0,-129 0,-84 -60,-153 -133,-153l-14 0c-73,0 -133,69 -133,153 0,43 0,86 0,129z"/>
  <path fill="none" stroke="#434242" stroke-width="10" d="M250 105c8,0 15,7 15,15l0 70c0,8 -7,15 -15,15 -8,0 -15,-7 -15,-15l0 -70c0,-8 7,-15 15,-15zm0 -75l0 75m-140 75l125 0m30 0l125 0"/>
 </g>
</svg>
