<?xml version="1.0" encoding="UTF-8"?>
<!DOCTYPE svg PUBLIC "-//W3C//DTD SVG 1.1//EN" "http://www.w3.org/Graphics/SVG/1.1/DTD/svg11.dtd">

<svg xmlns="http://www.w3.org/2000/svg" xml:space="preserve" width="100%" height="100%" version="1.1" style="shape-rendering:geometricPrecision; text-rendering:geometricPrecision; image-rendering:optimizeQuality; fill-rule:evenodd; clip-rule:evenodd"
viewBox="0 0 500 500"
 xmlns:xlink="http://www.w3.org/1999/xlink">
 <defs>
  <style type="text/css">
   <![CDATA[
    .str0 {stroke:#434242;stroke-width:30}
    .fil1 {fill:none}
    .fil0 {fill:#434242;fill-rule:nonzero}
   ]]>
  </style>
 </defs>
 <g id="Layer_x0020_1">
  <metadata id="CorelCorpID_0Corel-Layer"/>
  <g>
   <path class="fil0" d="M176 87l21 21 -1 1 0 0 -1 1 0 0 -1 0 -1 1 0 0 -1 0 -1 1 0 0 -1 0 -1 0 0 0 -1 0 -1 0 -1 0 0 0 -1 0 -1 0 -1 0 0 0 -1 0 -1 0 0 -1 -1 0 -1 0 0 -1 -1 0 -1 0 0 -1 -1 0 0 -1 -1 -1 0 0 -1 -1 0 0 -1 -1 0 -1 0 0 -1 -1 0 -1 0 0 0 -1 0 -1 0 0 -1 -1 0 -1 0 -1 0 0 0 -1 1 -1 0 0 0 -1 0 -1 0 -1 1 0 0 -1 0 -1 1 0 0 -1 0 0 1 -1 0 -1 1 0zm73 -31l-52 52 -21 -21 52 -52 21 21 0 0zm0 0l0 0 0 0 0 0zm1 -31l0 30 0 0 0 0 0 0 0 0 0 0 0 0 0 0 0 0 0 0 0 0 0 0 0 0 1 0 0 0 0 0 0 0 0 0 0 0 0 0 0 0 0 0 0 0 0 0 0 0 0 0 0 0 0 0 -1 0 0 0 0 1 0 0 -1 0 0 0 -21 -21 0 0 1 -1 0 0 1 -1 0 0 0 0 1 -1 0 0 1 -1 1 0 0 0 1 -1 0 0 1 -1 1 0 0 -1 1 0 1 0 1 -1 0 0 1 0 1 -1 1 0 1 0 1 0 1 -1 1 0 1 0 0 0 1 0 1 0 1 0 0 0zm0 30l0 0 0 0 0 0zm22 -20l-21 21 0 0 -1 0 0 0 0 0 0 -1 -1 0 0 0 0 0 0 0 0 0 0 0 0 0 0 0 0 0 0 0 0 0 0 0 0 0 0 0 0 0 0 0 0 0 0 0 0 0 1 0 0 0 0 0 0 0 0 0 0 0 0 0 0 0 0 0 0 -30 1 0 1 0 1 0 1 0 1 0 1 1 1 0 1 0 1 0 1 1 0 0 1 0 1 1 1 0 1 1 0 0 1 0 1 1 0 0 1 1 0 0 1 1 0 0 1 0 0 1 1 0 0 0 0 1 1 0 0 0 0 1 1 0 0 0zm-21 21l0 0 0 0 0 0zm52 52l-52 -52 21 -21 52 52 -21 21zm0 0l21 -21 0 0 1 1 0 1 1 0 0 1 1 0 0 1 0 1 0 0 1 1 0 1 0 1 0 0 0 1 0 1 0 0 0 1 0 1 0 1 0 0 0 1 0 1 -1 0 0 1 0 1 0 0 -1 1 0 1 -1 0 0 1 -1 0 0 1 -1 1 0 0 -1 1 0 0 -1 0 -1 1 0 0 -1 0 -1 1 0 0 -1 0 -1 0 -1 0 0 0 -1 0 -1 0 0 0 -1 0 -1 0 -1 0 0 0 -1 0 -1 0 0 -1 -1 0 -1 0 0 -1 -1 0 -1 0 0 -1 -1 0 0 -1z"/>
  </g>
  <g>
   <path class="fil0" d="M176 413l-1 0 0 -1 -1 -1 0 0 0 -1 -1 0 0 -1 0 -1 -1 0 0 -1 0 -1 0 -1 0 0 -1 -1 0 -1 0 0 0 -1 0 -1 1 -1 0 0 0 -1 0 -1 0 0 0 -1 1 -1 0 0 0 -1 1 -1 0 0 1 -1 0 0 1 -1 0 -1 1 0 0 -1 1 0 1 0 0 -1 1 0 1 0 0 -1 1 0 1 0 0 0 1 0 1 0 1 0 0 0 1 0 1 0 1 0 0 0 1 0 1 0 0 0 1 1 1 0 0 0 1 1 1 0 0 0 1 1 0 0 1 1 -21 21zm73 31l0 0 -21 21 -52 -52 21 -21 52 52zm0 0l0 0 0 0 0 0zm1 31l0 0 -1 0 -1 0 -1 0 0 0 -1 0 -1 0 -1 -1 -1 0 -1 0 -1 0 -1 -1 -1 0 0 0 -1 -1 -1 0 -1 0 0 -1 -1 0 -1 -1 0 0 -1 -1 0 0 -1 0 -1 -1 0 0 -1 -1 0 0 0 0 -1 -1 0 0 -1 -1 0 0 21 -21 0 0 1 0 0 0 0 1 0 0 1 0 0 0 0 0 0 0 0 0 0 0 0 0 0 0 0 0 0 0 0 0 0 0 0 0 0 0 0 0 -1 0 0 0 0 0 0 0 0 0 0 0 0 0 0 0 0 0 0 0 0 0 0 0 0 0 0 30zm0 -30l0 0 0 0 0 0zm22 20l0 0 -1 0 0 1 0 0 -1 0 0 1 0 0 -1 0 0 1 -1 0 0 0 -1 1 0 0 -1 1 0 0 -1 1 -1 0 0 0 -1 1 -1 0 -1 1 -1 0 0 0 -1 1 -1 0 -1 0 -1 0 -1 1 -1 0 -1 0 -1 0 -1 0 -1 0 0 -30 0 0 0 0 0 0 0 0 0 0 0 0 0 0 0 0 -1 0 0 0 0 0 0 0 0 0 0 0 0 0 0 0 0 0 0 0 0 0 0 0 0 0 0 0 0 0 0 0 0 0 0 0 0 0 1 0 0 -1 0 0 0 0 1 0 0 0 21 21zm-21 -21l0 0 0 0 0 0zm52 -52l21 21 -52 52 -21 -21 52 -52zm0 0l0 -1 1 0 0 -1 1 0 1 0 0 -1 1 0 1 0 0 -1 1 0 1 0 0 0 1 0 1 0 1 0 0 0 1 0 1 0 0 0 1 0 1 0 1 0 0 0 1 1 1 0 0 0 1 1 1 0 0 0 1 1 0 0 1 1 0 1 1 0 0 1 1 0 0 1 1 1 0 0 0 1 0 1 1 0 0 1 0 1 0 0 0 1 0 1 0 1 0 0 0 1 0 1 0 0 0 1 0 1 -1 1 0 0 0 1 0 1 -1 0 0 1 -1 0 0 1 -1 1 0 0 -21 -21z"/>
  </g>
  <line class="fil1 str0" x1="250" y1="50" x2="250" y2= "450" />
  <g>
   <path class="fil0" d="M413 176l-21 21 -1 0 0 -1 -1 -1 0 0 -1 -1 0 0 0 -1 -1 -1 0 -1 0 0 0 -1 0 -1 -1 0 0 -1 0 -1 0 0 0 -1 0 -1 0 -1 1 0 0 -1 0 -1 0 0 0 -1 1 -1 0 0 0 -1 1 -1 0 0 1 -1 0 -1 1 0 0 -1 1 0 1 -1 0 0 1 0 0 -1 1 0 1 0 0 -1 1 0 1 0 1 0 0 0 1 0 1 0 0 0 1 0 1 0 1 0 0 0 1 0 1 0 0 0 1 1 1 0 0 0 1 1 1 0 0 1 1 0 0 0 1 1zm31 73l-52 -52 21 -21 52 52 -21 21 0 0zm0 0l0 0 0 0 0 0zm31 1l-30 0 0 0 0 0 0 0 0 0 0 0 0 0 0 0 0 0 0 0 0 0 0 1 0 0 0 0 0 0 0 0 0 0 0 0 0 0 0 0 0 0 0 0 0 0 0 0 0 0 0 0 0 0 0 0 0 0 0 -1 -1 0 0 0 0 0 0 -1 21 -21 0 1 1 0 0 0 0 1 1 0 0 1 1 0 0 1 0 0 1 1 0 0 1 1 0 0 1 1 0 1 0 1 1 0 0 1 1 1 0 1 0 0 1 1 0 1 0 1 0 1 0 1 1 1 0 1 0 1 0 1 0 0 0 1 0 0zm-30 0l0 0 0 0 0 0zm20 22l-21 -21 0 0 0 -1 0 0 0 0 0 0 1 0 0 -1 0 0 0 0 0 0 0 0 0 0 0 0 0 0 0 0 0 0 0 0 0 0 0 0 0 0 0 0 0 0 0 1 0 0 0 0 0 0 0 0 0 0 0 0 0 0 0 0 0 0 0 0 30 0 0 1 0 1 0 1 0 1 -1 1 0 1 0 1 0 1 -1 1 0 1 0 1 -1 0 0 1 0 1 -1 1 0 1 -1 0 0 1 0 0 -1 1 0 1 -1 0 0 1 -1 0 0 1 0 0 -1 0 0 1 0 0 -1 0 0 1 0 0 0 0zm-21 -21l0 0 0 0 0 0zm-52 52l52 -52 21 21 -52 52 -21 -21zm0 0l21 21 -1 1 0 0 -1 0 0 1 -1 0 -1 1 0 0 -1 0 -1 1 0 0 -1 0 -1 0 0 0 -1 0 -1 0 -1 0 0 0 -1 0 -1 0 0 0 -1 0 -1 0 -1 0 0 -1 -1 0 -1 0 0 -1 -1 0 0 0 -1 -1 -1 0 0 -1 -1 -1 0 0 -1 -1 0 0 -1 -1 0 -1 0 0 -1 -1 0 -1 0 0 0 -1 0 -1 0 0 -1 -1 0 -1 0 -1 0 0 0 -1 0 -1 1 0 0 -1 0 -1 0 -1 0 0 1 -1 0 -1 0 0 1 -1 0 0 1 -1 0 -1 1 0z"/>
  </g>
  <g>
   <path class="fil0" d="M87 176l0 -1 1 0 0 0 1 -1 1 0 0 -1 1 0 1 0 0 -1 1 0 1 0 0 0 1 0 1 0 1 0 0 0 1 0 1 0 0 0 1 0 1 0 1 0 0 0 1 1 1 0 0 0 1 1 1 0 0 0 1 1 0 0 1 1 0 0 1 1 0 1 1 0 0 1 1 1 0 0 0 1 0 1 1 0 0 1 0 1 0 0 0 1 0 1 0 1 0 0 0 1 0 1 0 0 0 1 0 1 -1 0 0 1 0 1 0 1 -1 0 0 1 -1 0 0 1 -1 1 0 0 -21 -21zm-31 73l0 0 -21 -21 52 -52 21 21 -52 52zm0 0l0 0 0 0 0 0zm-31 1l0 0 0 -1 0 0 0 -1 0 -1 0 -1 0 -1 0 -1 1 -1 0 -1 0 -1 0 -1 1 0 0 -1 0 -1 1 -1 0 0 1 -1 0 -1 0 -1 1 0 0 -1 1 0 0 -1 1 0 0 -1 0 0 1 -1 0 0 1 -1 0 0 0 0 1 -1 21 21 0 1 0 0 -1 0 0 0 0 1 0 0 0 0 0 0 -1 0 0 0 0 0 0 0 0 0 0 0 0 0 0 0 0 0 0 0 1 0 0 0 0 0 0 0 0 -1 0 0 0 0 0 0 0 0 0 0 0 0 0 0 0 0 0 0 0 0 -30 0zm30 0l0 0 0 0 0 0zm-20 22l0 0 0 0 -1 -1 0 0 0 0 -1 -1 0 0 0 0 -1 -1 0 0 -1 -1 0 0 -1 -1 0 -1 0 0 -1 -1 0 0 -1 -1 0 -1 0 -1 -1 -1 0 0 -1 -1 0 -1 0 -1 0 -1 -1 -1 0 -1 0 -1 0 -1 0 -1 0 -1 0 -1 30 0 0 0 0 0 0 0 0 0 0 0 0 0 0 0 0 0 0 0 0 0 0 -1 0 0 0 0 0 0 -1 0 0 0 0 0 0 0 0 0 0 0 0 0 0 0 1 0 0 0 0 0 0 0 0 1 0 0 0 0 1 0 0 0 0 1 0 0 -21 21zm21 -21l0 0 0 0 0 0zm52 52l-21 21 -52 -52 21 -21 52 52zm0 0l0 0 1 1 0 1 1 0 0 1 1 0 0 1 0 1 0 0 1 1 0 1 0 1 0 0 0 1 0 1 0 0 0 1 0 1 0 1 0 0 0 1 0 1 -1 0 0 1 0 1 0 0 -1 1 0 1 -1 0 0 1 -1 0 0 1 -1 1 0 0 -1 1 0 0 -1 0 -1 1 0 0 -1 0 -1 1 0 0 -1 0 -1 0 -1 0 0 0 -1 0 -1 0 0 0 -1 0 -1 0 -1 0 0 0 -1 0 -1 0 0 -1 -1 0 -1 0 0 -1 -1 0 -1 -1 0 0 -1 0 0 -1 21 -21z"/>
  </g>
  <line class="fil1 str0" x1="450" y1="250" x2="50" y2= "250" />
 </g>
</svg>
