<?xml version="1.0" encoding="UTF-8"?>
<!DOCTYPE svg PUBLIC "-//W3C//DTD SVG 1.1//EN" "http://www.w3.org/Graphics/SVG/1.1/DTD/svg11.dtd">

<svg xmlns="http://www.w3.org/2000/svg" xml:space="preserve" width="100%" height="100%" version="1.1" style="shape-rendering:geometricPrecision; text-rendering:geometricPrecision; image-rendering:optimizeQuality; fill-rule:evenodd; clip-rule:evenodd"
viewBox="0 0 5000 5000"
 xmlns:xlink="http://www.w3.org/1999/xlink">
 <defs>
  <style type="text/css">
   <![CDATA[
    .fil0 {fill:#FFFFFF}
   ]]>
  </style>
 </defs>
 <g id="Layer_x0020_1">
  <metadata id="CorelCorpID_0Corel-Layer"/>
  <path class="fil0" d="M1977 1960l0 2039c0,330 -357,646 -796,705 -440,59 -797,-161 -797,-491 0,-329 357,-645 797,-704 198,-27 379,3 519,75 0,-705 0,-1410 0,-2115 0,-112 96,-235 214,-273l2572 -835c118,-38 214,23 214,135 0,868 0,1736 0,2603 0,330 -357,646 -797,705 -439,59 -796,-161 -796,-491 0,-329 357,-645 796,-704 199,-27 380,3 520,75l0 -1517 -2446 793z"/>
 </g>
</svg>
