<?xml version="1.0" encoding="UTF-8"?>
<!DOCTYPE svg PUBLIC "-//W3C//DTD SVG 1.1//EN" "http://www.w3.org/Graphics/SVG/1.1/DTD/svg11.dtd">
<!-- Creator: CorelDRAW X6 -->
<svg xmlns="http://www.w3.org/2000/svg" xml:space="preserve" width="100%" height="100%" version="1.1" style="shape-rendering:geometricPrecision; text-rendering:geometricPrecision; image-rendering:optimizeQuality; fill-rule:evenodd; clip-rule:evenodd"
viewBox="0 0 500 500"
 xmlns:xlink="http://www.w3.org/1999/xlink">
 <defs>
  <style type="text/css">
   <![CDATA[
    .str2 {stroke:#434242;stroke-width:5}
    .str1 {stroke:#434242;stroke-width:10;stroke-linejoin:round}
    .str0 {stroke:#434242;stroke-width:15;stroke-linejoin:round}
    .fil0 {fill:none}
   ]]>
  </style>
 </defs>
 <g id="Layer_x0020_1">
  <metadata id="CorelCorpID_0Corel-Layer"/>
  <path class="fil0 str0" d="M340 40l-240 0c-6,0 -10,4 -10,10l0 400c0,6 4,10 10,10l300 0c6,0 10,-4 10,-10l0 -340 -70 -70z"/>
  <path class="fil0 str1" d="M340 40l0 60c0,5 5,10 10,10l60 0 -70 -70z"/>
  <path class="fil0 str2" d="M395 260l-290 0m290 -40l-290 0m290 -40l-290 0m290 -40l-290 0m230 -40l-230 0m290 320l-290 0m290 -40l-290 0m290 -40l-290 0m290 -40l-290 0m290 -60l-290 0m290 -40l-290 0m290 -40l-290 0m290 -40l-290 0m230 -40l-230 0m290 320l-290 0m290 -40l-290 0m290 -40l-290 0m290 -40l-290 0m45 -235l0 410"/>
 </g>
</svg>
