<?xml version="1.0" encoding="UTF-8"?>
<!DOCTYPE svg PUBLIC "-//W3C//DTD SVG 1.1//EN" "http://www.w3.org/Graphics/SVG/1.1/DTD/svg11.dtd">

<svg xmlns="http://www.w3.org/2000/svg" xml:space="preserve" width="100%" height="100%" version="1.1" style="shape-rendering:geometricPrecision; text-rendering:geometricPrecision; image-rendering:optimizeQuality; fill-rule:evenodd; clip-rule:evenodd"
viewBox="0 0 500 500"
 xmlns:xlink="http://www.w3.org/1999/xlink">
 <defs>
  <style type="text/css">
   <![CDATA[
    .fil0 {fill:#434242}
   ]]>
  </style>
 </defs>
 <g id="Layer_x0020_1">
  <metadata id="CorelCorpID_0Corel-Layer"/>
  <path class="fil0" d="M250 30c11,0 20,9 20,20l0 165c0,11 -9,20 -20,20 -11,0 -20,-9 -20,-20l0 -165c0,-11 9,-20 20,-20z"/>
  <path class="fil0" d="M324 79c76,29 131,104 131,191 0,113 -92,205 -205,205 -113,0 -205,-92 -205,-205 0,-87 55,-162 131,-191 4,-2 7,-1 10,1 2,2 4,5 4,8l0 27c0,4 -2,7 -6,9 -55,25 -94,81 -94,146 0,88 72,160 160,160 88,0 160,-72 160,-160 0,-65 -39,-121 -94,-146 -4,-2 -6,-5 -6,-9l0 -27c0,-3 2,-6 4,-8 3,-2 6,-3 10,-1z"/>
 </g>
</svg>
