<?xml version="1.0" encoding="UTF-8"?>
<!DOCTYPE svg PUBLIC "-//W3C//DTD SVG 1.1//EN" "http://www.w3.org/Graphics/SVG/1.1/DTD/svg11.dtd">
<!-- Creator: CorelDRAW X6 -->
<svg xmlns="http://www.w3.org/2000/svg" xml:space="preserve" width="100%" height="100%" version="1.1" style="shape-rendering:geometricPrecision; text-rendering:geometricPrecision; image-rendering:optimizeQuality; fill-rule:evenodd; clip-rule:evenodd"
viewBox="0 0 500 500"
 xmlns:xlink="http://www.w3.org/1999/xlink">
 <defs>
  <style type="text/css">
   <![CDATA[
    .str0 {stroke:#5B5B5B;stroke-width:5}
    .fil3 {fill:none}
    .fil1 {fill:whitesmoke}
    .fil0 {fill:white}
    .fil2 {fill:#5B5B5B;fill-rule:nonzero}
   ]]>
  </style>
 </defs>
 <g id="Layer_x0020_1">
  <metadata id="CorelCorpID_0Corel-Layer"/>
  <path class="fil0" d="M50 20l30 400 170 60 170 -60 30 -400 -400 0zm272 235c-19,37 -57,60 -98,60 -61,0 -110,-49 -110,-110 0,-61 49,-110 110,-110 41,0 79,23 98,60l66 0c0,33 0,67 0,100l-66 0zm-49 -100c-13,-13 -31,-20 -49,-20 -39,0 -70,31 -70,70 0,39 31,70 70,70 18,0 36,-7 49,-20l-45 0c-28,0 -50,-22 -50,-50 0,-28 22,-50 50,-50l45 0zm75 40l-120 0c-6,0 -10,5 -10,10 0,5 4,10 10,10l120 0 0 -20z"/>
  <path class="fil1" d="M250 434l136 -48 24 -320 -160 0 0 32c31,8 57,28 72,57l66 0c0,33 0,67 0,100l-66 0c-15,29 -41,49 -72,57l0 122zm0 -294l0 15 23 0c-7,-6 -15,-11 -23,-15zm0 55l0 20 98 0 0 -20 -98 0zm0 60l0 15c8,-3 16,-9 23,-15l-23 0z"/>
  <path class="fil2" d="M322 255c-19,37 -57,60 -98,60 -61,0 -110,-49 -110,-110 0,-61 49,-110 110,-110 41,0 79,23 98,60l66 0c0,33 0,67 0,100l-66 0zm-49 -100c-13,-13 -31,-20 -49,-20 -39,0 -70,31 -70,70 0,39 31,70 70,70 18,0 36,-7 49,-20l-45 0c-28,0 -50,-22 -50,-50 0,-28 22,-50 50,-50l45 0zm75 40l-120 0c-6,0 -10,5 -10,10 0,5 4,10 10,10l120 0 0 -20z"/>
  <polygon class="fil3 str0" points="50,20 80,420 250,480 420,420 450,20 "/>
 </g>
</svg>
