<?xml version="1.0" encoding="UTF-8"?>
<!DOCTYPE svg PUBLIC "-//W3C//DTD SVG 1.1//EN" "http://www.w3.org/Graphics/SVG/1.1/DTD/svg11.dtd">
<!-- Creator: CorelDRAW X6 -->
<svg xmlns="http://www.w3.org/2000/svg" xml:space="preserve" width="100%" height="100%" version="1.1" style="shape-rendering:geometricPrecision; text-rendering:geometricPrecision; image-rendering:optimizeQuality; fill-rule:evenodd; clip-rule:evenodd"
viewBox="0 0 500 500"
 xmlns:xlink="http://www.w3.org/1999/xlink">
 <defs>
  <style type="text/css">
   <![CDATA[
    .str1 {stroke:#434242;stroke-width:5}
    .str0 {stroke:#434242;stroke-width:10;stroke-linejoin:round}
    .fil4 {fill:none;fill-rule:nonzero}
    .fil2 {fill:#EDEDED;fill-rule:nonzero}
    .fil3 {fill:white;fill-rule:nonzero}
    .fil1 {fill:url(#id0)}
    .fil0 {fill:url(#id1)}
   ]]>
  </style>
  <linearGradient id="id0" gradientUnits="userSpaceOnUse" x1="329.998" y1="434.002" x2="329.998" y2="65.998">
   <stop offset="0" style="stop-color:#4EAFFF"/>
   <stop offset="1" style="stop-color:#279DFF"/>
  </linearGradient>
  <linearGradient id="id1" gradientUnits="userSpaceOnUse" x1="249.998" y1="20.001" x2="249.998" y2="479.999">
   <stop offset="0" style="stop-color:#008BFF"/>
   <stop offset="1" style="stop-color:#00AAFF"/>
  </linearGradient>
 </defs>
 <g id="Layer_x0020_1">
  <metadata id="CorelCorpID_0Corel-Layer"/>
  <polygon class="fil0 str0" points="50,20 80,420 250,480 420,420 450,20 "/>
  <polygon class="fil1" points="250,434 386,386 410,66 250,66 "/>
  <path class="fil2" d="M250 312c-9,2 -17,3 -26,3 -61,0 -110,-49 -110,-110 0,-61 49,-110 110,-110 9,0 17,1 26,3l0 42c-8,-3 -17,-5 -26,-5 -39,0 -70,31 -70,70 0,39 31,70 70,70 9,0 18,-2 26,-5l0 42zm0 -57l-22 0c-28,0 -50,-22 -50,-50 0,-28 22,-50 50,-50l22 0 0 40 -22 0c-6,0 -10,5 -10,10 0,5 4,10 10,10l22 0 0 40z"/>
  <path class="fil3" d="M322 255c-15,29 -41,49 -72,57l0 -42c8,-3 16,-9 23,-15l-23 0 0 -40 98 0 0 -20 -98 0 0 -40 23 0c-7,-6 -15,-11 -23,-15l0 -42c31,8 57,28 72,57l66 0c0,33 0,67 0,100l-66 0z"/>
  <path class="fil4 str1" d="M322 255c-19,37 -57,60 -98,60 -61,0 -110,-49 -110,-110 0,-61 49,-110 110,-110 41,0 79,23 98,60l66 0c0,33 0,67 0,100l-66 0zm-49 -100c-13,-13 -31,-20 -49,-20 -39,0 -70,31 -70,70 0,39 31,70 70,70 18,0 36,-7 49,-20l-45 0c-28,0 -50,-22 -50,-50 0,-28 22,-50 50,-50l45 0zm75 40l-120 0c-6,0 -10,5 -10,10 0,5 4,10 10,10l120 0 0 -20z"/>
 </g>
</svg>
