<?xml version="1.0" encoding="UTF-8"?>
<!DOCTYPE svg PUBLIC "-//W3C//DTD SVG 1.1//EN" "http://www.w3.org/Graphics/SVG/1.1/DTD/svg11.dtd">
<!-- Creator: CorelDRAW X6 -->
<svg xmlns="http://www.w3.org/2000/svg" xml:space="preserve" width="100%" height="100%" version="1.1" style="shape-rendering:geometricPrecision; text-rendering:geometricPrecision; image-rendering:optimizeQuality; fill-rule:evenodd; clip-rule:evenodd"
viewBox="0 0 500 500"
 xmlns:xlink="http://www.w3.org/1999/xlink">
 <defs>
  <style type="text/css">
   <![CDATA[
    .fil0 {fill:#434242}
   ]]>
  </style>
 </defs>
 <g id="Layer_x0020_1">
  <metadata id="CorelCorpID_0Corel-Layer"/>
  <path class="fil0" d="M50 20l30 400 170 60 170 -60 30 -400 -400 0zm272 235c-19,37 -57,60 -98,60 -61,0 -110,-49 -110,-110 0,-61 49,-110 110,-110 41,0 79,23 98,60l66 0c0,33 0,67 0,100l-66 0zm-49 -100c-13,-13 -31,-20 -49,-20 -39,0 -70,31 -70,70 0,39 31,70 70,70 18,0 36,-7 49,-20l-45 0c-28,0 -50,-22 -50,-50 0,-28 22,-50 50,-50l45 0zm75 40l-120 0c-6,0 -10,5 -10,10 0,5 4,10 10,10l120 0 0 -20z"/>
 </g>
</svg>
