<?xml version="1.0" encoding="UTF-8"?>
<!DOCTYPE svg PUBLIC "-//W3C//DTD SVG 1.1//EN" "http://www.w3.org/Graphics/SVG/1.1/DTD/svg11.dtd">
<!-- Creator: CorelDRAW X6 -->
<svg xmlns="http://www.w3.org/2000/svg" xml:space="preserve" width="100%" height="100%" version="1.1" shape-rendering="geometricPrecision" text-rendering="geometricPrecision" image-rendering="optimizeQuality" fill-rule="evenodd" clip-rule="evenodd"
viewBox="0 0 500 500"
 xmlns:xlink="http://www.w3.org/1999/xlink">
 <g id="Layer_x0020_1">
  <metadata id="CorelCorpID_0Corel-Layer"/>
  <path fill="#434242" d="M323 106c85,20 147,75 147,139 0,71 -75,130 -175,143l0 40c0,8 -8,16 -16,16 -9,0 -13,-4 -17,-8l-49 -49c-11,-11 -11,-22 0,-33l49 -49c4,-4 8,-8 17,-8 8,0 16,8 16,16l0 33c77,-14 133,-61 133,-117 0,-50 -45,-93 -109,-111l4 -12zm-39 -13l-32 -32c-2,-2 -5,-5 -10,-5 -5,0 -11,5 -11,11l0 32c-112,6 -201,69 -201,146 0,62 58,115 139,136l13 -41c-65,-18 -110,-61 -110,-111 0,-62 70,-113 159,-120l0 31c0,5 6,10 11,10 5,0 8,-2 10,-5l32 -31c7,-7 7,-14 0,-21z"/>
 </g>
</svg>
