<?xml version="1.0" encoding="UTF-8"?>
<!DOCTYPE svg PUBLIC "-//W3C//DTD SVG 1.1//EN" "http://www.w3.org/Graphics/SVG/1.1/DTD/svg11.dtd">
<!-- Creator: CorelDRAW X6 -->
<svg xmlns="http://www.w3.org/2000/svg" xml:space="preserve" width="100%" height="100%" version="1.1" shape-rendering="geometricPrecision" text-rendering="geometricPrecision" image-rendering="optimizeQuality" fill-rule="evenodd" clip-rule="evenodd"
viewBox="0 0 500 500"
 xmlns:xlink="http://www.w3.org/1999/xlink">
 <g id="Layer_x0020_1">
  <metadata id="CorelCorpID_0Corel-Layer"/>
  <path fill="#434242" d="M323 105c85,20 147,74 147,138 0,81 -98,147 -220,147 -6,0 -12,0 -19,-1l14 -41c1,0 3,0 5,0 98,0 178,-54 178,-120 0,-50 -45,-93 -109,-111l4 -12z"/>
  <path fill="#434242" d="M250 100c3,0 6,0 9,0l-3 10c-2,0 -4,0 -6,0 -98,0 -178,54 -178,120 0,50 45,93 110,111l-13 40c-81,-21 -139,-74 -139,-135 0,-81 99,-146 220,-146z"/>
  <path fill="none" stroke="#434242" stroke-width="20" stroke-linecap="round" d="M229 65l31 30c7,7 6,13 0,20l-30 31"/>
  <path fill="none" stroke="#434242" stroke-width="40" stroke-linecap="round" d="M280 435l-51 -49c-12,-11 -10,-22 0,-34l50 -50"/>
 </g>
</svg>
