<?xml version="1.0" encoding="UTF-8"?>
<!DOCTYPE svg PUBLIC "-//W3C//DTD SVG 1.1//EN" "http://www.w3.org/Graphics/SVG/1.1/DTD/svg11.dtd">
<!-- Creator: CorelDRAW X6 -->
<svg xmlns="http://www.w3.org/2000/svg" xml:space="preserve" width="100%" height="100%" version="1.1" style="shape-rendering:geometricPrecision; text-rendering:geometricPrecision; image-rendering:optimizeQuality; fill-rule:evenodd; clip-rule:evenodd"
viewBox="0 0 495 500"
 xmlns:xlink="http://www.w3.org/1999/xlink">
 <defs>
  <style type="text/css">
   <![CDATA[
    .fil1 {fill:none}
    .fil0 {fill:#434242}
   ]]>
  </style>
 </defs>
 <g id="Layer_x0020_1">
  <metadata id="CorelCorpID_0Corel-Layer"/>
  <path class="fil0" d="M60 101c-10,-17 4,-32 22,-21 54,46 107,89 156,136 47,-49 98,-95 151,-136l28 29c-40,54 -86,105 -135,152 24,26 46,54 66,86 3,3 5,7 3,9l0 0c85,0 39,46 74,74 0,1 -44,20 -73,-10 -8,-9 -18,-31 -16,-50 -2,2 -5,0 -9,-2 -21,-14 -41,-29 -62,-46 -8,-8 -17,-15 -25,-23 -13,11 -25,22 -38,32 -17,10 -32,26 -43,41 -2,3 -5,3 -8,1l-26 -27c-2,-2 -2,-5 1,-7 15,-11 31,-26 41,-43 10,-12 20,-25 31,-37 -49,-49 -94,-101 -138,-158zm1 334l22 -53c1,-2 2,-4 5,-6l33 -20 21 21 -20 33c-2,3 -4,4 -6,5l-53 22c0,1 0,2 -1,2 -1,1 -2,1 -3,0 -1,-1 -1,-2 0,-3 0,-1 1,-1 2,-1zm45 -43c2,2 2,5 0,7 -1,1 -3,1 -5,1l-37 34 34 -37c0,-2 0,-4 1,-5 2,-2 5,-2 7,0zm307 -331c11,6 18,14 24,24 1,1 2,3 0,4l-13 14 -29 -29 14 -13c1,-1 3,-1 4,0zm-119 231c11,12 38,43 46,55 2,2 3,4 2,6 -3,2 -6,5 -9,8 -1,1 -3,0 -5,-1 -13,-8 -43,-36 -56,-46l22 -22zm90 127c-15,-13 -5,-23 -33,-32 3,22 18,29 33,32z"/>
  <line class="fil1" x1="293" y1="315" x2="312" y2= "295" />
 </g>
</svg>
