<?xml version="1.0" encoding="UTF-8"?>
<!DOCTYPE svg PUBLIC "-//W3C//DTD SVG 1.1//EN" "http://www.w3.org/Graphics/SVG/1.1/DTD/svg11.dtd">
<!-- Creator: CorelDRAW X6 -->
<svg xmlns="http://www.w3.org/2000/svg" xml:space="preserve" width="100%" height="100%" version="1.1" style="shape-rendering:geometricPrecision; text-rendering:geometricPrecision; image-rendering:optimizeQuality; fill-rule:evenodd; clip-rule:evenodd"
viewBox="0 0 495 500"
 xmlns:xlink="http://www.w3.org/1999/xlink">
 <defs>
  <style type="text/css">
   <![CDATA[
    .str1 {stroke:#5B5B5B;stroke-width:5}
    .str0 {stroke:#FEFEFE;stroke-width:5}
    .fil2 {fill:none}
    .fil1 {fill:#5B5B5B}
    .fil0 {fill:#FEFEFE}
   ]]>
  </style>
 </defs>
 <g id="Layer_x0020_1">
  <metadata id="CorelCorpID_0Corel-Layer"/>
  <path class="fil0" d="M420 51c10,6 18,14 24,24 1,1 1,3 0,4l-13 14 -29 -28 14 -14c1,-1 3,-1 4,0zm-353 40c-10,-17 4,-31 22,-21 54,46 107,89 156,136 47,-49 98,-95 151,-136l28 29c-40,54 -86,105 -135,152 24,26 46,55 66,86 3,3 5,7 2,9l0 0c86,0 40,46 75,74 0,1 -44,20 -73,-10 -8,-9 -18,-31 -16,-50 -2,2 -5,0 -9,-2 -21,-14 -41,-29 -62,-46 -9,-8 -17,-15 -25,-23 -13,11 -25,22 -38,33 -17,9 -33,25 -43,40 -2,3 -5,3 -8,1l-26 -26c-2,-3 -2,-6 1,-8 15,-11 31,-26 40,-43 11,-12 21,-25 32,-37 -49,-49 -94,-101 -138,-158zm1 334l22 -53c1,-2 2,-4 5,-6l33 -20 21 21 -20 33c-2,3 -4,4 -6,5l-53 22c0,1 0,2 -1,2 -1,1 -2,1 -3,0 -1,-1 -1,-2 0,-3 0,-1 1,-1 2,-1zm323 -16c-15,-13 -5,-23 -33,-32 3,22 17,29 33,32zm-90 -127c11,12 38,43 46,55 2,2 3,4 2,6 -3,2 -6,5 -9,8 -1,1 -3,0 -5,-1 -13,-8 -43,-36 -56,-46l22 -22zm-188 100c2,2 2,5 0,7 -1,1 -3,2 -5,1l-37 34 34 -37c0,-2 0,-4 1,-5 2,-2 5,-2 7,0z"/>
  <path class="fil1" d="M113 382c2,2 2,5 0,7 -1,1 -3,2 -5,1l-37 34 34 -37c0,-2 0,-4 1,-5 2,-2 5,-2 7,0zm188 -100c11,12 38,43 46,55 2,2 3,4 2,6 -3,2 -6,5 -9,8 -1,1 -3,0 -5,-1 -13,-8 -43,-36 -56,-46l22 -22zm90 127c-15,-13 -5,-23 -33,-32 3,22 17,29 33,32z"/>
  <line class="fil2 str0" x1="292" y1="316" x2="313" y2= "294" />
  <path class="fil1" d="M131 336l28 28 -3 3c-2,2 -5,2 -7,0l-22 -21c-1,-2 -1,-5 0,-7l4 -3z"/>
  <path class="fil2 str1" d="M343 360l14 -14m-152 -97l40 -43m2 83l42 -38m-222 -160c-10,-17 4,-31 22,-21 54,46 107,89 156,136 47,-49 98,-95 151,-136l28 29c-40,54 -86,105 -135,152 24,26 46,55 66,86 3,3 5,7 2,9l0 0c86,0 40,46 75,74 0,1 -44,20 -73,-10 -8,-9 -18,-31 -16,-50 -2,2 -5,0 -9,-2 -21,-14 -41,-29 -62,-46 -9,-8 -17,-15 -25,-23 -13,11 -25,22 -38,33 -17,9 -33,25 -43,40 -2,3 -5,3 -8,1l-26 -26c-2,-3 -2,-6 1,-8 15,-11 31,-26 40,-43 11,-12 21,-25 32,-37 -49,-49 -94,-101 -138,-158zm1 334l22 -53c1,-2 2,-4 5,-6l33 -20 21 21 -20 33c-2,3 -4,4 -6,5l-53 22c0,1 0,2 -1,2 -1,1 -2,1 -3,0 -1,-1 -1,-2 0,-3 0,-1 1,-1 2,-1zm352 -374c10,6 18,14 24,24 1,1 1,3 0,4l-13 14 -29 -28 14 -14c1,-1 3,-1 4,0z"/>
 </g>
</svg>
