<?xml version="1.0" encoding="UTF-8"?>
<!DOCTYPE svg PUBLIC "-//W3C//DTD SVG 1.1//EN" "http://www.w3.org/Graphics/SVG/1.1/DTD/svg11.dtd">
<!-- Creator: CorelDRAW X6 -->
<svg xmlns="http://www.w3.org/2000/svg" xml:space="preserve" width="100%" height="100%" version="1.1" style="shape-rendering:geometricPrecision; text-rendering:geometricPrecision; image-rendering:optimizeQuality; fill-rule:evenodd; clip-rule:evenodd"
viewBox="0 0 495 500"
 xmlns:xlink="http://www.w3.org/1999/xlink">
 <defs>
  <style type="text/css">
   <![CDATA[
    .str2 {stroke:#434242;stroke-width:5;stroke-linejoin:round}
    .str1 {stroke:#434242;stroke-width:7.5;stroke-linejoin:round}
    .str0 {stroke:#434242;stroke-width:15;stroke-linejoin:round}
    .fil0 {fill:none}
   ]]>
  </style>
 </defs>
 <g id="Layer_x0020_1">
  <metadata id="CorelCorpID_0Corel-Layer"/>
  <path class="fil0 str0" d="M68 93c-10,-17 4,-32 21,-21 52,40 107,85 157,135 -14,15 -28,30 -41,45 -51,-51 -97,-106 -137,-159zm221 160c25,27 48,56 67,86 2,3 4,7 2,9 -5,5 -9,9 -14,14 -2,2 -6,0 -9,-2 -30,-20 -60,-43 -88,-68 14,-13 28,-26 42,-39zm-157 85c-3,-3 -1,-5 1,-7 16,-11 31,-27 41,-43 65,-80 141,-153 223,-216l14 -13c1,-1 2,-1 4,0 10,6 18,14 24,24 1,1 1,3 0,4l-14 14c-61,82 -137,158 -216,222 -16,10 -32,26 -42,41 -2,3 -5,4 -7,2l-4 3c-2,2 -5,2 -7,0l-21 -21c-2,-2 -2,-5 0,-7l4 -3z"/>
  <path class="fil0 str1" d="M69 427l21 -53c1,-2 3,-4 5,-6l33 -20 21 21 -20 33c-1,3 -3,4 -6,5l-53 22c1,1 0,2 0,2 -1,1 -3,1 -4,0 -1,-1 -1,-2 0,-3 1,-1 2,-1 3,-1zm215 -105l34 -35m26 75c-2,19 8,41 16,50 28,30 73,11 73,10 -36,-28 10,-74 -75,-74l-14 14z"/>
  <path class="fil0 str2" d="M391 411c-14,-13 -4,-23 -32,-32 3,22 17,29 32,32zm-277 -27c2,2 2,5 0,7 -1,1 -3,1 -5,1l-30 27 -1 0 28 -30c-1,-2 0,-4 1,-5 2,-2 5,-2 7,0z"/>
 </g>
</svg>
