<?xml version="1.0" encoding="UTF-8"?>
<!DOCTYPE svg PUBLIC "-//W3C//DTD SVG 1.1//EN" "http://www.w3.org/Graphics/SVG/1.1/DTD/svg11.dtd">
<!-- Creator: CorelDRAW X6 -->
<svg xmlns="http://www.w3.org/2000/svg" xml:space="preserve" width="100%" height="100%" version="1.1" style="shape-rendering:geometricPrecision; text-rendering:geometricPrecision; image-rendering:optimizeQuality; fill-rule:evenodd; clip-rule:evenodd"
viewBox="0 0 500 500"
 xmlns:xlink="http://www.w3.org/1999/xlink">
 <defs>
  <style type="text/css">
   <![CDATA[
    .str0 {stroke:#5B5B5B;stroke-width:5;stroke-linejoin:round}
    .fil1 {fill:none}
    .fil2 {fill:#5B5B5B}
    .fil0 {fill:#FEFEFE}
   ]]>
  </style>
 </defs>
 <g id="Layer_x0020_1">
  <metadata id="CorelCorpID_0Corel-Layer"/>
  <path class="fil0" d="M250 43c47,0 85,38 85,85 0,45 13,64 35,95 22,30 35,70 40,111 10,79 -20,59 -40,29 0,30 0,55 -20,80l-200 0c-20,-25 -20,-50 -20,-80 -20,30 -50,50 -40,-29 5,-41 18,-81 40,-111 22,-31 35,-50 35,-95 0,-47 38,-85 85,-85zm0 145c-7,0 -27,-18 -30,-37 -9,-3 -13,-11 -15,-22 -2,-15 2,-29 12,-39 9,-8 16,-6 24,-3 8,3 10,3 18,0 8,-3 15,-5 24,3 10,10 14,24 12,39 -2,10 -6,19 -15,22 -3,19 -23,37 -30,37zm-29 -45c3,-9 16,-10 29,-10 13,0 26,1 29,10 5,-3 7,-8 8,-16 2,-12 -1,-23 -10,-32 -5,-5 -10,-3 -16,-1 -9,3 -13,3 -22,0 -6,-2 -11,-4 -16,1 -9,9 -12,20 -10,32 1,8 3,13 8,16zm29 39c-5,0 -20,-16 -20,-32 0,-11 10,-12 20,-12 10,0 20,1 20,12 0,16 -15,32 -20,32zm-15 -79c6,0 10,4 10,10 0,5 -4,10 -10,10 -6,0 -10,-5 -10,-10 0,-6 4,-10 10,-10zm30 0c6,0 10,4 10,10 0,5 -4,10 -10,10 -6,0 -10,-5 -10,-10 0,-6 4,-10 10,-10zm52 64c-13,23 -38,39 -67,39 -29,0 -54,-15 -67,-39 -6,40 -18,69 -28,106 -19,75 -9,120 10,160l170 0c19,-40 29,-85 10,-160 -10,-37 -22,-66 -28,-106z"/>
  <path class="fil1" d="M225 149l-5 -1c-10,-5 -20,-35 0,-55 10,-10 20,0 30,0 10,0 20,-10 30,0 20,20 10,50 0,55l-5 0"/>
  <path class="fil2" d="M250 188c-7,0 -27,-18 -30,-37 -9,-3 -13,-11 -15,-22 -2,-15 2,-29 12,-39 9,-8 16,-6 24,-3 8,3 10,3 18,0 8,-3 15,-5 24,3 10,10 14,24 12,39 -2,10 -6,19 -15,22 -3,19 -23,37 -30,37zm-29 -45c3,-9 16,-10 29,-10 13,0 26,1 29,10 5,-3 7,-8 8,-16 2,-12 -1,-23 -10,-32 -5,-5 -10,-3 -16,-1 -9,3 -13,3 -22,0 -6,-2 -11,-4 -16,1 -9,9 -12,20 -10,32 1,8 3,13 8,16zm29 39c-5,0 -20,-16 -20,-32 0,-11 10,-12 20,-12 10,0 20,1 20,12 0,16 -15,32 -20,32zm-15 -79c6,0 10,4 10,10 0,5 -4,10 -10,10 -6,0 -10,-5 -10,-10 0,-6 4,-10 10,-10zm30 0c6,0 10,4 10,10 0,5 -4,10 -10,10 -6,0 -10,-5 -10,-10 0,-6 4,-10 10,-10zm52 64c6,39 18,69 28,106 19,75 9,120 -10,160l-170 0c-19,-40 -29,-85 -10,-160 10,-37 23,-67 28,-106 13,23 38,39 67,39 29,0 54,-16 67,-39z"/>
  <path class="fil1 str0" d="M250 43c47,0 85,38 85,85 0,45 13,64 35,95 22,30 35,70 40,111 10,79 -20,59 -40,29 0,30 0,55 -20,80l-200 0c-20,-25 -20,-50 -20,-80 -20,30 -50,50 -40,-29 5,-41 18,-81 40,-111 22,-31 35,-50 35,-95 0,-47 38,-85 85,-85z"/>
 </g>
</svg>
