<?xml version="1.0" encoding="UTF-8"?>
<!DOCTYPE svg PUBLIC "-//W3C//DTD SVG 1.1//EN" "http://www.w3.org/Graphics/SVG/1.1/DTD/svg11.dtd">
<!-- Creator: CorelDRAW X6 -->
<svg xmlns="http://www.w3.org/2000/svg" xml:space="preserve" width="100%" height="100%" version="1.1" style="shape-rendering:geometricPrecision; text-rendering:geometricPrecision; image-rendering:optimizeQuality; fill-rule:evenodd; clip-rule:evenodd"
viewBox="0 0 500 500"
 xmlns:xlink="http://www.w3.org/1999/xlink">
 <defs>
  <style type="text/css">
   <![CDATA[
    .str1 {stroke:#434242;stroke-width:5}
    .str2 {stroke:#434242;stroke-width:7.5}
    .str0 {stroke:#434242;stroke-width:10;stroke-linejoin:round}
    .fil2 {fill:none}
    .fil3 {fill:#434242}
    .fil4 {fill:#0076D8}
    .fil1 {fill:#EBEBEB}
    .fil0 {fill:url(#id0)}
   ]]>
  </style>
  <linearGradient id="id0" gradientUnits="userSpaceOnUse" x1="419.996" y1="242.808" x2="80" y2="242.808">
   <stop offset="0" style="stop-color:#008BFF"/>
   <stop offset="1" style="stop-color:#00AAFF"/>
  </linearGradient>
 </defs>
 <g id="Layer_x0020_1">
  <metadata id="CorelCorpID_0Corel-Layer"/>
  <path class="fil0 str0" d="M250 43c47,0 85,38 85,85 0,45 13,64 35,95 22,30 35,70 40,111 10,79 -20,59 -40,29 0,30 0,55 -20,80l-200 0c-20,-25 -20,-50 -20,-80 -20,30 -50,50 -40,-29 5,-41 18,-81 40,-111 22,-31 35,-50 35,-95 0,-47 38,-85 85,-85z"/>
  <path class="fil1 str1" d="M250 63c36,0 65,29 65,65 0,1 0,1 0,2l0 0c0,60 18,95 30,143 19,75 9,120 -10,160l-170 0c-19,-40 -29,-85 -10,-160 12,-48 30,-82 30,-142l0 0c0,-1 0,-2 0,-3 0,-36 29,-65 65,-65z"/>
  <path class="fil2 str2" d="M225 149l-5 -1c-10,-5 -20,-35 0,-55 10,-10 20,0 30,0 10,0 20,-10 30,0 20,20 10,50 0,55l-5 0"/>
  <path class="fil3" d="M250 188c-8,0 -30,-20 -30,-40 0,-14 15,-15 30,-15 15,0 30,1 30,15 0,20 -23,40 -30,40zm0 -6c-5,0 -20,-16 -20,-32 0,-11 10,-12 20,-12 10,0 20,1 20,12 0,16 -15,32 -20,32zm-15 -79c6,0 10,4 10,10 0,5 -4,10 -10,10 -6,0 -10,-5 -10,-10 0,-6 4,-10 10,-10zm30 0c6,0 10,4 10,10 0,5 -4,10 -10,10 -6,0 -10,-5 -10,-10 0,-6 4,-10 10,-10z"/>
  <path class="fil4 str0" d="M205 420c23,0 40,12 40,20l0 10 -80 0 0 -10c0,-8 18,-20 40,-20zm90 0c23,0 40,12 40,20l0 10 -80 0 0 -10c0,-8 18,-20 40,-20z"/>
 </g>
</svg>
