<?xml version="1.0" encoding="UTF-8"?>
<!DOCTYPE svg PUBLIC "-//W3C//DTD SVG 1.1//EN" "http://www.w3.org/Graphics/SVG/1.1/DTD/svg11.dtd">
<!-- Creator: CorelDRAW X6 -->
<svg xmlns="http://www.w3.org/2000/svg" xml:space="preserve" width="100%" height="100%" version="1.1" style="shape-rendering:geometricPrecision; text-rendering:geometricPrecision; image-rendering:optimizeQuality; fill-rule:evenodd; clip-rule:evenodd"
viewBox="0 0 500 500"
 xmlns:xlink="http://www.w3.org/1999/xlink">
 <defs>
  <style type="text/css">
   <![CDATA[
    .str0 {stroke:#434242;stroke-width:7.5}
    .fil0 {fill:none}
    .fil1 {fill:#434242}
   ]]>
  </style>
 </defs>
 <g id="Layer_x0020_1">
  <metadata id="CorelCorpID_0Corel-Layer"/>
  <path class="fil0 str0" d="M225 149l-5 -1c-10,-5 -20,-35 0,-55 10,-10 20,0 30,0 10,0 20,-10 30,0 20,20 10,50 0,55l-5 0"/>
  <path class="fil1" d="M250 188c-8,0 -30,-20 -30,-40 0,-14 15,-15 30,-15 15,0 30,1 30,15 0,20 -23,40 -30,40zm45 232c17,0 30,6 36,13l4 0c19,-40 29,-85 10,-160 -12,-48 -30,-83 -30,-143l0 0c0,-1 0,-1 0,-2 0,-36 -29,-65 -65,-65 -36,0 -65,29 -65,65 0,1 0,2 0,3l0 0c0,60 -18,94 -30,142 -19,75 -9,120 10,160l4 0c6,-7 20,-13 36,-13 17,0 30,6 36,13l18 0c6,-7 20,-13 36,-13zm40 23l0 7 -80 0 0 -7 -10 0 0 7 -80 0 0 -7 -15 0c-20,-25 -20,-50 -20,-80 -20,30 -50,50 -40,-29 5,-41 18,-81 40,-111 22,-31 35,-50 35,-95 0,-47 38,-85 85,-85 47,0 85,38 85,85 0,45 13,64 35,95 22,30 35,70 40,111 10,79 -20,59 -40,29 0,30 0,55 -20,80l-15 0zm-85 -261c-5,0 -20,-16 -20,-32 0,-11 10,-12 20,-12 10,0 20,1 20,12 0,16 -15,32 -20,32zm-15 -79c6,0 10,4 10,10 0,5 -4,10 -10,10 -6,0 -10,-5 -10,-10 0,-6 4,-10 10,-10zm30 0c6,0 10,4 10,10 0,5 -4,10 -10,10 -6,0 -10,-5 -10,-10 0,-6 4,-10 10,-10z"/>
 </g>
</svg>
