<?xml version="1.0" encoding="UTF-8"?>
<!DOCTYPE svg PUBLIC "-//W3C//DTD SVG 1.1//EN" "http://www.w3.org/Graphics/SVG/1.1/DTD/svg11.dtd">
<!-- Creator: CorelDRAW X6 -->
<svg xmlns="http://www.w3.org/2000/svg" xml:space="preserve" width="100%" height="100%" version="1.1" style="shape-rendering:geometricPrecision; text-rendering:geometricPrecision; image-rendering:optimizeQuality; fill-rule:evenodd; clip-rule:evenodd"
viewBox="0 0 500 500"
 xmlns:xlink="http://www.w3.org/1999/xlink">
 <defs>
  <style type="text/css">
   <![CDATA[
    .str1 {stroke:#434242;stroke-width:5}
    .str2 {stroke:#434242;stroke-width:7.5}
    .str3 {stroke:#434242;stroke-width:10}
    .str0 {stroke:#434242;stroke-width:15;stroke-linejoin:round}
    .fil0 {fill:none}
   ]]>
  </style>
 </defs>
 <g id="Layer_x0020_1">
  <metadata id="CorelCorpID_0Corel-Layer"/>
  <path class="fil0 str0" d="M165 443l-15 0c-20,-25 -20,-50 -20,-80 -20,30 -50,50 -40,-29 5,-41 18,-81 40,-111 22,-31 35,-50 35,-95 0,-47 38,-85 85,-85 47,0 85,38 85,85 0,45 13,64 35,95 22,30 35,70 40,111 10,79 -20,59 -40,29 0,30 0,55 -20,80l-15 0m-79 0l-11 0"/>
  <path class="fil0 str1" d="M265 103c6,0 10,4 10,10 0,5 -4,10 -10,10 -6,0 -10,-5 -10,-10 0,-6 4,-10 10,-10z"/>
  <path class="fil0 str1" d="M235 103c6,0 10,4 10,10 0,5 -4,10 -10,10 -6,0 -10,-5 -10,-10 0,-6 4,-10 10,-10z"/>
  <path class="fil0 str2" d="M225 149l-5 -1c-10,-5 -20,-35 0,-55 10,-10 20,0 30,0 10,0 20,-10 30,0 20,20 10,50 0,55l-5 0"/>
  <path class="fil0 str3" d="M250 185c-7,0 -27,-18 -27,-36 0,-12 13,-14 27,-14 14,0 27,2 27,14 0,18 -20,36 -27,36zm-45 235c23,0 40,12 40,20l0 10 -80 0 0 -10c0,-8 18,-20 40,-20zm90 0c23,0 40,12 40,20l0 10 -80 0 0 -10c0,-8 18,-20 40,-20z"/>
  <path class="fil0 str1" d="M172 435c-16,-35 -22,-74 -6,-138 6,-26 15,-48 21,-74 0,-4 3,-6 6,-7 3,-1 6,0 9,2 12,12 29,20 48,20 19,0 36,-8 48,-20 3,-2 6,-3 9,-2 3,1 6,3 6,6 6,27 15,49 21,75 16,64 10,103 -6,138"/>
 </g>
</svg>
