<?xml version="1.0" encoding="UTF-8"?>
<!DOCTYPE svg PUBLIC "-//W3C//DTD SVG 1.1//EN" "http://www.w3.org/Graphics/SVG/1.1/DTD/svg11.dtd">
<!-- Creator: CorelDRAW X6 -->
<svg xmlns="http://www.w3.org/2000/svg" xml:space="preserve" width="100%" height="100%" version="1.1" shape-rendering="geometricPrecision" text-rendering="geometricPrecision" image-rendering="optimizeQuality" fill-rule="evenodd" clip-rule="evenodd"
viewBox="0 0 500 500"
 xmlns:xlink="http://www.w3.org/1999/xlink">
 <g id="Layer_x0020_1">
  <metadata id="CorelCorpID_0Corel-Layer"/>
  <path fill="#434242" d="M278 343c11,-5 20,-12 27,-23 33,27 57,59 81,92 -6,14 -31,29 -47,38 -15,9 -42,-4 -59,-12 -77,-37 -187,-227 -180,-312 2,-18 4,-49 19,-57 16,-9 41,-23 56,-22 17,38 33,75 40,117 -13,0 -24,4 -34,11 -31,30 56,181 97,168zm77 -45c-18,-1 -26,4 -39,12 33,27 57,59 81,92 7,-10 15,-26 14,-38 -3,-15 -42,-62 -56,-66zm-96 -168c-8,17 -17,22 -30,29 -7,-42 -23,-79 -39,-116 12,-1 30,0 39,6 12,11 33,68 30,81z"/>
 </g>
</svg>
