<?xml version="1.0" encoding="UTF-8"?>
<!DOCTYPE svg PUBLIC "-//W3C//DTD SVG 1.1//EN" "http://www.w3.org/Graphics/SVG/1.1/DTD/svg11.dtd">
<!-- Creator: CorelDRAW X6 -->
<svg xmlns="http://www.w3.org/2000/svg" xml:space="preserve" width="100%" height="100%" version="1.1" shape-rendering="geometricPrecision" text-rendering="geometricPrecision" image-rendering="optimizeQuality" fill-rule="evenodd" clip-rule="evenodd"
viewBox="0 0 500 500"
 xmlns:xlink="http://www.w3.org/1999/xlink">
 <defs>
   <linearGradient id="id0" gradientUnits="userSpaceOnUse" x1="249.658" y1="191.499" x2="249.658" y2="403.501">
    <stop offset="0" stop-color="#E5E5E6"/>
    <stop offset="1" stop-color="#CDCDCE"/>
   </linearGradient>
   <linearGradient id="id1" gradientUnits="userSpaceOnUse" x1="249.998" y1="204" x2="249.998" y2="53.348">
    <stop offset="0" stop-color="#E5E5E6"/>
    <stop offset="1" stop-color="#FCFCFD"/>
   </linearGradient>
 </defs>
 <g id="Layer_x0020_1">
  <metadata id="CorelCorpID_0Corel-Layer"/>
  <path fill="url(#id0)" stroke="#434242" stroke-width="10" d="M175 165l35 0c6,0 10,4 10,10l0 10c0,6 4,10 10,10l40 0c6,0 10,-4 10,-10l0 -10c0,-6 4,-10 10,-10l35 0c6,0 9,5 10,10l0 25c0,75 95,90 95,140l0 80c0,6 -4,10 -10,10 -50,0 -290,0 -340,0 -6,0 -11,-5 -10,-10l0 -80c0,-40 95,-65 95,-140l0 -25c1,-5 4,-10 10,-10z"/>
  <path fill="url(#id1)" stroke="#434242" stroke-width="10" d="M146 163c-2,6 -2,21 -2,26 -20,15 -100,15 -120,0 -10,-13 5,-40 12,-55 8,-15 13,-21 28,-31 71,-50 301,-50 372,0 15,10 20,16 28,31 7,15 22,42 12,55 -20,15 -100,15 -120,0 0,-5 0,-20 -2,-26 -10,-43 -198,-43 -208,0z"/>
  <path fill="#008BFF" stroke="#434242" stroke-width="10" d="M470 188c-37,8 -73,8 -108,0 -1,0 -3,0 -4,1 -1,1 -2,3 -2,4 0,13 1,25 9,37 1,1 2,2 3,2 33,6 65,6 96,0 1,0 2,-1 3,-2 8,-13 9,-25 9,-37 0,-1 -1,-3 -2,-4 -1,-1 -3,-1 -4,-1zm-332 0c-37,8 -73,8 -108,0 -1,0 -3,0 -4,1 -1,1 -2,3 -2,4 0,13 1,25 9,37 1,1 2,2 3,2 33,6 65,6 96,0 1,0 2,-1 3,-2 8,-13 9,-25 9,-37 0,-1 -1,-3 -2,-4 -1,-1 -3,-1 -4,-1z"/>
  <path fill="#434242" d="M250 233c48,0 87,39 87,87 0,48 -39,88 -87,88 -48,0 -87,-40 -87,-88 0,-48 39,-87 87,-87zm0 54c18,0 33,15 33,33 0,18 -15,33 -33,33 -18,0 -33,-15 -33,-33 0,-18 15,-33 33,-33z"/>
  <path fill="#FEFEFE" d="M189 285c3,-5 9,-6 14,-4 5,3 6,9 4,14 -3,5 -9,6 -14,4 -5,-3 -6,-9 -4,-14zm-9 35c0,-6 4,-10 10,-10 6,0 10,4 10,10 0,6 -4,10 -10,10 -6,0 -10,-4 -10,-10zm9 35c-2,-5 -1,-11 4,-14 5,-2 11,-1 14,4 2,5 1,11 -4,14 -5,2 -11,1 -14,-4zm61 35c-6,0 -10,-4 -10,-10 0,-6 4,-10 10,-10 6,0 10,4 10,10 0,6 -4,10 -10,10zm-35 -9c-5,-3 -6,-9 -4,-14 3,-5 9,-6 14,-4 5,3 6,9 4,14 -3,5 -9,6 -14,4zm70 0c-5,2 -11,1 -14,-4 -2,-5 -1,-11 4,-14 5,-2 11,-1 14,4 2,5 1,11 -4,14zm26 -26c-3,5 -9,6 -14,4 -5,-3 -6,-9 -4,-14 3,-5 9,-6 14,-4 5,3 6,9 4,14zm9 -35c0,6 -4,10 -10,10 -6,0 -10,-4 -10,-10 0,-6 4,-10 10,-10 6,0 10,4 10,10zm-9 -35c2,5 1,11 -4,14 -5,2 -11,1 -14,-4 -2,-5 -1,-11 4,-14 5,-2 11,-1 14,4zm-26 -26c5,3 6,9 4,14 -3,5 -9,6 -14,4 -5,-3 -6,-9 -4,-14 3,-5 9,-6 14,-4zm-35 -9c6,0 10,4 10,10 0,6 -4,10 -10,10 -6,0 -10,-4 -10,-10 0,-6 4,-10 10,-10zm-35 9c5,-2 11,-1 14,4 2,5 1,11 -4,14 -5,2 -11,1 -14,-4 -2,-5 -1,-11 4,-14zm35 16c25,0 45,20 45,45 0,25 -20,45 -45,45 -25,0 -45,-20 -45,-45 0,-25 20,-45 45,-45zm0 -30c41,0 75,34 75,75 0,41 -34,75 -75,75 -41,0 -75,-34 -75,-75 0,-41 34,-75 75,-75z"/>
 </g>
</svg>
