<?xml version="1.0" encoding="UTF-8"?>
<!DOCTYPE svg PUBLIC "-//W3C//DTD SVG 1.1//EN" "http://www.w3.org/Graphics/SVG/1.1/DTD/svg11.dtd">
<!-- Creator: CorelDRAW X6 -->
<svg xmlns="http://www.w3.org/2000/svg" xml:space="preserve" width="100%" height="100%" version="1.1" shape-rendering="geometricPrecision" text-rendering="geometricPrecision" image-rendering="optimizeQuality" fill-rule="evenodd" clip-rule="evenodd"
viewBox="0 0 500 500"
 xmlns:xlink="http://www.w3.org/1999/xlink">
 <g id="Layer_x0020_1">
  <metadata id="CorelCorpID_0Corel-Layer"/>
  <path fill="#FFFFFF" d="M152 167c-2,6 -2,21 -2,26 -20,15 -100,15 -120,0 -10,-13 5,-40 12,-55 8,-15 13,-21 28,-31 71,-50 289,-50 360,0 15,10 20,16 28,31 7,15 22,42 12,55 -20,15 -100,15 -120,0 0,-5 0,-20 -2,-26 -10,-43 -186,-43 -196,0zm-8 37c-37,8 -73,7 -108,0 -1,-1 -3,0 -4,1 -1,1 -2,2 -2,4 0,12 1,24 9,36 1,2 2,2 3,3 33,6 65,5 96,0 1,-1 2,-1 3,-3 8,-13 9,-24 9,-36 0,-2 -1,-3 -2,-4 -1,-1 -3,-2 -4,-1zm320 0c-37,8 -73,7 -108,0 -1,-1 -3,0 -4,1 -1,1 -2,2 -2,4 0,12 1,24 9,36 1,2 2,2 3,3 33,6 65,5 96,0 1,-1 2,-1 3,-3 8,-13 9,-24 9,-36 0,-2 -1,-3 -2,-4 -1,-1 -3,-2 -4,-1zm-289 -39l35 0c6,0 10,4 10,10l0 10c0,6 4,10 10,10l40 0c6,0 10,-4 10,-10l0 -10c0,-6 4,-10 10,-10l35 0c6,0 9,5 10,10l0 25c0,75 95,90 95,140l0 80c0,6 -4,10 -10,10 -50,0 -290,0 -340,0 -6,0 -11,-5 -10,-10l0 -80c0,-40 95,-65 95,-140l0 -25c1,-5 4,-10 10,-10zm14 120c3,-5 9,-6 14,-4 5,3 6,9 4,14 -3,5 -9,6 -14,4 -5,-3 -6,-9 -4,-14zm-9 35c0,-6 4,-10 10,-10 6,0 10,4 10,10 0,6 -4,10 -10,10 -6,0 -10,-4 -10,-10zm9 35c-2,-5 -1,-11 4,-14 5,-2 11,-1 14,4 2,5 1,11 -4,14 -5,2 -11,1 -14,-4zm61 35c-6,0 -10,-4 -10,-10 0,-6 4,-10 10,-10 6,0 10,4 10,10 0,6 -4,10 -10,10zm-35 -9c-5,-3 -6,-9 -4,-14 3,-5 9,-6 14,-4 5,3 6,9 4,14 -3,5 -9,6 -14,4zm70 0c-5,2 -11,1 -14,-4 -2,-5 -1,-11 4,-14 5,-2 11,-1 14,4 2,5 1,11 -4,14zm26 -26c-3,5 -9,6 -14,4 -5,-3 -6,-9 -4,-14 3,-5 9,-6 14,-4 5,3 6,9 4,14zm9 -35c0,6 -4,10 -10,10 -6,0 -10,-4 -10,-10 0,-6 4,-10 10,-10 6,0 10,4 10,10zm-9 -35c2,5 1,11 -4,14 -5,2 -11,1 -14,-4 -2,-5 -1,-11 4,-14 5,-2 11,-1 14,4zm-26 -26c5,3 6,9 4,14 -3,5 -9,6 -14,4 -5,-3 -6,-9 -4,-14 3,-5 9,-6 14,-4zm-35 -9c6,0 10,4 10,10 0,6 -4,10 -10,10 -6,0 -10,-4 -10,-10 0,-6 4,-10 10,-10zm-35 9c5,-2 11,-1 14,4 2,5 1,11 -4,14 -5,2 -11,1 -14,-4 -2,-5 -1,-11 4,-14zm35 16c25,0 45,20 45,45 0,25 -20,45 -45,45 -25,0 -45,-20 -45,-45 0,-25 20,-45 45,-45zm0 -30c41,0 75,34 75,75 0,41 -34,75 -75,75 -41,0 -75,-34 -75,-75 0,-41 34,-75 75,-75z"/>
 </g>
</svg>
