<?xml version="1.0" encoding="UTF-8"?>
<!DOCTYPE svg PUBLIC "-//W3C//DTD SVG 1.1//EN" "http://www.w3.org/Graphics/SVG/1.1/DTD/svg11.dtd">
<!-- Creator: CorelDRAW X6 -->
<svg xmlns="http://www.w3.org/2000/svg" xml:space="preserve" width="100%" height="100%" version="1.1" shape-rendering="geometricPrecision" text-rendering="geometricPrecision" image-rendering="optimizeQuality" fill-rule="evenodd" clip-rule="evenodd"
viewBox="0 0 500 500"
 xmlns:xlink="http://www.w3.org/1999/xlink">
 <g id="Layer_x0020_1">
  <metadata id="CorelCorpID_0Corel-Layer"/>
  <path fill="none" stroke="#434242" stroke-width="15" stroke-linejoin="round" d="M278 343c11,-5 17,-14 27,-23 11,-11 22,-14 39,-12 14,2 53,51 56,66 1,12 -9,27 -14,38 -7,14 -31,29 -47,38 -15,9 -42,-4 -59,-12 -77,-37 -187,-227 -180,-312 2,-18 4,-49 19,-57 16,-9 41,-22 56,-22 13,1 31,1 40,7 12,11 34,68 29,81 -6,16 -14,24 -29,29 -13,4 -24,4 -34,11 -31,30 56,181 97,168z"/>
  <path fill="none" stroke="#434242" stroke-width="10" d="M175 47c6,39 19,78 40,117"/>
  <path fill="none" stroke="#434242" stroke-width="10" d="M386 412c-31,-24 -58,-55 -81,-92"/>
 </g>
</svg>
