<?xml version="1.0" encoding="UTF-8"?>
<!DOCTYPE svg PUBLIC "-//W3C//DTD SVG 1.1//EN" "http://www.w3.org/Graphics/SVG/1.1/DTD/svg11.dtd">
<!-- Creator: CorelDRAW X6 -->
<svg xmlns="http://www.w3.org/2000/svg" xml:space="preserve" width="100%" height="100%" version="1.1" shape-rendering="geometricPrecision" text-rendering="geometricPrecision" image-rendering="optimizeQuality" fill-rule="evenodd" clip-rule="evenodd"
viewBox="0 0 500 500"
 xmlns:xlink="http://www.w3.org/1999/xlink">
 <g id="Layer_x0020_1">
  <metadata id="CorelCorpID_0Corel-Layer"/>
  <path fill="none" stroke="#434242" stroke-width="15" stroke-linejoin="round" d="M148 153c-4,12 0,62 -14,64 -31,5 -59,5 -92,0 -1,0 -2,-1 -3,-2 -16,-23 -8,-66 3,-87 8,-14 13,-19 28,-28 71,-44 289,-44 360,0 15,9 20,14 28,28 12,22 19,62 3,87 -1,1 -2,2 -3,2 -31,5 -59,5 -92,0 -14,-2 -10,-52 -14,-64 -10,-37 -194,-37 -204,0z"/>
  <path fill="none" stroke="#434242" stroke-width="15" d="M175 165l35 0c6,0 10,4 10,10l0 10c0,6 4,10 10,10l40 0c6,0 10,-4 10,-10l0 -10c0,-6 4,-10 10,-10l35 0c6,0 9,5 10,10l0 25c0,75 95,90 95,140l0 80c0,6 -4,10 -10,10 -50,0 -290,0 -340,0 -6,0 -11,-5 -10,-10l0 -80c0,-40 95,-65 95,-140l0 -25c1,-5 4,-10 10,-10z"/>
  <circle fill="none" stroke="#434242" stroke-width="10" cx="250" cy="310" r="87"/>
  <circle fill="none" stroke="#434242" stroke-width="10" cx="250" cy="310" r="45"/>
 </g>
</svg>
