<?xml version="1.0" encoding="UTF-8"?>
<!DOCTYPE svg PUBLIC "-//W3C//DTD SVG 1.1//EN" "http://www.w3.org/Graphics/SVG/1.1/DTD/svg11.dtd">

<svg xmlns="http://www.w3.org/2000/svg" xml:space="preserve" width="100%" height="100%" version="1.1" style="shape-rendering:geometricPrecision; text-rendering:geometricPrecision; image-rendering:optimizeQuality; fill-rule:evenodd; clip-rule:evenodd"
viewBox="0 0 500 500"
 xmlns:xlink="http://www.w3.org/1999/xlink">
 <defs>
  <style type="text/css">
   <![CDATA[
    .str0 {stroke:#434242;stroke-width:10}
    .str1 {stroke:#434242;stroke-width:10;stroke-linejoin:round}
    .str2 {stroke:#434242;stroke-width:15}
    .fil3 {fill:none}
    .fil1 {fill:#FEFEFE}
    .fil0 {fill:#FFFFFF}
    .fil2 {fill:url(#id0)}
   ]]>
  </style>
  <linearGradient id="id0" gradientUnits="userSpaceOnUse" x1="249.999" y1="218.751" x2="249.999" y2="384.239">
   <stop offset="0" style="stop-color:#008BFF"/>
   <stop offset="1" style="stop-color:#00AAFF"/>
  </linearGradient>
 </defs>
 <g id="Layer_x0020_1">
  <metadata id="CorelCorpID_0Corel-Layer"/>
  <rect class="fil0" x="35" y="100" width="430" height="300" rx="20" ry="20"/>
  <circle class="fil1 str0" transform="matrix(0.942872 0.942872 -0.942872 0.942872 120 180)" r="30"/>
  <path class="fil2 str1" d="M465 290l0 90c0,11 -9,20 -20,20l-390 0c-11,0 -20,-9 -20,-20l0 -46 46 -46c37,-37 99,-37 137,0l18 18 80 -80c24,-23 62,-23 85,0l64 64z"/>
  <rect class="fil3 str2" x="35" y="100" width="430" height="300" rx="20" ry="20"/>
 </g>
</svg>
