<?xml version="1.0" encoding="UTF-8"?>
<!DOCTYPE svg PUBLIC "-//W3C//DTD SVG 1.1//EN" "http://www.w3.org/Graphics/SVG/1.1/DTD/svg11.dtd">
<!-- Creator: CorelDRAW X6 -->
<svg xmlns="http://www.w3.org/2000/svg" xml:space="preserve" width="100%" height="100%" version="1.1" shape-rendering="geometricPrecision" text-rendering="geometricPrecision" image-rendering="optimizeQuality" fill-rule="evenodd" clip-rule="evenodd"
viewBox="0 0 500 500"
 xmlns:xlink="http://www.w3.org/1999/xlink">
 <g id="Layer_x0020_1">
  <metadata id="CorelCorpID_0Corel-Layer"/>
  <path fill="#434242" d="M190 80l10 0 0 120 -5 0c-41,0 -75,34 -75,75l0 5c0,3 2,5 5,5l110 0 0 145 15 45 15 -45 0 -145 110 0c3,0 5,-2 5,-5l0 -10c0,-39 -32,-70 -70,-70l-10 0 0 -120 10 0c20,0 37,-15 40,-34 0,-2 -1,-3 -2,-4 -1,-1 -2,-2 -3,-2l-190 0c-1,0 -2,1 -3,2 -1,1 -2,2 -2,4 3,19 20,34 40,34z"/>
 </g>
</svg>
