<?xml version="1.0" encoding="UTF-8"?>
<!DOCTYPE svg PUBLIC "-//W3C//DTD SVG 1.1//EN" "http://www.w3.org/Graphics/SVG/1.1/DTD/svg11.dtd">
<!-- Creator: CorelDRAW X6 -->
<svg xmlns="http://www.w3.org/2000/svg" xml:space="preserve" width="100%" height="100%" version="1.1" shape-rendering="geometricPrecision" text-rendering="geometricPrecision" image-rendering="optimizeQuality" fill-rule="evenodd" clip-rule="evenodd"
viewBox="0 0 500 500"
 xmlns:xlink="http://www.w3.org/1999/xlink">
 <defs>
   <linearGradient id="id0" gradientUnits="userSpaceOnUse" x1="349.803" y1="60.001" x2="150.193" y2="60.001">
    <stop offset="0" stop-color="#0076D8"/>
    <stop offset="0.541176" stop-color="#9DD2FF"/>
    <stop offset="1" stop-color="#008BFF"/>
   </linearGradient>
   <linearGradient id="id1" gradientUnits="userSpaceOnUse" x1="299.998" y1="139.998" x2="199.998" y2="139.998">
    <stop offset="0" stop-color="#0076D8"/>
    <stop offset="0.541176" stop-color="#9DD2FF"/>
    <stop offset="1" stop-color="#008BFF"/>
   </linearGradient>
   <linearGradient id="id2" gradientUnits="userSpaceOnUse" x1="379.998" y1="242.502" x2="119.998" y2="242.502">
    <stop offset="0" stop-color="#0076D8"/>
    <stop offset="0.541176" stop-color="#9DD2FF"/>
    <stop offset="1" stop-color="#008BFF"/>
   </linearGradient>
 </defs>
 <g id="Layer_x0020_1">
  <metadata id="CorelCorpID_0Corel-Layer"/>
  <polygon fill="#979798" points="235,285 265,285 265,430 250,475 235,430 "/>
  <path fill="url(#id0)" stroke="#434242" stroke-width="10" d="M190 80l120 0c20,0 37,-15 40,-34 0,-2 -1,-3 -2,-4 -1,-1 -2,-2 -3,-2l-190 0c-1,0 -2,1 -3,2 -1,1 -2,2 -2,4 3,19 20,34 40,34z"/>
  <rect fill="url(#id1)" stroke="#434242" stroke-width="10" x="200" y="80" width="100" height="120"/>
  <polygon fill="#474747" points="235,285 265,285 265,300 235,300 "/>
  <path fill="url(#id2)" stroke="#434242" stroke-width="10" d="M125 285l250 0c3,0 5,-2 5,-5l0 -10c0,-39 -32,-70 -70,-70l-115 0c-41,0 -75,34 -75,75l0 5c0,3 2,5 5,5z"/>
 </g>
</svg>
