<?xml version="1.0" encoding="UTF-8"?>
<!DOCTYPE svg PUBLIC "-//W3C//DTD SVG 1.1//EN" "http://www.w3.org/Graphics/SVG/1.1/DTD/svg11.dtd">
<!-- Creator: CorelDRAW X6 -->
<svg xmlns="http://www.w3.org/2000/svg" xml:space="preserve" width="100%" height="100%" version="1.1" shape-rendering="geometricPrecision" text-rendering="geometricPrecision" image-rendering="optimizeQuality" fill-rule="evenodd" clip-rule="evenodd"
viewBox="0 0 500 500"
 xmlns:xlink="http://www.w3.org/1999/xlink">
 <g id="Layer_x0020_1">
  <metadata id="CorelCorpID_0Corel-Layer"/>
  <line fill="none" stroke="#434242" stroke-width="30" stroke-linecap="round" x1="300" y1="390" x2="55" y2= "390" />
  <path fill="#434242" d="M98 325c-9,10 10,16 25,6l311 -156c24,-17 35,-25 42,-50 2,-15 -46,-11 -78,-7 -15,1 -34,10 -42,16l-56 35 1 -1 -169 -31c-14,-3 -24,-5 -37,-1 -10,5 -18,10 -27,18l122 72c4,3 5,7 1,9l-44 27 -75 -15c-10,-2 -18,-4 -28,0 -8,4 -14,9 -20,15l74 63z"/>
 </g>
</svg>
