<?xml version="1.0" encoding="UTF-8"?>
<!DOCTYPE svg PUBLIC "-//W3C//DTD SVG 1.1//EN" "http://www.w3.org/Graphics/SVG/1.1/DTD/svg11.dtd">

<svg xmlns="http://www.w3.org/2000/svg" xml:space="preserve" width="100%" height="100%" version="1.1" style="shape-rendering:geometricPrecision; text-rendering:geometricPrecision; image-rendering:optimizeQuality; fill-rule:evenodd; clip-rule:evenodd"
viewBox="0 0 5000 5000"
 xmlns:xlink="http://www.w3.org/1999/xlink">
 <defs>
  <style type="text/css">
   <![CDATA[
    .fil0 {fill:#434242}
   ]]>
  </style>
 </defs>
 <g id="Layer_x0020_1">
  <metadata id="CorelCorpID_0Corel-Layer"/>
  <path class="fil0" d="M2750 651c0,-137 -112,-250 -250,-250 -138,0 -250,113 -250,250 0,416 0,833 0,1249 0,25 -19,60 -50,77l-1649 895c-26,16 -51,53 -51,78l0 500c0,25 23,40 50,33l1650 -566c25,-8 50,8 50,33l0 801c0,49 -31,61 -51,68l-349 131c-24,12 -50,11 -50,46l0 463c0,26 21,41 45,41l605 -185 0 135c0,28 22,50 50,50 27,0 50,-22 50,-50l0 -135 605 185c24,0 45,-15 45,-41l0 -463c0,-35 -26,-34 -50,-46l-349 -131c-20,-7 -51,-19 -51,-68l0 -801c0,-25 25,-41 50,-33l1650 566c27,7 50,-8 50,-33l0 -500c0,-25 -25,-62 -51,-78l-1650 -895c-30,-17 -49,-52 -49,-77 0,-416 0,-833 0,-1249z"/>
 </g>
</svg>
