<?xml version="1.0" encoding="UTF-8"?>
<!DOCTYPE svg PUBLIC "-//W3C//DTD SVG 1.1//EN" "http://www.w3.org/Graphics/SVG/1.1/DTD/svg11.dtd">

<svg xmlns="http://www.w3.org/2000/svg" xml:space="preserve" width="100%" height="100%" version="1.1" style="shape-rendering:geometricPrecision; text-rendering:geometricPrecision; image-rendering:optimizeQuality; fill-rule:evenodd; clip-rule:evenodd"
viewBox="0 0 500 500"
 xmlns:xlink="http://www.w3.org/1999/xlink">
 <defs>
  <style type="text/css">
   <![CDATA[
    .str0 {stroke:#434242;stroke-width:30}
    .fil0 {fill:none}
    .fil1 {fill:#434242;fill-rule:nonzero}
   ]]>
  </style>
 </defs>
 <g id="Layer_x0020_1">
  <metadata id="CorelCorpID_0Corel-Layer"/>
  <circle class="fil0 str0" cx="250" cy="250" r="210"/>
  <g>
   <path class="fil1" d="M233 108l-36 34 -1 -1 0 -1 -1 -1 -1 -1 -1 -1 0 -1 -1 -1 0 -1 -1 -1 0 -1 0 -1 -1 -2 0 -1 0 -1 0 -1 0 -1 0 -1 0 -1 0 -1 0 -2 1 -1 0 -1 0 -1 1 -1 0 -1 1 -1 1 -1 0 -1 1 -1 1 -1 0 -1 1 -1 1 -1 1 0 1 -1 1 -1 1 0 1 -1 2 0 1 -1 1 0 1 -1 1 0 1 0 1 0 2 -1 1 0 1 0 1 0 1 1 2 0 1 0 1 0 1 0 1 1 1 0 2 1 1 0 1 1 1 0 1 1 1 1 1 1 1 0zm73 137l-109 -103 36 -34 108 103 -35 34 0 0zm0 0l0 0 0 0 0 0zm54 5l-50 0 0 0 0 0 0 0 0 -1 0 0 0 0 0 0 0 0 0 0 0 0 0 0 0 0 0 0 0 0 0 0 0 0 0 0 0 0 0 0 0 0 0 0 0 0 -1 0 0 -1 0 0 0 0 -1 -1 0 0 0 0 -1 -1 0 0 -1 -1 0 0 35 -34 1 1 0 1 1 0 1 1 1 1 1 1 0 1 1 1 1 1 1 1 1 1 1 1 0 1 1 1 1 1 1 1 0 2 1 1 1 1 0 2 1 1 1 2 0 1 0 2 1 1 0 2 0 2 1 1 0 2 0 1 0 2 0 2 0 -1zm-50 0l0 0 0 0 0 0zm31 39l-35 -33 0 0 0 -1 1 0 0 -1 0 0 1 -1 0 0 1 0 0 -1 0 0 0 0 0 0 1 0 0 -1 0 0 0 0 0 0 0 0 0 0 0 0 0 0 0 0 0 0 0 0 0 0 0 0 0 0 0 0 0 0 0 0 0 0 0 -1 0 0 50 0 0 2 0 2 0 2 -1 1 0 2 0 2 -1 1 0 2 -1 2 0 1 -1 2 0 1 -1 2 -1 1 -1 1 0 2 -1 1 -1 1 -1 1 -1 1 0 1 -1 1 -1 1 -1 1 0 0 -1 1 -1 1 -1 1 0 0 -1 1 -1 0 0 1 0 0zm-35 -33l0 0 0 0 0 0zm-109 102l109 -102 35 33 -108 103 -36 -34zm0 0l36 34 -1 0 -1 1 -1 1 -1 1 -1 0 -1 1 -1 0 -2 1 -1 0 -1 1 -1 0 -1 0 -1 0 -2 0 -1 1 -1 0 -1 0 -1 0 -2 -1 -1 0 -1 0 -1 0 -1 -1 -1 0 -1 -1 -2 0 -1 -1 -1 0 -1 -1 -1 -1 -1 0 -1 -1 0 -1 -1 -1 -1 -1 -1 -1 0 -1 -1 -1 -1 -1 0 -1 -1 -1 0 -1 0 -1 -1 -1 0 -2 0 -1 0 -1 0 -1 0 -1 0 -1 0 -1 0 -1 1 -2 0 -1 0 -1 1 -1 0 -1 1 -1 0 -1 1 -1 1 -1 1 -1 0 -1 1 -1z"/>
  </g>
 </g>
</svg>
