<?xml version="1.0" encoding="UTF-8"?>
<!DOCTYPE svg PUBLIC "-//W3C//DTD SVG 1.1//EN" "http://www.w3.org/Graphics/SVG/1.1/DTD/svg11.dtd">
<!-- Creator: CorelDRAW X6 -->
<svg xmlns="http://www.w3.org/2000/svg" xml:space="preserve" width="100%" height="100%" version="1.1" style="shape-rendering:geometricPrecision; text-rendering:geometricPrecision; image-rendering:optimizeQuality; fill-rule:evenodd; clip-rule:evenodd"
viewBox="0 0 500 500"
 xmlns:xlink="http://www.w3.org/1999/xlink">
 <defs>
  <style type="text/css">
   <![CDATA[
    .str2 {stroke:#2B2A29;stroke-width:0.1}
    .str1 {stroke:#333333;stroke-width:10}
    .str0 {stroke:#333333;stroke-width:40;stroke-linecap:round}
    .fil0 {fill:none}
    .fil2 {fill:#008BFF}
    .fil1 {fill:#333333}
    .fil3 {fill:#EBEBEB}
   ]]>
  </style>
 </defs>
 <g id="Layer_x0020_1">
  <metadata id="CorelCorpID_0Corel-Layer"/>
  <path class="fil0 str0" d="M185 50l0 120m135 -120l0 120"/>
  <path class="fil1 str1" d="M210 380l90 0 0 20c0,6 -4,10 -10,10l-70 0c-5,0 -10,-4 -10,-10l0 -20z"/>
  <polygon class="fil1 str1" points="230,465 280,465 280,410 230,410 "/>
  <path class="fil2 str1" d="M210 380l90 0c39,0 70,-31 70,-70l0 -145 -240 0 0 135c0,44 36,80 80,80z"/>
  <path class="fil1 str1" d="M395 150l0 15c0,14 -11,25 -25,25l-240 0c-14,0 -25,-11 -25,-25l0 -15 290 0z"/>
  <circle class="fil3 str1" cx="250" cy="280" r="25"/>
  <rect class="fil0 str2" width="500" height="500"/>
 </g>
</svg>
