<?xml version="1.0" encoding="UTF-8"?>
<!DOCTYPE svg PUBLIC "-//W3C//DTD SVG 1.1//EN" "http://www.w3.org/Graphics/SVG/1.1/DTD/svg11.dtd">

<svg xmlns="http://www.w3.org/2000/svg" xml:space="preserve" width="100%" height="100%" version="1.1" style="shape-rendering:geometricPrecision; text-rendering:geometricPrecision; image-rendering:optimizeQuality; fill-rule:evenodd; clip-rule:evenodd"
viewBox="0 0 500 500"
 xmlns:xlink="http://www.w3.org/1999/xlink">
 <defs>
  <style type="text/css">
   <![CDATA[
    .fil0 {fill:#434242}
   ]]>
  </style>
 </defs>
 <g id="Layer_x0020_1">
  <metadata id="CorelCorpID_0Corel-Layer"/>
  <path class="fil0" d="M30 250c0,122 98,220 220,220 122,0 220,-98 220,-220 0,-122 -98,-220 -220,-220 -122,0 -220,98 -220,220zm263 -130l0 88 87 0c5,0 10,4 10,10l0 64c0,6 -5,11 -10,11l-87 0 0 87c0,5 -5,10 -11,10l-64 0c-6,0 -10,-5 -10,-10l0 -87 -88 0c-5,0 -10,-5 -10,-11l0 -64c0,-6 5,-10 10,-10l88 0 0 -88c0,-5 4,-10 10,-10l64 0c6,0 11,5 11,10z"/>
 </g>
</svg>
