<?xml version="1.0" encoding="UTF-8"?>
<!DOCTYPE svg PUBLIC "-//W3C//DTD SVG 1.1//EN" "http://www.w3.org/Graphics/SVG/1.1/DTD/svg11.dtd">
<!-- Creator: CorelDRAW X6 -->
<svg xmlns="http://www.w3.org/2000/svg" xml:space="preserve" width="100%" height="100%" version="1.1" style="shape-rendering:geometricPrecision; text-rendering:geometricPrecision; image-rendering:optimizeQuality; fill-rule:evenodd; clip-rule:evenodd"
viewBox="0 0 500 500"
 xmlns:xlink="http://www.w3.org/1999/xlink">
 <defs>
  <style type="text/css">
   <![CDATA[
    .str2 {stroke:#434242;stroke-width:15;stroke-linejoin:round}
    .str0 {stroke:#434242;stroke-width:15;stroke-linecap:square;stroke-linejoin:round}
    .str1 {stroke:#434242;stroke-width:25;stroke-linejoin:round}
    .fil0 {fill:none}
   ]]>
  </style>
 </defs>
 <g id="Layer_x0020_1">
  <metadata id="CorelCorpID_0Corel-Layer"/>
  <polygon class="fil0 str0" points="50,20 80,420 250,480 420,420 450,20 "/>
  <polygon class="fil0 str1" points="354,217 321,201 333,165 315,147 279,159 263,126 237,126 221,159 185,147 167,165 179,201 146,217 146,243 179,259 167,295 185,313 221,301 237,335 263,335 279,301 315,313 333,295 321,259 354,243 "/>
  <path class="fil0 str2" d="M255 185l7 17 16 -7c6,-2 9,1 7,7l-7 16 17 7c5,3 5,7 0,10l-17 7 7 16c2,6 -1,9 -7,7l-16 -7 -7 17c-3,5 -7,5 -10,0l-7 -17 -16 7c-6,2 -9,-1 -7,-7l7 -16 -17 -7c-5,-3 -5,-7 0,-10l17 -7 -7 -16c-2,-6 1,-9 7,-7l16 7 7 -17c3,-5 7,-5 10,0z"/>
 </g>
</svg>
