<?xml version="1.0" encoding="UTF-8"?>
<!DOCTYPE svg PUBLIC "-//W3C//DTD SVG 1.1//EN" "http://www.w3.org/Graphics/SVG/1.1/DTD/svg11.dtd">
<!-- Creator: CorelDRAW X6 -->
<svg xmlns="http://www.w3.org/2000/svg" xml:space="preserve" width="100%" height="100%" version="1.1" style="shape-rendering:geometricPrecision; text-rendering:geometricPrecision; image-rendering:optimizeQuality; fill-rule:evenodd; clip-rule:evenodd"
viewBox="0 0 500 500"
 xmlns:xlink="http://www.w3.org/1999/xlink">
 <defs>
  <style type="text/css">
   <![CDATA[
    .str0 {stroke:#434242;stroke-width:10;stroke-linejoin:round}
    .fil1 {fill:#434242}
    .fil3 {fill:#008BFF}
    .fil2 {fill:#EDEDED}
    .fil0 {fill:url(#id0)}
   ]]>
  </style>
  <radialGradient id="id0" gradientUnits="objectBoundingBox" cx="50%" cy="-0.000382879%" r="50%" fx="50%" fy="-0.000382879%">
   <stop offset="0" style="stop-color:#00AAFF"/>
   <stop offset="1" style="stop-color:#008BFF"/>
  </radialGradient>
 </defs>
 <g id="Layer_x0020_1">
  <metadata id="CorelCorpID_0Corel-Layer"/>
  <path class="fil0 str0" d="M20 181l460 0 0 180c0,11 -9,20 -20,20l-420 0c-11,0 -20,-9 -20,-20l0 -180zm0 0c153,0 307,0 460,0 -15,-18 -30,-37 -45,-55 -3,-3 -9,-6 -13,-6 -115,0 -229,0 -344,0 -5,0 -10,3 -13,6 -15,18 -30,37 -45,55z"/>
  <path class="fil1" d="M114 140c91,0 181,0 271,0 2,0 3,1 5,1 4,3 11,10 14,13 3,3 4,6 1,6 -103,0 -207,0 -310,0 -3,0 -2,-3 1,-6 4,-4 12,-14 18,-14zm-24 190l320 0c6,0 10,4 10,10l0 51c0,6 -4,10 -10,10l-320 0c-6,0 -10,-4 -10,-10l0 -51c0,-6 4,-10 10,-10z"/>
  <path class="fil2 str0" d="M182 18l179 0c5,0 8,4 8,8l0 124 -239 0 0 -80 52 -52zm-64 342l264 0c4,0 8,3 9,7l31 100c1,3 0,6 -1,9 -2,3 -5,4 -8,4l-326 0c-3,0 -6,-1 -8,-4 -1,-3 -2,-6 -1,-9l31 -100c1,-4 5,-7 9,-7z"/>
  <path class="fil3 str0" d="M182 18l0 45c0,4 -3,7 -7,7l-45 0 52 -52z"/>
  <path class="fil2" d="M396 220l0 15 15 0 0 -15 -15 0zm31 0l0 15 7 0 0 -15 -7 0zm22 0l0 15 8 0 0 -15 -8 0zm-380 -7c8,0 15,6 15,15 0,8 -7,15 -15,15 -9,0 -15,-7 -15,-15 0,-9 6,-15 15,-15z"/>
 </g>
</svg>
