<?xml version="1.0" encoding="UTF-8"?>
<!DOCTYPE svg PUBLIC "-//W3C//DTD SVG 1.1//EN" "http://www.w3.org/Graphics/SVG/1.1/DTD/svg11.dtd">
<!-- Creator: CorelDRAW X6 -->
<svg xmlns="http://www.w3.org/2000/svg" xml:space="preserve" width="100%" height="100%" version="1.1" shape-rendering="geometricPrecision" text-rendering="geometricPrecision" image-rendering="optimizeQuality" fill-rule="evenodd" clip-rule="evenodd"
viewBox="0 0 500 500"
 xmlns:xlink="http://www.w3.org/1999/xlink">
 <g id="Layer_x0020_1">
  <metadata id="CorelCorpID_0Corel-Layer"/>
  <path fill="none" stroke="#434242" stroke-width="15" stroke-linejoin="round" d="M20 181l460 0 0 180c0,11 -9,20 -20,20l-40 0 0 -41c0,-6 -4,-10 -10,-10l-320 0c-6,0 -10,4 -10,10l0 41 -40 0c-11,0 -20,-9 -20,-20l0 -180zm0 0c153,0 307,0 460,0 -15,-18 -30,-37 -45,-55 -3,-3 -9,-6 -13,-6l-53 0 0 20 16 0c2,0 3,1 5,1 4,3 11,10 14,13 3,3 4,6 1,6 -103,0 -207,0 -310,0 -3,0 -2,-3 1,-6 4,-4 12,-14 18,-14l16 0 0 -20 -52 0c-5,0 -10,3 -13,6 -15,18 -30,37 -45,55z"/>
  <path fill="none" stroke="#434242" stroke-width="7.5" stroke-linejoin="round" d="M191 34l0 47c0,4 -4,8 -8,8l-47 0 55 -55zm-56 131l0 -80 52 -52 171 0c4,0 7,4 7,8l0 124m-236 165l242 0c4,0 7,2 8,6l28 90c1,3 1,6 -1,8 -2,3 -4,4 -7,4l-298 0c-3,0 -5,-1 -7,-4 -2,-2 -2,-5 -1,-8l28 -90c1,-4 4,-6 8,-6zm-60 -117c8,0 15,6 15,15 0,8 -7,15 -15,15 -9,0 -15,-7 -15,-15 0,-9 6,-15 15,-15zm370 0c8,0 15,6 15,15 0,8 -7,15 -15,15 -9,0 -15,-7 -15,-15 0,-9 6,-15 15,-15zm-43 0c8,0 15,6 15,15 0,8 -7,15 -15,15 -9,0 -15,-7 -15,-15 0,-9 6,-15 15,-15z"/>
 </g>
</svg>
