<?xml version="1.0" encoding="UTF-8"?>
<!DOCTYPE svg PUBLIC "-//W3C//DTD SVG 1.1//EN" "http://www.w3.org/Graphics/SVG/1.1/DTD/svg11.dtd">
<!-- Creator: CorelDRAW X6 -->
<svg xmlns="http://www.w3.org/2000/svg" xml:space="preserve" width="100%" height="100%" version="1.1" style="shape-rendering:geometricPrecision; text-rendering:geometricPrecision; image-rendering:optimizeQuality; fill-rule:evenodd; clip-rule:evenodd"
viewBox="0 0 500 500"
 xmlns:xlink="http://www.w3.org/1999/xlink">
 <defs>
  <style type="text/css">
   <![CDATA[
    .str1 {stroke:#434242;stroke-width:10}
    .str0 {stroke:#434242;stroke-width:15}
    .fil1 {fill:none}
    .fil0 {fill:#434242}
   ]]>
  </style>
 </defs>
 <g id="Layer_x0020_1">
  <metadata id="CorelCorpID_0Corel-Layer"/>
  <path class="fil0" d="M70 135l360 0c5,0 10,5 10,10l0 10 -380 0 0 -10c0,-5 5,-10 10,-10z"/>
  <path class="fil1 str0" d="M55 155l390 0c8,0 15,7 15,15l0 205c0,6 -5,10 -10,10l-50 0c-15,0 -20,-30 -40,-30l-220 0c-20,0 -25,30 -40,30l-50 0c-5,0 -10,-4 -10,-10l0 -205c0,-8 7,-15 15,-15z"/>
  <path class="fil0" d="M100 155l310 0 0 155c0,8 -7,15 -15,15l-280 0c-8,0 -15,-7 -15,-15l0 -155z"/>
  <path class="fil0" d="M60 185l20 0 0 20 -20 0 0 -20zm0 40l20 0 0 10 -20 0 0 -10zm0 30l20 0 0 10 -20 0 0 -10z"/>
  <path class="fil1 str1" d="M120 140l260 0 0 -80c0,-5 -5,-10 -10,-10l-240 0c-6,0 -10,4 -10,10l0 80z"/>
  <path class="fil1 str1" d="M355 365l-210 0c-3,0 -6,1 -8,4l-36 50c-2,3 -2,7 0,11 1,3 5,5 8,5l282 0c3,0 7,-2 8,-5 2,-4 2,-8 0,-11l-36 -50c-2,-3 -5,-4 -8,-4z"/>
 </g>
</svg>
