<?xml version="1.0" encoding="UTF-8"?>
<!DOCTYPE svg PUBLIC "-//W3C//DTD SVG 1.1//EN" "http://www.w3.org/Graphics/SVG/1.1/DTD/svg11.dtd">
<!-- Creator: CorelDRAW X6 -->
<svg xmlns="http://www.w3.org/2000/svg" xml:space="preserve" width="100%" height="100%" version="1.1" shape-rendering="geometricPrecision" text-rendering="geometricPrecision" image-rendering="optimizeQuality" fill-rule="evenodd" clip-rule="evenodd"
viewBox="0 0 500 500"
 xmlns:xlink="http://www.w3.org/1999/xlink">
 <g id="Layer_x0020_1">
  <metadata id="CorelCorpID_0Corel-Layer"/>
  <path fill="#5B5B5B" d="M116 360l268 0 29 97c1,3 0,6 -2,9 -1,3 -4,4 -7,4l-308 0c-3,0 -6,-1 -7,-4 -2,-3 -3,-6 -2,-9l29 -97z"/>
  <path fill="#5B5B5B" d="M135 165l230 0 0 -124c0,-4 -3,-8 -7,-8l-171 0 -52 52 0 80z"/>
  <path fill="none" stroke="white" stroke-width="15" stroke-linejoin="round" d="M384 358l29 99c0,3 0,6 -2,9 -1,3 -4,4 -7,4l-308 0c-3,0 -6,-1 -7,-4 -2,-3 -3,-6 -2,-9l29 -99"/>
  <path fill="none" stroke="white" stroke-width="15" stroke-linejoin="round" d="M135 165l0 -80 52 -52 171 0c4,0 7,4 7,8l0 124"/>
  <path fill="white" d="M190 35l0 47c0,4 -4,8 -8,8l-47 0 55 -55z"/>
  <path fill="white" stroke="#5B5B5B" stroke-width="5" stroke-linejoin="round" d="M480 196l0 180c0,11 -9,20 -20,20l-40 0 0 -41c0,-6 -4,-10 -10,-10l-320 0c-6,0 -10,4 -10,10l0 41 -40 0c-11,0 -20,-9 -20,-20l0 -180c15,-18 30,-37 45,-55 3,-3 8,-6 13,-6l42 0 0 20 -6 0c-6,0 -14,10 -18,14 -3,3 -4,6 -1,6 103,0 207,0 310,0 3,0 2,-3 -1,-6 -3,-3 -10,-10 -14,-13 -2,0 -3,-1 -5,-1l-5 0 0 -20 42 0c4,0 10,3 13,6 15,18 30,37 45,55z"/>
  <path fill="#5B5B5B" d="M396 235l0 15 15 0 0 -15 -15 0zm31 0l0 15 7 0 0 -15 -7 0zm22 0l0 15 8 0 0 -15 -8 0zm-380 -7c8,0 15,6 15,15 0,8 -7,15 -15,15 -9,0 -15,-7 -15,-15 0,-9 6,-15 15,-15z"/>
  <line fill="none" stroke="#5B5B5B" stroke-width="5" x1="20" y1="196" x2="480" y2= "196" />
 </g>
</svg>
