<?xml version="1.0" encoding="UTF-8"?>
<!DOCTYPE svg PUBLIC "-//W3C//DTD SVG 1.1//EN" "http://www.w3.org/Graphics/SVG/1.1/DTD/svg11.dtd">

<svg xmlns="http://www.w3.org/2000/svg" xml:space="preserve" width="100%" height="100%" version="1.1" style="shape-rendering:geometricPrecision; text-rendering:geometricPrecision; image-rendering:optimizeQuality; fill-rule:evenodd; clip-rule:evenodd"
viewBox="0 0 500 500"
 xmlns:xlink="http://www.w3.org/1999/xlink">
 <defs>
  <style type="text/css">
   <![CDATA[
    .str0 {stroke:#434242;stroke-width:15}
    .fil0 {fill:none}
    .fil1 {fill:#434242}
   ]]>
  </style>
 </defs>
 <g id="Layer_x0020_1">
  <metadata id="CorelCorpID_0Corel-Layer"/>
  <path class="fil0 str0" d="M280 40l180 0 0 180 -180 0 0 -180zm-240 240l180 0 0 180 -180 0 0 -180zm0 -240l180 0 0 180 -180 0 0 -180z"/>
  <path class="fil1" d="M330 90l80 0 0 80 -80 0 0 -80zm-240 0l80 0 0 80 -80 0 0 -80zm0 240l80 0 0 80 -80 0 0 -80zm180 -50l40 0 0 40 -40 0 0 -40zm60 0l20 0 0 40 -20 0 0 -40zm100 0l40 0 0 40 -40 0 0 -40zm-160 70l60 0 0 40 -60 0 0 -40zm70 0l50 0 0 40 -50 0 0 -40zm90 0l40 0 0 40 -40 0 0 -40zm-160 70l40 0 0 40 -40 0 0 -40zm90 -140l60 0 0 40 -60 0 0 -40zm40 70l20 0 0 40 -20 0 0 -40zm10 70l60 0 0 40 -60 0 0 -40zm-10 0l-50 0 0 40 50 0 0 -40zm-60 0l-20 0 0 40 20 0 0 -40z"/>
 </g>
</svg>
