<?xml version="1.0" encoding="UTF-8"?>
<!DOCTYPE svg PUBLIC "-//W3C//DTD SVG 1.1//EN" "http://www.w3.org/Graphics/SVG/1.1/DTD/svg11.dtd">

<svg xmlns="http://www.w3.org/2000/svg" xml:space="preserve" width="100%" height="100%" version="1.1" style="shape-rendering:geometricPrecision; text-rendering:geometricPrecision; image-rendering:optimizeQuality; fill-rule:evenodd; clip-rule:evenodd"
viewBox="0 0 500 500"
 xmlns:xlink="http://www.w3.org/1999/xlink">
 <defs>
  <style type="text/css">
   <![CDATA[
    .fil0 {fill:#FFFFFF}
   ]]>
  </style>
 </defs>
 <g id="Layer_x0020_1">
  <metadata id="CorelCorpID_0Corel-Layer"/>
  <path class="fil0" d="M30 250c0,122 98,220 220,220 122,0 220,-98 220,-220 0,-122 -98,-220 -220,-220 -122,0 -220,98 -220,220zm212 58l-10 0c0,-18 1,-31 3,-40 2,-9 7,-22 16,-37 8,-16 14,-29 17,-38 2,-10 4,-21 4,-35 0,-22 -5,-38 -13,-48 -8,-10 -18,-16 -30,-16 -9,0 -16,3 -22,8 -5,3 -7,7 -7,11 0,2 2,7 5,12 7,13 10,23 10,32 0,8 -2,15 -8,20 -5,6 -12,8 -20,8 -9,0 -17,-3 -23,-9 -7,-7 -10,-15 -10,-26 0,-19 9,-36 25,-51 17,-14 40,-22 70,-22 31,0 55,8 72,23 16,15 25,33 25,55 0,15 -5,29 -13,42 -9,14 -25,28 -49,44 -17,11 -28,20 -33,29 -5,8 -8,21 -9,38zm-2 36c10,0 20,3 27,11 8,8 12,17 12,28 0,11 -4,20 -12,28 -7,8 -17,12 -27,12 -11,0 -21,-4 -28,-12 -8,-8 -12,-17 -12,-28 0,-11 4,-20 12,-28 7,-8 17,-11 28,-11z"/>
 </g>
</svg>
