<?xml version="1.0" encoding="UTF-8"?>
<!DOCTYPE svg PUBLIC "-//W3C//DTD SVG 1.1//EN" "http://www.w3.org/Graphics/SVG/1.1/DTD/svg11.dtd">

<svg xmlns="http://www.w3.org/2000/svg" xml:space="preserve" width="100%" height="100%" version="1.1" style="shape-rendering:geometricPrecision; text-rendering:geometricPrecision; image-rendering:optimizeQuality; fill-rule:evenodd; clip-rule:evenodd"
viewBox="0 0 500 500"
 xmlns:xlink="http://www.w3.org/1999/xlink">
 <defs>
  <style type="text/css">
   <![CDATA[
    .str1 {stroke:#434242;stroke-width:0.762}
    .str0 {stroke:#434242;stroke-width:20;stroke-linejoin:round}
    .str2 {stroke:#434242;stroke-width:35;stroke-linecap:round;stroke-linejoin:round}
    .fil0 {fill:none}
    .fil1 {fill:#434242}
   ]]>
  </style>
 </defs>
 <g id="Layer_x0020_1">
  <metadata id="CorelCorpID_0Corel-Layer"/>
  <path class="fil0 str0" d="M30 250c0,122 98,220 220,220 122,0 220,-98 220,-220 0,-122 -98,-220 -220,-220 -122,0 -220,98 -220,220z"/>
  <circle class="fil1 str1" cx="242" cy="388" r="20"/>
  <path class="fil0 str2" d="M154 175c0,-20 9,-37 25,-51 17,-15 40,-22 70,-22 31,0 55,8 72,23 16,15 25,33 25,54 0,16 -5,30 -13,43 -9,13 -25,28 -49,44 -17,10 -28,20 -33,28 -5,9 -8,22 -9,39"/>
 </g>
</svg>
