<?xml version="1.0" encoding="UTF-8"?>
<!DOCTYPE svg PUBLIC "-//W3C//DTD SVG 1.1//EN" "http://www.w3.org/Graphics/SVG/1.1/DTD/svg11.dtd">

<svg xmlns="http://www.w3.org/2000/svg" xml:space="preserve" width="100%" height="100%" version="1.1" style="shape-rendering:geometricPrecision; text-rendering:geometricPrecision; image-rendering:optimizeQuality; fill-rule:evenodd; clip-rule:evenodd"
viewBox="0 0 500 500"
 xmlns:xlink="http://www.w3.org/1999/xlink">
 <defs>
  <style type="text/css">
   <![CDATA[
    .str0 {stroke:#434242;stroke-width:10;stroke-linejoin:round}
    .fil0 {fill:url(#id0)}
   ]]>
  </style>
  <linearGradient id="id0" gradientUnits="objectBoundingBox" x1="100%" y1="50%" x2="0.000243903%" y2="50%">
   <stop offset="0" style="stop-color:#008BFF"/>
   <stop offset="1" style="stop-color:#00AAFF"/>
  </linearGradient>
 </defs>
 <g id="Layer_x0020_1">
  <metadata id="CorelCorpID_0Corel-Layer"/>
  <path class="fil0 str0" d="M445 164l-59 -42c-4,-3 -7,-3 -10,0 -3,2 -5,6 -5,10l0 23 -77 0c-3,0 -6,2 -8,5l-94 150c-2,3 -5,5 -9,5l-133 0c-6,0 -10,4 -10,10l0 20c0,6 4,10 10,10l156 0c3,0 6,-2 8,-5l94 -150c2,-3 5,-5 9,-5l54 0 0 23c0,4 2,8 5,10 3,3 6,3 10,0l59 -42c3,-3 5,-6 5,-11 0,-5 -2,-8 -5,-11z"/>
  <path class="fil0 str0" d="M445 346l-59 42c-4,3 -7,3 -10,0 -3,-2 -5,-6 -5,-10l0 -23 -77 0c-3,0 -6,-2 -8,-5l-94 -150c-2,-3 -5,-5 -9,-5l-133 0c-6,0 -10,-4 -10,-10l0 -20c0,-6 4,-10 10,-10l156 0c3,0 6,2 8,5l94 150c2,3 5,5 9,5l54 0 0 -23c0,-4 2,-8 5,-10 3,-3 6,-3 10,0l59 42c3,3 5,6 5,11 0,5 -2,8 -5,11z"/>
 </g>
</svg>
