<?xml version="1.0" encoding="UTF-8"?>
<!DOCTYPE svg PUBLIC "-//W3C//DTD SVG 1.1//EN" "http://www.w3.org/Graphics/SVG/1.1/DTD/svg11.dtd">

<svg xmlns="http://www.w3.org/2000/svg" xml:space="preserve" width="100%" height="100%" version="1.1" style="shape-rendering:geometricPrecision; text-rendering:geometricPrecision; image-rendering:optimizeQuality; fill-rule:evenodd; clip-rule:evenodd"
viewBox="0 0 500 500"
 xmlns:xlink="http://www.w3.org/1999/xlink">
 <defs>
  <style type="text/css">
   <![CDATA[
    .fil0 {fill:#434242}
   ]]>
  </style>
 </defs>
 <g id="Layer_x0020_1">
  <metadata id="CorelCorpID_0Corel-Layer"/>
  <path class="fil0" d="M445 164l-59 -42c-4,-3 -7,-3 -10,0 -3,2 -5,6 -5,10l0 23 -77 0c-3,0 -6,2 -8,5l-36 57 -36 -57c-2,-3 -5,-5 -8,-5l-156 0c-6,0 -10,4 -10,10l0 20c0,6 4,10 10,10l133 0c4,0 7,2 9,5l34 55 -34 55c-2,3 -5,5 -9,5l-133 0c-6,0 -10,4 -10,10l0 20c0,6 4,10 10,10l156 0c3,0 6,-2 8,-5l36 -57 36 57c2,3 5,5 8,5l77 0 0 23c0,4 2,8 5,10 3,3 6,3 10,0l59 -42c3,-3 5,-6 5,-11 0,-5 -2,-8 -5,-11l-59 -42c-4,-3 -7,-3 -10,0 -3,2 -5,6 -5,10l0 23 -54 0c-4,0 -7,-2 -9,-5l-34 -55 34 -55c2,-3 5,-5 9,-5l54 0 0 23c0,4 2,8 5,10 3,3 6,3 10,0l59 -42c3,-3 5,-6 5,-11 0,-5 -2,-8 -5,-11z"/>
 </g>
</svg>
