<?xml version="1.0" encoding="UTF-8"?>
<!DOCTYPE svg PUBLIC "-//W3C//DTD SVG 1.1//EN" "http://www.w3.org/Graphics/SVG/1.1/DTD/svg11.dtd">

<svg xmlns="http://www.w3.org/2000/svg" xml:space="preserve" width="100%" height="100%" version="1.1" style="shape-rendering:geometricPrecision; text-rendering:geometricPrecision; image-rendering:optimizeQuality; fill-rule:evenodd; clip-rule:evenodd"
viewBox="0 0 500 500"
 xmlns:xlink="http://www.w3.org/1999/xlink">
 <defs>
  <style type="text/css">
   <![CDATA[
    .fil0 {fill:#FFFFFF}
   ]]>
  </style>
 </defs>
 <g id="Layer_x0020_1">
  <metadata id="CorelCorpID_0Corel-Layer"/>
  <path class="fil0" d="M304 460l93 0c8,0 16,0 24,-8 8,-8 8,-23 0,-31l-17 -16c-3,-4 -4,-10 0,-14 75,-82 73,-209 -7,-289 -17,-18 -38,-31 -59,-41 -3,-2 -5,-2 -8,-1 -3,1 -4,3 -6,6l-25 63c-2,5 0,10 5,13 11,5 22,13 31,22 45,45 47,116 8,164 -2,2 -5,3 -8,3 -3,0 -5,-1 -7,-3l-16 -16c-8,-8 -23,-8 -31,0 -8,8 -8,16 -8,24l0 93c0,21 10,31 31,31z"/>
  <path class="fil0" d="M196 40l-93 0c-8,0 -16,0 -24,8 -8,8 -8,23 0,31l17 16c3,4 4,10 0,14 -75,82 -73,209 7,289 17,18 38,31 59,41 3,2 5,2 8,1 3,-1 4,-3 6,-6l25 -63c2,-5 0,-10 -5,-13 -11,-5 -22,-13 -31,-22 -45,-45 -47,-116 -8,-164 2,-2 5,-3 8,-3 3,0 5,1 7,3l16 16c8,8 23,8 31,0 8,-8 8,-16 8,-24l0 -93c0,-21 -10,-31 -31,-31z"/>
 </g>
</svg>
