<?xml version="1.0" encoding="UTF-8"?>
<!DOCTYPE svg PUBLIC "-//W3C//DTD SVG 1.1//EN" "http://www.w3.org/Graphics/SVG/1.1/DTD/svg11.dtd">

<svg xmlns="http://www.w3.org/2000/svg" xml:space="preserve" width="100%" height="100%" version="1.1" style="shape-rendering:geometricPrecision; text-rendering:geometricPrecision; image-rendering:optimizeQuality; fill-rule:evenodd; clip-rule:evenodd"
viewBox="0 0 500 500"
 xmlns:xlink="http://www.w3.org/1999/xlink">
 <defs>
  <style type="text/css">
   <![CDATA[
    .str1 {stroke:#434242;stroke-width:10}
    .str0 {stroke:#434242;stroke-width:15}
    .fil1 {fill:#FFFFFF}
    .fil0 {fill:url(#id0)}
   ]]>
  </style>
  <radialGradient id="id0" gradientUnits="objectBoundingBox" cx="49%" cy="49%" r="50%" fx="49%" fy="49%">
   <stop offset="0" style="stop-color:#00AAFF"/>
   <stop offset="1" style="stop-color:#008BFF"/>
  </radialGradient>
 </defs>
 <g id="Layer_x0020_1">
  <metadata id="CorelCorpID_0Corel-Layer"/>
  <path class="fil0 str0" d="M94 94c-85,86 -85,226 0,312 86,85 226,85 312,0 85,-86 85,-226 0,-312 -86,-85 -226,-85 -312,0z"/>
  <path class="fil1 str1" d="M372 188l-62 62 62 62c4,4 4,10 0,14l-46 46c-4,4 -10,4 -14,0l-62 -62 -62 62c-4,4 -10,4 -14,0l-46 -46c-4,-4 -4,-10 0,-14l62 -62 -62 -62c-4,-4 -4,-10 0,-14l46 -46c4,-4 10,-4 14,0l62 62 62 -62c4,-4 10,-4 14,0l46 46c4,4 4,10 0,14z"/>
 </g>
</svg>
