<?xml version="1.0" encoding="UTF-8"?>
<!DOCTYPE svg PUBLIC "-//W3C//DTD SVG 1.1//EN" "http://www.w3.org/Graphics/SVG/1.1/DTD/svg11.dtd">

<svg xmlns="http://www.w3.org/2000/svg" xml:space="preserve" width="100%" height="100%" version="1.1" style="shape-rendering:geometricPrecision; text-rendering:geometricPrecision; image-rendering:optimizeQuality; fill-rule:evenodd; clip-rule:evenodd"
viewBox="0 0 500 500"
 xmlns:xlink="http://www.w3.org/1999/xlink">
 <defs>
  <style type="text/css">
   <![CDATA[
    .str1 {stroke:#434242;stroke-width:10}
    .str0 {stroke:#434242;stroke-width:30}
    .fil0 {fill:none}
    .fil1 {fill:url(#id0)}
   ]]>
  </style>
  <linearGradient id="id0" gradientUnits="userSpaceOnUse" x1="349.913" y1="349.913" x2="150.087" y2="150.087">
   <stop offset="0" style="stop-color:#008BFF"/>
   <stop offset="1" style="stop-color:#00AAFF"/>
  </linearGradient>
 </defs>
 <g id="Layer_x0020_1">
  <metadata id="CorelCorpID_0Corel-Layer"/>
  <circle class="fil0 str0" cx="250" cy="250" r="210"/>
  <path class="fil1 str1" d="M372 188l-62 62 62 62c4,4 4,10 0,14l-46 46c-4,4 -10,4 -14,0l-62 -62 -62 62c-4,4 -10,4 -14,0l-46 -46c-4,-4 -4,-10 0,-14l62 -62 -62 -62c-4,-4 -4,-10 0,-14l46 -46c4,-4 10,-4 14,0l62 62 62 -62c4,-4 10,-4 14,0l46 46c4,4 4,10 0,14z"/>
 </g>
</svg>
