<?xml version="1.0" encoding="UTF-8"?>
<!DOCTYPE svg PUBLIC "-//W3C//DTD SVG 1.1//EN" "http://www.w3.org/Graphics/SVG/1.1/DTD/svg11.dtd">

<svg xmlns="http://www.w3.org/2000/svg" xml:space="preserve" width="100%" height="100%" version="1.1" style="shape-rendering:geometricPrecision; text-rendering:geometricPrecision; image-rendering:optimizeQuality; fill-rule:evenodd; clip-rule:evenodd"
viewBox="0 0 500 500"
 xmlns:xlink="http://www.w3.org/1999/xlink">
 <defs>
  <style type="text/css">
   <![CDATA[
    .str0 {stroke:#434242;stroke-width:10;stroke-linejoin:round}
    .fil0 {fill:url(#id0)}
   ]]>
  </style>
  <linearGradient id="id0" gradientUnits="userSpaceOnUse" x1="393.755" y1="393.755" x2="106.243" y2="106.243">
   <stop offset="0" style="stop-color:#008BFF"/>
   <stop offset="1" style="stop-color:#00AAFF"/>
  </linearGradient>
 </defs>
 <g id="Layer_x0020_1">
  <metadata id="CorelCorpID_0Corel-Layer"/>
  <path class="fil0 str0" d="M427 342l-92 -92 92 -92c4,-4 4,-10 0,-14l-71 -71c-4,-4 -10,-4 -14,0l-92 92 -92 -92c-4,-4 -10,-4 -14,0l-71 71c-4,4 -4,10 0,14l92 92 -92 92c-4,4 -4,10 0,14l71 71c4,4 10,4 14,0l92 -92 92 92c4,4 10,4 14,0l71 -71c4,-4 4,-10 0,-14z"/>
 </g>
</svg>
