<?xml version="1.0" encoding="UTF-8"?>
<!DOCTYPE svg PUBLIC "-//W3C//DTD SVG 1.1//EN" "http://www.w3.org/Graphics/SVG/1.1/DTD/svg11.dtd">
<!-- Creator: CorelDRAW X6 -->
<svg xmlns="http://www.w3.org/2000/svg" xml:space="preserve" width="100%" height="100%" version="1.1" style="shape-rendering:geometricPrecision; text-rendering:geometricPrecision; image-rendering:optimizeQuality; fill-rule:evenodd; clip-rule:evenodd"
viewBox="0 0 500 500"
 xmlns:xlink="http://www.w3.org/1999/xlink">
 <defs>
  <style type="text/css">
   <![CDATA[
    .str0 {stroke:#434242;stroke-width:10}
    .fil0 {fill:url(#id0)}
   ]]>
  </style>
  <linearGradient id="id0" gradientUnits="userSpaceOnUse" x1="439.867" y1="249.999" x2="60.001" y2="249.999">
   <stop offset="0" style="stop-color:#008BFF"/>
   <stop offset="1" style="stop-color:#00AAFF"/>
  </linearGradient>
 </defs>
 <g id="Layer_x0020_1">
  <metadata id="CorelCorpID_0Corel-Layer"/>
  <path class="fil0 str0" d="M350 105l-60 -60c-5,-5 -10,-10 -20,-10 -10,0 -20,10 -20,20l0 20c0,6 -4,10 -10,10 -100,5 -180,88 -180,190 0,105 85,190 190,190 101,0 184,-79 190,-179 0,-3 -1,-6 -3,-8 -2,-2 -4,-3 -7,-3l-60 0c-6,0 -10,4 -10,9 -5,57 -52,101 -110,101 -61,0 -110,-49 -110,-110 0,-57 43,-104 99,-109 3,-1 6,0 8,2 2,2 3,5 3,7l0 20c0,10 10,20 20,20 10,0 15,-5 20,-10l60 -60c13,-13 13,-27 0,-40z"/>
 </g>
</svg>
