<?xml version="1.0" encoding="UTF-8"?>
<!DOCTYPE svg PUBLIC "-//W3C//DTD SVG 1.1//EN" "http://www.w3.org/Graphics/SVG/1.1/DTD/svg11.dtd">
<!-- Creator: CorelDRAW X6 -->
<svg xmlns="http://www.w3.org/2000/svg" xml:space="preserve" width="100%" height="100%" version="1.1" shape-rendering="geometricPrecision" text-rendering="geometricPrecision" image-rendering="optimizeQuality" fill-rule="evenodd" clip-rule="evenodd"
viewBox="0 0 500 500"
 xmlns:xlink="http://www.w3.org/1999/xlink">
 <defs>
   <radialGradient id="id0" gradientUnits="userSpaceOnUse" cx="250" cy="245.78" r="210.976" fx="250" fy="245.78">
    <stop offset="0" stop-color="#00AAFF"/>
    <stop offset="1" stop-color="#008BFF"/>
   </radialGradient>
 </defs>
 <g id="Layer_x0020_1">
  <metadata id="CorelCorpID_0Corel-Layer"/>
  <path fill="url(#id0)" stroke="#2B2A29" stroke-width="10" d="M401 43l-92 91c-3,4 -10,4 -14,0l-5 -5c-10,-10 -15,-10 -20,-10 -10,0 -20,10 -20,20l0 90c0,10 10,20 20,20l90 0c10,0 20,-10 20,-20 0,-5 0,-10 -10,-20l-4 -4c-4,-4 -4,-11 0,-14l91 -92c4,-3 4,-10 0,-14l-42 -42c-4,-4 -11,-4 -14,0zm-272 247l5 5c4,4 4,11 0,14l-91 92c-4,3 -4,10 0,14l42 42c4,4 11,4 14,0l92 -91c3,-4 10,-4 14,0l4 4c10,10 15,10 20,10 10,0 20,-10 20,-20l0 -90c0,-10 -10,-20 -20,-20l-90 0c-10,0 -20,10 -20,20 0,5 0,10 10,20z"/>
 </g>
</svg>
