<?xml version="1.0" encoding="UTF-8"?>
<!DOCTYPE svg PUBLIC "-//W3C//DTD SVG 1.1//EN" "http://www.w3.org/Graphics/SVG/1.1/DTD/svg11.dtd">
<!-- Creator: CorelDRAW X6 -->
<svg xmlns="http://www.w3.org/2000/svg" xml:space="preserve" width="100%" height="100%" version="1.1" shape-rendering="geometricPrecision" text-rendering="geometricPrecision" image-rendering="optimizeQuality" fill-rule="evenodd" clip-rule="evenodd"
viewBox="0 0 500 500"
 xmlns:xlink="http://www.w3.org/1999/xlink">
 <g id="Layer_x0020_1">
  <metadata id="CorelCorpID_0Corel-Layer"/>
  <path fill="#434242" d="M366 193l0 7c0,6 -5,10 -10,10 -70,0 -142,0 -212,0 -5,0 -10,-4 -10,-10l0 -7c0,-14 -3,-17 -7,-21 -7,-7 -21,-7 -28,0l-64 64c-7,7 -7,21 0,28l64 64c7,7 21,7 28,0 4,-4 7,-7 7,-21l0 -7c0,-6 5,-10 10,-10 70,0 142,0 212,0 5,0 10,4 10,10l0 7c0,14 3,17 7,21 7,7 21,7 28,0l64 -64c7,-7 7,-21 0,-28l-64 -64c-7,-7 -21,-7 -28,0 -4,4 -7,7 -7,21z"/>
 </g>
</svg>
