<?xml version="1.0" encoding="UTF-8"?>
<!DOCTYPE svg PUBLIC "-//W3C//DTD SVG 1.1//EN" "http://www.w3.org/Graphics/SVG/1.1/DTD/svg11.dtd">
<!-- Creator: CorelDRAW X6 -->
<svg xmlns="http://www.w3.org/2000/svg" xml:space="preserve" width="100%" height="100%" version="1.1" shape-rendering="geometricPrecision" text-rendering="geometricPrecision" image-rendering="optimizeQuality" fill-rule="evenodd" clip-rule="evenodd"
viewBox="0 0 500 500"
 xmlns:xlink="http://www.w3.org/1999/xlink">
 <defs>
   <linearGradient id="id0" gradientUnits="userSpaceOnUse" x1="401.544" y1="98.456" x2="98.456" y2="401.544">
    <stop offset="0" stop-color="#008BFF"/>
    <stop offset="1" stop-color="#00AAFF"/>
   </linearGradient>
 </defs>
 <g id="Layer_x0020_1">
  <metadata id="CorelCorpID_0Corel-Layer"/>
  <path fill="url(#id0)" stroke="#2B2A29" stroke-width="10" d="M193 134l7 0c6,0 10,5 10,10 0,70 0,142 0,212 0,5 -4,10 -10,10l-7 0c-14,0 -17,3 -21,7 -7,7 -7,21 0,28l64 64c7,7 21,7 28,0l64 -64c7,-7 7,-21 0,-28 -4,-4 -7,-7 -21,-7l-7 0c-6,0 -10,-5 -10,-10 0,-70 0,-142 0,-212 0,-5 4,-10 10,-10l7 0c14,0 17,-3 21,-7 7,-7 7,-21 0,-28l-64 -64c-7,-7 -21,-7 -28,0l-64 64c-7,7 -7,21 0,28 4,4 7,7 21,7z"/>
 </g>
</svg>
