<?xml version="1.0" encoding="UTF-8"?>
<!DOCTYPE svg PUBLIC "-//W3C//DTD SVG 1.1//EN" "http://www.w3.org/Graphics/SVG/1.1/DTD/svg11.dtd">
<!-- Creator: CorelDRAW X6 -->
<svg xmlns="http://www.w3.org/2000/svg" xml:space="preserve" width="100%" height="100%" version="1.1" shape-rendering="geometricPrecision" text-rendering="geometricPrecision" image-rendering="optimizeQuality" fill-rule="evenodd" clip-rule="evenodd"
viewBox="0 0 500 500"
 xmlns:xlink="http://www.w3.org/1999/xlink">
 <g id="Layer_x0020_1">
  <metadata id="CorelCorpID_0Corel-Layer"/>
  <path fill="#FFFFFF" d="M161 421l-6 -6c-4,-4 -4,-10 0,-14l91 -91c4,-4 4,-10 0,-14l-42 -43c-4,-4 -10,-4 -14,0l-91 91c-4,4 -11,4 -15,0l-3 -3c-10,-10 -15,-10 -20,-10 -10,0 -20,10 -20,20l0 90c0,10 10,20 20,20l90 0c10,0 20,-10 20,-20 0,-5 0,-10 -10,-20zm149 -175l91 -91c4,-4 10,-4 14,0l6 6c10,10 15,10 20,10 10,0 20,-10 20,-20l0 -90c0,-10 -10,-20 -20,-20l-90 0c-10,0 -20,10 -20,20 0,5 0,10 10,20l3 3c4,4 4,11 0,15l-91 91c-4,4 -4,10 0,14l43 42c4,4 10,4 14,0z"/>
 </g>
</svg>
