<?xml version="1.0" encoding="UTF-8"?>
<!DOCTYPE svg PUBLIC "-//W3C//DTD SVG 1.1//EN" "http://www.w3.org/Graphics/SVG/1.1/DTD/svg11.dtd">
<!-- Creator: CorelDRAW X6 -->
<svg xmlns="http://www.w3.org/2000/svg" xml:space="preserve" width="100%" height="100%" version="1.1" shape-rendering="geometricPrecision" text-rendering="geometricPrecision" image-rendering="optimizeQuality" fill-rule="evenodd" clip-rule="evenodd"
viewBox="0 0 500 500"
 xmlns:xlink="http://www.w3.org/1999/xlink">
 <defs>
   <radialGradient id="id0" gradientUnits="userSpaceOnUse" cx="249.999" cy="242" r="209.826" fx="249.999" fy="242">
    <stop offset="0" stop-color="#00AAFF"/>
    <stop offset="1" stop-color="#008BFF"/>
   </radialGradient>
 </defs>
 <g id="Layer_x0020_1">
  <metadata id="CorelCorpID_0Corel-Layer"/>
  <path fill="url(#id0)" stroke="#434242" stroke-width="10" d="M136 340l60 -60c5,-5 10,-10 20,-10 10,0 20,10 20,20l0 20c0,5 5,10 10,10l64 0c36,0 65,-27 69,-61 1,-5 5,-9 10,-9l61 0c3,0 5,1 7,3 2,2 3,5 3,8 -6,78 -71,139 -150,139l-64 0c-5,0 -10,5 -10,10l0 20c0,10 -10,20 -20,20 -10,0 -15,-5 -20,-10l-60 -60c-14,-13 -14,-27 0,-40zm228 -180l-60 60c-5,5 -10,10 -20,10 -10,0 -20,-10 -20,-20l0 -20c0,-5 -5,-10 -10,-10l-64 0c-36,0 -65,27 -69,61 -1,5 -5,9 -10,9l-61 0c-3,0 -5,-1 -7,-3 -2,-2 -3,-5 -3,-8 6,-78 71,-139 150,-139l64 0c5,0 10,-5 10,-10l0 -20c0,-10 10,-20 20,-20 10,0 15,5 20,10l60 60c14,13 14,27 0,40z"/>
 </g>
</svg>
