<?xml version="1.0" encoding="UTF-8"?>
<!DOCTYPE svg PUBLIC "-//W3C//DTD SVG 1.1//EN" "http://www.w3.org/Graphics/SVG/1.1/DTD/svg11.dtd">
<!-- Creator: CorelDRAW X6 -->
<svg xmlns="http://www.w3.org/2000/svg" xml:space="preserve" width="100%" height="100%" version="1.1" shape-rendering="geometricPrecision" text-rendering="geometricPrecision" image-rendering="optimizeQuality" fill-rule="evenodd" clip-rule="evenodd"
viewBox="0 0 500 500"
 xmlns:xlink="http://www.w3.org/1999/xlink">
 <g id="Layer_x0020_1">
  <metadata id="CorelCorpID_0Corel-Layer"/>
  <path fill="none" stroke="#434242" stroke-width="15" d="M118 60l264 0c5,0 9,3 10,8l66 360c0,3 0,6 -2,8 -2,3 -5,4 -8,4l-396 0c-3,0 -6,-1 -8,-4 -2,-2 -2,-5 -2,-8l66 -360c1,-5 5,-8 10,-8z"/>
  <path fill="none" stroke="#434242" stroke-width="10" stroke-linecap="round" d="M422 416c-10,-56 -20,-112 -30,-168 -10,-55 -20,-110 -30,-164m-284 332c10,-56 20,-112 30,-168 10,-55 20,-110 30,-164"/>
  <line fill="none" stroke="#434242" stroke-width="30" stroke-linecap="round" x1="250" y1="410" x2="250" y2= "265" />
  <line fill="none" stroke="#434242" stroke-width="25" stroke-linecap="round" x1="250" y1="228" x2="250" y2= "175" />
  <line fill="none" stroke="#434242" stroke-width="15" stroke-linecap="round" x1="250" y1="80" x2="250" y2= "87" />
  <line fill="none" stroke="#434242" stroke-width="20" stroke-linecap="round" x1="250" y1="120" x2="250" y2= "140" />
 </g>
</svg>
