<?xml version="1.0" encoding="UTF-8"?>
<!DOCTYPE svg PUBLIC "-//W3C//DTD SVG 1.1//EN" "http://www.w3.org/Graphics/SVG/1.1/DTD/svg11.dtd">
<!-- Creator: CorelDRAW X6 -->
<svg xmlns="http://www.w3.org/2000/svg" xml:space="preserve" width="100%" height="100%" version="1.1" shape-rendering="geometricPrecision" text-rendering="geometricPrecision" image-rendering="optimizeQuality" fill-rule="evenodd" clip-rule="evenodd"
viewBox="0 0 500 500"
 xmlns:xlink="http://www.w3.org/1999/xlink">
 <g id="Layer_x0020_1">
  <metadata id="CorelCorpID_0Corel-Layer"/>
  <path fill="#434242" d="M118 60l264 0c5,0 9,3 10,8l66 360c0,3 0,6 -2,8 -2,3 -5,4 -8,4l-396 0c-3,0 -6,-1 -8,-4 -2,-2 -2,-5 -2,-8l66 -360c1,-5 5,-8 10,-8z"/>
  <g id="_1674811152">
   <path fill="#FFFFFF" d="M220 425c10,0 20,0 30,0 10,0 20,0 30,0 -4,-70 -7,-124 -10,-166 -6,0 -13,0 -20,0 -7,0 -14,0 -20,0 -3,42 -6,96 -10,166z"/>
   <path fill="#FFFFFF" d="M231 237c6,0 13,0 19,0 6,0 13,0 19,0 -1,-30 -3,-56 -4,-77 -5,0 -10,0 -15,0 -5,0 -10,0 -15,0 -1,21 -3,47 -4,77z"/>
   <path fill="#FFFFFF" d="M236 154c4,0 9,0 14,0 5,0 10,0 14,0 0,-16 -1,-30 -2,-43 -4,0 -8,0 -12,0 -4,0 -8,0 -12,0 -1,13 -2,27 -2,43z"/>
   <path fill="#FFFFFF" d="M238 103c4,0 8,0 12,0 4,0 8,0 12,0 -1,-10 -2,-19 -2,-28 -3,0 -7,0 -10,0 -3,0 -7,0 -10,0 0,9 -1,18 -2,28z"/>
  </g>
  <path fill="#008BFF" d="M60 440c7,0 13,0 20,0 12,-86 23,-160 32,-226 8,-57 15,-108 22,-154 -5,0 -9,0 -14,0 -7,46 -15,97 -24,154 -11,66 -22,140 -36,226zm360 0c7,0 13,0 20,0 -14,-86 -25,-160 -36,-226 -9,-57 -17,-108 -24,-154 -5,0 -9,0 -14,0 7,46 14,97 22,154 9,66 20,140 32,226z"/>
 </g>
</svg>
