<?xml version="1.0" encoding="UTF-8"?>
<!DOCTYPE svg PUBLIC "-//W3C//DTD SVG 1.1//EN" "http://www.w3.org/Graphics/SVG/1.1/DTD/svg11.dtd">
<!-- Creator: CorelDRAW X6 -->
<svg xmlns="http://www.w3.org/2000/svg" xml:space="preserve" width="100%" height="100%" version="1.1" shape-rendering="geometricPrecision" text-rendering="geometricPrecision" image-rendering="optimizeQuality" fill-rule="evenodd" clip-rule="evenodd"
viewBox="0 0 500 500"
 xmlns:xlink="http://www.w3.org/1999/xlink">
 <g id="Layer_x0020_1">
  <metadata id="CorelCorpID_0Corel-Layer"/>
  <path fill="none" stroke="#434242" stroke-width="15" stroke-linecap="round" stroke-linejoin="round" d="M110 272c2,-1 4,-2 6,-2l8 -154c-8,-3 -14,-11 -14,-20 0,-12 9,-21 20,-21 11,0 20,9 20,21 0,9 -6,17 -14,20l8 154c2,0 4,1 6,2 3,1 5,1 5,2l3 7 291 0c12,0 21,10 21,21l0 116c0,11 -9,21 -21,21l-39 0 0 6c0,5 -5,10 -10,10l-80 0c-6,0 -10,-5 -10,-10l0 -6 -120 0 0 6c0,5 -4,10 -10,10l-80 0c-5,0 -10,-5 -10,-10l0 -6 -39 0c-12,0 -21,-10 -21,-21l0 -116c0,-11 9,-21 21,-21l51 0 3 -7c0,-1 3,-1 5,-2zm85 -139c7,-12 10,-25 10,-38 0,-13 -3,-26 -10,-37m-130 75c-7,-12 -10,-25 -10,-38 0,-13 3,-26 10,-37"/>
  <path fill="none" stroke="#434242" stroke-width="10" stroke-linecap="round" d="M65 402l370 0m4 -100c-6,0 -11,5 -11,11 0,6 5,10 11,10 5,0 10,-4 10,-10 0,-6 -5,-11 -10,-11zm-42 0c-6,0 -11,5 -11,11 0,6 5,10 11,10 5,0 10,-4 10,-10 0,-6 -5,-11 -10,-11zm-42 0c-6,0 -11,5 -11,11 0,6 5,10 11,10 6,0 10,-4 10,-10 0,-6 -4,-11 -10,-11zm-186 -229c4,6 6,14 6,22 0,8 -2,16 -6,23m-78 -45c-4,6 -6,14 -6,22 0,8 2,16 6,23"/>
 </g>
</svg>
