<?xml version="1.0" encoding="UTF-8"?>
<!DOCTYPE svg PUBLIC "-//W3C//DTD SVG 1.1//EN" "http://www.w3.org/Graphics/SVG/1.1/DTD/svg11.dtd">
<!-- Creator: CorelDRAW X6 -->
<svg xmlns="http://www.w3.org/2000/svg" xml:space="preserve" width="100%" height="100%" version="1.1" shape-rendering="geometricPrecision" text-rendering="geometricPrecision" image-rendering="optimizeQuality" fill-rule="evenodd" clip-rule="evenodd"
viewBox="0 0 500 500"
 xmlns:xlink="http://www.w3.org/1999/xlink">
 <defs>
   <linearGradient id="id0" gradientUnits="userSpaceOnUse" x1="249.999" y1="300.284" x2="249.999" y2="419.714">
    <stop offset="0" stop-color="#FCFCFD"/>
    <stop offset="1" stop-color="#FFFFFF"/>
   </linearGradient>
 </defs>
 <g id="Layer_x0020_1">
  <metadata id="CorelCorpID_0Corel-Layer"/>
  <rect fill="url(#id0)" stroke="#434242" stroke-width="10" x="30" y="281" width="440" height="157" rx="21" ry="21"/>
  <rect fill="#008BFF" x="51" y="397" width="398.093" height="10.4752"/>
  <path fill="#008BFF" stroke="#434242" stroke-width="7.5" d="M439 302c-6,0 -11,5 -11,11 0,6 5,10 11,10 5,0 10,-4 10,-10 0,-6 -5,-11 -10,-11zm-42 0c-6,0 -11,5 -11,11 0,6 5,10 11,10 5,0 10,-4 10,-10 0,-6 -5,-11 -10,-11zm-42 0c-6,0 -11,5 -11,11 0,6 5,10 11,10 6,0 10,-4 10,-10 0,-6 -4,-11 -10,-11z"/>
  <path fill="#434242" d="M110 265c2,-1 4,-2 6,-3l8 -148c-8,-2 -14,-10 -14,-19 0,-11 9,-20 20,-20 11,0 20,9 20,20 0,9 -6,17 -14,19l8 149c2,0 4,1 6,2 3,1 5,1 5,2l5 13 -60 0 5 -13c0,-1 3,-1 5,-2zm210 190l80 0c5,0 10,-5 10,-10l0 -5 -100 0 0 5c0,5 4,10 10,10zm-220 0l80 0c6,0 10,-5 10,-10l0 -5 -100 0 0 5c0,5 5,10 10,10z"/>
  <path fill="none" stroke="#2B2A29" stroke-width="10" stroke-linecap="round" d="M169 73c4,6 6,14 6,22 0,8 -2,16 -6,23m-78 -45c-4,6 -6,14 -6,22 0,8 2,16 6,23"/>
  <path fill="none" stroke="#2B2A29" stroke-width="15" stroke-linecap="round" d="M195 133c7,-12 10,-25 10,-38 0,-13 -3,-26 -10,-37m-130 75c-7,-12 -10,-25 -10,-38 0,-13 3,-26 10,-37"/>
 </g>
</svg>
