<?xml version="1.0" encoding="UTF-8"?>
<!DOCTYPE svg PUBLIC "-//W3C//DTD SVG 1.1//EN" "http://www.w3.org/Graphics/SVG/1.1/DTD/svg11.dtd">
<!-- Creator: CorelDRAW X6 -->
<svg xmlns="http://www.w3.org/2000/svg" xml:space="preserve" width="100%" height="100%" version="1.1" shape-rendering="geometricPrecision" text-rendering="geometricPrecision" image-rendering="optimizeQuality" fill-rule="evenodd" clip-rule="evenodd"
viewBox="0 0 500 500"
 xmlns:xlink="http://www.w3.org/1999/xlink">
 <g id="Layer_x0020_1">
  <metadata id="CorelCorpID_0Corel-Layer"/>
  <path fill="#434242" d="M51 281l51 0 3 -8c0,-1 3,0 5,-2 2,0 4,-1 6,-2l8 -155c-8,-2 -14,-10 -14,-19 0,-11 9,-20 20,-20 11,0 20,9 20,20 0,9 -6,17 -14,19l8 155c2,1 4,2 6,2 3,2 5,1 5,2l3 8 291 0c12,0 21,10 21,21l0 116c0,11 -9,21 -21,21l-39 0 0 6c0,5 -5,10 -10,10l-80 0c-6,0 -10,-5 -10,-10l0 -6 -120 0 0 6c0,5 -4,10 -10,10l-80 0c-5,0 -10,-5 -10,-10l0 -6 -39 0c-12,0 -21,-10 -21,-21l0 -116c0,-11 9,-21 21,-21zm398 116l-398 0 0 10 398 0 0 -10zm-10 -95c-6,0 -11,5 -11,11 0,6 5,10 11,10 5,0 10,-4 10,-10 0,-6 -5,-11 -10,-11zm-42 0c-6,0 -11,5 -11,11 0,6 5,10 11,10 5,0 10,-4 10,-10 0,-6 -5,-11 -10,-11zm-42 0c-6,0 -11,5 -11,11 0,6 5,10 11,10 6,0 10,-4 10,-10 0,-6 -4,-11 -10,-11z"/>
  <path fill="none" stroke="#2B2A29" stroke-width="10" stroke-linecap="round" d="M169 73c4,6 6,14 6,22 0,8 -2,16 -6,23"/>
  <path fill="none" stroke="#2B2A29" stroke-width="15" stroke-linecap="round" d="M65 133c-7,-12 -10,-25 -10,-38 0,-13 3,-26 10,-37"/>
  <path fill="none" stroke="#2B2A29" stroke-width="10" stroke-linecap="round" d="M91 73c-4,6 -6,14 -6,22 0,8 2,16 6,23"/>
  <path fill="none" stroke="#2B2A29" stroke-width="15" stroke-linecap="round" d="M195 133c7,-12 10,-25 10,-38 0,-13 -3,-26 -10,-37"/>
 </g>
</svg>
