<?xml version="1.0" encoding="UTF-8"?>
<!DOCTYPE svg PUBLIC "-//W3C//DTD SVG 1.1//EN" "http://www.w3.org/Graphics/SVG/1.1/DTD/svg11.dtd">
<!-- Creator: CorelDRAW X6 -->
<svg xmlns="http://www.w3.org/2000/svg" xml:space="preserve" width="100%" height="100%" version="1.1" style="shape-rendering:geometricPrecision; text-rendering:geometricPrecision; image-rendering:optimizeQuality; fill-rule:evenodd; clip-rule:evenodd"
viewBox="0 0 500 500"
 xmlns:xlink="http://www.w3.org/1999/xlink">
 <defs>
  <style type="text/css">
   <![CDATA[
    .str0 {stroke:#2B2A29;stroke-width:0.1}
    .str1 {stroke:#4D4D4D;stroke-width:5}
    .fil0 {fill:none}
    .fil1 {fill:#4D4D4D}
    .fil2 {fill:white}
   ]]>
  </style>
 </defs>
 <g id="Layer_x0020_1">
  <metadata id="CorelCorpID_0Corel-Layer"/>
  
  <path class="fil1" d="M387 252c0,-75 -61,-137 -136,-137l0 -20c-87,0 -158,71 -158,157l-20 0c0,-98 80,-177 178,-177 98,0 177,79 177,177l-41 0zm-149 65l0 -152c0,-7 5,-12 12,-12 7,0 13,5 13,12l0 152c13,5 22,18 22,33 0,19 -16,35 -35,35 -19,0 -35,-16 -35,-35 0,-15 9,-28 23,-33z"/>
  <path class="fil2" d="M250 30c122,0 220,99 220,220 0,122 -98,220 -220,220 -121,0 -220,-98 -220,-220 0,-121 99,-220 220,-220zm137 222c0,-75 -61,-137 -136,-137l0 -20c-87,0 -158,71 -158,157l-20 0c0,-98 80,-177 178,-177 98,0 177,79 177,177 -14,0 -27,0 -41,0zm-149 65l0 -152c0,-7 5,-12 12,-12 7,0 13,5 13,12l0 152c13,5 22,18 22,33 0,19 -16,35 -35,35 -19,0 -35,-16 -35,-35 0,-15 9,-28 23,-33z"/>
  <circle class="fil0 str1" cx="250" cy="250" r="220"/>
 </g>
</svg>
