<?xml version="1.0" encoding="UTF-8"?>
<!DOCTYPE svg PUBLIC "-//W3C//DTD SVG 1.1//EN" "http://www.w3.org/Graphics/SVG/1.1/DTD/svg11.dtd">
<!-- Creator: CorelDRAW X6 -->
<svg xmlns="http://www.w3.org/2000/svg" xml:space="preserve" width="100%" height="100%" version="1.1" style="shape-rendering:geometricPrecision; text-rendering:geometricPrecision; image-rendering:optimizeQuality; fill-rule:evenodd; clip-rule:evenodd"
viewBox="0 0 500 500"
 xmlns:xlink="http://www.w3.org/1999/xlink">
 <defs>
  <style type="text/css">
   <![CDATA[
    .str0 {stroke:#2B2A29;stroke-width:0.1}
    .fil0 {fill:none}
    .fil1 {fill:#333333}
   ]]>
  </style>
 </defs>
 <g id="Layer_x0020_1">
  <metadata id="CorelCorpID_0Corel-Layer"/>
  
  <path class="fil1" d="M250 30c122,0 220,99 220,220 0,122 -98,220 -220,220 -121,0 -220,-98 -220,-220 0,-121 99,-220 220,-220zm158 222l-21 0c0,-38 -15,-72 -40,-96 -24,-25 -59,-41 -96,-41l0 -20c-44,0 -83,18 -112,46 -28,29 -46,68 -46,111l-20 0c0,-49 20,-93 52,-125 32,-32 77,-52 126,-52 49,0 93,20 125,52 32,32 52,76 52,125l-20 0 0 0zm-170 65l0 -152c0,-7 5,-12 12,-12 7,0 13,5 13,12l0 152c13,5 22,18 22,33 0,19 -16,35 -35,35 -19,0 -35,-16 -35,-35 0,-15 9,-28 23,-33z"/>
 </g>
</svg>
