<?xml version="1.0" encoding="UTF-8"?>
<!DOCTYPE svg PUBLIC "-//W3C//DTD SVG 1.1//EN" "http://www.w3.org/Graphics/SVG/1.1/DTD/svg11.dtd">
<!-- Creator: CorelDRAW X6 -->
<svg xmlns="http://www.w3.org/2000/svg" xml:space="preserve" width="100%" height="100%" version="1.1" shape-rendering="geometricPrecision" text-rendering="geometricPrecision" image-rendering="optimizeQuality" fill-rule="evenodd" clip-rule="evenodd"
viewBox="0 0 500 500"
 xmlns:xlink="http://www.w3.org/1999/xlink">
 <g id="Layer_x0020_1">
  <metadata id="CorelCorpID_0Corel-Layer"/>
  <path fill="none" stroke="#434242" stroke-width="11" stroke-linejoin="round" d="M55 31l365 0 50 50 0 365c0,13 -11,25 -25,25l-390 0c-14,0 -25,-12 -25,-25l0 -390c0,-14 11,-25 25,-25z"/>
  <path fill="#434242" d="M290 36l70 0 0 101c0,3 -2,5 -5,5l-60 0c-3,0 -5,-2 -5,-5l0 -101zm-235 -5l365 0 50 50 0 365c0,13 -11,25 -25,25l-390 0c-14,0 -25,-12 -25,-25l0 -390c0,-14 11,-25 25,-25zm35 440l320 0 0 -221 -320 0 0 221zm20 -440l280 0 0 125c0,8 -7,15 -15,15l-250 0c-8,0 -15,-7 -15,-15l0 -125zm-65 344l10 0c6,0 10,4 10,10l0 15c0,6 -4,10 -10,10l-10 0 0 -35z"/>
  <line fill="none" stroke="#434242" stroke-width="15" stroke-linecap="round" x1="370" y1="295" x2="130" y2= "295" />
  <line fill="none" stroke="#434242" stroke-width="15" stroke-linecap="round" x1="370" y1="335" x2="130" y2= "335" />
  <line fill="none" stroke="#434242" stroke-width="15" stroke-linecap="round" x1="370" y1="375" x2="130" y2= "375" />
  <line fill="none" stroke="#434242" stroke-width="15" stroke-linecap="round" x1="370" y1="415" x2="130" y2= "415" />
 </g>
</svg>
