<?xml version="1.0" encoding="UTF-8"?>
<!DOCTYPE svg PUBLIC "-//W3C//DTD SVG 1.1//EN" "http://www.w3.org/Graphics/SVG/1.1/DTD/svg11.dtd">
<!-- Creator: CorelDRAW X6 -->
<svg xmlns="http://www.w3.org/2000/svg" xml:space="preserve" width="100%" height="100%" version="1.1" shape-rendering="geometricPrecision" text-rendering="geometricPrecision" image-rendering="optimizeQuality" fill-rule="evenodd" clip-rule="evenodd"
viewBox="0 0 500 500"
 xmlns:xlink="http://www.w3.org/1999/xlink">
 <defs>
   <linearGradient id="id0" gradientUnits="userSpaceOnUse" x1="249.999" y1="30.694" x2="249.999" y2="470.692">
    <stop offset="0" stop-color="#008BFF"/>
    <stop offset="1" stop-color="#00AAFF"/>
   </linearGradient>
   <linearGradient id="id1" gradientUnits="userSpaceOnUse" x1="284.421" y1="130.457" x2="215.575" y2="70.929">
    <stop offset="0" stop-color="#EBECEC"/>
    <stop offset="1" stop-color="#FEFEFE"/>
   </linearGradient>
   <linearGradient id="id2" gradientUnits="userSpaceOnUse" x1="249.997" y1="448.641" x2="249.997" y2="272.235">
    <stop offset="0" stop-color="#EBECEC"/>
    <stop offset="1" stop-color="#FEFEFE"/>
   </linearGradient>
 </defs>
 <g id="Layer_x0020_1">
  <metadata id="CorelCorpID_0Corel-Layer"/>
  <path fill="url(#id0)" stroke="#434242" stroke-width="10" stroke-linejoin="round" d="M55 31l365 0 50 50 0 365c0,13 -11,25 -25,25l-390 0c-14,0 -25,-12 -25,-25l0 -390c0,-14 11,-25 25,-25z"/>
  <path fill="url(#id1)" stroke="#434242" stroke-width="10" stroke-linejoin="round" d="M110 31l280 0 0 125c0,8 -7,15 -15,15l-250 0c-8,0 -15,-7 -15,-15l0 -125z"/>
  <rect fill="url(#id2)" stroke="#434242" stroke-width="10" stroke-linejoin="round" x="90" y="250" width="320" height="221"/>
  <path fill="#434242" d="M290 29l70 0 0 102c0,2 -2,5 -5,5l-60 0c-3,0 -5,-3 -5,-5l0 -102z"/>
  <line fill="none" stroke="#434242" stroke-width="15" stroke-linecap="round" x1="370" y1="295" x2="130" y2= "295" />
  <line fill="none" stroke="#434242" stroke-width="15" stroke-linecap="round" x1="370" y1="335" x2="130" y2= "335" />
  <line fill="none" stroke="#434242" stroke-width="15" stroke-linecap="round" x1="370" y1="375" x2="130" y2= "375" />
  <line fill="none" stroke="#434242" stroke-width="15" stroke-linecap="round" x1="370" y1="415" x2="130" y2= "415" />
 </g>
</svg>
