<?xml version="1.0" encoding="UTF-8"?>
<!DOCTYPE svg PUBLIC "-//W3C//DTD SVG 1.1//EN" "http://www.w3.org/Graphics/SVG/1.1/DTD/svg11.dtd">
<!-- Creator: CorelDRAW X6 -->
<svg xmlns="http://www.w3.org/2000/svg" xml:space="preserve" width="100%" height="100%" version="1.1" shape-rendering="geometricPrecision" text-rendering="geometricPrecision" image-rendering="optimizeQuality" fill-rule="evenodd" clip-rule="evenodd"
viewBox="0 0 500 500"
 xmlns:xlink="http://www.w3.org/1999/xlink">
 <g id="Layer_x0020_1">
  <metadata id="CorelCorpID_0Corel-Layer"/>
  <path fill="none" stroke="#434242" stroke-width="20" stroke-linejoin="round" d="M55 31l365 0 50 50 0 365c0,13 -11,25 -25,25l-390 0c-14,0 -25,-12 -25,-25l0 -390c0,-14 11,-25 25,-25z"/>
  <path fill="none" stroke="#434242" stroke-width="10" stroke-linejoin="round" d="M90 471l320 0 0 -221 -320 0 0 221zm200 -440l70 0 0 101c0,3 -2,5 -5,5l-60 0c-3,0 -5,-2 -5,-5l0 -101zm-180 0l280 0 0 125c0,8 -7,15 -15,15l-250 0c-8,0 -15,-7 -15,-15l0 -125z"/>
  <path fill="none" stroke="#434242" stroke-width="15" stroke-linecap="round" d="M370 295l-240 0m240 40l-240 0m240 40l-240 0m240 40l-240 0"/>
 </g>
</svg>
