<?xml version="1.0" encoding="UTF-8"?>
<!DOCTYPE svg PUBLIC "-//W3C//DTD SVG 1.1//EN" "http://www.w3.org/Graphics/SVG/1.1/DTD/svg11.dtd">
<!-- Creator: CorelDRAW X6 -->
<svg xmlns="http://www.w3.org/2000/svg" xml:space="preserve" width="100%" height="100%" version="1.1" style="shape-rendering:geometricPrecision; text-rendering:geometricPrecision; image-rendering:optimizeQuality; fill-rule:evenodd; clip-rule:evenodd"
viewBox="0 0 500 500"
 xmlns:xlink="http://www.w3.org/1999/xlink">
 <defs>
  <style type="text/css">
   <![CDATA[
    .str0 {stroke:#4D4D4D;stroke-width:5;stroke-linejoin:round}
    .fil2 {fill:#4D4D4D}
    .fil1 {fill:white}
    .fil0 {fill:#F3F3F4}
   ]]>
  </style>
 </defs>
 <g id="Layer_x0020_1">
  <metadata id="CorelCorpID_0Corel-Layer"/>
  <path class="fil0 str0" d="M164 188l18 10 -35 31 -1 -1c-13,-22 -40,-32 -62,-45l-20 -11c-32,-19 -43,-60 -25,-91 19,-32 60,-43 91,-25l31 18c32,18 43,59 24,91 -5,10 -12,16 -21,23zm-40 -110l22 13c22,13 31,41 19,62 -12,21 -41,28 -64,15l-22 -13c-23,-13 -31,-41 -19,-63 12,-21 41,-27 64,-14zm40 234l18 -10 -35 -31 -1 1c-13,22 -40,32 -62,45l-20 11c-32,19 -43,60 -25,91 19,32 60,43 91,25l31 -18c32,-18 43,-59 24,-91 -5,-10 -12,-16 -21,-23zm-40 110l22 -13c22,-13 31,-41 19,-62 -12,-21 -41,-28 -64,-15l-22 13c-23,13 -31,41 -19,63 12,21 41,27 64,14z"/>
  <path class="fil1 str0" d="M268 250l202 120c-17,19 -54,9 -121,-11 -35,-11 -84,-33 -138,-75l57 -34zm-86 -52l29 18c-14,10 -28,21 -42,34 -7,-7 -15,-14 -22,-21l35 -31zm0 104l288 -172c-17,-19 -54,-9 -121,12 -48,14 -124,51 -202,129l35 31zm14 -53c0,-8 7,-15 15,-15 8,0 15,7 15,15 0,8 -7,15 -15,15 -8,0 -15,-7 -15,-15z"/>
  <circle class="fil2" transform="matrix(3.17838E-014 -1.20009 1.20009 3.17838E-014 210.999 248.999)" r="13"/>
 </g>
</svg>
