<?xml version="1.0" encoding="UTF-8"?>
<!DOCTYPE svg PUBLIC "-//W3C//DTD SVG 1.1//EN" "http://www.w3.org/Graphics/SVG/1.1/DTD/svg11.dtd">
<!-- Creator: CorelDRAW X6 -->
<svg xmlns="http://www.w3.org/2000/svg" xml:space="preserve" width="100%" height="100%" version="1.1" style="shape-rendering:geometricPrecision; text-rendering:geometricPrecision; image-rendering:optimizeQuality; fill-rule:evenodd; clip-rule:evenodd"
viewBox="0 0 500 500"
 xmlns:xlink="http://www.w3.org/1999/xlink">
 <defs>
  <style type="text/css">
   <![CDATA[
    .str0 {stroke:#434242;stroke-width:10;stroke-linejoin:round}
    .fil3 {fill:#434242}
    .fil0 {fill:#EBEBEB}
    .fil1 {fill:#F3F3F4}
    .fil2 {fill:url(#id0)}
   ]]>
  </style>
  <linearGradient id="id0" gradientUnits="userSpaceOnUse" x1="19.25" y1="249.999" x2="190.746" y2="249.999">
   <stop offset="0" style="stop-color:#008BFF"/>
   <stop offset="1" style="stop-color:#00AAFF"/>
  </linearGradient>
 </defs>
 <g id="Layer_x0020_1">
  <metadata id="CorelCorpID_0Corel-Layer"/>
  <path class="fil0 str0" d="M182 302l288 -172c-17,-19 -54,-9 -121,12 -48,14 -124,51 -202,129l35 31z"/>
  <path class="fil1 str0" d="M182 198l288 172c-17,19 -54,9 -121,-11 -48,-15 -124,-52 -202,-130l35 -31z"/>
  <path class="fil2 str0" d="M164 188l18 10 -35 31 -1 -1c-13,-22 -40,-32 -62,-45l-20 -11c-32,-19 -43,-60 -25,-91 19,-32 60,-43 91,-25l31 18c32,18 43,59 24,91 -5,10 -12,16 -21,23zm-40 -110l22 13c22,13 31,41 19,62 -12,21 -41,28 -64,15l-22 -13c-23,-13 -31,-41 -19,-63 12,-21 41,-27 64,-14zm40 234l18 -10 -35 -31 -1 1c-13,22 -40,32 -62,45l-20 11c-32,19 -43,60 -25,91 19,32 60,43 91,25l31 -18c32,-18 43,-59 24,-91 -5,-10 -12,-16 -21,-23zm-40 110l22 -13c22,-13 31,-41 19,-62 -12,-21 -41,-28 -64,-15l-22 13c-23,13 -31,41 -19,63 12,21 41,27 64,14z"/>
  <circle class="fil3" transform="matrix(3.17838E-014 -1.20009 1.20009 3.17838E-014 209.999 249.999)" r="13"/>
 </g>
</svg>
