<?xml version="1.0" encoding="UTF-8"?>
<!DOCTYPE svg PUBLIC "-//W3C//DTD SVG 1.1//EN" "http://www.w3.org/Graphics/SVG/1.1/DTD/svg11.dtd">
<!-- Creator: CorelDRAW X6 -->
<svg xmlns="http://www.w3.org/2000/svg" xml:space="preserve" width="100%" height="100%" version="1.1" style="shape-rendering:geometricPrecision; text-rendering:geometricPrecision; image-rendering:optimizeQuality; fill-rule:evenodd; clip-rule:evenodd"
viewBox="0 0 500 500"
 xmlns:xlink="http://www.w3.org/1999/xlink">
 <defs>
  <style type="text/css">
   <![CDATA[
    .fil0 {fill:#434242}
   ]]>
  </style>
 </defs>
 <g id="Layer_x0020_1">
  <metadata id="CorelCorpID_0Corel-Layer"/>
  <path class="fil0" d="M124 422l22 -13c22,-13 31,-41 19,-62 -12,-21 -41,-28 -64,-15l-22 13c-23,13 -31,41 -19,63 12,21 41,27 64,14zm63 -123l283 -169c-17,-19 -54,-9 -121,12 -48,14 -122,50 -200,127l0 0 -1 2 -1 0 0 0 -1 1c-13,22 -40,32 -62,45l-20 11c-32,19 -43,60 -25,91 19,32 60,43 91,25l31 -18c32,-18 43,-59 24,-91 -5,-10 -12,-16 -21,-23l23 -13zm8 -49c0,-8 7,-15 15,-15 8,0 15,7 15,15 0,8 -7,15 -15,15 -8,0 -15,-7 -15,-15zm-71 -172l22 13c22,13 31,41 19,62 -12,21 -41,28 -64,15l-22 -13c-23,-13 -31,-41 -19,-63 12,-21 41,-27 64,-14zm58 120l6 4 16 10c-13,10 -27,21 -40,33 -4,-4 -8,-7 -12,-11l0 0 0 -1c-2,-1 -3,-3 -5,-4l0 0 -1 -1c-13,-22 -40,-32 -62,-45l-20 -11c-32,-19 -43,-60 -25,-91 19,-32 60,-43 91,-25l31 18c32,18 43,59 24,91 -5,10 -12,16 -21,23l18 10zm93 56l195 116c-17,19 -54,9 -121,-11 -33,-11 -81,-32 -132,-70l58 -35z"/>
 </g>
</svg>
