<?xml version="1.0" encoding="UTF-8"?>
<!DOCTYPE svg PUBLIC "-//W3C//DTD SVG 1.1//EN" "http://www.w3.org/Graphics/SVG/1.1/DTD/svg11.dtd">
<!-- Creator: CorelDRAW X6 -->
<svg xmlns="http://www.w3.org/2000/svg" xml:space="preserve" width="100%" height="100%" version="1.1" shape-rendering="geometricPrecision" text-rendering="geometricPrecision" image-rendering="optimizeQuality" fill-rule="evenodd" clip-rule="evenodd"
viewBox="0 0 500 500"
 xmlns:xlink="http://www.w3.org/1999/xlink">
 <defs>
   <linearGradient id="id0" gradientUnits="userSpaceOnUse" x1="439.356" y1="250.185" x2="60.64" y2="250.185">
    <stop offset="0" stop-color="#008BFF"/>
    <stop offset="1" stop-color="#00AAFF"/>
   </linearGradient>
 </defs>
 <g id="Layer_x0020_1">
  <metadata id="CorelCorpID_0Corel-Layer"/>
  <circle fill="none" stroke="#434242" stroke-width="20" cx="250" cy="250" r="165"/>
  <path fill="url(#id0)" stroke="#434242" stroke-width="10" d="M250 355c8,0 15,7 15,15l0 85c0,9 -7,15 -15,15 -8,0 -15,-6 -15,-15l0 -85c0,-8 7,-15 15,-15zm0 -325c8,0 15,7 15,15l0 85c0,8 -7,15 -15,15 -8,0 -15,-7 -15,-15l0 -85c0,-8 7,-15 15,-15zm220 220c0,8 -7,15 -15,15l-85 0c-8,0 -15,-7 -15,-15 0,-8 7,-15 15,-15l85 0c8,0 15,7 15,15zm-325 0c0,8 -7,15 -15,15l-85 0c-8,0 -15,-7 -15,-15 0,-8 7,-15 15,-15l85 0c8,0 15,7 15,15z"/>
 </g>
</svg>
