<?xml version="1.0" encoding="UTF-8"?>
<!DOCTYPE svg PUBLIC "-//W3C//DTD SVG 1.1//EN" "http://www.w3.org/Graphics/SVG/1.1/DTD/svg11.dtd">
<!-- Creator: CorelDRAW X6 -->
<svg xmlns="http://www.w3.org/2000/svg" xml:space="preserve" width="100%" height="100%" version="1.1" shape-rendering="geometricPrecision" text-rendering="geometricPrecision" image-rendering="optimizeQuality" fill-rule="evenodd" clip-rule="evenodd"
viewBox="0 0 500 500"
 xmlns:xlink="http://www.w3.org/1999/xlink">
 <g id="Layer_x0020_1">
  <metadata id="CorelCorpID_0Corel-Layer"/>
  <path fill="none" stroke="#434242" stroke-width="15" stroke-linejoin="round" d="M120 40l320 0c-15,0 -30,15 -30,30 0,120 0,240 0,360 0,15 -15,30 -30,30l-320 0c15,0 30,-15 30,-30 0,-120 0,-240 0,-360 0,-15 15,-30 30,-30z"/>
  <path fill="none" stroke="#434242" stroke-width="7.5" stroke-linecap="round" d="M120 390l260 0m-260 -25l260 0m-260 -25l260 0m-260 -25l260 0m-260 -25l260 0m-260 -25l260 0m-260 -25l260 0m-260 -25l260 0m-160 -25l160 0m-160 -25l160 0m-160 -25l160 0m-160 -25l160 0"/>
  <path fill="#434242" fill-rule="nonzero" d="M165 116l0 76 16 0c2,0 3,0 3,1 1,0 1,1 1,2 0,1 0,2 -1,2 0,1 -1,1 -3,1l-39 0c-2,0 -3,0 -3,-1 -1,0 -1,-1 -1,-2 0,-1 0,-2 1,-2 0,-1 1,-1 3,-1l16 0 0 -76 -26 0 0 22c0,2 0,3 -1,4 0,0 -1,1 -2,1 -1,0 -2,-1 -2,-1 -1,-1 -1,-2 -1,-4l0 -28 71 0 0 28c0,2 0,3 -1,4 -1,0 -1,1 -2,1 -1,0 -2,-1 -3,-1 0,-1 0,-2 0,-4l0 -22 -26 0z"/>
 </g>
</svg>
