<?xml version="1.0" encoding="UTF-8"?>
<!DOCTYPE svg PUBLIC "-//W3C//DTD SVG 1.1//EN" "http://www.w3.org/Graphics/SVG/1.1/DTD/svg11.dtd">
<!-- Creator: CorelDRAW X6 -->
<svg xmlns="http://www.w3.org/2000/svg" xml:space="preserve" width="100%" height="100%" version="1.1" shape-rendering="geometricPrecision" text-rendering="geometricPrecision" image-rendering="optimizeQuality" fill-rule="evenodd" clip-rule="evenodd"
viewBox="0 0 500 500"
 xmlns:xlink="http://www.w3.org/1999/xlink">
 <defs>
   <linearGradient id="id0" gradientUnits="userSpaceOnUse" x1="249.998" y1="61" x2="249.998" y2="439">
    <stop offset="0" stop-color="#FDFEFE"/>
    <stop offset="0.258824" stop-color="#CDCDCE"/>
    <stop offset="0.74902" stop-color="#FFFFFF"/>
    <stop offset="0.929412" stop-color="#FCFCFD"/>
    <stop offset="1" stop-color="#AAAAAB"/>
   </linearGradient>
 </defs>
 <g id="Layer_x0020_1">
  <metadata id="CorelCorpID_0Corel-Layer"/>
  <path fill="url(#id0)" stroke="#434242" stroke-width="15" stroke-linejoin="round" d="M120 40l320 0c-15,0 -30,15 -30,30 0,120 0,240 0,360 0,15 -15,30 -30,30l-320 0c15,0 30,-15 30,-30 0,-120 0,-240 0,-360 0,-15 15,-30 30,-30z"/>
  <path fill="none" stroke="#008BFF" stroke-width="7.5" stroke-linecap="round" d="M120 390l260 0m-260 -25l260 0m-260 -25l260 0m-260 -25l260 0m-260 -25l260 0m-260 -25l260 0m-260 -25l260 0m-260 -25l260 0m-160 -25l160 0m-160 -25l160 0m-160 -25l160 0m-160 -25l160 0"/>
  <path fill="#008BFF" fill-rule="nonzero" d="M189 114l1 19 -2 0c-2,-9 -5,-14 -15,-14l-11 0 0 62c0,6 0,11 8,11l3 0 0 2 -34 0 0 -2 3 0c8,0 8,-5 8,-11l0 -62 -9 0c-10,0 -15,3 -16,14l-2 0 1 -19 65 0z"/>
 </g>
</svg>
