<?xml version="1.0" encoding="UTF-8"?>
<!DOCTYPE svg PUBLIC "-//W3C//DTD SVG 1.1//EN" "http://www.w3.org/Graphics/SVG/1.1/DTD/svg11.dtd">
<!-- Creator: CorelDRAW X6 -->
<svg xmlns="http://www.w3.org/2000/svg" xml:space="preserve" width="100%" height="100%" version="1.1" style="shape-rendering:geometricPrecision; text-rendering:geometricPrecision; image-rendering:optimizeQuality; fill-rule:evenodd; clip-rule:evenodd"
viewBox="0 0 500 500"
 xmlns:xlink="http://www.w3.org/1999/xlink">
 <defs>
  <style type="text/css">
   <![CDATA[
    .str0 {stroke:#5B5B5B;stroke-width:5}
    .fil0 {fill:none}
    .fil3 {fill:#5B5B5B}
    .fil2 {fill:whitesmoke}
    .fil1 {fill:#FCFCFD}
   ]]>
  </style>
 </defs>
 <g id="Layer_x0020_1">
  <metadata id="CorelCorpID_0Corel-Layer"/>
  <polygon class="fil0 str0" points="50,20 80,420 250,480 420,420 450,20 "/>
  <path class="fil1" d="M50 20l30 400 170 60 170 -60 30 -400 -400 0zm90 277l110 -39 110 39 0 46 -110 -39 -110 39 0 -46zm0 -74l110 -39 110 39 0 46 -110 -39 -110 39 0 -46zm0 -71l110 -39 110 39 0 46 -110 -39 -110 39 0 -46z"/>
  <polygon class="fil2" points="250,434 386,386 410,66 250,66 250,113 360,152 360,198 250,159 250,184 360,223 360,269 250,230 250,258 360,297 360,343 250,304 "/>
  <path class="fil3" d="M140 297l110 -39 110 39 0 46 -110 -39 -110 39 0 -46zm0 -74l110 -39 110 39 0 46 -110 -39 -110 39 0 -46zm0 -71l110 -39 110 39 0 46 -110 -39 -110 39 0 -46z"/>
 </g>
</svg>
