<?xml version="1.0" encoding="UTF-8"?>
<!DOCTYPE svg PUBLIC "-//W3C//DTD SVG 1.1//EN" "http://www.w3.org/Graphics/SVG/1.1/DTD/svg11.dtd">
<!-- Creator: CorelDRAW X6 -->
<svg xmlns="http://www.w3.org/2000/svg" xml:space="preserve" width="100%" height="100%" version="1.1" style="shape-rendering:geometricPrecision; text-rendering:geometricPrecision; image-rendering:optimizeQuality; fill-rule:evenodd; clip-rule:evenodd"
viewBox="0 0 500 500"
 xmlns:xlink="http://www.w3.org/1999/xlink">
 <defs>
  <style type="text/css">
   <![CDATA[
    .fil0 {fill:#434242}
   ]]>
  </style>
 </defs>
 <g id="Layer_x0020_1">
  <metadata id="CorelCorpID_0Corel-Layer"/>
  <path class="fil0" d="M78 296c0,-111 73,-148 158,-148 6,0 11,0 17,0 -79,5 -142,44 -142,148l-33 0zm142 -209c15,-3 45,-3 60,0l-10 15 -10 0 0 15 15 0c10,0 19,8 20,18 88,12 155,61 155,177l-400 0c0,-116 68,-166 155,-177 1,-10 10,-18 20,-18l15 0 0 -15 -10 0 -10 -15zm-180 261c0,5 -1,10 -10,10 0,10 0,20 0,30l440 0c0,-10 0,-20 0,-30 -6,0 -10,-4 -10,-10l0 -10c0,-5 -5,-10 -10,-10l-400 0c-5,0 -10,5 -10,10l0 10z"/>
 </g>
</svg>
