<?xml version="1.0" encoding="UTF-8"?>
<!DOCTYPE svg PUBLIC "-//W3C//DTD SVG 1.1//EN" "http://www.w3.org/Graphics/SVG/1.1/DTD/svg11.dtd">
<!-- Creator: CorelDRAW X6 -->
<svg xmlns="http://www.w3.org/2000/svg" xml:space="preserve" width="100%" height="100%" version="1.1" style="shape-rendering:geometricPrecision; text-rendering:geometricPrecision; image-rendering:optimizeQuality; fill-rule:evenodd; clip-rule:evenodd"
viewBox="0 0 500 500"
 xmlns:xlink="http://www.w3.org/1999/xlink">
 <defs>
  <style type="text/css">
   <![CDATA[
    .str0 {stroke:#2B2A29;stroke-width:7.5}
    .str1 {stroke:#2B2A29;stroke-width:15}
    .fil0 {fill:none}
   ]]>
  </style>
 </defs>
 <g id="Layer_x0020_1">
  <metadata id="CorelCorpID_0Corel-Layer"/>
  <path class="fil0 str0" d="M60 169l170 0 0 50 -170 0 0 -50zm355 0c14,0 25,11 25,25 0,14 -11,25 -25,25 -14,0 -25,-11 -25,-25 0,-14 11,-25 25,-25zm-355 -110l170 0 0 50 -170 0 0 -50zm355 0c14,0 25,11 25,25 0,14 -11,25 -25,25 -14,0 -25,-11 -25,-25 0,-14 11,-25 25,-25zm-355 331l170 0 0 50 -170 0 0 -50zm355 0c14,0 25,11 25,25 0,14 -11,25 -25,25 -14,0 -25,-11 -25,-25 0,-14 11,-25 25,-25zm-355 -110l170 0 0 50 -170 0 0 -50zm355 0c14,0 25,11 25,25 0,14 -11,25 -25,25 -14,0 -25,-11 -25,-25 0,-14 11,-25 25,-25z"/>
  <path class="fil0 str1" d="M49 239l400 0c6,0 10,-5 10,-10l0 -69c0,-5 -4,-10 -10,-10l-400 0c-5,0 -10,5 -10,10l0 69c0,5 5,10 10,10z"/>
  <path class="fil0 str1" d="M49 129l400 0c6,0 10,-5 10,-10l0 -69c0,-6 -4,-10 -10,-10l-400 0c-5,0 -10,4 -10,10l0 69c0,5 5,10 10,10z"/>
  <path class="fil0 str1" d="M49 459l400 0c6,0 10,-4 10,-10l0 -68c0,-6 -4,-10 -10,-10l-400 0c-5,0 -10,4 -10,10l0 68c0,6 5,10 10,10z"/>
  <path class="fil0 str1" d="M49 349l400 0c6,0 10,-4 10,-10l0 -68c0,-6 -4,-10 -10,-10l-400 0c-5,0 -10,4 -10,10l0 68c0,6 5,10 10,10z"/>
 </g>
</svg>
