<?xml version="1.0" encoding="UTF-8"?>
<!DOCTYPE svg PUBLIC "-//W3C//DTD SVG 1.1//EN" "http://www.w3.org/Graphics/SVG/1.1/DTD/svg11.dtd">
<!-- Creator: CorelDRAW X6 -->
<svg xmlns="http://www.w3.org/2000/svg" xml:space="preserve" width="100%" height="100%" version="1.1" style="shape-rendering:geometricPrecision; text-rendering:geometricPrecision; image-rendering:optimizeQuality; fill-rule:evenodd; clip-rule:evenodd"
viewBox="0 0 500 500"
 xmlns:xlink="http://www.w3.org/1999/xlink">
 <defs>
  <style type="text/css">
   <![CDATA[
    .fil0 {fill:#5B5B5B}
    .fil1 {fill:#FEFEFE}
   ]]>
  </style>
 </defs>
 <g id="Layer_x0020_1">
  <metadata id="CorelCorpID_0Corel-Layer"/>
  <path class="fil0" d="M40 20l420 0c11,0 20,9 20,20l0 420c0,11 -9,20 -20,20l-420 0c-11,0 -20,-9 -20,-20l0 -420c0,-11 9,-20 20,-20zm20 421l380 0c5,0 10,-4 10,-10l0 -58c0,-6 -5,-10 -10,-10l-380 0c-6,0 -10,4 -10,10l0 58c0,6 4,10 10,10zm0 -101l380 0c5,0 10,-5 10,-10l0 -59c0,-6 -5,-10 -10,-10l-380 0c-6,0 -10,4 -10,10l0 59c0,5 4,10 10,10zm0 -101l380 0c5,0 10,-4 10,-10l0 -59c0,-5 -5,-10 -10,-10l-380 0c-6,0 -10,5 -10,10l0 59c0,6 4,10 10,10zm0 -100l380 0c5,0 10,-5 10,-10l0 -59c0,-6 -5,-10 -10,-10l-380 0c-6,0 -10,4 -10,10l0 59c0,5 4,10 10,10z"/>
  <path class="fil1" d="M60 441l380 0c5,0 10,-4 10,-10l0 -58c0,-6 -5,-10 -10,-10l-380 0c-6,0 -10,4 -10,10l0 58c0,6 4,10 10,10zm340 -366c14,0 25,11 25,25 0,14 -11,25 -25,25 -14,0 -25,-11 -25,-25 0,-14 11,-25 25,-25zm0 100c14,0 25,12 25,25 0,14 -11,25 -25,25 -14,0 -25,-11 -25,-25 0,-13 11,-25 25,-25zm0 101c14,0 25,11 25,25 0,14 -11,25 -25,25 -14,0 -25,-11 -25,-25 0,-14 11,-25 25,-25zm0 102c14,0 25,11 25,25 0,14 -11,25 -25,25 -14,0 -25,-11 -25,-25 0,-14 11,-25 25,-25zm-325 24l150 0 0 10 -150 0 0 -10zm-10 -24l170 0 0 44 -170 0 0 -44zm10 -78l150 0 0 10 -150 0 0 -10zm-10 -24l170 0 0 44 -170 0 0 -44zm10 -76l150 0 0 10 -150 0 0 -10zm-10 -25l170 0 0 45 -170 0 0 -45zm10 -76l150 0 0 10 -150 0 0 -10zm-10 -24l170 0 0 44 -170 0 0 -44zm-5 265l380 0c5,0 10,-5 10,-10l0 -59c0,-6 -5,-10 -10,-10l-380 0c-6,0 -10,4 -10,10l0 59c0,5 4,10 10,10zm0 -101l380 0c5,0 10,-4 10,-10l0 -59c0,-5 -5,-10 -10,-10l-380 0c-6,0 -10,5 -10,10l0 59c0,6 4,10 10,10zm0 -100l380 0c5,0 10,-5 10,-10l0 -59c0,-6 -5,-10 -10,-10l-380 0c-6,0 -10,4 -10,10l0 59c0,5 4,10 10,10z"/>
  <path class="fil0" d="M400 75c14,0 25,11 25,25 0,14 -11,25 -25,25 -14,0 -25,-11 -25,-25 0,-14 11,-25 25,-25zm0 100c14,0 25,12 25,25 0,14 -11,25 -25,25 -14,0 -25,-11 -25,-25 0,-13 11,-25 25,-25zm0 101c14,0 25,11 25,25 0,14 -11,25 -25,25 -14,0 -25,-11 -25,-25 0,-14 11,-25 25,-25zm0 102c14,0 25,11 25,25 0,14 -11,25 -25,25 -14,0 -25,-11 -25,-25 0,-14 11,-25 25,-25zm-325 24l150 0 0 10 -150 0 0 -10zm-10 -24l170 0 0 44 -170 0 0 -44zm10 -78l150 0 0 10 -150 0 0 -10zm-10 -24l170 0 0 44 -170 0 0 -44zm10 -76l150 0 0 10 -150 0 0 -10zm-10 -25l170 0 0 45 -170 0 0 -45zm10 -76l150 0 0 10 -150 0 0 -10zm-10 -24l170 0 0 44 -170 0 0 -44z"/>
 </g>
</svg>
