<?xml version="1.0" encoding="UTF-8"?>
<!DOCTYPE svg PUBLIC "-//W3C//DTD SVG 1.1//EN" "http://www.w3.org/Graphics/SVG/1.1/DTD/svg11.dtd">
<!-- Creator: CorelDRAW X6 -->
<svg xmlns="http://www.w3.org/2000/svg" xml:space="preserve" width="100%" height="100%" version="1.1" style="shape-rendering:geometricPrecision; text-rendering:geometricPrecision; image-rendering:optimizeQuality; fill-rule:evenodd; clip-rule:evenodd"
viewBox="0 0 500 500"
 xmlns:xlink="http://www.w3.org/1999/xlink">
 <defs>
  <style type="text/css">
   <![CDATA[
    .str1 {stroke:#434242;stroke-width:5}
    .str2 {stroke:#434242;stroke-width:7.5;stroke-linecap:round}
    .str0 {stroke:#434242;stroke-width:10}
    .fil3 {fill:none}
    .fil4 {fill:#434242}
    .fil1 {fill:#008BFF}
    .fil2 {fill:#969797}
    .fil0 {fill:#EBEBEB}
   ]]>
  </style>
 </defs>
 <g id="Layer_x0020_1">
  <metadata id="CorelCorpID_0Corel-Layer"/>
  <path class="fil0 str0" d="M125 30l250 0c3,0 5,2 5,5l0 385 -260 0 0 -385c0,-3 2,-5 5,-5z"/>
  <polygon class="fil1 str0" points="110,350 120,340 380,340 390,350 390,442 110,442 "/>
  <path class="fil2" d="M140 50l220 0 0 50 -220 0 0 -50zm0 70l220 0 0 50 -220 0 0 -50zm0 70l220 0 0 50 -220 0 0 -50z"/>
  <circle class="fil1 str1" cx="250" cy="295" r="20"/>
  <path class="fil3 str2" d="M177 399l145 0m40 0l-25 0m-175 0l-25 0m40 22l145 0m40 0l-25 0m-175 0l-25 0"/>
  <rect class="fil4 str0" x="110" y="440" width="280" height="29.998"/>
 </g>
</svg>
