<?xml version="1.0" encoding="UTF-8"?>
<!DOCTYPE svg PUBLIC "-//W3C//DTD SVG 1.1//EN" "http://www.w3.org/Graphics/SVG/1.1/DTD/svg11.dtd">
<!-- Creator: CorelDRAW X6 -->
<svg xmlns="http://www.w3.org/2000/svg" xml:space="preserve" width="100%" height="100%" version="1.1" style="shape-rendering:geometricPrecision; text-rendering:geometricPrecision; image-rendering:optimizeQuality; fill-rule:evenodd; clip-rule:evenodd"
viewBox="0 0 500 500"
 xmlns:xlink="http://www.w3.org/1999/xlink">
 <defs>
  <style type="text/css">
   <![CDATA[
    .str2 {stroke:#434242;stroke-width:7.5}
    .str1 {stroke:#434242;stroke-width:7.5;stroke-linecap:round}
    .str0 {stroke:#434242;stroke-width:10}
    .str3 {stroke:#434242;stroke-width:40;stroke-linecap:round}
    .fil0 {fill:none}
   ]]>
  </style>
 </defs>
 <g id="Layer_x0020_1">
  <metadata id="CorelCorpID_0Corel-Layer"/>
  <path class="fil0 str0" d="M125 30l250 0c3,0 5,2 5,5l0 305 10 10c0,40 0,80 0,120l-280 0c0,-40 0,-80 0,-120l10 -10 0 -305c0,-3 2,-5 5,-5z"/>
  <line class="fil0 str1" x1="135" y1="380" x2="365" y2= "380" />
  <line class="fil0 str1" x1="135" y1="400" x2="365" y2= "400" />
  <path class="fil0 str2" d="M250 270c14,0 25,11 25,25 0,14 -11,25 -25,25 -14,0 -25,-11 -25,-25 0,-14 11,-25 25,-25z"/>
  <line class="fil0 str3" x1="170" y1="75" x2="330" y2= "75" />
  <line class="fil0 str3" x1="170" y1="145" x2="330" y2= "145" />
  <line class="fil0 str3" x1="170" y1="215" x2="330" y2= "215" />
  <line class="fil0 str1" x1="135" y1="420" x2="365" y2= "420" />
 </g>
</svg>
