<?xml version="1.0" encoding="UTF-8"?>
<!DOCTYPE svg PUBLIC "-//W3C//DTD SVG 1.1//EN" "http://www.w3.org/Graphics/SVG/1.1/DTD/svg11.dtd">
<!-- Creator: CorelDRAW X6 -->
<svg xmlns="http://www.w3.org/2000/svg" xml:space="preserve" width="100%" height="100%" version="1.1" style="shape-rendering:geometricPrecision; text-rendering:geometricPrecision; image-rendering:optimizeQuality; fill-rule:evenodd; clip-rule:evenodd"
viewBox="0 0 500 500"
 xmlns:xlink="http://www.w3.org/1999/xlink">
 <defs>
  <style type="text/css">
   <![CDATA[
    .fil0 {fill:#434242}
   ]]>
  </style>
 </defs>
 <g id="Layer_x0020_1">
  <metadata id="CorelCorpID_0Corel-Layer"/>
  <path class="fil0" d="M125 30l250 0c3,0 5,2 5,5l0 305 10 10c0,40 0,80 0,120l-280 0c0,-40 0,-80 0,-120l10 -10 0 -305c0,-3 2,-5 5,-5zm15 20l220 0 0 50 -220 0 0 -50zm0 70l220 0 0 50 -220 0 0 -50zm0 70l220 0 0 50 -220 0 0 -50zm110 85c11,0 20,9 20,20 0,11 -9,20 -20,20 -11,0 -20,-9 -20,-20 0,-11 9,-20 20,-20zm-115 120l230 0 0 10 -230 0 0 -10zm0 -20l230 0 0 10 -230 0 0 -10z"/>
 </g>
</svg>
