<?xml version="1.0" encoding="UTF-8"?>
<!DOCTYPE svg PUBLIC "-//W3C//DTD SVG 1.1//EN" "http://www.w3.org/Graphics/SVG/1.1/DTD/svg11.dtd">
<!-- Creator: CorelDRAW X6 -->
<svg xmlns="http://www.w3.org/2000/svg" xml:space="preserve" width="100%" height="100%" version="1.1" style="shape-rendering:geometricPrecision; text-rendering:geometricPrecision; image-rendering:optimizeQuality; fill-rule:evenodd; clip-rule:evenodd"
viewBox="0 0 500 500"
 xmlns:xlink="http://www.w3.org/1999/xlink">
 <defs>
  <style type="text/css">
   <![CDATA[
    .str1 {stroke:#434242;stroke-width:10}
    .str0 {stroke:#434242;stroke-width:10;stroke-linejoin:round}
    .fil1 {fill:#434242}
    .fil3 {fill:white}
    .fil0 {fill:url(#id0)}
    .fil2 {fill:url(#id1)}
   ]]>
  </style>
  <linearGradient id="id0" gradientUnits="userSpaceOnUse" x1="469.996" y1="349.999" x2="29.998" y2="349.999">
   <stop offset="0" style="stop-color:#008BFF"/>
   <stop offset="1" style="stop-color:#00AAFF"/>
  </linearGradient>
  <linearGradient id="id1" gradientUnits="userSpaceOnUse" x1="249.97" y1="305.601" x2="249.97" y2="154.401">
   <stop offset="0" style="stop-color:#D1D1D1"/>
   <stop offset="1" style="stop-color:#F7F7F7"/>
  </linearGradient>
 </defs>
 <g id="Layer_x0020_1">
  <metadata id="CorelCorpID_0Corel-Layer"/>
  <path class="fil0 str0" d="M40 340c0,5 -1,10 -10,10 0,10 0,20 0,30l440 0c0,-10 0,-20 0,-30 -6,0 -10,-4 -10,-10l0 -10c0,-5 -5,-10 -10,-10l-400 0c-5,0 -10,5 -10,10l0 10z"/>
  <path class="fil1 str0" d="M220 95c15,-3 45,-3 60,0l-10 15 -10 0 0 15 15 0c11,0 20,9 20,20l0 15 -90 0 0 -15c0,-11 9,-20 20,-20l15 0 0 -15 -10 0 -10 -15z"/>
  <path class="fil2 str1" d="M50 320c0,-135 91,-180 198,-180 111,0 202,45 202,180l-400 0z"/>
  <path class="fil3" d="M78 304c0,-111 73,-148 158,-148 6,0 11,0 17,0 -79,5 -142,44 -142,148l-33 0z"/>
 </g>
</svg>
