<?xml version="1.0" encoding="UTF-8"?>
<!DOCTYPE svg PUBLIC "-//W3C//DTD SVG 1.1//EN" "http://www.w3.org/Graphics/SVG/1.1/DTD/svg11.dtd">
<!-- Creator: CorelDRAW X6 -->
<svg xmlns="http://www.w3.org/2000/svg" xml:space="preserve" width="100%" height="100%" version="1.1" style="shape-rendering:geometricPrecision; text-rendering:geometricPrecision; image-rendering:optimizeQuality; fill-rule:evenodd; clip-rule:evenodd"
viewBox="0 0 500 500"
 xmlns:xlink="http://www.w3.org/1999/xlink">
 <defs>
  <style type="text/css">
   <![CDATA[
    .str0 {stroke:#5B5B5B;stroke-width:5;stroke-linejoin:round}
    .fil1 {fill:none}
    .fil2 {fill:#5B5B5B}
    .fil0 {fill:#F3F3F4}
   ]]>
  </style>
 </defs>
 <g id="Layer_x0020_1">
  <metadata id="CorelCorpID_0Corel-Layer"/>
  <path class="fil0" d="M50 312c0,-116 68,-166 155,-177 1,-10 10,-18 20,-18l15 0 0 -15 -10 0 -10 -15c15,-3 45,-3 60,0l-10 15 -10 0 0 15 15 0c10,0 19,8 20,18 88,12 155,61 155,177l-400 0zm28 -16c0,-111 73,-148 158,-148 6,0 11,0 17,0 -79,5 -142,44 -142,148l-33 0z"/>
  <path class="fil1 str0" d="M50 312c0,-116 68,-166 155,-177 1,-10 10,-18 20,-18l15 0 0 -15 -10 0 -10 -15c15,-3 45,-3 60,0l-10 15 -10 0 0 15 15 0c10,0 19,8 20,18 88,12 155,61 155,177l-400 0z"/>
  <path class="fil2" d="M78 296c0,-111 73,-148 158,-148 6,0 11,0 17,0 -79,5 -142,44 -142,148l-33 0z"/>
  <path class="fil0 str0" d="M40 348c0,5 -1,10 -10,10 0,10 0,20 0,30l440 0c0,-10 0,-20 0,-30 -6,0 -10,-5 -10,-10l0 -10c0,-6 -5,-10 -10,-10l-400 0c-5,0 -10,4 -10,10l0 10z"/>
  <rect class="fil2" x="70" y="314" width="359.997" height="11"/>
 </g>
</svg>
