<?xml version="1.0" encoding="UTF-8"?>
<!DOCTYPE svg PUBLIC "-//W3C//DTD SVG 1.1//EN" "http://www.w3.org/Graphics/SVG/1.1/DTD/svg11.dtd">
<!-- Creator: CorelDRAW X6 -->
<svg xmlns="http://www.w3.org/2000/svg" xml:space="preserve" width="100%" height="100%" version="1.1" style="shape-rendering:geometricPrecision; text-rendering:geometricPrecision; image-rendering:optimizeQuality; fill-rule:evenodd; clip-rule:evenodd"
viewBox="0 0 500 500"
 xmlns:xlink="http://www.w3.org/1999/xlink">
 <defs>
  <style type="text/css">
   <![CDATA[
    .str1 {stroke:#434242;stroke-width:7.5}
    .str0 {stroke:#434242;stroke-width:15;stroke-linejoin:round}
    .str2 {stroke:#434242;stroke-width:20;stroke-linecap:round}
    .fil0 {fill:none}
   ]]>
  </style>
 </defs>
 <g id="Layer_x0020_1">
  <metadata id="CorelCorpID_0Corel-Layer"/>
  <path class="fil0 str0" d="M40 344c0,5 -1,10 -10,10 0,10 0,20 0,30l440 0c0,-10 0,-20 0,-30 -6,0 -10,-4 -10,-10l0 -14c0,-5 -5,-10 -10,-10 0,-116 -67,-165 -155,-177 -1,-10 -15,-18 -25,-18l5 -34c-15,-3 -35,-3 -50,0l5 34c-10,0 -24,8 -25,18 -87,11 -155,61 -155,177 -5,0 -10,5 -10,10l0 14z"/>
  <line class="fil0 str1" x1="50" y1="324" x2="450" y2= "324" />
  <path class="fil0 str2" d="M200 190c-50,0 -90,45 -90,90"/>
 </g>
</svg>
