<?xml version="1.0" encoding="UTF-8"?>
<!DOCTYPE svg PUBLIC "-//W3C//DTD SVG 1.1//EN" "http://www.w3.org/Graphics/SVG/1.1/DTD/svg11.dtd">
<!-- Creator: CorelDRAW X6 -->
<svg xmlns="http://www.w3.org/2000/svg" xml:space="preserve" width="100%" height="100%" version="1.1" style="shape-rendering:geometricPrecision; text-rendering:geometricPrecision; image-rendering:optimizeQuality; fill-rule:evenodd; clip-rule:evenodd"
viewBox="0 0 500 500"
 xmlns:xlink="http://www.w3.org/1999/xlink">
 <defs>
  <style type="text/css">
   <![CDATA[
    .str0 {stroke:#434242;stroke-width:10}
    .fil1 {fill:#434242}
    .fil3 {fill:#008BFF}
    .fil2 {fill:#EBEBEB}
    .fil0 {fill:url(#id0)}
   ]]>
  </style>
  <linearGradient id="id0" gradientUnits="userSpaceOnUse" x1="449.998" y1="250" x2="50" y2="250">
   <stop offset="0" style="stop-color:#EBEBEB"/>
   <stop offset="1" style="stop-color:#DADADA"/>
  </linearGradient>
 </defs>
 <g id="Layer_x0020_1">
  <metadata id="CorelCorpID_0Corel-Layer"/>
  <path class="fil0 str0" d="M55 340l390 0c3,0 5,2 5,5l0 120c0,3 -2,5 -5,5l-390 0c-3,0 -5,-2 -5,-5l0 -120c0,-3 2,-5 5,-5zm0 -155l390 0c3,0 5,2 5,5l0 120c0,3 -2,5 -5,5l-390 0c-3,0 -5,-2 -5,-5l0 -120c0,-3 2,-5 5,-5zm0 -155l390 0c3,0 5,2 5,5l0 120c0,3 -2,5 -5,5l-390 0c-3,0 -5,-2 -5,-5l0 -120c0,-3 2,-5 5,-5z"/>
  <path class="fil1" d="M40 355l10 0 0 100 -10 0c-5,0 -10,-4 -10,-10l0 -80c0,-5 5,-10 10,-10zm420 0l-10 0 0 100 10 0c6,0 10,-4 10,-10l0 -80c0,-5 -4,-10 -10,-10zm-420 -155l10 0 0 100 -10 0c-5,0 -10,-4 -10,-10l0 -80c0,-5 5,-10 10,-10zm420 0l-10 0 0 100 10 0c6,0 10,-4 10,-10l0 -80c0,-5 -4,-10 -10,-10zm-420 -155l10 0 0 100 -10 0c-5,0 -10,-4 -10,-10l0 -80c0,-5 5,-10 10,-10zm420 0l-10 0 0 100 10 0c6,0 10,-4 10,-10l0 -80c0,-5 -4,-10 -10,-10z"/>
  <path class="fil2" d="M460 210c3,0 5,2 5,5 0,3 -2,5 -5,5 -3,0 -5,-2 -5,-5 0,-3 2,-5 5,-5zm0 70c3,0 5,2 5,5 0,3 -2,5 -5,5 -3,0 -5,-2 -5,-5 0,-3 2,-5 5,-5zm0 85c3,0 5,2 5,5 0,3 -2,5 -5,5 -3,0 -5,-2 -5,-5 0,-3 2,-5 5,-5zm0 70c3,0 5,2 5,5 0,3 -2,5 -5,5 -3,0 -5,-2 -5,-5 0,-3 2,-5 5,-5zm0 -380c3,0 5,2 5,5 0,3 -2,5 -5,5 -3,0 -5,-2 -5,-5 0,-3 2,-5 5,-5zm0 70c3,0 5,2 5,5 0,3 -2,5 -5,5 -3,0 -5,-2 -5,-5 0,-3 2,-5 5,-5zm-420 85c3,0 5,2 5,5 0,3 -2,5 -5,5 -3,0 -5,-2 -5,-5 0,-3 2,-5 5,-5zm0 70c3,0 5,2 5,5 0,3 -2,5 -5,5 -3,0 -5,-2 -5,-5 0,-3 2,-5 5,-5zm0 85c3,0 5,2 5,5 0,3 -2,5 -5,5 -3,0 -5,-2 -5,-5 0,-3 2,-5 5,-5zm0 70c3,0 5,2 5,5 0,3 -2,5 -5,5 -3,0 -5,-2 -5,-5 0,-3 2,-5 5,-5zm0 -380c3,0 5,2 5,5 0,3 -2,5 -5,5 -3,0 -5,-2 -5,-5 0,-3 2,-5 5,-5zm0 70c3,0 5,2 5,5 0,3 -2,5 -5,5 -3,0 -5,-2 -5,-5 0,-3 2,-5 5,-5z"/>
  <path class="fil1" d="M66 201l140 0 0 25 -140 0 0 -25zm0 35l140 0 0 25 -140 0 0 -25zm0 35l140 0 0 25 -140 0 0 -25zm0 85l140 0 0 25 -140 0 0 -25zm0 35l140 0 0 25 -140 0 0 -25zm0 35l140 0 0 25 -140 0 0 -25zm0 -380l140 0 0 25 -140 0 0 -25zm0 35l140 0 0 25 -140 0 0 -25zm0 35l140 0 0 25 -140 0 0 -25z"/>
  <path class="fil3" d="M80 205l-10 0 0 10 10 0 0 -10zm0 35l-10 0 0 10 10 0 0 -10zm0 35l-10 0 0 10 10 0 0 -10zm0 85l-10 0 0 10 10 0 0 -10zm0 35l-10 0 0 10 10 0 0 -10zm0 35l-10 0 0 10 10 0 0 -10zm0 -380l-10 0 0 10 10 0 0 -10zm0 35l-10 0 0 10 10 0 0 -10zm0 35l-10 0 0 10 10 0 0 -10zm205 120l140 0 0 10 -140 0 0 -10zm-15 5c0,11 -9,20 -20,20 -11,0 -20,-9 -20,-20 0,-11 9,-20 20,-20 11,0 20,9 20,20zm15 150l140 0 0 10 -140 0 0 -10zm-15 5c0,11 -9,20 -20,20 -11,0 -20,-9 -20,-20 0,-11 9,-20 20,-20 11,0 20,9 20,20zm15 -315l140 0 0 10 -140 0 0 -10zm-15 5c0,11 -9,20 -20,20 -11,0 -20,-9 -20,-20 0,-11 9,-20 20,-20 11,0 20,9 20,20z"/>
 </g>
</svg>
