<?xml version="1.0" encoding="UTF-8"?>
<!DOCTYPE svg PUBLIC "-//W3C//DTD SVG 1.1//EN" "http://www.w3.org/Graphics/SVG/1.1/DTD/svg11.dtd">
<!-- Creator: CorelDRAW X6 -->
<svg xmlns="http://www.w3.org/2000/svg" xml:space="preserve" width="100%" height="100%" version="1.1" shape-rendering="geometricPrecision" text-rendering="geometricPrecision" image-rendering="optimizeQuality" fill-rule="evenodd" clip-rule="evenodd"
viewBox="0 0 500 500"
 xmlns:xlink="http://www.w3.org/1999/xlink">
 <g id="Layer_x0020_1">
  <metadata id="CorelCorpID_0Corel-Layer"/>
  <path fill="none" stroke="#434242" stroke-width="15" stroke-linecap="round" stroke-linejoin="round" d="M201 30l140 0c11,0 20,9 20,20l0 400c0,11 -9,20 -20,20l-280 0c-11,0 -20,-9 -20,-20l0 -260 160 -160z"/>
  <path fill="none" d="M171 190l-130 0 160 -160 0 130c0,17 -14,30 -30,30z"/>
  <path fill="#434242" d="M461 224l-84 -84c-4,-4 -8,-8 -16,-8 -9,0 -17,8 -17,17l0 42c0,4 -4,8 -9,8l-92 0c-79,0 -143,64 -143,143 0,8 8,8 8,0 0,-32 27,-59 59,-59 56,0 112,0 168,0 5,0 9,4 9,9l0 42c0,8 8,16 17,16 8,0 12,-4 16,-8l84 -84c12,-11 12,-22 0,-34z"/>
  <path fill="none" stroke="#434242" stroke-width="10" stroke-linecap="round" stroke-linejoin="round" d="M171 190l-130 0 160 -160 0 130c0,17 -14,30 -30,30z"/>
 </g>
</svg>
