<?xml version="1.0" encoding="UTF-8"?>
<!DOCTYPE svg PUBLIC "-//W3C//DTD SVG 1.1//EN" "http://www.w3.org/Graphics/SVG/1.1/DTD/svg11.dtd">
<!-- Creator: CorelDRAW X6 -->
<svg xmlns="http://www.w3.org/2000/svg" xml:space="preserve" width="100%" height="100%" version="1.1" shape-rendering="geometricPrecision" text-rendering="geometricPrecision" image-rendering="optimizeQuality" fill-rule="evenodd" clip-rule="evenodd"
viewBox="0 0 500 500"
 xmlns:xlink="http://www.w3.org/1999/xlink">
 <g id="Layer_x0020_1">
  <metadata id="CorelCorpID_0Corel-Layer"/>
  <path fill="none" stroke="#434242" stroke-width="15" stroke-linecap="round" stroke-linejoin="round" d="M201 30l140 0c11,0 20,9 20,20l0 400c0,11 -9,20 -20,20l-280 0c-11,0 -20,-9 -20,-20l0 -260 160 -160z"/>
  <path fill="none" stroke="#434242" stroke-width="10" stroke-linecap="round" stroke-linejoin="round" d="M171 190l-130 0 160 -160 0 130c0,17 -14,30 -30,30z"/>
  <g>
   <path fill="#434242" fill-rule="nonzero" d="M379 109l-28 28 -1 0 0 -1 -1 -1 -1 -1 0 -1 -1 0 0 -1 0 -1 -1 -1 0 -1 0 -1 0 -1 -1 -1 0 -1 0 -1 0 -1 0 -1 0 -1 0 -1 1 -1 0 -1 0 -1 0 -1 1 0 0 -1 0 -1 1 -1 0 -1 1 -1 1 -1 0 0 1 -1 1 -1 1 -1 0 0 1 -1 1 0 1 -1 1 0 1 -1 1 0 0 0 1 0 1 -1 1 0 1 0 1 0 1 0 1 0 1 0 1 0 1 0 1 1 1 0 1 0 1 0 1 1 0 0 1 1 1 0 1 1 1 1 1 0 0 1zm34 92l-62 -64 28 -28 62 63 -28 29 0 0zm0 0l0 0 0 0 0 0zm41 -1l-40 0 0 0 0 0 0 0 0 0 0 0 0 0 0 1 0 0 0 0 0 0 0 0 0 1 0 0 0 0 1 0 0 0 0 1 0 0 0 0 0 0 0 0 0 0 0 0 0 0 0 0 0 -1 0 0 -1 0 0 0 0 0 0 -1 -1 0 0 0 28 -29 1 1 0 0 1 1 0 0 1 1 0 0 1 1 0 1 1 0 0 1 1 1 0 0 1 1 0 1 1 1 1 1 0 1 1 1 0 1 0 1 1 1 0 1 1 1 0 1 0 1 0 2 1 1 0 1 0 1 0 1 0 1 0 2 0 -1zm-40 0l0 0 0 0 0 0zm27 28l-28 -28 0 0 0 -1 1 0 0 0 0 0 0 -1 0 0 1 0 0 0 0 0 0 0 0 0 0 0 0 0 0 0 0 0 0 0 0 0 0 0 0 0 -1 0 0 1 0 0 0 0 0 0 0 0 0 1 0 0 0 0 0 0 0 0 0 0 0 0 40 0 0 2 0 1 0 1 0 1 -1 2 0 1 0 1 0 1 -1 2 0 1 -1 1 0 1 -1 1 0 1 -1 1 0 1 -1 1 0 1 -1 0 0 1 -1 1 0 0 -1 1 0 1 -1 0 0 1 -1 0 0 1 -1 0 0 0 0 1 -1 0 0 0zm-28 -28l0 0 0 0 0 0zm-62 63l62 -63 28 28 -62 63 -28 -28zm0 0l28 28 0 1 -1 1 -1 0 -1 1 -1 1 -1 0 0 0 -1 1 -1 0 -1 0 -1 1 -1 0 -1 0 -1 0 -1 0 -1 0 -1 0 -1 0 -1 0 -1 0 -1 0 -1 0 0 -1 -1 0 -1 -1 -1 0 -1 0 -1 -1 -1 -1 0 0 -1 -1 -1 -1 -1 0 0 -1 -1 -1 -1 -1 0 -1 -1 0 0 -1 0 -1 -1 -1 0 -1 0 -1 0 -1 -1 -1 0 -1 0 -1 0 -1 0 -1 0 -1 0 -1 1 -1 0 -1 0 -1 0 -1 1 0 0 -1 0 -1 1 -1 0 -1 1 -1 1 -1 0 0 1 -1zm-237 60l40 0 0 1 0 1 0 1 -1 1 0 1 0 1 0 1 -1 1 0 1 -1 1 0 1 -1 0 0 1 -1 1 0 1 -1 0 -1 1 0 1 -1 0 -1 1 -1 0 -1 1 0 0 -1 1 -1 0 -1 0 -1 1 -1 0 -1 0 -1 0 -1 0 -1 0 -1 0 -1 0 -1 0 -1 0 -1 0 -1 -1 -1 0 -1 0 -1 -1 -1 0 0 -1 -1 0 -1 -1 -1 0 0 -1 -1 -1 -1 0 0 -1 -1 -1 -1 -1 0 0 -1 -1 0 -1 0 -1 -1 -1 0 -1 0 -1 -1 -1 0 -1 0 -1 0 -1 0 -1zm145 -144l0 40 0 0 -5 0 -5 1 -6 0 -5 1 -5 1 -5 2 -5 1 -5 2 -4 2 -5 3 -4 2 -5 3 -4 3 -4 3 -4 3 -3 4 -4 3 -3 4 -3 4 -3 4 -3 5 -2 4 -3 4 -2 5 -2 5 -1 4 -2 5 -1 5 -1 5 -1 6 0 5 0 5 -40 0 0 -7 1 -8 1 -7 1 -7 2 -7 2 -7 2 -7 3 -6 2 -7 4 -6 3 -6 4 -6 4 -5 4 -6 5 -5 5 -5 5 -5 5 -4 6 -5 5 -4 6 -4 6 -3 7 -3 6 -3 7 -3 6 -2 7 -2 7 -1 7 -2 8 -1 7 0 7 0 0 0zm143 40l-143 0 0 -40 143 0 0 40zm0 0l0 -40 1 0 1 0 1 0 1 0 1 0 1 0 1 1 0 0 1 1 1 0 1 1 1 0 1 1 0 0 1 1 1 0 0 1 1 1 1 1 0 0 1 1 0 1 1 1 0 1 0 1 1 1 0 1 0 1 0 1 1 1 0 1 0 1 0 1 0 1 -1 1 0 1 0 1 0 1 -1 1 0 1 0 1 -1 0 0 1 -1 1 0 1 -1 1 -1 0 0 1 -1 1 -1 0 0 1 -1 1 -1 0 -1 1 -1 0 -1 0 0 1 -1 0 -1 0 -1 1 -1 0 -1 0 -1 0 -1 0z"/>
  </g>
 </g>
</svg>
