<?xml version="1.0" encoding="UTF-8"?>
<!DOCTYPE svg PUBLIC "-//W3C//DTD SVG 1.1//EN" "http://www.w3.org/Graphics/SVG/1.1/DTD/svg11.dtd">
<!-- Creator: CorelDRAW X6 -->
<svg xmlns="http://www.w3.org/2000/svg" xml:space="preserve" width="100%" height="100%" version="1.1" shape-rendering="geometricPrecision" text-rendering="geometricPrecision" image-rendering="optimizeQuality" fill-rule="evenodd" clip-rule="evenodd"
viewBox="0 0 500 500"
 xmlns:xlink="http://www.w3.org/1999/xlink">
 <g id="Layer_x0020_1">
  <metadata id="CorelCorpID_0Corel-Layer"/>
  <path fill="none" stroke="#434242" stroke-width="20" stroke-linecap="round" d="M324 350l58 -135c8,-20 1,-32 -22,-36l-110 -19 -109 19c-24,4 -31,16 -23,36l62 133m-118 9c15,0 31,-13 47,-13 15,0 31,13 47,13 16,0 31,-13 47,-13 16,0 31,13 47,13 16,0 31,-13 47,-13 16,0 32,13 47,13 16,0 32,-13 47,-13 16,0 32,13 48,13"/>
  <path fill="none" stroke="#434242" stroke-width="15" stroke-linecap="round" d="M439 396c-16,0 -32,-13 -48,-13 -15,0 -31,13 -47,13 -15,0 -31,-13 -47,-13 -16,0 -31,13 -47,13 -16,0 -31,-13 -47,-13 -16,0 -31,13 -47,13 -16,0 -32,-13 -47,-13 -16,0 -32,13 -47,13"/>
  <path fill="none" stroke="#434242" stroke-width="10" stroke-linecap="round" stroke-linejoin="round" d="M439 431c-16,0 -32,-13 -48,-13 -15,0 -31,13 -47,13 -15,0 -31,-13 -47,-13 -16,0 -31,13 -47,13 -16,0 -31,-13 -47,-13 -16,0 -31,13 -47,13 -16,0 -32,-13 -47,-13 -16,0 -32,13 -47,13m188 -81l0 -187m-109 16l109 -19 110 19 0 -59 -30 0 0 -30 -50 0 0 -40c-20,0 -40,0 -60,0l0 40 -50 0 0 30 -29 0 0 59z"/>
 </g>
</svg>
