<?xml version="1.0" encoding="UTF-8"?>
<!DOCTYPE svg PUBLIC "-//W3C//DTD SVG 1.1//EN" "http://www.w3.org/Graphics/SVG/1.1/DTD/svg11.dtd">
<!-- Creator: CorelDRAW X6 -->
<svg xmlns="http://www.w3.org/2000/svg" xml:space="preserve" width="100%" height="100%" version="1.1" shape-rendering="geometricPrecision" text-rendering="geometricPrecision" image-rendering="optimizeQuality" fill-rule="evenodd" clip-rule="evenodd"
viewBox="0 0 500 500"
 xmlns:xlink="http://www.w3.org/1999/xlink">
 <defs>
   <linearGradient id="id0" gradientUnits="userSpaceOnUse" x1="438.546" y1="396.727" x2="61.624" y2="396.727">
    <stop offset="0" stop-color="#008BFF"/>
    <stop offset="1" stop-color="#00AAFF"/>
   </linearGradient>
 </defs>
 <g id="Layer_x0020_1">
  <metadata id="CorelCorpID_0Corel-Layer"/>
  <path fill="#434242" d="M360 169l0 -54c0,-3 -2,-5 -5,-5l-20 0c-3,0 -5,-2 -5,-5l0 -20c0,-3 -2,-5 -5,-5l-40 0c-1,0 -3,0 -4,-1 0,-1 -1,-3 -1,-4l0 -30c0,-1 0,-3 -1,-4 -1,-1 -2,-1 -4,-1 -17,0 -33,0 -50,0 -3,0 -5,2 -5,5l0 30c0,3 -3,5 -5,5l-40 0c-3,0 -5,2 -5,5l0 20c0,3 -2,5 -5,5l-19 0c-2,0 -5,2 -5,5l0 54c-22,0 -31,17 -23,36l67 144 135 0 62 -144c9,-22 0,-32 -22,-36zm-40 -7l-70 -12 -70 12 0 -27c0,-3 2,-5 5,-5l22 0c3,0 4,-2 5,-5l8 -20c1,-3 2,-5 5,-5l50 0c3,0 4,2 5,5l8 20c1,3 2,5 5,5l22 0c3,0 5,2 5,5l0 27z"/>
  <path fill="url(#id0)" stroke="#434242" stroke-width="10" stroke-linejoin="round" d="M439 417l0 43c-16,0 -32,-13 -48,-13 -15,0 -31,13 -47,13 -15,0 -31,-13 -47,-13 -16,0 -31,13 -47,13 -16,0 -31,-13 -47,-13 -16,0 -31,13 -47,13 -16,0 -32,-13 -47,-13 -16,0 -32,13 -47,13l0 -43c15,0 31,-14 47,-14 15,0 31,14 47,14 16,0 31,-14 47,-14 16,0 31,14 47,14 16,0 31,-14 47,-14 16,0 32,14 47,14 16,0 32,-14 47,-14 16,0 32,14 48,14zm0 -70l0 43c-16,0 -32,-13 -48,-13 -15,0 -31,13 -47,13 -15,0 -31,-13 -47,-13 -16,0 -31,13 -47,13 -16,0 -31,-13 -47,-13 -16,0 -31,13 -47,13 -16,0 -32,-13 -47,-13 -16,0 -32,13 -47,13l0 -43c15,0 31,-14 47,-14 15,0 31,14 47,14 16,0 31,-14 47,-14 16,0 31,14 47,14 16,0 31,-14 47,-14 16,0 32,14 47,14 16,0 32,-14 47,-14 16,0 32,14 48,14z"/>
 </g>
</svg>
