<?xml version="1.0" encoding="UTF-8"?>
<!DOCTYPE svg PUBLIC "-//W3C//DTD SVG 1.1//EN" "http://www.w3.org/Graphics/SVG/1.1/DTD/svg11.dtd">
<!-- Creator: CorelDRAW X6 -->
<svg xmlns="http://www.w3.org/2000/svg" xml:space="preserve" width="100%" height="100%" version="1.1" shape-rendering="geometricPrecision" text-rendering="geometricPrecision" image-rendering="optimizeQuality" fill-rule="evenodd" clip-rule="evenodd"
viewBox="0 0 500 500"
 xmlns:xlink="http://www.w3.org/1999/xlink">
 <g id="Layer_x0020_1">
  <metadata id="CorelCorpID_0Corel-Layer"/>
  <path fill="none" stroke="#434242" stroke-width="20" stroke-linecap="round" d="M220 330l-66 50c-20,15 -16,40 0,40l256 0"/>
  <circle fill="#434242" cx="390" cy="450" r="20"/>
  <circle fill="#434242" cx="147" cy="450" r="20"/>
  <polyline fill="none" stroke="#434242" stroke-width="20" stroke-linecap="round" stroke-linejoin="round" points="45,55 130,80 165,125 "/>
  <path fill="#434242" d="M449 120l-286 0c-3,0 -6,1 -8,4 -2,2 -2,6 -2,9l55 199c1,5 5,8 10,7l214 -18c5,-1 8,-4 9,-9l18 -181c0,-3 -1,-6 -3,-8 -2,-2 -4,-3 -7,-3z"/>
 </g>
</svg>
