<?xml version="1.0" encoding="UTF-8"?>
<!DOCTYPE svg PUBLIC "-//W3C//DTD SVG 1.1//EN" "http://www.w3.org/Graphics/SVG/1.1/DTD/svg11.dtd">
<!-- Creator: CorelDRAW X6 -->
<svg xmlns="http://www.w3.org/2000/svg" xml:space="preserve" width="100%" height="100%" version="1.1" shape-rendering="geometricPrecision" text-rendering="geometricPrecision" image-rendering="optimizeQuality" fill-rule="evenodd" clip-rule="evenodd"
viewBox="0 0 500 500"
 xmlns:xlink="http://www.w3.org/1999/xlink">
 <defs>
   <linearGradient id="id0" gradientUnits="userSpaceOnUse" x1="249.998" y1="155.999" x2="249.998" y2="383.999">
    <stop offset="0" stop-color="#008BFF"/>
    <stop offset="1" stop-color="#00AAFF"/>
   </linearGradient>
 </defs>
 <g id="Layer_x0020_1">
  <metadata id="CorelCorpID_0Corel-Layer"/>
  <path fill="url(#id0)" stroke="#434242" stroke-width="10" d="M100 460l-30 0c-6,0 -10,-4 -10,-10l0 -90c0,-6 4,-10 10,-10l30 0c6,0 10,4 10,10l0 90c0,6 -4,10 -10,10zm110 0l-30 0c-6,0 -10,-4 -10,-10l0 -180c0,-6 4,-10 10,-10l30 0c6,0 10,4 10,10l0 180c0,6 -4,10 -10,10zm115 0l-30 0c-6,0 -10,-4 -10,-10l0 -270c0,-6 4,-10 10,-10l30 0c6,0 10,4 10,10l0 270c0,6 -4,10 -10,10zm105 0l-30 0c-6,0 -10,-4 -10,-10l0 -360c0,-6 4,-10 10,-10l30 0c6,0 10,4 10,10l0 360c0,6 -4,10 -10,10z"/>
 </g>
</svg>
