<?xml version="1.0" encoding="UTF-8"?>
<!DOCTYPE svg PUBLIC "-//W3C//DTD SVG 1.1//EN" "http://www.w3.org/Graphics/SVG/1.1/DTD/svg11.dtd">
<!-- Creator: CorelDRAW X6 -->
<svg xmlns="http://www.w3.org/2000/svg" xml:space="preserve" width="100%" height="100%" version="1.1" style="shape-rendering:geometricPrecision; text-rendering:geometricPrecision; image-rendering:optimizeQuality; fill-rule:evenodd; clip-rule:evenodd"
viewBox="0 0 500 500"
 xmlns:xlink="http://www.w3.org/1999/xlink">
 <defs>
  <style type="text/css">
   <![CDATA[
    .fil1 {fill:#434242}
    .fil2 {fill:#008BFF}
    .fil3 {fill:url(#id0)}
    .fil0 {fill:url(#id1)}
   ]]>
  </style>
  <linearGradient id="id0" gradientUnits="userSpaceOnUse" x1="249.998" y1="86.687" x2="249.998" y2="238.735">
   <stop offset="0" style="stop-color:#008BFF"/>
   <stop offset="1" style="stop-color:#4EAFFF"/>
  </linearGradient>
  <linearGradient id="id1" gradientUnits="userSpaceOnUse" x1="249.998" y1="178.8" x2="249.998" y2="301.2">
   <stop offset="0" style="stop-color:#008BFF"/>
   <stop offset="1" style="stop-color:#00AAFF"/>
  </linearGradient>
 </defs>
 <g id="Layer_x0020_1">
  <metadata id="CorelCorpID_0Corel-Layer"/>
  <rect class="fil0" x="150" y="70" width="200" height="340" rx="10" ry="11"/>
  <path class="fil1" d="M160 50l180 0c17,0 30,13 30,30l0 340c0,17 -13,30 -30,30l-180 0c-17,0 -30,-13 -30,-30l0 -340c0,-17 13,-30 30,-30zm0 20l180 0c5,0 10,4 10,10l0 320c0,6 -5,10 -10,10l-180 0c-6,0 -10,-4 -10,-10l0 -320c0,-6 4,-10 10,-10z"/>
  <circle class="fil2" cx="250" cy="430" r="10"/>
  <path class="fil3" d="M350 178c-25,46 -74,77 -130,77 -25,0 -49,-6 -70,-17l0 -158c0,-6 4,-10 10,-10l180 0c5,0 10,4 10,10l0 98z"/>
 </g>
</svg>
