<?xml version="1.0" encoding="UTF-8"?>
<!DOCTYPE svg PUBLIC "-//W3C//DTD SVG 1.1//EN" "http://www.w3.org/Graphics/SVG/1.1/DTD/svg11.dtd">
<!-- Creator: CorelDRAW X6 -->
<svg xmlns="http://www.w3.org/2000/svg" xml:space="preserve" width="100%" height="100%" version="1.1" style="shape-rendering:geometricPrecision; text-rendering:geometricPrecision; image-rendering:optimizeQuality; fill-rule:evenodd; clip-rule:evenodd"
viewBox="0 0 500 500"
 xmlns:xlink="http://www.w3.org/1999/xlink">
 <defs>
  <style type="text/css">
   <![CDATA[
    .str0 {stroke:#434242;stroke-width:5}
    .str1 {stroke:#434242;stroke-width:15}
    .fil0 {fill:none}
   ]]>
  </style>
 </defs>
 <g id="Layer_x0020_1">
  <metadata id="CorelCorpID_0Corel-Layer"/>
  <path class="fil0 str0" d="M250 412c-6,0 -10,4 -10,10 0,6 4,10 10,10 6,0 10,-4 10,-10 0,-6 -4,-10 -10,-10z"/>
  <path class="fil0 str0" d="M160 70l180 0c5,0 10,5 10,10l0 312c0,5 -5,10 -10,10l-180 0c-5,0 -10,-4 -10,-10l0 -312c0,-6 4,-10 10,-10z"/>
  <path class="fil0 str1" d="M160 50l180 0c17,0 30,13 30,30l0 340c0,17 -13,30 -30,30l-180 0c-17,0 -30,-13 -30,-30l0 -340c0,-17 13,-30 30,-30z"/>
 </g>
</svg>
