<?xml version="1.0" encoding="UTF-8"?>
<!DOCTYPE svg PUBLIC "-//W3C//DTD SVG 1.1//EN" "http://www.w3.org/Graphics/SVG/1.1/DTD/svg11.dtd">
<!-- Creator: CorelDRAW X6 -->
<svg xmlns="http://www.w3.org/2000/svg" xml:space="preserve" width="100%" height="100%" version="1.1" style="shape-rendering:geometricPrecision; text-rendering:geometricPrecision; image-rendering:optimizeQuality; fill-rule:evenodd; clip-rule:evenodd"
viewBox="0 0 500 500"
 xmlns:xlink="http://www.w3.org/1999/xlink">
 <defs>
  <style type="text/css">
   <![CDATA[
    .str1 {stroke:#2B2A29;stroke-width:0.1}
    .str3 {stroke:#008BFF;stroke-width:15}
    .str0 {stroke:#333333;stroke-width:15}
    .str2 {stroke:white;stroke-width:15}
    .fil1 {fill:none}
    .fil0 {fill:url(#id0)}
   ]]>
  </style>
  <linearGradient id="id0" gradientUnits="userSpaceOnUse" x1="250.05" y1="81.464" x2="250.05" y2="418.634">
   <stop offset="0" style="stop-color:#F3F3F4"/>
   <stop offset="1" style="stop-color:#E2E3E3"/>
  </linearGradient>
 </defs>
 <g id="Layer_x0020_1">
  <metadata id="CorelCorpID_0Corel-Layer"/>
  <path class="fil0 str0" d="M40 95l136 0c3,0 5,-1 7,-3l60 -60c4,-4 10,-4 14,0l60 60c2,2 4,3 7,3l136 0c6,0 10,5 10,10l0 290c0,6 -4,10 -10,10l-136 0c-3,0 -5,1 -7,3l-60 60c-4,4 -10,4 -14,0l-60 -60c-2,-2 -4,-3 -7,-3l-136 0c-5,0 -10,-4 -10,-10l0 -290c0,-5 5,-10 10,-10z"/>
  <rect class="fil1 str1" width="500" height="500"/>
  <path class="fil1 str2" d="M461 389l-132 0c-10,0 -14,0 -18,4l-54 52c-4,4 -6,6 -7,6 -1,0 -3,-2 -7,-6l-53 -52c-5,-4 -9,-4 -18,-4l-133 0"/>
  <path class="fil1 str3" d="M86 329l234 0m-234 -40l310 0m-310 -40l193 0m-193 -40l234 0m-234 -40l158 0"/>
 </g>
</svg>
