<?xml version="1.0" encoding="UTF-8"?>
<!DOCTYPE svg PUBLIC "-//W3C//DTD SVG 1.1//EN" "http://www.w3.org/Graphics/SVG/1.1/DTD/svg11.dtd">
<!-- Creator: CorelDRAW X6 -->
<svg xmlns="http://www.w3.org/2000/svg" xml:space="preserve" width="100%" height="100%" version="1.1" style="shape-rendering:geometricPrecision; text-rendering:geometricPrecision; image-rendering:optimizeQuality; fill-rule:evenodd; clip-rule:evenodd"
viewBox="0 0 500 500"
 xmlns:xlink="http://www.w3.org/1999/xlink">
 <defs>
  <style type="text/css">
   <![CDATA[
    .str1 {stroke:#2B2A29;stroke-width:0.1}
    .str0 {stroke:#333333;stroke-width:5}
    .str2 {stroke:#4D4D4D;stroke-width:20}
    .fil1 {fill:none}
    .fil0 {fill:white}
   ]]>
  </style>
 </defs>
 <g id="Layer_x0020_1">
  <metadata id="CorelCorpID_0Corel-Layer"/>
  <path class="fil0 str0" d="M40 95l136 0c3,0 5,-1 7,-3l60 -60c4,-4 10,-4 14,0l60 60c2,2 4,3 7,3l136 0c6,0 10,5 10,10l0 290c0,6 -4,10 -10,10l-136 0c-3,0 -5,1 -7,3l-60 60c-4,4 -10,4 -14,0l-60 -60c-2,-2 -4,-3 -7,-3l-136 0c-5,0 -10,-4 -10,-10l0 -290c0,-5 5,-10 10,-10z"/>
  <rect class="fil1 str1" width="500" height="500"/>
  <path class="fil1 str2" d="M86 329l234 0m-234 -40l310 0m-310 -40l193 0m-193 -40l234 0m-234 -40l158 0"/>
 </g>
</svg>
