<?xml version="1.0" encoding="UTF-8"?>
<!DOCTYPE svg PUBLIC "-//W3C//DTD SVG 1.1//EN" "http://www.w3.org/Graphics/SVG/1.1/DTD/svg11.dtd">
<!-- Creator: CorelDRAW X6 -->
<svg xmlns="http://www.w3.org/2000/svg" xml:space="preserve" width="100%" height="100%" version="1.1" style="shape-rendering:geometricPrecision; text-rendering:geometricPrecision; image-rendering:optimizeQuality; fill-rule:evenodd; clip-rule:evenodd"
viewBox="0 0 500 500"
 xmlns:xlink="http://www.w3.org/1999/xlink">
 <defs>
  <style type="text/css">
   <![CDATA[
    .str0 {stroke:#2B2A29;stroke-width:0.1}
    .fil0 {fill:none}
    .fil1 {fill:#333333}
   ]]>
  </style>
 </defs>
 <g id="Layer_x0020_1">
  <metadata id="CorelCorpID_0Corel-Layer"/>
  <rect class="fil0 str0" width="500" height="500"/>
  <path class="fil1" d="M409 375l-11 11 -15 0 0 15 -10 11 10 10 0 15 15 0 11 11 11 -11 15 0 0 -15 11 -10 -11 -11 0 -15 -15 0 -11 -11zm-3 -257l-120 121 98 98c26,26 42,9 66,33 23,23 23,60 0,83 -22,23 -59,23 -82,0 -24,-24 -8,-41 -34,-66l-98 -98 -10 10 7 7c4,4 4,10 0,14l-4 4c-1,1 -4,2 -6,2l-2 0c-4,0 -8,3 -9,8l-1 6c-1,2 -2,3 -3,5l-114 113c-13,14 -26,14 -39,1l-14 -13c-13,-13 -13,-27 1,-40l113 -114c2,-1 3,-2 5,-3l6 -1c5,-1 8,-5 8,-9l0 -2c0,-2 1,-4 2,-6l4 -4c4,-4 10,-4 14,0l7 7 10 -10 -59 -60c-19,-15 -46,-5 -79,-23 -34,-18 -43,-64 -40,-100l15 -9 31 53c1,2 5,3 8,2l43 -25c3,-2 4,-6 2,-8l-30 -54 17 -10c25,15 72,46 71,72 -1,26 -5,36 16,57l55 55 121 -120 8 -21 44 -24 17 17 -24 44 -21 8zm-342 314l116 -115 3 3 -115 116 -4 -4zm133 -98l-116 115 -3 -3 115 -116 4 4zm-146 85l116 -115 3 3 -115 116 -4 -4z"/>
 </g>
</svg>
