<?xml version="1.0" encoding="UTF-8"?>
<!DOCTYPE svg PUBLIC "-//W3C//DTD SVG 1.1//EN" "http://www.w3.org/Graphics/SVG/1.1/DTD/svg11.dtd">
<!-- Creator: CorelDRAW X6 -->
<svg xmlns="http://www.w3.org/2000/svg" xml:space="preserve" width="100%" height="100%" version="1.1" shape-rendering="geometricPrecision" text-rendering="geometricPrecision" image-rendering="optimizeQuality" fill-rule="evenodd" clip-rule="evenodd"
viewBox="0 0 500 500"
 xmlns:xlink="http://www.w3.org/1999/xlink">
 <defs>
   <radialGradient id="id0" gradientUnits="userSpaceOnUse" cx="250" cy="242.562" r="137.165" fx="250" fy="242.562">
    <stop offset="0" stop-color="#00AAFF"/>
    <stop offset="1" stop-color="#008BFF"/>
   </radialGradient>
 </defs>
 <g id="Layer_x0020_1">
  <metadata id="CorelCorpID_0Corel-Layer"/>
  <path fill="url(#id0)" stroke="#434242" stroke-width="10" d="M369 445l-102 -75c-10,-7 -24,-7 -34,0l-102 75c-5,3 -12,-2 -10,-8l39 -120c3,-12 -1,-25 -11,-32l-102 -74c-5,-4 -2,-12 4,-13l126 1c13,-1 24,-9 28,-20l39 -120c2,-6 10,-6 12,0l39 120c4,11 15,19 28,20l126 -1c6,1 9,9 4,13l-102 74c-10,7 -14,20 -11,32l39 120c2,6 -5,11 -10,8z"/>
 </g>
</svg>
