<?xml version="1.0" encoding="UTF-8"?>
<!DOCTYPE svg PUBLIC "-//W3C//DTD SVG 1.1//EN" "http://www.w3.org/Graphics/SVG/1.1/DTD/svg11.dtd">
<!-- Creator: CorelDRAW X6 -->
<svg xmlns="http://www.w3.org/2000/svg" xml:space="preserve" width="100%" height="100%" version="1.1" style="shape-rendering:geometricPrecision; text-rendering:geometricPrecision; image-rendering:optimizeQuality; fill-rule:evenodd; clip-rule:evenodd"
viewBox="0 0 500 500"
 xmlns:xlink="http://www.w3.org/1999/xlink">
 <defs>
  <style type="text/css">
   <![CDATA[
    .str1 {stroke:red;stroke-width:0.1}
    .str0 {stroke:#333333;stroke-width:5;stroke-linejoin:round}
    .fil2 {fill:none}
    .fil0 {fill:#008BFF}
    .fil1 {fill:#9DD2FF}
   ]]>
  </style>
 </defs>
 <g id="Layer_x0020_1">
  <metadata id="CorelCorpID_0Corel-Layer"/>
  <polygon class="fil0" points="302,201 250,40 250,250 250,250 166,300 30,200 250,250 250,250 114,460 250,361 386,460 250,250 334,300 470,200 250,250 "/>
  <path class="fil1" d="M250 250l-136 210 52 -160 84 -50 52 -49 168 -1 -220 50zm-52 -49l-168 -1 220 50 0 -210 -52 161zm52 49l136 210 -52 -160 -84 -50z"/>
  <polygon class="fil2 str0" points="250,40 302,201 470,200 334,300 386,460 250,361 114,460 166,300 30,200 198,201 "/>
  
 </g>
</svg>
