<?xml version="1.0" encoding="UTF-8"?>
<!DOCTYPE svg PUBLIC "-//W3C//DTD SVG 1.1//EN" "http://www.w3.org/Graphics/SVG/1.1/DTD/svg11.dtd">
<!-- Creator: CorelDRAW X6 -->
<svg xmlns="http://www.w3.org/2000/svg" xml:space="preserve" width="100%" height="100%" version="1.1" style="shape-rendering:geometricPrecision; text-rendering:geometricPrecision; image-rendering:optimizeQuality; fill-rule:evenodd; clip-rule:evenodd"
viewBox="0 0 500 500"
 xmlns:xlink="http://www.w3.org/1999/xlink">
 <defs>
  <style type="text/css">
   <![CDATA[
    .fil0 {fill:#434242}
   ]]>
  </style>
 </defs>
 <g id="Layer_x0020_1">
  <metadata id="CorelCorpID_0Corel-Layer"/>
  <path class="fil0" d="M50 20l30 400 170 60 170 -60 30 -400 -400 0zm200 100c13,0 24,11 24,24 0,6 -3,12 -7,17l0 48 34 -34c0,-6 2,-12 7,-17 9,-9 25,-9 34,0 9,9 9,25 0,34 -5,5 -11,7 -17,7l-34 34 48 0c5,-4 11,-7 17,-7 13,0 24,11 24,24 0,13 -11,24 -24,24 -6,0 -12,-3 -17,-7l-48 0 34 34c6,0 12,2 17,7 9,9 9,25 0,34 -9,9 -25,9 -34,0 -5,-5 -7,-11 -7,-17l-34 -34 0 48c4,5 7,11 7,17 0,13 -11,24 -24,24 -13,0 -24,-11 -24,-24 0,-6 3,-12 7,-17l0 -48 -34 34c0,6 -2,12 -7,17 -9,9 -25,9 -34,0 -9,-9 -9,-25 0,-34 5,-5 11,-7 17,-7l34 -34 -48 0c-5,4 -11,7 -17,7 -13,0 -24,-11 -24,-24 0,-13 11,-24 24,-24 6,0 12,3 17,7l48 0 -34 -34c-6,0 -12,-2 -17,-7 -9,-9 -9,-25 0,-34 9,-9 25,-9 34,0 5,5 7,11 7,17l34 34 0 -48c-4,-5 -7,-11 -7,-17 0,-13 11,-24 24,-24z"/>
 </g>
</svg>
