<?xml version="1.0" encoding="UTF-8"?>
<!DOCTYPE svg PUBLIC "-//W3C//DTD SVG 1.1//EN" "http://www.w3.org/Graphics/SVG/1.1/DTD/svg11.dtd">
<!-- Creator: CorelDRAW X6 -->
<svg xmlns="http://www.w3.org/2000/svg" xml:space="preserve" width="100%" height="100%" version="1.1" style="shape-rendering:geometricPrecision; text-rendering:geometricPrecision; image-rendering:optimizeQuality; fill-rule:evenodd; clip-rule:evenodd"
viewBox="0 0 500 500"
 xmlns:xlink="http://www.w3.org/1999/xlink">
 <defs>
  <style type="text/css">
   <![CDATA[
    .str1 {stroke:#333333;stroke-width:5;stroke-linejoin:round}
    .str0 {stroke:#434242;stroke-width:10;stroke-linejoin:round}
    .fil4 {fill:none}
    .fil2 {fill:#EDEDED}
    .fil3 {fill:#FCFCFD}
    .fil1 {fill:url(#id0)}
    .fil0 {fill:url(#id1)}
   ]]>
  </style>
  <linearGradient id="id0" gradientUnits="userSpaceOnUse" x1="329.998" y1="434.002" x2="329.998" y2="65.998">
   <stop offset="0" style="stop-color:#4EAFFF"/>
   <stop offset="1" style="stop-color:#279DFF"/>
  </linearGradient>
  <linearGradient id="id1" gradientUnits="userSpaceOnUse" x1="249.998" y1="20.001" x2="249.998" y2="479.999">
   <stop offset="0" style="stop-color:#008BFF"/>
   <stop offset="1" style="stop-color:#00AAFF"/>
  </linearGradient>
 </defs>
 <g id="Layer_x0020_1">
  <metadata id="CorelCorpID_0Corel-Layer"/>
  <polygon class="fil0 str0" points="50,20 80,420 250,480 420,420 450,20 "/>
  <polygon class="fil1" points="250,434 386,386 410,66 250,66 "/>
  <path class="fil2" d="M250 380c-13,0 -24,-11 -24,-24 0,-6 3,-12 7,-17l0 -48 -34 34c0,6 -2,12 -7,17 -9,9 -25,9 -34,0 -9,-9 -9,-25 0,-34 5,-5 11,-7 17,-7l34 -34 -48 0c-5,4 -11,7 -17,7 -13,0 -24,-11 -24,-24 0,-13 11,-24 24,-24 6,0 12,3 17,7l48 0 -34 -34c-6,0 -12,-2 -17,-7 -9,-9 -9,-25 0,-34 9,-9 25,-9 34,0 5,5 7,11 7,17l34 34 0 -48c-4,-5 -7,-11 -7,-17 0,-13 11,-24 24,-24l0 260z"/>
  <path class="fil3" d="M250 380c13,0 24,-11 24,-24 0,-6 -3,-12 -7,-17l0 -48 34 34c0,6 2,12 7,17 9,9 25,9 34,0 9,-9 9,-25 0,-34 -5,-5 -11,-7 -17,-7l-34 -34 48 0c5,4 11,7 17,7 13,0 24,-11 24,-24 0,-13 -11,-24 -24,-24 -6,0 -12,3 -17,7l-48 0 34 -34c6,0 12,-2 17,-7 9,-9 9,-25 0,-34 -9,-9 -25,-9 -34,0 -5,5 -7,11 -7,17l-34 34 0 -48c4,-5 7,-11 7,-17 0,-13 -11,-24 -24,-24l0 260z"/>
  <path class="fil4 str1" d="M250 120c13,0 24,11 24,24 0,6 -3,12 -7,17l0 48 34 -34c0,-6 2,-12 7,-17 9,-9 25,-9 34,0 9,9 9,25 0,34 -5,5 -11,7 -17,7l-34 34 48 0c5,-4 11,-7 17,-7 13,0 24,11 24,24 0,13 -11,24 -24,24 -6,0 -12,-3 -17,-7l-48 0 34 34c6,0 12,2 17,7 9,9 9,25 0,34 -9,9 -25,9 -34,0 -5,-5 -7,-11 -7,-17l-34 -34 0 48c4,5 7,11 7,17 0,13 -11,24 -24,24 -13,0 -24,-11 -24,-24 0,-6 3,-12 7,-17l0 -48 -34 34c0,6 -2,12 -7,17 -9,9 -25,9 -34,0 -9,-9 -9,-25 0,-34 5,-5 11,-7 17,-7l34 -34 -48 0c-5,4 -11,7 -17,7 -13,0 -24,-11 -24,-24 0,-13 11,-24 24,-24 6,0 12,3 17,7l48 0 -34 -34c-6,0 -12,-2 -17,-7 -9,-9 -9,-25 0,-34 9,-9 25,-9 34,0 5,5 7,11 7,17l34 34 0 -48c-4,-5 -7,-11 -7,-17 0,-13 11,-24 24,-24z"/>
 </g>
</svg>
