<?xml version="1.0" encoding="UTF-8"?>
<!DOCTYPE svg PUBLIC "-//W3C//DTD SVG 1.1//EN" "http://www.w3.org/Graphics/SVG/1.1/DTD/svg11.dtd">
<!-- Creator: CorelDRAW X6 -->
<svg xmlns="http://www.w3.org/2000/svg" xml:space="preserve" width="100%" height="100%" version="1.1" style="shape-rendering:geometricPrecision; text-rendering:geometricPrecision; image-rendering:optimizeQuality; fill-rule:evenodd; clip-rule:evenodd"
viewBox="0 0 500 500"
 xmlns:xlink="http://www.w3.org/1999/xlink">
 <defs>
  <style type="text/css">
   <![CDATA[
    .fil0 {fill:#434242}
   ]]>
  </style>
 </defs>
 <g id="Layer_x0020_1">
  <metadata id="CorelCorpID_0Corel-Layer"/>
  <path class="fil0" d="M105 30l290 0c16,0 30,14 30,30l0 380c0,17 -14,30 -30,30l-290 0c-16,0 -30,-13 -30,-30l0 -380c0,-16 14,-30 30,-30zm5 20l280 0c8,0 15,7 15,15l0 350c0,8 -7,15 -15,15l-280 0c-8,0 -15,-7 -15,-15l0 -350c0,-8 7,-15 15,-15zm140 390c6,0 10,4 10,10 0,6 -4,10 -10,10 -6,0 -10,-4 -10,-10 0,-6 4,-10 10,-10z"/>
 </g>
</svg>
