<?xml version="1.0" encoding="UTF-8"?>
<!DOCTYPE svg PUBLIC "-//W3C//DTD SVG 1.1//EN" "http://www.w3.org/Graphics/SVG/1.1/DTD/svg11.dtd">
<!-- Creator: CorelDRAW X6 -->
<svg xmlns="http://www.w3.org/2000/svg" xml:space="preserve" width="100%" height="100%" version="1.1" style="shape-rendering:geometricPrecision; text-rendering:geometricPrecision; image-rendering:optimizeQuality; fill-rule:evenodd; clip-rule:evenodd"
viewBox="0 0 500 500"
 xmlns:xlink="http://www.w3.org/1999/xlink">
 <defs>
  <style type="text/css">
   <![CDATA[
    .fil0 {fill:#434242}
    .fil3 {fill:#008BFF}
    .fil2 {fill:url(#id0)}
    .fil1 {fill:url(#id1)}
   ]]>
  </style>
  <linearGradient id="id0" gradientUnits="userSpaceOnUse" x1="250" y1="251.796" x2="250" y2="82.85">
   <stop offset="0" style="stop-color:#4EAFFF"/>
   <stop offset="1" style="stop-color:#008BFF"/>
  </linearGradient>
  <linearGradient id="id1" gradientUnits="userSpaceOnUse" x1="250" y1="171.6" x2="250" y2="308.401">
   <stop offset="0" style="stop-color:#008BFF"/>
   <stop offset="1" style="stop-color:#00AAFF"/>
  </linearGradient>
 </defs>
 <g id="Layer_x0020_1">
  <metadata id="CorelCorpID_0Corel-Layer"/>
  <path class="fil0" d="M105 30l290 0c16,0 30,14 30,30l0 380c0,17 -14,30 -30,30l-290 0c-16,0 -30,-13 -30,-30l0 -380c0,-16 14,-30 30,-30zm5 20l280 0c8,0 15,7 15,15l0 350c0,8 -7,15 -15,15l-280 0c-8,0 -15,-7 -15,-15l0 -350c0,-8 7,-15 15,-15z"/>
  <rect class="fil1" x="95" y="50" width="310" height="380" rx="15" ry="16"/>
  <path class="fil2" d="M110 50l280 0c8,0 15,7 15,15l0 83c-34,80 -114,137 -207,137 -37,0 -72,-9 -103,-26l0 -194c0,-8 7,-15 15,-15z"/>
  <circle class="fil3" cx="250" cy="450" r="10"/>
 </g>
</svg>
