<?xml version="1.0" encoding="UTF-8"?>
<!DOCTYPE svg PUBLIC "-//W3C//DTD SVG 1.1//EN" "http://www.w3.org/Graphics/SVG/1.1/DTD/svg11.dtd">
<!-- Creator: CorelDRAW X6 -->
<svg xmlns="http://www.w3.org/2000/svg" xml:space="preserve" width="100%" height="100%" version="1.1" shape-rendering="geometricPrecision" text-rendering="geometricPrecision" image-rendering="optimizeQuality" fill-rule="evenodd" clip-rule="evenodd"
viewBox="0 0 500 500"
 xmlns:xlink="http://www.w3.org/1999/xlink">
 <g id="Layer_x0020_1">
  <metadata id="CorelCorpID_0Corel-Layer"/>
  <path fill="#434242" d="M453 283l-230 -230c-2,-2 -5,-3 -7,-3l-156 0c-6,0 -10,4 -10,10l0 156c0,2 1,5 3,7l230 230c4,4 11,4 14,0l156 -156c4,-3 4,-10 0,-14zm-344 -174c10,-10 27,-10 37,0 11,10 11,27 0,37 -10,11 -27,11 -37,0 -10,-10 -10,-27 0,-37zm47 174l86 -85 7 7 -86 85 -7 -7zm28 29l128 -128 7 7 -128 128 -7 -7zm29 28l58 -58 7 7 -58 58 -7 -7zm28 28l93 -93 7 7 -93 93 -7 -7zm28 28l111 -111 7 8 -111 111 -7 -8zm-172 -299c17,-17 45,-17 62,0 17,17 17,45 0,62 -17,17 -45,17 -62,0 -17,-17 -17,-45 0,-62zm5 5c-14,14 -14,37 0,51 14,14 37,14 51,0 14,-14 14,-37 0,-51 -14,-14 -37,-14 -51,0z"/>
 </g>
</svg>
