<?xml version="1.0" encoding="UTF-8"?>
<!DOCTYPE svg PUBLIC "-//W3C//DTD SVG 1.1//EN" "http://www.w3.org/Graphics/SVG/1.1/DTD/svg11.dtd">
<!-- Creator: CorelDRAW X6 -->
<svg xmlns="http://www.w3.org/2000/svg" xml:space="preserve" width="100%" height="100%" version="1.1" shape-rendering="geometricPrecision" text-rendering="geometricPrecision" image-rendering="optimizeQuality" fill-rule="evenodd" clip-rule="evenodd"
viewBox="0 0 500 500"
 xmlns:xlink="http://www.w3.org/1999/xlink">
 <g id="Layer_x0020_1">
  <metadata id="CorelCorpID_0Corel-Layer"/>
  <path fill="none" stroke="#434242" stroke-width="20" d="M453 283l-230 -230c-2,-2 -5,-3 -7,-3l-156 0c-6,0 -10,4 -10,10l0 156c0,2 1,5 3,7l230 230c4,4 11,4 14,0l156 -156c4,-3 4,-10 0,-14z"/>
  <line fill="none" stroke="#434242" stroke-width="10" stroke-linecap="round" x1="160" y1="287" x2="245" y2= "201" />
  <line fill="none" stroke="#434242" stroke-width="10" stroke-linecap="round" x1="188" y1="315" x2="315" y2= "188" />
  <line fill="none" stroke="#434242" stroke-width="10" stroke-linecap="round" x1="216" y1="343" x2="274" y2= "285" />
  <line fill="none" stroke="#434242" stroke-width="10" stroke-linecap="round" x1="244" y1="372" x2="338" y2= "278" />
  <line fill="none" stroke="#434242" stroke-width="10" stroke-linecap="round" x1="273" y1="400" x2="384" y2= "289" />
  <circle fill="none" stroke="#434242" stroke-width="15" transform="matrix(0.618726 -0.618726 0.618726 0.618726 127.782 127.785)" r="40"/>
 </g>
</svg>
