<?xml version="1.0" encoding="UTF-8"?>
<!DOCTYPE svg PUBLIC "-//W3C//DTD SVG 1.1//EN" "http://www.w3.org/Graphics/SVG/1.1/DTD/svg11.dtd">
<!-- Creator: CorelDRAW X6 -->
<svg xmlns="http://www.w3.org/2000/svg" xml:space="preserve" width="100%" height="100%" version="1.1" shape-rendering="geometricPrecision" text-rendering="geometricPrecision" image-rendering="optimizeQuality" fill-rule="evenodd" clip-rule="evenodd"
viewBox="0 0 500 500"
 xmlns:xlink="http://www.w3.org/1999/xlink">
 <defs>
   <linearGradient id="id0" gradientUnits="userSpaceOnUse" x1="46.322" y1="56.434" x2="378.946" y2="378.836">
    <stop offset="0" stop-color="#008BFF"/>
    <stop offset="1" stop-color="#00AAFF"/>
   </linearGradient>
 </defs>
 <g id="Layer_x0020_1">
  <metadata id="CorelCorpID_0Corel-Layer"/>
  <path fill="url(#id0)" stroke="#434242" stroke-width="10" d="M453 283l-230 -230c-2,-2 -5,-3 -7,-3l-156 0c-6,0 -10,4 -10,10l0 156c0,2 1,5 3,7l230 230c4,4 11,4 14,0l156 -156c4,-3 4,-10 0,-14z"/>
  <circle fill="#434242" transform="matrix(0.795505 -0.795505 0.795505 0.795505 127.782 127.785)" r="40"/>
  <circle fill="#FFFFFF" transform="matrix(0.467692 -0.467692 0.467692 0.467692 127.782 127.785)" r="40"/>
  <path fill="#FFFFFF" d="M156 283l86 -85 7 7 -86 85 -7 -7zm28 29l128 -128 7 7 -128 128 -7 -7zm29 28l58 -58 7 7 -58 58 -7 -7zm28 28l93 -93 7 7 -93 93 -7 -7zm28 28l111 -111 7 8 -111 111 -7 -8z"/>
 </g>
</svg>
