<?xml version="1.0" encoding="UTF-8"?>
<!DOCTYPE svg PUBLIC "-//W3C//DTD SVG 1.1//EN" "http://www.w3.org/Graphics/SVG/1.1/DTD/svg11.dtd">
<!-- Creator: CorelDRAW X6 -->
<svg xmlns="http://www.w3.org/2000/svg" xml:space="preserve" width="100%" height="100%" version="1.1" shape-rendering="geometricPrecision" text-rendering="geometricPrecision" image-rendering="optimizeQuality" fill-rule="evenodd" clip-rule="evenodd"
viewBox="0 0 500 500"
 xmlns:xlink="http://www.w3.org/1999/xlink">
 <defs>
   <linearGradient id="id0" gradientUnits="userSpaceOnUse" x1="89.301" y1="60.4" x2="396.549" y2="358.204">
    <stop offset="0" stop-color="#008BFF"/>
    <stop offset="1" stop-color="#00AAFF"/>
   </linearGradient>
   <linearGradient id="id1" gradientUnits="userSpaceOnUse" x1="31.601" y1="40.945" x2="338.849" y2="338.749">
    <stop offset="0" stop-color="#008BFF"/>
    <stop offset="1" stop-color="#00AAFF"/>
   </linearGradient>
 </defs>
 <g id="Layer_x0020_1">
  <metadata id="CorelCorpID_0Corel-Layer"/>
  <path fill="url(#id0)" stroke="#434242" stroke-width="10" d="M465 270l-213 -213c-2,-2 -4,-3 -6,-3l-144 0c-5,0 -9,5 -9,10l0 143c0,3 1,5 2,7l213 213c4,3 10,3 13,0l144 -144c4,-4 4,-9 0,-13z"/>
  <path fill="url(#id1)" stroke="#434242" stroke-width="10" d="M407 251l-213 -213c-1,-2 -4,-3 -6,-3l-144 0c-5,0 -9,4 -9,9l0 144c0,2 1,5 3,6l213 213c3,4 9,4 13,0l143 -143c4,-4 4,-10 0,-13z"/>
  <circle fill="#434242" transform="matrix(0.734813 -0.734813 0.734813 0.734813 106.847 106.851)" r="40"/>
  <circle fill="#FFFFFF" transform="matrix(0.43201 -0.43201 0.43201 0.43201 106.847 106.851)" r="40"/>
  <path fill="#FFFFFF" d="M133 251l79 -80 7 7 -79 79 -7 -6zm26 26l118 -118 6 7 -117 117 -7 -6zm26 26l54 -54 6 7 -53 53 -7 -6zm26 26l87 -86 6 6 -86 86 -7 -6zm26 26l103 -103 7 7 -103 103 -7 -7z"/>
 </g>
</svg>
