<?xml version="1.0" encoding="UTF-8"?>
<!DOCTYPE svg PUBLIC "-//W3C//DTD SVG 1.1//EN" "http://www.w3.org/Graphics/SVG/1.1/DTD/svg11.dtd">
<!-- Creator: CorelDRAW X6 -->
<svg xmlns="http://www.w3.org/2000/svg" xml:space="preserve" width="100%" height="100%" version="1.1" shape-rendering="geometricPrecision" text-rendering="geometricPrecision" image-rendering="optimizeQuality" fill-rule="evenodd" clip-rule="evenodd"
viewBox="0 0 500 500"
 xmlns:xlink="http://www.w3.org/1999/xlink">
 <g id="Layer_x0020_1">
  <metadata id="CorelCorpID_0Corel-Layer"/>
  <path fill="#434242" d="M405 257l-210 -210c-1,-2 -4,-3 -6,-3l-142 0c-5,0 -9,4 -9,9l0 142c0,2 1,5 3,6l210 210c3,4 9,4 13,0l141 -141c4,-4 4,-10 0,-13zm-313 -159c9,-10 25,-10 34,0 9,9 9,25 0,34 -9,9 -25,9 -34,0 -10,-9 -10,-25 0,-34zm43 159l78 -78 6 6 -78 78 -6 -6zm25 25l116 -116 7 7 -116 116 -7 -7zm26 26l53 -53 7 7 -53 53 -7 -7zm26 26l85 -85 7 6 -86 85 -6 -6zm26 26l101 -101 6 6 -101 101 -6 -6zm-157 -273c15,-16 41,-16 56,0 16,15 16,41 0,56 -15,16 -41,16 -56,0 -16,-15 -16,-41 0,-56zm5 5c-13,12 -13,33 0,46 12,13 33,13 46,0 13,-13 13,-34 0,-46 -13,-13 -34,-13 -46,0z"/>
  <path fill="none" stroke="#434242" stroke-width="10" d="M275 400l25 25c3,4 10,4 13,0l144 -144c4,-3 4,-10 0,-13l-202 -203c-2,-1 -5,-2 -7,-2l-50 0"/>
 </g>
</svg>
