<?xml version="1.0" encoding="UTF-8"?>
<!DOCTYPE svg PUBLIC "-//W3C//DTD SVG 1.1//EN" "http://www.w3.org/Graphics/SVG/1.1/DTD/svg11.dtd">
<!-- Creator: CorelDRAW X6 -->
<svg xmlns="http://www.w3.org/2000/svg" xml:space="preserve" width="100%" height="100%" version="1.1" shape-rendering="geometricPrecision" text-rendering="geometricPrecision" image-rendering="optimizeQuality" fill-rule="evenodd" clip-rule="evenodd"
viewBox="0 0 500 500"
 xmlns:xlink="http://www.w3.org/1999/xlink">
 <g id="Layer_x0020_1">
  <metadata id="CorelCorpID_0Corel-Layer"/>
  <path fill="none" stroke="#434242" stroke-width="20" d="M406 259l-210 -210c-2,-2 -4,-3 -7,-3l-142 0c-5,0 -9,4 -9,9l0 142c0,3 1,5 3,7l210 210c3,3 9,3 13,0l142 -142c3,-4 3,-10 0,-13z"/>
  <path fill="none" stroke="#434242" stroke-width="10" stroke-linecap="round" d="M138 262l78 -78m-52 104l116 -116m-90 142l53 -53m-28 79l86 -86m-60 111l102 -101"/>
  <circle fill="none" stroke="#434242" stroke-width="15" transform="matrix(0.564561 -0.564561 0.564561 0.564561 108.973 116.975)" r="40"/>
  <path fill="none" stroke="#434242" stroke-width="10" d="M286 391l23 23c4,3 10,3 13,0l142 -142c4,-4 4,-9 0,-13l-193 -193c-2,-2 -4,-2 -6,-2l-55 0"/>
 </g>
</svg>
