<?xml version="1.0" encoding="UTF-8"?>
<!DOCTYPE svg PUBLIC "-//W3C//DTD SVG 1.1//EN" "http://www.w3.org/Graphics/SVG/1.1/DTD/svg11.dtd">
<!-- Creator: CorelDRAW X6 -->
<svg xmlns="http://www.w3.org/2000/svg" xml:space="preserve" width="100%" height="100%" version="1.1" shape-rendering="geometricPrecision" text-rendering="geometricPrecision" image-rendering="optimizeQuality" fill-rule="evenodd" clip-rule="evenodd"
viewBox="0 0 500 500"
 xmlns:xlink="http://www.w3.org/1999/xlink">
 <g id="Layer_x0020_1">
  <metadata id="CorelCorpID_0Corel-Layer"/>
  <path fill="none" stroke="#434242" stroke-width="15" d="M367 65l38 0c8,0 15,7 15,15l0 365c0,8 -7,15 -15,15l-310 0c-8,0 -15,-7 -15,-15l0 -365c0,-8 7,-15 15,-15l39 0"/>
  <path fill="none" stroke="#434242" stroke-width="15" d="M378 90l-256 0c-2,0 -4,-1 -5,-3 0,-2 0,-4 2,-6l30 -30c1,-1 2,-1 3,-1l63 0c3,0 5,-2 5,-5l0 -10c0,-3 2,-5 5,-5l50 0c3,0 5,2 5,5l0 10c0,3 2,5 5,5l63 0c1,0 2,0 3,1l14 14 16 16c2,2 2,4 2,6 -1,2 -3,3 -5,3z"/>
  <path fill="none" stroke="#434242" stroke-width="10" stroke-linecap="round" d="M127 150l205 0m-205 25l165 0m0 55l-165 0m0 25l105 0m-105 55l130 0m35 25l-165 0m0 55l150 0m-150 25l180 0"/>
 </g>
</svg>
