<?xml version="1.0" encoding="UTF-8"?>
<!DOCTYPE svg PUBLIC "-//W3C//DTD SVG 1.1//EN" "http://www.w3.org/Graphics/SVG/1.1/DTD/svg11.dtd">
<!-- Creator: CorelDRAW X6 -->
<svg xmlns="http://www.w3.org/2000/svg" xml:space="preserve" width="100%" height="100%" version="1.1" shape-rendering="geometricPrecision" text-rendering="geometricPrecision" image-rendering="optimizeQuality" fill-rule="evenodd" clip-rule="evenodd"
viewBox="0 0 500 500"
 xmlns:xlink="http://www.w3.org/1999/xlink">
 <g id="Layer_x0020_1">
  <metadata id="CorelCorpID_0Corel-Layer"/>
  <path fill="#FFFFFF" d="M425 30l0 105 -10 0c-6,-24 -13,-42 -20,-52 -8,-11 -18,-19 -31,-25 -7,-4 -20,-6 -38,-6l-30 0 0 288c0,20 1,33 3,38 3,5 7,9 13,13 7,4 15,5 26,5l13 0 0 10 -203 0 0 -10 13 0c11,0 20,-2 27,-6 5,-2 9,-7 12,-14 2,-4 3,-16 3,-36l0 -288 -29 0c-26,0 -45,6 -56,17 -17,15 -27,37 -32,66l-11 0 0 -105 350 0zm2 425l-38 26c-2,1 -4,1 -5,0 -2,-1 -3,-3 -3,-5l0 -16 -262 0 0 16c0,2 -1,4 -3,5 -1,1 -3,1 -5,0l-38 -26c-2,-1 -3,-3 -3,-5 0,-2 1,-4 3,-5l38 -26c2,-1 4,-1 5,0 2,1 3,3 3,5l0 16 262 0 0 -16c0,-2 1,-4 3,-5 1,-1 3,-1 5,0l38 26c2,1 3,3 3,5 0,2 -1,4 -3,5z"/>
 </g>
</svg>
