<?xml version="1.0" encoding="UTF-8"?>
<!DOCTYPE svg PUBLIC "-//W3C//DTD SVG 1.1//EN" "http://www.w3.org/Graphics/SVG/1.1/DTD/svg11.dtd">
<!-- Creator: CorelDRAW X6 -->
<svg xmlns="http://www.w3.org/2000/svg" xml:space="preserve" width="100%" height="100%" version="1.1" shape-rendering="geometricPrecision" text-rendering="geometricPrecision" image-rendering="optimizeQuality" fill-rule="evenodd" clip-rule="evenodd"
viewBox="0 0 500 500"
 xmlns:xlink="http://www.w3.org/1999/xlink">
 <g id="Layer_x0020_1">
  <metadata id="CorelCorpID_0Corel-Layer"/>
  <path fill="none" stroke="#434242" stroke-width="30" stroke-linecap="round" d="M290 71l0 360m-170 -252l0 -105c0,-4 5,-9 10,-9l320 0c5,0 10,5 10,9l0 95m-60 266l-220 0"/>
  <path fill="#434242" d="M65 53l26 42c1,2 1,5 0,7 -1,2 -3,3 -5,3l-16 0 0 290 16 0c2,0 4,1 5,3 1,2 1,5 0,7l-26 42c-1,2 -3,3 -5,3 -2,0 -4,-1 -5,-3l-26 -42c-1,-2 -1,-5 0,-7 1,-2 3,-3 5,-3l16 0 0 -290 -16 0c-2,0 -4,-1 -5,-3 -1,-2 -1,-5 0,-7l26 -42c1,-2 3,-3 5,-3 2,0 4,1 5,3z"/>
 </g>
</svg>
