<?xml version="1.0" encoding="UTF-8"?>
<!DOCTYPE svg PUBLIC "-//W3C//DTD SVG 1.1//EN" "http://www.w3.org/Graphics/SVG/1.1/DTD/svg11.dtd">
<!-- Creator: CorelDRAW X6 -->
<svg xmlns="http://www.w3.org/2000/svg" xml:space="preserve" width="100%" height="100%" version="1.1" shape-rendering="geometricPrecision" text-rendering="geometricPrecision" image-rendering="optimizeQuality" fill-rule="evenodd" clip-rule="evenodd"
viewBox="0 0 500 500"
 xmlns:xlink="http://www.w3.org/1999/xlink">
 <g id="Layer_x0020_1">
  <metadata id="CorelCorpID_0Corel-Layer"/>
  <path fill="#434242" d="M427 455l-38 26c-2,1 -4,1 -5,0 -2,-1 -3,-3 -3,-5l0 -16 -262 0 0 16c0,2 -1,4 -3,5 -1,1 -3,1 -5,0l-38 -26c-2,-1 -3,-3 -3,-5 0,-2 1,-4 3,-5l38 -26c2,-1 4,-1 5,0 2,1 3,3 3,5l0 16 262 0 0 -16c0,-2 1,-4 3,-5 1,-1 3,-1 5,0l38 26c2,1 3,3 3,5 0,2 -1,4 -3,5z"/>
  <path fill="none" stroke="#434242" stroke-width="30" stroke-linecap="round" d="M250 45l0 337m-170 -236l0 -98c0,-4 5,-9 10,-9l320 0c5,0 10,5 10,9l0 89m-60 249l-220 0"/>
 </g>
</svg>
