<?xml version="1.0" encoding="UTF-8"?>
<!DOCTYPE svg PUBLIC "-//W3C//DTD SVG 1.1//EN" "http://www.w3.org/Graphics/SVG/1.1/DTD/svg11.dtd">
<!-- Creator: CorelDRAW X6 -->
<svg xmlns="http://www.w3.org/2000/svg" xml:space="preserve" width="100%" height="100%" version="1.1" shape-rendering="geometricPrecision" text-rendering="geometricPrecision" image-rendering="optimizeQuality" fill-rule="evenodd" clip-rule="evenodd"
viewBox="0 0 500 500"
 xmlns:xlink="http://www.w3.org/1999/xlink">
 <g id="Layer_x0020_1">
  <metadata id="CorelCorpID_0Corel-Layer"/>
  <path fill="#FFFFFF" d="M465 55l0 105 -10 0c-6,-24 -13,-41 -20,-52 -7,-10 -18,-19 -31,-25 -7,-4 -20,-5 -38,-5l-29 0 0 300c0,20 1,33 3,38 2,5 6,9 13,13 6,4 15,6 26,6l12 0 0 10 -203 0 0 -10 13 0c11,0 20,-2 27,-6 5,-3 9,-8 12,-14 2,-5 3,-17 3,-37l0 -300 -28 0c-26,0 -45,5 -57,16 -17,16 -27,38 -31,66l-12 0 0 -105 350 0zm-400 -2l26 42c1,2 1,5 0,7 -1,2 -3,3 -5,3l-16 0 0 290 16 0c2,0 4,1 5,3 1,2 1,5 0,7l-26 42c-1,2 -3,3 -5,3 -2,0 -4,-1 -5,-3l-26 -42c-1,-2 -1,-5 0,-7 1,-2 3,-3 5,-3l16 0 0 -290 -16 0c-2,0 -4,-1 -5,-3 -1,-2 -1,-5 0,-7l26 -42c1,-2 3,-3 5,-3 2,0 4,1 5,3z"/>
 </g>
</svg>
