<?xml version="1.0" encoding="UTF-8"?>
<!DOCTYPE svg PUBLIC "-//W3C//DTD SVG 1.1//EN" "http://www.w3.org/Graphics/SVG/1.1/DTD/svg11.dtd">
<!-- Creator: CorelDRAW X6 -->
<svg xmlns="http://www.w3.org/2000/svg" xml:space="preserve" width="100%" height="100%" version="1.1" shape-rendering="geometricPrecision" text-rendering="geometricPrecision" image-rendering="optimizeQuality" fill-rule="evenodd" clip-rule="evenodd"
viewBox="0 0 500 500"
 xmlns:xlink="http://www.w3.org/1999/xlink">
 <g id="Layer_x0020_1">
  <metadata id="CorelCorpID_0Corel-Layer"/>
  <path fill="#FFFFFF" d="M250 285c4,6 11,10 20,10 36,0 72,0 108,0 9,0 17,-7 17,-17 0,-10 -8,-18 -17,-18l5 0c9,0 17,-7 17,-17 0,-10 -8,-18 -17,-18l5 0c9,0 17,-7 17,-17 0,-10 -8,-18 -17,-18l5 0c9,0 17,-7 17,-17 0,-10 -8,-18 -17,-18l-56 0c-7,0 -17,-10 -17,-20 0,-15 10,-30 10,-50 0,-20 -15,-35 -25,-25 -14,57 -50,91 -55,115 0,3 0,5 -5,5l-70 0 0 -4c0,-5 -4,-10 -10,-10 -25,0 -50,0 -75,0 0,46 0,92 0,138 0,6 4,10 10,10l65 0c6,0 10,-4 10,-10l0 -19 75 0z"/>
 </g>
</svg>
