<?xml version="1.0" encoding="UTF-8"?>
<!DOCTYPE svg PUBLIC "-//W3C//DTD SVG 1.1//EN" "http://www.w3.org/Graphics/SVG/1.1/DTD/svg11.dtd">
<!-- Creator: CorelDRAW X6 -->
<svg xmlns="http://www.w3.org/2000/svg" xml:space="preserve" width="100%" height="100%" version="1.1" style="shape-rendering:geometricPrecision; text-rendering:geometricPrecision; image-rendering:optimizeQuality; fill-rule:evenodd; clip-rule:evenodd"
viewBox="0 0 500 500"
 xmlns:xlink="http://www.w3.org/1999/xlink">
 <defs>
  <style type="text/css">
   <![CDATA[
    .str1 {stroke:#2B2A29;stroke-width:0.1}
    .str0 {stroke:#4D4D4D;stroke-width:5}
    .fil2 {fill:none}
    .fil1 {fill:#4D4D4D}
    .fil0 {fill:white}
   ]]>
  </style>
 </defs>
 <g id="Layer_x0020_1">
  <metadata id="CorelCorpID_0Corel-Layer"/>
  <path class="fil0 str0" d="M184 304l-99 0c-3,0 -5,-1 -7,-3 -2,-2 -3,-5 -3,-8l18 -150c0,-5 5,-9 10,-9l81 0c5,0 10,5 10,10l0 27 57 0c4,-7 13,-11 23,-11 40,-1 70,-1 110,-1 11,0 19,9 19,20 0,11 -8,19 -19,19l16 0c11,0 19,9 19,20 0,11 -8,20 -19,20l5 0c11,0 20,8 20,19 0,11 -9,20 -20,20l-2 0 2 0c11,0 20,9 20,19 0,11 -9,20 -20,20l-57 0c-7,0 -18,11 -18,22 0,17 11,34 11,56 0,23 -17,40 -28,28 -16,-62 -57,-101 -62,-128 0,-3 0,-6 -5,-6l-52 0 0 6c0,6 -5,10 -10,10zm-20 -129c7,0 13,-5 13,-12 0,-7 -6,-13 -13,-13 -7,0 -12,6 -12,13 0,7 5,12 12,12z"/>
  <circle class="fil1" cx="164" cy="163" r="12"/>
  <line class="fil2 str0" x1="194" y1="171" x2="194" y2= "288" />
  <rect class="fil2 str1" transform="matrix(2.64845E-014 1 1 -2.64845E-014 0.05 0.05)" width="500" height="500"/>
 </g>
</svg>
