<?xml version="1.0" encoding="UTF-8"?>
<!DOCTYPE svg PUBLIC "-//W3C//DTD SVG 1.1//EN" "http://www.w3.org/Graphics/SVG/1.1/DTD/svg11.dtd">
<!-- Creator: CorelDRAW X6 -->
<svg xmlns="http://www.w3.org/2000/svg" xml:space="preserve" width="100%" height="100%" version="1.1" style="shape-rendering:geometricPrecision; text-rendering:geometricPrecision; image-rendering:optimizeQuality; fill-rule:evenodd; clip-rule:evenodd"
viewBox="0 0 500 500"
 xmlns:xlink="http://www.w3.org/1999/xlink">
 <defs>
  <style type="text/css">
   <![CDATA[
    .str0 {stroke:#2B2A29;stroke-width:0.1}
    .fil1 {fill:none}
    .fil0 {fill:#333333}
   ]]>
  </style>
 </defs>
 <g id="Layer_x0020_1">
  <metadata id="CorelCorpID_0Corel-Layer"/>
  <path class="fil0" d="M184 201l-99 0c-3,0 -5,2 -5,5l18 150c0,3 2,5 5,5l81 0c3,0 5,-3 5,-5l0 -150c0,-3 -2,-5 -5,-5zm55 134c18,0 20,10 30,10 37,1 70,1 108,1 10,0 18,-8 18,-18 0,-10 -8,-19 -18,-19l14 0c10,0 19,-8 19,-18 0,-10 -9,-18 -19,-18l6 0c10,0 18,-8 18,-18 0,-10 -8,-19 -18,-19l-2 0 1 0c10,0 19,-8 19,-18 0,-10 -9,-18 -19,-18l-53 0c-6,0 -17,-10 -17,-21 0,-16 11,-31 11,-52 0,-21 -16,-36 -26,-26 -15,58 -53,85 -58,110 0,3 -1,6 -5,6l-48 0 0 118 39 0zm-73 -9c7,0 13,6 13,13 0,7 -6,12 -13,12 -6,0 -12,-5 -12,-12 0,-7 6,-13 12,-13z"/>
  <rect class="fil1 str0" transform="matrix(2.64845E-014 -1 1 2.64845E-014 0.05 500.048)" width="500" height="500"/>
 </g>
</svg>
