<?xml version="1.0" encoding="UTF-8"?>
<!DOCTYPE svg PUBLIC "-//W3C//DTD SVG 1.1//EN" "http://www.w3.org/Graphics/SVG/1.1/DTD/svg11.dtd">

<svg xmlns="http://www.w3.org/2000/svg" xml:space="preserve" width="100%" height="100%" version="1.1" style="shape-rendering:geometricPrecision; text-rendering:geometricPrecision; image-rendering:optimizeQuality; fill-rule:evenodd; clip-rule:evenodd"
viewBox="0 0 5000 5000"
 xmlns:xlink="http://www.w3.org/1999/xlink">
 <defs>
  <style type="text/css">
   <![CDATA[
    .str3 {stroke:#434242;stroke-width:7.62}
    .str2 {stroke:#434242;stroke-width:75;stroke-linecap:round}
    .str1 {stroke:#434242;stroke-width:100;stroke-linecap:round}
    .str0 {stroke:#434242;stroke-width:400}
    .fil2 {fill:none}
    .fil3 {fill:#434242}
    .fil0 {fill:#FEFEFE}
    .fil1 {fill:#434242;fill-rule:nonzero}
   ]]>
  </style>
 </defs>
 <g id="Layer_x0020_1">
  <metadata id="CorelCorpID_0Corel-Layer"/>
  <circle class="fil0 str0" cx="2500" cy="2500" r="2100"/>
  <g>
   <path class="fil1" d="M4250 2623l0 -246 6 1 6 0 6 1 6 1 6 1 5 2 6 2 5 2 5 3 5 2 5 3 5 3 5 4 4 3 4 4 5 4 4 5 3 4 4 5 3 4 3 5 3 6 3 5 2 5 2 6 2 6 2 5 1 6 1 6 1 6 0 7 0 6 0 6 0 7 -1 6 -1 6 -1 6 -2 5 -2 6 -2 6 -2 5 -3 5 -3 6 -3 5 -3 4 -4 5 -3 4 -4 5 -5 4 -4 4 -4 3 -5 4 -5 3 -5 3 -5 2 -5 3 -5 2 -6 2 -5 2 -6 1 -6 1 -6 1 -6 0 -6 1zm-290 -246l290 0 0 246 -290 0 0 -246zm0 0l0 246 -6 -1 -6 0 -6 -1 -6 -1 -5 -1 -6 -2 -5 -2 -6 -2 -5 -3 -5 -2 -5 -3 -5 -3 -5 -4 -4 -3 -4 -4 -4 -4 -4 -5 -4 -4 -4 -5 -3 -4 -3 -5 -3 -6 -2 -5 -3 -5 -2 -6 -2 -6 -1 -5 -2 -6 -1 -6 0 -6 -1 -7 0 -6 0 -6 1 -7 0 -6 1 -6 2 -6 1 -5 2 -6 2 -6 3 -5 2 -5 3 -6 3 -5 3 -4 4 -5 4 -4 4 -5 4 -4 4 -4 4 -3 5 -4 5 -3 5 -3 5 -2 5 -3 6 -2 5 -2 6 -2 5 -1 6 -1 6 -1 6 0 6 -1z"/>
  </g>
  <g>
   <path class="fil1" d="M2575 1400l-150 0 0 -4 1 -4 0 -3 1 -4 1 -4 1 -3 1 -4 1 -3 2 -4 1 -3 2 -3 2 -3 2 -3 2 -3 3 -2 2 -3 3 -3 2 -2 3 -2 3 -2 3 -2 3 -2 4 -2 3 -1 3 -1 4 -2 3 -1 4 0 4 -1 3 -1 4 0 4 0 4 0 4 0 3 1 4 1 4 0 3 1 4 2 3 1 3 1 4 2 3 2 3 2 3 2 3 2 2 2 3 3 2 3 3 2 2 3 2 3 2 3 2 3 1 3 2 4 1 3 1 4 1 3 1 4 1 4 0 3 1 4 0 4zm-150 1500l0 -1500 150 0 0 1500 -150 0zm0 0l150 0 0 4 -1 4 0 3 -1 4 -1 4 -1 3 -1 4 -1 3 -2 4 -1 3 -2 3 -2 3 -2 3 -2 3 -3 2 -2 3 -3 3 -2 2 -3 2 -3 2 -3 2 -3 2 -4 2 -3 1 -3 1 -4 2 -3 1 -4 0 -4 1 -3 1 -4 0 -4 0 -4 0 -4 0 -3 -1 -4 -1 -4 0 -3 -1 -4 -2 -3 -1 -3 -1 -4 -2 -3 -2 -3 -2 -3 -2 -3 -2 -2 -2 -3 -3 -2 -3 -3 -2 -2 -3 -2 -3 -2 -3 -2 -3 -1 -3 -2 -4 -1 -3 -1 -4 -1 -3 -1 -4 -1 -4 0 -3 -1 -4 0 -4z"/>
  </g>
  <line class="fil2 str1" x1="3419" y1="1581" x2="2253" y2= "2748" />
  <g>
   <path class="fil1" d="M750 2377l0 246 -6 -1 -6 0 -6 -1 -6 -1 -6 -1 -5 -2 -6 -2 -5 -2 -5 -3 -5 -2 -5 -3 -5 -3 -5 -4 -4 -3 -5 -4 -4 -4 -4 -5 -3 -4 -4 -5 -3 -4 -3 -5 -3 -6 -3 -5 -2 -5 -2 -6 -2 -6 -2 -5 -1 -6 -1 -6 -1 -6 0 -7 0 -6 0 -6 0 -7 1 -6 1 -6 1 -6 2 -5 2 -6 2 -6 2 -5 3 -5 3 -6 3 -5 3 -4 4 -5 3 -4 4 -5 4 -4 5 -4 4 -3 5 -4 5 -3 5 -3 5 -2 5 -3 5 -2 6 -2 5 -2 6 -1 6 -1 6 -1 6 0 6 -1zm290 246l-290 0 0 -246 290 0 0 246zm0 0l0 -246 6 1 6 0 6 1 6 1 5 1 6 2 5 2 6 2 5 3 5 2 5 3 5 3 5 4 4 3 4 4 4 4 4 5 4 4 4 5 3 4 3 5 3 6 2 5 3 5 2 6 2 6 1 5 2 6 1 6 0 6 1 7 0 6 0 6 -1 7 0 6 -1 6 -2 6 -1 5 -2 6 -2 6 -3 5 -2 5 -3 6 -3 5 -3 4 -4 5 -4 4 -4 5 -4 4 -4 4 -4 3 -5 4 -5 3 -5 3 -5 2 -5 3 -6 2 -5 2 -6 2 -5 1 -6 1 -6 1 -6 0 -6 1z"/>
  </g>
  <line class="fil2 str2" x1="3419" y1="3419" x2="2252" y2= "2253" />
  <circle class="fil3 str3" cx="2500" cy="2500" r="200"/>
  <g>
   <path class="fil1" d="M2377 4250l246 0 -1 6 0 6 -1 6 -1 6 -1 6 -2 5 -2 6 -2 5 -3 5 -2 5 -3 5 -3 5 -4 5 -3 4 -4 5 -4 4 -5 4 -4 3 -5 4 -4 3 -5 3 -6 3 -5 3 -5 2 -6 2 -6 2 -5 2 -6 1 -6 1 -6 1 -7 0 -6 0 -6 0 -7 0 -6 -1 -6 -1 -6 -1 -5 -2 -6 -2 -6 -2 -5 -2 -5 -3 -6 -3 -5 -3 -4 -3 -5 -4 -4 -3 -5 -4 -4 -4 -4 -5 -3 -4 -4 -5 -3 -5 -3 -5 -2 -5 -3 -5 -2 -5 -2 -6 -2 -5 -1 -6 -1 -6 -1 -6 0 -6 -1 -6zm246 -290l0 290 -246 0 0 -290 246 0zm0 0l-246 0 1 -6 0 -6 1 -6 1 -6 1 -5 2 -6 2 -5 2 -6 3 -5 2 -5 3 -5 3 -5 4 -5 3 -4 4 -4 4 -4 5 -4 4 -4 5 -4 4 -3 5 -3 6 -3 5 -2 5 -3 6 -2 6 -2 5 -1 6 -2 6 -1 6 0 7 -1 6 0 6 0 7 1 6 0 6 1 6 2 5 1 6 2 6 2 5 3 5 2 6 3 5 3 4 3 5 4 4 4 5 4 4 4 4 4 3 4 4 5 3 5 3 5 2 5 3 5 2 6 2 5 2 6 1 5 1 6 1 6 0 6 1 6z"/>
  </g>
  <g>
   <path class="fil1" d="M2623 750l-246 0 1 -6 0 -6 1 -6 1 -6 1 -6 2 -5 2 -6 2 -5 3 -5 2 -5 3 -5 3 -5 4 -5 3 -4 4 -5 4 -4 5 -4 4 -3 5 -4 4 -3 5 -3 6 -3 5 -3 5 -2 6 -2 6 -2 5 -2 6 -1 6 -1 6 -1 7 0 6 0 6 0 7 0 6 1 6 1 6 1 5 2 6 2 6 2 5 2 5 3 6 3 5 3 4 3 5 4 4 3 5 4 4 4 4 5 3 4 4 5 3 5 3 5 2 5 3 5 2 5 2 6 2 5 1 6 1 6 1 6 0 6 1 6zm-246 290l0 -290 246 0 0 290 -246 0zm0 0l246 0 -1 6 0 6 -1 6 -1 6 -1 5 -2 6 -2 5 -2 6 -3 5 -2 5 -3 5 -3 5 -4 5 -3 4 -4 4 -4 4 -5 4 -4 4 -5 4 -4 3 -5 3 -6 3 -5 2 -5 3 -6 2 -6 2 -5 1 -6 2 -6 1 -6 0 -7 1 -6 0 -6 0 -7 -1 -6 0 -6 -1 -6 -2 -5 -1 -6 -2 -6 -2 -5 -3 -5 -2 -6 -3 -5 -3 -4 -3 -5 -4 -4 -4 -5 -4 -4 -4 -4 -4 -3 -4 -4 -5 -3 -5 -3 -5 -2 -5 -3 -5 -2 -6 -2 -5 -2 -6 -1 -5 -1 -6 -1 -6 0 -6 -1 -6z"/>
  </g>
 </g>
</svg>
