<?xml version="1.0" encoding="UTF-8"?>
<!DOCTYPE svg PUBLIC "-//W3C//DTD SVG 1.1//EN" "http://www.w3.org/Graphics/SVG/1.1/DTD/svg11.dtd">
<!-- Creator: CorelDRAW X6 -->
<svg xmlns="http://www.w3.org/2000/svg" xml:space="preserve" width="100%" height="100%" version="1.1" shape-rendering="geometricPrecision" text-rendering="geometricPrecision" image-rendering="optimizeQuality" fill-rule="evenodd" clip-rule="evenodd"
viewBox="0 0 500 500"
 xmlns:xlink="http://www.w3.org/1999/xlink">
 <defs>
   <radialGradient id="id0" gradientUnits="userSpaceOnUse" cx="250" cy="264.999" r="206.799" fx="250" fy="264.999">
    <stop offset="0" stop-color="white"/>
    <stop offset="0.588235" stop-color="whitesmoke"/>
    <stop offset="1" stop-color="#979798"/>
   </radialGradient>
 </defs>
 <g id="Layer_x0020_1">
  <metadata id="CorelCorpID_0Corel-Layer"/>
  <circle fill="#008BFF" stroke="#434242" stroke-width="10" cx="250" cy="265" r="205"/>
  <circle fill="url(#id0)" stroke="#434242" stroke-width="10" cx="250" cy="265" r="165"/>
  <path fill="#434242" d="M203 70c32,-7 63,-7 94,0 3,1 5,-2 5,-5l0 -40c0,-3 -2,-5 -5,-5l-94 0c-3,0 -5,2 -5,5l0 40c0,3 2,6 5,5z"/>
  <path fill="#434242" d="M78 123l2 -2c2,-2 5,-2 7,0l7 7c2,2 6,2 7,0l25 -24c2,-2 2,-5 0,-7l-7 -7c-2,-2 -2,-5 0,-7l2 -2c2,-2 2,-6 0,-8l-17 -16c-2,-2 -5,-2 -7,0l-43 43c-2,1 -2,5 0,7l17 16c2,2 5,2 7,0z"/>
  <path fill="none" stroke="#434242" stroke-width="10" stroke-linecap="round" d="M250 104l0 27m0 293l0 -26m160 -134l-26 0m-294 0l27 0m213 -138l-13 23m-147 254l13 -23m206 -36l-23 -13m-255 -147l23 14m255 -14l-23 14m-255 146l23 -13m196 72l-13 -23m-147 -254l13 23"/>
  <path fill="none" stroke="#434242" stroke-width="5" stroke-linecap="round" d="M292 109l-7 26m-77 284l7 -25m190 -88l-26 -7m-284 -76l26 7m242 -79l-18 19m-208 208l18 -19m208 19l-18 -19m-208 -208l18 19m250 53l-26 7m-284 76l26 -7m171 120l-7 -25m-77 -285l7 26"/>
  <line fill="none" stroke="#E31E24" stroke-width="10" stroke-linecap="round" x1="206" y1="253" x2="363" y2= "295" />
  <line fill="none" stroke="#434242" stroke-width="15" stroke-linecap="round" x1="267" y1="295" x2="201" y2= "180" />
  <circle fill="#434242" cx="250" cy="265" r="20"/>
 </g>
</svg>
