<?xml version="1.0" encoding="UTF-8"?>
<!DOCTYPE svg PUBLIC "-//W3C//DTD SVG 1.1//EN" "http://www.w3.org/Graphics/SVG/1.1/DTD/svg11.dtd">
<!-- Creator: CorelDRAW X6 -->
<svg xmlns="http://www.w3.org/2000/svg" xml:space="preserve" width="100%" height="100%" version="1.1" shape-rendering="geometricPrecision" text-rendering="geometricPrecision" image-rendering="optimizeQuality" fill-rule="evenodd" clip-rule="evenodd"
viewBox="0 0 500 500"
 xmlns:xlink="http://www.w3.org/1999/xlink">
 <g id="Layer_x0020_1">
  <metadata id="CorelCorpID_0Corel-Layer"/>
  <circle fill="none" stroke="#FFFFFF" stroke-width="50" cx="250" cy="265" r="185"/>
  <path fill="#FFFFFF" d="M203 70c32,-7 63,-7 94,0 3,1 5,-2 5,-5l0 -40c0,-3 -2,-5 -5,-5l-94 0c-3,0 -5,2 -5,5l0 40c0,3 2,6 5,5z"/>
  <path fill="#FFFFFF" d="M78 123l2 -2c2,-2 5,-2 7,0l7 7c2,2 6,2 7,0l25 -24c2,-2 2,-5 0,-7l-7 -7c-2,-2 -2,-5 0,-7l2 -2c2,-2 2,-6 0,-8l-17 -16c-2,-2 -5,-2 -7,0l-43 43c-2,1 -2,5 0,7l17 16c2,2 5,2 7,0z"/>
  <path fill="none" stroke="#FFFFFF" stroke-width="10" stroke-linecap="round" d="M250 104l0 27m0 294l0 -27m160 -134l-26 0m-294 0l26 0m214 -139l-13 23m-147 255l13 -23m206 -35l-23 -14m-255 -147l23 13m255 -13l-23 13m-255 148l23 -14m196 72l-13 -23m-147 -255l13 23"/>
  <path fill="none" stroke="#FFFFFF" stroke-width="5" stroke-linecap="round" d="M290 115l-7 25m-73 274l7 -25m182 -85l-24 -6m-274 -74l24 7m234 -76l-18 18m-200 201l18 -18m200 18l-18 -18m-200 -201l18 18m240 51l-24 7m-274 73l24 -6m165 116l-7 -25m-73 -274l7 25"/>
  <line fill="none" stroke="#FFFFFF" stroke-width="10" stroke-linecap="round" x1="207" y1="253" x2="363" y2= "295" />
  <line fill="none" stroke="#FFFFFF" stroke-width="15" stroke-linecap="round" x1="267" y1="295" x2="201" y2= "180" />
  <circle fill="#FFFFFF" stroke="#FFFFFF" stroke-width="0.762" cx="250" cy="265" r="20"/>
 </g>
</svg>
