<?xml version="1.0" encoding="UTF-8"?>
<!DOCTYPE svg PUBLIC "-//W3C//DTD SVG 1.1//EN" "http://www.w3.org/Graphics/SVG/1.1/DTD/svg11.dtd">
<!-- Creator: CorelDRAW X6 -->
<svg xmlns="http://www.w3.org/2000/svg" xml:space="preserve" width="100%" height="100%" version="1.1" shape-rendering="geometricPrecision" text-rendering="geometricPrecision" image-rendering="optimizeQuality" fill-rule="evenodd" clip-rule="evenodd"
viewBox="0 0 500 500"
 xmlns:xlink="http://www.w3.org/1999/xlink">
 <g id="Layer_x0020_1">
  <metadata id="CorelCorpID_0Corel-Layer"/>
  <path fill="none" stroke="#434242" stroke-width="15" stroke-linejoin="round" d="M208 20l84 0c6,0 10,4 10,10l0 32c93,23 158,107 158,203 0,116 -94,210 -210,210 -116,0 -210,-94 -210,-210 0,-53 20,-102 52,-139l-5 -5c-2,-2 -5,-2 -7,0l-2 2c-2,2 -5,2 -7,0l-17 -16c-2,-2 -2,-6 0,-7l43 -43c2,-2 5,-2 7,0l17 16c2,2 2,6 0,8l-2 2c-2,2 -2,5 0,7l6 6c22,-16 46,-28 73,-34l0 -32c0,-6 4,-10 10,-10z"/>
  <path fill="none" stroke="#434242" stroke-width="10" stroke-linecap="round" d="M250 104l0 27m0 294l0 -27m160 -134l-26 0m-294 0l26 0m214 -139l-13 23m-147 255l13 -23m206 -35l-23 -14m-255 -147l23 13m255 -13l-23 13m-255 148l23 -14m196 72l-13 -23m-147 -255l13 23"/>
  <path fill="none" stroke="#434242" stroke-width="5" stroke-linecap="round" d="M290 115l-7 25m-73 274l7 -25m182 -85l-24 -6m-274 -74l24 7m234 -76l-18 18m-200 201l18 -18m200 18l-18 -18m-200 -201l18 18m240 51l-24 7m-274 73l24 -6m165 116l-7 -25m-73 -274l7 25"/>
  <path fill="none" stroke="#434242" stroke-width="10" stroke-linecap="round" d="M207 253l14 4m58 15l84 23"/>
  <path fill="none" stroke="#434242" stroke-width="15" stroke-linecap="round" d="M267 295l-2 -4m-30 -52l-34 -59"/>
  <circle fill="none" stroke="#434242" stroke-width="10" cx="250" cy="265" r="25"/>
  <circle fill="none" stroke="#434242" stroke-width="10" cx="250" cy="265" r="165"/>
  <circle fill="none" stroke="#434242" stroke-width="5" cx="250" cy="265" r="205"/>
 </g>
</svg>
