<?xml version="1.0" encoding="UTF-8"?>
<!DOCTYPE svg PUBLIC "-//W3C//DTD SVG 1.1//EN" "http://www.w3.org/Graphics/SVG/1.1/DTD/svg11.dtd">
<!-- Creator: CorelDRAW X6 -->
<svg xmlns="http://www.w3.org/2000/svg" xml:space="preserve" width="100%" height="100%" version="1.1" shape-rendering="geometricPrecision" text-rendering="geometricPrecision" image-rendering="optimizeQuality" fill-rule="evenodd" clip-rule="evenodd"
viewBox="0 0 500 500"
 xmlns:xlink="http://www.w3.org/1999/xlink">
 <g id="Layer_x0020_1">
  <metadata id="CorelCorpID_0Corel-Layer"/>
  <path fill="none" stroke="#434242" stroke-width="20" d="M163 93l180 0c22,0 40,18 40,40l0 220c0,22 -18,40 -40,40l-180 0c-22,0 -40,-18 -40,-40l0 -220c0,-22 18,-40 40,-40z"/>
  <path fill="none" stroke="#434242" stroke-width="10" d="M178 303c11,0 20,9 20,20 0,11 -9,20 -20,20 -11,0 -20,-9 -20,-20 0,-11 9,-20 20,-20zm150 0c11,0 20,9 20,20 0,11 -9,20 -20,20 -11,0 -20,-9 -20,-20 0,-11 9,-20 20,-20z"/>
  <path fill="none" stroke="#434242" stroke-width="10" d="M208 119l90 0c5,0 10,4 10,10 0,5 -5,10 -10,10l-90 0c-6,0 -10,-5 -10,-10 0,-6 4,-10 10,-10z"/>
  <path fill="none" stroke="#434242" stroke-width="10" d="M163 163l180 0c8,0 15,7 15,15l0 70c0,8 -7,15 -15,15l-180 0c-9,0 -15,-7 -15,-15l0 -70c0,-8 6,-15 15,-15z"/>
  <path fill="none" stroke="#434242" stroke-width="15" stroke-linecap="round" d="M354 415l35 43m-238 -43l-35 43m52 -18l170 0"/>
  <line fill="none" stroke="#434242" stroke-width="25" stroke-linecap="round" x1="198" y1="45" x2="308" y2= "45" />
 </g>
</svg>
