<?xml version="1.0" encoding="UTF-8"?>
<!DOCTYPE svg PUBLIC "-//W3C//DTD SVG 1.1//EN" "http://www.w3.org/Graphics/SVG/1.1/DTD/svg11.dtd">
<!-- Creator: CorelDRAW X6 -->
<svg xmlns="http://www.w3.org/2000/svg" xml:space="preserve" width="100%" height="100%" version="1.1" shape-rendering="geometricPrecision" text-rendering="geometricPrecision" image-rendering="optimizeQuality" fill-rule="evenodd" clip-rule="evenodd"
viewBox="0 0 500 500"
 xmlns:xlink="http://www.w3.org/1999/xlink">
 <g id="Layer_x0020_1">
  <metadata id="CorelCorpID_0Corel-Layer"/>
  <path fill="#FFFFFF" d="M307 63c0,-10 -8,-18 -18,-18l-78 0c-10,0 -18,8 -18,18l114 0zm84 53c0,-24 -20,-44 -44,-44l-194 0c-24,0 -44,20 -44,44l282 0zm-1 14c-89,0 -191,0 -280,0l0 294c0,20 16,36 36,36l208 0c20,0 36,-16 36,-36l0 -294zm-240 40l10 0c6,0 10,4 10,10l0 230c0,6 -4,10 -10,10l-10 0c-6,0 -10,-4 -10,-10l0 -230c0,-6 4,-10 10,-10zm60 0l10 0c6,0 10,4 10,10l0 230c0,6 -4,10 -10,10l-10 0c-6,0 -10,-4 -10,-10l0 -230c0,-6 4,-10 10,-10zm70 0l10 0c6,0 10,4 10,10l0 230c0,6 -4,10 -10,10l-10 0c-6,0 -10,-4 -10,-10l0 -230c0,-6 4,-10 10,-10zm60 0l10 0c6,0 10,4 10,10l0 230c0,6 -4,10 -10,10l-10 0c-6,0 -10,-4 -10,-10l0 -230c0,-6 4,-10 10,-10z"/>
 </g>
</svg>
