<?xml version="1.0" encoding="UTF-8"?>
<!DOCTYPE svg PUBLIC "-//W3C//DTD SVG 1.1//EN" "http://www.w3.org/Graphics/SVG/1.1/DTD/svg11.dtd">
<!-- Creator: CorelDRAW X6 -->
<svg xmlns="http://www.w3.org/2000/svg" xml:space="preserve" width="100%" height="100%" version="1.1" shape-rendering="geometricPrecision" text-rendering="geometricPrecision" image-rendering="optimizeQuality" fill-rule="evenodd" clip-rule="evenodd"
viewBox="0 0 500 500"
 xmlns:xlink="http://www.w3.org/1999/xlink">
 <g id="Layer_x0020_1">
  <metadata id="CorelCorpID_0Corel-Layer"/>
  <path fill="none" stroke="#434242" stroke-width="15" stroke-linejoin="round" d="M391 110c0,-24 -20,-44 -44,-44l-40 0c-1,-9 -9,-17 -18,-17l-78 0c-9,0 -17,8 -18,17l-40 0c-24,0 -44,20 -44,44l282 0z"/>
  <path fill="none" stroke="#434242" stroke-width="15" stroke-linejoin="round" d="M390 130c-89,0 -191,0 -280,0l0 294c0,20 16,36 36,36l208 0c20,0 36,-16 36,-36l0 -294z"/>
  <path fill="none" stroke="#434242" stroke-width="25" stroke-linecap="round" d="M170 170l0 250m51 -250l0 250m58 -250l0 250m51 -250l0 250"/>
 </g>
</svg>
