<?xml version="1.0" encoding="UTF-8"?>
<!DOCTYPE svg PUBLIC "-//W3C//DTD SVG 1.1//EN" "http://www.w3.org/Graphics/SVG/1.1/DTD/svg11.dtd">
<!-- Creator: CorelDRAW X6 -->
<svg xmlns="http://www.w3.org/2000/svg" xml:space="preserve" width="100%" height="100%" version="1.1" shape-rendering="geometricPrecision" text-rendering="geometricPrecision" image-rendering="optimizeQuality" fill-rule="evenodd" clip-rule="evenodd"
viewBox="0 0 500 500"
 xmlns:xlink="http://www.w3.org/1999/xlink">
 <g id="Layer_x0020_1">
  <metadata id="CorelCorpID_0Corel-Layer"/>
  <circle fill="none" stroke="#434242" stroke-width="30" cx="250" cy="250" r="210"/>
  <path fill="#434242" d="M270 90l60 60c5,5 10,10 10,20 0,10 -10,20 -20,20l-40 0 0 125c0,8 -7,15 -15,15l-30 0c-8,0 -15,-7 -15,-15l0 -125 -40 0c-10,0 -20,-10 -20,-20 0,-10 5,-15 10,-20l60 -60c13,-13 27,-13 40,0zm-140 290l240 0c5,0 10,-5 10,-10l0 -10c0,-5 -5,-10 -10,-10l-240 0c-6,0 -10,5 -10,10l0 10c0,5 4,10 10,10z"/>
 </g>
</svg>
