<?xml version="1.0" encoding="UTF-8"?>
<!DOCTYPE svg PUBLIC "-//W3C//DTD SVG 1.1//EN" "http://www.w3.org/Graphics/SVG/1.1/DTD/svg11.dtd">
<!-- Creator: CorelDRAW X6 -->
<svg xmlns="http://www.w3.org/2000/svg" xml:space="preserve" width="100%" height="100%" version="1.1" shape-rendering="geometricPrecision" text-rendering="geometricPrecision" image-rendering="optimizeQuality" fill-rule="evenodd" clip-rule="evenodd"
viewBox="0 0 500 500"
 xmlns:xlink="http://www.w3.org/1999/xlink">
 <defs>
   <linearGradient id="id0" gradientUnits="userSpaceOnUse" x1="250" y1="284.547" x2="250" y2="122.267">
    <stop offset="0" stop-color="#008BFF"/>
    <stop offset="1" stop-color="#00AAFF"/>
   </linearGradient>
 </defs>
 <g id="Layer_x0020_1">
  <metadata id="CorelCorpID_0Corel-Layer"/>
  <circle fill="none" stroke="#434242" stroke-width="30" cx="250" cy="250" r="210"/>
  <rect fill="#434242" x="120" y="350" width="260" height="29.998" rx="10" ry="10"/>
  <path fill="url(#id0)" stroke="#434242" stroke-width="10" d="M270 90l60 60c5,5 10,10 10,20 0,10 -10,20 -20,20l-40 0 0 125c0,8 -7,15 -15,15l-30 0c-8,0 -15,-7 -15,-15l0 -125 -40 0c-10,0 -20,-10 -20,-20 0,-10 5,-15 10,-20l60 -60c13,-13 27,-13 40,0z"/>
 </g>
</svg>
