<?xml version="1.0" encoding="UTF-8"?>
<!DOCTYPE svg PUBLIC "-//W3C//DTD SVG 1.1//EN" "http://www.w3.org/Graphics/SVG/1.1/DTD/svg11.dtd">
<!-- Creator: CorelDRAW X6 -->
<svg xmlns="http://www.w3.org/2000/svg" xml:space="preserve" width="100%" height="100%" version="1.1" shape-rendering="geometricPrecision" text-rendering="geometricPrecision" image-rendering="optimizeQuality" fill-rule="evenodd" clip-rule="evenodd"
viewBox="0 0 500 500"
 xmlns:xlink="http://www.w3.org/1999/xlink">
 <g id="Layer_x0020_1">
  <metadata id="CorelCorpID_0Corel-Layer"/>
  <path fill="#434242" d="M250 213c48,0 87,-39 87,-86 0,-48 -39,-87 -87,-87 -48,0 -87,39 -87,87 0,47 39,86 87,86zm33 32l-25 38c-2,3 -5,4 -8,4 -3,0 -6,-1 -8,-4l-25 -38c-2,-3 -5,-5 -9,-5 -54,3 -97,44 -97,94l0 116c0,6 4,10 10,10l258 0c6,0 10,-4 10,-10l0 -116c0,-50 -43,-91 -97,-94 -4,0 -7,2 -9,5z"/>
 </g>
</svg>
