<?xml version="1.0" encoding="UTF-8"?>
<!DOCTYPE svg PUBLIC "-//W3C//DTD SVG 1.1//EN" "http://www.w3.org/Graphics/SVG/1.1/DTD/svg11.dtd">
<!-- Creator: CorelDRAW X6 -->
<svg xmlns="http://www.w3.org/2000/svg" xml:space="preserve" width="100%" height="100%" version="1.1" shape-rendering="geometricPrecision" text-rendering="geometricPrecision" image-rendering="optimizeQuality" fill-rule="evenodd" clip-rule="evenodd"
viewBox="0 0 500 500"
 xmlns:xlink="http://www.w3.org/1999/xlink">
 <defs>
   <linearGradient id="id0" gradientUnits="userSpaceOnUse" x1="249.999" y1="40.001" x2="249.999" y2="213.11">
    <stop offset="0" stop-color="#008BFF"/>
    <stop offset="1" stop-color="#00AAFF"/>
   </linearGradient>
   <linearGradient id="id1" gradientUnits="userSpaceOnUse" x1="250" y1="420.397" x2="250" y2="279.594">
    <stop offset="0" stop-color="#008BFF"/>
    <stop offset="1" stop-color="#00AAFF"/>
   </linearGradient>
 </defs>
 <g id="Layer_x0020_1">
  <metadata id="CorelCorpID_0Corel-Layer"/>
  <circle fill="url(#id0)" stroke="#434242" stroke-width="10" cx="250" cy="127" r="87"/>
  <path fill="url(#id1)" stroke="#434242" stroke-width="10" d="M283 245l-25 38c-2,3 -5,4 -8,4 -3,0 -6,-1 -8,-4l-25 -38c-2,-3 -5,-5 -9,-5 -54,3 -97,44 -97,94l0 116c0,6 4,10 10,10l258 0c6,0 10,-4 10,-10l0 -116c0,-50 -43,-91 -97,-94 -4,0 -7,2 -9,5z"/>
 </g>
</svg>
