<?xml version="1.0" encoding="UTF-8"?>
<!DOCTYPE svg PUBLIC "-//W3C//DTD SVG 1.1//EN" "http://www.w3.org/Graphics/SVG/1.1/DTD/svg11.dtd">
<!-- Creator: CorelDRAW X6 -->
<svg xmlns="http://www.w3.org/2000/svg" xml:space="preserve" width="100%" height="100%" version="1.1" shape-rendering="geometricPrecision" text-rendering="geometricPrecision" image-rendering="optimizeQuality" fill-rule="evenodd" clip-rule="evenodd"
viewBox="0 0 500 500"
 xmlns:xlink="http://www.w3.org/1999/xlink">
 <g id="Layer_x0020_1">
  <metadata id="CorelCorpID_0Corel-Layer"/>
  <path fill="#FFFFFF" d="M30 100l440 0c6,0 10,4 10,10l0 280c0,6 -4,10 -10,10l-440 0c-6,0 -10,-4 -10,-10l0 -280c0,-6 4,-10 10,-10zm65 15l310 0c3,0 5,2 5,5l0 260c0,3 -2,5 -5,5l-310 0c-3,0 -5,-2 -5,-5l0 -260c0,-3 2,-5 5,-5zm-55 1l30 0 0 30 -30 0 0 -30zm0 60l30 0 0 30 -30 0 0 -30zm0 60l30 0 0 30 -30 0 0 -30zm0 60l30 0 0 30 -30 0 0 -30zm0 60l30 0 0 30 -30 0 0 -30zm389 -240l30 0 0 30 -30 0 0 -30zm0 60l30 0 0 30 -30 0 0 -30zm0 60l30 0 0 30 -30 0 0 -30zm0 60l30 0 0 30 -30 0 0 -30zm0 60l30 0 0 30 -30 0 0 -30zm-124 -97l-110 62c-3,2 -7,2 -10,0 -3,-1 -5,-5 -5,-8l0 -126c0,-3 2,-7 5,-8 3,-2 7,-2 10,0l110 62c3,2 5,5 5,9 0,4 -2,7 -5,9z"/>
 </g>
</svg>
