<?xml version="1.0" encoding="UTF-8"?>
<!DOCTYPE svg PUBLIC "-//W3C//DTD SVG 1.1//EN" "http://www.w3.org/Graphics/SVG/1.1/DTD/svg11.dtd">
<!-- Creator: CorelDRAW X6 -->
<svg xmlns="http://www.w3.org/2000/svg" xml:space="preserve" width="100%" height="100%" version="1.1" style="shape-rendering:geometricPrecision; text-rendering:geometricPrecision; image-rendering:optimizeQuality; fill-rule:evenodd; clip-rule:evenodd"
viewBox="0 0 500 500"
 xmlns:xlink="http://www.w3.org/1999/xlink">
 <defs>
  <style type="text/css">
   <![CDATA[
    .str0 {stroke:#2B2A29;stroke-width:0.1}
    .fil1 {fill:none}
    .fil0 {fill:#333333}
   ]]>
  </style>
 </defs>
 <g id="Layer_x0020_1">
  <metadata id="CorelCorpID_0Corel-Layer"/>
  <path class="fil0" d="M443 169l28 28 -53 53 53 53 -28 28 -53 -53 -53 53 -28 -28 53 -53 -53 -53 28 -28 53 53 53 -53zm-168 35c10,13 15,29 15,46 0,17 -5,33 -15,46l0 28 0 75c0,4 -2,7 -5,9 -4,2 -8,1 -11,-1l-111 -81c-2,-2 -4,-2 -6,-2l-52 0 0 -150 52 0c2,0 4,-1 6,-2l111 -82c3,-2 7,-2 11,0 3,1 5,5 5,9l0 75 0 30zm-215 120l-20 0c-5,0 -10,-5 -10,-10l0 -130c0,-6 5,-10 10,-10l20 0 0 150z"/>
 </g>
</svg>
