<?xml version="1.0" encoding="UTF-8"?>
<!DOCTYPE svg PUBLIC "-//W3C//DTD SVG 1.1//EN" "http://www.w3.org/Graphics/SVG/1.1/DTD/svg11.dtd">
<!-- Creator: CorelDRAW X6 -->
<svg xmlns="http://www.w3.org/2000/svg" xml:space="preserve" width="100%" height="100%" version="1.1" style="shape-rendering:geometricPrecision; text-rendering:geometricPrecision; image-rendering:optimizeQuality; fill-rule:evenodd; clip-rule:evenodd"
viewBox="0 0 500 500"
 xmlns:xlink="http://www.w3.org/1999/xlink">
 <defs>
  <style type="text/css">
   <![CDATA[
    .str1 {stroke:#2B2A29;stroke-width:0.1}
    .str0 {stroke:#333333;stroke-width:10}
    .fil1 {fill:none}
    .fil2 {fill:#333333}
    .fil0 {fill:url(#id0)}
   ]]>
  </style>
  <linearGradient id="id0" gradientUnits="userSpaceOnUse" x1="152.55" y1="168.333" x2="152.55" y2="329.305">
   <stop offset="0" style="stop-color:#008BFF"/>
   <stop offset="0.501961" style="stop-color:#4EAFFF"/>
   <stop offset="1" style="stop-color:#008BFF"/>
  </linearGradient>
 </defs>
 <g id="Layer_x0020_1">
  <metadata id="CorelCorpID_0Corel-Layer"/>
  <path class="fil0 str0" d="M275 99l0 75 0 150 0 75c0,4 -2,7 -5,9 -4,2 -8,1 -11,-1l-111 -81c-2,-2 -4,-2 -6,-2l-102 0c-5,0 -10,-5 -10,-10l0 -130c0,-6 5,-10 10,-10l102 0c2,0 4,-1 6,-2l111 -82c3,-2 7,-2 11,0 3,1 5,5 5,9z"/>
  <path class="fil2" d="M60 174l30 0 0 150 -30 0 0 -150zm219 32c9,12 15,27 15,44 0,17 -6,32 -15,44l0 -88z"/>
  <polygon class="fil2" points="443,169 471,197 418,250 471,303 443,331 390,278 337,331 309,303 362,250 309,197 337,169 390,222 "/>
 </g>
</svg>
