<?xml version="1.0" encoding="UTF-8"?>
<!DOCTYPE svg PUBLIC "-//W3C//DTD SVG 1.1//EN" "http://www.w3.org/Graphics/SVG/1.1/DTD/svg11.dtd">
<!-- Creator: CorelDRAW X6 -->
<svg xmlns="http://www.w3.org/2000/svg" xml:space="preserve" width="100%" height="100%" version="1.1" style="shape-rendering:geometricPrecision; text-rendering:geometricPrecision; image-rendering:optimizeQuality; fill-rule:evenodd; clip-rule:evenodd"
viewBox="0 0 500 500"
 xmlns:xlink="http://www.w3.org/1999/xlink">
 <defs>
  <style type="text/css">
   <![CDATA[
    .str1 {stroke:red;stroke-width:0.762}
    .str0 {stroke:#333333;stroke-width:30;stroke-linecap:round}
    .fil0 {fill:none}
    .fil1 {fill:#333333}
   ]]>
  </style>
 </defs>
 <g id="Layer_x0020_1">
  <metadata id="CorelCorpID_0Corel-Layer"/>
  <path class="fil0 str0" d="M314 187c12,18 19,41 19,63 0,22 -7,43 -18,62"/>
  <path class="fil1" d="M275 204c10,13 16,29 16,46 0,18 -6,33 -16,46l0 28 0 75c0,4 -2,8 -5,9 -4,2 -7,2 -11,0l-111 -82c-2,-1 -4,-2 -6,-2l-52 0 0 -150 52 0c2,0 4,0 6,-2l111 -81c4,-3 7,-3 11,-1 3,2 5,5 5,9l0 75 0 30zm-215 120l-20 0c-5,0 -10,-4 -10,-10l0 -130c0,-5 5,-10 10,-10l20 0 0 150z"/>
 </g>
</svg>
