<?xml version="1.0" encoding="UTF-8"?>
<!DOCTYPE svg PUBLIC "-//W3C//DTD SVG 1.1//EN" "http://www.w3.org/Graphics/SVG/1.1/DTD/svg11.dtd">
<!-- Creator: CorelDRAW X6 -->
<svg xmlns="http://www.w3.org/2000/svg" xml:space="preserve" width="100%" height="100%" version="1.1" style="shape-rendering:geometricPrecision; text-rendering:geometricPrecision; image-rendering:optimizeQuality; fill-rule:evenodd; clip-rule:evenodd"
viewBox="0 0 500 500"
 xmlns:xlink="http://www.w3.org/1999/xlink">
 <defs>
  <style type="text/css">
   <![CDATA[
    .str3 {stroke:#2B2A29;stroke-width:0.1}
    .str2 {stroke:#333333;stroke-width:10}
    .str1 {stroke:#333333;stroke-width:15}
    .str0 {stroke:#333333;stroke-width:25;stroke-linecap:round}
    .fil0 {fill:none}
   ]]>
  </style>
 </defs>
 <g id="Layer_x0020_1">
  <metadata id="CorelCorpID_0Corel-Layer"/>
  <path class="fil0 str0" d="M394 105c33,40 51,91 51,144 0,52 -18,103 -51,144m-39 -250c23,31 35,68 35,105 0,39 -12,76 -36,106m-41 -168c13,19 19,41 19,64 0,22 -6,43 -17,61"/>
  <path class="fil0 str1" d="M275 204c10,13 15,29 15,46 0,17 -5,33 -15,46l0 28 0 75c0,4 -2,7 -5,9 -4,2 -8,1 -11,-1l-111 -81c-2,-2 -4,-2 -6,-2 -34,0 -68,0 -102,0 -5,0 -10,-5 -10,-10l0 -130c0,-6 5,-10 10,-10 34,0 68,0 102,0 2,0 4,-1 6,-2l111 -82c3,-2 7,-2 11,0 3,1 5,5 5,9l0 75 0 30z"/>
  <line class="fil0 str2" x1="75" y1="174" x2="75" y2= "324" />
  
 </g>
</svg>
