<?xml version="1.0" encoding="UTF-8"?>
<!DOCTYPE svg PUBLIC "-//W3C//DTD SVG 1.1//EN" "http://www.w3.org/Graphics/SVG/1.1/DTD/svg11.dtd">
<!-- Creator: CorelDRAW X6 -->
<svg xmlns="http://www.w3.org/2000/svg" xml:space="preserve" width="100%" height="100%" version="1.1" shape-rendering="geometricPrecision" text-rendering="geometricPrecision" image-rendering="optimizeQuality" fill-rule="evenodd" clip-rule="evenodd"
viewBox="0 0 500 500"
 xmlns:xlink="http://www.w3.org/1999/xlink">
 <defs>
   <linearGradient id="id0" gradientUnits="userSpaceOnUse" x1="250" y1="162.35" x2="250" y2="304.594">
    <stop offset="0" stop-color="#FCFCFD"/>
    <stop offset="1" stop-color="#FFFFFF"/>
   </linearGradient>
   <linearGradient id="id1" gradientUnits="userSpaceOnUse" x1="250" y1="345.472" x2="250" y2="390.988">
    <stop offset="0" stop-color="#FFFFFF"/>
    <stop offset="1" stop-color="#FEFEFE"/>
   </linearGradient>
 </defs>
 <g id="Layer_x0020_1">
  <metadata id="CorelCorpID_0Corel-Layer"/>
  <path fill="url(#id0)" stroke="#434242" stroke-width="10" stroke-linejoin="round" d="M255 327l-10 0c-1,-15 -4,-33 -10,-55l-12 -43c-7,-26 -10,-44 -10,-55 0,-10 3,-19 10,-25 7,-6 16,-9 27,-9 11,0 20,3 27,9 7,7 10,15 10,24 0,10 -3,29 -11,56l-12 43c-4,16 -7,34 -9,55z"/>
  <circle fill="url(#id1)" stroke="#434242" stroke-width="10" cx="250" cy="368" r="30"/>
  <path fill="none" stroke="#434242" stroke-width="20" d="M267 71l186 329c4,7 4,14 0,20 -4,6 -10,10 -17,10l-372 0c-7,0 -13,-4 -17,-10 -4,-6 -4,-13 0,-20l186 -329c3,-7 10,-10 17,-10 7,0 14,3 17,10z"/>
 </g>
</svg>
