<?xml version="1.0" encoding="UTF-8"?>
<!DOCTYPE svg PUBLIC "-//W3C//DTD SVG 1.1//EN" "http://www.w3.org/Graphics/SVG/1.1/DTD/svg11.dtd">
<!-- Creator: CorelDRAW X6 -->
<svg xmlns="http://www.w3.org/2000/svg" xml:space="preserve" width="100%" height="100%" version="1.1" shape-rendering="geometricPrecision" text-rendering="geometricPrecision" image-rendering="optimizeQuality" fill-rule="evenodd" clip-rule="evenodd"
viewBox="0 0 500 500"
 xmlns:xlink="http://www.w3.org/1999/xlink">
 <g id="Layer_x0020_1">
  <metadata id="CorelCorpID_0Corel-Layer"/>
  <path fill="#FFF" d="M250 57c-8,0 -15,7 -15,15 0,8 7,15 15,15 8,0 15,-7 15,-15 0,-8 -7,-15 -15,-15zm87 326l0 22 -1 1 39 35c16,15 24,30 16,30l-44 0c-31,-8 -64,-12 -97,-12 -33,0 -66,4 -97,12l-44 0c-8,0 0,-15 16,-30l39 -35 -1 -1 0 -22c-56,-30 -96,-87 -100,-154l98 0c6,44 43,78 89,78 46,0 83,-34 89,-78l98 0c-4,67 -44,124 -100,154zm-87 -186c-11,0 -20,9 -20,20 0,11 9,20 20,20 11,0 20,-9 20,-20 0,-11 -9,-20 -20,-20zm0 -43c-34,0 -62,28 -62,63 0,34 28,62 62,62 34,0 62,-28 62,-62 0,-35 -28,-63 -62,-63zm0 -125c-101,0 -183,80 -187,180l97 0c5,-46 43,-82 90,-82 47,0 85,36 90,82l97 0c-4,-100 -86,-180 -187,-180zm0 150c-21,0 -38,17 -38,38 0,21 17,38 38,38 21,0 38,-17 38,-38 0,-21 -17,-38 -38,-38zm0 33c-3,0 -5,2 -5,5 0,3 2,5 5,5 3,0 5,-2 5,-5 0,-3 -2,-5 -5,-5z"/>
 </g>
</svg>
