<?xml version="1.0" encoding="UTF-8"?>
<!DOCTYPE svg PUBLIC "-//W3C//DTD SVG 1.1//EN" "http://www.w3.org/Graphics/SVG/1.1/DTD/svg11.dtd">
<!-- Creator: CorelDRAW X6 -->
<svg xmlns="http://www.w3.org/2000/svg" xml:space="preserve" width="100%" height="100%" version="1.1" shape-rendering="geometricPrecision" text-rendering="geometricPrecision" image-rendering="optimizeQuality" fill-rule="evenodd" clip-rule="evenodd"
viewBox="0 0 500 500"
 xmlns:xlink="http://www.w3.org/1999/xlink">
 <g id="Layer_x0020_1">
  <metadata id="CorelCorpID_0Corel-Layer"/>
  <path fill="none" stroke="#434242" stroke-width="20" stroke-linejoin="round" d="M250 26c-104,0 -187,84 -187,187 0,72 40,135 100,166l0 30 -38 36c-16,14 -24,29 -16,29l44 0c64,-16 130,-16 194,0l44 0c8,0 0,-15 -16,-29 -13,-12 -26,-24 -39,-36l1 -30c60,-31 100,-94 100,-166 0,-103 -83,-187 -187,-187z"/>
  <path fill="none" stroke="#434242" stroke-width="7.5" d="M250 45c-8,0 -15,7 -15,15 0,8 7,15 15,15 8,0 15,-7 15,-15 0,-8 -7,-15 -15,-15z"/>
  <circle fill="none" stroke="#434242" stroke-width="10" cx="250" cy="213" r="38"/>
  <path fill="none" stroke="#434242" stroke-width="15" d="M250 151c-34,0 -62,28 -62,62 0,35 28,63 62,63 34,0 62,-28 62,-63 0,-34 -28,-62 -62,-62z"/>
  <circle fill="none" stroke="#434242" stroke-width="10" cx="250" cy="213" r="5"/>
  <line fill="none" stroke="#434242" stroke-width="10" x1="96" y1="213" x2="185" y2= "213" />
  <path fill="none" stroke="#434242" stroke-width="10" d="M238 60c-80,6 -142,73 -142,153 0,85 69,154 154,154 85,0 154,-69 154,-154 0,-80 -62,-146 -141,-153"/>
  <line fill="none" stroke="#434242" stroke-width="10" x1="317" y1="213" x2="405" y2= "213" />
 </g>
</svg>
