<?xml version="1.0" encoding="UTF-8"?>
<!DOCTYPE svg PUBLIC "-//W3C//DTD SVG 1.1//EN" "http://www.w3.org/Graphics/SVG/1.1/DTD/svg11.dtd">
<!-- Creator: CorelDRAW X6 -->
<svg xmlns="http://www.w3.org/2000/svg" xml:space="preserve" width="100%" height="100%" version="1.1" shape-rendering="geometricPrecision" text-rendering="geometricPrecision" image-rendering="optimizeQuality" fill-rule="evenodd" clip-rule="evenodd"
viewBox="0 0 500 500"
 xmlns:xlink="http://www.w3.org/1999/xlink">
 <defs>
   <linearGradient id="id0" gradientUnits="userSpaceOnUse" x1="249.991" y1="445.22" x2="249.991" y2="428.846">
    <stop offset="0" stop-color="#727273"/>
    <stop offset="1" stop-color="#151515"/>
   </linearGradient>
   <linearGradient id="id1" gradientUnits="userSpaceOnUse" x1="163.071" y1="408.819" x2="336.929" y2="408.819">
    <stop offset="0" stop-color="#2B2B2B"/>
    <stop offset="0.501961" stop-color="#5A5A5A"/>
    <stop offset="1" stop-color="#2B2B2B"/>
   </linearGradient>
   <linearGradient id="id2" gradientUnits="userSpaceOnUse" x1="252.538" y1="23.282" x2="247.462" y2="403.222">
    <stop offset="0" stop-color="#008BFF"/>
    <stop offset="1" stop-color="#00AAFF"/>
   </linearGradient>
   <linearGradient id="id3" gradientUnits="userSpaceOnUse" x1="304.399" y1="158.853" x2="195.601" y2="267.651">
    <stop offset="0" stop-color="#4C4B4C"/>
    <stop offset="1" stop-color="#1D1F1F"/>
   </linearGradient>
   <linearGradient id="id4" gradientUnits="userSpaceOnUse" x1="210.053" y1="253.199" x2="289.947" y2="173.305">
    <stop offset="0" stop-color="#4C4B4C"/>
    <stop offset="1" stop-color="#1D1F1F"/>
   </linearGradient>
 </defs>
 <g id="Layer_x0020_1">
  <metadata id="CorelCorpID_0Corel-Layer"/>
  <path fill="url(#id0)" stroke="#434242" stroke-width="2" d="M327 400c15,15 32,30 48,45 16,14 24,29 16,29l-44 0c-64,-16 -130,-16 -194,0l-44 0c-8,0 0,-15 16,-29 16,-15 33,-30 49,-45 48,20 104,20 153,0z"/>
  <path fill="url(#id1)" d="M337 384l0 25c-55,24 -119,24 -174,0l0 -25c54,28 120,28 174,0z"/>
  <circle fill="url(#id2)" stroke="#434242" stroke-width="10" cx="250" cy="213" r="187"/>
  <circle fill="#434242" cx="250" cy="68" r="15"/>
  <circle fill="#0060B1" cx="250" cy="354" r="18"/>
  <line fill="none" stroke="#434242" stroke-width="10" x1="63" y1="213" x2="437" y2= "213" />
  <circle fill="white" cx="250" cy="213" r="90"/>
  <circle fill="url(#id3)" cx="250" cy="213" r="80"/>
  <circle fill="none" cx="250" cy="213" r="38"/>
  <circle fill="url(#id4)" cx="250" cy="213" r="62"/>
  <circle fill="#F0F0F0" cx="250" cy="213" r="35"/>
  <circle fill="#008BFF" cx="250" cy="213" r="31"/>
  <circle fill="#00AAFF" cx="250" cy="213" r="20"/>
  <circle fill="#E8E8E8" cx="250" cy="213" r="5"/>
 </g>
</svg>
