<?xml version="1.0" encoding="UTF-8"?>
<!DOCTYPE svg PUBLIC "-//W3C//DTD SVG 1.1//EN" "http://www.w3.org/Graphics/SVG/1.1/DTD/svg11.dtd">
<!-- Creator: CorelDRAW X6 -->
<svg xmlns="http://www.w3.org/2000/svg" xml:space="preserve" width="100%" height="100%" version="1.1" style="shape-rendering:geometricPrecision; text-rendering:geometricPrecision; image-rendering:optimizeQuality; fill-rule:evenodd; clip-rule:evenodd"
viewBox="0 0 500 500"
 xmlns:xlink="http://www.w3.org/1999/xlink">
 <defs>
  <style type="text/css">
   <![CDATA[
    .str0 {stroke:#2B2A29;stroke-width:0.1}
    .str3 {stroke:#333333;stroke-width:7.5}
    .str2 {stroke:#333333;stroke-width:10;stroke-linecap:round}
    .str1 {stroke:#333333;stroke-width:15}
    .fil0 {fill:none}
    .fil1 {fill:white}
   ]]>
  </style>
 </defs>
 <g id="Layer_x0020_1">
  <metadata id="CorelCorpID_0Corel-Layer"/>
  
  <path class="fil1" d="M202 262l1 -1c-64,-64 -76,14 -142,-52 -26,-26 -35,-62 -28,-96 0,-1 1,-3 3,-3 2,-1 4,0 5,1l56 56c1,1 2,1 3,1l64 0c3,0 5,-2 5,-5l0 -64c0,-1 0,-2 -1,-3l-56 -55c-1,-2 -2,-4 -1,-5 1,-2 2,-3 4,-4 33,-6 69,3 95,29 67,67 -14,79 50,143l2 -2c2,-2 5,-2 7,0l187 187c18,19 18,49 0,67 -18,19 -49,19 -67,0l-187 -187c-2,-2 -2,-5 0,-7zm89 29c5,-5 12,-5 17,0l114 114c5,5 5,12 0,17 -5,4 -12,4 -17,0l-114 -114c-4,-5 -4,-13 0,-17z"/>
  <path class="fil0 str1" d="M203 261c-64,-64 -76,14 -142,-52 -26,-26 -35,-62 -28,-96 0,-1 1,-3 3,-3 2,-1 4,0 5,1l56 56c1,1 2,1 3,1l64 0c3,0 5,-2 5,-5l0 -64c0,-1 0,-2 -1,-3l-56 -55c-1,-2 -2,-4 -1,-5 1,-2 2,-3 4,-4 33,-6 69,3 95,29 67,67 -14,79 50,143 155,176 176,165 196,185 18,19 18,49 0,67 -18,19 -49,19 -67,0 -20,-19 -9,-42 -186,-195z"/>
  <line class="fil0 str2" x1="238" y1="238" x2="402" y2= "401" />
  <circle class="fil0 str3" cx="422" cy="422" r="26"/>
 </g>
</svg>
