<?xml version="1.0" encoding="UTF-8"?>
<!DOCTYPE svg PUBLIC "-//W3C//DTD SVG 1.1//EN" "http://www.w3.org/Graphics/SVG/1.1/DTD/svg11.dtd">
<!-- Creator: CorelDRAW X6 -->
<svg xmlns="http://www.w3.org/2000/svg" xml:space="preserve" width="100%" height="100%" version="1.1" style="shape-rendering:geometricPrecision; text-rendering:geometricPrecision; image-rendering:optimizeQuality; fill-rule:evenodd; clip-rule:evenodd"
viewBox="0 0 500 500"
 xmlns:xlink="http://www.w3.org/1999/xlink">
 <defs>
  <style type="text/css">
   <![CDATA[
    .str0 {stroke:#2B2A29;stroke-width:0.1}
    .str1 {stroke:#333333;stroke-width:0.762}
    .str2 {stroke:#333333;stroke-width:10}
    .fil0 {fill:none}
    .fil1 {fill:#434242}
    .fil2 {fill:#008BFF}
    .fil3 {fill:white}
   ]]>
  </style>
 </defs>
 <g id="Layer_x0020_1">
  <metadata id="CorelCorpID_0Corel-Layer"/>
  
  <path class="fil1 str1" d="M203 58c-26,-26 -62,-36 -96,-29 -2,1 -3,2 -4,4 0,1 0,3 2,5l55 55c1,1 2,2 2,4l0 63c0,3 -2,5 -5,5l-64 0c-1,0 -2,0 -3,-1l-56 -55c-1,-2 -3,-2 -5,-2 -1,1 -3,2 -3,4 -7,34 3,69 29,95 67,67 79,-13 143,50l56 -56c-64,-64 15,-76 -51,-142z"/>
  <path class="fil2 str2" d="M247 199l-51 51c-1,1 -1,4 0,5l197 197c16,16 41,16 57,0 16,-15 16,-41 0,-56l-197 -197c-2,-2 -4,-2 -6,0z"/>
  <path class="fil3" d="M285 288c-5,4 -5,12 0,16l114 114c4,5 12,5 16,0 5,-4 5,-12 0,-16l-114 -114c-4,-5 -12,-5 -16,0z"/>
 </g>
</svg>
