<?xml version="1.0" encoding="UTF-8"?>
<!DOCTYPE svg PUBLIC "-//W3C//DTD SVG 1.1//EN" "http://www.w3.org/Graphics/SVG/1.1/DTD/svg11.dtd">
<!-- Creator: CorelDRAW X6 -->
<svg xmlns="http://www.w3.org/2000/svg" xml:space="preserve" width="100%" height="100%" version="1.1" style="shape-rendering:geometricPrecision; text-rendering:geometricPrecision; image-rendering:optimizeQuality; fill-rule:evenodd; clip-rule:evenodd"
viewBox="0 0 500 500"
 xmlns:xlink="http://www.w3.org/1999/xlink">
 <defs>
  <style type="text/css">
   <![CDATA[
    .str3 {stroke:#2B2A29;stroke-width:0.1}
    .str1 {stroke:#333333;stroke-width:10}
    .str0 {stroke:#333333;stroke-width:15;stroke-linejoin:round}
    .str2 {stroke:#333333;stroke-width:25;stroke-linecap:round}
    .fil0 {fill:none}
   ]]>
  </style>
 </defs>
 <g id="Layer_x0020_1">
  <metadata id="CorelCorpID_0Corel-Layer"/>
  <path class="fil0 str0" d="M76 76c53,-54 140,-54 194,0 47,47 53,121 16,174l9 10 -35 35 -9 -9c-54,37 -128,31 -175,-16 -54,-54 -54,-141 0,-194z"/>
  <circle class="fil0 str1" transform="matrix(0.642948 -0.642948 0.642948 0.642948 172.904 172.903)" r="127"/>
  <path class="fil0 str0" d="M258 307l2 -12 35 -35 12 -2 143 142c14,14 14,36 0,50 -14,13 -36,13 -49,0l-143 -143z"/>
  <line class="fil0 str2" x1="98" y1="173" x2="248" y2= "173" />
  
 </g>
</svg>
