<?xml version="1.0" encoding="UTF-8"?>
<!DOCTYPE svg PUBLIC "-//W3C//DTD SVG 1.1//EN" "http://www.w3.org/Graphics/SVG/1.1/DTD/svg11.dtd">
<!-- Creator: CorelDRAW X6 -->
<svg xmlns="http://www.w3.org/2000/svg" xml:space="preserve" width="100%" height="100%" version="1.1" style="shape-rendering:geometricPrecision; text-rendering:geometricPrecision; image-rendering:optimizeQuality; fill-rule:evenodd; clip-rule:evenodd"
viewBox="0 0 500 500"
 xmlns:xlink="http://www.w3.org/1999/xlink">
 <defs>
  <style type="text/css">
   <![CDATA[
    .str0 {stroke:#2B2A29;stroke-width:0.1}
    .fil0 {fill:none}
    .fil1 {fill:#333333}
   ]]>
  </style>
 </defs>
 <g id="Layer_x0020_1">
  <metadata id="CorelCorpID_0Corel-Layer"/>
  
  <path class="fil1" d="M258 307l2 -12 -9 -9c-54,37 -128,31 -175,-16 -54,-54 -54,-141 0,-194 53,-54 140,-54 194,0 47,47 53,121 16,174l9 10 12 -2 143 142c14,14 14,36 0,50 -14,13 -36,13 -49,0l-143 -143zm-15 -159c3,0 5,2 5,5l0 40c0,3 -2,5 -5,5 -77,0 -63,0 -140,0 -3,0 -5,-2 -5,-5l0 -40c0,-3 2,-5 5,-5 77,0 63,0 140,0zm-152 -57c45,-45 119,-45 164,0 45,45 45,119 0,164 -45,45 -119,45 -164,0 -45,-45 -45,-119 0,-164z"/>
 </g>
</svg>
