<?xml version="1.0" encoding="UTF-8"?>
<!DOCTYPE svg PUBLIC "-//W3C//DTD SVG 1.1//EN" "http://www.w3.org/Graphics/SVG/1.1/DTD/svg11.dtd">
<!-- Creator: CorelDRAW X6 -->
<svg xmlns="http://www.w3.org/2000/svg" xml:space="preserve" width="100%" height="100%" version="1.1" style="shape-rendering:geometricPrecision; text-rendering:geometricPrecision; image-rendering:optimizeQuality; fill-rule:evenodd; clip-rule:evenodd"
viewBox="0 0 500 500"
 xmlns:xlink="http://www.w3.org/1999/xlink">
 <defs>
  <style type="text/css">
   <![CDATA[
    .str0 {stroke:#2B2A29;stroke-width:0.1}
    .str1 {stroke:#333333;stroke-width:7.5}
    .fil0 {fill:none}
    .fil1 {fill:#008BFF}
    .fil3 {fill:url(#id0)}
    .fil2 {fill:url(#id1)}
   ]]>
  </style>
  <linearGradient id="id0" gradientUnits="userSpaceOnUse" x1="385.406" y1="335.776" x2="335.984" y2="385.198">
   <stop offset="0" style="stop-color:#434242"/>
   <stop offset="0.478431" style="stop-color:#545454"/>
   <stop offset="1" style="stop-color:#434242"/>
  </linearGradient>
  <radialGradient id="id1" gradientUnits="objectBoundingBox" cx="50%" cy="50%" r="50%" fx="50%" fy="50%">
   <stop offset="0" style="stop-color:white"/>
   <stop offset="0.580392" style="stop-color:#EBEBEB"/>
   <stop offset="1" style="stop-color:#D1D1D1"/>
  </radialGradient>
 </defs>
 <g id="Layer_x0020_1">
  <metadata id="CorelCorpID_0Corel-Layer"/>
  
  <path class="fil1 str1" d="M76 76c53,-54 140,-54 194,0 47,47 53,121 16,174l17 17 -36 35 -16 -16c-54,37 -128,31 -175,-16 -54,-54 -54,-141 0,-194z"/>
  <path class="fil2" d="M91 91c45,-45 119,-45 164,0 45,45 45,119 0,164 -45,45 -119,45 -164,0 -45,-45 -45,-119 0,-164z"/>
  <path class="fil3" d="M258 307l2 -12 35 -35 12 -2 143 142c14,14 14,36 0,50 -14,13 -36,13 -49,0l-143 -143z"/>
  <path class="fil1" d="M198 103l0 40c0,3 2,5 5,5l40 0c3,0 5,2 5,5l0 40c0,3 -2,5 -5,5l-40 0c-3,0 -5,2 -5,5l0 40c0,3 -2,5 -5,5l-40 0c-3,0 -5,-2 -5,-5l0 -40c0,-3 -2,-5 -5,-5l-40 0c-3,0 -5,-2 -5,-5l0 -40c0,-3 2,-5 5,-5l40 0c3,0 5,-2 5,-5l0 -40c0,-3 2,-5 5,-5l40 0c3,0 5,2 5,5z"/>
 </g>
</svg>
